<?xml version="1.0" encoding="UTF-8"?>
<svg id="Layer_1" xmlns="http://www.w3.org/2000/svg" version="1.1" viewBox="0 0 500 407">
  <!-- Generator: Adobe Illustrator 29.5.0, SVG Export Plug-In . SVG Version: 2.1.0 Build 137)  -->
  <defs>
    <style>
      .st0 {
        display: none;
      }

      .st0, .st1 {
        fill: #ebebeb;
      }

      .st2 {
        fill: #263238;
      }

      .st3 {
        fill: #fff;
      }

      .st4 {
        fill: #f7a9a0;
      }

      .st5, .st6 {
        isolation: isolate;
      }

      .st5, .st7 {
        opacity: .1;
      }

      .st8 {
        fill: #dbdbdb;
      }

      .st9 {
        fill: #1b84ff;
      }

      .st6 {
        opacity: .3;
      }

      .st10 {
        fill: #ffc727;
      }

      .st11 {
        fill: #455a64;
      }
    </style>
  </defs>
  <g id="freepik--background-complete--inject-2">
    <path class="st1" d="M404.79,292.49c7.63-.16,19-.43,26.48-.45l-.44.45-.06-11.19.5.5c-7.81,0-18.78-.09-26.48-.23l.28-.27c-.08,3.19-.19,7.93-.28,11.19ZM404.79,292.49c-.05-3.44-.25-8.05-.27-11.46,7.77-.16,18.87-.2,26.75-.23h.5v12.14h-.45c-7.55,0-18.83-.29-26.48-.44h-.05Z"/>
    <path class="st1" d="M419.56,306.6c7.64-.16,19-.43,26.48-.45l-.44.45-.05-11.19.49.5c-7.81,0-18.78-.09-26.48-.23l.28-.27c-.08,3.19-.19,7.93-.28,11.19ZM419.56,306.6c0-3.44-.25-8.05-.27-11.46,7.77-.16,18.87-.2,26.75-.23h.51v.5l-.05,11.19v.45h-.5c-7.55,0-18.83-.29-26.48-.44h.04Z"/>
    <path class="st1" d="M390,306.6c7.63-.16,19-.43,26.48-.45l-.44.45-.04-11.19.5.5c-7.81,0-18.78-.09-26.48-.23l.27-.27c-.07,3.19-.18,7.93-.27,11.19h-.02ZM390,306.6c0-3.44-.25-8.05-.27-11.46,7.77-.16,18.87-.2,26.75-.23h.5v.5l.02,11.19v.45h-.44c-7.55,0-18.83-.29-26.48-.44h-.08Z"/>
    <path class="st1" d="M68.73,306.6c7.63-.16,19-.43,26.48-.45l-.45.45-.05-11.19.5.5c-7.81,0-18.78-.09-26.48-.23l.27-.27c-.07,3.19-.19,7.93-.27,11.19ZM68.73,306.6c0-3.44-.26-8.05-.28-11.46,7.77-.16,18.87-.2,26.76-.23h.5v.5l-.06,11.19v.45h-.44c-7.56,0-18.83-.29-26.48-.44h0Z"/>
    <path class="st0" d="M419.56-15.18c7.64-.17,19-.43,26.48-.45l-.44.45-.05-11.19.49.5c-7.81,0-18.78-.09-26.48-.23l.28-.27c-.08,3.19-.19,7.93-.28,11.19ZM419.56-15.18c0-3.44-.25-8.06-.27-11.46,7.77-.16,18.87-.2,26.75-.23h.51v.51l-.05,11.19v.44h-.5c-7.55,0-18.83-.3-26.48-.44h.04Z"/>
    <path class="st1" d="M296.21,177.33c-7.63.16-18.95.43-26.48.44l.45-.44.05,11.19-.5-.5c7.81,0,18.79.08,26.48.22l-.27.28c.07-3.2.19-7.94.27-11.19ZM296.21,177.33c.05,3.44.26,8.05.28,11.46-7.77.15-18.87.19-26.76.23h-.5v-.5l.06-11.19v-.45h.44c7.56,0,18.83.3,26.48.45Z"/>
    <path class="st1" d="M281.44,163.22c-7.63.16-18.95.43-26.48.44l.45-.44.05,11.19-.5-.5c7.81,0,18.78.08,26.48.22l-.27.28c.07-3.19.18-7.94.27-11.19ZM281.44,163.22c.05,3.44.26,8,.28,11.46-7.78.15-18.87.2-26.76.23h-.5v-.5l.06-11.19v-.45h.48c7.55,0,18.83.3,26.48.45h-.04Z"/>
    <path class="st8" d="M399,210.38c-46.66,8.38-34.33,77.49,12.4,69.11s34.31-77.49-12.4-69.11Z"/>
    <path class="st1" d="M403.36,209.6c-44.46,8-32.14,77.09,12.4,69.1s32.14-77.09-12.4-69.1Z"/>
    <path class="st8" d="M437.76,245.78c-.24,12.31-7.41,24.24-23.06,27.05-37,6.63-47.19-50.74-10.29-57.36l.73-.11c-34.61,6.92-24.69,61.21,10.55,54.89,14.37-2.58,21.31-13.25,22.07-24.47Z"/>
    <path class="st8" d="M412.24,223c.63.09,1.07.67,1,1.3l-.24,1.9c3.13.61,6,2.15,8.24,4.41.37.28.57.73.54,1.2-.09.68-.72,1.16-1.4,1.07-.33-.03-.62-.19-.83-.45-1.87-1.98-4.27-3.37-6.91-4l-1.56,13.57c7.19,2.42,10,5.56,9.41,10.31-.6,5.15-5.35,8.28-11.44,7.76l-.44,3.79c-.1.63-.68,1.07-1.31,1-.63-.09-1.07-.67-1-1.3l.45-3.83c-4.03-.79-7.68-2.9-10.37-6-.31-.27-.46-.68-.41-1.09.1-.65.69-1.12,1.35-1.07.33.03.63.19.84.45,2.26,2.81,5.42,4.76,8.94,5.53l1.63-13.84c-7.09-2.46-9.79-5.48-9.22-10.33s5.29-8.14,11.23-7.59l.21-1.85c.12-.6.68-1,1.29-.94ZM409,241.28l1.56-13.28c-4.72-.46-8.16,2-8.57,5.48-.39,3.33.92,5.52,7.01,7.8ZM410.79,244.49l-1.58,13.4c4.87.47,8.35-2,8.79-5.66.39-3.35-1.07-5.59-7.21-7.74Z"/>
    <path class="st1" d="M443.06,79.39c-29.13,9-58.26-30.27-87.39-21.26,4.56-8.86,9.68-17.42,15.33-25.63,23.71,4,47.42,28.81,71.13,22.29l.93,24.6Z"/>
    <path class="st8" d="M414,63.78c-.93,4.32-7,5.32-13.58,1.83s-10.46-9.09-8.69-12.87,7.85-4.39,13.57-1.47,9.62,8.24,8.7,12.51Z"/>
    <path class="st8" d="M384.59,48.89c-.48.86-2.21,1-3.88.39s-2.58-1.75-2.06-2.65,2.26-1.17,3.87-.52,2.54,1.89,2.07,2.78Z"/>
    <path class="st8" d="M427.41,67.46c-.1,1.06-1.53,1.68-3.19,1.25s-2.9-1.68-2.76-2.7,1.58-1.45,3.19-1.06,2.85,1.46,2.76,2.51Z"/>
    <path class="st8" d="M373.15,32.93c-5.42,7.87-10.37,16.06-14.84,24.51-.88.19-1.76.41-2.65.69,4.57-8.86,9.69-17.42,15.34-25.63.71.13,1.43.27,2.15.43Z"/>
    <path class="st8" d="M443.06,79.39c-.88.27-1.76.5-2.65.69-.14-8.26-.28-16.52-.43-24.79.72-.14,1.44-.31,2.15-.5l.93,24.6Z"/>
    <path class="st8" d="M443,77.84l.06,1.55c-29.13,9-58.26-30.27-87.4-21.26l1-1.85c28.76-7.86,57.55,30.4,86.34,21.56Z"/>
    <path class="st8" d="M442.13,54.79l.06,1.54c-24.05,6.67-48.1-18.92-72.16-22.42l1-1.41c23.68,4.02,47.39,28.81,71.1,22.29Z"/>
    <path class="st8" d="M365,55.21c-1.94-.01-3.87.15-5.78.48.68-1.27,1.37-2.52,2.06-3.74,3.14-.31,4.81,1.41,3.72,3.26Z"/>
    <path class="st8" d="M440.33,75.07l.06,3.45c-1.9.4-3.84.62-5.79.65.05-1.92,2.61-3.44,5.73-4.1Z"/>
    <path class="st8" d="M435.17,57.41c1.63-.06,3.24-.25,4.84-.56l.06,3.45c-2.76.55-4.95-.98-4.9-2.89Z"/>
    <path class="st8" d="M370.15,37.38c.67-1.05,1.36-2.08,2.07-3.09,1.61.32,3.21.73,4.82,1.22-1.04,1.57-4.13,2.26-6.89,1.87Z"/>
    <path class="st1" d="M404.83,53.09c.27.14.46.39.41.55s-.11.34-.17.5c1.32.73,2.52,1.66,3.55,2.77.17.19.26.32.22.44s-.35.2-.65.05c-.14-.06-.27-.16-.37-.28-.87-.96-1.88-1.78-3-2.43l-1.16,3.48c3.26,2.13,4.49,3.53,4.14,4.79s-2.71,1.31-5.63-.15c-.11.32-.22.65-.32,1-.06.16-.36.16-.67,0s-.52-.43-.46-.59c.11-.32.22-.64.34-1-1.81-.99-3.42-2.31-4.76-3.87-.13-.16-.2-.28-.15-.39s.39-.16.69,0c.15.06.28.17.38.3,1.13,1.39,2.51,2.55,4.07,3.43l1.22-3.51c-3.2-2.14-4.32-3.52-3.84-4.72s2.74-1.16,5.36.14c.06-.16.11-.32.17-.47s.35-.13.63-.04ZM402.74,57.55l1.17-3.37c-2.1-1-3.75-1.06-4.08-.19s.17,1.7,2.91,3.56ZM403.47,58.81l-1.14,3.42c2.32,1.17,4,1.18,4.32.21s-.38-1.78-3.18-3.63Z"/>
    <path class="st1" d="M396.71,90.38c-23.14-10.41-46.29,18.8-69.44,8.39,1.8-5.48,3.6-11.21,5.4-17.14,18.84,3.83,37.67-14.5,56.51-12.28,2.51,6.65,5.02,13.59,7.53,21.03Z"/>
    <path class="st8" d="M370.31,82.11c.53,3.34-3.26,7.56-8.49,9.72s-9.34.74-9.2-2.86,3.93-7.79,8.48-9.67,8.67-.57,9.21,2.81Z"/>
    <path class="st8" d="M346.79,90.28c-.08.84-1.22,1.78-2.54,2s-2.3-.31-2.17-1.14,1.26-1.63,2.54-1.88,2.26.19,2.17,1.02Z"/>
    <path class="st8" d="M380.81,78.86c.22.79-.68,1.57-2,1.84s-2.54-.07-2.72-.83.72-1.68,2-2,2.5.21,2.72.99Z"/>
    <path class="st8" d="M334.38,81.92c-1.67,6.07-3.33,12-5,17.69-.7-.24-1.41-.52-2.11-.84,1.8-5.48,3.6-11.21,5.4-17.14.57.12,1.14.21,1.71.29Z"/>
    <path class="st8" d="M396.71,90.38c-.7-.32-1.4-.6-2.1-.84-2.38-7.15-4.76-13.89-7.14-20.33.57,0,1.14.08,1.71.14,2.51,6.65,5.02,13.59,7.53,21.03Z"/>
    <path class="st8" d="M396.24,89c.16.46.31.93.47,1.4-23.14-10.41-46.29,18.8-69.44,8.39.12-.34.23-.69.34-1,22.88,9.85,45.75-18.57,68.63-8.79Z"/>
    <path class="st8" d="M389.18,69.35c.16.42.32.84.47,1.26-19.1-2.61-38.21,16.3-57.32,12.14.12-.37.23-.75.34-1.12,18.84,3.83,37.67-14.49,56.51-12.28Z"/>
    <path class="st8" d="M334.29,99.61c-1.56-.22-3.1-.58-4.6-1.08.23-.8.47-1.6.7-2.4,2.47.74,4.22,2.05,3.9,3.48Z"/>
    <path class="st8" d="M393.17,85.26l1,2.93c-1.5-.49-3.04-.84-4.6-1.05-.49-1.49,1.12-2.57,3.6-1.88Z"/>
    <path class="st8" d="M384.07,70.41c1.28-.08,2.57-.08,3.85,0,.33.9.66,1.8,1,2.72-2.2-.23-4.37-1.29-4.85-2.72Z"/>
    <path class="st8" d="M333.37,85.58c.24-.84.47-1.67.7-2.52,1.27.19,2.55.28,3.83.29-.31,1.45-2.34,2.65-4.53,2.23Z"/>
    <path class="st1" d="M361.28,80.8c.22-.09.42-.05.42.09v.43c.99-.38,2.04-.54,3.1-.48.16,0,.26,0,.27.15s-.18.35-.42.44c-.1.03-.22.03-.32,0-.89-.06-1.79.05-2.63.35.06,1,.13,2,.19,3,2.72-.75,3.92-.6,4,.44s-1.43,2.57-3.74,3.56l.06.84c0,.14-.19.34-.44.44s-.45.06-.46-.08v-.86c-1.32.54-2.75.74-4.17.6-.13,0-.2-.06-.2-.15s.21-.37.45-.46c.1-.05.22-.06.33-.05,1.22.16,2.46.01,3.6-.44-.06-1-.12-2.05-.17-3.08-2.68.72-3.78.54-3.79-.56s1.47-2.54,3.54-3.42v-.41c0-.07.16-.26.38-.35ZM361.14,85.06c-.06-1-.11-2-.16-3-1.66.7-2.74,1.77-2.72,2.56s.59,1.02,2.88.44h0ZM361.96,85.4l.18,3c1.84-.77,3-1.87,2.9-2.68s-.74-.95-3.04-.32h-.04Z"/>
    <path class="st1" d="M288.35,228.66c-26.61-11-53.23,13-79.84,2.06,2.75-6,5.5-12.38,8.25-19.06,21.65,3.65,43.31-11.11,65-6.52,2.16,7.62,4.36,15.46,6.59,23.52Z"/>
    <path class="st8" d="M259,216.8c.24,3.95-4.44,8.16-10.45,9.67s-10.43-.83-9.88-5,5.21-8.39,10.44-9.7,9.63,1.04,9.89,5.03Z"/>
    <path class="st8" d="M232,222.18c-.18.95-1.56,1.89-3.09,2s-2.56-.58-2.33-1.51,1.61-1.75,3.09-1.9,2.51.47,2.33,1.41Z"/>
    <path class="st8" d="M271.1,214.8c.16.92-.94,1.69-2.46,1.8s-2.85-.46-3-1.37,1-1.8,2.46-1.93,2.84.58,3,1.5Z"/>
    <path class="st8" d="M218.72,212c-2.6,6.83-5.19,13.41-7.79,19.67-.81-.27-1.61-.57-2.42-.9,2.75-6,5.5-12.38,8.24-19.06.66.06,1.32.16,1.97.29Z"/>
    <path class="st8" d="M288.35,228.66c-.81-.34-1.62-.64-2.43-.91-2.05-7.84-4.1-15.51-6.17-23,.66.11,1.32.23,2,.37,2.17,7.63,4.37,15.48,6.6,23.54Z"/>
    <path class="st8" d="M287.93,227.14c.14.5.28,1,.41,1.52-26.61-11-53.22,13-79.83,2.06.18-.38.35-.76.52-1.14,26.3,10.42,52.6-12.94,78.9-2.44Z"/>
    <path class="st8" d="M281.72,205.14l.42,1.44c-22-4.91-43.93,10.34-65.9,6.34.17-.42.34-.84.52-1.26,21.65,3.65,43.31-11.11,64.96-6.52Z"/>
    <path class="st8" d="M216.7,231.72c-1.79-.3-3.55-.73-5.28-1.28l1.09-2.65c2.84.81,4.72,2.36,4.19,3.93Z"/>
    <path class="st8" d="M284.68,223c.29,1.08.57,2.17.86,3.26-1.73-.56-3.5-1-5.29-1.31-.39-1.68,1.59-2.77,4.43-1.95Z"/>
    <path class="st8" d="M275.72,205.68c1.48.09,2.96.26,4.42.51.29,1,.58,2.09.86,3.14-2.52-.5-4.88-1.98-5.28-3.65Z"/>
    <path class="st8" d="M217.15,216.06l1.08-2.83c1.46.19,2.94.31,4.41.35-.52,1.63-2.98,2.88-5.49,2.48Z"/>
    <path class="st1" d="M249.13,213.57c.25-.06.46,0,.45.19s0,.33,0,.5c1.15-.26,2.33-.26,3.48,0,.18,0,.27.1.27.22s-.23.37-.51.44c-.12.03-.24.03-.36,0-.96-.25-1.96-.29-2.94-.1,0,1.18-.07,2.36-.11,3.54,3.09-.36,4.4.06,4.41,1.28s-1.87,2.71-4.52,3.41v1c0,.16-.25.36-.53.43s-.51,0-.5-.18v-1c-1.54.36-3.14.33-4.67-.08-.14-.05-.22-.1-.21-.22s.28-.38.55-.44c.12-.04.25-.04.37,0,1.3.4,2.68.46,4,.16,0-1.2.09-2.41.14-3.61-3,.33-4.24-.07-4.13-1.35s1.9-2.69,4.28-3.31v-.49c0-.17.28-.33.53-.39ZM248.51,218.48c0-1.15.09-2.3.14-3.45-1.91.49-3.22,1.54-3.28,2.45s.55,1.25,3.14,1h0ZM249.38,219.04l-.12,3.48c2.12-.54,3.49-1.59,3.49-2.55s-.75-1.22-3.37-.97v.04Z"/>
  </g>
  <g id="freepik--Plant--inject-2">
    <path class="st9" d="M104.27,277.7c-11.41,15.45-23.27,33.39-26.21,52.77,0,.29.44.39.51.1,1.3-5.28,2.97-10.47,5-15.52,7.5-2.07,14.87-3.76,18.81-11.21,4-7.65,3.51-17.63,2.74-26,0-.42-.62-.44-.85-.14Z"/>
    <path class="st2" d="M83.72,314.9c5.13-11.5,11.71-23,20.08-32.51,0-.07.14,0,.09.09-5.48,6.74-9.64,14.08-13.7,21.54,3.78-3.84,7.92-7.27,11.5-11.34.07-.08.18,0,.11.12-3.55,4.26-7.44,8.89-12.06,12.05-1.25,2.29-2.5,4.59-3.77,6.89.31-.18.63-.33,1-.49.06,0,.11.06,0,.08-.35.18-.7.37-1.07.53-.6,1.08-1.19,2.17-1.81,3.26-.09.24-.47.03-.37-.22Z"/>
    <path class="st2" d="M87.54,310.89c3.07-1.73,6-3.7,8.76-5.89.07-.06.18,0,.11.11-2.68,2.33-5.61,4.34-8.75,6-.06.03-.14.01-.17-.05-.03-.06-.01-.14.05-.17h0Z"/>
    <path class="st9" d="M76.74,327.59c0,.23.42.23.42,0,.06-6.38,0-12.8.1-19.21,1.64-3.3,5.15-5.12,7.59-7.77,1.75-1.93,3.28-4.06,4.55-6.34,2.94-5.45,4.73-11.44,5.28-17.6.67-6.83-1.92-29.36-4.8-28.58-1.49.41-6.32,11.57-7.6,15.26-2.07,6.07-3.59,12.31-4.54,18.65-2.33,15.05-2.14,30.47-1,45.59Z"/>
    <path class="st2" d="M76.7,300.05h0c.37-8.05,2.19-16.25,3.9-24.05,1.83-8.43,4-16.38,8.32-23.9.03-.06.11-.08.17-.05.06.03.08.11.04.17h0c-2.89,5.85-5.13,12.01-6.68,18.35.29-.45.64-.88,1-1.31.12-.17.39,0,.28.16-.39.68-.84,1.33-1.36,1.92-.02,0-.04,0-.06,0-1.49,6-2.56,12.2-3.48,18.36l.2-.24s.06-.03.08-.01c.03.02.03.06.01.08-.12.21-.25.41-.37.61-.46,3.13-.89,6.24-1.32,9.33,5.56-4.75,10.31-10.35,13-17.26M90.49,282.21c-2.62,7.16-6.76,13.52-13.13,17.87-.12.83-.23,1.66-.35,2.49,0,.18-.3.13-.3,0,0-.73,0-1.47.07-2.21-.09,0-.16-.09-.15-.18,0-.05.03-.1.07-.13l13.79-17.84Z"/>
    <path class="st2" d="M79.32,288.35c4.25-6.34,8.22-12.5,11.33-19.51,0-.08.17,0,.14.06-2.63,7-6.3,14-11.26,19.62-.1.11-.3-.04-.21-.17Z"/>
    <path class="st2" d="M85,267.27c1.77-3.11,3.62-6.15,5.28-9.32.05-.09.17,0,.13.07-1.36,3.32-3.08,6.47-5.13,9.41-.16.16-.42.02-.28-.16Z"/>
    <path class="st2" d="M84.28,268.68s-.04-.05,0-.05v.05Z"/>
    <path class="st9" d="M72.42,309.13c-.08,4.23-.58,8.44-1.49,12.57.07.46.13.91.2,1.38,1.3-4.56,2.05-9.26,2.25-14,.07-.13.07-.3,0-.43h0c.18-6.36-.29-12.73-1.41-19-2-11.73-6.3-23-14.48-31.78-.24-.21-.61-.18-.82.06-.03.04-.06.08-.08.12-3.3,8.4-2.15,18.41.66,26.79,1.53,4.53,3.72,8.82,6.49,12.72,2.83,3.92,6.4,7.26,8.68,11.57Z"/>
    <path class="st2" d="M58.48,261.78c7.75,12.58,13.15,27.5,13.81,42.36,0,.26-.43.33-.47.06-.19-1.33-.39-2.66-.6-4h0c-3.2-3.07-6.5-6.31-8.79-10.15,0-.07.05-.15.11-.09,2.66,3.27,5.51,6.37,8.54,9.3-.55-3.28-1.21-6.52-2-9.7l-.61-.72c-.14-.16.09-.39.23-.23l.18.2c-1.1-4.35-2.46-8.62-4.06-12.81-2-2.35-4.18-4.39-5.62-7.22,0-.03,0-.07.04-.08.02,0,.04,0,.06.02,1.16,1.62,2.28,3.25,3.59,4.76.52.6,1.1,1.16,1.64,1.74-1.79-4.56-3.91-8.97-6.35-13.22-.06-.08-.04-.2.04-.26.08-.06.2-.04.26.04Z"/>
    <path class="st2" d="M60.05,277.3c2.5,3.37,5.36,6.59,7.69,10.07.07.1-.08.21-.16.13-2.97-3.04-5.56-6.43-7.7-10.1-.07-.11.12-.2.17-.1Z"/>
    <path class="st2" d="M68.09,288.15l.11.11c.07.07,0,.19-.12.12l-.11-.11c-.07-.08.03-.19.12-.12Z"/>
    <path class="st9" d="M46.33,286c.92,7.03,3.75,13.67,8.18,19.2,1.83,2.17,4.09,3.93,6.64,5.17,2.85,1.39,5.85,3.02,8.85,4.19,1.42,3.6,2.47,7.33,3.14,11.14.09-.33.19-.67.28-1-1.9-16.39-12.51-30.4-26.07-39.39-.3-.21-.71-.13-.92.17-.11.15-.14.34-.1.52Z"/>
    <path class="st2" d="M51,290.81c-.09-.09,0-.26.14-.18,7.46,5.54,13.4,12.86,17.28,21.3.1.22-.2.42-.33.2-.63-1.11-1.28-2.18-1.93-3.24h0c-3.1-.58-6-2.76-8.33-4.83-.06-.05,0-.14.1-.09,1.18,1.08,2.49,2,3.91,2.75,1.27.64,2.62,1,3.94,1.56-1.15-1.82-2.35-3.57-3.59-5.26-3.35-1.27-6.48-3.04-9.31-5.23-.09-.07,0-.21.09-.15,2.8,1.69,5.69,3.24,8.65,4.62-1.89-2.49-3.93-4.87-6.11-7.12-1.05-.55-2.12-1.11-3.14-1.71-.04-.03-.05-.09-.02-.13.02-.03.05-.04.09-.03.85.3,1.65.7,2.41,1.19-1.22-1.24-2.48-2.46-3.85-3.65Z"/>
    <path class="st2" d="M51.31,296.47c.19.1.36.23.52.37.05,0,0,.11-.06.08-.19-.08-.38-.19-.55-.31-.09-.06-.01-.21.09-.14Z"/>
    <polygon class="st11" points="94.6 361.19 57.42 361.19 60.42 327.34 61.08 319.87 90.94 319.87 91.59 327.34 94.6 361.19"/>
    <polygon class="st2" points="91.59 327.34 60.42 327.34 61.08 319.87 90.94 319.87 91.59 327.34"/>
    <rect class="st11" x="59.3" y="314.65" width="33.41" height="7.39"/>
  </g>
  <g id="freepik--Coin--inject-2">
    <path class="st10" d="M250,79.75c-61.65,0-61.75,87.67,0,87.67s61.75-87.67,0-87.67Z"/>
    <path class="st5" d="M250,79.75c-61.65,0-61.75,87.67,0,87.67s61.75-87.67,0-87.67Z"/>
    <path class="st10" d="M250,75.68c-61.65,0-61.75,87.67,0,87.67s61.75-87.67,0-87.67Z"/>
    <path class="st5" d="M287.49,127.73c-3.29,15.08-15.79,28.16-37.5,28.16-51.24,0-51.16-72.76,0-72.76h1c-48.15.88-47.92,69.79.94,69.79,19.94.02,31.82-11.51,35.56-25.19Z"/>
    <g class="st7">
      <path d="M250.37,92.72c.84-.02,1.55.63,1.6,1.47v2.44c4.28.28,8.39,1.76,11.87,4.27.6.43.93.79.93,1.41-.06.89-.83,1.57-1.73,1.52-.44.02-.87-.14-1.2-.43-2.9-2.23-6.36-3.61-10-4v17.08c10.14,2,14.41,5.44,14.41,11.42,0,6.47-5.94,11-14.27,11.29v4.81c-.1.88-.9,1.52-1.78,1.42-.75-.08-1.34-.67-1.42-1.42v-4.82c-5.5-.35-10.74-2.42-15-5.92-.45-.26-.75-.74-.78-1.26.08-.86.8-1.53,1.67-1.53.44-.01.87.14,1.2.43,3.63,3.2,8.18,5.14,13,5.55v-17.45c-10-2-14.14-5.37-14.14-11.48s5.87-10.86,14-11v-2.32c.04-.86.78-1.52,1.64-1.48,0,0,0,0,0,0ZM248.9,115.91v-16.66c-6.47.13-10.74,3.66-10.74,8.06,0,4.15,2.14,6.69,10.74,8.6ZM251.83,119.64v16.84c6.67-.12,11-3.66,11-8.3.01-4.18-2.32-6.77-11-8.54h0Z"/>
    </g>
  </g>
  <g id="freepik--Character--inject-2">
    <path class="st2" d="M227.85,282.67c-5.03,5.39-10.66,10.2-16.77,14.33,7.49-18.45.22-56.47-.18-50.83-2,27-14.06,58-20.09,60.34h-.1c-16.43,4.69-32.32,2.46-46.11-2.73,0-.03,0-.06,0-.09,10.07-21.1,3.69-59.91,3.17-57.41-5.68,26.8-23.08,44.57-26.49,45h0c-14.4-10.15-22.88-21.17-21.27-22.66,11.73-10.84,19.42-35.4,25.82-61.1h0c6.34-25.34,7.93-48.79,18.69-72.17,9.84-21.41,34.79-28.93,50.72-21.14,41.82,20.45,39.76,160.92,32.61,168.46Z"/>
    <path class="st2" d="M192.42,113c3.56,1,6.64,3.25,9.43,5.63,2.75,2.47,5.28,5.19,7.54,8.12,4.37,5.97,8.1,12.39,11.13,19.14,6.26,13.41,10,27.86,12.47,42.39,2.25,14.58,3.26,29.32,3,44.07,0,3.68-.24,7.36-.35,11l-.69,11-1.11,11-1.43,10.93.77-11,.55-11,.34-11c0-3.66.11-7.32,0-11-.04-14.63-1.21-29.23-3.51-43.68-2.15-14.43-6.09-28.54-11.73-42-2.8-6.73-6.28-13.16-10.39-19.19-2.08-2.98-4.42-5.77-7-8.34-1.31-1.27-2.71-2.43-4.2-3.49-1.47-1.1-3.09-1.97-4.82-2.58Z"/>
    <path class="st2" d="M97.9,264.94c3.23-5.48,6.19-11.12,8.85-16.89,2.74-5.72,5.26-11.55,7.49-17.48s4.3-11.92,6-18,3.15-12.31,4.74-18.47c3.31-12.3,6.59-24.63,10.61-36.74,2.05-6.05,4.2-12.07,6.75-17.93,1.29-2.93,2.73-5.79,4.33-8.56,1.63-2.74,3.45-5.49,6.07-7.36-2.44,2.07-4,4.89-5.5,7.67-1.42,2.83-2.68,5.74-3.79,8.71-2.3,5.9-4.24,11.95-6.06,18-3.63,12.17-6.92,24.45-10,36.79-1.67,6.15-3.2,12.3-5,18.46-1.77,6.15-3.9,12.2-6.37,18.1-4.85,11.83-10.92,23.13-18.12,33.7Z"/>
    <path class="st4" d="M194.82,246.14c13.56,42.52,49,100.08,66.41,102.6,8.3,1.2,22.88,5.13,35-3,26.54-17.73,53-53.17,61.21-73.77,3.07-7.72-37.17-34.2-43.87-28.35-15.69,13.69-35.54,42-37.94,41.48-8.85-1.85-40-35.55-61.73-59.26-26.33-28.77-24.49,3.36-19.08,20.3Z"/>
    <path class="st9" d="M213.87,300.48l34.56-43.28s-27.51-30.34-45.09-42.91c-9.85-7.05-15.45.5-14.06,11.36,4.87,37.99,24.59,74.83,24.59,74.83Z"/>
    <path class="st11" d="M213.87,300.48l34.56-43.28s-27.51-30.34-45.09-42.91c-9.85-7.05-15.45.5-14.06,11.36,4.87,37.99,24.59,74.83,24.59,74.83Z"/>
    <path class="st3" d="M237.43,247.48c-1.68,0-3.04,1.36-3.04,3.04s1.36,3.04,3.04,3.04,3.04-1.36,3.04-3.04-1.36-3.04-3.04-3.04ZM237.43,253.03c-1.39,0-2.51-1.11-2.52-2.5s1.11-2.51,2.5-2.52c1.39,0,2.51,1.11,2.52,2.5,0,0,0,.01,0,.02-.02,1.37-1.13,2.46-2.5,2.47v.03ZM209.49,256.81c-1.66,0-3,1.34-3,3s1.34,3,3,3,3-1.34,3-3-1.34-3-3-3h0ZM209.49,262.33c-1.38,0-2.5-1.12-2.5-2.5s1.12-2.5,2.5-2.5,2.5,1.12,2.5,2.5-1.12,2.5-2.5,2.5ZM211.7,232.58c-1.66,0-3,1.34-3,3s1.34,3,3,3,3-1.34,3-3-1.34-3-3-3ZM211.7,238.13c-1.39.01-2.53-1.11-2.54-2.5s1.11-2.53,2.5-2.54c1.39-.01,2.53,1.11,2.54,2.5,0,0,0,0,0,0,0,1.39-1.11,2.52-2.5,2.53h0ZM189.21,220c0,.17,0,.34-.06.52,1.06.33,1.78,1.3,1.77,2.41,0,1.07-.68,2.02-1.69,2.36,0,.13,0,.26.05.39s0,.09,0,.13c1.27-.38,2.14-1.55,2.14-2.88.02-1.37-.89-2.57-2.21-2.93ZM230.76,279.36c-.13-1.65-1.58-2.88-3.23-2.75-1.65.13-2.88,1.58-2.75,3.23.12,1.56,1.42,2.75,2.98,2.76.15.01.31.01.46,0l.58-.71c-.32.14-.66.21-1,.22-1.39,0-2.52-1.13-2.52-2.52,0-1.39,1.13-2.52,2.52-2.52s2.52,1.13,2.52,2.52h0c0,.17-.02.34-.06.51l.5-.74Z"/>
    <path class="st5" d="M244.47,262.13l-30.59,38.36s-19.72-36.85-24.6-74.83c-1-7.47,1.4-13.35,6.15-14l49.04,50.47Z"/>
    <path class="st2" d="M240.41,253.27c-5.87,6.22-21.3,23.55-29.85,36.12-.06.07.21.3.27.24,8.7-9.39,24.66-29.32,30-36,.07-.15-.31-.48-.42-.36Z"/>
    <path class="st11" d="M88.14,361.37l149.05-.37-8.19-51.23s11.79-14.31,9.56-29.82c-2.44-17-33.1-60.1-35.68-62.53-10.38-9.74-21.36-11.49-31.92-8h0c-48.8,30.66-82.82,151.95-82.82,151.95Z"/>
    <path class="st3" d="M234.05,341.48c-.89,1.07-2.47,1.21-3.53.33-.57-.48-.9-1.18-.91-1.93,0-1.39,1.12-2.52,2.51-2.53,0,0,0,0,.01,0,.47,0,.93.13,1.32.39l-.1-.65c-.38-.17-.8-.26-1.22-.26-1.68,0-3.04,1.36-3.04,3.04s1.36,3.04,3.04,3.04h0c.74,0,1.45-.28,2-.77l-.08-.65ZM204,325.82c-1.66,0-3,1.34-3,3s1.34,3,3,3,3-1.34,3-3-1.34-3-3-3ZM204,331.37c-1.39,0-2.52-1.12-2.53-2.51,0-1.39,1.12-2.52,2.51-2.53,1.39,0,2.52,1.12,2.53,2.51,0,0,0,.01,0,.02,0,1.39-1.12,2.51-2.51,2.51h0ZM227.77,276.5c-1.66,0-3,1.34-3,3s1.34,3,3,3,3-1.34,3-3c0-1.66-1.34-3-3-3-.01,0-.03,0-.04,0h.04ZM227.77,282.05c-1.39,0-2.52-1.13-2.52-2.52,0-1.39,1.13-2.52,2.52-2.52s2.52,1.13,2.52,2.52h0c0,1.39-1.11,2.51-2.5,2.52-.02,0-.04,0-.06,0h.04ZM118.47,353.24c-1.66,0-3,1.34-3,3,0,1.66,1.34,3,3,3,1.64,0,2.97-1.31,3-2.95,0-1.67-1.34-3.02-3-3.05ZM118.47,358.79c-1.39,0-2.51-1.11-2.52-2.5,0-1.39,1.11-2.51,2.5-2.52s2.51,1.11,2.52,2.5c0,0,0,.01,0,.02,0,1.38-1.12,2.49-2.5,2.5h0ZM149.36,343.26c-1.66,0-3,1.34-3,3,0,1.66,1.34,3,3,3,1.64,0,2.97-1.31,3-2.95,0-1.67-1.34-3.02-3-3.05h0ZM149.36,348.8c-1.39.01-2.52-1.1-2.53-2.49-.01-1.39,1.1-2.52,2.49-2.53,1.39-.01,2.52,1.1,2.53,2.49,0,.01,0,.03,0,.04-.01,1.37-1.12,2.48-2.49,2.49ZM126,266.53c-.14-.01-.29-.01-.43,0-.11.21-.22.4-.32.6.24-.07.5-.11.75-.11,1.39,0,2.52,1.11,2.52,2.5,0,1.39-1.11,2.52-2.5,2.52-1.1,0-2.07-.7-2.4-1.75l-.31.62c.78,1.46,2.6,2.02,4.06,1.24,1.46-.78,2.02-2.6,1.24-4.06-.51-.97-1.51-1.57-2.61-1.59v.03ZM134.53,289.75c-1.66,0-3,1.34-3,3s1.34,3,3,3,3-1.34,3-3c0-1.65-1.34-2.99-2.99-3h0ZM134.53,295.28c-1.39,0-2.51-1.11-2.52-2.5,0-1.39,1.11-2.51,2.5-2.52,1.39,0,2.51,1.11,2.52,2.5,0,0,0,0,0,0,0,1.38-1.11,2.49-2.49,2.51h0ZM159.53,226.65c-1.68,0-3.04,1.36-3.04,3.04s1.36,3.04,3.04,3.04,3.04-1.36,3.04-3.04-1.36-3.04-3.04-3.04ZM159.53,232.2c-1.39,0-2.52-1.14-2.51-2.53,0-1.39,1.14-2.52,2.53-2.51,1.39,0,2.51,1.13,2.51,2.52,0,1.39-1.13,2.52-2.52,2.52-.01,0-.03,0-.04,0h.03ZM162.53,279.27c-1.66,0-3,1.34-3,3s1.34,3,3,3,3-1.34,3-3c0-1.65-1.34-2.99-2.99-3h0ZM162.53,284.82c-1.39,0-2.51-1.13-2.5-2.52,0-1.39,1.13-2.51,2.52-2.5,1.38,0,2.49,1.12,2.5,2.5,0,1.39-1.11,2.51-2.5,2.52,0,0,0,0-.01,0h0ZM188.41,219.82c-1.66,0-3,1.34-3,3s1.34,3,3,3,3-1.34,3-3c-.02-1.64-1.35-2.95-2.99-2.96v-.04ZM188.41,225.36c-1.39,0-2.51-1.11-2.52-2.5s1.11-2.51,2.5-2.52c1.39,0,2.51,1.11,2.52,2.5,0,0,0,.01,0,.02.02,1.39-1.09,2.52-2.48,2.54,0,0,0,0-.01,0v-.04ZM211.69,232.54c-1.66,0-3,1.34-3,3s1.34,3,3,3,3-1.34,3-3c-.02-1.64-1.35-2.95-2.99-2.96v-.04ZM211.69,238.09c-1.39.01-2.53-1.11-2.54-2.5s1.11-2.53,2.5-2.54c1.39-.01,2.53,1.11,2.54,2.5,0,0,0,0,0,0,.03,1.39-1.08,2.54-2.47,2.57,0,0-.01,0-.02,0v-.04ZM201.47,350.21c-1.66,0-3,1.34-3,3s1.34,3,3,3,3-1.34,3-3-1.34-3-3-3h0ZM201.47,355.76c-1.39.02-2.53-1.1-2.55-2.49-.02-1.39,1.1-2.53,2.49-2.55,1.39-.02,2.53,1.1,2.55,2.49,0,0,0,.02,0,.03,0,1.38-1.11,2.51-2.49,2.52h0ZM173.74,330.43c-1.66,0-3,1.34-3,3s1.34,3,3,3,3-1.34,3-3-1.34-3-3-3ZM173.74,335.96c-1.39,0-2.51-1.11-2.52-2.5,0-1.39,1.11-2.51,2.5-2.52,1.39,0,2.51,1.11,2.52,2.5,0,0,0,0,0,0,.02,1.39-1.1,2.53-2.49,2.55,0,0,0,0-.01,0v-.04ZM206.47,293.96c-1.66,0-3,1.34-3,3s1.34,3,3,3,3-1.34,3-3c-.02-1.64-1.36-2.96-3-2.96v-.04ZM206.47,299.5c-1.39-.01-2.5-1.14-2.49-2.53.01-1.39,1.14-2.5,2.53-2.49,1.38.01,2.5,1.14,2.49,2.52-.01,1.39-1.14,2.5-2.53,2.49h0ZM209.47,256.82c-1.66,0-3,1.34-3,3s1.34,3,3,3,3-1.34,3-3c0-1.65-1.33-3-2.98-3.01h-.02ZM209.47,262.34c-1.38,0-2.5-1.12-2.5-2.5s1.12-2.5,2.5-2.5,2.5,1.12,2.5,2.5-1.12,2.5-2.5,2.5ZM230.47,306.18c-1.66-.07-3.06,1.21-3.13,2.87-.06,1.29.72,2.47,1.93,2.93l-.1-.65c-1.18-.72-1.54-2.26-.82-3.44.45-.74,1.26-1.19,2.12-1.19.21,0,.41.02.61.08l.29-.47c-.28-.09-.57-.14-.87-.14h-.03ZM190.91,273.74c-1.66,0-3,1.34-3,3s1.34,3,3,3,3-1.34,3-3c-.02-1.64-1.33-2.97-2.97-3.01h-.03ZM190.91,279.28c-1.39,0-2.51-1.11-2.52-2.5s1.11-2.51,2.5-2.52c1.39,0,2.51,1.11,2.52,2.5,0,0,0,.01,0,.02-.01,1.36-1.11,2.47-2.47,2.49h-.03ZM113.04,306.18c-1.66,0-3,1.34-3,3s1.34,3,3,3,3-1.34,3-3c0-1.65-1.32-2.99-2.97-3.01h-.03ZM113.04,311.71c-1.39,0-2.51-1.11-2.52-2.5,0-1.39,1.11-2.51,2.5-2.52,1.39,0,2.51,1.11,2.52,2.5,0,0,0,0,0,0,0,1.37-1.1,2.48-2.47,2.5h-.03ZM173.71,358.29c-1.61,0-2.94,1.28-3,2.89h.53c.08-1.33,1.17-2.36,2.5-2.37,1.33,0,2.42,1.04,2.49,2.36h.53c-.06-1.62-1.4-2.9-3.02-2.89h-.03ZM150.3,310.89c-1.66,0-3,1.34-3,3s1.34,3,3,3,3-1.34,3-3c0-1.65-1.32-2.99-2.97-3.01h-.03ZM150.3,316.42c-1.39,0-2.51-1.12-2.51-2.51s1.12-2.51,2.51-2.51,2.51,1.12,2.51,2.51c0,1.37-1.11,2.49-2.48,2.5h-.03ZM151.8,255.28c-1.66,0-3,1.34-3,3s1.34,3,3,3,3-1.34,3-3c0-1.65-1.32-2.99-2.97-3.01h-.03ZM151.8,260.81c-1.38-.12-2.4-1.34-2.28-2.72.11-1.21,1.07-2.17,2.28-2.28,1.38-.12,2.6.9,2.72,2.28.12,1.38-.9,2.6-2.28,2.72-.15.01-.3.01-.45,0ZM98.05,332.39c-.19,0-.39.02-.58.05-.07.21-.13.4-.2.59.25-.08.52-.12.78-.12,1.38-.17,2.64.8,2.82,2.18.18,1.38-.8,2.64-2.18,2.82-.21.03-.42.03-.63,0-.83,0-1.6-.42-2.05-1.11l-.21.58c.57.68,1.41,1.08,2.3,1.08,1.68,0,3.04-1.36,3.04-3.04s-1.36-3.04-3.04-3.04h-.04ZM131.05,327.39c-1.66,0-3,1.34-3,3s1.34,3,3,3,3-1.34,3-3c.01-1.66-1.32-3.01-2.98-3.02-.02,0-.05,0-.07,0l.05.02ZM131.05,332.93c-1.39,0-2.51-1.13-2.5-2.52,0-1.39,1.13-2.51,2.52-2.5,1.38,0,2.49,1.12,2.5,2.5,0,1.39-1.13,2.51-2.52,2.5-.02,0-.03,0-.05,0l.05.02ZM179.3,303.68c-1.66,0-3,1.34-3,3s1.34,3,3,3,3-1.34,3-3c-.02-1.66-1.36-3-3.02-3.02l.02.02ZM179.3,309.21c-1.38,0-2.5-1.12-2.5-2.5s1.12-2.5,2.5-2.5,2.5,1.12,2.5,2.5c-.02,1.38-1.14,2.49-2.52,2.48l.02.02ZM171.45,209.31c-.43.59-1.1.96-1.83,1h0l-.7.49c.17.02.35.02.52,0,1.19.01,2.27-.68,2.76-1.76-.28.09-.53.16-.77.25l.02.02ZM180.79,243c-1.68,0-3.04,1.36-3.04,3.04s1.36,3.04,3.04,3.04,3.04-1.36,3.04-3.04-1.36-3.04-3.04-3.04ZM180.79,248.55c-1.39,0-2.52-1.14-2.51-2.53,0-1.39,1.14-2.52,2.53-2.51,1.38,0,2.5,1.13,2.51,2.51,0,1.39-1.14,2.52-2.53,2.51h0v.02Z"/>
    <path class="st2" d="M205.36,305.85c-6.1.55-12.15,1.56-18.1,3-2.94.76-5.84,1.65-8.73,2.6-1.44.47-2.88.9-4.34,1.32-1.51.47-3.08.77-4.66.87-.06,0-.11.05-.11.11s.05.11.11.11c1.5.07,3,.05,4.49-.08,1.44-.17,2.87-.44,4.28-.81,3-.74,6-1.61,8.95-2.38,6-1.55,12.06-3.1,18.19-4.21.28-.08.21-.56-.08-.53Z"/>
    <path class="st2" d="M220.43,311.25c-5.02-.53-10.07-.77-15.12-.73-2.53,0-5,.21-7.55.45-1.2.12-2.4.26-3.6.41s-2.61.51-3.93.66c-.13,0-.14.23,0,.22,1.24-.11,2.51,0,3.77,0l3.77-.1c2.52-.06,5-.1,7.55-.18,5-.17,10.06-.29,15.11-.29.28-.03.26-.42,0-.44Z"/>
    <path class="st9" d="M239.85,266.11c.3-1.57.49-3,.64-4.47s.23-3,.23-4.5c0-1.57-.13-3.14-.42-4.68-.28-1.79-.99-3.48-2.08-4.93-.68-.85-1.55-1.51-2.55-1.93-.49-.2-1-.34-1.53-.42-.49-.07-.98-.09-1.47-.06-1.83.13-3.58.83-5,2-1.27,1.02-2.35,2.25-3.19,3.64-.86,1.38-1.45,2.91-1.74,4.51-.18.96-.11,1.95.22,2.87.23.59.63,1.1,1.15,1.46.5.33,1.07.52,1.67.55.62.04,1.23-.11,1.76-.42.46-.29.84-.68,1.14-1.13.45-.73.75-1.54.89-2.39.26-1.51.26-3.06,0-4.57-.24-1.51-.79-2.95-1.62-4.24-.44-.68-1.04-1.24-1.75-1.64-.73-.4-1.58-.54-2.4-.4-1.47.33-2.8,1.12-3.8,2.24-1.92,2.1-3.44,4.53-4.51,7.17,1.26-2.5,2.96-4.76,5-6.67.95-.92,2.17-1.52,3.48-1.71,1.21-.03,2.32.67,2.81,1.78.59,1.15.93,2.42,1,3.71.11,1.29,0,2.58-.32,3.83-.13.53-.37,1.04-.7,1.48-.1.13-.23.24-.38.31-.09.03-.19.03-.28,0-.11-.02-.21-.07-.29-.14-.04-.06-.07-.14-.08-.21-.07-.44-.03-.88.1-1.3.71-2.3,2.19-4.28,4.19-5.62.82-.58,1.81-.88,2.81-.87.21,0,.42.04.62.09.17.05.33.11.48.19.28.17.52.41.7.69.49.89.78,1.88.84,2.89.12,1.24.12,2.5,0,3.74-.11,1.3-.29,2.6-.53,3.89-.24,1.29-.54,2.65-.88,3.82l5.79,1.44Z"/>
    <path class="st5" d="M239.85,266.11c.3-1.57.49-3,.64-4.47s.23-3,.23-4.5c0-1.57-.13-3.14-.42-4.68-.28-1.79-.99-3.48-2.08-4.93-.68-.85-1.55-1.51-2.55-1.93-.49-.2-1-.34-1.53-.42-.49-.07-.98-.09-1.47-.06-1.83.13-3.58.83-5,2-1.27,1.02-2.35,2.25-3.19,3.64-.86,1.38-1.45,2.91-1.74,4.51-.18.96-.11,1.95.22,2.87.23.59.63,1.1,1.15,1.46.5.33,1.07.52,1.67.55.62.04,1.23-.11,1.76-.42.46-.29.84-.68,1.14-1.13.45-.73.75-1.54.89-2.39.26-1.51.26-3.06,0-4.57-.24-1.51-.79-2.95-1.62-4.24-.44-.68-1.04-1.24-1.75-1.64-.73-.4-1.58-.54-2.4-.4-1.47.33-2.8,1.12-3.8,2.24-1.92,2.1-3.44,4.53-4.51,7.17,1.26-2.5,2.96-4.76,5-6.67.95-.92,2.17-1.52,3.48-1.71,1.21-.03,2.32.67,2.81,1.78.59,1.15.93,2.42,1,3.71.11,1.29,0,2.58-.32,3.83-.13.53-.37,1.04-.7,1.48-.1.13-.23.24-.38.31-.09.03-.19.03-.28,0-.11-.02-.21-.07-.29-.14-.04-.06-.07-.14-.08-.21-.07-.44-.03-.88.1-1.3.71-2.3,2.19-4.28,4.19-5.62.82-.58,1.81-.88,2.81-.87.21,0,.42.04.62.09.17.05.33.11.48.19.28.17.52.41.7.69.49.89.78,1.88.84,2.89.12,1.24.12,2.5,0,3.74-.11,1.3-.29,2.6-.53,3.89-.24,1.29-.54,2.65-.88,3.82l5.79,1.44Z"/>
    <path class="st9" d="M245.86,333.55c4.07,5.75,3.24,23.33,5.71,25.79s27.74,2.2,29.44.75.9-7.65,2.81-8.68c.75-.41-37.96-17.86-37.96-17.86Z"/>
    <path class="st5" d="M283.82,351.42c-.6.45-.99,1.13-1.08,1.87-11.67-1.36-23.07-4.43-33.85-9.11-.59-4.28-1.43-8.36-3-10.63-.03,0,38.68,17.45,37.93,17.87Z"/>
    <path class="st9" d="M367,333.83c-5.09,7.35-2.34,23.05-4.8,25.51s-27.75,2.2-29.45.75-.92-8-1.93-9.23c-.52-.66,36.18-17.03,36.18-17.03Z"/>
    <path class="st5" d="M367,333.83c-1.9,2.74-2.71,6.65-3.1,10.58-10.34,4.59-21.3,7.62-32.52,9,.02-.88-.17-1.75-.56-2.54-.52-.67,36.18-17.04,36.18-17.04Z"/>
    <path class="st9" d="M305,228.5c-56.77,0-78.5,39.8-78.5,63.09s16.5,62,78.5,62,82.57-33.09,82.57-62.56-25.22-62.53-82.57-62.53Z"/>
    <path class="st9" d="M325.85,231.38s23.22-17.81,48.37-15.69c8.66.73-5.72,19.5-6,34.15l-42.37-18.46Z"/>
    <path class="st5" d="M358.54,242.67c-.15.93,7.87,4.36,8.69,3.83s1.67-12.07,8.21-24.37c.96-1.81-15.35,10.62-16.9,20.54Z"/>
    <path class="st6" d="M363.58,288.41c1.58-.24,2.88-1.38,3.33-2.91-.15,1.87-1.15,3.56-2.7,4.61-.12.07-.06.28.09.24,4.44-1.67,4-8,2.4-11.94-.08-.22-.17-.45-.27-.66-1-2.32-2.73-4-4.91-3.69-7.18,1.04-4.59,15.31,2.06,14.35Z"/>
    <path class="st9" d="M380.68,268.08c1.12,3.34,11.2.63,13.74,2.75,4,3.31,2.9,44.5-.76,47.82-2.06,1.86-13.49-.1-16.7,2.17s3.72-52.74,3.72-52.74Z"/>
    <path class="st5" d="M395,293.74c0,10-.84,18.16-1.88,18.16s-1.87-8.13-1.87-18.16.84-18.17,1.87-18.17,1.88,8.13,1.88,18.17Z"/>
    <path class="st6" d="M277.09,241.7c.17-.05,17.31-5.63,33.26-1.27l1.59-5.81c-17.75-4.86-36,1.11-36.76,1.36l1.91,5.72-.95-2.86.95,2.86Z"/>
    <path class="st3" d="M253.29,329.16c-22.9-26.32-8.89-56.88-8.25-58.19.92-1.87.14-4.13-1.73-5.05-1.87-.92-4.13-.14-5.04,1.73-3.09,6.93-4.92,14.36-5.4,21.94-1.1,16.74,4.44,32.11,17.54,42.57,3.95,3.16,5.82.38,2.88-3Z"/>
    <path class="st3" d="M243.32,259.29c0,2.26,1.83,4.1,4.09,4.11s4.1-1.83,4.11-4.09c0-2.26-1.83-4.1-4.09-4.11h0c-2.26,0-4.09,1.82-4.1,4.08,0,0,0,0,0,.01Z"/>
    <path class="st4" d="M153,222.88c-38,39.79-85.17,122.94-75.83,139.48,10.4,18.43,64.71-37.88,63-40.6-1.45-2.3,17.89-52.7,31.63-89.32s-9.39-19.44-18.8-9.56Z"/>
    <path class="st11" d="M106.5,270.58l54.5,9.82s13.6-38.63,16.3-60.07c1.51-12-5.55-12.51-14.43-6.13-31.09,22.36-56.37,56.38-56.37,56.38Z"/>
    <path class="st3" d="M126,266.53c-1.66,0-3,1.34-3,3s1.34,3,3,3,3-1.34,3-3-1.34-3-3-3ZM126,272.06c-1.39,0-2.51-1.11-2.52-2.5,0-1.39,1.11-2.51,2.5-2.52,1.39,0,2.51,1.11,2.52,2.5,0,0,0,0,0,0,0,1.38-1.12,2.5-2.5,2.51ZM159.49,226.65c-1.68,0-3.04,1.36-3.04,3.04s1.36,3.04,3.04,3.04,3.04-1.36,3.04-3.04-1.36-3.04-3.04-3.04ZM159.49,232.2c-1.39,0-2.52-1.14-2.51-2.53,0-1.39,1.14-2.52,2.53-2.51,1.39,0,2.51,1.13,2.51,2.52,0,1.39-1.13,2.52-2.52,2.52h-.01ZM135.67,238.56c-.46,0-.91.1-1.33.3h0c-.47.48-.94.94-1.4,1.42h0c-.2.41-.29.85-.29,1.3,0,1.66,1.34,3,3,3s3-1.34,3-3-1.34-3-3-3l.02-.02ZM135.67,244.11c-1.39,0-2.52-1.13-2.52-2.52,0-1.39,1.13-2.52,2.52-2.52s2.52,1.13,2.52,2.52h0c0,1.39-1.11,2.51-2.5,2.52,0,0,0,0-.01,0h0ZM160.29,280.28l.63.11s.08-.07.12-.09l.27-.77c-.39.17-.74.43-1.01.75h0ZM151.82,255.28c-1.66,0-3,1.34-3,3s1.34,3,3,3,3-1.34,3-3c0-1.66-1.33-3-2.99-3.01h-.01ZM151.82,260.81c-1.38-.12-2.4-1.34-2.28-2.72.11-1.21,1.07-2.17,2.28-2.28,1.38-.12,2.6.9,2.72,2.28.12,1.38-.9,2.6-2.28,2.72-.15.01-.3.01-.45,0ZM169.05,210.81h.35c.63,0,1.25-.19,1.76-.56-.72.11-1.42.29-2.1.54v.02Z"/>
    <path class="st2" d="M160.66,271.47c-8.26-2.2-30.85-7.53-46-9.08-.09,0-.17.33-.08.35,12.39,3.19,37.51,7.76,45.94,9.24.18.02.29-.47.14-.51Z"/>
    <path class="st2" d="M154.37,279.2c2.25.22,4.49.48,6.72.79l-.47.28c1.62-5.94,3.42-11.82,5.36-17.66s4-11.63,6.35-17.34c-1.43,6-3.15,11.9-5,17.78s-3.8,11.71-6,17.48l-.13.35-.34-.07c-2.12-.5-4.31-1.03-6.49-1.61Z"/>
    <path class="st2" d="M168.72,257c.48-1.22,1.11-2.37,1.86-3.44.74-1.08,1.56-2.11,2.46-3.06-.12.65-.33,1.28-.64,1.87-.29.59-.62,1.16-1,1.7-.73,1.11-1.64,2.1-2.68,2.93Z"/>
    <path class="st4" d="M80.11,364.8c12.51,8.58,35.5,2.48,94.82-7.46,8.21-1.38,14.08-61.92,5.24-60.9-11.13,1.28-54.07,8.67-57.14,9.61-25.91,7.95-51.41,52.95-42.92,58.75Z"/>
    <path class="st4" d="M168.17,298.07s24.74-5.26,38.59-4c18.55,1.69,33.87,10.79,40.06,15,12.92,8.77,38.1,38.89,30.69,47.66-6.71,7.93-30.89-24.16-30.89-24.16,0,0,30.06,28.65,20.22,36.72s-35.78-30.78-35.78-30.78c0,0,30.22,30.13,18.76,36.85-8.66,5.07-34.15-28.79-34.15-28.79,0,0,25.8,26.08,17.12,31.68-9.59,6.2-35.08-23.58-35.08-23.58-24.46,10.53-40.41,5.54-51.34.63-2.65-1.2,21.8-57.23,21.8-57.23Z"/>
    <path class="st2" d="M236.86,322c3.65,3.23,7.37,6.49,10.72,10s6.59,7.22,9.59,11.07c7.38,9.43,10.52,16.49,10.28,16.08-5.72-9.82-17.52-22.72-20.87-26.27s-6.52-7.25-9.86-10.8c-.08-.08.05-.18.14-.08Z"/>
    <path class="st2" d="M223.82,333.85c4.48,4.33,9.09,8.47,13.39,13s7.93,9.17,11.88,14c.31.37,0,.41-.31.06-4.14-4.64-8.33-8.6-12.52-13.19s-8.21-9.33-12.55-13.75c-.07-.09.04-.19.11-.12Z"/>
    <path class="st2" d="M210.79,342c7.19,6.28,13.22,13.87,19,21.46.29.38-.1.39-.42,0-6.16-7.25-10.95-13-18.75-21.23-.17-.09.02-.34.17-.23Z"/>
    <path class="st2" d="M146.05,301.81c-27.19,5.55-28,5-49.08,23.42,2.97-3.64,6.21-7.06,9.7-10.21,3.52-3.11,7.18-6.18,11.64-8.21,8.88-3.52,18.31-4.61,27.74-5h0Z"/>
    <path class="st4" d="M176.91,218.8c1,2.44,15.57,17,27.05,14.69,3.73-.76.49-21.34.49-21.34l.11-1.58,1.5-22-27.49-12.22-3.94-1.57s0,6.06.05,13.6v5.72c0,.87,0,1.72.07,2.64s.07,1.81.09,2.73c.46,9.03,1.67,18.29,2.07,19.33Z"/>
    <path class="st2" d="M174.68,188.35c6.21,11.44,17.14,19.56,29.88,22.22l1.5-22-27.49-12.22-3.94-1.57s0,6.03.05,13.57Z"/>
    <path class="st4" d="M225.38,145.15c15.86,35.37-3.53,48.86-11.16,52.27-6.92,3.1-30.9,12.77-50.33-20.77s-8-52.09,7.46-60,38.17-6.86,54.03,28.5Z"/>
    <path class="st2" d="M216.24,140.66c-.88.18-1.76.31-2.65.39-.92.26-1.89.22-2.78-.13-.53-.34-.76-.98-.58-1.58.55-1.11,1.65-1.84,2.89-1.91,1.22-.25,2.5-.05,3.58.58.68.45.86,1.36.41,2.04-.2.31-.51.52-.87.61Z"/>
    <path class="st2" d="M194.43,155c.81-.42,1.5-.93,2.27-1.42s1.61-.91,2-1.89c.19-.6-.05-1.25-.58-1.58-1.14-.5-2.45-.34-3.44.41-1.1.59-1.94,1.57-2.35,2.75-.23.78.22,1.61,1.01,1.84.36.11.76.07,1.09-.11Z"/>
    <path class="st2" d="M200.88,157.63c-.06-.09-.15.19-.11.29,1,2.42,1.84,5.38-.06,7.07-.06.05,0,.17.07.13,2.56-1.45,1.48-5.36.1-7.49Z"/>
    <path class="st2" d="M197.68,155.93c-4.07,1.25-1.26,9.3,2.51,8.13s.9-9.18-2.51-8.13Z"/>
    <path class="st2" d="M196.24,156.9c-.54.7-1,1.75-1.76,2.13s-2-.15-2.91-.73c-.09-.06-.14,0-.1.14.51,1.55,1.66,2.92,3.39,2.57,1.58-.31,2.19-2.06,2-3.74,0-.27-.4-.65-.62-.37Z"/>
    <path class="st2" d="M215.22,151.59c0-.1.24,0,.27.16.77,2.52,2.08,5.28,4.63,5.34.07,0,.11.13,0,.15-2.87.55-4.57-3.13-4.9-5.65Z"/>
    <path class="st2" d="M216.57,148.22c3.91-1.67,7,6.28,3.34,7.83s-6.62-6.42-3.34-7.83Z"/>
    <path class="st2" d="M218.43,148.11c.79.18,1.7.7,2.47.46s1.21-1.38,1.45-2.42c0-.11.11-.06.15,0,.63,1.5.73,3.28-.61,4.13s-2.71-.15-3.66-1.52c-.17-.21-.12-.76.2-.65Z"/>
    <path class="st2" d="M209.07,178.68c.78.42,1.63,1.05,2.57.85.93-.3,1.79-.79,2.52-1.45.05-.03.11-.01.14.04.01.02.02.04.01.06-.43,1.24-1.51,2.13-2.8,2.33-1.14.05-2.18-.6-2.65-1.64-.09-.13.14-.25.21-.19Z"/>
    <path class="st2" d="M216.19,166s1.85,3.52,2.49,5.26c.06.17-.34.4-.92.65h-.07c-2.86,1.66-6.4,1.6-9.19-.18-.09-.05-.13-.16-.08-.26s.16-.13.25-.08h0c2.78.72,5.72.51,8.38-.58-.06-.52-3.38-5.92-3.11-6,1.4-.37,2.84-.55,4.29-.54-3.65-7.44-8.47-14.24-12-21.71-.06-.12-.02-.27.11-.34.1-.05.23-.03.3.06,5.56,6.77,9.95,15.25,13.92,22.84.51.88-3.56.88-4.37.88Z"/>
    <path class="st2" d="M168.92,185c6.18-7.5,2.61-16,2.61-16,4.99-5.72,8.36-12.67,9.78-20.12.11.85.89,7,1.19,10.19,20.81-15,19.64-35.82,19.64-35.82,10.88,3.9,14.59,7.93,16.77,9.78,0,0-6.44-14.08-18-20.06-14.22-7.33-45.43,3.6-52.14,25.06-7.26,23.18,20.15,46.97,20.15,46.97Z"/>
    <path class="st2" d="M198.06,147.15c-2.72,3.73-5.98,7.04-9.67,9.82,0,0-.07,0,0-.05,5.6-4.77,9.75-11,12-18,.94-2.98,1.51-6.08,1.68-9.2.31-3.41-.05-6.86-1.07-10.13-.09-.23.28-.37.36-.14,1.23,3.28,2.32,6.31,2.43,9.85.11,3.38-.4,6.75-1.5,9.95-1.01,2.83-2.41,5.5-4.17,7.93"/>
    <path class="st4" d="M170.72,176.84s-12-8.64-16.16-4,7.59,19.16,14.44,19.29c3.61.32,6.8-2.34,7.12-5.95,0-.09.01-.18.02-.27l-5.42-9.07Z"/>
    <path class="st2" d="M158,176.92c-.1,0-.07.17,0,.17,4.87.25,8.49,3.42,11.49,7-1.82-1.14-3.84-1.41-5.43.84-.09.12.08.26.19.19,1.39-1.08,3.31-1.13,4.75-.12,1.16.78,2.23,1.68,3.19,2.69.33.31,1-.13.65-.52l-.07-.09c-1.77-5.51-8.69-11.65-14.77-10.16Z"/>
    <path class="st9" d="M174.81,195.34c.48,1.77.68,3.59.61,5.42-.16,2.5-1.22,3.26-2.08,3.46-.69.18-1.43.04-2-.38-2.84-1.95-4-10.25-4.27-12.12.57.17,1.1.29,1.59.39.45,3.1,1.65,9.18,3.53,10.5.23.16.52.21.79.15.73-.18,1.09-1.64.9-3.8-.22-2.41-.83-4.78-1.8-7-.67-1.61-1.4-2.68-1.81-2.7-.4.1-.81-.15-.91-.55,0,0,0,0,0-.01-.08-.4.16-.8.55-.91,1.38-.34,2.63,1.44,3.55,3.58.57,1.28,1.02,2.61,1.35,3.97Z"/>
    <path class="st4" d="M281,231c7.07-4.9,15.15-16.7,21.29-18.48,3.07-1.01,6.45.11,8.3,2.76,0,0,2.09-6.76,7.93-7.45,3-.36,6.21,4.13,6.21,4.13,0,0,1.92-5.35,7.15-5.64,4.17-.24,6.76,4.29,6.76,4.29,0,0,4.22-4.27,8.55-3.15,8.76,2.27,14.56,37.62,2.43,45.22-5.66,3.54-6.6-5.17-6.6-5.17,0,0-1.67,12.85-8.93,14.23s-7.8-10-7.8-10c0,0-1.72,12.45-9.39,13.12-8,.7-6.58-10.79-6.58-10.79,0,0-4,8.73-10,7.9-9.89-1.37-.06-21.94-3.18-29.41l-16.14-1.56Z"/>
    <path class="st2" d="M339.15,211.28c0-.06.04-.1.1-.1.03,0,.06.01.08.04,4.74,11.16,6.52,24.88,3.8,36.78-.09.39-.77.41-.75,0,.47-12.83-.14-24.23-3.23-36.72Z"/>
    <path class="st2" d="M324.78,211.79c0-.13.19-.19.25-.05,4.82,11.53,6.41,27,1.65,40.38-.17.45-.77.7-.62.16,2.49-9.11,1.56-29.28-1.28-40.49Z"/>
    <path class="st2" d="M309.67,254.94c4.06-13,3.57-25.93,1.14-39.17,0-.17.22-.2.28-.06,3,6.15,3.62,14.75,3.57,21.49.08,6.25-1.49,12.42-4.54,17.88-.12.22-.54.14-.45-.14Z"/>
  </g>
</svg>