<svg id="OBJECTS" xmlns="http://www.w3.org/2000/svg" viewBox="0 0 415.67 242.63"><defs><style>.cls-1{fill:#f0953e;}.cls-2{fill:#3b8916;}.cls-3{fill:#fff;}.cls-4{fill:#16007e;}</style></defs><rect class="cls-1" width="415.65" height="80.84"/><rect class="cls-2" x="0.03" y="161.84" width="415.65" height="80.79"/><rect class="cls-3" x="0.03" y="80.84" width="415.65" height="81.01"/><path class="cls-4" d="M250,247.06a36.36,36.36,0,1,0,36.38,36.33A36.37,36.37,0,0,0,250,247.06m0,3.53-.92,18.29,1,10.4.92-10.4L250,250.59a25.76,25.76,0,0,1,2.81.15s0,0,0,.1a1.56,1.56,0,0,0,1.5,1.59,1.51,1.51,0,0,0,1.47-1.35,24.44,24.44,0,0,1,2.69.63l-5.61,17.41-1.79,10.31,3.63-9.87,3.87-17.85c.87.29,1.74.53,2.61.87a1.65,1.65,0,0,0-.12.53,1.52,1.52,0,0,0,1.52,1.5,1.55,1.55,0,0,0,1.38-.92c.82.39,1.62.82,2.44,1.31l-9.94,15.28-4.4,9.58,6.07-8.56,8.35-16.25c.75.43,1.52.91,2.29,1.4a1.56,1.56,0,0,0-.33,1,1.51,1.51,0,0,0,1.52,1.5,1.33,1.33,0,0,0,1.18-.63c.73.63,1.41,1.25,2,1.88l-13.55,12.24-6.7,8.08,8.06-6.68,12.26-13.59c.63.68,1.26,1.31,1.84,2a1.45,1.45,0,0,0-.53,1.16,1.49,1.49,0,0,0,1.47,1.5,1.41,1.41,0,0,0,.9-.29,24.94,24.94,0,0,1,1.47,2.33l-16.25,8.32-8.57,6.09,9.51-4.35,15.36-10c.51.87.92,1.79,1.33,2.57a1.66,1.66,0,0,0-.92,1.45,1.51,1.51,0,0,0,1.48,1.5,1.06,1.06,0,0,0,.58-.15c.29.87.55,1.7.77,2.57l-17.87,3.77-9.8,3.63,10.3-1.74L281.73,275c.22.78.43,1.75.6,2.62a1.45,1.45,0,0,0-1.3,1.5,1.53,1.53,0,0,0,1.52,1.5h.15c.09.87.09,1.83.09,2.7l-18.23-.87-10.45.92,10.45,1,18.23-1a27.27,27.27,0,0,1-.09,2.76h-.15a1.56,1.56,0,0,0-1.52,1.5,1.53,1.53,0,0,0,1.28,1.5c-.17.92-.36,1.79-.58,2.66l-6.22-2-11.2-3.63L254,284.51h0l9.8,3.62L281.68,292a16.66,16.66,0,0,1-.82,2.56c-.05,0-.15,0-.2,0h-.33a1.49,1.49,0,0,0-1.53,1.5,1.11,1.11,0,0,0,.15.58h0a1.06,1.06,0,0,0,.41.58h0c.05,0,.07.05.12.05h0c0,.05.1.1.14.1h0s.08.05.1.09c-.39.83-.82,1.65-1.28,2.42l-15.34-9.91h0l-9.51-4.36h.05l5,3.49,3.53,2.51h0l16.25,8.32a27.4,27.4,0,0,1-1.5,2.37A1.77,1.77,0,0,0,276,302a1.45,1.45,0,0,0-1.5,1.45,1.33,1.33,0,0,0,.56,1.16c-.61.68-1.21,1.36-1.84,2L261,293l-8-6.68,6.68,8.08,13.55,12.24a19.42,19.42,0,0,1-2,1.79,1.44,1.44,0,0,0-.95-.34,1.54,1.54,0,0,0-1.5,1.5,1.84,1.84,0,0,0,.12.68c-.79.48-1.62,1-2.41,1.55l-8.35-16.26L252.05,287h0l4.38,9.53,9.94,15.39c-.8.43-1.6.87-2.42,1.25a1.4,1.4,0,0,0-1.35-.91,1.54,1.54,0,0,0-1.53,1.5,2.43,2.43,0,0,0,.1.58,24.32,24.32,0,0,1-2.61.77l-3.87-17.9-3.63-9.72v0l1.79,10.3,5.61,17.42a18.19,18.19,0,0,1-2.69.58,1.54,1.54,0,0,0-1.47-1.26,1.47,1.47,0,0,0-1.5,1.45v.2c-.92.09-1.84.14-2.76.14L251,298l-1-10.45L249.05,298l.92,18.24c-1,0-1.86-.05-2.81-.14v-.2a1.5,1.5,0,0,0-1.52-1.45,1.56,1.56,0,0,0-1.48,1.26,24.7,24.7,0,0,1-2.61-.58l5.61-17.42,1.75-10.25-3.63,9.72-3.82,17.9c-.87-.19-1.75-.48-2.64-.77a1.77,1.77,0,0,0,.12-.58,1.53,1.53,0,0,0-1.48-1.5,1.6,1.6,0,0,0-1.42.91c-.8-.38-1.62-.82-2.42-1.25l9.94-15.39,4.35-9.53-6,8.57-8.32,16.3c-.8-.53-1.6-1-2.35-1.55a1.23,1.23,0,0,0,.29-.82,1.52,1.52,0,0,0-1.47-1.55,1.43,1.43,0,0,0-1.17.58,25.68,25.68,0,0,1-2-1.84l13.6-12.24,6.67-8.08h0L239,293l-12.27,13.55c-.67-.63-1.28-1.36-1.88-2a1.6,1.6,0,0,0,.58-1.21,1.47,1.47,0,0,0-1.5-1.45,1.82,1.82,0,0,0-.9.24,22.34,22.34,0,0,1-1.47-2.32l16.3-8.37,8.49-6-9.51,4.36-15.33,9.91a26,26,0,0,1-1.23-2.42,1.39,1.39,0,0,0,1-1.35,1.51,1.51,0,0,0-1.52-1.55,1.36,1.36,0,0,0-.63.15c-.29-.83-.58-1.74-.85-2.66l17.9-3.83,9.85-3.62-10.36,1.74-17.41,5.61c-.24-.87-.41-1.74-.61-2.71A1.45,1.45,0,0,0,219,287.7a1.51,1.51,0,0,0-1.5-1.5h-.17c0-.87-.12-1.79-.12-2.76l18.26,1,10.43-1-10.43-.92-18.26.87c0-.87.07-1.83.12-2.7h.27a1.48,1.48,0,0,0,1.5-1.5,1.5,1.5,0,0,0-1.41-1.5c.2-.87.37-1.84.61-2.62l17.41,5.57L246,282.33l-9.85-3.63-17.9-3.82c.27-.92.56-1.79.85-2.61a2.05,2.05,0,0,0,.56.09,1.49,1.49,0,0,0,1.5-1.5,1.45,1.45,0,0,0-.9-1.35c.39-.87.8-1.69,1.26-2.52l15.33,10,9.56,4.35-8.54-6.09L221.6,267c.46-.78,1-1.55,1.5-2.38a1.17,1.17,0,0,0,.89.34,1.52,1.52,0,0,0,1.5-1.5,1.9,1.9,0,0,0-.55-1.21c.55-.67,1.16-1.3,1.81-2L239,273.81l8.08,6.68-6.67-8.08-13.6-12.24c.68-.63,1.33-1.25,2-1.84a1.47,1.47,0,0,0,1.17.59,1.53,1.53,0,0,0,1.52-1.55,1.82,1.82,0,0,0-.32-.92c.78-.44,1.53-1,2.33-1.4l8.32,16.25,6,8.51-4.35-9.53L233.62,255c.8-.49,1.6-.92,2.39-1.31a1.54,1.54,0,0,0,1.41,1,1.49,1.49,0,0,0,1.5-1.45,2,2,0,0,0-.1-.63c.85-.34,1.77-.58,2.64-.87l3.87,17.85,3.62,9.87-1.76-10.31-5.61-17.41a22.91,22.91,0,0,1,2.66-.63,1.5,1.5,0,0,0,1.47,1.3,1.52,1.52,0,0,0,1.53-1.54v-.15a24.64,24.64,0,0,1,2.73-.1" transform="translate(-42.16 -162.1)"/><path class="cls-3" d="M250,278a5.44,5.44,0,1,1-5.46,5.41A5.44,5.44,0,0,1,250,278" transform="translate(-42.16 -162.1)"/><path class="cls-4" d="M250,279.23a4.17,4.17,0,0,1,4.19,4.16,4.22,4.22,0,1,1-4.19-4.16" transform="translate(-42.16 -162.1)"/></svg>