<?xml version="1.0" encoding="UTF-8"?><svg id="Layer_1" xmlns="http://www.w3.org/2000/svg" viewBox="0 0 647 174"><defs><style>.cls-1{fill:#2aa992;}.cls-2{fill:#f79925;}.cls-3{fill:#606261;}.cls-4{fill:#202124;}.cls-5{fill:#df2128;}.cls-6{fill:#f58520;}.cls-7{fill:#2e9c49;}.cls-8{fill:#4fb956;}</style></defs><rect class="cls-2" x="8" y="30" width="18" height="135" rx="9" ry="9"/><rect class="cls-6" x="17" y="26.97" width="18" height="45.03" rx="9" ry="9" transform="translate(-26.28 29.7) rotate(-41.55)"/><rect class="cls-5" x="47.29" y="59.36" width="18" height="123.82" rx="9" ry="9" transform="translate(109.7 -1.29) rotate(48.45)"/><rect class="cls-8" x="116" y="12" width="18" height="135" rx="9" ry="9" transform="translate(250 159) rotate(180)"/><rect class="cls-7" x="107" y="105" width="18" height="45.03" rx="9" ry="9" transform="translate(287.39 146) rotate(138.45)"/><rect class="cls-1" x="76.71" y="-6.18" width="18" height="123.82" rx="9" ry="9" transform="translate(100.86 156.84) rotate(-131.55)"/><path class="cls-4" d="M247.06,44.92c0-13.84,7.82-21.78,19.24-21.78s19.24,7.99,19.24,21.78-7.82,22.15-19.24,22.15-19.24-8.31-19.24-22.15ZM275.73,44.92c0-8.49-3.65-13.51-9.43-13.51s-9.43,5.01-9.43,13.51,3.65,13.88,9.43,13.88,9.43-5.38,9.43-13.88Z"/><path class="cls-4" d="M294.42,34.04h7.79l.69,3.17h.24c2.53-2.26,5.82-3.95,9.18-3.95,7.81,0,12.59,6.45,12.59,16.4,0,11.07-6.58,17.41-13.57,17.41-2.78,0-5.38-1.22-7.69-3.37l.32,5.1v9.45h-9.55v-44.22ZM315.12,49.76c0-5.79-1.79-8.68-5.6-8.68-1.96,0-3.65.88-5.54,2.89v13.24c1.74,1.51,3.53,2.04,5.14,2.04,3.33,0,6-2.81,6-9.49Z"/><path class="cls-4" d="M332.96,54.56v-13.03h-4.41v-7.13l4.94-.37,1.12-8.56h7.9v8.56h7.73v7.5h-7.73v12.91c0,3.66,1.66,5.12,4.17,5.12,1.06,0,2.22-.31,3.07-.61l1.51,6.94c-1.71.54-4.04,1.17-7.17,1.17-7.97,0-11.14-5.03-11.14-12.51Z"/><path class="cls-4" d="M357.51,24.33c0-2.93,2.33-5,5.53-5s5.53,2.07,5.53,5-2.33,5-5.53,5-5.53-2.09-5.53-5ZM358.25,34.04h9.56v32.25h-9.56v-32.25Z"/><path class="cls-4" d="M377.88,34.04h7.8l.69,4.14h.24c2.65-2.66,5.54-4.92,9.77-4.92,4.54,0,7.27,1.96,8.9,5.43,2.84-2.96,5.86-5.43,10.12-5.43,6.97,0,10.09,4.95,10.09,13.01v20.02h-9.56v-18.8c0-4.64-1.27-6.09-3.98-6.09-1.62,0-3.46,1.01-5.49,3.13v21.76h-9.56v-18.8c0-4.64-1.27-6.09-3.98-6.09-1.6,0-3.46,1.01-5.49,3.13v21.76h-9.56v-32.25Z"/><path class="cls-4" d="M434.53,24.33c0-2.93,2.33-5,5.53-5s5.53,2.07,5.53,5-2.33,5-5.53,5-5.53-2.09-5.53-5ZM435.27,34.04h9.56v32.25h-9.56v-32.25Z"/><path class="cls-4" d="M452.05,62.56l4.3-5.95c2.92,2.21,5.62,3.39,8.32,3.39,2.84,0,4.07-1.08,4.07-2.77,0-2.12-3.2-3.09-6.51-4.39-3.95-1.53-8.53-4.15-8.53-9.48,0-6,4.88-10.09,12.32-10.09,4.94,0,8.62,2,11.37,4.08l-4.28,5.74c-2.29-1.67-4.56-2.75-6.79-2.75-2.47,0-3.68.97-3.68,2.58,0,2.06,3.02,2.84,6.36,4.06,4.08,1.51,8.69,3.81,8.69,9.71s-4.6,10.4-13.25,10.4c-4.25,0-9.12-1.84-12.38-4.5Z"/><path class="cls-4" d="M485.38,54.56v-13.03h-4.41v-7.13l4.94-.37,1.12-8.56h7.9v8.56h7.73v7.5h-7.73v12.91c0,3.66,1.66,5.12,4.17,5.12,1.06,0,2.22-.31,3.07-.61l1.51,6.94c-1.71.54-4.04,1.17-7.17,1.17-7.97,0-11.14-5.03-11.14-12.51Z"/><path class="cls-4" d="M507.89,57.34c0-6.79,5.41-10.47,18.16-11.82-.19-2.82-1.6-4.66-5.1-4.66-2.71,0-5.4,1.14-8.53,2.91l-3.4-6.27c4.09-2.5,8.7-4.24,13.77-4.24,8.24,0,12.81,4.71,12.81,14.59v18.44h-7.8l-.69-3.3h-.24c-2.71,2.39-5.76,4.08-9.38,4.08-5.88,0-9.61-4.29-9.61-9.72ZM526.05,56.92v-5.63c-6.79.92-9.01,2.86-9.01,5.3,0,2.08,1.43,3.1,3.7,3.1s3.62-1.07,5.31-2.76Z"/><path class="cls-4" d="M214.93,90.26h-6.8v-3.51h17.77v3.51h-6.8v20.03h-4.18v-20.03Z"/><path class="cls-4" d="M228.07,92.61h3.4l.32,3.15h.12c1.26-2.3,3.13-3.58,5.02-3.58.9,0,1.47.12,2,.36l-.72,3.6c-.62-.17-1.08-.29-1.81-.29-1.41,0-3.11.96-4.18,3.66v10.78h-4.15v-17.68Z"/><path class="cls-4" d="M239.79,105.54c0-3.79,3.14-5.76,10.4-6.54-.06-1.9-.82-3.48-3.21-3.48-1.76,0-3.41.79-4.97,1.74l-1.53-2.76c1.94-1.22,4.45-2.32,7.26-2.32,4.42,0,6.59,2.72,6.59,7.65v10.47h-3.4l-.32-1.96h-.12c-1.58,1.35-3.4,2.39-5.49,2.39-3.1,0-5.23-2.1-5.23-5.18ZM250.19,105.55v-3.97c-4.79.6-6.39,1.86-6.39,3.64,0,1.56,1.07,2.25,2.55,2.25s2.53-.71,3.84-1.92Z"/><path class="cls-4" d="M259.02,87.16c0-1.4,1.09-2.35,2.56-2.35s2.56.95,2.56,2.35-1.09,2.35-2.56,2.35-2.56-.98-2.56-2.35ZM259.5,92.61h4.15v17.68h-4.15v-17.68Z"/><path class="cls-4" d="M269.11,92.61h3.4l.32,2.39h.12c1.58-1.54,3.38-2.82,5.8-2.82,3.79,0,5.44,2.56,5.44,7.03v11.09h-4.15v-10.55c0-2.91-.83-4-2.75-4-1.56,0-2.58.76-4.03,2.2v12.35h-4.15v-17.68Z"/><path class="cls-4" d="M288.97,87.16c0-1.4,1.09-2.35,2.56-2.35s2.56.95,2.56,2.35-1.09,2.35-2.56,2.35-2.56-.98-2.56-2.35ZM289.45,92.61h4.15v17.68h-4.15v-17.68Z"/><path class="cls-4" d="M299.06,92.61h3.4l.32,2.39h.12c1.58-1.54,3.38-2.82,5.8-2.82,3.79,0,5.44,2.56,5.44,7.03v11.09h-4.15v-10.55c0-2.91-.83-4-2.75-4-1.55,0-2.58.76-4.03,2.2v12.35h-4.15v-17.68Z"/><path class="cls-4" d="M318.19,113.5c0-1.49.92-2.79,2.55-3.77v-.14c-.91-.59-1.6-1.53-1.6-2.95s.94-2.58,1.96-3.3v-.14c-1.21-.89-2.33-2.58-2.33-4.67,0-4.06,3.28-6.35,6.98-6.35.98,0,1.9.17,2.62.43h6.32v3.08h-3.23c.58.66,1.01,1.76,1.01,2.97,0,3.93-2.98,6.03-6.72,6.03-.75,0-1.6-.16-2.39-.47-.53.45-.86.9-.86,1.69,0,.99.72,1.6,2.87,1.6h3.15c4.23,0,6.47,1.31,6.47,4.36,0,3.48-3.66,6.23-9.43,6.23-4.22,0-7.36-1.51-7.36-4.61ZM330.97,112.55c0-1.37-1.09-1.77-3.12-1.77h-2.43c-.95,0-1.71-.07-2.39-.25-.95.72-1.37,1.51-1.37,2.33,0,1.61,1.73,2.55,4.51,2.55s4.79-1.34,4.79-2.87ZM328.81,98.52c0-2.22-1.34-3.48-3.07-3.48s-3.07,1.25-3.07,3.48,1.37,3.56,3.07,3.56,3.07-1.31,3.07-3.56Z"/><path class="cls-4" d="M344.07,104.1c0-7.34,10.87-7.93,10.87-12.76,0-1.24-.57-2.2-1.92-2.2-1.48,0-2.51,1.22-2.51,3.02,0,4.06,4.96,9.53,9.62,12.65,1.91,1.28,3.76,2.19,5.3,2.53l-1.04,3.38c-2.12-.49-4.46-1.59-6.75-3.23-5.54-3.95-10.62-10.45-10.62-15.3,0-3.24,2.33-5.88,5.93-5.88,3.23,0,5.21,2.02,5.21,5,0,6.16-10.15,7.8-10.15,12.54,0,2.19,1.73,3.66,4.06,3.66,1.8,0,3.6-1.04,5.14-2.58,1.89-1.96,3.34-4.52,4.19-7.65h3.8c-1.05,3.53-2.69,6.76-5.12,9.55-2.1,2.32-4.88,3.89-8.51,3.89-4.7,0-7.52-2.92-7.52-6.62Z"/><path class="cls-4" d="M376.6,86.75h6.28c7.21,0,11.48,3.89,11.48,11.68s-4.26,11.86-11.26,11.86h-6.49v-23.54ZM382.61,106.9c4.74,0,7.46-2.69,7.46-8.48s-2.72-8.29-7.46-8.29h-1.83v16.77h1.83Z"/><path class="cls-4" d="M397.76,101.46c0-5.75,3.99-9.29,8.15-9.29,4.78,0,7.3,3.46,7.3,8.39,0,.79-.09,1.58-.18,2.02h-11.22c.35,3.14,2.36,4.92,5.21,4.92,1.51,0,2.81-.47,4.1-1.28l1.41,2.58c-1.68,1.14-3.82,1.92-6.06,1.92-4.88,0-8.71-3.43-8.71-9.26ZM409.62,99.76c0-2.72-1.21-4.38-3.63-4.38-2.06,0-3.87,1.54-4.23,4.38h7.86Z"/><path class="cls-4" d="M415.15,92.61h4.21l2.81,9.17c.49,1.74,1.01,3.56,1.5,5.33h.14c.49-1.77,1.01-3.58,1.5-5.33l2.81-9.17h4l-6,17.68h-4.79l-6.16-17.68Z"/><path class="cls-4" d="M433.97,101.46c0-5.75,3.99-9.29,8.15-9.29,4.78,0,7.3,3.46,7.3,8.39,0,.79-.09,1.58-.18,2.02h-11.22c.35,3.14,2.36,4.92,5.21,4.92,1.51,0,2.81-.47,4.1-1.28l1.41,2.58c-1.68,1.14-3.82,1.92-6.06,1.92-4.88,0-8.71-3.43-8.71-9.26ZM445.84,99.76c0-2.72-1.21-4.38-3.63-4.38-2.06,0-3.87,1.54-4.23,4.38h7.86Z"/><path class="cls-4" d="M453.57,105.74v-20.88h4.15v21.09c0,1.02.46,1.38.89,1.38.19,0,.33,0,.65-.07l.52,3.09c-.5.2-1.2.36-2.19.36-2.94,0-4.02-1.9-4.02-4.98Z"/><path class="cls-4" d="M462.34,101.46c0-5.89,4-9.29,8.41-9.29s8.41,3.4,8.41,9.29-4,9.26-8.41,9.26-8.41-3.4-8.41-9.26ZM474.89,101.46c0-3.54-1.55-5.9-4.15-5.9s-4.15,2.36-4.15,5.9,1.55,5.87,4.15,5.87,4.15-2.33,4.15-5.87Z"/><path class="cls-4" d="M483.45,92.61h3.4l.32,1.89h.12c1.49-1.28,3.38-2.32,5.33-2.32,4.42,0,6.95,3.54,6.95,9,0,6.05-3.61,9.55-7.54,9.55-1.57,0-3.11-.71-4.55-1.94l.13,2.94v5.57h-4.15v-24.68ZM495.3,101.22c0-3.53-1.15-5.62-3.84-5.62-1.28,0-2.49.65-3.86,1.99v8.24c1.27,1.08,2.52,1.47,3.54,1.47,2.36,0,4.16-2.07,4.16-6.08Z"/><path class="cls-4" d="M503.93,92.61h3.4l.32,2.41h.12c1.5-1.56,3.21-2.84,5.43-2.84,2.59,0,4.07,1.18,4.88,3.17,1.69-1.8,3.44-3.17,5.69-3.17,3.73,0,5.46,2.56,5.46,7.03v11.09h-4.15v-10.55c0-2.91-.86-4-2.72-4-1.12,0-2.33.72-3.7,2.2v12.35h-4.15v-10.55c0-2.91-.86-4-2.72-4-1.09,0-2.33.72-3.7,2.2v12.35h-4.15v-17.68Z"/><path class="cls-4" d="M533.29,101.46c0-5.75,3.99-9.29,8.15-9.29,4.78,0,7.3,3.46,7.3,8.39,0,.79-.09,1.58-.18,2.02h-11.22c.35,3.14,2.36,4.92,5.21,4.92,1.51,0,2.81-.47,4.1-1.28l1.41,2.58c-1.68,1.14-3.82,1.92-6.06,1.92-4.88,0-8.71-3.43-8.71-9.26ZM545.16,99.76c0-2.72-1.21-4.38-3.63-4.38-2.06,0-3.87,1.54-4.23,4.38h7.86Z"/><path class="cls-4" d="M552.89,92.61h3.4l.32,2.39h.12c1.58-1.54,3.38-2.82,5.8-2.82,3.79,0,5.44,2.56,5.44,7.03v11.09h-4.15v-10.55c0-2.91-.84-4-2.75-4-1.56,0-2.58.76-4.03,2.2v12.35h-4.15v-17.68Z"/><path class="cls-4" d="M573.85,104.33v-8.42h-2.52v-3.11l2.74-.19.49-4.82h3.44v4.82h4.51v3.3h-4.51v8.42c0,2.08.81,3.1,2.51,3.1.6,0,1.32-.2,1.84-.4l.71,3.05c-.96.32-2.2.65-3.61.65-4.08,0-5.59-2.58-5.59-6.39Z"/><path class="cls-3" d="M157.39,156.02h-4.03l4.13-19.43h4.03l-4.13,19.43Z"/><path class="cls-3" d="M175.96,146.34l-2.06,9.68h-3.85l1.85-8.74c.17-.76.19-1.34.07-1.74-.21-.74-.83-1.11-1.87-1.11-1.27,0-2.26.54-2.97,1.62-.37.57-.65,1.3-.83,2.19l-1.65,7.78h-3.74l3.04-14.34h3.63l-.45,2.1c.64-.74,1.21-1.27,1.71-1.59.9-.58,1.94-.87,3.12-.87,1.49,0,2.62.39,3.39,1.17.78.78.98,2.07.6,3.87Z"/><path class="cls-3" d="M189.3,143.47l1.45-6.86h3.81l-4.11,19.41h-3.65l.42-1.99c-.72.85-1.47,1.47-2.23,1.86-.77.39-1.66.58-2.68.58-1.68,0-2.95-.68-3.8-2.04-.86-1.36-1.06-3.1-.61-5.23.53-2.45,1.5-4.38,2.93-5.79,1.43-1.41,3.09-2.11,4.98-2.11.87,0,1.6.19,2.2.57.59.38,1.03.91,1.31,1.59ZM188.22,149.04c.37-1.76.19-3.01-.53-3.77-.45-.46-1.03-.69-1.75-.69-1.1,0-1.99.42-2.68,1.25-.69.83-1.17,1.86-1.43,3.09-.28,1.33-.25,2.39.11,3.18.35.8,1.06,1.19,2.12,1.19s1.96-.4,2.68-1.19c.73-.79,1.22-1.81,1.48-3.07Z"/><path class="cls-3" d="M196.96,141.65h3.81l-3.05,14.37h-3.81l3.04-14.37ZM201.14,139.93h-3.81l.74-3.47h3.81l-.74,3.47Z"/><path class="cls-3" d="M208.85,147.28c.72-.09,1.24-.2,1.57-.33.58-.23.92-.58,1.03-1.07.12-.59,0-1-.36-1.22-.36-.22-.94-.34-1.73-.34-.89,0-1.56.22-2.03.66-.33.33-.59.77-.8,1.32h-3.63c.35-1.26.92-2.29,1.71-3.1,1.27-1.27,3.11-1.9,5.52-1.9,1.57,0,2.91.31,4,.94,1.09.62,1.45,1.8,1.08,3.53l-1.41,6.59c-.1.46-.2,1.01-.32,1.66-.08.49-.08.83,0,1,.08.18.24.32.46.43l-.11.55h-4.09c-.05-.29-.08-.56-.07-.82,0-.25.03-.54.08-.87-.64.56-1.34,1.04-2.1,1.44-.91.46-1.88.7-2.9.7-1.3,0-2.3-.37-2.99-1.11-.69-.74-.89-1.79-.6-3.16.38-1.77,1.33-3.05,2.86-3.84.83-.43,2-.74,3.49-.92l1.31-.16ZM210.76,149.03c-.26.15-.53.27-.79.36-.26.09-.62.18-1.05.26l-.87.16c-.83.14-1.43.31-1.82.51-.65.34-1.05.88-1.2,1.6-.14.64-.06,1.1.23,1.39.29.29.7.43,1.21.43.81,0,1.6-.24,2.39-.71.78-.47,1.32-1.34,1.62-2.6l.29-1.4Z"/><path class="cls-3" d="M233.91,149.03h-4.13l-1.48,6.99h-4.04l4.13-19.43h8.46c1.95,0,3.4.5,4.34,1.5.95,1,1.2,2.55.76,4.65-.49,2.29-1.42,3.92-2.78,4.86s-3.12,1.42-5.27,1.42ZM235.49,139.96h-3.78l-1.21,5.72h3.78c.96,0,1.75-.23,2.39-.7.63-.46,1.05-1.2,1.27-2.21.22-1.01.11-1.73-.34-2.16-.44-.43-1.14-.65-2.1-.65Z"/><path class="cls-3" d="M253.79,141.65h4.03l-8.23,14.37h-3.97l-2.11-14.37h4.22l.74,10.6,5.31-10.6Z"/><path class="cls-3" d="M257.88,144.46l.57-2.68h2l.86-4.01h3.72l-.86,4.01h2.33l-.57,2.68h-2.33l-1.62,7.59c-.12.59-.12.96,0,1.1.12.14.56.22,1.33.22.11,0,.24,0,.36,0,.13,0,.26-.01.39-.02l-.61,2.81-1.79.07c-1.79.06-2.93-.25-3.44-.92-.33-.43-.4-1.09-.21-1.99l1.88-8.85h-2Z"/><path class="cls-3" d="M277.83,136.58h4.06l-3.39,15.94h9.62l-.74,3.49h-13.68l4.13-19.43Z"/><path class="cls-3" d="M290.86,144.46l.57-2.68h2l.86-4.01h3.72l-.86,4.01h2.33l-.57,2.68h-2.33l-1.62,7.59c-.12.59-.12.96,0,1.1.12.14.56.22,1.33.22.11,0,.24,0,.36,0,.13,0,.26-.01.39-.02l-.61,2.81-1.79.07c-1.79.06-2.93-.25-3.44-.92-.33-.43-.4-1.09-.21-1.99l1.88-8.85h-2Z"/><path class="cls-3" d="M310.81,143.47l1.45-6.86h3.81l-4.11,19.41h-3.65l.42-1.99c-.72.85-1.47,1.47-2.23,1.86-.77.39-1.66.58-2.68.58-1.68,0-2.95-.68-3.8-2.04-.86-1.36-1.06-3.1-.61-5.23.53-2.45,1.5-4.38,2.93-5.79,1.43-1.41,3.09-2.11,4.98-2.11.87,0,1.6.19,2.2.57.59.38,1.03.91,1.31,1.59ZM309.73,149.04c.37-1.76.19-3.01-.53-3.77-.45-.46-1.03-.69-1.75-.69-1.1,0-1.99.42-2.68,1.25-.69.83-1.17,1.86-1.43,3.09-.28,1.33-.25,2.39.11,3.18.35.8,1.06,1.19,2.12,1.19s1.96-.4,2.68-1.19c.73-.79,1.22-1.81,1.48-3.07Z"/><path class="cls-3" d="M331.14,152.26c.81-1.27,2.36-2.62,4.65-4.05,2-1.24,3.3-2.13,3.93-2.66.96-.83,1.54-1.75,1.75-2.74.18-.81.1-1.48-.24-2.02-.33-.54-.92-.8-1.75-.8-1.14,0-2.01.43-2.61,1.28-.34.49-.65,1.27-.91,2.35h-3.65c.4-1.62.98-2.94,1.71-3.94,1.41-1.91,3.39-2.86,5.95-2.86,2.02,0,3.51.56,4.47,1.68.96,1.12,1.24,2.6.84,4.45-.3,1.42-.98,2.67-2.06,3.77-.71.73-1.8,1.54-3.26,2.44l-1.73,1.07c-1.08.67-1.83,1.15-2.24,1.45s-.78.65-1.09,1.04h8.34l-.7,3.31h-13.09c.33-1.37.88-2.62,1.67-3.76Z"/><path class="cls-3" d="M361.25,140.09c-.68.55-1.67,1.54-2.97,2.96-1.31,1.42-2.46,2.88-3.45,4.4-.79,1.19-1.58,2.64-2.38,4.35-.8,1.71-1.31,3.12-1.54,4.22h-3.9c.83-3.43,2.72-6.99,5.64-10.69,1.86-2.29,3.36-3.89,4.48-4.8h-9.53l.78-3.38h13.5l-.63,2.94Z"/><path class="cls-3" d="M360.76,150.59l.74-3.44h5.41l1.15-5.4h3.47l-1.15,5.4h5.4l-.74,3.44h-5.4l-1.15,5.43h-3.47l1.15-5.43h-5.41Z"/><path class="cls-3" d="M398.72,136.58h4.6l-9.08,12.13-1.54,7.3h-4.06l1.54-7.3-4.14-12.13h4.79l2.23,8.46,5.67-8.46Z"/><path class="cls-3" d="M413.54,144.06c.39.85.54,1.84.46,2.97-.04.66-.19,1.61-.47,2.85h-9.83c-.26,1.44-.02,2.45.71,3.03.44.36,1.02.54,1.75.54.77,0,1.45-.22,2.03-.66.31-.24.61-.57.91-.99h3.84c-.28.85-.91,1.72-1.89,2.6-1.53,1.4-3.4,2.1-5.62,2.1-1.83,0-3.32-.59-4.46-1.77-1.15-1.18-1.44-3.09-.88-5.75.53-2.49,1.56-4.39,3.1-5.72,1.54-1.33,3.32-1.99,5.33-1.99,1.2,0,2.23.22,3.09.67.87.45,1.5,1.16,1.92,2.12ZM404.31,147.4h5.84c.15-.99,0-1.75-.43-2.26-.44-.51-1.05-.77-1.85-.77-.87,0-1.6.27-2.2.82-.59.54-1.05,1.28-1.36,2.21Z"/><path class="cls-3" d="M422.24,147.28c.72-.09,1.24-.2,1.57-.33.58-.23.92-.58,1.03-1.07.12-.59,0-1-.36-1.22-.36-.22-.94-.34-1.73-.34-.89,0-1.56.22-2.03.66-.33.33-.59.77-.8,1.32h-3.63c.35-1.26.92-2.29,1.71-3.1,1.27-1.27,3.11-1.9,5.52-1.9,1.57,0,2.91.31,4,.94,1.09.62,1.45,1.8,1.08,3.53l-1.41,6.59c-.1.46-.2,1.01-.32,1.66-.08.49-.08.83,0,1,.08.18.24.32.46.43l-.11.55h-4.09c-.05-.29-.08-.56-.07-.82,0-.25.03-.54.08-.87-.64.56-1.34,1.04-2.1,1.44-.91.46-1.88.7-2.9.7-1.3,0-2.3-.37-2.99-1.11-.69-.74-.89-1.79-.6-3.16.38-1.77,1.33-3.05,2.86-3.84.83-.43,2-.74,3.49-.92l1.31-.16ZM424.15,149.03c-.26.15-.53.27-.79.36-.26.09-.62.18-1.05.26l-.87.16c-.83.14-1.43.31-1.82.51-.65.34-1.05.88-1.2,1.6-.14.64-.06,1.1.23,1.39.29.29.7.43,1.21.43.81,0,1.6-.24,2.39-.71.78-.47,1.32-1.34,1.62-2.6l.29-1.4Z"/><path class="cls-3" d="M441.18,141.33l-.82,3.85c-.23-.03-.44-.04-.62-.05s-.33-.01-.45-.01c-1.51,0-2.63.49-3.36,1.48-.41.55-.73,1.41-.98,2.56l-1.45,6.87h-3.78l3.05-14.37h3.59l-.53,2.5c.78-.96,1.42-1.61,1.92-1.96.83-.59,1.82-.88,2.94-.88.07,0,.13,0,.18,0,.05,0,.15.01.31.02Z"/><path class="cls-3" d="M444.16,151.43c-.06.67.01,1.14.22,1.42.35.5,1.16.75,2.41.75.74,0,1.35-.11,1.83-.33s.77-.55.87-.99c.09-.42-.02-.74-.33-.96s-1.53-.6-3.68-1.13c-1.54-.4-2.58-.91-3.11-1.52-.55-.6-.7-1.46-.45-2.58.28-1.33,1.04-2.47,2.29-3.42,1.24-.95,2.81-1.43,4.7-1.43,1.79,0,3.18.36,4.15,1.08s1.36,1.95,1.16,3.71h-3.76c.04-.48-.01-.87-.17-1.15-.31-.51-.96-.76-1.95-.76-.82,0-1.43.13-1.83.38-.4.25-.63.55-.71.9-.1.43.02.74.36.94.32.2,1.55.55,3.69,1.04,1.41.35,2.42.88,3.02,1.6.59.72.77,1.62.54,2.7-.31,1.42-1.08,2.59-2.33,3.49-1.25.9-2.98,1.35-5.19,1.35s-3.83-.48-4.7-1.43c-.87-.95-1.16-2.17-.85-3.65h3.81Z"/><path class="cls-3" d="M478.41,154.29c-1.78,1.51-4.07,2.27-6.84,2.27s-4.74-.76-5.89-2.27c-1.57-1.85-1.99-4.53-1.24-8.02.76-3.56,2.31-6.23,4.65-8.02,1.78-1.51,4.07-2.27,6.84-2.27s4.74.76,5.89,2.27c1.58,1.78,1.99,4.46,1.24,8.02-.75,3.49-2.3,6.16-4.65,8.02ZM479.01,146.28c.46-2.18.34-3.87-.35-5.06-.69-1.19-1.84-1.79-3.45-1.79s-3.02.59-4.22,1.78c-1.21,1.19-2.05,2.87-2.51,5.06-.47,2.19-.35,3.88.36,5.06.7,1.19,1.86,1.78,3.47,1.78s3.01-.59,4.21-1.78c1.2-1.19,2.03-2.88,2.5-5.06Z"/><path class="cls-3" d="M494.68,136.47l-.66,3.06c-.2-.03-.55-.05-1.04-.06-.49-.01-.86.1-1.1.33-.24.23-.39.49-.44.77-.06.28-.15.69-.26,1.21h2.46l-.57,2.65h-2.47l-2.45,11.59h-3.74l2.45-11.59h-2.1l.57-2.65h2.06l.2-.92c.32-1.54.81-2.6,1.45-3.18.73-.86,2.14-1.29,4.22-1.29.24,0,.45,0,.64.02.19.01.45.03.78.06Z"/><path class="cls-3" d="M518.35,140.03h-10.28l-.87,4.13h9.44l-.73,3.38h-9.44l-1.05,5h10.76l-.74,3.49h-14.73l4.13-19.43h14.25l-.74,3.44Z"/><path class="cls-3" d="M516.88,156.02l6.45-7.28-3.19-7.07h4.6l1.52,4.17,3.23-4.17h4.47l-6.21,7,3.35,7.34h-4.68l-1.57-4.31-3.4,4.31h-4.56Z"/><path class="cls-3" d="M543.84,146.8c.04-.54-.04-1.02-.24-1.45-.3-.58-.89-.87-1.78-.87-1.27,0-2.26.63-2.99,1.88-.39.67-.7,1.56-.94,2.66-.22,1.05-.28,1.9-.17,2.54.19,1.2.91,1.79,2.15,1.79.88,0,1.55-.24,2.02-.71.47-.47.82-1.09,1.06-1.85h3.84c-.33,1.14-.97,2.22-1.92,3.24-1.53,1.64-3.45,2.47-5.76,2.47s-3.87-.69-4.66-2.06c-.79-1.37-.96-3.15-.49-5.34.52-2.47,1.53-4.39,3.03-5.76,1.5-1.37,3.31-2.06,5.42-2.06,1.8,0,3.19.4,4.17,1.21.98.81,1.35,2.24,1.12,4.29h-3.85Z"/><path class="cls-3" d="M562.13,144.06c.39.85.54,1.84.46,2.97-.04.66-.19,1.61-.47,2.85h-9.83c-.26,1.44-.02,2.45.71,3.03.44.36,1.02.54,1.75.54.77,0,1.45-.22,2.03-.66.31-.24.61-.57.91-.99h3.84c-.28.85-.91,1.72-1.89,2.6-1.53,1.4-3.4,2.1-5.62,2.1-1.83,0-3.32-.59-4.46-1.77-1.15-1.18-1.44-3.09-.88-5.75.53-2.49,1.56-4.39,3.1-5.72,1.54-1.33,3.32-1.99,5.33-1.99,1.2,0,2.23.22,3.09.67.87.45,1.5,1.16,1.92,2.12ZM552.9,147.4h5.84c.15-.99,0-1.75-.43-2.26-.44-.51-1.05-.77-1.85-.77-.87,0-1.6.27-2.2.82-.59.54-1.05,1.28-1.36,2.21Z"/><path class="cls-3" d="M567.18,156.02h-3.76l4.13-19.43h3.76l-4.13,19.43Z"/><path class="cls-3" d="M574.68,156.02h-3.76l4.13-19.43h3.76l-4.13,19.43Z"/><path class="cls-3" d="M592.15,144.06c.39.85.54,1.84.46,2.97-.04.66-.19,1.61-.47,2.85h-9.83c-.26,1.44-.02,2.45.71,3.03.44.36,1.02.54,1.75.54.77,0,1.45-.22,2.03-.66.31-.24.61-.57.91-.99h3.84c-.28.85-.91,1.72-1.89,2.6-1.53,1.4-3.4,2.1-5.62,2.1-1.83,0-3.32-.59-4.46-1.77-1.15-1.18-1.44-3.09-.88-5.75.53-2.49,1.56-4.39,3.1-5.72,1.54-1.33,3.32-1.99,5.33-1.99,1.2,0,2.23.22,3.09.67.87.45,1.5,1.16,1.92,2.12ZM582.92,147.4h5.84c.15-.99,0-1.75-.43-2.26-.44-.51-1.05-.77-1.85-.77-.87,0-1.6.27-2.2.82-.59.54-1.05,1.28-1.36,2.21Z"/><path class="cls-3" d="M608.44,146.34l-2.06,9.68h-3.85l1.85-8.74c.17-.76.19-1.34.07-1.74-.21-.74-.83-1.11-1.87-1.11-1.27,0-2.26.54-2.97,1.62-.37.57-.65,1.3-.83,2.19l-1.65,7.78h-3.74l3.05-14.34h3.63l-.45,2.1c.64-.74,1.21-1.27,1.71-1.59.9-.58,1.94-.87,3.12-.87,1.49,0,2.62.39,3.39,1.17.78.78.98,2.07.6,3.87Z"/><path class="cls-3" d="M620.39,146.8c.04-.54-.04-1.02-.24-1.45-.3-.58-.89-.87-1.78-.87-1.27,0-2.26.63-2.99,1.88-.39.67-.7,1.56-.94,2.66-.22,1.05-.28,1.9-.17,2.54.19,1.2.91,1.79,2.15,1.79.88,0,1.55-.24,2.02-.71.47-.47.82-1.09,1.06-1.85h3.84c-.33,1.14-.97,2.22-1.92,3.24-1.53,1.64-3.45,2.47-5.76,2.47s-3.87-.69-4.66-2.06c-.79-1.37-.96-3.15-.49-5.34.52-2.47,1.53-4.39,3.03-5.76,1.5-1.37,3.31-2.06,5.42-2.06,1.8,0,3.19.4,4.17,1.21.98.81,1.35,2.24,1.12,4.29h-3.85Z"/><path class="cls-3" d="M638.67,144.06c.39.85.54,1.84.46,2.97-.04.66-.19,1.61-.47,2.85h-9.83c-.26,1.44-.02,2.45.71,3.03.44.36,1.02.54,1.75.54.77,0,1.45-.22,2.03-.66.31-.24.61-.57.91-.99h3.84c-.28.85-.91,1.72-1.89,2.6-1.53,1.4-3.4,2.1-5.62,2.1-1.83,0-3.32-.59-4.46-1.77-1.15-1.18-1.44-3.09-.88-5.75.53-2.49,1.56-4.39,3.1-5.72,1.54-1.33,3.32-1.99,5.33-1.99,1.2,0,2.23.22,3.09.67.87.45,1.5,1.16,1.92,2.12ZM629.45,147.4h5.84c.15-.99,0-1.75-.43-2.26-.44-.51-1.05-.77-1.85-.77-.87,0-1.6.27-2.2.82-.59.54-1.05,1.28-1.36,2.21Z"/></svg>