<?xml version="1.0" encoding="UTF-8"?><svg id="Layer_1" xmlns="http://www.w3.org/2000/svg" viewBox="0 0 674 174"><defs><style>.cls-1{fill:#2aa992;}.cls-2{fill:#fff;}.cls-3{fill:#c4c5c7;}.cls-4{fill:#f79925;}.cls-5{fill:#df2128;}.cls-6{fill:#f58520;}.cls-7{fill:#2e9c49;}.cls-8{fill:#4fb956;}</style></defs><rect class="cls-4" x="8" y="30" width="18" height="135" rx="9" ry="9"/><rect class="cls-6" x="17" y="26.97" width="18" height="45.03" rx="9" ry="9" transform="translate(-26.28 29.7) rotate(-41.55)"/><rect class="cls-5" x="47.29" y="59.36" width="18" height="123.82" rx="9" ry="9" transform="translate(109.7 -1.29) rotate(48.45)"/><rect class="cls-8" x="116" y="12" width="18" height="135" rx="9" ry="9" transform="translate(250 159) rotate(180)"/><rect class="cls-7" x="107" y="105" width="18" height="45.03" rx="9" ry="9" transform="translate(287.39 146) rotate(138.45)"/><rect class="cls-1" x="76.71" y="-6.18" width="18" height="123.82" rx="9" ry="9" transform="translate(100.86 156.84) rotate(-131.55)"/><path class="cls-2" d="M237.67,44.92c0-13.84,7.82-21.78,19.24-21.78s19.24,7.99,19.24,21.78-7.82,22.15-19.24,22.15-19.24-8.31-19.24-22.15ZM266.34,44.92c0-8.49-3.65-13.51-9.43-13.51s-9.43,5.01-9.43,13.51,3.65,13.88,9.43,13.88,9.43-5.38,9.43-13.88Z"/><path class="cls-2" d="M285.03,34.04h7.79l.69,3.17h.24c2.53-2.26,5.82-3.95,9.18-3.95,7.81,0,12.59,6.45,12.59,16.4,0,11.07-6.58,17.41-13.57,17.41-2.78,0-5.38-1.22-7.69-3.37l.32,5.1v9.45h-9.55v-44.22ZM305.73,49.76c0-5.79-1.79-8.68-5.6-8.68-1.96,0-3.65.88-5.54,2.89v13.24c1.74,1.51,3.53,2.04,5.14,2.04,3.33,0,6-2.81,6-9.49Z"/><path class="cls-2" d="M323.57,54.56v-13.03h-4.41v-7.13l4.94-.37,1.12-8.56h7.9v8.56h7.73v7.5h-7.73v12.91c0,3.66,1.66,5.12,4.17,5.12,1.06,0,2.22-.31,3.07-.61l1.51,6.94c-1.71.54-4.04,1.17-7.17,1.17-7.97,0-11.14-5.03-11.14-12.51Z"/><path class="cls-2" d="M348.12,24.33c0-2.93,2.33-5,5.53-5s5.53,2.07,5.53,5-2.33,5-5.53,5-5.53-2.09-5.53-5ZM348.86,34.04h9.56v32.25h-9.56v-32.25Z"/><path class="cls-2" d="M368.49,34.04h7.8l.69,4.14h.24c2.65-2.66,5.54-4.92,9.77-4.92,4.54,0,7.27,1.96,8.9,5.43,2.84-2.96,5.86-5.43,10.12-5.43,6.97,0,10.09,4.95,10.09,13.01v20.02h-9.56v-18.8c0-4.64-1.27-6.09-3.98-6.09-1.62,0-3.46,1.01-5.49,3.13v21.76h-9.56v-18.8c0-4.64-1.27-6.09-3.98-6.09-1.6,0-3.46,1.01-5.49,3.13v21.76h-9.56v-32.25Z"/><path class="cls-2" d="M425.14,24.33c0-2.93,2.33-5,5.53-5s5.53,2.07,5.53,5-2.33,5-5.53,5-5.53-2.09-5.53-5ZM425.88,34.04h9.56v32.25h-9.56v-32.25Z"/><path class="cls-2" d="M442.66,62.56l4.3-5.95c2.92,2.21,5.62,3.39,8.32,3.39,2.84,0,4.07-1.08,4.07-2.77,0-2.12-3.2-3.09-6.51-4.39-3.95-1.53-8.53-4.15-8.53-9.48,0-6,4.88-10.09,12.32-10.09,4.94,0,8.62,2,11.37,4.08l-4.28,5.74c-2.29-1.67-4.56-2.75-6.79-2.75-2.47,0-3.68.97-3.68,2.58,0,2.06,3.02,2.84,6.36,4.06,4.08,1.51,8.69,3.81,8.69,9.71s-4.6,10.4-13.25,10.4c-4.25,0-9.12-1.84-12.38-4.5Z"/><path class="cls-2" d="M475.99,54.56v-13.03h-4.41v-7.13l4.94-.37,1.12-8.56h7.9v8.56h7.73v7.5h-7.73v12.91c0,3.66,1.66,5.12,4.17,5.12,1.06,0,2.22-.31,3.07-.61l1.51,6.94c-1.71.54-4.04,1.17-7.17,1.17-7.97,0-11.14-5.03-11.14-12.51Z"/><path class="cls-2" d="M498.5,57.34c0-6.79,5.41-10.47,18.16-11.82-.19-2.82-1.6-4.66-5.1-4.66-2.71,0-5.4,1.14-8.53,2.91l-3.4-6.27c4.09-2.5,8.7-4.24,13.77-4.24,8.24,0,12.81,4.71,12.81,14.59v18.44h-7.8l-.69-3.3h-.24c-2.71,2.39-5.76,4.08-9.38,4.08-5.88,0-9.61-4.29-9.61-9.72ZM516.66,56.92v-5.63c-6.79.92-9.01,2.86-9.01,5.3,0,2.08,1.43,3.1,3.7,3.1s3.62-1.07,5.31-2.76Z"/><path class="cls-2" d="M205.54,90.26h-6.8v-3.51h17.77v3.51h-6.79v20.03h-4.18v-20.03Z"/><path class="cls-2" d="M218.68,92.61h3.4l.32,3.15h.12c1.26-2.3,3.13-3.58,5.02-3.58.9,0,1.47.12,2,.36l-.72,3.6c-.62-.17-1.08-.29-1.81-.29-1.41,0-3.11.96-4.18,3.66v10.78h-4.15v-17.68Z"/><path class="cls-2" d="M230.4,105.54c0-3.79,3.14-5.76,10.4-6.54-.06-1.9-.82-3.48-3.21-3.48-1.76,0-3.41.79-4.97,1.74l-1.53-2.76c1.94-1.22,4.45-2.32,7.26-2.32,4.42,0,6.59,2.72,6.59,7.65v10.47h-3.4l-.32-1.96h-.12c-1.58,1.35-3.4,2.39-5.49,2.39-3.1,0-5.23-2.1-5.23-5.18ZM240.8,105.55v-3.97c-4.79.6-6.39,1.86-6.39,3.64,0,1.56,1.06,2.25,2.55,2.25s2.53-.71,3.84-1.92Z"/><path class="cls-2" d="M249.63,87.16c0-1.4,1.09-2.35,2.56-2.35s2.56.95,2.56,2.35-1.09,2.35-2.56,2.35-2.56-.98-2.56-2.35ZM250.11,92.61h4.15v17.68h-4.15v-17.68Z"/><path class="cls-2" d="M259.72,92.61h3.4l.32,2.39h.12c1.58-1.54,3.38-2.82,5.8-2.82,3.79,0,5.44,2.56,5.44,7.03v11.09h-4.15v-10.55c0-2.91-.83-4-2.75-4-1.55,0-2.58.76-4.03,2.2v12.35h-4.15v-17.68Z"/><path class="cls-2" d="M279.59,87.16c0-1.4,1.09-2.35,2.56-2.35s2.56.95,2.56,2.35-1.09,2.35-2.56,2.35-2.56-.98-2.56-2.35ZM280.06,92.61h4.15v17.68h-4.15v-17.68Z"/><path class="cls-2" d="M289.67,92.61h3.4l.32,2.39h.12c1.58-1.54,3.38-2.82,5.8-2.82,3.79,0,5.44,2.56,5.44,7.03v11.09h-4.15v-10.55c0-2.91-.83-4-2.75-4-1.55,0-2.58.76-4.03,2.2v12.35h-4.15v-17.68Z"/><path class="cls-2" d="M308.8,113.5c0-1.49.92-2.79,2.55-3.77v-.14c-.91-.59-1.6-1.53-1.6-2.95s.94-2.58,1.96-3.3v-.14c-1.21-.89-2.33-2.58-2.33-4.67,0-4.06,3.28-6.35,6.98-6.35.98,0,1.9.17,2.62.43h6.32v3.08h-3.23c.58.66,1.01,1.76,1.01,2.97,0,3.93-2.98,6.03-6.72,6.03-.75,0-1.6-.16-2.39-.47-.53.45-.86.9-.86,1.69,0,.99.72,1.6,2.87,1.6h3.15c4.23,0,6.47,1.31,6.47,4.36,0,3.48-3.66,6.23-9.43,6.23-4.22,0-7.36-1.51-7.36-4.61ZM321.59,112.55c0-1.37-1.09-1.77-3.12-1.77h-2.43c-.95,0-1.71-.07-2.39-.25-.95.72-1.37,1.51-1.37,2.33,0,1.61,1.73,2.55,4.51,2.55s4.79-1.34,4.79-2.87ZM319.43,98.52c0-2.22-1.34-3.48-3.07-3.48s-3.07,1.25-3.07,3.48,1.37,3.56,3.07,3.56,3.07-1.31,3.07-3.56Z"/><path class="cls-2" d="M334.68,104.1c0-7.34,10.87-7.93,10.87-12.76,0-1.24-.57-2.2-1.92-2.2-1.48,0-2.51,1.22-2.51,3.02,0,4.06,4.96,9.53,9.62,12.65,1.91,1.28,3.76,2.19,5.3,2.53l-1.04,3.38c-2.12-.49-4.46-1.59-6.75-3.23-5.54-3.95-10.62-10.45-10.62-15.3,0-3.24,2.33-5.88,5.93-5.88,3.23,0,5.21,2.02,5.21,5,0,6.16-10.15,7.8-10.15,12.54,0,2.19,1.73,3.66,4.06,3.66,1.8,0,3.6-1.04,5.14-2.58,1.89-1.96,3.34-4.52,4.19-7.65h3.8c-1.05,3.53-2.69,6.76-5.12,9.55-2.1,2.32-4.88,3.89-8.51,3.89-4.7,0-7.52-2.92-7.52-6.62Z"/><path class="cls-2" d="M367.22,86.75h6.28c7.21,0,11.48,3.89,11.48,11.68s-4.26,11.86-11.26,11.86h-6.49v-23.54ZM373.22,106.9c4.74,0,7.46-2.69,7.46-8.48s-2.72-8.29-7.46-8.29h-1.83v16.77h1.83Z"/><path class="cls-2" d="M388.37,101.46c0-5.75,3.99-9.29,8.15-9.29,4.78,0,7.3,3.46,7.3,8.39,0,.79-.09,1.58-.18,2.02h-11.22c.35,3.14,2.36,4.92,5.21,4.92,1.51,0,2.81-.47,4.1-1.28l1.41,2.58c-1.68,1.14-3.82,1.92-6.06,1.92-4.88,0-8.71-3.43-8.71-9.26ZM400.23,99.76c0-2.72-1.21-4.38-3.63-4.38-2.06,0-3.87,1.54-4.23,4.38h7.86Z"/><path class="cls-2" d="M405.76,92.61h4.21l2.81,9.17c.49,1.74,1.01,3.56,1.5,5.33h.14c.49-1.77,1.01-3.58,1.5-5.33l2.81-9.17h4l-6,17.68h-4.79l-6.16-17.68Z"/><path class="cls-2" d="M424.58,101.46c0-5.75,3.99-9.29,8.15-9.29,4.78,0,7.3,3.46,7.3,8.39,0,.79-.09,1.58-.18,2.02h-11.22c.35,3.14,2.36,4.92,5.21,4.92,1.51,0,2.81-.47,4.1-1.28l1.41,2.58c-1.68,1.14-3.82,1.92-6.06,1.92-4.88,0-8.71-3.43-8.71-9.26ZM436.45,99.76c0-2.72-1.21-4.38-3.63-4.38-2.06,0-3.87,1.54-4.23,4.38h7.86Z"/><path class="cls-2" d="M444.18,105.74v-20.88h4.15v21.09c0,1.02.46,1.38.89,1.38.19,0,.33,0,.65-.07l.52,3.09c-.5.2-1.2.36-2.19.36-2.94,0-4.02-1.9-4.02-4.98Z"/><path class="cls-2" d="M452.95,101.46c0-5.89,4-9.29,8.41-9.29s8.41,3.4,8.41,9.29-4,9.26-8.41,9.26-8.41-3.4-8.41-9.26ZM465.51,101.46c0-3.54-1.55-5.9-4.15-5.9s-4.15,2.36-4.15,5.9,1.55,5.87,4.15,5.87,4.15-2.33,4.15-5.87Z"/><path class="cls-2" d="M474.06,92.61h3.4l.32,1.89h.12c1.49-1.28,3.38-2.32,5.33-2.32,4.42,0,6.95,3.54,6.95,9,0,6.05-3.61,9.55-7.54,9.55-1.57,0-3.11-.71-4.55-1.94l.13,2.94v5.57h-4.15v-24.68ZM485.91,101.22c0-3.53-1.15-5.62-3.84-5.62-1.28,0-2.49.65-3.86,1.99v8.24c1.27,1.08,2.52,1.47,3.54,1.47,2.36,0,4.16-2.07,4.16-6.08Z"/><path class="cls-2" d="M494.55,92.61h3.4l.32,2.41h.12c1.5-1.56,3.21-2.84,5.43-2.84,2.59,0,4.07,1.18,4.88,3.17,1.69-1.8,3.44-3.17,5.69-3.17,3.73,0,5.46,2.56,5.46,7.03v11.09h-4.15v-10.55c0-2.91-.86-4-2.72-4-1.12,0-2.33.72-3.7,2.2v12.35h-4.15v-10.55c0-2.91-.86-4-2.72-4-1.09,0-2.33.72-3.7,2.2v12.35h-4.15v-17.68Z"/><path class="cls-2" d="M523.91,101.46c0-5.75,3.99-9.29,8.15-9.29,4.78,0,7.3,3.46,7.3,8.39,0,.79-.09,1.58-.18,2.02h-11.22c.35,3.14,2.36,4.92,5.21,4.92,1.51,0,2.81-.47,4.1-1.28l1.41,2.58c-1.68,1.14-3.82,1.92-6.06,1.92-4.88,0-8.71-3.43-8.71-9.26ZM535.77,99.76c0-2.72-1.21-4.38-3.63-4.38-2.06,0-3.87,1.54-4.23,4.38h7.86Z"/><path class="cls-2" d="M543.5,92.61h3.4l.32,2.39h.12c1.58-1.54,3.38-2.82,5.8-2.82,3.79,0,5.44,2.56,5.44,7.03v11.09h-4.15v-10.55c0-2.91-.84-4-2.75-4-1.56,0-2.58.76-4.03,2.2v12.35h-4.15v-17.68Z"/><path class="cls-2" d="M564.46,104.33v-8.42h-2.52v-3.11l2.74-.19.49-4.82h3.44v4.82h4.51v3.3h-4.51v8.42c0,2.08.81,3.1,2.51,3.1.6,0,1.32-.2,1.84-.4l.71,3.05c-.96.32-2.2.65-3.61.65-4.08,0-5.59-2.58-5.59-6.39Z"/><path class="cls-3" d="M166.61,147.02h-3.74l3.82-17.99h3.74l-3.82,17.99Z"/><path class="cls-3" d="M183.8,138.06l-1.9,8.96h-3.56l1.71-8.09c.16-.7.18-1.24.06-1.61-.2-.68-.77-1.03-1.73-1.03-1.18,0-2.1.5-2.75,1.5-.34.53-.6,1.2-.77,2.03l-1.53,7.2h-3.47l2.82-13.28h3.36l-.41,1.94c.59-.68,1.12-1.18,1.59-1.48.83-.54,1.79-.81,2.89-.81,1.38,0,2.42.36,3.14,1.08.72.72.91,1.92.55,3.58Z"/><path class="cls-3" d="M196.15,135.4l1.34-6.35h3.53l-3.81,17.97h-3.38l.39-1.84c-.67.79-1.36,1.36-2.07,1.72s-1.54.54-2.48.54c-1.55,0-2.73-.63-3.52-1.89-.79-1.26-.98-2.87-.57-4.84.49-2.27,1.39-4.06,2.72-5.36,1.32-1.3,2.86-1.95,4.61-1.95.81,0,1.48.18,2.03.53.55.35.95.84,1.21,1.47ZM195.15,140.56c.34-1.63.18-2.79-.49-3.49-.42-.42-.96-.63-1.62-.63-1.02,0-1.85.38-2.48,1.15-.64.77-1.08,1.72-1.32,2.86-.26,1.23-.23,2.21.1,2.95.33.74.98,1.1,1.96,1.1s1.81-.37,2.48-1.1c.67-.73,1.13-1.68,1.37-2.84Z"/><path class="cls-3" d="M203.24,133.71h3.53l-2.82,13.31h-3.53l2.82-13.31ZM207.11,132.12h-3.53l.68-3.21h3.53l-.68,3.21Z"/><path class="cls-3" d="M214.25,138.92c.67-.08,1.15-.18,1.45-.3.54-.21.85-.54.95-.99.11-.55,0-.92-.33-1.13-.33-.21-.87-.31-1.6-.31-.82,0-1.45.2-1.88.61-.3.3-.55.71-.75,1.22h-3.36c.33-1.16.85-2.12,1.59-2.87,1.17-1.17,2.88-1.76,5.12-1.76,1.46,0,2.69.29,3.7.87s1.34,1.67,1,3.27l-1.31,6.1c-.09.42-.19.94-.29,1.54-.07.46-.07.77,0,.93.08.16.22.3.42.4l-.1.51h-3.78c-.05-.27-.07-.52-.06-.76,0-.24.03-.5.07-.81-.59.52-1.24.96-1.94,1.33-.85.43-1.74.65-2.69.65-1.2,0-2.13-.34-2.76-1.03-.64-.69-.82-1.66-.56-2.92.35-1.64,1.23-2.82,2.65-3.55.77-.4,1.85-.68,3.24-.86l1.21-.15ZM216.02,140.55c-.24.14-.49.25-.73.34-.24.08-.57.17-.98.24l-.81.15c-.76.13-1.33.29-1.68.48-.6.32-.97.81-1.11,1.48-.13.59-.06,1.02.21,1.29.27.26.65.4,1.12.4.75,0,1.49-.22,2.21-.66.72-.44,1.23-1.24,1.5-2.4l.27-1.29Z"/><path class="cls-3" d="M237.46,140.55h-3.82l-1.37,6.47h-3.73l3.82-17.99h7.84c1.81,0,3.15.46,4.02,1.39.87.93,1.11,2.36.7,4.31-.46,2.12-1.31,3.63-2.58,4.5s-2.89,1.32-4.88,1.32ZM238.92,132.15h-3.5l-1.12,5.3h3.5c.89,0,1.62-.22,2.21-.65.59-.43.98-1.12,1.17-2.05.2-.94.1-1.6-.31-2-.41-.4-1.06-.6-1.95-.6Z"/><path class="cls-3" d="M255.87,133.71h3.74l-7.62,13.31h-3.67l-1.95-13.31h3.91l.68,9.81,4.92-9.81Z"/><path class="cls-3" d="M259.65,136.31l.52-2.48h1.86l.79-3.71h3.44l-.79,3.71h2.16l-.52,2.48h-2.16l-1.5,7.03c-.11.54-.12.88,0,1.02.11.13.52.2,1.23.2.11,0,.22,0,.34,0,.12,0,.24,0,.36-.02l-.56,2.6-1.66.06c-1.65.06-2.71-.23-3.19-.86-.3-.4-.37-1.01-.2-1.84l1.75-8.19h-1.86Z"/><path class="cls-3" d="M278.12,129.02h3.76l-3.14,14.76h8.91l-.68,3.23h-12.67l3.82-17.99Z"/><path class="cls-3" d="M290.19,136.31l.52-2.48h1.86l.79-3.71h3.44l-.79,3.71h2.16l-.52,2.48h-2.16l-1.5,7.03c-.11.54-.12.88,0,1.02.11.13.52.2,1.23.2.11,0,.22,0,.34,0,.12,0,.24,0,.36-.02l-.56,2.6-1.66.06c-1.65.06-2.71-.23-3.19-.86-.3-.4-.37-1.01-.2-1.84l1.75-8.19h-1.86Z"/><path class="cls-3" d="M308.66,135.4l1.34-6.35h3.53l-3.81,17.97h-3.38l.39-1.84c-.67.79-1.36,1.36-2.07,1.72s-1.54.54-2.48.54c-1.55,0-2.73-.63-3.52-1.89-.79-1.26-.98-2.87-.57-4.84.49-2.27,1.39-4.06,2.72-5.36,1.32-1.3,2.86-1.95,4.61-1.95.81,0,1.48.18,2.03.53.55.35.95.84,1.21,1.47ZM307.66,140.56c.34-1.63.18-2.79-.49-3.49-.42-.42-.96-.63-1.62-.63-1.02,0-1.85.38-2.48,1.15-.64.77-1.08,1.72-1.32,2.86-.26,1.23-.23,2.21.1,2.95.33.74.98,1.1,1.96,1.1s1.81-.37,2.48-1.1c.67-.73,1.13-1.68,1.37-2.84Z"/><path class="cls-3" d="M327.49,143.54c.75-1.18,2.18-2.43,4.31-3.75,1.85-1.15,3.06-1.97,3.64-2.47.89-.77,1.43-1.62,1.62-2.54.16-.75.09-1.37-.22-1.87-.31-.5-.85-.74-1.62-.74-1.06,0-1.86.39-2.42,1.18-.32.46-.6,1.18-.84,2.17h-3.38c.37-1.51.9-2.72,1.59-3.65,1.3-1.77,3.14-2.65,5.5-2.65,1.87,0,3.25.52,4.14,1.56.89,1.04,1.15,2.41.78,4.12-.28,1.31-.91,2.47-1.9,3.49-.66.68-1.66,1.43-3.02,2.26l-1.6.99c-1,.62-1.69,1.07-2.08,1.34s-.72.6-1.01.96h7.73l-.65,3.06h-12.12c.3-1.27.82-2.43,1.55-3.48Z"/><path class="cls-3" d="M355.37,132.27c-.63.51-1.54,1.43-2.75,2.74-1.21,1.31-2.27,2.67-3.19,4.07-.73,1.1-1.47,2.44-2.2,4.03s-1.21,2.89-1.42,3.91h-3.61c.77-3.17,2.51-6.47,5.22-9.9,1.73-2.12,3.11-3.6,4.15-4.44h-8.83l.72-3.12h12.5l-.59,2.72Z"/><path class="cls-3" d="M354.92,141.99l.68-3.19h5l1.06-5.01h3.21l-1.06,5.01h5.01l-.68,3.19h-5.01l-1.06,5.03h-3.21l1.06-5.03h-5Z"/><path class="cls-3" d="M390.06,129.02h4.26l-8.41,11.23-1.43,6.76h-3.76l1.43-6.76-3.83-11.23h4.43l2.06,7.84,5.25-7.84Z"/><path class="cls-3" d="M403.78,135.95c.36.79.5,1.71.43,2.75-.03.61-.18,1.49-.44,2.64h-9.11c-.24,1.33-.02,2.27.66,2.81.41.33.95.5,1.62.5.72,0,1.34-.2,1.88-.61.29-.22.57-.53.84-.92h3.55c-.26.79-.84,1.59-1.75,2.4-1.42,1.29-3.15,1.94-5.2,1.94-1.69,0-3.07-.54-4.13-1.64-1.06-1.09-1.33-2.86-.81-5.32.49-2.3,1.45-4.07,2.88-5.3,1.43-1.23,3.07-1.84,4.94-1.84,1.11,0,2.06.21,2.86.62s1.39,1.07,1.78,1.96ZM395.23,139.03h5.41c.14-.92,0-1.62-.4-2.09-.4-.48-.97-.71-1.71-.71-.81,0-1.48.25-2.03.76-.55.5-.97,1.19-1.26,2.05Z"/><path class="cls-3" d="M411.84,138.92c.67-.08,1.15-.18,1.45-.3.54-.21.85-.54.95-.99.11-.55,0-.92-.33-1.13-.33-.21-.87-.31-1.6-.31-.82,0-1.45.2-1.88.61-.3.3-.55.71-.75,1.22h-3.36c.33-1.16.85-2.12,1.59-2.87,1.17-1.17,2.88-1.76,5.12-1.76,1.46,0,2.69.29,3.7.87s1.34,1.67,1,3.27l-1.31,6.1c-.09.42-.19.94-.29,1.54-.07.46-.07.77,0,.93.08.16.22.3.42.4l-.1.51h-3.78c-.05-.27-.07-.52-.06-.76,0-.24.03-.5.07-.81-.59.52-1.24.96-1.94,1.33-.85.43-1.74.65-2.69.65-1.2,0-2.13-.34-2.76-1.03-.64-.69-.82-1.66-.56-2.92.35-1.64,1.23-2.82,2.65-3.55.77-.4,1.85-.68,3.24-.86l1.21-.15ZM413.61,140.55c-.24.14-.49.25-.73.34-.24.08-.57.17-.98.24l-.81.15c-.76.13-1.33.29-1.68.48-.6.32-.97.81-1.11,1.48-.13.59-.06,1.02.21,1.29.27.26.65.4,1.12.4.75,0,1.49-.22,2.21-.66.72-.44,1.23-1.24,1.5-2.4l.27-1.29Z"/><path class="cls-3" d="M429.38,133.42l-.76,3.56c-.21-.02-.4-.04-.57-.05-.17,0-.31-.01-.42-.01-1.4,0-2.44.46-3.11,1.37-.37.51-.67,1.3-.9,2.37l-1.34,6.36h-3.5l2.82-13.31h3.32l-.49,2.32c.72-.89,1.32-1.49,1.78-1.82.77-.54,1.68-.82,2.72-.82.07,0,.12,0,.17,0,.04,0,.14.01.29.02Z"/><path class="cls-3" d="M432.14,142.77c-.06.62.01,1.06.21,1.32.33.46,1.07.7,2.23.7.68,0,1.25-.1,1.7-.3.45-.2.72-.51.8-.92.08-.39-.02-.69-.3-.89s-1.42-.55-3.41-1.05c-1.42-.37-2.38-.84-2.88-1.4-.5-.55-.64-1.35-.41-2.39.26-1.23.97-2.29,2.12-3.17s2.6-1.32,4.35-1.32,2.94.33,3.85.99c.9.66,1.26,1.81,1.07,3.44h-3.48c.04-.45-.01-.8-.16-1.06-.29-.47-.89-.71-1.81-.71-.76,0-1.32.12-1.69.35-.37.24-.59.51-.65.83-.09.4.02.69.33.87.3.19,1.44.51,3.42.96,1.31.33,2.24.82,2.8,1.48.54.67.71,1.5.5,2.5-.29,1.32-1.01,2.39-2.16,3.23s-2.76,1.25-4.81,1.25-3.54-.44-4.35-1.32c-.81-.88-1.07-2.01-.79-3.38h3.53Z"/><path class="cls-3" d="M463.85,145.42c-1.65,1.4-3.76,2.1-6.33,2.1s-4.39-.7-5.46-2.1c-1.46-1.72-1.84-4.19-1.15-7.42.7-3.29,2.14-5.77,4.31-7.42,1.65-1.4,3.76-2.1,6.33-2.1s4.39.7,5.46,2.1c1.46,1.65,1.85,4.13,1.15,7.42-.69,3.23-2.13,5.71-4.31,7.42ZM464.4,138c.42-2.02.31-3.58-.32-4.68s-1.7-1.65-3.19-1.65-2.79.55-3.91,1.65c-1.12,1.1-1.89,2.66-2.33,4.69-.43,2.03-.32,3.59.33,4.69.65,1.1,1.72,1.65,3.21,1.65s2.79-.55,3.9-1.65c1.11-1.1,1.88-2.66,2.31-4.69Z"/><path class="cls-3" d="M478.91,128.91l-.61,2.83c-.19-.02-.51-.04-.96-.05-.46-.01-.8.09-1.02.31s-.36.45-.41.71c-.06.26-.14.63-.24,1.12h2.28l-.53,2.45h-2.28l-2.27,10.73h-3.47l2.27-10.73h-1.94l.52-2.45h1.9l.18-.85c.3-1.42.75-2.41,1.34-2.94.67-.8,1.98-1.2,3.91-1.2.22,0,.42,0,.59.02.17.01.42.03.73.05Z"/><path class="cls-3" d="M500.83,132.21h-9.52l-.81,3.82h8.74l-.67,3.12h-8.74l-.98,4.63h9.96l-.68,3.23h-13.64l3.82-17.99h13.2l-.68,3.19Z"/><path class="cls-3" d="M499.47,147.02l5.97-6.74-2.96-6.54h4.26l1.4,3.86,2.99-3.86h4.14l-5.75,6.48,3.1,6.8h-4.33l-1.45-3.99-3.15,3.99h-4.22Z"/><path class="cls-3" d="M524.43,138.48c.04-.5-.03-.94-.22-1.34-.28-.54-.83-.81-1.65-.81-1.17,0-2.1.58-2.77,1.75-.36.62-.65,1.44-.87,2.47-.2.98-.26,1.76-.16,2.36.18,1.11.84,1.66,1.99,1.66.81,0,1.44-.22,1.87-.66s.76-1.01.98-1.71h3.55c-.3,1.06-.9,2.06-1.78,3-1.42,1.52-3.19,2.28-5.33,2.28s-3.58-.63-4.31-1.9c-.74-1.27-.89-2.92-.46-4.94.48-2.29,1.41-4.06,2.8-5.33,1.39-1.27,3.06-1.9,5.02-1.9,1.67,0,2.95.38,3.86,1.12.9.75,1.25,2.07,1.04,3.97h-3.56Z"/><path class="cls-3" d="M541.37,135.95c.36.79.5,1.71.43,2.75-.03.61-.18,1.49-.44,2.64h-9.11c-.24,1.33-.02,2.27.66,2.81.41.33.95.5,1.62.5.72,0,1.34-.2,1.88-.61.29-.22.57-.53.84-.92h3.55c-.26.79-.84,1.59-1.75,2.4-1.42,1.29-3.15,1.94-5.2,1.94-1.69,0-3.07-.54-4.13-1.64-1.06-1.09-1.33-2.86-.81-5.32.49-2.3,1.45-4.07,2.88-5.3,1.43-1.23,3.07-1.84,4.94-1.84,1.11,0,2.06.21,2.86.62s1.39,1.07,1.78,1.96ZM532.82,139.03h5.41c.14-.92,0-1.62-.4-2.09-.4-.48-.97-.71-1.71-.71-.81,0-1.48.25-2.03.76-.55.5-.97,1.19-1.26,2.05Z"/><path class="cls-3" d="M546.04,147.02h-3.48l3.82-17.99h3.48l-3.82,17.99Z"/><path class="cls-3" d="M552.99,147.02h-3.48l3.82-17.99h3.48l-3.82,17.99Z"/><path class="cls-3" d="M569.16,135.95c.36.79.5,1.71.43,2.75-.03.61-.18,1.49-.44,2.64h-9.11c-.24,1.33-.02,2.27.66,2.81.41.33.95.5,1.62.5.72,0,1.34-.2,1.88-.61.29-.22.57-.53.84-.92h3.55c-.26.79-.84,1.59-1.75,2.4-1.42,1.29-3.15,1.94-5.2,1.94-1.69,0-3.07-.54-4.13-1.64-1.06-1.09-1.33-2.86-.81-5.32.49-2.3,1.45-4.07,2.88-5.3,1.43-1.23,3.07-1.84,4.94-1.84,1.11,0,2.06.21,2.86.62s1.39,1.07,1.78,1.96ZM560.62,139.03h5.41c.14-.92,0-1.62-.4-2.09-.4-.48-.97-.71-1.71-.71-.81,0-1.48.25-2.03.76-.55.5-.97,1.19-1.26,2.05Z"/><path class="cls-3" d="M584.25,138.06l-1.9,8.96h-3.56l1.71-8.09c.16-.7.18-1.24.06-1.61-.2-.68-.77-1.03-1.73-1.03-1.18,0-2.1.5-2.75,1.5-.34.53-.6,1.2-.77,2.03l-1.53,7.2h-3.47l2.82-13.28h3.36l-.41,1.94c.59-.68,1.12-1.18,1.59-1.48.83-.54,1.79-.81,2.89-.81,1.38,0,2.42.36,3.14,1.08.72.72.91,1.92.55,3.58Z"/><path class="cls-3" d="M595.31,138.48c.04-.5-.03-.94-.22-1.34-.28-.54-.83-.81-1.65-.81-1.17,0-2.1.58-2.77,1.75-.36.62-.65,1.44-.87,2.47-.2.98-.26,1.76-.16,2.36.18,1.11.84,1.66,1.99,1.66.81,0,1.44-.22,1.87-.66s.76-1.01.98-1.71h3.55c-.3,1.06-.9,2.06-1.78,3-1.42,1.52-3.19,2.28-5.33,2.28s-3.58-.63-4.31-1.9c-.74-1.27-.89-2.92-.46-4.94.48-2.29,1.41-4.06,2.8-5.33,1.39-1.27,3.06-1.9,5.02-1.9,1.67,0,2.95.38,3.86,1.12.9.75,1.25,2.07,1.04,3.97h-3.56Z"/><path class="cls-3" d="M612.24,135.95c.36.79.5,1.71.43,2.75-.03.61-.18,1.49-.44,2.64h-9.11c-.24,1.33-.02,2.27.66,2.81.41.33.95.5,1.62.5.72,0,1.34-.2,1.88-.61.29-.22.57-.53.84-.92h3.55c-.26.79-.84,1.59-1.75,2.4-1.42,1.29-3.15,1.94-5.2,1.94-1.69,0-3.07-.54-4.13-1.64-1.06-1.09-1.33-2.86-.81-5.32.49-2.3,1.45-4.07,2.88-5.3,1.43-1.23,3.07-1.84,4.94-1.84,1.11,0,2.06.21,2.86.62s1.39,1.07,1.78,1.96ZM603.69,139.03h5.41c.14-.92,0-1.62-.4-2.09-.4-.48-.97-.71-1.71-.71-.81,0-1.48.25-2.03.76-.55.5-.97,1.19-1.26,2.05Z"/></svg>