<svg id="Layer_1" data-name="Layer 1" xmlns="http://www.w3.org/2000/svg" viewBox="0 0 103.52 127.23"><defs><style>.cls-1{fill:#2aa992;}.cls-2{fill:#df2128;}.cls-3{fill:#f79925;}.cls-4{fill:#4fb956;}.cls-5{fill:#f58520;}.cls-6{fill:#2e9c49;}</style></defs><path class="cls-1" d="M287.36,100c-5.6,4.92-11.23,9.82-16.79,14.79-13.36,11.93-26.67,23.93-40.06,35.83-4.52,4-10.85,2.08-12-3.56a7,7,0,0,1,2.54-6.89l33.74-30.23q17.15-15.36,34.29-30.71A35.89,35.89,0,0,1,292.15,77H297c3.46,2.09,5.1,5,4.32,9.14-1.49,1.74-2.86,3.59-4.49,5.18C293.74,94.29,290.52,97.11,287.36,100Z" transform="translate(-198.2 -77)"/><path class="cls-2" d="M212.45,181.22l37.28-33.08c6.36-5.66,12.65-11.38,19.09-16.94a11,11,0,0,1,4.78-2.49,6.59,6.59,0,0,1,7.25,4,7.07,7.07,0,0,1-2,8.48q-11.4,10.2-22.85,20.34-22.65,20.17-45.3,40.37c-4.78,4.26-10.9,2.57-12.25-3.4-.45-3.78,1.52-6.26,4.26-8.53C206,187.15,209.2,184.13,212.45,181.22Z" transform="translate(-198.2 -77)"/><path class="cls-3" d="M212.45,181.22c-3.25,2.91-6.42,5.93-9.78,8.71-2.74,2.27-4.71,4.75-4.26,8.53-.07-1.81-.2-3.62-.2-5.43q0-43.92,0-87.83c0-1,.13-2.07.2-3.1,1.59,2,3.16,3.92,4.77,5.85,3.07,3.71,6.17,7.39,9.26,11.08,0,5.71-.1,11.41-.11,17.12q0,21.09,0,42.18C212.33,179.29,212.41,180.26,212.45,181.22Z" transform="translate(-198.2 -77)"/><path class="cls-4" d="M287.36,100c3.16-2.89,6.38-5.71,9.45-8.68,1.63-1.59,3-3.44,4.49-5.18,0,.56.1,1.12.1,1.68q.12,31.28.22,62.56,0,14.69,0,29.35a23.07,23.07,0,0,0-2-3.24c-4.07-4.86-8.22-9.66-12.34-14.48.05-7.53.15-15.06.14-22.59C287.49,126.28,287.41,113.14,287.36,100Z" transform="translate(-198.2 -77)"/><path class="cls-5" d="M212.44,119c-3.09-3.69-6.19-7.37-9.26-11.08-1.61-1.93-3.18-3.9-4.77-5.85-.78-4.18.59-7.41,3.81-8.94s6.48-.6,9.26,2.75c3.78,4.56,7.71,9,11.46,13.61a12.53,12.53,0,0,1,2.43,4.32,6.67,6.67,0,0,1-3.1,7.25,7,7,0,0,1-8.1-.4A19.32,19.32,0,0,1,212.44,119Z" transform="translate(-198.2 -77)"/><path class="cls-6" d="M287.36,162c4.12,4.82,8.27,9.62,12.34,14.48a23.07,23.07,0,0,1,2,3.24c.35,4.27-1.17,7.21-4.37,8.45s-6.25.08-9-3.21c-3.74-4.5-7.57-8.93-11.37-13.38-3.26-3.83-3.41-7.83-.39-10.69S283.77,158.43,287.36,162Z" transform="translate(-198.2 -77)"/></svg>