<svg id="Layer_1" data-name="Layer 1" xmlns="http://www.w3.org/2000/svg" viewBox="0 0 236.82 91.88"><defs><style>.cls-1{fill:#58933d;}.cls-2{fill:#ebf0f2;}</style></defs><path class="cls-1" d="M83.35,149.41v-.75l2.45-.27h.42l2.73.27v.75Zm1.8,0,6.1-18.35h1.4l6.2,18.35H96.6l-5.5-16.87h.5l-.1.35-5.3,16.52Zm2.7-6.22.1-.8h7.6l.1.8Zm5.65,6.22v-.75l3.35-.27h.72l3.25.27v.75Z" transform="translate(-83.35 -61.08)"/><path class="cls-1" d="M116.35,149.59l-11.23-16.53-.05,0-.6-.93L102,132v-.75h4.4L117,146.84l-.42.15,0-7.45v-8.33h.92v18.38Zm-14.3-.18v-.75l2.65-.3h.55l3.22.3v.75Zm2.4,0V131.79h.9l.07,9.65v8Zm9-17.45v-.75h6.38V132l-2.63.28h-.5Z" transform="translate(-83.35 -61.08)"/><path class="cls-1" d="M122.52,153a3.35,3.35,0,0,1-1.41-.26,1,1,0,0,1-.66-.89,1,1,0,0,1,.47-.75,1.72,1.72,0,0,1,.9-.22,2.23,2.23,0,0,1,.9.16,3.85,3.85,0,0,1,.9.61l.63.68v.15h-.45v-.18a5.56,5.56,0,0,0,1.08-2.45,20.35,20.35,0,0,0,.34-4.22V143c0-.87,0-1.83,0-2.9s0-2.32,0-3.75,0-3.14-.06-5.13h2.28c0,1.37-.06,2.75-.07,4.15s0,2.83,0,4.28v5.27a23.39,23.39,0,0,1-.16,3.07,7.87,7.87,0,0,1-.49,2,5.47,5.47,0,0,1-.82,1.37,4.33,4.33,0,0,1-1.55,1.27A4.38,4.38,0,0,1,122.52,153Zm-.32-21v-.75H130V132l-3.52.28h-.58Z" transform="translate(-83.35 -61.08)"/><path class="cls-1" d="M130.17,149.41v-.75l2.45-.27h.43l2.72.27v.75Zm1.8,0,6.1-18.35h1.4l6.2,18.35h-2.25l-5.5-16.87h.5l-.1.35L133,149.41Zm2.7-6.22.1-.8h7.6l.1.8Zm5.65,6.22v-.75l3.35-.27h.73l3.25.27v.75Z" transform="translate(-83.35 -61.08)"/><path class="cls-1" d="M163.17,149.59,152,133.06l0,0-.6-.93-2.45-.15v-.75h4.4l10.55,15.63-.43.15-.05-7.45v-8.33h.93v18.38Zm-14.3-.18v-.75l2.65-.3h.55l3.23.3v.75Zm2.4,0V131.79h.9l.08,9.65v8Zm9-17.45v-.75h6.37V132l-2.62.28h-.5Z" transform="translate(-83.35 -61.08)"/><path class="cls-1" d="M167.07,149.41v-.75l2.45-.27H170l2.72.27v.75Zm1.8,0,6.1-18.35h1.4l6.2,18.35h-2.25l-5.5-16.87h.5l-.1.35-5.3,16.52Zm2.7-6.22.1-.8h7.6l.1.8Zm5.65,6.22v-.75l3.35-.27h.73l3.25.27v.75Z" transform="translate(-83.35 -61.08)"/><path class="cls-1" d="M185.22,149.41v-.75l2.45-.27h.43l2.72.27v.75Zm1.8,0,6.1-18.35h1.4l6.2,18.35h-2.25L193,132.54h.5l-.1.35-5.3,16.52Zm2.7-6.22.1-.8h7.6l.1.8Zm5.65,6.22v-.75l3.35-.27h.73l3.25.27v.75Z" transform="translate(-83.35 -61.08)"/><path class="cls-1" d="M210.59,132v-.75h3.73v1H214Zm0,17.45v-.75l3.45-.3h.28v1Zm2.55,0c0-1.4.05-2.8.05-4.22v-9.8c0-1.4,0-2.79-.05-4.18h2.33c0,1.39-.05,2.78-.06,4.18s0,2.84,0,4.32v.48c0,1.77,0,3.39,0,4.89s0,2.93.06,4.33Zm1.18,0v-.82h3.35a5.79,5.79,0,0,0,3.69-1.05,3.69,3.69,0,0,0,1.31-3,3.76,3.76,0,0,0-1.31-3.11,6.62,6.62,0,0,0-4.17-1.07h-2.87v-.77h2.62a5.49,5.49,0,0,0,3.64-1,3.65,3.65,0,0,0,1.21-2.94,3.35,3.35,0,0,0-1-2.6,5.12,5.12,0,0,0-3.43-.92h-3v-.83H218a9,9,0,0,1,3.39.54,3.83,3.83,0,0,1,2.58,3.79,3.81,3.81,0,0,1-.56,2,4.32,4.32,0,0,1-1.8,1.6,8.92,8.92,0,0,1-3.26.85l.12-.23a9.91,9.91,0,0,1,3.73.72,4.64,4.64,0,0,1,2.09,1.66,4.19,4.19,0,0,1,.66,2.32,4.64,4.64,0,0,1-.39,1.87,4.25,4.25,0,0,1-1.22,1.58,5.92,5.92,0,0,1-2.19,1.1,11.53,11.53,0,0,1-3.28.4Z" transform="translate(-83.35 -61.08)"/><path class="cls-1" d="M226.77,132v-.75h3.73v1h-.28Zm0,17.45v-.75l3.45-.3h.28v1Zm2.55,0c0-1.4.05-2.8.05-4.2V135.4c0-1.41,0-2.8-.05-4.19h2.33c0,1.39,0,2.79,0,4.22s0,2.92,0,4.48v.55c0,1.69,0,3.25,0,4.69s0,2.86,0,4.26Zm9.83-13.7-.83-4.32,1.1.7H230.5v-.88H240l.18,4.5Zm-8.65,4.88v-.83h6v.83Zm0,8.82v-.85h9.37l-1.12.63.84-4.35h1.06l-.15,4.57Zm5.84-6.25-.34-2.77v-.53l.34-2.72h.88v6Z" transform="translate(-83.35 -61.08)"/><path class="cls-1" d="M243.07,132v-.75h7.52V132l-3.5.28h-.57Zm0,17.45v-.75l3.45-.3h.27v1Zm2.55,0c0-1.4,0-2.78,0-4.16V135.4c0-1.41,0-2.8,0-4.19H248c0,1.39,0,2.8,0,4.23s0,2.94,0,4.52v1.45c0,1.2,0,2.49,0,3.85s0,2.75,0,4.15Zm1.17,0v-.85h8.75l-1,.6.87-4.62h1.1l-.18,4.87Z" transform="translate(-83.35 -61.08)"/><path class="cls-1" d="M256.32,136l.2-4.75h15l.22,4.75h-1.08l-.89-4.75,1,.88H257.25l1-.88-.9,4.75Zm3.7,13.45v-.75l3.67-.3h.63l3.7.3v.75Zm2.82,0c0-1.4.06-2.8.07-4.2s0-2.8,0-4.22v-1.35c0-1.42,0-2.83,0-4.24s0-2.8-.07-4.19h2.33c0,1.39,0,2.78,0,4.19s0,2.82,0,4.24V141c0,1.42,0,2.82,0,4.22s0,2.8,0,4.2Z" transform="translate(-83.35 -61.08)"/><path class="cls-1" d="M273.57,132v-.75H281V132l-3.5.28H277Zm0,17.45v-.75l3.45-.3h.52l3.5.3v.75Zm2.55,0q0-2.1.06-4.2c0-1.4,0-2.8,0-4.22v-1.35c0-1.42,0-2.83,0-4.24s0-2.8-.06-4.19h2.35c0,1.39-.05,2.78-.06,4.19s0,2.82,0,4.24V141c0,1.42,0,2.82,0,4.22s0,2.8.06,4.2Z" transform="translate(-83.35 -61.08)"/><path class="cls-1" d="M297.77,149.59l-11.23-16.53,0,0-.61-.93-2.44-.15v-.75h4.39l10.55,15.63L298,147l-.05-7.45v-8.33h.92v18.38Zm-14.3-.18v-.75l2.65-.3h.55l3.22.3v.75Zm2.4,0V131.79h.9l.07,9.65v8Zm9-17.45v-.75h6.38V132l-2.63.28h-.5Z" transform="translate(-83.35 -61.08)"/><path class="cls-1" d="M312.5,149.81a9.33,9.33,0,0,1-4.79-1.2,8.3,8.3,0,0,1-3.21-3.33,10.36,10.36,0,0,1-1.16-5,10.19,10.19,0,0,1,1.18-5,8.53,8.53,0,0,1,3.26-3.32,9.49,9.49,0,0,1,4.81-1.2,10.43,10.43,0,0,1,3,.37,10,10,0,0,1,2.43,1.08l.07,4H316.9l-.86-4.33,1.3.5v.93a7.87,7.87,0,0,0-2.12-1.26,6.63,6.63,0,0,0-2.38-.39,6.76,6.76,0,0,0-3.67,1,6.86,6.86,0,0,0-2.52,3,10.7,10.7,0,0,0-.93,4.66,10.91,10.91,0,0,0,.89,4.6,7,7,0,0,0,2.46,3,6.46,6.46,0,0,0,3.68,1.05,8.24,8.24,0,0,0,2.2-.28,9.28,9.28,0,0,0,2.09-.85l-.84.7v-1.62c0-1,0-2.08,0-3.1s0-2-.08-3.1h2.28c0,.95,0,1.93-.05,2.94s0,2.1,0,3.28v1.3a11.56,11.56,0,0,1-2.79,1.23A11.31,11.31,0,0,1,312.5,149.81Zm.67-8.37v-.75h7v.75l-2.72.3h-.78Z" transform="translate(-83.35 -61.08)"/><path class="cls-2" d="M185.07,97.21l-14.55,25.44c-3.07-.5-4.07-1.49-2.45-4.32,10.38-18.19,20.63-36.45,31-54.67,2-3.48,3.56-3.44,5.56.09C214.84,81.83,225,100,235.32,118c1.64,2.87,1.1,4.08-2.23,4.7-4.78-8.35-9.52-16.61-14.61-25.47L215,101.73c.25.21.79.72,1.39,1.15,6.14,4.4,5.48,11.71-1.55,14.68a24.21,24.21,0,0,1-8.18,1.72c-5.46.26-10.95-.08-16.41.14-3.37.14-4.27-1.19-4.19-4.34.13-5.75-.09-11.51-.19-17.27C185.91,97.73,185.7,97.65,185.07,97.21Zm6-10.81h21.53c-3.57-6.11-6.93-11.86-10.88-18.64Zm3,18.41v9.52c4.8,0,9.3.49,13.6-.21a7.77,7.77,0,0,0,5.17-4.64c.85-3.29-2.34-4.43-5-4.6C203.35,104.6,198.91,104.81,194,104.81Zm0-4.76c4.85-.36,9.27-.45,13.57-1.17,1.29-.21,3.17-2.21,3.15-3.36A4.78,4.78,0,0,0,207.65,92c-4.44-.72-9-.79-13.66-1.12Z" transform="translate(-83.35 -61.08)"/></svg>