<svg id="Layer_1" data-name="Layer 1" xmlns="http://www.w3.org/2000/svg" viewBox="0 0 231.68 65.69"><defs><style>.cls-1{fill:#007ab9;}.cls-2{fill:#ff1a1a;}.cls-3{fill:#767676;}</style></defs><circle class="cls-1" cx="7.82" cy="8.17" r="7.82"/><circle class="cls-1" cx="25.82" cy="8.17" r="7.82"/><circle class="cls-1" cx="43.82" cy="8.17" r="7.82"/><circle class="cls-1" cx="7.82" cy="44.17" r="7.82"/><circle class="cls-1" cx="25.82" cy="44.17" r="7.82"/><circle class="cls-1" cx="43.82" cy="44.17" r="7.82"/><circle class="cls-1" cx="7.82" cy="26.17" r="7.82"/><circle class="cls-1" cx="25.82" cy="26.17" r="7.82"/><circle class="cls-1" cx="43.82" cy="26.17" r="7.82"/><path class="cls-2" d="M77.52,50V48.65l1.58-.17c.18,0,.3-.08.34-.14A.72.72,0,0,0,79.5,48V34a.77.77,0,0,0-.06-.37c0-.07-.16-.11-.34-.13l-1.58-.18V31.9H90V36l-1.71-.1L87.92,34a.38.38,0,0,0-.42-.33H81.8V39.9h6.58v1.8H81.8V48a.76.76,0,0,0,.06.38.63.63,0,0,0,.34.12l3.68.2V50Z" transform="translate(-12.75 -31.9)"/><path class="cls-2" d="M102.33,50l-.2-1.7,0,0c-.29.25-.6.5-.93.74a7.3,7.3,0,0,1-1.09.65,6.25,6.25,0,0,1-1.28.46,6.17,6.17,0,0,1-1.53.18A4.17,4.17,0,0,1,95.53,50a2.76,2.76,0,0,1-1.12-.89,3.64,3.64,0,0,1-.58-1.43,9.22,9.22,0,0,1-.18-1.92V39.4a.94.94,0,0,0-.06-.41c0-.08-.16-.13-.34-.16L92,38.5l.2-1.35h3.78v8.08a5.93,5.93,0,0,0,.37,2.43,1.57,1.57,0,0,0,1.58.79,3.76,3.76,0,0,0,1.22-.2,5.42,5.42,0,0,0,1.09-.51,6.65,6.65,0,0,0,1-.7,9.11,9.11,0,0,0,.76-.77V39.38a.83.83,0,0,0-.06-.4c0-.07-.16-.12-.34-.15l-1.25-.33.2-1.35h3.73V48c0,.33.11.51.35.53l1.32.17V50Z" transform="translate(-12.75 -31.9)"/><path class="cls-2" d="M117.55,49.52a13.14,13.14,0,0,1-1.64.54,7,7,0,0,1-1.83.24,3.61,3.61,0,0,1-2.64-.84,3.44,3.44,0,0,1-.84-2.54v-7.8a.74.74,0,0,0,0-.18s-.08-.06-.18-.06h-1.82V37.42a4.53,4.53,0,0,0,1.21-.31,2.12,2.12,0,0,0,.81-.61,2.85,2.85,0,0,0,.5-1,11.52,11.52,0,0,0,.3-1.6h1.48v3a.5.5,0,0,0,0,.19s.08.06.18.06h3.67v1.73h-3.87v7.37a3,3,0,0,0,.36,1.69,1.73,1.73,0,0,0,1.44.48,4.69,4.69,0,0,0,1.2-.15,7.4,7.4,0,0,0,1.12-.35Z" transform="translate(-12.75 -31.9)"/><path class="cls-2" d="M129.92,50l-.2-1.7-.05,0c-.28.25-.59.5-.92.74a7.3,7.3,0,0,1-1.09.65,6.25,6.25,0,0,1-1.28.46,6.17,6.17,0,0,1-1.53.18,4.25,4.25,0,0,1-1.73-.31A2.8,2.8,0,0,1,122,49.1a3.81,3.81,0,0,1-.59-1.43,10,10,0,0,1-.17-1.92V39.4a.94.94,0,0,0-.06-.41c0-.08-.16-.13-.34-.16l-1.3-.33.2-1.35h3.78v8.08a5.93,5.93,0,0,0,.37,2.43,1.55,1.55,0,0,0,1.57.79,3.78,3.78,0,0,0,1.23-.2,5.42,5.42,0,0,0,1.09-.51,6.65,6.65,0,0,0,1-.7,9.11,9.11,0,0,0,.76-.77V39.38a.83.83,0,0,0-.06-.4c0-.07-.16-.12-.34-.15l-1.25-.33.2-1.35h3.73V48c0,.33.11.51.34.53l1.33.17V50Z" transform="translate(-12.75 -31.9)"/><path class="cls-2" d="M136.6,50V48.62l1.25-.14c.18,0,.3-.08.34-.14a.72.72,0,0,0,.06-.36v-8.5a.49.49,0,0,0-.32-.53l-1.43-.47.22-1.33H140l.25,1.73.08,0a7.38,7.38,0,0,1,.68-.7,5.75,5.75,0,0,1,.87-.64,4.76,4.76,0,0,1,1-.47,3.52,3.52,0,0,1,1.18-.19A8,8,0,0,1,145,37a6.87,6.87,0,0,1,.87.16V40.9l-1.78-.07-.3-1.73a.26.26,0,0,0-.3-.25,2.42,2.42,0,0,0-.86.16,5.43,5.43,0,0,0-.84.41,6.11,6.11,0,0,0-.72.53l-.55.47V48a.81.81,0,0,0,.06.39c0,.06.15.09.34.11l2.29.2V50Z" transform="translate(-12.75 -31.9)"/><path class="cls-2" d="M159,49.17A9.31,9.31,0,0,1,157,50a9.58,9.58,0,0,1-2.48.3,6.87,6.87,0,0,1-2.85-.53,4.79,4.79,0,0,1-1.84-1.42,5.4,5.4,0,0,1-1-2.12,11.09,11.09,0,0,1-.31-2.63,8.66,8.66,0,0,1,.46-3,5.8,5.8,0,0,1,1.22-2.09A5,5,0,0,1,152,37.3a6,6,0,0,1,2.22-.4,6.42,6.42,0,0,1,2.1.33,4,4,0,0,1,1.62,1,4.88,4.88,0,0,1,1,1.85,8.91,8.91,0,0,1,.38,2.77c0,.16,0,.36,0,.58s0,.45,0,.66h-8.4a6.57,6.57,0,0,0,.24,1.73,4,4,0,0,0,.68,1.34,3.09,3.09,0,0,0,1.16.87,4.33,4.33,0,0,0,1.74.32,7.09,7.09,0,0,0,1.83-.21,9.33,9.33,0,0,0,1.77-.69Zm-2-6.77a6.15,6.15,0,0,0-.26-1.78,3.16,3.16,0,0,0-.63-1.12,2.23,2.23,0,0,0-.9-.6,3.22,3.22,0,0,0-1.08-.17,3.85,3.85,0,0,0-1.19.18,2.65,2.65,0,0,0-1,.61,3.35,3.35,0,0,0-.73,1.13,5.79,5.79,0,0,0-.36,1.75Z" transform="translate(-12.75 -31.9)"/><path class="cls-2" d="M169.7,50V48.65l1.82-.17c.19,0,.3-.06.34-.13a.8.8,0,0,0,.06-.37V33.92a.8.8,0,0,0-.06-.37c0-.07-.15-.11-.34-.13l-1.82-.17V31.9h6.85v1.35l-1.93.2c-.18,0-.29.07-.33.13a.56.56,0,0,0-.07.34V48a.73.73,0,0,0,.07.38.59.59,0,0,0,.33.12l1.93.2V50Z" transform="translate(-12.75 -31.9)"/><path class="cls-2" d="M195.52,50V48.62l1.2-.14a.44.44,0,0,0,.45-.5V42a8.53,8.53,0,0,0-.08-1.15,3.08,3.08,0,0,0-.32-1,1.75,1.75,0,0,0-.63-.69,2,2,0,0,0-1.09-.26,4.49,4.49,0,0,0-1.88.39,9,9,0,0,0-1.42.83,14,14,0,0,1,.07,1.52V48a.6.6,0,0,0,.07.37.66.66,0,0,0,.33.13l1.23.17V50H187.9V48.62l1.2-.14a.44.44,0,0,0,.45-.5V41.92c0-.34,0-.7,0-1.07a3,3,0,0,0-.22-1,1.68,1.68,0,0,0-.58-.71,1.83,1.83,0,0,0-1.06-.27,4.13,4.13,0,0,0-1.91.48,11.13,11.13,0,0,0-1.67,1.06V48a.6.6,0,0,0,.07.37.66.66,0,0,0,.33.13l1.35.17V50h-5.67V48.62l1.25-.14c.18,0,.3-.08.34-.14a.72.72,0,0,0,.06-.36v-8.5a.48.48,0,0,0-.33-.53l-1.42-.47.22-1.33h3.28l.2,1.47.07,0a11.38,11.38,0,0,1,2-1.26,5.46,5.46,0,0,1,2.43-.49,4.46,4.46,0,0,1,1.75.36,2.65,2.65,0,0,1,1.32,1.24,11,11,0,0,1,1.93-1.1,6,6,0,0,1,2.5-.5,4.49,4.49,0,0,1,1.79.31,2.75,2.75,0,0,1,1.13.91,3.62,3.62,0,0,1,.6,1.47,9.62,9.62,0,0,1,.18,2V48a.72.72,0,0,0,.06.37.71.71,0,0,0,.34.13l1.42.17V50Z" transform="translate(-12.75 -31.9)"/><path class="cls-2" d="M212.65,50l-.23-1.62-.07,0a8.32,8.32,0,0,1-2,1.4,5.5,5.5,0,0,1-2.54.55A4.27,4.27,0,0,1,206,50a2.75,2.75,0,0,1-1.06-.87,2.89,2.89,0,0,1-.48-1.13,6.36,6.36,0,0,1-.11-1.07,3.37,3.37,0,0,1,1.14-2.8A6.16,6.16,0,0,1,208.85,43l3.37-.28V41.35a7,7,0,0,0-.08-1.19,1.78,1.78,0,0,0-.37-.85,1.7,1.7,0,0,0-.76-.51,3.85,3.85,0,0,0-1.31-.18c-.38,0-.74,0-1,0a2.17,2.17,0,0,0-.84.23,1.24,1.24,0,0,0-.56.57,2.46,2.46,0,0,0-.2,1.09l-2.15-.22a3.18,3.18,0,0,1,.47-1.83,3.24,3.24,0,0,1,1.2-1,4.91,4.91,0,0,1,1.57-.46,12.65,12.65,0,0,1,1.58-.1,10.14,10.14,0,0,1,2.24.21,3.27,3.27,0,0,1,1.48.73,2.84,2.84,0,0,1,.8,1.36,8.56,8.56,0,0,1,.23,2.15V48a.6.6,0,0,0,.07.37.66.66,0,0,0,.33.13l1.28.17V50Zm-.43-5.75-2.82.25a4.09,4.09,0,0,0-2.18.65,1.86,1.86,0,0,0-.57,1.47,2,2,0,0,0,.44,1.47,1.78,1.78,0,0,0,1.31.43,3.32,3.32,0,0,0,1.11-.19,7.06,7.06,0,0,0,2-1.12c.28-.22.52-.43.72-.61Z" transform="translate(-12.75 -31.9)"/><path class="cls-2" d="M228.82,38.92a5,5,0,0,1,.67,1.12,3.84,3.84,0,0,1,.26,1.48,4.59,4.59,0,0,1-.4,2,4.29,4.29,0,0,1-1.1,1.45,5,5,0,0,1-1.65.89,7.15,7.15,0,0,1-2,.29,6.55,6.55,0,0,1-2.13-.29L221.3,48l3.07.17c1.14.07,2.11.15,2.93.23a6.44,6.44,0,0,1,2,.48,2.5,2.5,0,0,1,1.19,1,3.68,3.68,0,0,1-1.21,4.69,8.83,8.83,0,0,1-4.88,1.07,15,15,0,0,1-2.73-.21,5.48,5.48,0,0,1-1.8-.61,2.55,2.55,0,0,1-1-1,2.73,2.73,0,0,1-.3-1.29A2.58,2.58,0,0,1,219,51a9.25,9.25,0,0,1,1.08-1.27,1.37,1.37,0,0,1-1.1-1.35,1.65,1.65,0,0,1,.14-.65,4.31,4.31,0,0,1,.41-.73c.2-.28.42-.58.67-.89l.71-.91a3.46,3.46,0,0,1-1.35-1.36,4.33,4.33,0,0,1-.53-2.19,4.8,4.8,0,0,1,.38-1.92,4.13,4.13,0,0,1,1.06-1.5,4.81,4.81,0,0,1,1.7-1,7.1,7.1,0,0,1,2.29-.35,12,12,0,0,1,1.25.06,5.2,5.2,0,0,1,1,.19h4.45v1.6ZM222,50.12a6.45,6.45,0,0,0-.73.89,2,2,0,0,0-.37,1.19,1.29,1.29,0,0,0,1,1.34,10.55,10.55,0,0,0,2.85.34c.33,0,.72,0,1.16-.07a5.23,5.23,0,0,0,1.26-.27,2.7,2.7,0,0,0,1-.63,1.51,1.51,0,0,0,.42-1.14,1.16,1.16,0,0,0-.17-.69,1.24,1.24,0,0,0-.51-.41,3.34,3.34,0,0,0-.83-.21c-.32,0-.69-.08-1.09-.11Zm5.57-8.7a2.54,2.54,0,0,0-.77-2,3.12,3.12,0,0,0-2.2-.71,3.51,3.51,0,0,0-2.25.68,2.57,2.57,0,0,0-.88,2.17,2.75,2.75,0,0,0,.7,1.88,3,3,0,0,0,2.35.79,3.14,3.14,0,0,0,2.24-.76A2.71,2.71,0,0,0,227.52,41.42Z" transform="translate(-12.75 -31.9)"/><path class="cls-2" d="M244.12,49.17a9,9,0,0,1-2.07.83,9.63,9.63,0,0,1-2.48.3,6.87,6.87,0,0,1-2.85-.53,4.9,4.9,0,0,1-1.85-1.42,5.7,5.7,0,0,1-1-2.12,11.09,11.09,0,0,1-.3-2.63,8.92,8.92,0,0,1,.45-3,6,6,0,0,1,1.23-2.09,5,5,0,0,1,1.81-1.22,6,6,0,0,1,2.21-.4,6.34,6.34,0,0,1,2.1.33,3.92,3.92,0,0,1,1.63,1,4.88,4.88,0,0,1,1.05,1.85,8.93,8.93,0,0,1,.37,2.77c0,.16,0,.36,0,.58s0,.45,0,.66H236a7,7,0,0,0,.25,1.73,3.85,3.85,0,0,0,.68,1.34,3.09,3.09,0,0,0,1.16.87,4.33,4.33,0,0,0,1.74.32,7,7,0,0,0,1.82-.21,9.15,9.15,0,0,0,1.78-.69Zm-2-6.77a6.52,6.52,0,0,0-.26-1.78,3.16,3.16,0,0,0-.63-1.12,2.23,2.23,0,0,0-.9-.6,3.23,3.23,0,0,0-1.09-.17,3.83,3.83,0,0,0-1.18.18,2.65,2.65,0,0,0-1,.61,3.2,3.2,0,0,0-.73,1.13A5.79,5.79,0,0,0,236,42.4Z" transform="translate(-12.75 -31.9)"/><path class="cls-2" d="M91.75,79a7.34,7.34,0,0,1-2.65,1,16.77,16.77,0,0,1-3.35.33,9.93,9.93,0,0,1-3.9-.69,7,7,0,0,1-2.66-1.92,7.82,7.82,0,0,1-1.52-3A14.36,14.36,0,0,1,77.2,71a12.18,12.18,0,0,1,.56-3.75,8.46,8.46,0,0,1,1.68-3,7.58,7.58,0,0,1,2.8-1.95,10.3,10.3,0,0,1,3.93-.69,13.08,13.08,0,0,1,3.12.36,7.91,7.91,0,0,1,2.41,1v4L90,66.83l-.42-2.38a1.48,1.48,0,0,0-.08-.29.34.34,0,0,0-.25-.16,10.85,10.85,0,0,0-1.48-.39,8.5,8.5,0,0,0-1.69-.16,7,7,0,0,0-2.68.49,5.44,5.44,0,0,0-2,1.42,6.62,6.62,0,0,0-1.3,2.34A10.32,10.32,0,0,0,79.6,71a8.25,8.25,0,0,0,1.67,5.58,5.87,5.87,0,0,0,4.63,1.89,14.5,14.5,0,0,0,1.81-.11,6.16,6.16,0,0,0,1.69-.41.4.4,0,0,0,.22-.14.7.7,0,0,0,.13-.31l.4-2.25h1.6Z" transform="translate(-12.75 -31.9)"/><path class="cls-2" d="M101.27,80.3a7,7,0,0,1-2.77-.5,4.84,4.84,0,0,1-1.88-1.4,5.56,5.56,0,0,1-1-2.14,10.53,10.53,0,0,1-.33-2.73,9.4,9.4,0,0,1,.37-2.69,5.81,5.81,0,0,1,1.15-2.09,5.27,5.27,0,0,1,2-1.36,7.19,7.19,0,0,1,2.78-.49,6.76,6.76,0,0,1,2.73.49,4.77,4.77,0,0,1,1.84,1.35,5.36,5.36,0,0,1,1,2.05,9.61,9.61,0,0,1,.33,2.59,10.41,10.41,0,0,1-.36,2.84A5.77,5.77,0,0,1,106,78.41a4.93,4.93,0,0,1-1.92,1.4A7.07,7.07,0,0,1,101.27,80.3Zm.08-1.83a3.38,3.38,0,0,0,2.79-1.18,6,6,0,0,0,1-3.76,5.8,5.8,0,0,0-.9-3.61,3.28,3.28,0,0,0-2.72-1.12,3.66,3.66,0,0,0-2.87,1.12,5.37,5.37,0,0,0-1,3.63Q97.6,78.47,101.35,78.47Z" transform="translate(-12.75 -31.9)"/><path class="cls-2" d="M110.75,80V78.62l1.25-.15c.18,0,.3-.07.34-.13a.74.74,0,0,0,.06-.37v-8.5a.48.48,0,0,0-.33-.52l-1.42-.48.22-1.32h3.28l.25,1.73.07,0a7.54,7.54,0,0,1,.69-.7,6.2,6.2,0,0,1,.86-.64,5.08,5.08,0,0,1,1-.47,3.5,3.5,0,0,1,1.17-.19,8,8,0,0,1,.94.06,6.87,6.87,0,0,1,.87.16V70.9l-1.78-.07L118,69.1a.26.26,0,0,0-.3-.25,2.42,2.42,0,0,0-.86.16,5.43,5.43,0,0,0-.84.41,7.24,7.24,0,0,0-.73.53l-.55.47V78a.78.78,0,0,0,.07.39c0,.06.15.09.33.11l2.31.2V80Z" transform="translate(-12.75 -31.9)"/><path class="cls-2" d="M123,85.3V83.92l1-.14a.73.73,0,0,0,.36-.14.7.7,0,0,0,.07-.36V69.47a.48.48,0,0,0-.33-.52l-1.42-.48.22-1.32h3.3l.23,1.45.07,0a11.1,11.1,0,0,1,2.13-1.24A5.71,5.71,0,0,1,131,66.9a5.08,5.08,0,0,1,1.91.35,3.72,3.72,0,0,1,1.49,1.1,5.07,5.07,0,0,1,1,1.93,10.08,10.08,0,0,1,.34,2.82,14,14,0,0,1-.26,2.7,7.33,7.33,0,0,1-.87,2.3,4.54,4.54,0,0,1-1.6,1.6,4.71,4.71,0,0,1-2.47.6,6.45,6.45,0,0,1-2-.3,5,5,0,0,1-1.8-1.08v4.33a.81.81,0,0,0,.06.39c0,.06.16.09.34.11l2.35.2V85.3Zm3.7-8.5a7,7,0,0,0,1.54,1.12,3.7,3.7,0,0,0,1.88.5A2.64,2.64,0,0,0,132.65,77a7.91,7.91,0,0,0,.75-3.74,8.64,8.64,0,0,0-.23-2.14,3.71,3.71,0,0,0-.62-1.37,2.41,2.41,0,0,0-.93-.74,2.74,2.74,0,0,0-1.1-.22,4.18,4.18,0,0,0-1.17.16,7.28,7.28,0,0,0-1.08.4,6.72,6.72,0,0,0-.89.5,5.24,5.24,0,0,0-.68.49Z" transform="translate(-12.75 -31.9)"/><path class="cls-2" d="M145.05,80.3a7,7,0,0,1-2.77-.5,4.77,4.77,0,0,1-1.88-1.4,5.72,5.72,0,0,1-1.05-2.14,10.54,10.54,0,0,1-.32-2.73,9.07,9.07,0,0,1,.37-2.69,5.52,5.52,0,0,1,1.15-2.09,5.23,5.23,0,0,1,2-1.36,7.21,7.21,0,0,1,2.79-.49,6.76,6.76,0,0,1,2.73.49,4.66,4.66,0,0,1,1.83,1.35,5.37,5.37,0,0,1,1,2.05,9.62,9.62,0,0,1,.32,2.59,10.41,10.41,0,0,1-.36,2.84,5.76,5.76,0,0,1-1.12,2.19,4.89,4.89,0,0,1-1.93,1.4A7,7,0,0,1,145.05,80.3Zm.07-1.83a3.38,3.38,0,0,0,2.79-1.18,6,6,0,0,0,1-3.76,5.8,5.8,0,0,0-.91-3.61,3.25,3.25,0,0,0-2.72-1.12,3.64,3.64,0,0,0-2.86,1.12,5.32,5.32,0,0,0-1,3.63C141.38,76.83,142.62,78.47,145.12,78.47Z" transform="translate(-12.75 -31.9)"/><path class="cls-2" d="M154.52,80V78.62l1.25-.15c.19,0,.3-.07.34-.13a.74.74,0,0,0,.06-.37v-8.5a.47.47,0,0,0-.32-.52l-1.43-.48.23-1.32h3.27l.25,1.73.08,0a7.54,7.54,0,0,1,.69-.7,5.65,5.65,0,0,1,.86-.64,5.25,5.25,0,0,1,1-.47A3.52,3.52,0,0,1,162,66.9a8.18,8.18,0,0,1,.94.06,6.37,6.37,0,0,1,.86.16V70.9L162,70.83l-.3-1.73c0-.17-.11-.25-.3-.25a2.42,2.42,0,0,0-.86.16,5.43,5.43,0,0,0-.84.41A8.39,8.39,0,0,0,159,70l-.55.47V78a.81.81,0,0,0,.06.39c0,.06.16.09.34.11l2.3.2V80Z" transform="translate(-12.75 -31.9)"/><path class="cls-2" d="M174.42,80l-.22-1.62-.08,0a8.27,8.27,0,0,1-2,1.4,5.53,5.53,0,0,1-2.54.55,4.32,4.32,0,0,1-1.88-.35,2.82,2.82,0,0,1-1.06-.87,2.93,2.93,0,0,1-.47-1.13,5.55,5.55,0,0,1-.12-1.07,3.37,3.37,0,0,1,1.14-2.8A6.19,6.19,0,0,1,170.62,73l3.38-.28V71.35a7,7,0,0,0-.09-1.19,1.88,1.88,0,0,0-.36-.85,1.76,1.76,0,0,0-.76-.51,3.92,3.92,0,0,0-1.32-.18c-.38,0-.73,0-1.05,0a2.17,2.17,0,0,0-.83.23,1.24,1.24,0,0,0-.56.57,2.32,2.32,0,0,0-.21,1.09l-2.15-.22a3.1,3.1,0,0,1,.48-1.83,3.24,3.24,0,0,1,1.2-1,4.78,4.78,0,0,1,1.56-.46,12.8,12.8,0,0,1,1.59-.1,10.21,10.21,0,0,1,2.24.21,3.18,3.18,0,0,1,1.47.73,2.76,2.76,0,0,1,.8,1.36,8.07,8.07,0,0,1,.24,2.15V78a.74.74,0,0,0,.06.38.63.63,0,0,0,.34.12l1.27.18V80ZM174,74.25l-2.83.25a4,4,0,0,0-2.17.65,1.85,1.85,0,0,0-.58,1.47,2,2,0,0,0,.44,1.47,1.79,1.79,0,0,0,1.31.44,3.44,3.44,0,0,0,1.12-.2,7.32,7.32,0,0,0,1.06-.49,7.58,7.58,0,0,0,.93-.63c.28-.22.52-.43.72-.61Z" transform="translate(-12.75 -31.9)"/><path class="cls-2" d="M189.05,79.53c-.5.19-1.05.37-1.64.53a7,7,0,0,1-1.84.24,3.6,3.6,0,0,1-2.63-.84,3.44,3.44,0,0,1-.84-2.54v-7.8a.42.42,0,0,0,0-.18s-.07-.06-.17-.06h-1.83V67.42a4.51,4.51,0,0,0,1.22-.31,2.12,2.12,0,0,0,.81-.61,2.85,2.85,0,0,0,.5-1,11.52,11.52,0,0,0,.3-1.6h1.48V66.9a.5.5,0,0,0,0,.19s.07.06.17.06h3.68v1.73h-3.87v7.37a3,3,0,0,0,.36,1.69,1.72,1.72,0,0,0,1.43.48,5.17,5.17,0,0,0,1.21-.14,8.69,8.69,0,0,0,1.12-.36Z" transform="translate(-12.75 -31.9)"/><path class="cls-2" d="M191.65,80V78.62l1.65-.15c.18,0,.29,0,.34-.12a.82.82,0,0,0,.06-.38v-8.5a.48.48,0,0,0-.33-.52L192,68.47l.22-1.32H196V78a.62.62,0,0,0,.07.38.59.59,0,0,0,.33.12l1.6.18V80Zm4.45-17.23a1.42,1.42,0,0,1-1.6,1.61,1.62,1.62,0,0,1-1.2-.42,1.59,1.59,0,0,1-.43-1.19,1.56,1.56,0,0,1,.43-1.16,1.66,1.66,0,0,1,1.2-.41,1.64,1.64,0,0,1,1.19.41A1.59,1.59,0,0,1,196.1,62.77Z" transform="translate(-12.75 -31.9)"/><path class="cls-2" d="M206.45,80.3a7,7,0,0,1-2.78-.5,4.81,4.81,0,0,1-1.87-1.4,5.72,5.72,0,0,1-1.05-2.14,10.53,10.53,0,0,1-.33-2.73,9.06,9.06,0,0,1,.38-2.69A5.52,5.52,0,0,1,202,68.75a5.23,5.23,0,0,1,2-1.36,7.21,7.21,0,0,1,2.79-.49,6.71,6.71,0,0,1,2.72.49,4.69,4.69,0,0,1,1.84,1.35,5.37,5.37,0,0,1,1,2.05,9.62,9.62,0,0,1,.32,2.59,10.41,10.41,0,0,1-.36,2.84,5.9,5.9,0,0,1-1.12,2.19,4.89,4.89,0,0,1-1.93,1.4A7,7,0,0,1,206.45,80.3Zm.07-1.83a3.38,3.38,0,0,0,2.79-1.18,6,6,0,0,0,1-3.76,5.87,5.87,0,0,0-.89-3.61,3.3,3.3,0,0,0-2.73-1.12,3.64,3.64,0,0,0-2.86,1.12,5.32,5.32,0,0,0-1,3.63Q202.77,78.47,206.52,78.47Z" transform="translate(-12.75 -31.9)"/><path class="cls-2" d="M224.25,80V78.62l1.2-.15c.3,0,.45-.18.45-.5V72.05a9,9,0,0,0-.08-1.17,3,3,0,0,0-.31-1,2,2,0,0,0-.66-.73,2.08,2.08,0,0,0-1.13-.27,4.8,4.8,0,0,0-2.06.46,8.65,8.65,0,0,0-1.81,1.14V78a.74.74,0,0,0,.06.38.63.63,0,0,0,.34.12l1.4.18V80h-5.73V78.62l1.25-.15c.19,0,.3-.07.34-.13a.74.74,0,0,0,.06-.37v-8.5a.48.48,0,0,0-.32-.52l-1.43-.48.23-1.32h3.27l.2,1.47.08,0a13.34,13.34,0,0,1,2.12-1.23,6.11,6.11,0,0,1,2.5-.52,4.37,4.37,0,0,1,1.83.34,3.18,3.18,0,0,1,1.22.93,3.78,3.78,0,0,1,.69,1.44,7.67,7.67,0,0,1,.21,1.86V78a.71.71,0,0,0,.07.38.59.59,0,0,0,.33.12l1.43.18V80Z" transform="translate(-12.75 -31.9)"/><path class="cls-3" d="M77,97.5a.21.21,0,0,1-.15,0,.2.2,0,0,1-.06-.15V91.41a.2.2,0,0,1,.06-.15.17.17,0,0,1,.15-.05h.48a.2.2,0,0,1,.15.05.25.25,0,0,1,0,.15v5.31h3a.21.21,0,0,1,.22.22v.36a.2.2,0,0,1-.06.15.25.25,0,0,1-.16,0Z" transform="translate(-12.75 -31.9)"/><path class="cls-3" d="M82.1,97.5a.23.23,0,0,1-.15,0,.2.2,0,0,1,0-.15V91.42a.21.21,0,0,1,0-.16.18.18,0,0,1,.15-.05h3.72a.18.18,0,0,1,.15.05.21.21,0,0,1,.06.16v.34a.21.21,0,0,1-.06.16.23.23,0,0,1-.15,0H82.76v2h2.86a.18.18,0,0,1,.15.06.21.21,0,0,1,.06.16v.33a.2.2,0,0,1-.06.15.18.18,0,0,1-.15.06H82.76v2h3.13a.21.21,0,0,1,.15.05.21.21,0,0,1,.06.16v.35a.2.2,0,0,1-.06.15.21.21,0,0,1-.15,0Z" transform="translate(-12.75 -31.9)"/><path class="cls-3" d="M87,97.5a.17.17,0,0,1-.13,0,.21.21,0,0,1,0-.13.28.28,0,0,1,0-.09L89,91.4a.39.39,0,0,1,.1-.14.27.27,0,0,1,.19-.05h.61a.26.26,0,0,1,.19.05.3.3,0,0,1,.1.14l2.22,5.83a.29.29,0,0,1,0,.09.21.21,0,0,1,0,.13.17.17,0,0,1-.13,0h-.46a.21.21,0,0,1-.16,0,.37.37,0,0,1-.06-.1l-.5-1.28H88.15l-.5,1.28s0,.06-.06.1a.19.19,0,0,1-.16,0Zm1.44-2.2h2.43l-1.21-3.2Z" transform="translate(-12.75 -31.9)"/><path class="cls-3" d="M93.68,97.5a.25.25,0,0,1-.16,0,.25.25,0,0,1,0-.15V91.42a.25.25,0,0,1,0-.16.21.21,0,0,1,.16-.05h2a3.48,3.48,0,0,1,1.49.27,1.72,1.72,0,0,1,.83.83,3.27,3.27,0,0,1,.27,1.33c0,.27,0,.51,0,.71s0,.44,0,.71A3.37,3.37,0,0,1,98,96.43a1.68,1.68,0,0,1-.81.81,3.4,3.4,0,0,1-1.47.26Zm.67-.76h1.37a2.48,2.48,0,0,0,1-.17,1.06,1.06,0,0,0,.53-.55,2.71,2.71,0,0,0,.18-1c0-.18,0-.34,0-.47v-.41c0-.13,0-.29,0-.46A1.89,1.89,0,0,0,97,92.39,1.79,1.79,0,0,0,95.67,92H94.35Z" transform="translate(-12.75 -31.9)"/><path class="cls-3" d="M99.92,97.5a.23.23,0,0,1-.15,0,.2.2,0,0,1-.06-.15V91.41a.2.2,0,0,1,.06-.15.18.18,0,0,1,.15-.05h.48a.18.18,0,0,1,.15.05.2.2,0,0,1,.06.15V97.3a.2.2,0,0,1-.06.15.23.23,0,0,1-.15,0Z" transform="translate(-12.75 -31.9)"/><path class="cls-3" d="M102.42,97.5a.25.25,0,0,1-.15,0,.2.2,0,0,1,0-.15V91.42a.21.21,0,0,1,0-.16.2.2,0,0,1,.15-.05h.42a.25.25,0,0,1,.16,0s.06.06.06.08l3,4.59v-4.5a.25.25,0,0,1,0-.16.21.21,0,0,1,.16-.05h.43a.21.21,0,0,1,.16.05.21.21,0,0,1,.06.16v5.87a.21.21,0,0,1-.21.21h-.43a.17.17,0,0,1-.15,0l-.07-.07-3-4.55V97.3a.2.2,0,0,1-.06.15.25.25,0,0,1-.15,0Z" transform="translate(-12.75 -31.9)"/><path class="cls-3" d="M110.81,97.59a2.81,2.81,0,0,1-1.35-.29,2.08,2.08,0,0,1-.85-.84,3.09,3.09,0,0,1-.33-1.27c0-.26,0-.54,0-.84s0-.58,0-.85a3.09,3.09,0,0,1,.33-1.27,2,2,0,0,1,.85-.82,2.81,2.81,0,0,1,1.35-.3,3.06,3.06,0,0,1,1.1.18,2.5,2.5,0,0,1,.77.46,2,2,0,0,1,.45.57,1.38,1.38,0,0,1,.16.52.14.14,0,0,1-.05.13.16.16,0,0,1-.14,0h-.53a.21.21,0,0,1-.13,0,.32.32,0,0,1-.08-.13,1.38,1.38,0,0,0-.27-.46,1.35,1.35,0,0,0-.49-.37,1.82,1.82,0,0,0-.79-.15,1.7,1.7,0,0,0-1.16.39,1.73,1.73,0,0,0-.47,1.27c0,.54,0,1.07,0,1.61a1.79,1.79,0,0,0,.48,1.29,1.67,1.67,0,0,0,1.15.39,1.93,1.93,0,0,0,.85-.18,1.34,1.34,0,0,0,.59-.54,1.79,1.79,0,0,0,.22-.94v-.38h-1.35a.2.2,0,0,1-.15-.05.21.21,0,0,1-.06-.16v-.29a.23.23,0,0,1,.06-.16.2.2,0,0,1,.15,0h2a.17.17,0,0,1,.15,0,.23.23,0,0,1,.06.16v.87a2.6,2.6,0,0,1-.3,1.28,2.06,2.06,0,0,1-.88.85A2.92,2.92,0,0,1,110.81,97.59Z" transform="translate(-12.75 -31.9)"/><path class="cls-3" d="M117.15,97.5a.25.25,0,0,1-.15,0,.2.2,0,0,1-.06-.15V91.42a.21.21,0,0,1,.06-.16.2.2,0,0,1,.15-.05h.45a.21.21,0,0,1,.16.05.18.18,0,0,1,.07.09l1.9,3.63,1.92-3.63a.24.24,0,0,1,.06-.09.21.21,0,0,1,.16-.05h.44a.21.21,0,0,1,.16.05.21.21,0,0,1,.06.16V97.3a.2.2,0,0,1-.06.15.25.25,0,0,1-.16,0h-.44a.18.18,0,0,1-.2-.2V92.87l-1.51,2.93a.26.26,0,0,1-.11.14.23.23,0,0,1-.17,0h-.28a.24.24,0,0,1-.18,0,.31.31,0,0,1-.11-.14l-1.51-2.93V97.3a.2.2,0,0,1-.06.15.25.25,0,0,1-.15,0Z" transform="translate(-12.75 -31.9)"/><path class="cls-3" d="M124.34,97.5a.21.21,0,0,1-.15,0,.2.2,0,0,1-.06-.15V91.42a.21.21,0,0,1,.06-.16.17.17,0,0,1,.15-.05H128a.21.21,0,0,1,.16.05.21.21,0,0,1,.06.16v.36a.18.18,0,0,1-.06.15A.21.21,0,0,1,128,92h-3v2.09h2.83a.21.21,0,0,1,.22.22v.36a.2.2,0,0,1-.06.15.21.21,0,0,1-.16.06H125V97.3a.25.25,0,0,1,0,.15.28.28,0,0,1-.16,0Z" transform="translate(-12.75 -31.9)"/><path class="cls-3" d="M129.64,97.5a.21.21,0,0,1-.15,0,.2.2,0,0,1-.06-.15V91.42a.21.21,0,0,1,.06-.16.17.17,0,0,1,.15-.05h2.2a2.51,2.51,0,0,1,1.61.47,1.72,1.72,0,0,1,.59,1.41,1.75,1.75,0,0,1-.35,1.13,1.71,1.71,0,0,1-.94.61l1.39,2.4a.16.16,0,0,1,0,.09.18.18,0,0,1-.06.13.17.17,0,0,1-.13,0h-.44a.26.26,0,0,1-.22-.08,1,1,0,0,1-.13-.16L131.89,95h-1.58V97.3a.25.25,0,0,1-.05.15.28.28,0,0,1-.16,0Zm.67-3.29h1.49a1.52,1.52,0,0,0,1-.28,1.23,1.23,0,0,0,0-1.68,1.5,1.5,0,0,0-1-.29h-1.49Z" transform="translate(-12.75 -31.9)"/><path class="cls-3" d="M137.4,97.59a3.24,3.24,0,0,1-1.32-.24,2.08,2.08,0,0,1-.81-.62,1.45,1.45,0,0,1-.3-.81.18.18,0,0,1,.06-.13.17.17,0,0,1,.14-.06h.45a.22.22,0,0,1,.17.06.24.24,0,0,1,.07.12,1.1,1.1,0,0,0,.22.43,1.31,1.31,0,0,0,.49.35,2.17,2.17,0,0,0,.83.14,1.88,1.88,0,0,0,1.14-.28.86.86,0,0,0,.36-.73.69.69,0,0,0-.19-.51,1.7,1.7,0,0,0-.59-.34,10.35,10.35,0,0,0-1-.34,5.57,5.57,0,0,1-1.09-.41,1.61,1.61,0,0,1-.64-.56,1.54,1.54,0,0,1-.21-.84,1.44,1.44,0,0,1,.26-.87,1.7,1.7,0,0,1,.75-.61,2.87,2.87,0,0,1,1.19-.23,2.93,2.93,0,0,1,1,.15,2.07,2.07,0,0,1,.7.4,1.89,1.89,0,0,1,.42.53,1.3,1.3,0,0,1,.15.55.2.2,0,0,1,0,.13.21.21,0,0,1-.15,0h-.47a.28.28,0,0,1-.13,0,.27.27,0,0,1-.11-.14.9.9,0,0,0-.41-.62,1.58,1.58,0,0,0-.94-.25,1.91,1.91,0,0,0-.95.22.78.78,0,0,0-.36.71.76.76,0,0,0,.17.5,1.27,1.27,0,0,0,.54.36,9.72,9.72,0,0,0,1,.32,8.59,8.59,0,0,1,1.18.42,1.67,1.67,0,0,1,.68.55,1.46,1.46,0,0,1,.22.84,1.58,1.58,0,0,1-.3,1,1.76,1.76,0,0,1-.83.61A3.47,3.47,0,0,1,137.4,97.59Z" transform="translate(-12.75 -31.9)"/><path class="cls-3" d="M145.53,97.59a3,3,0,0,1-1.32-.26,1.87,1.87,0,0,1-.85-.82,3.27,3.27,0,0,1-.33-1.39c0-.26,0-.52,0-.76s0-.5,0-.76a3,3,0,0,1,.35-1.38,1.92,1.92,0,0,1,.86-.83,3.11,3.11,0,0,1,2.58,0,2,2,0,0,1,.86.83A3,3,0,0,1,148,93.6c0,.26,0,.52,0,.76s0,.5,0,.76a3.13,3.13,0,0,1-.33,1.39,1.92,1.92,0,0,1-.85.82A3,3,0,0,1,145.53,97.59Zm0-.76a1.58,1.58,0,0,0,1.12-.41,1.9,1.9,0,0,0,.48-1.35c0-.27,0-.51,0-.72s0-.45,0-.72a2.31,2.31,0,0,0-.23-1,1.31,1.31,0,0,0-.57-.57,1.71,1.71,0,0,0-.8-.18,1.74,1.74,0,0,0-.8.18,1.34,1.34,0,0,0-.56.57,2.3,2.3,0,0,0-.24,1c0,.27,0,.51,0,.72s0,.45,0,.72a1.9,1.9,0,0,0,.48,1.35A1.59,1.59,0,0,0,145.53,96.83Z" transform="translate(-12.75 -31.9)"/><path class="cls-3" d="M149.61,97.5a.21.21,0,0,1-.15,0,.2.2,0,0,1-.06-.15V91.42a.21.21,0,0,1,.06-.16.17.17,0,0,1,.15-.05h3.67a.21.21,0,0,1,.16.05.21.21,0,0,1,.06.16v.36a.18.18,0,0,1-.06.15.21.21,0,0,1-.16.06h-3v2.09h2.82a.21.21,0,0,1,.22.22v.36a.2.2,0,0,1-.06.15.21.21,0,0,1-.16.06h-2.82V97.3a.2.2,0,0,1-.06.15.25.25,0,0,1-.16,0Z" transform="translate(-12.75 -31.9)"/><path class="cls-3" d="M157,97.5a.25.25,0,0,1-.16,0,.25.25,0,0,1-.05-.15V91.42a.25.25,0,0,1,.05-.16.21.21,0,0,1,.16-.05h2.46a2.56,2.56,0,0,1,1.11.21,1.52,1.52,0,0,1,.63.6,1.87,1.87,0,0,1,.2.85,1.48,1.48,0,0,1-.12.63,1.42,1.42,0,0,1-.3.44,1.56,1.56,0,0,1-.36.25,1.66,1.66,0,0,1,.63.56,1.6,1.6,0,0,1,.27.94,1.88,1.88,0,0,1-.22.91,1.7,1.7,0,0,1-.67.66,2.29,2.29,0,0,1-1.1.24Zm.67-3.63h1.66a1.26,1.26,0,0,0,.87-.27.91.91,0,0,0,.3-.72.84.84,0,0,0-.3-.7,1.31,1.31,0,0,0-.87-.25h-1.66Zm0,2.91h1.75a1.21,1.21,0,0,0,.89-.32,1,1,0,0,0,.31-.77,1.06,1.06,0,0,0-.31-.79,1.21,1.21,0,0,0-.89-.31h-1.75Z" transform="translate(-12.75 -31.9)"/><path class="cls-3" d="M162.37,97.5a.13.13,0,0,1-.12,0,.18.18,0,0,1-.06-.13s0-.06,0-.09l2.23-5.83a.39.39,0,0,1,.1-.14.27.27,0,0,1,.19-.05h.61a.26.26,0,0,1,.19.05.3.3,0,0,1,.1.14l2.22,5.83a.15.15,0,0,1,0,.09.21.21,0,0,1-.05.13.17.17,0,0,1-.13,0h-.46a.17.17,0,0,1-.15,0,.26.26,0,0,1-.07-.1l-.5-1.28h-2.95l-.49,1.28a.26.26,0,0,1-.07.1.19.19,0,0,1-.16,0Zm1.44-2.2h2.43L165,92.1Z" transform="translate(-12.75 -31.9)"/><path class="cls-3" d="M169.08,97.5a.25.25,0,0,1-.16,0,.25.25,0,0,1,0-.15V91.42a.25.25,0,0,1,0-.16.21.21,0,0,1,.16-.05h2.19a2.47,2.47,0,0,1,1.61.47,1.7,1.7,0,0,1,.6,1.41,1.75,1.75,0,0,1-.35,1.13,1.71,1.71,0,0,1-.94.61l1.39,2.4a.15.15,0,0,1,0,.09.21.21,0,0,1,0,.13.18.18,0,0,1-.13,0H173a.26.26,0,0,1-.22-.08,1,1,0,0,1-.13-.16L171.33,95h-1.58V97.3a.2.2,0,0,1-.06.15.25.25,0,0,1-.15,0Zm.67-3.29h1.49a1.54,1.54,0,0,0,1-.28,1.23,1.23,0,0,0,0-1.68,1.52,1.52,0,0,0-1-.29h-1.49Z" transform="translate(-12.75 -31.9)"/><path class="cls-3" d="M177.07,97.59a2.81,2.81,0,0,1-1.37-.3,2,2,0,0,1-.83-.86,3.12,3.12,0,0,1-.3-1.27c0-.25,0-.51,0-.8s0-.55,0-.81a3.12,3.12,0,0,1,.3-1.27,2,2,0,0,1,.83-.86,2.8,2.8,0,0,1,1.37-.31,3,3,0,0,1,1.09.18,2.29,2.29,0,0,1,.78.45,2.24,2.24,0,0,1,.47.65,1.87,1.87,0,0,1,.18.73.15.15,0,0,1-.05.14.22.22,0,0,1-.14,0h-.49a.26.26,0,0,1-.14,0,.3.3,0,0,1-.09-.17,1.39,1.39,0,0,0-.57-1,2,2,0,0,0-1-.26,1.58,1.58,0,0,0-1.15.41,1.81,1.81,0,0,0-.45,1.31c0,.49,0,1,0,1.51a1.81,1.81,0,0,0,.45,1.31,1.58,1.58,0,0,0,1.15.41,2,2,0,0,0,1-.26,1.44,1.44,0,0,0,.57-1,.3.3,0,0,1,.09-.17.2.2,0,0,1,.14,0h.49a.22.22,0,0,1,.14,0,.12.12,0,0,1,.05.13,2,2,0,0,1-.18.74,2.08,2.08,0,0,1-.47.64,2.15,2.15,0,0,1-.78.46A3,3,0,0,1,177.07,97.59Z" transform="translate(-12.75 -31.9)"/><path class="cls-3" d="M183.11,97.59a2.93,2.93,0,0,1-1.32-.26,1.87,1.87,0,0,1-.85-.82,3.13,3.13,0,0,1-.33-1.39c0-.26,0-.52,0-.76s0-.5,0-.76a3.12,3.12,0,0,1,.34-1.38,2,2,0,0,1,.87-.83,3.09,3.09,0,0,1,2.57,0,2,2,0,0,1,.87.83,3,3,0,0,1,.34,1.38c0,.26,0,.52,0,.76s0,.5,0,.76a3.13,3.13,0,0,1-.33,1.39,1.87,1.87,0,0,1-.85.82A2.92,2.92,0,0,1,183.11,97.59Zm0-.76a1.59,1.59,0,0,0,1.12-.41,1.9,1.9,0,0,0,.47-1.35c0-.27,0-.51,0-.72s0-.45,0-.72a2.17,2.17,0,0,0-.23-1,1.34,1.34,0,0,0-.56-.57,1.87,1.87,0,0,0-1.6,0,1.36,1.36,0,0,0-.57.57,2.17,2.17,0,0,0-.23,1c0,.27,0,.51,0,.72s0,.45,0,.72a1.9,1.9,0,0,0,.47,1.35A1.62,1.62,0,0,0,183.11,96.83Z" transform="translate(-12.75 -31.9)"/><path class="cls-3" d="M187.19,97.5a.25.25,0,0,1-.16,0,.25.25,0,0,1-.05-.15V91.42a.25.25,0,0,1,.05-.16.21.21,0,0,1,.16-.05h2a3.48,3.48,0,0,1,1.49.27,1.72,1.72,0,0,1,.83.83,3.27,3.27,0,0,1,.27,1.33c0,.27,0,.51,0,.71s0,.44,0,.71a3.37,3.37,0,0,1-.27,1.37,1.72,1.72,0,0,1-.81.81,3.4,3.4,0,0,1-1.47.26Zm.67-.76h1.37a2.48,2.48,0,0,0,1-.17,1.06,1.06,0,0,0,.53-.55,2.52,2.52,0,0,0,.18-1c0-.18,0-.34,0-.47v-.41c0-.13,0-.29,0-.46a1.89,1.89,0,0,0-.41-1.29,1.79,1.79,0,0,0-1.34-.42h-1.32Z" transform="translate(-12.75 -31.9)"/><path class="cls-3" d="M193.43,97.5a.23.23,0,0,1-.15,0,.2.2,0,0,1-.06-.15V91.42a.21.21,0,0,1,.06-.16.18.18,0,0,1,.15-.05h3.72a.18.18,0,0,1,.15.05.21.21,0,0,1,.06.16v.34a.21.21,0,0,1-.06.16.23.23,0,0,1-.15,0h-3.06v2H197a.18.18,0,0,1,.15.06.21.21,0,0,1,.06.16v.33a.2.2,0,0,1-.06.15.18.18,0,0,1-.15.06h-2.86v2h3.13a.21.21,0,0,1,.15.05.21.21,0,0,1,.06.16v.35a.2.2,0,0,1-.06.15.21.21,0,0,1-.15,0Z" transform="translate(-12.75 -31.9)"/><path class="cls-3" d="M201.18,97.5a.21.21,0,0,1-.15,0,.2.2,0,0,1-.06-.15V91.42a.21.21,0,0,1,.06-.16.17.17,0,0,1,.15-.05h2.2a2.51,2.51,0,0,1,1.61.47,1.72,1.72,0,0,1,.59,1.41,1.75,1.75,0,0,1-.35,1.13,1.71,1.71,0,0,1-.94.61l1.39,2.4a.16.16,0,0,1,0,.09.18.18,0,0,1-.06.13.17.17,0,0,1-.13,0h-.43a.27.27,0,0,1-.23-.08,1,1,0,0,1-.13-.16L203.43,95h-1.58V97.3a.25.25,0,0,1,0,.15.28.28,0,0,1-.16,0Zm.67-3.29h1.49a1.54,1.54,0,0,0,1-.28,1.23,1.23,0,0,0,0-1.68,1.52,1.52,0,0,0-1-.29h-1.49Z" transform="translate(-12.75 -31.9)"/><path class="cls-3" d="M207.12,97.5a.21.21,0,0,1-.15,0,.2.2,0,0,1-.06-.15V91.41a.2.2,0,0,1,.06-.15.17.17,0,0,1,.15-.05h.48a.18.18,0,0,1,.2.2V97.3a.2.2,0,0,1-.05.15.25.25,0,0,1-.15,0Z" transform="translate(-12.75 -31.9)"/><path class="cls-3" d="M209.62,97.5a.23.23,0,0,1-.15,0,.2.2,0,0,1-.05-.15V91.42a.21.21,0,0,1,.05-.16.18.18,0,0,1,.15-.05h2.47a2.48,2.48,0,0,1,1.1.21,1.41,1.41,0,0,1,.63.6,1.75,1.75,0,0,1,.2.85,1.48,1.48,0,0,1-.12.63,1.42,1.42,0,0,1-.3.44,1.77,1.77,0,0,1-.35.25,1.71,1.71,0,0,1,.62.56,1.54,1.54,0,0,1,.28.94,1.89,1.89,0,0,1-.23.91,1.7,1.7,0,0,1-.67.66,2.25,2.25,0,0,1-1.09.24Zm.68-3.63H212a1.27,1.27,0,0,0,.88-.27.93.93,0,0,0,.29-.72.86.86,0,0,0-.29-.7,1.32,1.32,0,0,0-.88-.25H210.3Zm0,2.91H212a1.2,1.2,0,0,0,.89-.32,1.06,1.06,0,0,0,.32-.77,1.07,1.07,0,0,0-.32-.79,1.19,1.19,0,0,0-.89-.31H210.3Z" transform="translate(-12.75 -31.9)"/><path class="cls-3" d="M215.68,97.5a.21.21,0,0,1-.15,0,.2.2,0,0,1-.06-.15V91.42a.21.21,0,0,1,.06-.16.17.17,0,0,1,.15-.05h2.46a2.56,2.56,0,0,1,1.11.21,1.52,1.52,0,0,1,.63.6,1.87,1.87,0,0,1,.2.85,1.48,1.48,0,0,1-.12.63,1.42,1.42,0,0,1-.3.44,1.77,1.77,0,0,1-.35.25,1.71,1.71,0,0,1,.62.56,1.61,1.61,0,0,1,.28.94,1.89,1.89,0,0,1-.23.91,1.7,1.7,0,0,1-.67.66,2.28,2.28,0,0,1-1.09.24Zm.67-3.63H218a1.26,1.26,0,0,0,.87-.27.91.91,0,0,0,.3-.72.84.84,0,0,0-.3-.7,1.31,1.31,0,0,0-.87-.25h-1.66Zm0,2.91h1.75a1.21,1.21,0,0,0,.89-.32,1.06,1.06,0,0,0,.32-.77,1.07,1.07,0,0,0-.32-.79,1.21,1.21,0,0,0-.89-.31h-1.75Z" transform="translate(-12.75 -31.9)"/><path class="cls-3" d="M223.8,97.59a3,3,0,0,1-1.33-.26,1.9,1.9,0,0,1-.84-.82,3.27,3.27,0,0,1-.34-1.39V93.6a3.12,3.12,0,0,1,.35-1.38,2,2,0,0,1,.87-.83,3.09,3.09,0,0,1,2.57,0,2,2,0,0,1,.87.83,3,3,0,0,1,.34,1.38c0,.26,0,.52,0,.76s0,.5,0,.76a3.13,3.13,0,0,1-.33,1.39,1.87,1.87,0,0,1-.85.82A2.92,2.92,0,0,1,223.8,97.59Zm0-.76a1.59,1.59,0,0,0,1.12-.41,1.9,1.9,0,0,0,.47-1.35c0-.27,0-.51,0-.72s0-.45,0-.72a2.17,2.17,0,0,0-.23-1,1.34,1.34,0,0,0-.56-.57,1.74,1.74,0,0,0-.8-.18,1.71,1.71,0,0,0-.8.18,1.31,1.31,0,0,0-.57.57,2.17,2.17,0,0,0-.23,1c0,.27,0,.51,0,.72s0,.45,0,.72a1.9,1.9,0,0,0,.47,1.35A1.62,1.62,0,0,0,223.8,96.83Z" transform="translate(-12.75 -31.9)"/><path class="cls-3" d="M227.87,97.5a.25.25,0,0,1-.15,0,.2.2,0,0,1-.05-.15V91.42a.21.21,0,0,1,.05-.16.2.2,0,0,1,.15-.05h.42a.25.25,0,0,1,.16,0s.06.06.06.08l3,4.59v-4.5a.25.25,0,0,1,.05-.16.21.21,0,0,1,.16-.05h.43a.21.21,0,0,1,.16.05.21.21,0,0,1,.06.16v5.87a.21.21,0,0,1-.21.21h-.43a.17.17,0,0,1-.15,0,.43.43,0,0,0-.07-.07l-3-4.55V97.3a.2.2,0,0,1-.06.15.25.25,0,0,1-.15,0Z" transform="translate(-12.75 -31.9)"/><path class="cls-3" d="M236,97.59a3.16,3.16,0,0,1-1.31-.24,2,2,0,0,1-.82-.62,1.45,1.45,0,0,1-.3-.81.18.18,0,0,1,.06-.13.2.2,0,0,1,.14-.06h.46a.21.21,0,0,1,.16.06.19.19,0,0,1,.07.12,1.13,1.13,0,0,0,.23.43,1.24,1.24,0,0,0,.49.35,2.12,2.12,0,0,0,.82.14,1.84,1.84,0,0,0,1.14-.28.86.86,0,0,0,.36-.73.69.69,0,0,0-.19-.51,1.61,1.61,0,0,0-.59-.34,9.27,9.27,0,0,0-1-.34,5.33,5.33,0,0,1-1.09-.41,1.65,1.65,0,0,1-.65-.56,1.54,1.54,0,0,1-.21-.84A1.51,1.51,0,0,1,234,92a1.79,1.79,0,0,1,.76-.61,3.2,3.2,0,0,1,2.16-.08,2.07,2.07,0,0,1,.7.4,1.59,1.59,0,0,1,.42.53,1.32,1.32,0,0,1,.16.55.21.21,0,0,1,0,.13.2.2,0,0,1-.14,0h-.48l-.13,0a.26.26,0,0,1-.1-.14,1,1,0,0,0-.42-.62,1.57,1.57,0,0,0-.93-.25,1.88,1.88,0,0,0-.95.22.77.77,0,0,0-.37.71.76.76,0,0,0,.17.5,1.41,1.41,0,0,0,.54.36,9.18,9.18,0,0,0,1,.32,9.1,9.1,0,0,1,1.18.42,1.74,1.74,0,0,1,.68.55,1.54,1.54,0,0,1,.22.84,1.58,1.58,0,0,1-.3,1,1.86,1.86,0,0,1-.83.61A3.48,3.48,0,0,1,236,97.59Z" transform="translate(-12.75 -31.9)"/></svg>