<svg id="Layer_1" data-name="Layer 1" xmlns="http://www.w3.org/2000/svg" viewBox="0 0 1331.64 328.09"><defs><style>.cls-1{fill:#3463ad;}.cls-2{fill:#3363ad;}.cls-3{fill:#273777;}.cls-4{fill:#293977;}.cls-5{fill:#283877;}.cls-6{fill:#2d3c7a;}.cls-7{fill:#2d3d7a;}.cls-8{fill:#2f3e7b;}.cls-9{fill:#3665ad;}.cls-10{fill:#fbfcfd;}.cls-11{fill:#fafbfc;}.cls-12{fill:#f9fafc;}.cls-13{fill:#f8fafc;}</style></defs><path class="cls-1" d="M820,162.26H967.4V334.73H820Zm39.17,33.5c6.29,5.56,6.63,11.89,6.64,18.25q.08,35.48,0,71c0,6.5-.42,12.88-6.14,18.18,21.85,0,42.84,0,63.82-.08,1.17,0,3-.89,3.39-1.83,2.25-5.82,4.17-11.77,6.2-17.68-16.11,12.21-33.53,7.91-50.82,6v-39.3l26.86,2.11V238.9H882c0-9.52-.08-18.81.12-28.09a3.8,3.8,0,0,1,2.63-2.64c11.47-.67,23.28-3.38,33.72,5.19v-17.6Z" transform="translate(-33.97 -162.23)"/><path class="cls-2" d="M977,334.8V162.33H1124.5V334.8ZM1009.8,282a2.27,2.27,0,0,0-.19-.34c0-.05-.16,0-.24,0l.5.3c1.08,5.68,2,11.41,3.4,17,.33,1.27,2.57,2.58,4.12,2.89,7.15,1.43,14.33,3.19,21.57,3.57,15.42.81,29.43-3.09,40.1-15.12,11.6-13.07,9.89-28.92-4.64-38.6-6.87-4.58-14.66-7.74-22-11.69a176.34,176.34,0,0,1-16.34-9.48c-4.68-3.23-6.7-8.09-5.58-14s5.08-8.86,10.24-10.47c11.76-3.68,22.64-1.36,32.75,5.36,1,.66,2,1.31,3.23,2.14V196.15c-17.26-4.35-34.28-5.77-50.66,2.53-17.39,8.81-19.76,30.95-4.29,42.89,6.61,5.11,14.65,8.37,22,12.49,6.08,3.4,12.68,6.13,18.08,10.39,9.49,7.48,8,19.57-2.57,25.53-6.46,3.65-13.4,4.53-20.74,3.67C1027.91,292.38,1018.72,287.58,1009.8,282Z" transform="translate(-33.97 -162.23)"/><path class="cls-2" d="M1134,334.79V162.34h147.53V334.79Zm103.22-138.16c-15.5-5.72-37.63-4.92-50.42,1.7-17.5,9.06-20.32,30.54-5.08,42.91,6,4.85,13.31,8,20.14,11.77,5.82,3.19,12,5.78,17.65,9.21,6.1,3.68,9.68,9.18,8.54,16.7-1.1,7.18-6.4,10.61-12.5,13-9.91,3.85-19.74,2.18-29.22-1.49-5.63-2.17-10.86-5.35-16.61-8.26.3,1.48.53,2.76.82,4,3.68,15.94,3.65,16.15,19.6,18.49,14.85,2.18,29.26,1.06,42.09-7.88,15.19-10.59,24.21-33.37-1.53-47.8-7.24-4.05-15.05-7.07-22.31-11.11-5.17-2.87-10.5-6-14.58-10.17a12.19,12.19,0,0,1,3.62-19.78,40.81,40.81,0,0,1,16.29-3.35c8.61-.06,16.34,3.53,23.5,9.45Z" transform="translate(-33.97 -162.23)"/><path class="cls-1" d="M34,162.26H181.4V334.73H34ZM143.76,290.65c-25.92,8.47-50.85,1-62.89-18.6-10.76-17.51-8.72-40.94,4.72-54.66a42.09,42.09,0,0,1,25-12.36c13.53-1.84,26.49-.52,38.17,8.81,0-5.77.14-10.9-.12-16a3.93,3.93,0,0,0-2.53-2.73c-19.14-3.58-38.09-3.65-56.45,3.93C68,208,55.45,226.92,55.64,250.13c.2,23.41,12.43,41.22,34.73,49.87,23.27,9,46.69,5.43,70.09.62V248.49H137c5.13,3.39,6.61,8,6.71,12.93C143.9,271.06,143.76,280.72,143.76,290.65Z" transform="translate(-33.97 -162.23)"/><path class="cls-1" d="M662.6,162.23H810.38V334.86H662.6ZM770.79,275.66c-1.43-1.51-2.13-2.14-2.71-2.87q-30.6-38.84-61.22-77.66c-.8-1-2.21-2.16-3.37-2.19-6.59-.21-13.19-.1-21.23-.1,8,5.27,8.56,12.27,8.55,19.57,0,21.49,0,43,0,64.47,0,8.41.71,17-7.89,22.89h27.37c-6.61-4.41-7.9-10.21-7.88-16.64,0-20.83,0-41.65,0-62.48a42.47,42.47,0,0,1,.58-4.38c8.78,11.14,16.91,21.46,25.06,31.77,11.45,14.5,22.87,29,34.4,43.48,5.12,6.43,11.33,11.34,19.94,13.58V299q0-43.23,0-86.46c0-7.28.45-14.29,8-19.45H762.6c6.22,4,8.16,9.28,8.17,15.35C770.82,230.41,770.79,252.4,770.79,275.66Z" transform="translate(-33.97 -162.23)"/><path class="cls-1" d="M653.29,334.93H505.51V162.27H653.29ZM532.14,194.4l-.42,1.8c5.2,3.54,5.47,8.92,5.47,14.31,0,24.32,0,48.64.06,73,0,7.07-.24,13.91-6.92,19.39,14.46,0,27.91.43,41.32-.17a86.75,86.75,0,0,0,22-3.82c23.78-7.5,38-28.4,37-53.2-1-24.6-15.62-43.32-41-47.67C570.81,194.78,551.33,195.46,532.14,194.4Z" transform="translate(-33.97 -162.23)"/><path class="cls-2" d="M338.43,334.93H190.93V162.26h147.5ZM204.8,248.77l-1.42.41c2.31,8.06,3.56,16.63,7.13,24.1,16.17,33.83,63.14,42.94,93.15,18.49,28.18-22.95,27.88-64.78-.72-87-13.47-10.47-29-13.2-45.66-11.8C228.53,195.37,204.84,220.41,204.8,248.77Z" transform="translate(-33.97 -162.23)"/><path class="cls-2" d="M347.83,334.79V162.34H495.47V334.79Zm13.53-85.86c.71,4.58,1.07,9.26,2.19,13.74,7.74,30.77,40,49,72.73,41.21,40.2-9.52,58.49-54.58,35.08-87.19C457.52,197.4,437.73,191.22,414.8,193,385.6,195.29,361.85,220.28,361.36,248.93Z" transform="translate(-33.97 -162.23)"/><path class="cls-3" d="M994.81,459.3c0-9.28-1.35-17.92-11-23.4,7.42-3.83,10.14-10.09,10.54-17.11a121.46,121.46,0,0,0-.62-21.4c-1-8.68-6.45-14.91-15-15.68-11.49-1-23.13-.25-34.74-.25V488.88h16.93V445.39c12.81-1.31,16.64,2,16.75,14.18.06,6.66-.09,13.33.06,20,.06,3.08.62,6.16,1,9.35h16.15C994.81,478.88,994.79,469.09,994.81,459.3Zm-17.6-39.82c-.41,6.85-3.25,9.54-10,9.68-2,0-3.93,0-6.14,0V396.73c.48-.23.76-.47,1-.48,13.65-.47,15.17,1,15.17,14.75C977.27,413.83,977.38,416.67,977.21,419.48Z" transform="translate(-33.97 -162.23)"/><path class="cls-4" d="M1017.07,489h-15.82c1.69-10.69,3.31-21.12,5-31.54,3.85-24.13,7.81-48.23,11.5-72.38.53-3.48,1.49-4.87,5.21-4.7,6.8.3,13.62.08,20.79.08,5.79,36.15,11.54,72.06,17.36,108.36h-17.38c-1-6.24-2-12.57-3.1-19.05H1020.1C1019.08,476.2,1018.09,482.53,1017.07,489Zm13.55-87-.69.19q-3.78,25.95-7.56,51.94h15.91Z" transform="translate(-33.97 -162.23)"/><path class="cls-5" d="M1060.37,380.67h17.45q6.18,42.36,12.32,84.49l1,.15,12.37-84.52h15.88c-5.55,36.07-11.08,72-16.63,108.12h-25.76C1071.49,452.8,1066,416.89,1060.37,380.67Z" transform="translate(-33.97 -162.23)"/><path class="cls-5" d="M1284.48,410h-15.41c-.41-3.15-.64-6.25-1.25-9.27-.77-3.77-3.4-5.59-7.15-5.73s-6.94,1.2-8.11,5.18c-1.81,6.12-1,12.12,2.93,17a135.1,135.1,0,0,0,13.79,14.32c12.33,11.25,18.75,24.46,14.56,41.39-3,12-11.86,17.94-25.52,17.34s-21.51-6.95-23.52-19.2c-.77-4.69-.75-9.51-1.11-14.61H1250c.21,3.54.32,7.15.68,10.74.49,4.73,3.37,7.05,8,7.21s7.66-2,8.62-6.59a19.4,19.4,0,0,0-4.9-17.6c-5.13-5.66-10.8-10.82-16.23-16.2-10.92-10.82-14-23.83-10.31-38.48,2.15-8.44,7.82-13.69,16.44-15.56C1273.2,375.47,1286.39,387.59,1284.48,410Z" transform="translate(-33.97 -162.23)"/><path class="cls-6" d="M1127.25,380.7h46.35v15.44h-28.84V426h22.71v16h-22.85v31.23h28.84V489h-46.21Z" transform="translate(-33.97 -162.23)"/><path class="cls-7" d="M883.47,396.27V380.85H936v15.2H918.75v92.86H900.93V396.27Z" transform="translate(-33.97 -162.23)"/><path class="cls-8" d="M1184.19,380.61h17v92.68H1229v15.57h-44.81Z" transform="translate(-33.97 -162.23)"/><path class="cls-9" d="M1329.94,162.41h11.91q3,17.9,5.92,35.73l.68-.09c1.78-11.78,3.55-23.55,5.36-35.59h11.8v54.42h-7.69V184.05L1357,184l-5.07,33h-8.33c-1.71-10.28-3.44-20.66-5.16-31h-.85v31h-7.66Z" transform="translate(-33.97 -162.23)"/><path class="cls-9" d="M1308.24,170.45l-8.67-.52v-7.56H1326v7.55l-8.49.52v46.33h-9.3Z" transform="translate(-33.97 -162.23)"/><path class="cls-10" d="M859.14,195.76h59.31v17.6c-10.44-8.57-22.25-5.86-33.72-5.19a3.8,3.8,0,0,0-2.63,2.64c-.2,9.28-.12,18.57-.12,28.09h27.13v13.46l-26.86-2.11v39.3c17.29,1.93,34.71,6.23,50.82-6-2,5.91-4,11.86-6.2,17.68-.36.94-2.22,1.82-3.39,1.83-21,.11-42,.08-63.82.08,5.72-5.3,6.13-11.68,6.14-18.18q0-35.49,0-71C865.77,207.65,865.43,201.32,859.14,195.76Z" transform="translate(-33.97 -162.23)"/><path class="cls-11" d="M1009.8,282c8.92,5.55,18.11,10.35,28.8,11.62,7.34.86,14.28,0,20.74-3.67,10.56-6,12.06-18.05,2.57-25.53-5.4-4.26-12-7-18.08-10.39-7.37-4.12-15.41-7.38-22-12.49-15.47-11.94-13.1-34.08,4.29-42.89,16.38-8.3,33.4-6.88,50.66-2.53v17.41c-1.26-.83-2.25-1.48-3.23-2.14-10.11-6.72-21-9-32.75-5.36-5.16,1.61-9.13,4.68-10.24,10.47s.9,10.75,5.58,14a176.34,176.34,0,0,0,16.34,9.48c7.3,3.95,15.09,7.11,22,11.69,14.53,9.68,16.24,25.53,4.64,38.6-10.67,12-24.68,15.93-40.1,15.12-7.24-.38-14.42-2.14-21.57-3.57-1.55-.31-3.79-1.62-4.12-2.89-1.45-5.58-2.32-11.31-3.4-17Z" transform="translate(-33.97 -162.23)"/><path class="cls-11" d="M1009.87,282l-.5-.3c.08,0,.2,0,.24,0a2.27,2.27,0,0,1,.19.34Z" transform="translate(-33.97 -162.23)"/><path class="cls-12" d="M1237.18,196.63V214c-7.16-5.92-14.89-9.51-23.5-9.45a40.81,40.81,0,0,0-16.29,3.35,12.19,12.19,0,0,0-3.62,19.78c4.08,4.17,9.41,7.3,14.58,10.17,7.26,4,15.07,7.06,22.31,11.11,25.74,14.43,16.72,37.21,1.53,47.8-12.83,8.94-27.24,10.06-42.09,7.88-15.95-2.34-15.92-2.55-19.6-18.49-.29-1.26-.52-2.54-.82-4,5.75,2.91,11,6.09,16.61,8.26,9.48,3.67,19.31,5.34,29.22,1.49,6.1-2.36,11.4-5.79,12.5-13,1.14-7.52-2.44-13-8.54-16.7-5.67-3.43-11.83-6-17.65-9.21-6.83-3.74-14.18-6.92-20.14-11.77-15.24-12.37-12.42-33.85,5.08-42.91C1199.55,191.71,1221.68,190.91,1237.18,196.63Z" transform="translate(-33.97 -162.23)"/><path class="cls-12" d="M143.76,290.65c0-9.93.14-19.59,0-29.23-.1-5-1.58-9.54-6.71-12.93h23.46v52.13c-23.4,4.81-46.82,8.41-70.09-.62-22.3-8.65-34.53-26.46-34.73-49.87C55.45,226.92,68,208,89.71,199c18.36-7.58,37.31-7.51,56.45-3.93a3.93,3.93,0,0,1,2.53,2.73c.26,5.1.12,10.23.12,16-11.68-9.33-24.64-10.65-38.17-8.81a42.09,42.09,0,0,0-25,12.36c-13.44,13.72-15.48,37.15-4.72,54.66C92.91,291.64,117.84,299.12,143.76,290.65Z" transform="translate(-33.97 -162.23)"/><path class="cls-13" d="M770.79,275.66c0-23.26,0-45.25,0-67.23,0-6.07-1.95-11.35-8.17-15.35h27.8c-7.57,5.16-8,12.17-8,19.45q.09,43.23,0,86.46v6.11c-8.61-2.24-14.82-7.15-19.94-13.58-11.53-14.44-23-29-34.4-43.48-8.15-10.31-16.28-20.63-25.06-31.77a42.47,42.47,0,0,0-.58,4.38c0,20.83,0,41.65,0,62.48,0,6.43,1.27,12.23,7.88,16.64H682.9c8.6-5.85,7.89-14.48,7.89-22.89,0-21.49,0-43,0-64.47,0-7.3-.58-14.3-8.55-19.57,8,0,14.64-.11,21.23.1,1.16,0,2.57,1.17,3.37,2.19q30.66,38.79,61.22,77.66C768.66,273.52,769.36,274.15,770.79,275.66Z" transform="translate(-33.97 -162.23)"/><path class="cls-12" d="M532.14,194.4c19.19,1.06,38.67.38,57.49,3.61,25.41,4.35,40,23.07,41,47.67,1,24.8-13.25,45.7-37,53.2a86.75,86.75,0,0,1-22,3.82c-13.41.6-26.86.17-41.32.17,6.68-5.48,6.95-12.32,6.92-19.39-.1-24.33,0-48.65-.06-73,0-5.39-.27-10.77-5.47-14.31ZM554,289.77c19.13,4.52,40.82-1.48,50.77-15.15s9.73-39.24-.48-52.75C594.43,208.79,571.55,203,554,209.16Z" transform="translate(-33.97 -162.23)"/><path class="cls-11" d="M204.8,248.77c0-28.36,23.73-53.4,52.48-55.82,16.67-1.4,32.19,1.33,45.66,11.8,28.6,22.24,28.9,64.07.72,87-30,24.45-77,15.34-93.15-18.49-3.57-7.47-4.82-16-7.13-24.1Zm101.53,2.31c-.53-4.11-.77-8.28-1.64-12.32-6.06-28.19-33-42.55-58.31-30.69-17.54,8.24-23.54,23.37-23,41.82.73,23.71,20.1,49.12,50.94,43.23C293.38,289.49,306,273.16,306.33,251.08Z" transform="translate(-33.97 -162.23)"/><path class="cls-11" d="M361.36,248.93c.49-28.65,24.24-53.64,53.44-55.92,22.93-1.79,42.72,4.39,56.56,23.68,23.41,32.61,5.12,77.67-35.08,87.19-32.77,7.76-65-10.44-72.73-41.21C362.43,258.19,362.07,253.51,361.36,248.93Zm101.69,3.72c0-15.55-4.22-28.49-15.06-38.36-12.61-11.51-27.55-12.81-42.89-6.86-14.87,5.76-22.64,17.68-24.3,33.24-2.11,19.7,3.91,36.48,21,47.5,13.26,8.54,27.72,8.11,41.32.61C457.49,280.85,462.88,267.45,463.05,252.65Z" transform="translate(-33.97 -162.23)"/><path class="cls-1" d="M554,289.77V209.16c17.53-6.2,40.41-.37,50.29,12.71,10.21,13.51,10.32,39.22.48,52.75S573.15,294.29,554,289.77Z" transform="translate(-33.97 -162.23)"/><path class="cls-1" d="M306.33,251.08c-.36,22.08-12.95,38.41-32,42C243.5,299,224.13,273.6,223.4,249.89c-.56-18.45,5.44-33.58,23-41.82,25.27-11.86,52.25,2.5,58.31,30.69C305.56,242.8,305.8,247,306.33,251.08Z" transform="translate(-33.97 -162.23)"/><path class="cls-1" d="M463.05,252.65c-.17,14.8-5.56,28.2-19.92,36.13-13.6,7.5-28.06,7.93-41.32-.61-17.1-11-23.12-27.8-21-47.5,1.66-15.56,9.43-27.48,24.3-33.24,15.34-6,30.28-4.65,42.89,6.86C458.83,224.16,463,237.1,463.05,252.65Z" transform="translate(-33.97 -162.23)"/></svg>