<svg id="Layer_1" data-name="Layer 1" xmlns="http://www.w3.org/2000/svg" viewBox="0 0 500 250"><defs><style>.cls-1{fill:#034191;}.cls-2{fill:#fa0519;}.cls-3{fill:#004c9a;}.cls-4{fill:#034090;}.cls-5{fill:#024090;}.cls-6{fill:#fb0401;}.cls-7{fill:#fc5a03;}.cls-8{fill:#f70332;}.cls-9{fill:#03a0ca;}.cls-10{fill:#fc4100;}.cls-11{fill:#0196d5;}.cls-12{fill:#f80027;}.cls-13{fill:#016cb5;}.cls-14{fill:#ed0037;}.cls-15{fill:#04aeb7;}.cls-16{fill:#02a8bf;}.cls-17{fill:#0ab1b4;}.cls-18{fill:#0053a0;}.cls-19{fill:#f90421;}.cls-20{fill:#fb2502;}.cls-21{fill:#fc3c0a;}.cls-22{fill:#fc4d01;}.cls-23{fill:#ab0255;}.cls-24{fill:#7a1a6a;}.cls-25{fill:#462f7d;}.cls-26{fill:#002983;}.cls-27{fill:#fa708b;}</style></defs><path class="cls-1" d="M488.11,180.46a4.72,4.72,0,0,1,6.48.3l.41.4V182a10.06,10.06,0,0,0-.41,2q0,19.17,0,38.32a10.16,10.16,0,0,0,.41,2v.85a5.21,5.21,0,0,1-8.18-.28Q475.87,210.05,465,195.17c-.29-.39-.6-.76-1.12-1.43-.06.81-.14,1.32-.14,1.83q0,13.55,0,27.1a19.62,19.62,0,0,1-.25,2.28l-.12-28.77c0-.7,0-1.41,0-2.12l-.4,0v31.51l-.25.63h-.05l-5.92-.4,0-.07a13.57,13.57,0,0,0,.24-1.89q0-20.61,0-41.22a13.5,13.5,0,0,0-.33-2.07.22.22,0,0,1,.14-.21l1.06-.8c3.3-.72,5.6.18,7.7,3.16,6.76,9.62,13.87,19,20.87,28.47a8.19,8.19,0,0,0,1.32,1.15,5.55,5.55,0,0,0,.47-1.52C488.15,200.71,488.12,190.58,488.11,180.46Z"/><path class="cls-2" d="M302.71,161.12l-.72-.84q0-40.22,0-80.43,0-21.12,0-42.24a7.2,7.2,0,0,0-.51-1.88l-1.13.16.81-8.31c.1-1-.19-1.67-1.36-1.59l3.93-3.82h3a1.12,1.12,0,0,0-.16.28s.05.11.08.17l-.38.13,1,.23,1.32,1.67a14.33,14.33,0,0,0-.56,2.77q0,54,0,108.07c0,5.56,0,11.11,0,16.66a6.72,6.72,0,0,0,.82,2.09l.42.4,2.58,0h.85c.14,1.46.31,2.92.42,4.38.14,1.73-.52,2.63-2.43,2.48C308,161.31,305.37,161.25,302.71,161.12Z"/><path class="cls-3" d="M495,224.33a10.16,10.16,0,0,1-.41-2q0-19.15,0-38.32a10.06,10.06,0,0,1,.41-2Z"/><path class="cls-3" d="M495,181.16l-.41-.4.41,0Z"/><path class="cls-1" d="M340,179.83a10.87,10.87,0,0,1,2-.39c5.77,0,11.55-.06,17.32,0a22.06,22.06,0,0,1,5.06.64c10.21,2.65,13.32,13.51,6.15,21.69,4.83,3.21,6.6,7.85,5.76,13.42-.95,6.33-5.78,10.71-13,11.19s-14.66.35-22,.43a2.2,2.2,0,0,1-2.48-2.08,15.74,15.74,0,0,0,.36-2.45c0-12.21,0-24.42,0-36.63,0-1.83.2-3.66.3-5.49l0,0ZM361.07,187c-.33-.23-.66-.65-1-.65q-6-.07-12,0a5.82,5.82,0,0,0-1.54.43l-.37.39c-.07,3.77-.14,7.53-.19,11.3,0,.07.23.14.35.21,2.13,0,4.26.07,6.39,0a73.74,73.74,0,0,0,9.53-.48,5.39,5.39,0,0,0,4.31-7.37C365.64,188.27,363.43,187.48,361.07,187Zm-14.93,19.39a3.28,3.28,0,0,0-.46,1.11c0,3.54,0,7.09,0,10.63,0,.36.32.72.49,1.07,5.13,0,10.25.07,15.38,0a10.25,10.25,0,0,0,3.68-1,5.65,5.65,0,0,0,3.69-5.49,5.45,5.45,0,0,0-3.75-5.4,32.34,32.34,0,0,0-3.68-1.05c-.18-.23-.37-.67-.55-.67-4.52,0-9,0-13.55,0-.3,0-.6.29-.9.44Zm.83,13.4v.15h13.53v-.15Z"/><path class="cls-4" d="M305.53,226.88c-13.51,0-24.48-10.73-24.47-23.86s11-23.66,24.61-23.64,24.61,10.74,24.49,23.78S319,226.91,305.53,226.88ZM288.71,203c0,9,7.47,16.28,16.77,16.39s17-7.39,17-16.38-7.72-16.28-16.92-16.28S288.72,194.12,288.71,203Z"/><path class="cls-5" d="M156.89,224.75c-.75.69-1.46,1.9-2.28,2-2,.2-4,.64-5.57-1.54-3.64-5.18-7.47-10.22-11.21-15.32l-12-16.3c-.06,1.05-.12,1.64-.12,2.23q0,13.77,0,27.54c0,1.54-.21,2.87-1.88,3.41a4.7,4.7,0,0,1-5.39-1.57,5.47,5.47,0,0,0,.38-1.38q0-21.68,0-43.35a5.4,5.4,0,0,1,7.55.84q10.36,14.07,20.73,28.14c.77,1,1.72,1.95,2.58,2.93a12.26,12.26,0,0,0,.41-2.21c0-6,0-12.07,0-18.1,0-4,.2-7.92.31-11.88h0c.17-.11.33-.23.49-.35,3-1,4.89-.58,6,1.35a10.7,10.7,0,0,0-.34,1.83q0,20,0,39.93A9.06,9.06,0,0,0,156.89,224.75Z"/><path class="cls-4" d="M270.76,201.27c.57.79,1.6,1.57,1.62,2.37q.22,7.47,0,15a3.92,3.92,0,0,1-1.44,2.64c-7.52,5.67-15.82,7.32-24.74,4-8.73-3.21-14-9.61-15.55-18.76-2.09-12,6.69-24.27,19-26.62,7.59-1.45,14.6,0,20.75,4.71.94.73,2.12,2.41,1.85,3.18a8.1,8.1,0,0,1-3.16,3.75c-.58.38-2.24-.41-3.12-1.06a17.71,17.71,0,0,0-20.93-.63,16.09,16.09,0,0,0-6.72,16.79A17.19,17.19,0,0,0,252,219.21,17.42,17.42,0,0,0,263.88,217a3.07,3.07,0,0,0,1.24-2.12c.17-2,.06-4.1.06-6.37-1.51,0-2.84-.06-4.17,0-1.57.08-2.88-.23-3.4-1.9a4.61,4.61,0,0,1,1.61-5.37c2.27.14,4.55.36,6.82.38C267.62,201.66,269.19,201.41,270.76,201.27Z"/><path class="cls-4" d="M88.37,222.11C82.18,208.63,76,195.17,69.83,181.67c-.87-1.93-2.15-2.3-4-2.3s-3.24.29-4.06,2.26c-1.76,4.19-3.73,8.28-5.61,12.42q-6.43,14.14-12.87,28.28c-.62,1.37-1.07,2.71.28,3.89,1.73,1.51,6,.57,6.95-1.52,1.56-3.34,3.1-6.68,4.66-10,.33-.2.67-.57,1-.57q9.59,0,19.17,0c.42,0,.84.38,1.27.58,1.61,3.48,3.18,7,4.84,10.42.82,1.73,4.23,2.47,6.24,1.45C89.19,225.77,89.42,224.41,88.37,222.11Zm-30-15,7.34-16.26c2.57,5.61,5,10.83,7.43,16.26Z"/><path class="cls-4" d="M393.08,214.65q-2.31,5-4.64,10c-1,2.13-5.21,3.06-6.95,1.53-1.44-1.26-.84-2.69-.21-4.09q8-17.53,16-35.07c.86-1.87,1.77-3.72,2.54-5.63.67-1.68,1.87-2.1,3.55-2s3.35-.17,4.28,1.89c6.28,13.82,12.64,27.61,18.95,41.43,1.13,2.48.1,4-2.6,4.12-3.68.12-3.76.07-5.31-3.28q-2.06-4.44-4.13-8.87a5.16,5.16,0,0,0-1.64-.59q-9-.07-18.09,0A6.27,6.27,0,0,0,393.08,214.65Zm10.6-23.79-7.32,16.22h14.75Z"/><path class="cls-4" d="M22.61,179.18a26.67,26.67,0,0,1,12.88,3.43c2.43,1.37,2.54,2.49.73,5.69-1.1,2-2.15,2.18-4.43,1a17.87,17.87,0,0,0-13.61-1.72c-2.07.57-3.94,1.53-4.12,4a4.8,4.8,0,0,0,3.32,5c2.75,1.15,5.63,1.95,8.39,3.05A42.78,42.78,0,0,1,33.5,203a12.4,12.4,0,0,1,.07,20.6c-8.2,5.51-21.18,3.93-28.74-3.52-1.71-1.69-.49-3.62,1.12-5.66,1.23-1.54,2.72-1,4.1.16,4.71,3.86,10,5.64,16.08,4.15,3-.73,4.78-2.41,5-4.58.29-2.77-.87-4.69-4.08-6-2.75-1.13-5.63-1.94-8.44-2.91-1.34-.46-2.7-.91-4-1.48-6.09-2.7-8.94-7.29-8.28-13.24.57-5.23,4.68-9.34,10.77-10.62C18.92,179.53,20.78,179.41,22.61,179.18Z"/><path class="cls-6" d="M302.71,161.12c2.66.13,5.32.19,8,.4,1.91.15,2.57-.75,2.43-2.48-.11-1.46-.28-2.92-.42-4.38h4.2V75.91c0-4.25,1-5.34,5.27-5.28,3.55,0,7.09.19,10.64.3-1.82.13-3.63.33-5.44.38-4,.11-3.51-.55-3.53,3.51,0,2.57.34,2.84,3,2.92a29.28,29.28,0,0,1,3.35.45h-5.81v78.65c0,4.27-.94,5.2-5.28,5.2-4.49,0-9,.05-13.47,0A11.07,11.07,0,0,1,302.71,161.12Z"/><path class="cls-7" d="M430.38,154.69c2.08.87,2.91,2.25,2.57,4.24a3.63,3.63,0,0,1-3.82,3c-10.53,0-21.06.07-31.59-.07a6,6,0,0,1-3.63-1.78c-6.45-6.22-12.78-12.56-19.17-18.83a11.12,11.12,0,0,0-1.65-1.12,4.34,4.34,0,0,0-.46,1.32c0,6.14,0,12.28.06,18.42l.07,0-.55.88-.36.37-.94.46,0,0-2.62,0h0a4.27,4.27,0,0,1-.24-1c.06-2.5.17-5,.21-7.5,0-1.74,0-3.48-.05-5.22,0-2.62,0-5.23-.05-7.85,0-3.11.05-6.24-.19-9.34-.18-2.17.05-2.74,2.46-3.25l.85.07c.59.49,1.22.94,1.77,1.47,8.21,8.08,16.39,16.19,24.65,24.22a4.66,4.66,0,0,0,2.93,1.2c9,.09,18.07,0,27.1.07a17.74,17.74,0,0,1,2.28.28H399.17a.88.88,0,0,0,.8.46q14.4,0,28.82,0A7.07,7.07,0,0,0,430.38,154.69Z"/><path class="cls-8" d="M272.15,65.43c.05,3.82.14,7.65.16,11.48,0,6.18,0,12.36,0,18.54,0,1.57.09,2.79,1.87,3.48a13.81,13.81,0,0,1,3,2.3,16.75,16.75,0,0,1,.11,1.87,48.07,48.07,0,0,1-.38,5c-.08.53-.73,1-1.11,1.46h0l-1.74-1.31,0,0-.95-.66a.23.23,0,0,1-.18-.2l.18-.25-.25.16a.7.7,0,0,0-.38,0l-.49,0a10.94,10.94,0,0,0-.38,2q0,21.49,0,43a10.19,10.19,0,0,0,.39,2,.72.72,0,0,0,.36.06,1.15,1.15,0,0,1,.11.31,7.07,7.07,0,0,0,2.16.45c1.73-.16,2.27.54,2.12,2.19-.12,1.41,0,2.83,0,4.25-.77,0-1.55,0-2.32,0-2.22.12-4.43.27-6.65.4l-2.45-1.53,2,.6V121.56q0-29.48,0-58.94c0-1,.41-2.24-1.11-2.63L272,54.18l.26.16-.18-.27a.22.22,0,0,1,.17-.16l.28-.29.15-.15c.09-.09.19-.18.28-.28a.28.28,0,0,1,.15-.15l.27-.27a.23.23,0,0,1,.16-.16l.26-.27a.24.24,0,0,1,.17-.17,3,3,0,0,0,.25-.25.23.23,0,0,1,.19-.18l.28,0,0-.28a.21.21,0,0,1,.19-.19l.28,0-.06-.27a.23.23,0,0,1,.21-.21l.28.05-.06-.27a.23.23,0,0,1,.21-.21l.27.06-.06-.27a.22.22,0,0,1,.22-.22l.27.06-.07-.26a.23.23,0,0,1,.24-.24l.26.07-.08-.25a.24.24,0,0,1,.25-.25l.25.07-.08-.25a.25.25,0,0,1,.26-.26l.25.08-.09-.24a.25.25,0,0,1,.23-.28h.62l.38-1c.85-.85,1.7-1.7,2.54-2.56a18.26,18.26,0,0,1,.9,2.64c.37,2,.62,4.08.91,6.12l-3.31,3.35-.52.5.06,0-.48.49.05-.06-.47.48,0,0-5.64,5.53,0,0-.44.66,0,.14-.13.06a7.33,7.33,0,0,0-.72,2.16c-.05,7.9,0,15.8,0,23.71v6.57a83.18,83.18,0,0,0,.38-9.33Q272.07,76.53,272.15,65.43Z"/><path class="cls-9" d="M134.26,154.67a11.07,11.07,0,0,0,.43-2.18c0-4.83-.11-9.66.06-14.49.2-5.29,2.27-9.74,7.29-12.1a12.47,12.47,0,0,1,13.31,1.17c3.85,2.81,5.3,6.9,5.37,11.52.08,5.33.07,10.65.1,16-.15,2.27-.3,4.54-.44,6.64l-4.29.7c-2.27-.35-3-1.89-3-3.94,0-6.47,0-12.95,0-19.42,0-3.29-1.64-5.63-4.18-6.15-3.65-.76-6.45,1.73-6.49,5.91,0,6.33,0,12.66,0,19,0,3.53-1.21,4.75-4.72,4.74-1.28,0-2.55-.06-3.83-.09C135.44,160.78,135.7,156.5,134.26,154.67Z"/><path class="cls-10" d="M352.93,161.89l-2-1.26.11-.17-.31-.19,0,0q0-31,0-62a4.91,4.91,0,0,0-.4-1.36c-.57-1-1.49-2-1.64-3.08a57.65,57.65,0,0,1-.35-7.21c0-.29.52-.59.8-.89l.8.77c.2,1.3.77,2.19,2.26,2.09h0l.45.4-.13.11.14-.1.43.39,0,0,.39.36.08.06.65,1,3,3.16.24.69c0,4.27.09,8.53.09,12.79q0,22.17,0,44.35v2.67h7.72c-2,.16-4,.41-6,.44-1.31,0-1.77.46-1.7,1.75.08,1.55,0,3.12,0,4.68Z"/><path class="cls-5" d="M164.84,185.1c-.06-1-.21-2.1-.17-3.15a2.32,2.32,0,0,1,2.53-2.52q15.77,0,31.51,0a2.4,2.4,0,0,1,.61.16l1.06.84,0,.15.06,5-.11.16-.24.27a.24.24,0,0,1-.18.16c-3.79,0-7.59,0-11.38.14a7.44,7.44,0,0,0-2,.61l0,.13-.1.09a10.19,10.19,0,0,0-.39,2q0,16.77,0,33.55a11.84,11.84,0,0,0,.36,2c-1.06,2.3-3,2.3-5.1,2l-1.35-.63,0,0-.62-.66,0-.13.11-.08a6.23,6.23,0,0,0,.16-1q0-17.79,0-35.57a5.31,5.31,0,0,0-.48-1.53l-.34-.37a14.16,14.16,0,0,0-2.19-.44c-3.73-.16-7.47-.25-11.2-.36l0,0c0-.44-.07-.87-.1-1.31Z"/><path class="cls-11" d="M156.09,161.91l4.29-.7c.14-2.1.29-4.37.44-6.64h7.68v-2.46c0-7.31-.07-14.63,0-21.94.11-8.46,5.43-15.1,13.28-16.75a17.73,17.73,0,0,1,2.53-.17h1.27l1.23,6.79H184.1l.21.67c-5.18,1-8.07,4.35-8.1,9.73-.05,8.88,0,17.77,0,26.66,0,3.79-1.15,5-4.94,4.93C166.19,162,161.14,162,156.09,161.91Z"/><path class="cls-12" d="M275.81,109.51c.38-.48,1-.93,1.11-1.46a48.07,48.07,0,0,0,.38-5,16.75,16.75,0,0,0-.11-1.87l7.35,5.52,2.29,1.85.09.15c0,1.33.1,2.65.1,4,0,12.74,0,25.48,0,38.22,0,3.26-.24,6.51-.36,9.77l0,0-9.92.8c0-1.42-.09-2.84,0-4.25.15-1.65-.39-2.35-2.12-2.19a7.07,7.07,0,0,1-2.16-.45l7.65-.37a7.42,7.42,0,0,0,.43-1.76q0-19,0-37.94a6.48,6.48,0,0,0-.49-1.71Z"/><path class="cls-13" d="M184.31,120.71l-.21-.67h2.74l-1.23-6.79c8-.2,15.38,6.74,15.79,14.92a5.44,5.44,0,0,0-.37,1.38q0,11.58,0,23.17a5.49,5.49,0,0,0,.51,1.49l.34.4a30,30,0,0,0,3.87.45c1.3,0,1.77.46,1.7,1.75-.09,1.55,0,3.11,0,4.67-.85,0-1.7,0-2.54,0-2.14.12-4.27.28-6.41.43-3,.15-4.36-1.06-4.37-4.07,0-9,0-18,0-26.93,0-5.22-2.38-8.49-7.18-10.11l-.85-.08Z"/><path class="cls-5" d="M435.86,179.67a24.33,24.33,0,0,1,4-.18c1.77.2,2.11,1.57,2.1,3.15,0,8.89,0,17.77,0,26.66,0,4.69,0,9.38,0,14.07,0,1.56-.25,2.86-1.92,3.38a4.63,4.63,0,0,1-5.38-1.59,10.27,10.27,0,0,0,.4-2q0-20.25,0-40.48a16.54,16.54,0,0,0-.25-2.09l.09-.12Z"/><path class="cls-5" d="M103.5,225.46a4.28,4.28,0,0,1-6.53,0q0-22.39,0-44.81l0,0,.21-.35a5.47,5.47,0,0,1,6.21,0l-.1.17.3.19,0,0Q103.51,203.06,103.5,225.46Z"/><path class="cls-14" d="M266.22,60c1.52.39,1.11,1.63,1.11,2.63q0,29.46,0,58.94V161l-2-.6v0l-.45-1-.05-.45a10.73,10.73,0,0,0,.36-1.81q0-27,0-53.91a7.59,7.59,0,0,0-.51-1.92q-3.37-2.57-6.76-5.12a5.42,5.42,0,0,0,.91-1.79c.24-2.14.32-4.3.47-6.45l5.48,3.48a8.26,8.26,0,0,0,.41-1.79q0-12.83,0-25.64a8.44,8.44,0,0,0-.35-1.61l.07-.45.53-1,.12.17-.11-.17.36-.47.05,0,.37-.39Z"/><path class="cls-15" d="M116.29,141.74c-3.21.2-4.4,1.44-4.41,4.71,0,3.56,0,7.12,0,10.68,0,3.73-1.16,4.91-4.81,4.91Q89,162,70.91,162a16.45,16.45,0,0,1-2.49-.37c1-.05,2-.14,3-.14H97c4.33,0,4.23,0,4.33-4.24.05-1.87-.65-2.22-2.34-2.2-9.18.07-18.36,0-27.54,0a13.23,13.23,0,0,1-2.24-.36c6.89,0,13.79-.1,20.69-.13,4.68,0,9.36,0,14.36,0,0-3.12,0-6.07,0-9,0-6.93,5.07-11.71,12-11.34Z"/><path class="cls-16" d="M116.29,141.74v-7.53l.85.06,1.28.34a10.67,10.67,0,0,1,8.5,10.32c0,3.12,0,6.25,0,9.74h7.33c1.44,1.83,1.18,6.11-.43,7.27-3.33,0-6.66.09-10,.09s-4.52-1.25-4.54-4.44c0-3.69-.1-7.37,0-11.05C119.36,144.18,118.5,142.58,116.29,141.74Z"/><path class="cls-17" d="M69.23,154.71a13.23,13.23,0,0,0,2.24.36c9.18,0,18.36.06,27.54,0,1.69,0,2.39.33,2.34,2.2-.1,4.24,0,4.24-4.33,4.24H71.4c-1,0-2,.09-3,.14a3.67,3.67,0,0,1,.81-6.94Z"/><path class="cls-3" d="M198.46,161.93c2.14-.15,4.27-.31,6.41-.43.84-.05,1.69,0,2.54,0a32.11,32.11,0,0,1,3.4,0c1.86.22,2.28-.6,2.22-2.31-.12-3.26,0-6.53,0-9.79q0-19.8,0-39.61c0-1.07.19-2.22-1.4-2.33l4-3.19.29-.21,0,0,.53-.42,0,0c1.28,0,1.36.78,1.4,1.81.07,2,.29,4,.44,6l0,0-.4.53.05,0-.53.45-.29.37a9.68,9.68,0,0,0-.57,2.3q-.06,21,0,42a14.29,14.29,0,0,0,.35,2.24A3.11,3.11,0,0,1,213.5,162C208.49,162,203.47,162,198.46,161.93Z"/><path class="cls-18" d="M211.6,107.48c1.59.11,1.4,1.26,1.4,2.33q0,19.8,0,39.61c0,3.26-.09,6.53,0,9.79.06,1.71-.36,2.53-2.22,2.31a32.11,32.11,0,0,0-3.4,0c0-1.56,0-3.12,0-4.67.07-1.29-.4-1.75-1.7-1.75a30,30,0,0,1-3.87-.45l7.67-.38A11.31,11.31,0,0,0,210,152q0-19.8,0-39.59a13.44,13.44,0,0,0-.36-2.23l.06-.44.51-1,0,0,.35-.42.07-.09.95-.73Z"/><path class="cls-19" d="M283.21,53.47c-.29-2-.54-4.1-.91-6.12a18.26,18.26,0,0,0-.9-2.64l.79-.79.5-.49-.05,0,.48-.48,0,0,4.26-4.34,0,0,1.3-1.35,0,0L289,37l0,0,.46-.47,0,0,.45-.47,0,0,.46-.47,0,0,.45-.47,0,0,.46-.46,0,0,.45-.46,0,0L292,34l.07.09L292,34l.44-.46.11.11-.13-.09.44-.45.13.12-.14-.1.43-.45.16.13-.17-.11.43-.45.14.09-.14-.08c.14-.15.28-.29.41-.44l.08.14-.07-.14.42-.43.08.14-.07-.14c.14-.14.27-.29.4-.43l.12.12-.1-.13.4-.41,0,0,.39-.4,0,0,.38-.39.05,0,.37-.38.06-.06.36-.37.07-.07.35-.36.08-.07.33-.35.1-.09.33-.33.06-.09.63-.65.81-.81c1.17-.08,1.46.59,1.36,1.59l-.81,8.31v0l-.46.46,0,0-.46.47-.38.38-.31.57v0l-.42.43-.08-.14.07.15-.41.42-.08-.13a.91.91,0,0,0,.07.14l-.41.42-.12-.13.1.15-.4.41,0,0-.39.4,0,0-.39.39,0,0-.37.38-.06.06-.36.36-.07.07-.36.36-.07.07-.35.36-.08.08-.34.34-.09.09-.33.34-.1.09-.33.33-.1.1-.32.33-.11.11-.31.31-.12.12-.3.31-.13.12-.3.3-.13.13-.29.3-.14.14-.28.28a.28.28,0,0,1-.15.15l-.27.28a.22.22,0,0,1-.16.15l-.26.27a.21.21,0,0,1-.18.17l-.24.25a.23.23,0,0,1-.19.19l-.23.23a.22.22,0,0,1-.2.2l-.27,0,0,.27a.2.2,0,0,1-.2.2l-.27,0,.05.26a.22.22,0,0,1-.21.22l-.26-.05.05.25a.22.22,0,0,1-.23.23l-.25-.05.06.25a.25.25,0,0,1-.25.26l-.24-.19.19.23Z"/><path class="cls-20" d="M330.19,78.19a29.28,29.28,0,0,0-3.35-.45c-2.66-.08-3-.35-3-2.92,0-4.06-.45-3.4,3.53-3.51,1.81,0,3.62-.25,5.44-.38,1.52,1.19,3.09,2.34,4.55,3.6,1.23,1.06,2.34,2.25,3.5,3.38a9.87,9.87,0,0,0-1.16,2.32c-.4,2-.61,4-.9,6.06Z"/><path class="cls-21" d="M338.8,86.29c.29-2,.5-4.06.9-6.06a9.87,9.87,0,0,1,1.16-2.32h0l.65.64.78.74.5.52-.06-.06.51.47,0,0,.82.94,0,0,.38.18,4.83,4.53c-.28.3-.8.6-.8.89a57.65,57.65,0,0,0,.35,7.21c.15,1.08,1.07,2,1.64,3.08q0,29.92,0,59.86c0,.78-.08,1.56-.13,2.34-.09-.84-.25-1.67-.26-2.51q0-28.92,0-57.86a3.35,3.35,0,0,0-1.21-2.9C345.31,92.85,342.1,89.52,338.8,86.29Z"/><path class="cls-22" d="M357.64,161.49c0-1.56.06-3.13,0-4.68-.07-1.29.39-1.74,1.7-1.75,2,0,4-.28,6-.44l.35-.36a5.28,5.28,0,0,0,.47-1.53c0-7.93,0-15.87,0-23.8l-.05,0,1-1.26,3.43-.73v.33h0c-2.41.51-2.64,1.08-2.46,3.25.24,3.1.16,6.23.19,9.34,0,2.62,0,5.23.05,7.85,0,1.74.08,3.48.05,5.22,0,2.5-.15,5-.21,7.5a4.27,4.27,0,0,0,.24,1Z"/><path class="cls-5" d="M201.66,208.56c-1.85-3.63-.49-6,3.4-6s7.67,0,11.51,0c1.53,0,2.64.46,2.94,2.11.49,2.61,0,3.95-1.8,4.73a5.29,5.29,0,0,0-1.35-.39c-4.72,0-9.44,0-14.16,0l.06.05Z"/><path class="cls-23" d="M259.29,87.92c-.15,2.15-.23,4.31-.47,6.45a5.42,5.42,0,0,1-.91,1.79c-3-2.22-6.05-4.47-9.11-6.64a7.42,7.42,0,0,0-2-.68q0-4.44,0-8.89a9.22,9.22,0,0,1,3,.8c2.8,1.93,5.46,4.06,8.18,6.11l1.34,1.07Z"/><path class="cls-6" d="M308.85,154.24a6.72,6.72,0,0,1-.82-2.09c-.06-5.55,0-11.1,0-16.66q0-54,0-108.07a14.33,14.33,0,0,1,.56-2.77,11.85,11.85,0,0,1,.29,1.85q0,63.66,0,127.31C308.88,154,308.86,154.09,308.85,154.24Z"/><path class="cls-6" d="M301.47,35.73a7.2,7.2,0,0,1,.51,1.88q0,21.12,0,42.24,0,40.22,0,80.43l-.45-1.25-.11-.47c-.05-.78-.14-1.56-.14-2.34q0-58.86,0-117.73C301.29,37.57,301.41,36.65,301.47,35.73Z"/><path class="cls-24" d="M246.8,80q0,4.45,0,8.89L236.62,97a15.54,15.54,0,0,1-.5-2.12c-.2-2.21-.33-4.42-.49-6.63,3.08-2.51,6.14-5,9.26-7.5A7.77,7.77,0,0,1,246.8,80Z"/><path class="cls-25" d="M235.63,88.25c.16,2.21.29,4.42.49,6.63a15.54,15.54,0,0,0,.5,2.12l-10.19,8.15c-.34-.52-.92-1-1-1.56-.26-2.25-.36-4.52-.51-6.78Z"/><path class="cls-6" d="M286.65,160.72c.12-3.26.35-6.51.36-9.77,0-12.74,0-25.48,0-38.22,0-1.33-.06-2.65-.1-4a15,15,0,0,1,.66,3q.06,22.8,0,45.61A12.92,12.92,0,0,1,286.65,160.72Z"/><path class="cls-5" d="M218.17,111.54c-.15-2-.37-4-.44-6,0-1-.12-1.83-1.4-1.81l4-3.12c1.28.22,1.7,1,1.66,2.27-.05,1.91.05,3.82.09,5.74l-.11-.08.11.07-.94.39Z"/><path class="cls-4" d="M456.57,180.58a13.5,13.5,0,0,1,.33,2.07q0,20.61,0,41.22a13.57,13.57,0,0,1-.24,1.89,10.9,10.9,0,0,1-.55-2.41q-.06-20.26,0-40.55A11.72,11.72,0,0,1,456.57,180.58Z"/><path class="cls-18" d="M434.81,180.59a16.54,16.54,0,0,1,.25,2.09q0,20.23,0,40.48a10.27,10.27,0,0,1-.4,2,17.77,17.77,0,0,1-.29-2.28q0-19.81,0-39.62A16.52,16.52,0,0,1,434.81,180.59Z"/><path class="cls-4" d="M222.09,108.62c0-1.92-.14-3.83-.09-5.74,0-1.27-.38-2-1.66-2.27l4.6-3.8c.15,2.26.25,4.53.51,6.78.06.55.64,1,1,1.56Z"/><path class="cls-20" d="M350.23,159.18c0-.78.13-1.56.13-2.34q0-29.93,0-59.86a4.91,4.91,0,0,1,.4,1.36q0,31,0,62C350.56,159.93,350.4,159.55,350.23,159.18Z"/><path class="cls-12" d="M264.67,101.28a7.59,7.59,0,0,1,.51,1.92q0,27,0,53.91a10.73,10.73,0,0,1-.36,1.81c0-3.27-.09-6.54-.1-9.82Z"/><path class="cls-26" d="M216.79,159.35a14.29,14.29,0,0,1-.35-2.24q0-21,0-42a9.68,9.68,0,0,1,.57-2.3q0,21.88-.06,43.78C217,157.52,216.85,158.43,216.79,159.35Z"/><path class="cls-26" d="M339.55,180.17c-.1,1.83-.3,3.66-.3,5.49,0,12.21,0,24.42,0,36.63a15.74,15.74,0,0,1-.36,2.45q0-21.35-.05-42.7A5.7,5.7,0,0,1,339.55,180.17Z"/><path class="cls-26" d="M118.8,180.45q0,21.68,0,43.35a5.47,5.47,0,0,1-.38,1.38c-.07-.77-.22-1.54-.22-2.31q0-19.8,0-39.61A14.81,14.81,0,0,1,118.8,180.45Z"/><path class="cls-26" d="M103.5,225.46q0-22.41,0-44.81a10,10,0,0,1,.4,2q0,20.42,0,40.84A10,10,0,0,1,103.5,225.46Z"/><path class="cls-26" d="M97,180.64q0,22.41,0,44.81a12,12,0,0,1-.41-2.18q0-20.22,0-40.42A12.23,12.23,0,0,1,97,180.64Z"/><path class="cls-5" d="M209.62,110.22a13.44,13.44,0,0,1,.36,2.23q0,19.8,0,39.59a11.31,11.31,0,0,1-.43,2.19Z"/><path class="cls-26" d="M156.89,224.75a9.06,9.06,0,0,1-.36-1.81q0-20,0-39.93a10.7,10.7,0,0,1,.34-1.83c0,3.06.12,6.11.12,9.17Q157,207.56,156.89,224.75Z"/><path class="cls-26" d="M179.12,187.12a5.31,5.31,0,0,1,.48,1.53q0,17.79,0,35.57a6.23,6.23,0,0,1-.16,1,7.38,7.38,0,0,1-.35-1.57Q179.09,205.41,179.12,187.12Z"/><path class="cls-26" d="M186.41,224.74a11.84,11.84,0,0,1-.36-2q0-16.77,0-33.55a10.19,10.19,0,0,1,.39-2Q186.42,205.95,186.41,224.74Z"/><path class="cls-6" d="M272.15,65.43q-.07,11.08-.14,22.18a83.18,83.18,0,0,1-.38,9.33V90.37c0-7.91,0-15.81,0-23.71a7.33,7.33,0,0,1,.72-2.16C272.3,64.81,272.23,65.12,272.15,65.43Z"/><path class="cls-26" d="M150.41,180.17c-.11,4-.27,7.92-.31,11.88,0,6,0,12.07,0,18.1a12.26,12.26,0,0,1-.41,2.21c0-10,0-19.93,0-29.9A7.94,7.94,0,0,1,150.41,180.17Z"/><path class="cls-26" d="M462.92,225.59V194.08l.4,0c0,.71,0,1.42,0,2.12l.12,28.77-.23.65Z"/><path class="cls-10" d="M430.38,154.69a7.07,7.07,0,0,1-1.59.38q-14.42,0-28.82,0a.88.88,0,0,1-.8-.46h30.88A.27.27,0,0,1,430.38,154.69Z"/><path class="cls-26" d="M488.11,180.46c0,10.12,0,20.25,0,30.37a5.55,5.55,0,0,1-.47,1.52q-.06-15.07-.07-30.13A6.43,6.43,0,0,1,488.11,180.46Z"/><path class="cls-12" d="M264.84,62.36a8.44,8.44,0,0,1,.35,1.61q0,12.82,0,25.64a8.26,8.26,0,0,1-.41,1.79Q264.8,76.88,264.84,62.36Z"/><path class="cls-18" d="M201.54,154.21a5.49,5.49,0,0,1-.51-1.49q0-11.59,0-23.17a5.44,5.44,0,0,1,.37-1.38Q201.47,141.19,201.54,154.21Z"/><path class="cls-10" d="M366.13,128.93c0,7.93.05,15.87,0,23.8a5.28,5.28,0,0,1-.47,1.53c0-7.78,0-15.56,0-23.34A9.65,9.65,0,0,1,366.13,128.93Z"/><path class="cls-26" d="M270.76,201.27c-1.57.14-3.14.39-4.72.38-2.27,0-4.55-.24-6.82-.38Z"/><path class="cls-26" d="M55.14,214.67c.33-.2.67-.57,1-.57q9.59,0,19.17,0c.42,0,.84.38,1.27.58Z"/><path class="cls-26" d="M393.08,214.65a6.27,6.27,0,0,1,1.7-.56q9-.06,18.09,0a5.16,5.16,0,0,1,1.64.59Z"/><path class="cls-6" d="M276.75,161.49l9.92-.8c-.83.44-1.66,1.26-2.49,1.27-5.47.08-10.93,0-16.4-.05,2.22-.13,4.43-.28,6.65-.4C275.2,161.47,276,161.5,276.75,161.49Z"/><path class="cls-10" d="M372.69,159.88c0-6.14-.06-12.28-.06-18.42a4.34,4.34,0,0,1,.46-1.32c0,6,.05,12,0,18A7.32,7.32,0,0,1,372.69,159.88Z"/><path class="cls-19" d="M272.94,63.68l5.64-5.53Z"/><path class="cls-26" d="M202.2,209c4.72,0,9.44-.06,14.16,0a5.29,5.29,0,0,1,1.35.39c-4.8.05-9.59.1-14.39.11A3.38,3.38,0,0,1,202.2,209Z"/><path class="cls-20" d="M357.64,161.49h10.69c0,.14,0,.28,0,.41l-15.39,0Z"/><path class="cls-26" d="M186.51,186.93a7.44,7.44,0,0,1,2-.61c3.79-.1,7.59-.1,11.38-.14a11.06,11.06,0,0,1-2.35.58C193.89,186.86,190.2,186.88,186.51,186.93Z"/><path class="cls-26" d="M165.39,186c3.73.11,7.47.2,11.2.36a14.16,14.16,0,0,1,2.19.44c-3.73,0-7.45.07-11.17,0A7.53,7.53,0,0,1,165.39,186Z"/><path class="cls-2" d="M287.34,38.7,283.08,43Z"/><path class="cls-4" d="M456.7,225.83l5.92.4C460.58,227.14,458.58,227.41,456.7,225.83Z"/><path class="cls-26" d="M200.46,185.59l-.06-5Z"/><path class="cls-21" d="M352.24,88.66c-1.49.1-2.06-.79-2.26-2.09Z"/><path class="cls-6" d="M286.83,108.6l-2.29-1.85Z"/><path class="cls-6" d="M311.85,154.66l-2.58,0Z"/><path class="cls-10" d="M368.32,161.92c0-.13,0-.27,0-.41l2.62,0Z"/><path class="cls-26" d="M180,226.11l1.35.63Z"/><path class="cls-15" d="M118.42,134.61l-1.28-.34Z"/><path class="cls-2" d="M288.61,37.39l-1.3,1.35Z"/><path class="cls-14" d="M259.29,87.93,258,86.86Z"/><path class="cls-10" d="M367,127.71l-1,1.26Z"/><path class="cls-20" d="M344,81.11l-.82-.94Z"/><path class="cls-26" d="M200.38,180.45l-1.06-.84Z"/><path class="cls-4" d="M457.77,179.57l-1.06.8Z"/><path class="cls-26" d="M164.84,185.1l.47-.44c0,.44.06.87.1,1.31Z"/><path class="cls-6" d="M307.26,23l-1-.23.38-.13Z"/><path class="cls-3" d="M210.19,108.77l-.51,1Z"/><path class="cls-8" d="M265.44,60.91l-.53,1Z"/><path class="cls-8" d="M264.88,159.37l.45,1Z"/><path class="cls-3" d="M211.6,107.49l-.95.73Z"/><path class="cls-21" d="M354.27,91l-.65-1Z"/><path class="cls-18" d="M435.86,179.67l-1,.8Z"/><path class="cls-2" d="M299,26.8l-.63.65Z"/><path class="cls-4" d="M221.15,109l.94-.39Z"/><path class="cls-20" d="M341.49,78.55l-.65-.64Z"/><path class="cls-22" d="M371.32,127.38l-.85-.07h0l.53,0A.29.29,0,0,1,371.32,127.38Z"/><path class="cls-11" d="M186,120.74l.85.08Z"/><path class="cls-10" d="M372.21,160.73l.55-.88Z"/><path class="cls-10" d="M370.91,161.56l.94-.46Z"/><path class="cls-19" d="M278.48,48.25h-.62l.57-.55Z"/><path class="cls-2" d="M278.48,48.25l-.05-.54.43-.44Z"/><path class="cls-26" d="M150.87,179.83c-.16.12-.32.24-.49.35C150.55,180.07,150.71,180,150.87,179.83Z"/><path class="cls-26" d="M340,179.83l-.48.36Z"/><path class="cls-26" d="M179.36,225.47l.62.66Z"/><path class="cls-4" d="M462.92,225.59h.29l-.54.62Z"/><path class="cls-2" d="M293.68,32.23l-.43.45Z"/><path class="cls-21" d="M353.12,89.47l-.43-.39Z"/><path class="cls-5" d="M216.37,103.7l-.53.42Z"/><path class="cls-21" d="M352.68,89.07l-.45-.4Z"/><path class="cls-5" d="M215.86,104.08l-.29.21A.29.29,0,0,1,215.86,104.08Z"/><path class="cls-20" d="M344.35,81.27l-.38-.18A.68.68,0,0,1,344.35,81.27Z"/><path class="cls-20" d="M343.22,80.22l-.51-.47Z"/><path class="cls-20" d="M342.77,79.81l-.5-.52Z"/><path class="cls-19" d="M272.53,64.3l.44-.66Z"/><path class="cls-3" d="M210.58,108.31l-.35.42Z"/><path class="cls-21" d="M353.54,89.86l-.39-.36Z"/><path class="cls-8" d="M265.81,60.44l-.36.47Z"/><path class="cls-5" d="M217.79,112.05l.4-.53Z"/><path class="cls-5" d="M217.31,112.45l.53-.45Z"/><path class="cls-19" d="M278.54,58.18l.47-.48Z"/><path class="cls-19" d="M279,57.76l.48-.49Z"/><path class="cls-13" d="M184.75,113.25h-.41A.49.49,0,0,1,184.75,113.25Z"/><path class="cls-8" d="M266.23,60l-.37.39Z"/><path class="cls-19" d="M279.38,57.32l.52-.5Z"/><path class="cls-19" d="M272.12,54.07l.18.27-.26-.16Z"/><path class="cls-19" d="M272.57,53.62l-.28.29A.53.53,0,0,1,272.57,53.62Z"/><path class="cls-7" d="M371,127.26l-.53,0V127Z"/><path class="cls-19" d="M273,53.19c-.09.1-.19.19-.28.28A.55.55,0,0,1,273,53.19Z"/><path class="cls-19" d="M273.42,52.77l-.27.27A.59.59,0,0,1,273.42,52.77Z"/><path class="cls-19" d="M273.84,52.34l-.26.27A.57.57,0,0,1,273.84,52.34Z"/><path class="cls-22" d="M357.54,94.81l-.24-.69Z"/><path class="cls-19" d="M274.26,51.92a3,3,0,0,1-.25.25A.6.6,0,0,1,274.26,51.92Z"/><path class="cls-19" d="M274.69,51.5l0,.28-.28,0A.51.51,0,0,1,274.69,51.5Z"/><path class="cls-19" d="M275.1,51.08l.06.27-.28,0A.54.54,0,0,1,275.1,51.08Z"/><path class="cls-19" d="M275.53,50.65l.06.27-.28-.05A.77.77,0,0,1,275.53,50.65Z"/><path class="cls-19" d="M276,50.23l.06.27-.27-.06A1,1,0,0,1,276,50.23Z"/><path class="cls-19" d="M276.37,49.81l.07.26-.27-.06A1,1,0,0,1,276.37,49.81Z"/><path class="cls-19" d="M276.79,49.39l.08.25-.26-.07A1,1,0,0,1,276.79,49.39Z"/><path class="cls-2" d="M301.43,158.56l.11.47a2.82,2.82,0,0,1-.21-.31S301.39,158.61,301.43,158.56Z"/><path class="cls-20" d="M350.69,160.27l.31.19-.11.17Z"/><path class="cls-2" d="M287.11,49.53l-.19-.23.24.19Z"/><path class="cls-2" d="M298.29,27.54l-.33.33Z"/><path class="cls-19" d="M277.21,49l.08.25-.25-.07Z"/><path class="cls-2" d="M287.41,49.23l-.06-.25.25.05A.9.9,0,0,1,287.41,49.23Z"/><path class="cls-19" d="M277.63,48.54l.09.24-.25-.08Z"/><path class="cls-2" d="M287.83,48.8l-.05-.25.26.05A.8.8,0,0,1,287.83,48.8Z"/><path class="cls-2" d="M288.25,48.38l-.05-.26.27,0A.52.52,0,0,1,288.25,48.38Z"/><path class="cls-2" d="M297.86,28l-.33.35Z"/><path class="cls-2" d="M288.67,48l0-.27.27,0A.51.51,0,0,1,288.67,48Z"/><path class="cls-2" d="M297.45,28.38l-.35.36Z"/><path class="cls-2" d="M297,28.81l-.36.37Z"/><path class="cls-2" d="M289.1,47.53l.23-.23A.51.51,0,0,1,289.1,47.53Z"/><path class="cls-2" d="M289.52,47.11l.24-.25A.45.45,0,0,1,289.52,47.11Z"/><path class="cls-2" d="M289.94,46.69l.26-.27A.49.49,0,0,1,289.94,46.69Z"/><path class="cls-2" d="M296.61,29.24l-.37.38C296.36,29.49,296.48,29.36,296.61,29.24Z"/><path class="cls-2" d="M290.36,46.27l.27-.28A.53.53,0,0,1,290.36,46.27Z"/><path class="cls-2" d="M296.19,29.66l-.38.39Z"/><path class="cls-2" d="M295.77,30.09l-.39.4Z"/><path class="cls-2" d="M295.35,30.52l-.4.41Z"/><path class="cls-26" d="M97.13,180.32l-.21.35Z"/><path class="cls-26" d="M103.54,180.68l-.3-.19.1-.17Z"/><path class="cls-2" d="M290.78,45.84l.28-.28A.51.51,0,0,1,290.78,45.84Z"/><path class="cls-2" d="M291.2,45.42l.29-.3A.53.53,0,0,1,291.2,45.42Z"/><path class="cls-2" d="M291.62,45l.3-.3Z"/><path class="cls-2" d="M292.05,44.57l.3-.31Z"/><path class="cls-2" d="M292.47,44.14l.31-.31Z"/><path class="cls-2" d="M282.69,43.43l-.5.49Z"/><path class="cls-2" d="M292.89,43.72l.32-.33Z"/><path class="cls-2" d="M283.12,43l-.48.48Z"/><path class="cls-2" d="M293.31,43.29l.33-.33Z"/><path class="cls-2" d="M293.74,42.87l.33-.34Z"/><path class="cls-2" d="M294.16,42.44l.34-.34Z"/><path class="cls-2" d="M294.93,30.94c-.13.14-.26.29-.4.43C294.66,31.22,294.8,31.08,294.93,30.94Z"/><path class="cls-2" d="M289.88,36.1l-.45.47Z"/><path class="cls-2" d="M294.58,42l.35-.36Z"/><path class="cls-2" d="M295,41.59l.36-.36Z"/><path class="cls-2" d="M295.43,41.16l.36-.36Z"/><path class="cls-2" d="M295.85,40.74l.37-.38Z"/><path class="cls-2" d="M296.26,40.31l.39-.39Z"/><path class="cls-2" d="M296.68,39.89l.39-.4Z"/><path class="cls-2" d="M297.1,39.46l.4-.41Z"/><path class="cls-2" d="M297.52,39l.41-.42Z"/><path class="cls-2" d="M297.94,38.6l.41-.42Z"/><path class="cls-2" d="M298.36,38.17l.42-.43Z"/><path class="cls-2" d="M298.77,37.72l.31-.57Z"/><path class="cls-2" d="M289,37l-.46.47Z"/><path class="cls-2" d="M289.46,36.53,289,37Z"/><path class="cls-2" d="M299.46,36.77l.46-.47Z"/><path class="cls-2" d="M299.89,36.33l.46-.46Z"/><path class="cls-2" d="M290.31,35.67l-.46.47Z"/><path class="cls-2" d="M290.73,35.24l-.45.47Z"/><path class="cls-26" d="M201.66,208.56l.6.5Z"/><path class="cls-2" d="M291.16,34.81l-.46.46Z"/><path class="cls-2" d="M291.58,34.38l-.45.46Z"/><path class="cls-2" d="M292,34l-.45.46Z"/><path class="cls-2" d="M292.42,33.52,292,34C292.12,33.82,292.27,33.67,292.42,33.52Z"/><path class="cls-2" d="M294.52,31.37l-.42.43Z"/><path class="cls-2" d="M292.84,33.09l-.44.45Z"/><path class="cls-2" d="M293.26,32.66l-.43.45Z"/><path class="cls-2" d="M294.09,31.8c-.13.15-.27.29-.41.44Z"/><path class="cls-26" d="M200.11,186l.24-.27A.62.62,0,0,1,200.11,186Z"/><path class="cls-26" d="M361.49,206.22l-15-.23c.3-.15.6-.44.9-.44,4.52,0,9,0,13.55,0C361.12,205.55,361.31,206,361.49,206.22Z"/><path class="cls-26" d="M361.07,187l-14.57-.23a5.82,5.82,0,0,1,1.54-.43q6-.06,12,0C360.41,186.32,360.74,186.74,361.07,187Z"/><ellipse class="cls-26" cx="353.74" cy="219.83" rx="9.57" ry="0.11"/><path class="cls-26" d="M346.14,206.36l0,12.81c-.17-.35-.49-.71-.49-1.07,0-3.54,0-7.09,0-10.63A3.28,3.28,0,0,1,346.14,206.36Z"/><path class="cls-26" d="M346.13,187.13c.05,3.83.11,7.67.16,11.51-.12-.07-.35-.14-.35-.21C346,194.66,346.06,190.9,346.13,187.13Z"/><path class="cls-27" d="M272.51,107.25q0,22.14,0,44.28c0,.92-.05,1.84-.08,2.76a.72.72,0,0,1-.36-.06q0-23.5,0-47Z"/><path class="cls-6" d="M272,107.23q0,23.51,0,47a10.19,10.19,0,0,1-.39-2q0-21.48,0-43A10.94,10.94,0,0,1,272,107.23Z"/><path class="cls-12" d="M275.81,109.5l-1.74-1.31Z"/><path class="cls-12" d="M274.09,108.22l-.95-.66Z"/><path class="cls-12" d="M273,107.36l-.07-.09.25-.16Z"/><path class="cls-6" d="M280.15,154.23l-.06-41.42a6.66,6.66,0,0,1,.49,1.72q0,19,0,37.94A7.42,7.42,0,0,1,280.15,154.23Z"/></svg>