<svg id="Layer_1" data-name="Layer 1" xmlns="http://www.w3.org/2000/svg" viewBox="0 0 196.8 197.32"><defs><style>.cls-1{fill:#35509d;}.cls-2{fill:#0d81c1;}.cls-3{fill:#e53b54;}.cls-4{fill:#070707;}.cls-5{fill:#0ca355;}.cls-6{fill:#f4b23d;}.cls-7{fill:#d36b44;}.cls-8{fill:#c67051;}.cls-9{fill:#cf7451;}.cls-10{fill:#d26e48;}.cls-11{fill:#c97a5d;}.cls-12{fill:#d56940;}.cls-13{fill:#cd7555;}.cls-14{fill:#d6663c;}.cls-15{fill:#fdf8f7;}.cls-16{fill:#fcf4f1;}.cls-17{fill:#ca846a;}.cls-18{fill:#faede8;}.cls-19{fill:#475a97;}.cls-20{fill:#fbf0ec;}.cls-21{fill:#f6dacf;}.cls-22{fill:#f5f7fa;}.cls-23{fill:#f7f8fb;}.cls-24{fill:#f8f9fb;}.cls-25{fill:#fdfdfd;}.cls-26{fill:#fcfdfc;}.cls-27{fill:#3a539a;}</style></defs><path class="cls-1" d="M259.42,56.16l-7.79-.75-.9,6.29-.6-.05c-.19-1.51-.45-3-.55-4.55-.07-1.23-.51-1.77-1.82-1.62-2.21.26-4.43.41-6.74.61.15,2,.28,3.91.41,5.78l-.61.13a14.46,14.46,0,0,1-.72-2.44c-.33-2.93-.78-3.29-3.69-2.66-1,.22-2,.53-3.07.66-1.67.22-2.23.94-1.72,2.64a33.24,33.24,0,0,1,.68,4.13l-.52.19-2.66-5.79-7.35,2.78,1.49,5.89-.45.17a34.8,34.8,0,0,1-2.12-3.43c-.7-1.47-1.52-1.46-2.76-.68-1.77,1.11-3.62,2.09-5.52,3.17L215,71.32l-.53.48a23.27,23.27,0,0,1-2.36-2.62c-.8-1.21-1.5-1.42-2.64-.44-1.59,1.35-3.28,2.59-5,3.93l2.91,4.53-.31.45-4.37-3.36-5.62,5.88-1.6,2h0l-.37.44h0l-.85,1.13h0l-.36.45,0,0-.38.52-2.13,3.51-.45.54,3.55,2.5-.34.54c-.62-.17-1.26-.3-1.86-.52s-1.31-.56-2.27-1c-1.08,2.19-2.21,4.3-3.14,6.49-.16.36.41,1.29.88,1.6a39.7,39.7,0,0,0,3.63,2l-.16.52-5.66-1.21-2.43,7.43,6.13,2.42-.25.56-6.45-.72-1.33,8.22,3.55.51.38,1.16-1.33-.16c-1.36-.35-3-.41-3.18,1.21a44,44,0,0,0,.21,6.87l0,0,.36.44.42,0,2.34.09,1.58.17c0,.3,0,.6,0,.91l-.08.07-.1-.05-1.8.37-.09.07-.1,0-1.77.34c0,1.33-.13,2.66-.05,4s.37,2.7.56,4h6.34l.09.25-6,2.22,2.19,7.59,5.64-1.25.25.56-5,3L189,157l5.49-2,.2.45c-2.8,2.37-5.69,4.64-8.39,7.12-7.8,7.14-10.27,16-8.27,26.26a12.79,12.79,0,0,1,.25,1.35,2,2,0,0,1-.56,1.42c-3.08-4-6.35-7.93-9.19-12.12a95.61,95.61,0,0,1-15.63-40.54A98.36,98.36,0,0,1,218.26,31.56a95.36,95.36,0,0,1,24.38-5,4,4,0,0,0,1-.37h13a12,12,0,0,0,1.42.39c3.37.45,6.79.69,10.13,1.34,22.63,4.41,41.59,15.27,56.63,32.75a96.12,96.12,0,0,1,22.61,49.6q.58,3.93,1.16,7.85v13.42c-.39,2.55-.79,5.1-1.17,7.66a97.52,97.52,0,0,1-23.3,50.35,7.94,7.94,0,0,1-1,.88c-.34.26-.69.51-1.53,1.12.41-1.5.77-2.44.93-3.41,1.87-11.49-1.67-20.79-11.11-27.79a19.1,19.1,0,0,1-4.12-4.47l4,1.29c1.13-2.41,2.28-4.87,3.52-7.5L310,147.29l.15-.45,5.34.64c.64-2.2,1.34-4.43,1.88-6.7.08-.36-.51-1.14-.94-1.31-1.76-.67-3.58-1.17-5.37-1.92h7.08c.33-2.47.69-5,1.06-7.75l-7.5-1.31v-.33l7.46-.56v-8h-7.13l0-.51a48.56,48.56,0,0,1,5.27-1.25c1.47-.2,1.67-.82,1.43-2.09-.38-2-.63-4-1-6.16l-5.22.39-.15-.56a19.61,19.61,0,0,1,2.2-.74c2.16-.47,2.65-1.13,2-3.16-.55-1.87-1.21-3.7-1.89-5.78L309.37,101l-.18-.53,4.7-2.86c-1.08-2.17-2.15-4.25-3.16-6.37-.56-1.17-1.22-.47-1.89-.19l-.45-1.7c1.46-1.17-.33-1.87-.41-2.82l-.5-.74,0,0-.34-.48h0l-.5-.74,0,0-.37-.48,0,0-.54-.68,0-.15-.06.15c-.21-.31-.43-.61-.65-.91l-1.07-.4-.79.54L300.82,84l-.32-.39,2.71-3.36c-1.57-1.67-3.17-3.38-4.79-5.08-.88-.91-1.5-.33-2.08.4l-.52.45h0l-.94-1,.45-.67.35-.47,0,0,.39-.59v-.16l.22-.2-.27-.12,0,0-.44-.4,0,0-.43-.39,0,0-.67-.55h0l-.44-.37c-.73-.64-1.48-1.25-2.2-1.9-1.52-1.36-2.82-1.3-3.93.52a6.72,6.72,0,0,1-.88,1l-.52-.16a6.34,6.34,0,0,1,.69-2.23c1-1.19.55-1.8-.56-2.42-1.82-1-3.62-2.08-5.51-3.17l-2.71,3.46-.59-.27,1.17-4.22-7.38-2.9L269.3,64l-.61-.1.7-5.7c-2.22-.53-4.46-1.19-6.75-1.58-2.09-.35-1.44,1.66-1.93,2.64a8.38,8.38,0,0,0-.43,2.05c-.14-.79-.3-1.58-.44-2.38S259.56,57.09,259.42,56.16Zm-11.09-11,.12,2.35.27.83.48.08,2-.06a7.28,7.28,0,0,0,.36-1.8c-.1-2.1-.28-4.19-.45-6.28-.21-2.4-.43-4.79-.66-7.35l-4.61.49c-.43,3.3-.83,6.43-1.24,9.57l-.33,0c-.88-3.06-1.77-6.12-2.7-9.32l-4.66.38c.41,5.19.79,10.11,1.17,15h3c-.25-3.19-.49-6.22-.73-9.26l.47-.09c.73,2.39,1.59,4.75,2.16,7.18.43,1.85,1.3,2.4,3.07,1.68l.67-3.39,1.07-1.91Zm-74.18,83.25h-9.51l0-.27,9.5-2.27v-2.51l-9.91-2.16.06-.44H174v-2.8H158.82a21.92,21.92,0,0,1,0,2.71c-.19,1.55.38,2.15,2,2.36,2.65.35,5.26,1,8.35,1.64L159,126.86v4.48h15.17ZM336.9,153.09l-8.35-2.53a53.65,53.65,0,0,1,8.33-.86c1.88,0,1.41-1.6,1.8-2.54.12-.3-.43-1.22-.82-1.34-4.44-1.38-8.9-2.65-13.52-4l-.71,2.87,7.68,2.32-.14.58a47.38,47.38,0,0,1-6.38.43c-2-.12-2.76.63-3,2.39a11.2,11.2,0,0,1-.3,1.22L336.18,156ZM166.12,88.51l8.26,3.24a54.57,54.57,0,0,1-6.82.28c-3,0-3,0-3.9,3.35l14.13,5.36,1-2.74-8.4-3.27a55.57,55.57,0,0,1,6.9-.27c3.13,0,3.13.06,3.92-3.34L167.1,85.77Zm22.5-9.08c1.38-1.69,2.64-3.11,3.78-4.63a3.53,3.53,0,0,0,0-4.73A41.29,41.29,0,0,0,186,64.35c-1.92-1.36-3.67-.91-5.31.8-1.26,1.32-2.41,2.76-3.71,4.27Zm139.46-2.27c-.35-3.74-3.91-6.53-7-5.06a32.72,32.72,0,0,0-7.16,4.74c-2,1.72-1.92,3.75-.29,6.17C315,85.08,317,86,319.2,84.81a48.3,48.3,0,0,0,7.18-4.72C327.21,79.45,327.53,78.15,328.08,77.16ZM210.63,58.8c3.56,0,6.47-2.76,6-5.34a17.14,17.14,0,0,0-5-9.17c-1.62-1.59-3.43-1.48-5.77,0-1.93,1.2-2.94,2.89-2.13,4.78a58.36,58.36,0,0,0,4.48,8.21C208.74,58.11,210.09,58.47,210.63,58.8Zm120.45,71.74,0,.16h-.59c-3.38,0-5,1.34-5.46,4.4s.81,4.74,4,5.53a33.79,33.79,0,0,0,6.39,1c3.19.16,5-1.31,5.33-4,.47-3.41-.58-5.14-3.86-6C335,131.11,333,130.88,331.08,130.54ZM186.18,59c2.71,3,5.19,5.9,7.82,8.63,1.67,1.74,3.69,1.73,5.67.27,2.28-1.67,3.32-4.08,2-5.87-2.47-3.33-5.3-6.4-8-9.63l-2.44,2.23,3.66,4.15c1.17,1.32,2.35,2.65,3.5,4,.74.85,1.24,1.77.27,2.77s-1.91.29-2.67-.45-1.14-1.27-1.71-1.9l-5.63-6.29Zm112.07.18c-2.57,2.7-2.46,4.66.19,7.06,2.25,2,4.17,2.31,6.16.85,2.18-1.6,2.56-3.45,1.31-6.22a9.45,9.45,0,0,1-1.09-2.71,3.13,3.13,0,0,1,.9-2.13,1.78,1.78,0,0,1,1.67.28,4.41,4.41,0,0,1,.25,2.06c0,.22-.2.44-.34.73l2.5,2.16c.45-1.39,1.21-2.54,1.11-3.61-.23-2.28-1.87-3.73-4-4.47-1.8-.64-3.33.08-4.56,1.49a4.31,4.31,0,0,0-.46,5.28,8.12,8.12,0,0,1,1.14,2.68,2.59,2.59,0,0,1-1,2.07,2.14,2.14,0,0,1-2-.37c-.4-.4-.32-1.36-.27-2.07,0-.38.41-.74.66-1.16Zm19.56,10.56c2.16-2.2,2.32-3.8.78-5.93-1.67-2.32-3.89-3.08-5.91-2-2.4,1.24-3.21,3.3-2.35,5.93a13.85,13.85,0,0,1,.95,3.17,2.27,2.27,0,0,1-1.15,1.79,2.22,2.22,0,0,1-2-.56c-.36-.44-.19-1.38-.08-2.08.06-.38.49-.7.79-1.1l-2-2.18c-3.11,2.75-2.85,5.53.56,8.09,1.9,1.42,3.59,1.48,5.41.16a4.14,4.14,0,0,0,1.65-5.16,14.94,14.94,0,0,1-1-3.37,2.92,2.92,0,0,1,1.08-2,1.74,1.74,0,0,1,1.63.37,4.61,4.61,0,0,1,0,2.1c0,.21-.25.41-.42.68Zm5.61,33.67c.33,2.79.33,2.79,3.8,3,.29,1.19.58,2.42.86,3.6-3.05,1.69-3.05,1.69-2,4.66l13.81-7.3-1-4ZM174.34,132.3c-4.54,2.06-8.76,4-13,5.88-1.09.47-1.57,1-1.23,2.2s.06,2.5,2,2.56c2.88.11,5.75.51,8.63.76,1.8.16,3.6.28,5.6.43l-.57-3.07c-3.48-.63-3.48-.63-3.78-4.18l2.81-1.28Zm115-76.52c3.28,1.57,3.28,1.57,2.59,5l2.8,1.52c1.09-4.18,2.1-8.09,3.13-12,1-3.68,1.61-2.88-2.15-5-.1-.06-.24,0,.14,0l-11.63,11,2.93,1.71ZM187.9,80.08c-5-1.32-9.63-2.59-14.32-3.72-.48-.11-1.4.51-1.7,1-.43.74-.95,2.14-.61,2.49,3.43,3.6,7,7,10.51,10.45,2.61-2,1.24-3.59-.55-4.89,1.72-3.27,1.72-3.27,5-2.57Zm90.26-32.62A8.11,8.11,0,0,1,277,49.59c-.49.46-1.42,1-1.9.79a2.12,2.12,0,0,1-1-1.81,78.84,78.84,0,0,1,2.74-7.73,2,2,0,0,1,1.75-.74,1.89,1.89,0,0,1,1,1.58c-.51,2.42,1.07,2.46,2.61,2.7,1.27-2.91.73-5-1.54-6.18-2.88-1.55-5.4-1.16-6.79,1.51A36.11,36.11,0,0,0,271.16,47c-.85,3.13.95,5.5,4.25,6,2.92.44,5-1.3,5.35-4.62Zm52.31,45.69c3.26-1.31,4.26-3,3.5-5.75-.82-3-3-4.46-6-3.55a33.49,33.49,0,0,0-7.61,3.53c-2,1.21-2.26,3.05-1.45,5.19,1.37,3.66,4,4.48,7.84,2.32l-1.26-2.64a4.65,4.65,0,0,1-1.64.5A18.34,18.34,0,0,1,321.3,92c.39-.79.58-2,1.21-2.31a46.68,46.68,0,0,1,6.62-3,2.24,2.24,0,0,1,2.07.71c.25.42-.27,1.43-.64,2.07-.23.39-.82.57-1.31.89ZM257.7,42.71c.88.08,1.65.19,2.42.21,2.7.07,4.2-1.33,4.64-4.28a4,4,0,0,0-3.25-4.82c-1.83-.37-3.71-.51-5.74-.78-.71,5.14-1.4,10.08-2.09,15.1l3.14.44C257.12,46.55,257.4,44.69,257.7,42.71ZM230,51l3.52-.93c-2.6-5.26-.5-10.34.2-15.47-3.19.29-3.2.29-3.66,3.12-.15,1-.27,2-.48,3.42l-1.83-3c-1.53-2.49-1.75-2.54-4.63-1C226,41.45,230,45.11,230,51Zm-52.85,95.12-12,3.66L164,146.76l-2.49.78,3,9.37,2.33-.81-.62-3.18,11.89-3.72ZM341.61,122.4c-.26-3.38-.49-6.55-.74-9.83l-2.6.15V116l-12.46,1,.38,3.14,12.48-.91.24,3.13Zm-181.2-15.5,14.9,3.35,1.87-8.49-2.55-.39-1.33,5.13c-3.71-.85-7.23-1.62-10.73-2.47-1.14-.28-1.78-.13-1.82,1.19A10.19,10.19,0,0,1,160.41,106.9Zm59.48-52.23,8-3.33-1-2.36-5,1.86L217,39.32l-3,1.2Zm121.47,73.4V125H326.3v3.12ZM175.08,112.42,160,110.26l-.46,3.2,15.09,2.13ZM268.17,34.8c-1.14,5-2.25,9.89-3.39,14.93l3.16.66,3.34-14.8Zm68.36,59.83L322,99.13l.92,3.07,14.56-4.49Z" transform="translate(-151.83 -26.17)"/><path class="cls-2" d="M205.74,203.64c-11.61.51-20.64-6.68-22.69-18-2-11.12,6.87-22.74,18-24.16A21.52,21.52,0,0,1,225.33,181c0,1.24,0,2.47-.05,3.71-1.51,9.2-6.51,15.43-15.54,18.23l.37-4a22.6,22.6,0,0,0,2.64-1.2c4.5-2.8,7.7-6.53,8.38-12l.32-3.75a13,13,0,0,0,.07-1.76,17.64,17.64,0,0,0-24.59-13.8,17.38,17.38,0,0,0-9.84,20.36c2.21,8.58,9.67,13.83,18.76,13.21Z" transform="translate(-151.83 -26.17)"/><path class="cls-3" d="M275.14,180.82a21.2,21.2,0,1,1,21.12,22.9c-.66,0-1.31,0-2,.07l-3.45-.7c-.56-.19-1.12-.35-1.67-.58-8-3.24-12.81-9-13.92-17.63l3.81.84c1.34,6.49,5,11,11.34,13.14l3.84.88a33.24,33.24,0,0,0,4.46,0,17.53,17.53,0,1,0-5.41-34.63c-8.08,1.42-13.84,7.86-14.6,16.35Z" transform="translate(-151.83 -26.17)"/><path class="cls-4" d="M229,180.84c.45-11.07,11.17-20.45,22.38-19.57a21.31,21.31,0,0,1,20,19.68c0,1.26,0,2.51,0,3.77-1.48,9.2-6.57,15.33-15.5,18.2,0-1.32.07-2.64.1-4,5.52-1.42,10.91-7.78,11.32-13.35l.27-3.81a4,4,0,0,0,.1-1C266.32,169,254.54,161.54,243,166.5c-6.43,2.75-9.71,8.1-10.4,15Z" transform="translate(-151.83 -26.17)"/><path class="cls-5" d="M267.57,181.8l-.27,3.81c-6.16,2.43-10,6.82-11.32,13.35,0,1.32-.07,2.64-.1,4a6.48,6.48,0,0,0-.1.77c.38,10.15,10.91,17.9,21.16,15.65a17.72,17.72,0,0,0,13.9-16.25l3.45.7a21.3,21.3,0,0,1-19.67,19.66,21.54,21.54,0,0,1-22.25-17.27c-.16-.84-.3-1.68-.45-2.52,0-1.23,0-2.47,0-3.7.14-.5.32-1,.42-1.49C254.15,189.93,259.15,184.31,267.57,181.8Z" transform="translate(-151.83 -26.17)"/><path class="cls-6" d="M205.74,203.64c0-1.21.07-2.42.11-3.63,1.16-3.11,1.91-6.45,3.57-9.26,2.68-4.51,6.59-7.8,12-8.75-.11,1.25-.21,2.5-.32,3.75a15.82,15.82,0,0,0-9.4,8.08,30.73,30.73,0,0,0-1.62,5.11c-.12,1.33-.24,2.65-.37,4a15.83,15.83,0,0,0,5.86,12.54,16.85,16.85,0,0,0,18,3c6.67-2.65,10.43-7.89,11-15.2l3.65.5c-1.38,11.6-10.14,19.75-21.3,19.68-10.32-.07-19.84-8-20.87-18.76A4.32,4.32,0,0,0,205.74,203.64Z" transform="translate(-151.83 -26.17)"/><path class="cls-7" d="M220,133.08l.78-3.53.55,0,4.94.38,2.07.92-1.29,6.6h2.59l-.11,1.1-1.65.64-1.26,0-7.05.26c-.13,1-.33,2.11,1.17,2.33l-.33.87.31,1.13c-.07.83-.21,1.66-.21,2.49,0,.55.08,1.49.32,1.56a4.91,4.91,0,0,0,1.87-.19l.83.25h.79l.78,0c.5.2,1,.38,1.51.6.66.3,1.3.63,2,1l.4-2.95.66,1.11c.61-2.22-.81-2.64-2.22-3.07l0-.85.63-.45-.56-.35a1,1,0,0,1-.14-.3l0-.87h.79l.57.47a42.43,42.43,0,0,0,3.38,4.75c.76.83,1.06,1.37.4,2.28l-.31.48h0l-.45.38v0l-2.79.29-2.39,0a2.89,2.89,0,0,0-.87-.35c-4.38-.1-8.75-.23-13.12-.23a18.16,18.16,0,0,0-3.37.63c-.89.18-1.79.34-2.67.56-.07,0-.05.4-.07.61l-.29,1.11-1.28-.41c0-.52-.06-1-.08-1.56l0,0,.45-.44c1.53-.39,3-.79,4.59-1.17.18,0,.48.11.57,0,2-1.94,4.38-3.61,5.74-5.91,1.69-2.88,2.52-6.26,3.72-9.43a12.83,12.83,0,0,0,.19,2.06,7.2,7.2,0,0,0,.71,1.45c.46-.31,1.2-.53,1.34-.94C222.9,134.4,222.15,133.34,220,133.08Zm-3.59,15,.86.78.64-.95,1.19-1.09L218,143.27l-.7-.08Zm7.94-12.1.85.18,1-5.16-.73-.15Z" transform="translate(-151.83 -26.17)"/><path class="cls-8" d="M206.29,152.76c.1-.37.19-.74.29-1.11,8.39,0,16.79-.06,25.19,0,1.27,0,2.17-.14,2.39-1.6,0-.15.6-.23.92-.34,0,1.69-1.07,2.71-2.54,3.45.34.25.43.39.53.39,1.3.06,2.6.1,3.9.15l-2.36.55c8.92.18,17.83.19,26.74.15.14,0,.29-.44.44-.68a13.92,13.92,0,0,0,1.71-.14c.25,0,.45-.33.68-.5l-.78-.68v-.58l.38-1.72.32-.37c.33.83.07,2,1.64,1.93,9.31-.09,18.62-.08,27.93-.1l1.88.54-1-2.42c1.58.88,1.69,1.82.43,3.22l1.26,2.94-4.85-1.08-.8-1,3.42-.28c-1.75-1.34-20-1.15-21.4.28h17.21l-2.77.33h-2.36c-4.19,0-8.38,0-12.57,0-.42,0-.84.44-1.26.68l-41.85.07h-.75l-2-.07,1.14-.56-.2-.52-3.73,1.18-1.55-.11.58-.71h-9.28c-2,0-4,0-6,0-.25,0-.49.51-.73.78-.46.28-1.15.89-1.34.76-.46-.3-.68-1-.89-1.29Zm1.21.1,0,.72,2.93-.14v-.58Zm9.87,0v.58h2.47v-.58Zm13.13.57v-.57H228v.57Zm-17.08-.57v.57h2.08v-.57Zm13,.51v-.56h-2.58v.56Zm45.88,0,0-.68-1.62.1,0,.58Z" transform="translate(-151.83 -26.17)"/><path class="cls-5" d="M271.38,184.72c0-1.26,0-2.51,0-3.77l3.78-.13,3.55.68c1,.42,2.07.79,3.07,1.27,7.19,3.42,11.47,9,12.48,17l-3.84-.88c-.75-5.73-5.89-11.69-11.34-13.14l-3.81-.84Z" transform="translate(-151.83 -26.17)"/><path class="cls-4" d="M248.3,203.77l-3.65-.5c-.51-.24-1-.51-1.53-.72-8.05-3.24-12.81-9.07-14-17.72l3.92.82c.53,5.66,5.81,11.82,11.39,13.28l3.64.82,3.88.21c0,1.23,0,2.47,0,3.7Z" transform="translate(-151.83 -26.17)"/><path class="cls-6" d="M233,185.65l-3.92-.82-3.8-.15c0-1.24,0-2.47.05-3.71l3.7-.13,3.55.7c2.85,1.59,6,2.86,8.48,4.86a17.93,17.93,0,0,1,7,13.35l-3.64-.82A17.17,17.17,0,0,0,233,185.65Z" transform="translate(-151.83 -26.17)"/><path class="cls-9" d="M257.13,122c5.57.13,11.13.33,16.69.34,1.51,0,1.09.7,1.26,1.63a38.79,38.79,0,0,0,1.7,5.15l-.31.25a8.07,8.07,0,0,0-2.4-.92c-5.14-.21-10.28-.3-15.42-.43l-.45.33c-.11,1.2,0,2.21,1.64,2v.32c-.28,1.79,1,1.6,2.09,1.63a7.06,7.06,0,0,0-1.77.57c-.54.36-1.29,1-1.28,1.44a31.6,31.6,0,0,0,.57,4.31l.39.72-.38.42h-.77a11.32,11.32,0,0,1-.43-1.48c-.57-3.84-1.11-7.69-1.66-11.53l-.18-4.72Zm13,1.28h-8.34c1.68,2.25,3.64,1.12,5.1,1.53l-.65,1.34,3.23,1.54C269.72,126.07,269.91,124.8,270.13,123.3Zm-11.54,2.94,2.47.89c.13-.82.57-1.76.31-2.43a2.32,2.32,0,0,0-3.35-1.3c0,1.1-.11,2.13-.17,3.32Zm13.31.48-.36.52,2.58.52.6-.4a10.65,10.65,0,0,0-1.22-3.27c-.32-.42-1.64-.08-2.56-.08Zm-9-1.4c0,.52-.17,1.4,0,1.51a8.92,8.92,0,0,0,2.18.54C266.19,124.74,263.27,126.63,262.9,125.32Z" transform="translate(-151.83 -26.17)"/><path class="cls-10" d="M253.15,77.89l2.18-1.48c.2-1,.44-2.08.69-3.2l.74,0,.92,3.69,1.83.09c.18-1.42.32-2.6.47-3.78l.73-.08,1.22,3.53c.95.34,2.86-1.52,2.88-3.39,0-.31.36-.61.56-.91l.81,1.22c0,1.71.16,3.42.1,5.12s-.66,3.32,1.46,4.12l-1.89,2.07-2.47-.71c0-.11,0-.22,0-.33l1.72-.25-1.32-1.44-1.47-2.71L259.94,77l-2.46,4.36v.82h0l-.43.4-.41-.38-1.9-.73,1-1.81c-2.89.66-1.64-1.23-1.77-2.27l-.89.42Z" transform="translate(-151.83 -26.17)"/><path class="cls-9" d="M227.49,97.57a33.14,33.14,0,0,1,0-3.73c.14-1.32.61-2.47,2.38-2.19,1.29.19,2.61.26,3.91.38v.43l.24,5.13,2.68-1.82-.19-2.56.32-.15-.28-.24a3.37,3.37,0,0,1-.1-.34l.08-.43,2.76,0v1.42l.77-.11-.37-1.31,0-.13h.44a14.26,14.26,0,0,0,2.69,0c.34-.06.58-.76.87-1.17l.69-.9c-.87-.4-1.91-.57-2.08-1s.13-2.08.45-2.15c1.71-.36,2-1.71,2.46-3-.25,2.9-.5,5.79-.76,8.69l-3.79.4c1.4,1.35,1.33,2.3-.44,2.9-.5-1.34-1.29-1.61-2.18-.65l1.27,2.53-2,.14a.34.34,0,0,0-.36,0h-.79l-1.58,0h-5.55Z" transform="translate(-151.83 -26.17)"/><path class="cls-10" d="M277.29,131.51l-.09.39-.3.21.31.19c.8,1.63,1.65,3.24,2.39,4.9,1,2.16,1.84,4.36,2.75,6.55-1.64.65-.48,1.73-.4,2.65a9.71,9.71,0,0,1-1.14-1.62,25.59,25.59,0,0,1-.85-2.65l-1-.42c.37-1.67-.1-2.43-2-2.28s-4,0-6.07-.05h-2.36v-1.75l.79-.06.48.21c.24-.3.72-.65.68-.9-.35-1.88-.81-3.75-1.23-5.62l.85-.87h2l2.14.16.62-.13,1.19,0,.41-.07,0-.13,1.27.21-.05.71Zm-5.44-.09c-.08.21-.13.28-.12.34.24,1.22.48,2.43.71,3.66.46,2.41,1.25,2.77,3.59,1.57a11.22,11.22,0,0,1-.48-2.4C275.57,131.17,275.25,130.86,271.85,131.42Z" transform="translate(-151.83 -26.17)"/><path class="cls-11" d="M262.33,79.43l1.47,2.71-2.26.15-.18.57,2,1c0,.11,0,.22,0,.33l.81,2h-3.95c.59-2,.05-2.3-4.08-1.7l.94,1.71-2.76.44-.05.58a4.59,4.59,0,0,0,1.42.48c3.71,0,7.43.07,11.14,0,.4,0,.79-.69,1.19-1.06l.43-.06v4.35c-2.43,0-4.88,0-7.33,0-1.69,0-3.39-.12-5.09,0-.45,0-.89.56-1.33.87a2.29,2.29,0,0,1,0,.37l-.57.06q-.25-3.39-.5-6.78l0-.76-.09-2.38.47,0c-.14,1.07.31,1.6,1.42,1.49.74-.08,1.86.38,1.66-1.11l.43-.4c.3,1.93,1.63,1.57,3.06,1.37-.44-2-1.95-1.25-3.07-1.37V81.4Zm-2.47,9.95c.39.37.88,1.11,1.17,1a23.16,23.16,0,0,0,3.24-1.23l-.2-.44,1.92.32.1-.86H261.2l-3.33.16,0,.8Z" transform="translate(-151.83 -26.17)"/><path class="cls-7" d="M227.47,81.81a23,23,0,0,1-.43-5.06,27.22,27.22,0,0,1,1.7-5.12l4.39,1.25c-1.7,2.11,1.54,2.4,1.88,3.92l2.15.36a.87.87,0,0,1-.23.31l-.31.57a.18.18,0,0,1-.06.21l-2,.34c-.11.33-.22.66-.32,1-.26.85.38,2.17-1.22,2.31-.72-.56-1.92-.7-1.77-2l-.1-1.23L231,77.47l-.92-2.11c-.78,5.13-.78,5.13-2.06,6.41Z" transform="translate(-151.83 -26.17)"/><path class="cls-12" d="M245.21,83.77c-.49,1.25-.75,2.6-2.46,3-.32.07-.67,1.53-.45,2.15s1.21.64,2.08,1l-.69.9-3.15-.19c0-.31,0-.62,0-.93-.11-1.16-.72-1.27-1.62-.78l-.35-.39v-1h.81l.78,0,.6-.52.79-.38-1.09-.4-1.1-.06.36-1.25,1.13-1a5.78,5.78,0,0,1,.88-.77,5.34,5.34,0,0,1,1.07-.34l-.12-.51L240,82.15l-.7-3.53-.8-.37a.18.18,0,0,1-.1-.19l.14-1.15,1.74-.22.09-.35-.08-3.17.87-.06,1,3.7,1.78.86-1.21,1,.07,1.55a.23.23,0,0,1,.06.27c.12.17.23.35.34.52l0,0,.42.36,0,0,1.68,1C245.3,82.84,245.26,83.31,245.21,83.77Z" transform="translate(-151.83 -26.17)"/><path class="cls-9" d="M255.55,97.62c-.94,1.63.29,1.54,1.28,1.55,4,0,8,.11,12,0,1.88-.06,2.25.64,2.06,2.31a17.37,17.37,0,0,0,.33,3.38H264.5c1.8-1.18.92-3,.8-4.74a5,5,0,0,0-5,0l-2.61-.62-.17.56,2.13,2.4c-1.24.12-2,.23-2.71.24-1.69,0-1.94.72-1,2a.6.6,0,0,0,0,.35l-.1,1.21h-.58c-.22-2.9-.44-5.79-.65-8.69Z" transform="translate(-151.83 -26.17)"/><path class="cls-13" d="M236.57,119.32H223.06c.23-.89.43-1.63.63-2.37l.56,2.1,2.49-.63c2.77,1.16,1.06-1.17,1.45-1.86l1.17,0,.22,2.37,2-.13v-2.56h-2.12c-.13-2-1.14-2.76-3.15-2.48a5.44,5.44,0,0,1-2-.58c1.49.07,3,.15,4.49.21l9,.37.49,1.71-.86,1.87-.91.25-.42-3.44-1.42,1a22.37,22.37,0,0,0,.76,2.11C235.74,117.93,236.18,118.61,236.57,119.32Z" transform="translate(-151.83 -26.17)"/><path class="cls-12" d="M246,80.56a.45.45,0,0,1,.08-.34l0-1.56-.86-3.59,0,0c.38-.15,1.09-.36,1.07-.44-.39-2.1,1.63-2.39,2.76-3.94l.45,1.6-.5,2.33,1.77,0,1.55,3.17.29.78-.07,1.22.25,1.12,0,0,.43.42v0l-.06.41-.79.43h0l-4.72-.38h-1.19a1,1,0,0,1-.39,0Zm3.69-1.06.54-.73-1.64-1.67-1,1.24Z" transform="translate(-151.83 -26.17)"/><path class="cls-10" d="M270.88,154.72c.42-.24.84-.67,1.26-.68,4.19,0,8.38,0,12.57,0l-.51.82a.34.34,0,0,1-.3-.09l-1.95,0a18.59,18.59,0,0,0-.38,3.53c.12,1.63-.49,2.55-2.24,3.12,0-1.68.05-3.21,0-4.74a8.27,8.27,0,0,0-.54-1.91h-1.54a1.63,1.63,0,0,1-.37.08,8.55,8.55,0,0,0-.42,1.82c0,2.56,0,5.12,0,7.67l-1.29,1.53h-.44q0-5.13,0-10.28l.08-.16-.1-.16-.61-.49h-1.55l-.38.17-.42-.12-.41-.06,0,.16Z" transform="translate(-151.83 -26.17)"/><path class="cls-7" d="M239.71,122.11l.78-.1,1.28,2c0,.52-.08,1-.11,1.56l-.27,1.81-.06.58-1.34-.35c-1.86.1-3.72.26-5.59.26-.49,0-1-.47-1.48-.72l-1.84-2.38-.43-.42-.07-1.85.09-.73,1.51,0,0,.57a7.18,7.18,0,0,0-.08,1.61,5.74,5.74,0,0,0,2.55.25c.31-.07.42-1.11.61-1.71l.08-.52.79.06c.06,2.09.06,2.09,4.14,2.25C238.15,123.55,239.39,122.84,239.71,122.11Z" transform="translate(-151.83 -26.17)"/><path class="cls-14" d="M282,146.4c-.08-.92-1.24-2,.4-2.65l7.08,5.48,5.15.43h0l1,2.42-1.88-.54-1.87-1.11h-1.58a10.74,10.74,0,0,0-1.85-.34c-2.92-.05-5.85-.06-8.77-.08l-1.63-.77c.1-.52.19-1,.29-1.58l1.24-1.12c0,1,0,2.1,1.45,1.92.74-.1,2.09.79,2.12-1l-.41-.54,0,0-.41-.44A.57.57,0,0,1,282,146.4Z" transform="translate(-151.83 -26.17)"/><path class="cls-15" d="M237.76,113.71l-9-.37c-1.5-.06-3-.14-4.49-.21A.32.32,0,0,0,224,113l-.41,0,1-2.4c.77,1.6,2.22.53,3.31.86l2,.15,1.15,0,1.21,0H233l8.68.09a.85.85,0,0,0,.35,0c.36,1.38-.21,1.93-1.58,1.86-.64,0-1.29,0-1.93,0Z" transform="translate(-151.83 -26.17)"/><path class="cls-13" d="M272.83,112.34a10.15,10.15,0,0,1,1,2.82,36,36,0,0,1-.39,4.82l-7.28-.33V119c1.9.12,1.42-1.51,1.77-2.92l.73,2.34.59-.08-.4-3.71h-7v1.46a7.2,7.2,0,0,0-.49-1.37c-.08-.15-.49-.11-.75-.15l-.76-.1v-.71l12.62-.49Zm-2.9,6.37c1.94.67,3.09.26,2.9-1.07a27.43,27.43,0,0,0-.72-2.91C269.76,114.47,269.41,115.08,269.93,118.71Z" transform="translate(-151.83 -26.17)"/><path class="cls-16" d="M225.11,105.45l.81-1.58,3.9.52,1.26,0,1.48,0,9.88.25c.1.41.19.83.29,1.25a.51.51,0,0,0-.25.27l-11.85.09C228.78,106.1,226.76,106.93,225.11,105.45Z" transform="translate(-151.83 -26.17)"/><path class="cls-10" d="M222,125.6c-.69-.88-.42-1.4.61-1.63.56-.13,1.12-.23,1.68-.34l0-.55h-2.07c-.38-1-.39-1.65,1-1.41l1.19,0h.79l2.37.75c.16,1.57.31,3.14.46,4.72-.34.26-.68.74-1,.74a16.71,16.71,0,0,1-2.61-.36l-2.11-1.45h0C222.17,125.93,222.07,125.76,222,125.6Z" transform="translate(-151.83 -26.17)"/><path class="cls-10" d="M213.27,154h9.28l-.58.71c-.31.52-.86,1-.9,1.56-.12,1.61,0,3.24,0,5-1.58-.44-2.32-1.22-2.24-2.86a24.85,24.85,0,0,0-.39-3.72h-1.55l-1.15,3.47c-2-.05-1.63-1.72-1.63-3.26l-2.35-.19Z" transform="translate(-151.83 -26.17)"/><path class="cls-9" d="M223.52,154.83l3.73-1.18.2.52-1.14.56a9.42,9.42,0,0,0-.46,2c0,3.15,0,6.3,0,9.69-1.43-1.14-2.4-2.18-2.29-4.08C223.68,159.82,223.54,157.32,223.52,154.83Z" transform="translate(-151.83 -26.17)"/><path class="cls-7" d="M255.27,106.3h.58l.13-.06c.51.78,1.06,1.26,1.82.27l1.28.08,2,.87,1.05,3.09.88.07h0l-.78,1.13h-6.62Zm1.68,2.57-.27.56a13.48,13.48,0,0,0,2.47.54c.19,0,.42-.85.64-1.31a5,5,0,0,0-1.2-.15A15,15,0,0,0,257,108.87Z" transform="translate(-151.83 -26.17)"/><path class="cls-12" d="M232.56,104.46l-1.48,0-1.26,0-3.9-.52c.1-.52.21-1,.32-1.57.59-.24,1.21-.71,1.31.52,0,.23.86.5,1.34.54.15,0,.56-.74.49-1.07a19.77,19.77,0,0,0-1-2.6l-1.32,1.44-1.28-1.42,2.24-1a2.45,2.45,0,0,1,0,.27l0-.27h2.57l1.56,1.24a1.18,1.18,0,0,0,.09.37l1.08.35-.37.88c0,.11-.07.23-.1.34Z" transform="translate(-151.83 -26.17)"/><path class="cls-17" d="M228.28,154.8H229c.54.34,1.07,1,1.62,1,4.91.08,9.83.05,14.77.48H229l.81,3.61,1.87.24-1.77.33a17.19,17.19,0,0,0-.56,2.15,7.34,7.34,0,0,0,.18,1.61l-1,1.57Z" transform="translate(-151.83 -26.17)"/><path class="cls-13" d="M266.15,92.19l2,0,.53.22c.49,1.76,1,3.52,1.56,5.56h-8.35c.74-.37,1.82-.58,2.12-1.17s-.36-1.48-.59-2.24l-2.23,1-1.71-.27c-.11-.46-.23-.91-.34-1.37,1.48,0,3,.09,4.44,0a4.57,4.57,0,0,0,.22-1.09l.82.06c-.48,1.83.59,3.06,1.74,4.2a1.54,1.54,0,0,0,1.21.28,1,1,0,0,0,.53-.85c-.21-1.19-.54-2.35-.83-3.52l-.46.08-.43,2.14-.63-2.34Z" transform="translate(-151.83 -26.17)"/><path class="cls-14" d="M237.76,113.71l.76,0c3.36,0,4.06,2,3.66,4.83,0,.1.13.21.2.32l-.1.79c-1.47-.78-3-1.28-4.56-.32l-1.15,0c-.39-.71-.83-1.39-1.17-2.12a22.37,22.37,0,0,1-.76-2.11l1.42-1,.42,3.44.91-.25c2.53.58,2.83.37,2.54-1.87h-1.68Z" transform="translate(-151.83 -26.17)"/><path class="cls-14" d="M259.13,93.89c.11.46.23.91.34,1.37.24.77.48,1.54.73,2.31l-4.65.05h-.93c-.06-.27-.11-.53-.16-.8l1.7.19c.26-1.42.33-2.59-1.45-2.63V92.06a2.29,2.29,0,0,0,0-.37l2.74.33,1.7.48Z" transform="translate(-151.83 -26.17)"/><path class="cls-7" d="M256,104.73c-.93-1.31-.68-2,1-2,.74,0,1.47-.12,2.71-.24l-2.13-2.4.17-.56,2.61.62,2.22,1.62-1.09,3.07-5.19,0A.56.56,0,0,0,256,104.73Z" transform="translate(-151.83 -26.17)"/><path class="cls-14" d="M224,113a.32.32,0,0,1,.34.09,5.44,5.44,0,0,0,2,.58c2-.28,3,.48,3.15,2.48a.9.9,0,0,1-.13.32l-1.17,0-1.45-.48v2.34l-2.49.63-.56-2.1c0-.54-.05-1.08-.07-1.62C223.73,114.57,223.84,113.8,224,113Z" transform="translate(-151.83 -26.17)"/><path class="cls-18" d="M261.47,104.81l1.09-3.07-2.22-1.62a5,5,0,0,1,5,0c.12,1.77,1,3.56-.8,4.74Z" transform="translate(-151.83 -26.17)"/><path class="cls-12" d="M225.11,105.45c1.65,1.48,3.67.65,5.52.87l-2.37,1.08c-.83,1.1-.45,2.31-.32,3.5l-.08.56c-1.09-.33-2.54.74-3.31-.86C224.74,108.89,224.92,107.17,225.11,105.45Z" transform="translate(-151.83 -26.17)"/><path class="cls-17" d="M266.17,119v.61H257c.06,1,.1,1.67.14,2.37l-.71,0c-.12-1.59-.24-3.18-.35-4.78l.94-1.24.18.36,1.8-1.08a9.86,9.86,0,0,0,.09,2.25c.12.45.67.78,1,1.17l2.18.07Z" transform="translate(-151.83 -26.17)"/><path class="cls-9" d="M238.54,87.53v1a6.33,6.33,0,0,0-1.86.11c-.24.08-.26.8-.38,1.22l-.14.68h-.77l-.79-1.62a5.82,5.82,0,0,0-1.66-1c-.29,0-.71.59-1.08.91L231,90.46h-1.19l-1.2-2a.81.81,0,0,0-.07-.35l.08-.81Z" transform="translate(-151.83 -26.17)"/><path class="cls-16" d="M238.54,87.53l-9.88-.21c-.12-.27-.24-.55-.37-.83l11-.37,1.1.06.3.78-.6.52-.78,0Z" transform="translate(-151.83 -26.17)"/><path class="cls-10" d="M271,108.89l-.2-1-.68.07c.17,1.16.33,2.31.49,3.47l-.11.77h-.72c-.32-.78.48-2.58-1.76-1.86l-.91-1.17.59-1.69-.31-.8,3.94-.41.5.83c0,.64-.09,1.28-.13,1.91Z" transform="translate(-151.83 -26.17)"/><path class="cls-14" d="M264.19,86.14l-.81-2,2.47.71,1.89-2.07.67-.27.58,2.59a.21.21,0,0,1-.08.23l-.36.85a.51.51,0,0,1-.08.32l-.43.06a.51.51,0,0,1-.31-.15l-1.29-.23Z" transform="translate(-151.83 -26.17)"/><path class="cls-12" d="M269.79,77.27c0,1.52,0,3,0,4.56l-1,0-1-3.55a13.08,13.08,0,0,1,.41-1.75,10.43,10.43,0,0,1,.79-1.42h0l.5.73,0,0c.12.15.23.31.35.47v0C269.76,76.58,269.78,76.93,269.79,77.27Z" transform="translate(-151.83 -26.17)"/><path class="cls-18" d="M260.2,97.57c-.25-.77-.49-1.54-.73-2.31l1.71.27,2.23-1c.23.76.85,1.72.59,2.24s-1.38.8-2.12,1.17Z" transform="translate(-151.83 -26.17)"/><path class="cls-19" d="M195.52,82.2l1.6-2,5.56,5.11-.3.45c-1.59-1-3.17-1.94-4.79-2.83A12,12,0,0,0,195.52,82.2Z" transform="translate(-151.83 -26.17)"/><path class="cls-18" d="M267.34,106.65l.31.8h-6.59l-2-.87Z" transform="translate(-151.83 -26.17)"/><path class="cls-20" d="M220,133.08c2.12.26,2.87,1.32,2.19,3.37-.14.41-.88.63-1.34.94a7.2,7.2,0,0,1-.71-1.45,12.83,12.83,0,0,1-.19-2.06Z" transform="translate(-151.83 -26.17)"/><path class="cls-13" d="M238.55,76.91c-.05.38-.1.76-.14,1.15l-1.25-.9L235,76.8l1.27-.19.59-4c1.13,1.33,2.15,2,1.33,3.45C238.11,76.24,238.42,76.63,238.55,76.91Z" transform="translate(-151.83 -26.17)"/><path class="cls-18" d="M232.22,100l-1.56-1.24L235,98.2l-.44-.52,1.58.06.77,1.67Z" transform="translate(-151.83 -26.17)"/><path class="cls-13" d="M268.94,75.08a10.43,10.43,0,0,0-.79,1.42,13.08,13.08,0,0,0-.41,1.75,8.87,8.87,0,0,0,0-2.68,7.51,7.51,0,0,0-1.52-2l-.81-1.22,2.67-.85C268.33,72.67,268.64,73.87,268.94,75.08Z" transform="translate(-151.83 -26.17)"/><path class="cls-13" d="M239.71,122.11c-.32.73-1.56,1.44.59,2.24-4.08-.16-4.08-.16-4.14-2.25Z" transform="translate(-151.83 -26.17)"/><path class="cls-7" d="M213.27,154l-1.56.73-.61,1.61c-1.48.64-1.63-.78-2.18-1.62h-1.55l-.79.11c.24-.27.48-.78.73-.78C209.29,154,211.28,154,213.27,154Z" transform="translate(-151.83 -26.17)"/><path class="cls-11" d="M239.33,86.12l-11,.37-.18-1.37.17-.17c1.48,1.21,3.82,1.15,6-.08l1.91.88,1.15-.3,2.38-.58Z" transform="translate(-151.83 -26.17)"/><path class="cls-11" d="M272,157.62c0,.36,0,.72,0,1.08,0,.05-.1.1-.1.15s.07.22.1.33l0,3.42-.75.17c-.24-.7-.49-1.39-.84-2.39l-1.66-.23,1.95-.31c.07-.77.13-1.52.2-2.26Z" transform="translate(-151.83 -26.17)"/><path class="cls-13" d="M237.72,119.35c1.6-1,3.09-.46,4.56.32l-.51,4.37-1.28-2,1.36-2.18Z" transform="translate(-151.83 -26.17)"/><path class="cls-18" d="M227.09,101.13l1.32-1.44a19.77,19.77,0,0,1,1,2.6c.07.33-.34,1.08-.49,1.07-.48,0-1.33-.31-1.34-.54-.1-1.23-.72-.76-1.31-.52Z" transform="translate(-151.83 -26.17)"/><path class="cls-19" d="M308.39,89.37l.45,1.7-4.49,2.08-.29-.54Z" transform="translate(-151.83 -26.17)"/><path class="cls-17" d="M255.49,155.94l1.58-.07h9.48c1.41,0,2.83,0,4.24.11.16,0,.31.32.46.49l-15.71-.14Z" transform="translate(-151.83 -26.17)"/><path class="cls-14" d="M284.2,154.84l.51-.82h2.36v.39c0,.11,0,.21,0,.32a7.7,7.7,0,0,0-1.14,1.3,12,12,0,0,0-.7,2l-.7-.09Z" transform="translate(-151.83 -26.17)"/><path class="cls-10" d="M287.07,154.4V154l2.77-.33h.77l.8,1-1.75,2-.56-.37-.09-1.48Z" transform="translate(-151.83 -26.17)"/><path class="cls-18" d="M250.79,74.7l-1.77,0,.5-2.33h1.76Z" transform="translate(-151.83 -26.17)"/><path class="cls-19" d="M181,127.17a44,44,0,0,1-.21-6.87c.2-1.62,1.82-1.56,3.18-1.21l-2.39.61-.58,0Z" transform="translate(-151.83 -26.17)"/><path class="cls-8" d="M222.21,126.11l2.11,1.45c-1.51-.09-2.89,0-3,2l-.55,0C220.18,128,221.71,127.24,222.21,126.11Z" transform="translate(-151.83 -26.17)"/><path class="cls-19" d="M294.91,75l.94,1-3.16,2.93-.44-.41Z" transform="translate(-151.83 -26.17)"/><path class="cls-21" d="M271.25,162.77l.75-.17v4.33l-1.93-3.16Z" transform="translate(-151.83 -26.17)"/><path class="cls-11" d="M234.59,88.91l.79,1.62L231,90.46l.81-1.59C232.91,90.56,233.51,90.57,234.59,88.91Z" transform="translate(-151.83 -26.17)"/><path class="cls-11" d="M236.15,90.54l.14-.68,2.6-.55,1.61.39c0,.31,0,.62,0,.93Z" transform="translate(-151.83 -26.17)"/><path class="cls-19" d="M259.42,56.16c.14.93.27,1.85.42,2.77s.3,1.59.44,2.38c-.16.93-.33,1.86-.49,2.8l-.37,0Z" transform="translate(-151.83 -26.17)"/><path class="cls-21" d="M271.25,156.48c-.15-.17-.3-.48-.46-.49-1.41-.07-2.83-.08-4.24-.11,1.07-.1,2.15-.13,3.2-.32a6.63,6.63,0,0,0,1.55-.69l0-.16.41.06.42.12c0,.91-.05,1.82-.08,2.73l-1.12,0C271,157.22,271.14,156.85,271.25,156.48Z" transform="translate(-151.83 -26.17)"/><path class="cls-9" d="M276.43,164.29c0-2.55,0-5.11,0-7.67a8.55,8.55,0,0,1,.42-1.82c0,2.55,0,5.1-.1,7.65A11.62,11.62,0,0,1,276.43,164.29Z" transform="translate(-151.83 -26.17)"/><path class="cls-17" d="M227.49,122.46l-2.37-.75,5.55.09-.09.73Z" transform="translate(-151.83 -26.17)"/><path class="cls-19" d="M185.25,119.25l-.38-1.16,3.72.63-.05.53Z" transform="translate(-151.83 -26.17)"/><path class="cls-17" d="M264.61,92.91l-.82-.06-4.34-.36V92l6.7.15-.41.71Z" transform="translate(-151.83 -26.17)"/><path class="cls-18" d="M270.45,112.16l.11-.77,1.67-.59c.17.43.39,1,.6,1.54-.12.33-.24.65-.37,1Z" transform="translate(-151.83 -26.17)"/><path class="cls-19" d="M185.65,128.8c0-.31,0-.61,0-.91h2.64l0,.5Z" transform="translate(-151.83 -26.17)"/><path class="cls-17" d="M232.21,122.41l0-.57,3.19.2c0,.17-.05.35-.08.52Z" transform="translate(-151.83 -26.17)"/><path class="cls-11" d="M228.65,88.48l1.2,2c-1.8.45-1.63-.74-1.54-1.85Z" transform="translate(-151.83 -26.17)"/><path class="cls-21" d="M236.56,92.05l-.08.43-2.67,0V92Z" transform="translate(-151.83 -26.17)"/><path class="cls-8" d="M294.58,149.66l-5.15-.43Z" transform="translate(-151.83 -26.17)"/><path class="cls-11" d="M268.73,81.8l1,0L269,85.12c-.19-.86-.39-1.73-.58-2.59C268.52,82.28,268.62,82,268.73,81.8Z" transform="translate(-151.83 -26.17)"/><path class="cls-11" d="M227.47,81.81l.57,0,.21.43-.33.4,0,2-.14.13Z" transform="translate(-151.83 -26.17)"/><path class="cls-9" d="M246,80.56l0,1.21-.68.61-1.68-1Z" transform="translate(-151.83 -26.17)"/><path class="cls-12" d="M239.72,92.07l.37,1.31-.77.11V92.07Z" transform="translate(-151.83 -26.17)"/><path class="cls-18" d="M257.8,106.5c-.76,1-1.31.51-1.82-.27Z" transform="translate(-151.83 -26.17)"/><path class="cls-13" d="M224,113c-.12.76-.23,1.53-.34,2.29,0-.77-.05-1.55-.07-2.33Z" transform="translate(-151.83 -26.17)"/><path class="cls-11" d="M259.45,92v.45a.33.33,0,0,1-.29,0l-1.7-.48Z" transform="translate(-151.83 -26.17)"/><path class="cls-21" d="M263.4,155.87h0Z" transform="translate(-151.83 -26.17)"/><path class="cls-15" d="M277.66,130.45l-1.27-.21.08-.85.31-.25Z" transform="translate(-151.83 -26.17)"/><path class="cls-18" d="M271.78,107.07l-.5-.83,1.09-.06Z" transform="translate(-151.83 -26.17)"/><path class="cls-19" d="M184.05,127.72l-2.34-.09Z" transform="translate(-151.83 -26.17)"/><path class="cls-21" d="M255.49,155.94l0,.4-1.27-.34.1-.39Z" transform="translate(-151.83 -26.17)"/><path class="cls-19" d="M194.32,83.76l.85-1.13Z" transform="translate(-151.83 -26.17)"/><path class="cls-8" d="M282,154.72l1.95,0Z" transform="translate(-151.83 -26.17)"/><path class="cls-8" d="M287.07,154.4l1.94.52-1.95-.2C287.06,154.61,287.06,154.51,287.07,154.4Z" transform="translate(-151.83 -26.17)"/><path class="cls-8" d="M272.48,154.72h0Z" transform="translate(-151.83 -26.17)"/><path class="cls-19" d="M183.67,129.19l1.8-.37Z" transform="translate(-151.83 -26.17)"/><path class="cls-18" d="M227.49,97.57l1.56.12Z" transform="translate(-151.83 -26.17)"/><path class="cls-9" d="M246.13,78.66l0,1.56Z" transform="translate(-151.83 -26.17)"/><path class="cls-19" d="M181.71,129.55l1.77-.34Z" transform="translate(-151.83 -26.17)"/><path class="cls-8" d="M277.22,154.72h0Z" transform="translate(-151.83 -26.17)"/><path class="cls-19" d="M305.17,82.62c.22.3.44.6.65.91Z" transform="translate(-151.83 -26.17)"/><path class="cls-8" d="M207.37,154.72h0Z" transform="translate(-151.83 -26.17)"/><path class="cls-8" d="M216.84,154.72h0Z" transform="translate(-151.83 -26.17)"/><path class="cls-10" d="M242.85,80.22l-.07-1.55Z" transform="translate(-151.83 -26.17)"/><path class="cls-8" d="M204.93,150.79c0,.52,0,1,.08,1.56C205,151.83,205,151.31,204.93,150.79Z" transform="translate(-151.83 -26.17)"/><path class="cls-18" d="M271,108.89l.7.09-.07.73Z" transform="translate(-151.83 -26.17)"/><path class="cls-17" d="M224.33,121.7l-1.19,0Z" transform="translate(-151.83 -26.17)"/><path class="cls-10" d="M252.63,78.65l-.29-.78.81,0,0,0Z" transform="translate(-151.83 -26.17)"/><path class="cls-9" d="M274.7,165.82h.44l-.49.51Z" transform="translate(-151.83 -26.17)"/><path class="cls-13" d="M269.44,75.8l-.5-.73Z" transform="translate(-151.83 -26.17)"/><path class="cls-19" d="M303.31,82.76l.79-.54Z" transform="translate(-151.83 -26.17)"/><path class="cls-21" d="M257.88,155.87h0Z" transform="translate(-151.83 -26.17)"/><path class="cls-21" d="M265.77,155.87h0Z" transform="translate(-151.83 -26.17)"/><path class="cls-19" d="M294.57,71.54l.67.55Z" transform="translate(-151.83 -26.17)"/><path class="cls-13" d="M269.79,77.27c0-.34,0-.69,0-1C269.76,76.58,269.78,76.93,269.79,77.27Z" transform="translate(-151.83 -26.17)"/><path class="cls-19" d="M307.48,85.81l.5.74Z" transform="translate(-151.83 -26.17)"/><path class="cls-19" d="M305.84,83.53l.54.68Z" transform="translate(-151.83 -26.17)"/><path class="cls-19" d="M306.69,84.63l.5.74Z" transform="translate(-151.83 -26.17)"/><path class="cls-11" d="M268.55,86.2l.36-.85Z" transform="translate(-151.83 -26.17)"/><path class="cls-18" d="M256,104.73a.56.56,0,0,1,.31.12l-.33.23A.6.6,0,0,1,256,104.73Z" transform="translate(-151.83 -26.17)"/><path class="cls-18" d="M228.09,98.72l0,.27a2.45,2.45,0,0,0,0-.27Z" transform="translate(-151.83 -26.17)"/><path class="cls-17" d="M268.67,92.39l-.53-.22Z" transform="translate(-151.83 -26.17)"/><path class="cls-21" d="M240.13,92h0Z" transform="translate(-151.83 -26.17)"/><path class="cls-16" d="M228.65,88.48l-.34.13.27-.48A.81.81,0,0,1,228.65,88.48Z" transform="translate(-151.83 -26.17)"/><path class="cls-19" d="M307.18,85.36l.34.48Z" transform="translate(-151.83 -26.17)"/><path class="cls-11" d="M228.11,85.12c-.12-.14-.23-.29-.35-.44l.14-.13.38.4Z" transform="translate(-151.83 -26.17)"/><path class="cls-19" d="M306.36,84.19l.37.48Z" transform="translate(-151.83 -26.17)"/><path class="cls-19" d="M193.6,84.71l.38-.52Z" transform="translate(-151.83 -26.17)"/><path class="cls-19" d="M194,84.22l.36-.45Z" transform="translate(-151.83 -26.17)"/><path class="cls-13" d="M240.38,76.34l-.09.35A.45.45,0,0,1,240.38,76.34Z" transform="translate(-151.83 -26.17)"/><path class="cls-19" d="M295.82,76l.52-.45Z" transform="translate(-151.83 -26.17)"/><path class="cls-9" d="M274.64,155.22l.1.16-.08.16A.23.23,0,0,1,274.64,155.22Z" transform="translate(-151.83 -26.17)"/><path class="cls-8" d="M222,125.6c.1.16.2.33.29.5C222.17,125.93,222.07,125.76,222,125.6Z" transform="translate(-151.83 -26.17)"/><path class="cls-12" d="M245.27,75.07,245,75l.26.11Z" transform="translate(-151.83 -26.17)"/><path class="cls-19" d="M195.15,82.64l.37-.44Z" transform="translate(-151.83 -26.17)"/><path class="cls-19" d="M295.71,73.84l-.35.47Z" transform="translate(-151.83 -26.17)"/><path class="cls-15" d="M277.29,131.51l.32-.35Z" transform="translate(-151.83 -26.17)"/><path class="cls-21" d="M272,159.18c0-.11-.08-.22-.1-.33s.07-.1.1-.15Z" transform="translate(-151.83 -26.17)"/><path class="cls-19" d="M296.07,73.29l-.39.59Z" transform="translate(-151.83 -26.17)"/><path class="cls-19" d="M296,72.81l.27.12-.22.2A.4.4,0,0,1,296,72.81Z" transform="translate(-151.83 -26.17)"/><path class="cls-19" d="M181.29,127.58l-.36-.44Z" transform="translate(-151.83 -26.17)"/><path class="cls-19" d="M295.63,72.44l.44.4Z" transform="translate(-151.83 -26.17)"/><path class="cls-13" d="M269.76,76.25c-.12-.16-.23-.32-.35-.47C269.53,75.93,269.64,76.09,269.76,76.25Z" transform="translate(-151.83 -26.17)"/><path class="cls-19" d="M295.22,72.07l.43.39Z" transform="translate(-151.83 -26.17)"/><path class="cls-19" d="M294.13,71.17l.44.37Z" transform="translate(-151.83 -26.17)"/><path class="cls-10" d="M243.69,81.39l-.42-.36Z" transform="translate(-151.83 -26.17)"/><path class="cls-8" d="M205.36,150.37l-.45.44Z" transform="translate(-151.83 -26.17)"/><path class="cls-10" d="M243.25,81c-.11-.17-.22-.35-.34-.52C243,80.66,243.14,80.84,243.25,81Z" transform="translate(-151.83 -26.17)"/><path class="cls-15" d="M277.21,132.3l-.31-.19.3-.21Z" transform="translate(-151.83 -26.17)"/><path class="cls-22" d="M174.15,128.36v3H159v-4.48l10.15-2.24c-3.09-.63-5.7-1.29-8.35-1.64-1.6-.21-2.17-.81-2-2.36a21.92,21.92,0,0,0,0-2.71H174v2.8h-9.77l-.06.44,9.91,2.16v2.51l-9.5,2.27,0,.27Z" transform="translate(-151.83 -26.17)"/><path class="cls-23" d="M246.63,45.06,246,48.45c-1.77.72-2.64.17-3.07-1.68-.57-2.43-1.43-4.79-2.16-7.18l-.47.09c.24,3,.48,6.07.73,9.26h-3c-.38-4.86-.76-9.78-1.17-15l4.66-.38c.93,3.2,1.82,6.26,2.7,9.32l.33,0c.41-3.14.81-6.27,1.24-9.57l4.61-.49c.23,2.56.45,4.95.66,7.35.17,2.09.35,4.18.45,6.28a7.28,7.28,0,0,1-.36,1.8l-2,.06-.48-.08-.27-.83-.12-2.36-.42-5.88-.55.06Z" transform="translate(-151.83 -26.17)"/><path class="cls-24" d="M336.9,153.09l-.72,2.87-14.68-4.33a11.2,11.2,0,0,0,.3-1.22c.23-1.76,1-2.51,3-2.39a47.38,47.38,0,0,0,6.38-.43l.14-.58-7.68-2.32.71-2.87c4.62,1.35,9.08,2.62,13.52,4,.39.12.94,1,.82,1.34-.39.94.08,2.5-1.8,2.54a53.65,53.65,0,0,0-8.33.86Z" transform="translate(-151.83 -26.17)"/><path class="cls-24" d="M166.12,88.51l1-2.74,14.15,5.35c-.79,3.4-.79,3.38-3.92,3.34a55.57,55.57,0,0,0-6.9.27l8.4,3.27-1,2.74-14.13-5.36c.86-3.36.86-3.36,3.9-3.35a54.57,54.57,0,0,0,6.82-.28Z" transform="translate(-151.83 -26.17)"/><path class="cls-24" d="M188.62,79.43,177,69.42c1.3-1.51,2.45-3,3.71-4.27,1.64-1.71,3.39-2.16,5.31-.8a41.29,41.29,0,0,1,6.39,5.72,3.53,3.53,0,0,1,0,4.73C191.26,76.32,190,77.74,188.62,79.43Zm.14-4.14c2-2,2.09-2.65.4-4.39a31.85,31.85,0,0,0-3.54-3.12c-2.08-1.62-3.09-1.39-4.54.91Z" transform="translate(-151.83 -26.17)"/><path class="cls-23" d="M328.08,77.16c-.55,1-.87,2.29-1.7,2.93a48.3,48.3,0,0,1-7.18,4.72c-2.2,1.14-4.2.27-5.59-1.8-1.63-2.42-1.74-4.45.29-6.17a32.72,32.72,0,0,1,7.16-4.74C324.17,70.63,327.73,73.42,328.08,77.16Zm-11.2,5.32c3.06-1.38,5.8-2.86,7.89-5.29a1.82,1.82,0,0,0-.15-1.77c-.39-.43-1.44-.84-1.83-.61-2.46,1.46-4.84,3.06-7.16,4.73-.32.23-.36,1.24-.16,1.73S316.35,82.05,316.88,82.48Z" transform="translate(-151.83 -26.17)"/><path class="cls-23" d="M210.63,58.8c-.54-.33-1.89-.69-2.44-1.55A58.36,58.36,0,0,1,203.71,49c-.81-1.89.2-3.58,2.13-4.78,2.34-1.45,4.15-1.56,5.77,0a17.14,17.14,0,0,1,5,9.17C217.1,56,214.19,58.8,210.63,58.8Zm3.57-4.75c-1.71-2.66-3.34-5.28-5.11-7.81-.2-.29-1.3-.27-1.73,0s-.91,1.24-.74,1.59c1.34,2.64,2.79,5.24,4.33,7.77.19.32,1.22.37,1.72.17S213.47,54.91,214.2,54.05Z" transform="translate(-151.83 -26.17)"/><path class="cls-24" d="M331.08,130.54c1.93.34,3.89.57,5.79,1.05,3.28.84,4.33,2.57,3.86,6-.37,2.71-2.14,4.18-5.33,4a33.79,33.79,0,0,1-6.39-1c-3.2-.79-4.4-2.6-4-5.53s2.08-4.4,5.46-4.4h.59Zm-.39,3.19,0,.13h-.78c-1.14-.06-2.16.13-2.43,1.43s.71,1.92,1.77,2.12a50.84,50.84,0,0,0,6.94,1A2.78,2.78,0,0,0,338.3,137c.52-1.26-.62-1.91-1.66-2.15C334.68,134.35,332.68,134.08,330.69,133.73Z" transform="translate(-151.83 -26.17)"/><path class="cls-24" d="M186.18,59l2.44-2.1,5.63,6.29c.57.63,1.1,1.31,1.71,1.9s1.6,1.54,2.67.45.47-1.92-.27-2.77c-1.15-1.34-2.33-2.67-3.5-4l-3.66-4.15,2.44-2.23c2.72,3.23,5.55,6.3,8,9.63,1.33,1.79.29,4.2-2,5.87-2,1.46-4,1.47-5.67-.27C191.37,64.85,188.89,62,186.18,59Z" transform="translate(-151.83 -26.17)"/><path class="cls-23" d="M298.25,59.13l2.22,1.92c-.25.42-.64.78-.66,1.16-.05.71-.13,1.67.27,2.07a2.14,2.14,0,0,0,2,.37,2.59,2.59,0,0,0,1-2.07,8.12,8.12,0,0,0-1.14-2.68,4.31,4.31,0,0,1,.46-5.28c1.23-1.41,2.76-2.13,4.56-1.49,2.08.74,3.72,2.19,4,4.47.1,1.07-.66,2.22-1.11,3.61l-2.5-2.16c.14-.29.34-.51.34-.73a4.41,4.41,0,0,0-.25-2.06,1.78,1.78,0,0,0-1.67-.28,3.13,3.13,0,0,0-.9,2.13,9.45,9.45,0,0,0,1.09,2.71c1.25,2.77.87,4.62-1.31,6.22-2,1.46-3.91,1.19-6.16-.85C295.79,63.79,295.68,61.83,298.25,59.13Z" transform="translate(-151.83 -26.17)"/><path class="cls-23" d="M317.81,69.69l-2-2.14c.17-.27.4-.47.42-.68a4.61,4.61,0,0,0,0-2.1,1.74,1.74,0,0,0-1.63-.37,2.92,2.92,0,0,0-1.08,2,14.94,14.94,0,0,0,1,3.37,4.14,4.14,0,0,1-1.65,5.16c-1.82,1.32-3.51,1.26-5.41-.16-3.41-2.56-3.67-5.34-.56-8.09l2,2.18c-.3.4-.73.72-.79,1.1-.11.7-.28,1.64.08,2.08a2.22,2.22,0,0,0,2,.56,2.27,2.27,0,0,0,1.15-1.79,13.85,13.85,0,0,0-.95-3.17c-.86-2.63-.05-4.69,2.35-5.93,2-1,4.24-.28,5.91,2C320.13,65.89,320,67.49,317.81,69.69Z" transform="translate(-151.83 -26.17)"/><path class="cls-24" d="M323.42,103.36h15.52l1,4-13.81,7.3c-1.07-3-1.07-3,2-4.66-.28-1.18-.57-2.41-.86-3.6C323.75,106.15,323.75,106.15,323.42,103.36Zm12,3.28-.09-.31H330l.69,2.56Z" transform="translate(-151.83 -26.17)"/><path class="cls-23" d="M174.34,132.3l.42,3.3L172,136.88c.3,3.55.3,3.55,3.78,4.18l.57,3.07c-2-.15-3.8-.27-5.6-.43-2.88-.25-5.75-.65-8.63-.76-1.93-.06-1.66-1.46-2-2.56s.14-1.73,1.23-2.2C165.58,136.32,169.8,134.36,174.34,132.3Zm-10.24,7.61.12.4,5.4.34-.26-2.81Z" transform="translate(-151.83 -26.17)"/><path class="cls-24" d="M289.32,55.78l-2.19,2.3-2.93-1.71,11.63-11c-.38,0-.24-.07-.14,0,3.76,2.09,3.12,1.29,2.15,5-1,3.91-2,7.82-3.13,12l-2.8-1.52C292.6,57.35,292.6,57.35,289.32,55.78Zm1.82-2.14L293.61,55l1.48-4.9-.53-.22Z" transform="translate(-151.83 -26.17)"/><path class="cls-24" d="M187.9,80.08l-1.63,2.79c-3.32-.7-3.32-.7-5,2.57,1.79,1.3,3.16,2.84.55,4.89-3.49-3.41-7.08-6.85-10.51-10.45-.34-.35.18-1.75.61-2.49.3-.52,1.22-1.14,1.7-1C178.27,77.49,182.92,78.76,187.9,80.08Zm-12.6-.41-.15.41,4,3.51,1.36-2.46Z" transform="translate(-151.83 -26.17)"/><path class="cls-24" d="M278.16,47.46l2.6.95c-.38,3.32-2.43,5.06-5.35,4.62-3.3-.5-5.1-2.87-4.25-6a36.11,36.11,0,0,1,2.71-7.32c1.39-2.67,3.91-3.06,6.79-1.51,2.27,1.22,2.81,3.27,1.54,6.18-1.54-.24-3.12-.28-2.61-2.7a1.89,1.89,0,0,0-1-1.58,2,2,0,0,0-1.75.74,78.84,78.84,0,0,0-2.74,7.73,2.12,2.12,0,0,0,1,1.81c.48.18,1.41-.33,1.9-.79A8.11,8.11,0,0,0,278.16,47.46Z" transform="translate(-151.83 -26.17)"/><path class="cls-24" d="M330.47,93.15l-1.22-2.71c.49-.32,1.08-.5,1.31-.89.37-.64.89-1.65.64-2.07a2.24,2.24,0,0,0-2.07-.71,46.68,46.68,0,0,0-6.62,3c-.63.35-.82,1.52-1.21,2.31a18.34,18.34,0,0,0,2.58.72,4.65,4.65,0,0,0,1.64-.5l1.26,2.64c-3.82,2.16-6.47,1.34-7.84-2.32-.81-2.14-.53-4,1.45-5.19A33.49,33.49,0,0,1,328,83.85c3-.91,5.15.6,6,3.55C334.73,90.15,333.73,91.84,330.47,93.15Z" transform="translate(-151.83 -26.17)"/><path class="cls-24" d="M257.7,42.71c-.3,2-.58,3.84-.88,5.87l-3.14-.44c.69-5,1.38-10,2.09-15.1,2,.27,3.91.41,5.74.78a4,4,0,0,1,3.25,4.82c-.44,3-1.94,4.35-4.64,4.28C259.35,42.9,258.58,42.79,257.7,42.71Zm.3-1.93c1.38-.52,2.55-.62,3.07-1.26a2.77,2.77,0,0,0,.16-2.55c-.36-.63-1.49-.83-2.52-1.33C258.46,37.43,258.29,38.72,258,40.78Z" transform="translate(-151.83 -26.17)"/><path class="cls-23" d="M230,51c0-5.93-4-9.59-6.88-13.82,2.88-1.53,3.1-1.48,4.63,1l1.83,3c.21-1.47.33-2.45.48-3.42.46-2.83.47-2.83,3.66-3.12-.7,5.13-2.8,10.21-.2,15.47Z" transform="translate(-151.83 -26.17)"/><path class="cls-23" d="M177.15,146.16l.94,3-11.89,3.72.62,3.18-2.33.81-3-9.37,2.49-.78,1.13,3.06Z" transform="translate(-151.83 -26.17)"/><path class="cls-24" d="M341.61,122.4h-2.7l-.24-3.13-12.48.91-.38-3.14,12.46-1v-3.31l2.6-.15C341.12,115.85,341.35,119,341.61,122.4Z" transform="translate(-151.83 -26.17)"/><path class="cls-22" d="M160.41,106.9a10.19,10.19,0,0,0,.34-1.68c0-1.32.68-1.47,1.82-1.19,3.5.85,7,1.62,10.73,2.47l1.33-5.13,2.55.39-1.87,8.49Z" transform="translate(-151.83 -26.17)"/><path class="cls-23" d="M219.89,54.67l-5.84-14.15,3-1.2,4.79,11.52,5-1.86,1,2.36Z" transform="translate(-151.83 -26.17)"/><path class="cls-22" d="M341.36,128.07H326.3V125h15.06Z" transform="translate(-151.83 -26.17)"/><path class="cls-23" d="M175.08,112.42l-.48,3.17-15.09-2.13.46-3.2Z" transform="translate(-151.83 -26.17)"/><path class="cls-23" d="M268.17,34.8l3.11.79-3.34,14.8-3.16-.66C265.92,44.69,267,39.81,268.17,34.8Z" transform="translate(-151.83 -26.17)"/><path class="cls-23" d="M336.53,94.63l.91,3.08-14.56,4.49L322,99.13Z" transform="translate(-151.83 -26.17)"/><path class="cls-19" d="M246.63,45.06l.73-5.78.55-.06.42,5.88c-.19-.58-.38-1.16-.63-2Z" transform="translate(-151.83 -26.17)"/><path class="cls-19" d="M249.2,48.37l2-.06Z" transform="translate(-151.83 -26.17)"/><path class="cls-19" d="M248.45,47.46l.27.83Z" transform="translate(-151.83 -26.17)"/><path class="cls-11" d="M228.27,141.78l9.87,0v.75l-1.24.34c-.44,1.61-.8,3-1.17,4.33l-.77-1.75c-1.71.15-1.7-1.28-1.62-2.62l-4.5-.61Z" transform="translate(-151.83 -26.17)"/><path class="cls-15" d="M227.49,144.6c1.41.43,2.83.85,2.22,3.07l-.66-1.11-.4,2.95c-.71-.34-1.35-.67-2-1-.49-.22-1-.4-1.51-.6C225.41,146.47,225.89,145.14,227.49,144.6Z" transform="translate(-151.83 -26.17)"/><path class="cls-18" d="M227.49,144.6c-1.6.54-2.08,1.87-2.36,3.34l-.78,0q.38-2.62.76-5.25h2.33a1,1,0,0,0,.14.3c0,.27-.05.53-.07.8Z" transform="translate(-151.83 -26.17)"/><path class="cls-18" d="M216.44,148.07l.82-4.88.7.08,1.17,3.54-1.19,1.09Z" transform="translate(-151.83 -26.17)"/><path class="cls-8" d="M226.68,150.43l-17.36,0a18.16,18.16,0,0,1,3.37-.63c4.37,0,8.74.13,13.12.23A2.89,2.89,0,0,1,226.68,150.43Z" transform="translate(-151.83 -26.17)"/><path class="cls-11" d="M227.44,142.65h-2.33c-1.14.07-2.49-.65-3.2.87l-1.12-.85a.83.83,0,0,0-.35,0l.33-.87h6.71Z" transform="translate(-151.83 -26.17)"/><path class="cls-11" d="M232.18,130.78l-3.81.1L226.3,130l10,.27Z" transform="translate(-151.83 -26.17)"/><path class="cls-18" d="M224.38,136l1.1-5.13.73.15-1,5.16Z" transform="translate(-151.83 -26.17)"/><path class="cls-11" d="M229.56,138.58l1.4-.05,2,.71-5.07,0Z" transform="translate(-151.83 -26.17)"/><path class="cls-11" d="M226.65,139.2l-7.05.26Z" transform="translate(-151.83 -26.17)"/><path class="cls-18" d="M222.73,147.65l.47-1.72.52.1-.16,1.87Z" transform="translate(-151.83 -26.17)"/><path class="cls-8" d="M216.44,148.07l1.5-.17-.64.95Z" transform="translate(-151.83 -26.17)"/><path class="cls-8" d="M231.86,150.11l-2.79.29Z" transform="translate(-151.83 -26.17)"/><path class="cls-11" d="M227.51,143.75c0-.27.05-.53.07-.8l.56.35Z" transform="translate(-151.83 -26.17)"/><path class="cls-18" d="M220.44,142.66a.83.83,0,0,1,.35,0c0,.37,0,.74,0,1.12C220.65,143.41,220.55,143,220.44,142.66Z" transform="translate(-151.83 -26.17)"/><path class="cls-8" d="M232.32,149.76l-.45.38Z" transform="translate(-151.83 -26.17)"/><path class="cls-8" d="M232.62,149.28c-.1.16-.2.32-.31.48C232.42,149.6,232.52,149.44,232.62,149.28Z" transform="translate(-151.83 -26.17)"/><path class="cls-18" d="M291.8,150.42l1.87,1.11c-9.31,0-18.62,0-27.93.1-1.57,0-1.31-1.1-1.64-1.93l-.89-1.27-.94-2a.36.36,0,0,0,0-.27l0-.61,2-.39-.86-2,6.1-.54c-.15.38-.2.88-.47,1.14-.94.89-2,1.64-2.91,2.59a2.8,2.8,0,0,0-.83,2,2.08,2.08,0,0,0,2.32,1.86c3.66-.11,7.33-.06,11-.08l11.58.31h1.58Z" transform="translate(-151.83 -26.17)"/><path class="cls-14" d="M261.79,153.69c-.15.24-.3.68-.44.68-8.91,0-17.82,0-26.74-.15l2.36-.55,0-.14.34-.33.14,0,.33,0,.43-.74.25,0,2.89.16h.36l.81-.2.71.81a2.14,2.14,0,0,1,.09.34l11.81.11.4-.46.42-.82h4.32l1.19,1.2.41,0Z" transform="translate(-151.83 -26.17)"/><path class="cls-11" d="M261.42,153.6l-1.19-1.2q-.76-6.3-1.54-12.6h.77c.13.64.26,1.28.4,1.92l.34,2.35,1.77-.94.32,2.37,0,.61L261,147.29l-.39-.59-.23.23.59.38.48,1.2c-1,1.75-.68,2.25,1.91,3.28v.58l-1.81-.56-.17,1.41A.62.62,0,0,0,261.42,153.6Zm.32-8.59c-.17-.17-.28-.35-.4-.37a1.35,1.35,0,0,0-.49.14c.12.16.21.38.37.46S261.5,145.12,261.74,145Z" transform="translate(-151.83 -26.17)"/><path class="cls-15" d="M290.61,153.68h-18c1.37-1.43,19.65-1.62,21.4-.28Z" transform="translate(-151.83 -26.17)"/><path class="cls-25" d="M235.08,149.68h.29l1.29.79c-.12.27-.24.54-.35.81l-.13.38c0,.26,0,.59.15.74a7.37,7.37,0,0,0,1.08.83l-.14,0-.34.33,0,.14c-1.3,0-2.6-.09-3.9-.15-.1,0-.19-.14-.53-.39C234,152.39,235.08,151.37,235.08,149.68Z" transform="translate(-151.83 -26.17)"/><path class="cls-15" d="M263.4,151.79c-2.59-1-2.88-1.53-1.91-3.28a.94.94,0,0,0,.33-.08l.74.07c-.18,1,.39,1.38,1.22,1.57Z" transform="translate(-151.83 -26.17)"/><path class="cls-25" d="M261.42,153.22l.17-1.41,1.81.56.78.68c-.23.17-.43.46-.68.5a13.92,13.92,0,0,1-1.71.14l0-.14Z" transform="translate(-151.83 -26.17)"/><path class="cls-25" d="M207.5,152.86h2.94v.58l-2.93.14Z" transform="translate(-151.83 -26.17)"/><ellipse class="cls-25" cx="66.77" cy="126.98" rx="1.75" ry="0.41"/><ellipse class="cls-25" cx="77.43" cy="126.97" rx="1.75" ry="0.4"/><ellipse class="cls-25" cx="62.63" cy="126.98" rx="1.47" ry="0.4"/><ellipse class="cls-25" cx="73.28" cy="126.92" rx="1.83" ry="0.4"/><path class="cls-17" d="M263.78,150.07c-.83-.19-1.4-.59-1.22-1.57l.65-.07.89,1.27Z" transform="translate(-151.83 -26.17)"/><path class="cls-15" d="M272.29,153.38h-1.63l0-.58,1.62-.1Z" transform="translate(-151.83 -26.17)"/><path class="cls-16" d="M270.45,112.16l2,1.15-12.62.49-2,0-1.55-.39-.24,3.93c.11,1.6.23,3.19.35,4.78l.18,4.72h-1.89l-.78-1.57c-.11-2.28-.23-4.56-.34-6.83,0-.22,0-.44,0-.66l-.15-6.72c-.08-.66-.15-1.31-.22-2l-.39-8.08,0-1.79-.07-2.37V95.22c-.09-1.59-.17-3.17-.25-4.76-.06-1.95-.11-3.91-.17-5.86l.06-2.41h0l.82-.17.36.19.09,2.38,0,.76q.24,3.39.5,6.78c.11,1.56.21,3.13.32,4.69,0,.27.1.53.16.8.21,2.9.43,5.79.65,8.69.11,1.89.22,3.77.32,5.45h6.62l4.35.14h.37l.81-.13.39.15,1.6.25Z" transform="translate(-151.83 -26.17)"/><path class="cls-15" d="M259.86,141.73c-.14-.64-.27-1.28-.4-1.92l.38-.42h11.05c2,0,4.06.21,6.07.05s2.37.61,2,2.28a8.79,8.79,0,0,0-.61,1.86c-.11,1.36-.07,2.72-.09,4.08l-.29,1.58-7.1-1c-.62.63-1.46,1.13-2,.91s-1.15-1.15-1.65-1.71l3.3-4.47,1.49-.47c.2,1.77.38,3.29.55,4.81a6.06,6.06,0,0,0,.75-2.77c.1-2,.46-2.25,2.41-1.9a8.23,8.23,0,0,0,1.49,0v-.94Z" transform="translate(-151.83 -26.17)"/><path class="cls-26" d="M254.71,126.78h1.89c.55,3.84,1.09,7.69,1.66,11.53a11.32,11.32,0,0,0,.43,1.48q.76,6.3,1.54,12.6h-4.32c0-1.18-.07-2.36-.11-3.54l-.28-.81-.54-9.42-.25-1.59c-.21-3-.41-6.06-.62-9.1Z" transform="translate(-151.83 -26.17)"/><path class="cls-25" d="M276.47,129.39l-.08.85,0,.13-.41.07-1.19,0-.62.13-2.14-.16H259.84c-1.61.18-1.75-.83-1.64-2l.45-.33c5.14.13,10.28.22,15.42.43A8.07,8.07,0,0,1,276.47,129.39Z" transform="translate(-151.83 -26.17)"/><path class="cls-20" d="M259.45,138.67a31.6,31.6,0,0,1-.57-4.31c0-.48.74-1.08,1.28-1.44a7.06,7.06,0,0,1,1.77-.57c.12-.26.25-.52.56-1.16.54,2.38.93,4.12,1.32,5.85-.15.69.28,2.24-1.06,1.52S260.54,138.77,259.45,138.67Z" transform="translate(-151.83 -26.17)"/><path class="cls-20" d="M270.13,123.3c-.22,1.5-.41,2.77-.66,4.41l-3.23-1.54.65-1.34c-1.46-.41-3.42.72-5.1-1.53Z" transform="translate(-151.83 -26.17)"/><path class="cls-7" d="M263.81,137c-.39-1.73-.78-3.47-1.32-5.85-.31.64-.44.9-.56,1.16-1.1,0-2.37.16-2.09-1.63l5.16.48-.26.39.23,1.9c.16.55.3,1.11.48,1.65.37,1.13.77,2.25,1.16,3.36C264.56,140.15,264.33,138.33,263.81,137Z" transform="translate(-151.83 -26.17)"/><path class="cls-16" d="M258.59,126.24l-.74.48c.06-1.19.12-2.22.17-3.32a2.32,2.32,0,0,1,3.35,1.3c.26.67-.18,1.61-.31,2.43Z" transform="translate(-151.83 -26.17)"/><path class="cls-20" d="M271.9,126.72l-1-2.71c.92,0,2.24-.34,2.56.08a10.65,10.65,0,0,1,1.22,3.27l-.6.4-2.58-.52Z" transform="translate(-151.83 -26.17)"/><path class="cls-11" d="M263.81,137c.52,1.29.75,3.11,2.8,1.46,1.1.72,1.44-.22,1.92-.87v1.75h-8.69l-.39-.72c1.09.1,2-.83,3.3-.11S263.66,137.73,263.81,137Z" transform="translate(-151.83 -26.17)"/><path class="cls-11" d="M265,131.2l-5.16-.48v-.32H270.1l-.85.87Z" transform="translate(-151.83 -26.17)"/><path class="cls-20" d="M262.9,125.32c.37,1.31,3.29-.58,2.22,2.05a8.92,8.92,0,0,1-2.18-.54C262.73,126.72,262.9,125.84,262.9,125.32Z" transform="translate(-151.83 -26.17)"/><path class="cls-15" d="M258.65,128l-.45.33Z" transform="translate(-151.83 -26.17)"/><path class="cls-18" d="M268.73,81.8c-.11.24-.21.48-.32.73l-.67.27c-2.12-.8-1.52-2.52-1.46-4.12s-.06-3.41-.1-5.12a7.51,7.51,0,0,1,1.52,2,8.87,8.87,0,0,1,0,2.68Z" transform="translate(-151.83 -26.17)"/><path class="cls-20" d="M262.33,79.43l-4.85,2L259.94,77Z" transform="translate(-151.83 -26.17)"/><path class="cls-20" d="M252.63,78.65l.49-.8.89-.42c.13,1-1.12,2.93,1.77,2.27l-1,1.81-.47.06-1.1-.23v0l-.43-.42,0,0-.24-1.12Z" transform="translate(-151.83 -26.17)"/><path class="cls-16" d="M257.07,82.62c.2,1.49-.92,1-1.66,1.11-1.11.11-1.56-.42-1.42-1.49a1.19,1.19,0,0,0,.32-.1l2.35.1Z" transform="translate(-151.83 -26.17)"/><path class="cls-16" d="M263.4,83.83l-2-1,.18-.57,2.26-.15,1.32,1.44Z" transform="translate(-151.83 -26.17)"/><path class="cls-17" d="M256.66,82.24l-2.35-.1c0-.19,0-.38,0-.57l.47-.06Z" transform="translate(-151.83 -26.17)"/><path class="cls-15" d="M241.31,152.62l-2.89-.16c0-.12-.09-.24-.14-.36l.15-.86,0-.39,1-8q.94-7.41,1.87-14.81l.06-.58.27-1.81c0-.52.07-1,.11-1.56l.51-4.37c0-.26.07-.52.1-.79.18-2.89.36-5.79.55-8.68v-.56l.26-1.78,0-1.2.42-5.13.28-2c.16-2.11.31-4.21.47-6.31l0-.78.76-8.69c0-.46.09-.93.14-1.39l.68-.61a1,1,0,0,0,.39,0l.62,2.41c-.18.91-.36,1.82-.55,2.73,0,1.31-.05,2.62-.08,3.93-.09.93-.17,1.85-.26,2.78,0,1.7-.08,3.41-.11,5.11l-.21,3.19.09,1.76.89.11h5.53v2.36h-5.86l-.23-2.08-.64,0-.39,12.76-.21,2.74-.1,2.4,0,.78q-1.2,14.79-2.41,29.58l-.81.2A.3.3,0,0,0,241.31,152.62Z" transform="translate(-151.83 -26.17)"/><path class="cls-12" d="M244.45,92.46l0,.78a10.28,10.28,0,0,0-.72,1.77c-.22,1-.32,2-.46,3l-3.92-.36L238,95.11c.89-1,1.68-.69,2.18.65,1.77-.6,1.84-1.55.44-2.9Z" transform="translate(-151.83 -26.17)"/><path class="cls-25" d="M239.31,97.64l3.92.36,0,.73a4,4,0,0,1-1,.42c-1.62.13-3.66-.94-4.43,1.59,0,.06-.24.05-.37.08l-3.86-.42-1.19-.07a1.18,1.18,0,0,1-.09-.37l4.73-.55-.77-1.67H237l.36,0Z" transform="translate(-151.83 -26.17)"/><path class="cls-15" d="M233.81,92.46l2.67,0a3.37,3.37,0,0,0,.1.34c0,.13,0,.26,0,.39l.19,2.56-2.68,1.82Z" transform="translate(-151.83 -26.17)"/><path class="cls-18" d="M237.33,97.78l-.36,0A.34.34,0,0,1,237.33,97.78Z" transform="translate(-151.83 -26.17)"/><path class="cls-21" d="M236.54,93.21c0-.13,0-.26,0-.39l.28.24Z" transform="translate(-151.83 -26.17)"/><path class="cls-16" d="M265,131.2l4.25.06c.42,1.87.88,3.74,1.23,5.62,0,.25-.44.6-.68.9l-.48-.21-.79.06c-.48.65-.82,1.59-1.92.87-.39-1.11-.79-2.23-1.16-3.36-.18-.54-.32-1.1-.48-1.65l-.23-1.9Z" transform="translate(-151.83 -26.17)"/><path class="cls-15" d="M271.85,131.42c3.4-.56,3.72-.25,3.7,3.17A11.22,11.22,0,0,0,276,137c-2.34,1.2-3.13.84-3.59-1.57-.23-1.23-.47-2.44-.71-3.66C271.72,131.7,271.77,131.63,271.85,131.42Z" transform="translate(-151.83 -26.17)"/><path class="cls-16" d="M283.07,147.48c0,1.76-1.38.87-2.12,1-1.41.18-1.41-.94-1.45-1.92.15-1.47.31-2.94.46-4.4a25.59,25.59,0,0,0,.85,2.65A9.71,9.71,0,0,0,282,146.4a.57.57,0,0,0,.33.13l.41.44,0,0Z" transform="translate(-151.83 -26.17)"/><path class="cls-11" d="M280,142.13c-.15,1.46-.31,2.93-.46,4.4l-1.24,1.12c0-1.36,0-2.72.09-4.08a8.79,8.79,0,0,1,.61-1.86Z" transform="translate(-151.83 -26.17)"/><path class="cls-11" d="M270.89,139.38h0Z" transform="translate(-151.83 -26.17)"/><path class="cls-11" d="M270.89,130.39h0Z" transform="translate(-151.83 -26.17)"/><path class="cls-11" d="M274.21,130.55l.62-.13Z" transform="translate(-151.83 -26.17)"/><path class="cls-11" d="M276,130.44l.41-.07Z" transform="translate(-151.83 -26.17)"/><path class="cls-11" d="M269.32,137.57l.48.21Z" transform="translate(-151.83 -26.17)"/><path class="cls-20" d="M267.73,86.43a.51.51,0,0,0,.31.15c-.4.37-.79,1-1.19,1.06-3.71.08-7.43.06-11.14,0a4.59,4.59,0,0,1-1.42-.48l.05-.58,2.76-.44h7.09l2.25.06Z" transform="translate(-151.83 -26.17)"/><path class="cls-10" d="M261.2,88.21h4.89l-.1.86-1.92-.32.2.44A23.16,23.16,0,0,1,261,90.42c-.29.07-.78-.67-1.17-1C260.42,89.12,261.66,89.64,261.2,88.21Z" transform="translate(-151.83 -26.17)"/><path class="cls-16" d="M260.24,86.14H257.1l-.94-1.71C260.29,83.84,260.83,84.1,260.24,86.14Z" transform="translate(-151.83 -26.17)"/><path class="cls-9" d="M254.46,96.81c-.11-1.56-.21-3.13-.32-4.69l.57-.06v2.31c1.78,0,1.71,1.21,1.45,2.63Z" transform="translate(-151.83 -26.17)"/><path class="cls-16" d="M257.49,82.22c1.12.12,2.63-.66,3.07,1.37-1.43.2-2.76.56-3.06-1.37Z" transform="translate(-151.83 -26.17)"/><path class="cls-18" d="M261.2,88.21c.46,1.43-.78.91-1.34,1.17l-2-.21,0-.8Z" transform="translate(-151.83 -26.17)"/><path class="cls-10" d="M254.29,81.57c0,.19,0,.38,0,.57a1.19,1.19,0,0,1-.32.1l-.47,0-.36-.19a1.15,1.15,0,0,0,0-.26l.06-.41Z" transform="translate(-151.83 -26.17)"/><path class="cls-17" d="M253.64,85.34l0-.76Z" transform="translate(-151.83 -26.17)"/><path class="cls-20" d="M237.16,77.16l1.25.9a.18.18,0,0,0,.1.19l.8.37c.23,1.18.47,2.36.7,3.53l-1.88-1.07c-1-1.17-1.85-.66-2.67.19l.54,1.79a.25.25,0,0,0-.24.19l-.79.08L233.4,83a1.65,1.65,0,0,1-.32-.06l0-1c1.6-.14,1-1.46,1.22-2.31.1-.33.21-.66.32-1l2-.34a.18.18,0,0,0,.06-.21c.11-.19.21-.38.31-.57A.87.87,0,0,0,237.16,77.16Z" transform="translate(-151.83 -26.17)"/><path class="cls-16" d="M228.25,82.2l-.21-.43c1.28-1.28,1.28-1.28,2.06-6.41l.92,2.11.15,1.17c0,.41.07.82.1,1.23L229,82.55h-.66A2.42,2.42,0,0,0,228.25,82.2Z" transform="translate(-151.83 -26.17)"/><path class="cls-17" d="M229,82.55l2.26-2.68c-.15,1.32,1,1.46,1.77,2,0,.35,0,.69,0,1Z" transform="translate(-151.83 -26.17)"/><path class="cls-13" d="M236.56,78.25l-2,.34Z" transform="translate(-151.83 -26.17)"/><path class="cls-17" d="M231.17,78.64,231,77.47Z" transform="translate(-151.83 -26.17)"/><path class="cls-13" d="M236.93,77.47c-.1.19-.2.38-.31.57C236.73,77.85,236.83,77.66,236.93,77.47Z" transform="translate(-151.83 -26.17)"/><path class="cls-10" d="M238.13,81.08,240,82.15l2.64.15.12.51a5.34,5.34,0,0,0-1.07.34,5.78,5.78,0,0,0-.88.77l-3.07-.19V81.8Z" transform="translate(-151.83 -26.17)"/><path class="cls-18" d="M237.75,83.73l3.07.19-1.13,1-2.38.58C237.46,84.87,237.6,84.3,237.75,83.73Z" transform="translate(-151.83 -26.17)"/><path class="cls-18" d="M238.89,89.31l-2.6.55c.12-.42.14-1.14.38-1.22a6.33,6.33,0,0,1,1.86-.11l.35.39A.74.74,0,0,0,238.89,89.31Z" transform="translate(-151.83 -26.17)"/><path class="cls-9" d="M238.89,89.31a.74.74,0,0,1,0-.39c.9-.49,1.51-.38,1.62.78Z" transform="translate(-151.83 -26.17)"/><path class="cls-9" d="M240.73,87l-.3-.78,1.09.4Z" transform="translate(-151.83 -26.17)"/><path class="cls-9" d="M239.35,87.53l.78,0Z" transform="translate(-151.83 -26.17)"/><path class="cls-13" d="M239.31,78.62l-.8-.37Z" transform="translate(-151.83 -26.17)"/><path class="cls-20" d="M229.36,116.51a.9.9,0,0,0,.13-.32h2.12v2.56l-2,.13Z" transform="translate(-151.83 -26.17)"/><path class="cls-16" d="M238.25,115.42h1.68c.29,2.24,0,2.45-2.54,1.87Z" transform="translate(-151.83 -26.17)"/><path class="cls-18" d="M226.74,118.42v-2.34l1.45.48C227.8,117.25,229.51,119.58,226.74,118.42Z" transform="translate(-151.83 -26.17)"/><path class="cls-17" d="M252.33,82.19l-.06,2.41L248,84.17l-.4-2.36Z" transform="translate(-151.83 -26.17)"/><path class="cls-9" d="M249.69,79.5l-2.07-1.16,1-1.24,1.64,1.67Z" transform="translate(-151.83 -26.17)"/><path class="cls-9" d="M247.61,81.81c.14.79.27,1.57.4,2.36l-1,0-.62-2.41Z" transform="translate(-151.83 -26.17)"/><path class="cls-10" d="M252.56,79.87,252.8,81Z" transform="translate(-151.83 -26.17)"/><path class="cls-17" d="M253.13,81.75a1.15,1.15,0,0,1,0,.26l-.82.17Z" transform="translate(-151.83 -26.17)"/><path class="cls-10" d="M252.77,81l.43.42Z" transform="translate(-151.83 -26.17)"/><path class="cls-8" d="M271.68,154.77l-.41-.06Z" transform="translate(-151.83 -26.17)"/><path class="cls-11" d="M241.33,128q-.93,7.39-1.87,14.81c-.17-.47-.33-.94-.5-1.4v-1.92l-5.19-.25,0-.62,2.31-1,2.42,1.25v-2.25l0,0c.94.12,1.43.12.62-1-1-1.38-1.53-2.93-.18-4.61h-4l2.78-.75c3-.2,3.37-.63,2.24-2.68Z" transform="translate(-151.83 -26.17)"/><path class="cls-15" d="M232.92,127.18l-2.7-.51.1-.39-2.37.9c-.15-1.58-.3-3.15-.46-4.72l3.09.07c0,.62,0,1.24.07,1.85l.43.42Z" transform="translate(-151.83 -26.17)"/><path class="cls-15" d="M232.21,122.41l3.08.15c-.19.6-.3,1.64-.61,1.71a5.74,5.74,0,0,1-2.55-.25A7.18,7.18,0,0,1,232.21,122.41Z" transform="translate(-151.83 -26.17)"/><path class="cls-13" d="M241.66,125.6l-.27,1.81Z" transform="translate(-151.83 -26.17)"/><path class="cls-16" d="M231.08,124.8l-.43-.42Z" transform="translate(-151.83 -26.17)"/><path class="cls-10" d="M270.52,143l-3.3,4.47c.5.56,1,1.42,1.65,1.71s1.38-.28,2-.91l7.1,1,1.63.77-1,.11c-3.66,0-7.33,0-11,.08a2.08,2.08,0,0,1-2.32-1.86,2.8,2.8,0,0,1,.83-2c.87-.95,2-1.7,2.91-2.59.27-.26.32-.76.47-1.14Z" transform="translate(-151.83 -26.17)"/><path class="cls-13" d="M278.64,150.11l1-.11c2.92,0,5.85,0,8.77.08a10.74,10.74,0,0,1,1.85.34Z" transform="translate(-151.83 -26.17)"/><path class="cls-10" d="M282.69,147l-.41-.44C282.41,146.68,282.55,146.83,282.69,147Z" transform="translate(-151.83 -26.17)"/><path class="cls-10" d="M283.07,147.48l-.41-.54Z" transform="translate(-151.83 -26.17)"/><path class="cls-13" d="M291.8,150.42h0Z" transform="translate(-151.83 -26.17)"/><path class="cls-7" d="M242.94,109.64c0,.18,0,.37,0,.56l-.9,1.62a.85.85,0,0,1-.35,0l-1.61-.84.55-3.2-.69-.21-1.76,3.42-2,0v-1.92L233,110.71l-.08-2.16.9-1.09,3.24.88c0-1.75,1.23-1.74,2.57-1.71a16.12,16.12,0,0,0,2.81-.4.51.51,0,0,1,.25-.27l.51.7,0,1.2C243.11,108.45,243,109,242.94,109.64Z" transform="translate(-151.83 -26.17)"/><path class="cls-11" d="M242.48,106.23a16.12,16.12,0,0,1-2.81.4c-1.34,0-2.53,0-2.57,1.71l-3.24-.88-2.26-.63-.17,1.82-.41,3-1.15,0,0-.57.23-3.46-1.82-.18,2.37-1.08Z" transform="translate(-151.83 -26.17)"/><path class="cls-13" d="M242,111.82l.9-1.62c-.19,2.89-.37,5.79-.55,8.68-.07-.11-.21-.22-.2-.32.4-2.84-.3-4.84-3.66-4.83.64,0,1.29-.09,1.93,0C241.82,113.75,242.39,113.2,242,111.82Z" transform="translate(-151.83 -26.17)"/><path class="cls-17" d="M236.16,111l2,0h1.9l1.61.84-8.68-.09.07-.79Z" transform="translate(-151.83 -26.17)"/><path class="cls-17" d="M231,111.64l.41-3,.79,0v3.06Z" transform="translate(-151.83 -26.17)"/><path class="cls-11" d="M232.23,111.68v-3.06l.74-.07c0,.72.06,1.44.08,2.16l0,.18-.07.79Z" transform="translate(-151.83 -26.17)"/><path class="cls-17" d="M229.85,111l0,.57-2-.15c0-.19.06-.37.08-.56Z" transform="translate(-151.83 -26.17)"/><path class="cls-16" d="M266.17,119l-3.89-.22c-.15-.9-.3-1.79-.44-2.69v-1.46h7l.4,3.71-.59.08-.73-2.34C267.59,117.53,268.07,119.16,266.17,119Zm-2.59-.73.5.18,2.31-2.14-2.16-.71Z" transform="translate(-151.83 -26.17)"/><path class="cls-16" d="M269.93,118.71c-.52-3.63-.17-4.24,2.18-4a27.43,27.43,0,0,1,.72,2.91C273,119,271.87,119.38,269.93,118.71Z" transform="translate(-151.83 -26.17)"/><path class="cls-9" d="M256.07,117.29l.24-3.93,1.55.39,2,0v.71l-.85.82-1.8,1.08-.18-.36Z" transform="translate(-151.83 -26.17)"/><path class="cls-7" d="M261.84,116.13c.14.9.29,1.79.44,2.69l-2.18-.07c.17-1.38.34-2.76.5-4.14.26,0,.67,0,.75.15A7.2,7.2,0,0,1,261.84,116.13Z" transform="translate(-151.83 -26.17)"/><path class="cls-20" d="M260.6,114.61c-.16,1.38-.33,2.76-.5,4.14-.35-.39-.9-.72-1-1.17a9.86,9.86,0,0,1-.09-2.25l.85-.82Z" transform="translate(-151.83 -26.17)"/><path class="cls-17" d="M233.5,100.4l3.86.42c-.4.79-.79,1.58-1.38,2.73,1.33.29,2.34.57,3.37.73s2.15.24,3.22.35l-.13.08-9.88-.25.36-2.56,1,2.43,1.69-2.93-2.55.16.37-.88A1,1,0,0,1,233.5,100.4Z" transform="translate(-151.83 -26.17)"/><path class="cls-13" d="M243.24,106.66l-.51-.7c-.1-.42-.19-.84-.29-1.25l.13-.08a10.31,10.31,0,0,0,.68-1.32,17.07,17.07,0,0,0,.41-1.78Z" transform="translate(-151.83 -26.17)"/><path class="cls-17" d="M229.82,104.39l1.26,0Z" transform="translate(-151.83 -26.17)"/><path class="cls-20" d="M269.73,112.17l-1.6-.25.33-.93h-.72c-1.62.31-3.25.77-4.75-.38h0l-.15-.86-.73.79-1.05-3.09h6.59l-.59,1.69.91,1.17C270.21,109.59,269.41,111.39,269.73,112.17Z" transform="translate(-151.83 -26.17)"/><path class="cls-18" d="M257,108.87a15,15,0,0,1,1.64-.36,5,5,0,0,1,1.2.15c-.22.46-.45,1.32-.64,1.31a13.48,13.48,0,0,1-2.47-.54Z" transform="translate(-151.83 -26.17)"/><path class="cls-11" d="M263,110.62c1.5,1.15,3.13.69,4.75.38v.77l-.81.13a.43.43,0,0,0-.37,0l-4.35-.14Z" transform="translate(-151.83 -26.17)"/><path class="cls-11" d="M262.11,110.54l.73-.79.15.86Z" transform="translate(-151.83 -26.17)"/><path class="cls-15" d="M233,101.56l2.55-.16-1.69,2.93-1-2.43C233,101.79,233,101.67,233,101.56Z" transform="translate(-151.83 -26.17)"/><path class="cls-18" d="M233.5,100.4a1,1,0,0,0-.11.28l-1.08-.35Z" transform="translate(-151.83 -26.17)"/><path class="cls-20" d="M264.61,92.91h1.13c.18.68.36,1.36.63,2.34l.43-2.14.46-.08c.29,1.17.62,2.33.83,3.52a1,1,0,0,1-.53.85,1.54,1.54,0,0,1-1.21-.28C265.2,96,264.13,94.74,264.61,92.91Z" transform="translate(-151.83 -26.17)"/><path class="cls-18" d="M259.16,92.5a.33.33,0,0,0,.29,0l4.34.36a4.57,4.57,0,0,1-.22,1.09c-1.48,0-3,0-4.44,0Z" transform="translate(-151.83 -26.17)"/><path class="cls-20" d="M229.85,111l-1.91-.14c-.13-1.19-.51-2.4.32-3.5l1.82.18Z" transform="translate(-151.83 -26.17)"/><path class="cls-14" d="M234.59,88.91c-1.08,1.66-1.68,1.65-2.74,0,.37-.32.79-1,1.08-.91A5.82,5.82,0,0,1,234.59,88.91Z" transform="translate(-151.83 -26.17)"/><path class="cls-11" d="M267.73,86.43l-1.29-.23Z" transform="translate(-151.83 -26.17)"/><path class="cls-14" d="M229,82.55l4.07.38a1.65,1.65,0,0,0,.32.06l1.51,1.15.85-.9a.25.25,0,0,1,.24-.18c.05.89.11,1.79.16,2.69l-1.91-.88c-2.15,1.23-4.49,1.29-6,.08l-.38-.4c0-.65,0-1.3,0-2l.43,0Z" transform="translate(-151.83 -26.17)"/><path class="cls-12" d="M236.16,85.75c0-.9-.11-1.8-.16-2.69l-.54-1.79c.82-.85,1.68-1.36,2.67-.19l-.39.72-1,.28.1.36.94-.24v1.53c-.15.57-.29,1.14-.44,1.72Z" transform="translate(-151.83 -26.17)"/><path class="cls-7" d="M228.35,82.56l-.43,0,.33-.4A2.42,2.42,0,0,1,228.35,82.56Z" transform="translate(-151.83 -26.17)"/><path class="cls-27" d="M188.76,75.29l-7.68-6.6c1.45-2.3,2.46-2.53,4.54-.91a31.85,31.85,0,0,1,3.54,3.12C190.85,72.64,190.77,73.3,188.76,75.29Z" transform="translate(-151.83 -26.17)"/><path class="cls-27" d="M316.88,82.48c-.53-.43-1.21-.72-1.41-1.21s-.16-1.5.16-1.73c2.32-1.67,4.7-3.27,7.16-4.73.39-.23,1.44.18,1.83.61a1.82,1.82,0,0,1,.15,1.77C322.68,79.62,319.94,81.1,316.88,82.48Z" transform="translate(-151.83 -26.17)"/><path class="cls-27" d="M214.2,54.05c-.73.86-1,1.52-1.53,1.72s-1.53.15-1.72-.17c-1.54-2.53-3-5.13-4.33-7.77-.17-.35.31-1.31.74-1.59s1.53-.29,1.73,0C210.86,48.77,212.49,51.39,214.2,54.05Z" transform="translate(-151.83 -26.17)"/><path class="cls-27" d="M330.69,133.73c2,.35,4,.62,5.95,1.07,1,.24,2.18.89,1.66,2.15a2.78,2.78,0,0,1-2.13,1.44,50.84,50.84,0,0,1-6.94-1c-1.06-.2-2.06-.75-1.77-2.12s1.29-1.49,2.43-1.43h.78Z" transform="translate(-151.83 -26.17)"/><path class="cls-27" d="M335.42,106.64l-4.76,2.25-.69-2.56h5.36Z" transform="translate(-151.83 -26.17)"/><path class="cls-19" d="M164.1,139.91l5.26-2.07.26,2.81-5.4-.34Z" transform="translate(-151.83 -26.17)"/><path class="cls-19" d="M291.14,53.64l3.42-3.79.53.22L293.61,55Z" transform="translate(-151.83 -26.17)"/><path class="cls-19" d="M175.3,79.67l5.21,1.46-1.36,2.46-4-3.51Z" transform="translate(-151.83 -26.17)"/><path class="cls-27" d="M258,40.78c.29-2.06.46-3.35.71-5.14,1,.5,2.16.7,2.52,1.33a2.77,2.77,0,0,1-.16,2.55C260.55,40.16,259.38,40.26,258,40.78Z" transform="translate(-151.83 -26.17)"/><path class="cls-20" d="M236.66,150.48l-1.29-.79.36-2.46c.37-1.36.73-2.72,1.17-4.33l1.24-.34-.78,6.35Z" transform="translate(-151.83 -26.17)"/><path class="cls-7" d="M233.8,138.61l0,.62H233l-2-.71c.18-.5.35-1,.53-1.49l.2-.63-.37-2.27c1.06-.54,1.55-1.75.86-3.36l4.16-.55,1.41.09-2.78.75a10.15,10.15,0,0,0-.65,2C234.09,134.88,234,136.75,233.8,138.61Z" transform="translate(-151.83 -26.17)"/><path class="cls-10" d="M237.36,148.91l.78-6.35v-.75l.82-.41c.17.46.33.93.5,1.4l-1,8s-.13.08-.13.11.06.18.09.28l-.15.86c0,.12-.08.25-.11.38l-.43.74C237.62,151.78,237.49,150.34,237.36,148.91Z" transform="translate(-151.83 -26.17)"/><path class="cls-11" d="M231.69,136.41l-.2.63Z" transform="translate(-151.83 -26.17)"/><path class="cls-17" d="M270.52,143l-1-.37-6.1.54.86,2-2,.39c-.1-.76-.21-1.53-.32-2.37l-1.77.94-.34-2.35h17.35v.94a8.23,8.23,0,0,1-1.49,0c-2-.35-2.31-.06-2.41,1.9a6.06,6.06,0,0,1-.75,2.77c-.17-1.52-.35-3-.55-4.81Z" transform="translate(-151.83 -26.17)"/><path class="cls-11" d="M263.21,148.43l-.65.07-.74-.07.45-2C262.59,147.07,262.9,147.75,263.21,148.43Z" transform="translate(-151.83 -26.17)"/><path class="cls-17" d="M262.27,146.39l-.45,2a.94.94,0,0,1-.33.08l-.48-1.2,0,0,1.22-1.17A.36.36,0,0,1,262.27,146.39Z" transform="translate(-151.83 -26.17)"/><path class="cls-13" d="M242.48,152.42q1.2-14.79,2.41-29.58c.17.81.34,1.61.53,2.48l2.31-1.24-.28,3.29,5.69.54h-7.86v2.29l4.31.19-1.69,1.29c-.59.19-1.67.36-1.68.59-.14,2.09-.08,4.2-.08,6.48l1.8-1c-.53,2.33.85,1.08,1.66.89l2.36-.35,1.17.75h.79c0,.11,0,.22,0,.33H244.2c.27,1,.45,1.76.64,2.48v.54l-.57.45c.36.16.73.47,1.09.47,2.84,0,5.69,0,8.53,0-1.44.16-2.87.35-4.31.46-.8.06-1.66-.09-1.55,1.15-1.55-.35-2.23.48-2.3,2.81L246,152H248l.81.82-2.55.07c-1.32.05-1.88-.33-1.52-1.85a8.41,8.41,0,0,0-.36-2.88l-.57,0-.6,5Z" transform="translate(-151.83 -26.17)"/><path class="cls-21" d="M243.19,153.23l.6-5,.57,0a8.41,8.41,0,0,1,.36,2.88c-.36,1.52.2,1.9,1.52,1.85l2.55-.07h4.74c1.55-.12.68-1.26.83-2l0-2.23.84,3.06.2.9.05.65c-.13.15-.26.31-.4.46l-11.81-.11A2.14,2.14,0,0,0,243.19,153.23Z" transform="translate(-151.83 -26.17)"/><path class="cls-9" d="M255.24,151.67l-.84-3.06a15.39,15.39,0,0,0,.46-3,12.74,12.74,0,0,0-.65-2.73l-.26-.43.36-.73,0-2.25.7-.87.54,9.42.28.81c0,1.18.07,2.36.11,3.54l-.42.82c0-.22,0-.43-.05-.65S255.31,152,255.24,151.67Z" transform="translate(-151.83 -26.17)"/><path class="cls-8" d="M243.28,153.57l11.81.11Z" transform="translate(-151.83 -26.17)"/><path class="cls-13" d="M237.36,148.91c.13,1.43.26,2.87.38,4.31l-.33,0a7.37,7.37,0,0,1-1.08-.83c-.15-.15-.11-.48-.15-.74l.13-.38c.11-.27.23-.54.35-.81C236.89,150,237.13,149.43,237.36,148.91Z" transform="translate(-151.83 -26.17)"/><path class="cls-13" d="M238.17,152.48c0-.13.07-.26.11-.38.05.12.1.24.14.36Z" transform="translate(-151.83 -26.17)"/><path class="cls-13" d="M241.31,152.62a.3.3,0,0,1,.36,0Z" transform="translate(-151.83 -26.17)"/><path class="cls-16" d="M236.93,153.53l.34-.33Z" transform="translate(-151.83 -26.17)"/><path class="cls-15" d="M261.42,153.22l.41.33-.41,0A.62.62,0,0,1,261.42,153.22Z" transform="translate(-151.83 -26.17)"/><path class="cls-17" d="M261.74,145c-.24.11-.44.28-.52.23s-.25-.3-.37-.46a1.35,1.35,0,0,1,.49-.14C261.46,144.66,261.57,144.84,261.74,145Z" transform="translate(-151.83 -26.17)"/><path class="cls-17" d="M261,147.31l-.59-.38.23-.23.39.59Z" transform="translate(-151.83 -26.17)"/><path class="cls-20" d="M236.31,151.29l-.13.38Z" transform="translate(-151.83 -26.17)"/><path class="cls-14" d="M253.14,127.91l-5.69-.54.28-3.29-2.31,1.24-.53-2.48,0-.78.8-.06a.88.88,0,0,1,.32.07,25.79,25.79,0,0,0,3.59.34c2.15-.08,4.31-.36,4.31,2.8l.78,1.57-.6,1.16-.67.07A.54.54,0,0,1,253.14,127.91Z" transform="translate(-151.83 -26.17)"/><path class="cls-7" d="M247,84.22l1,0,4.26.43c.06,2,.11,3.91.17,5.86l-.71.19-3.72-.2c-.09-1,1.3-2.59-1.09-2.71-.15,0-.28-.52-.43-.79Z" transform="translate(-151.83 -26.17)"/><path class="cls-10" d="M246.15,93.66l.26-2.78.55,0c.25.36.49,1,.73,1,1.44,0,2.87-.16,4.31-.27l.69,3.54v1.57H252l-5,0Z" transform="translate(-151.83 -26.17)"/><path class="cls-14" d="M245,119.66l.21-2.74c.13-.22.39-.45.36-.65-.3-2,.77-2.22,2.39-2.16a33.64,33.64,0,0,0,4-.3l.68-.11.93,4c0,.22,0,.44,0,.66-1,1.78-2.36.81-3.63.5l.13-.78-.18-2.73c-.38.37-1,.68-1.09,1.11a9.72,9.72,0,0,0,0,2.35l-1-.19V115.5l-.79-.06-.64,1.86c-.12.76-.24,1.51-.37,2.27a1.8,1.8,0,0,1-.35.12Z" transform="translate(-151.83 -26.17)"/><path class="cls-14" d="M253.2,109c.07.66.14,1.31.22,2l-3.12.49c-.69-3.23-.69-3.23-3.32-2.8l-.39,2.67-.66-.07a10.88,10.88,0,0,1,.55-5.1h0l6,.72Z" transform="translate(-151.83 -26.17)"/><path class="cls-11" d="M246.48,106.19a10.88,10.88,0,0,0-.55,5.1l.66.07.39-2.67c2.63-.43,2.63-.43,3.32,2.8l3.12-.49.15,6.72-.93-4,.17-1.89c-1.95,0-3.69,0-5.44,0-1.54,0-1.52.73-1.05,2H252a33.64,33.64,0,0,1-4,.3c-1.62-.06-2.69.2-2.39,2.16,0,.2-.23.43-.36.65l.39-12.76.64,0Z" transform="translate(-151.83 -26.17)"/><path class="cls-7" d="M245.83,102l.21-3.19.7,0c1.63,1.45,3.43.3,5.15.33l.88,0c0,.6,0,1.19,0,1.79a3.1,3.1,0,0,1-.11,1.16,9.67,9.67,0,0,1-1.11,1.39,6.37,6.37,0,0,1-1.18-1.33,3.36,3.36,0,0,1-.13-1.34h-3.21l-.26,3-.89-.11Z" transform="translate(-151.83 -26.17)"/><path class="cls-11" d="M246.81,103.83l.26-3h3.21a3.36,3.36,0,0,0,.13,1.34,6.37,6.37,0,0,0,1.18,1.33,9.67,9.67,0,0,0,1.11-1.39,3.1,3.1,0,0,0,.11-1.16l.39,8.08c-.24-.71-.48-1.42-.71-2.12l-6-.72h5.88v-2.36Z" transform="translate(-151.83 -26.17)"/><path class="cls-11" d="M246,119.57c.13-.76.25-1.51.37-2.27.18.77-.24,2.17,1.43,1.34l1,.19,1.14,0c1.27.31,2.64,1.28,3.63-.5.11,2.27.23,4.55.34,6.83,0-3.16-2.16-2.88-4.31-2.8a25.79,25.79,0,0,1-3.59-.34h7.16l-.18-2.5Z" transform="translate(-151.83 -26.17)"/><path class="cls-11" d="M252.69,95.22,252,91.68l-.27-1,.71-.19C252.52,92.05,252.6,93.63,252.69,95.22Z" transform="translate(-151.83 -26.17)"/><path class="cls-11" d="M252.77,99.16l-.88,0L252,96.8h.75Z" transform="translate(-151.83 -26.17)"/><path class="cls-20" d="M257.86,113.75l-1.55-.39Z" transform="translate(-151.83 -26.17)"/><path class="cls-10" d="M267.74,111.77V111h.72l-.33.93Z" transform="translate(-151.83 -26.17)"/><path class="cls-20" d="M266.56,111.89a.43.43,0,0,1,.37,0Z" transform="translate(-151.83 -26.17)"/><path class="cls-12" d="M255,138.63l-.7.87a2.17,2.17,0,0,1-.35-.15c0-.11,0-.22,0-.33l-.3-.61-.49.6-1.17-.75c.07-1.69.23-3.37.18-5,0-.45-.63-.88-1-1.33a5.29,5.29,0,0,0-.8,1.44c-.32,1.75-.52,3.53-.77,5.29-.81.19-2.19,1.44-1.66-.89,0-2,0-4,0-6l1.69-1.29h.79l3.13-.12h0l.45,2.42c.26,1.45.53,2.9.8,4.34Z" transform="translate(-151.83 -26.17)"/><path class="cls-9" d="M254.73,137c-.27-1.44-.54-2.89-.8-4.34l-.45-2.42c0-.76,0-1.51,0-2.27l.67-.07C254.32,131,254.52,134,254.73,137Z" transform="translate(-151.83 -26.17)"/><path class="cls-11" d="M255.8,148.86l-.28-.81Z" transform="translate(-151.83 -26.17)"/><path class="cls-11" d="M264.74,131.59l.23,1.9Z" transform="translate(-151.83 -26.17)"/><path class="cls-12" d="M243.66,101.53a17.07,17.07,0,0,1-.41,1.78,10.31,10.31,0,0,1-.68,1.32c-1.07-.11-2.16-.18-3.22-.35s-2-.44-3.37-.73c.59-1.15,1-1.94,1.38-2.73.13,0,.35,0,.37-.08.77-2.53,2.81-1.46,4.43-1.59a4,4,0,0,0,1-.42l.74.82Z" transform="translate(-151.83 -26.17)"/><path class="cls-11" d="M247,90.91l-.55,0c0-1.31.06-2.62.08-3.93.15.27.28.79.43.79,2.39.12,1,1.71,1.09,2.71Z" transform="translate(-151.83 -26.17)"/><path class="cls-9" d="M243.94,99.55l-.74-.82,0-.73c.14-1,.24-2,.46-3a10.28,10.28,0,0,1,.72-1.77C244.25,95.34,244.1,97.44,243.94,99.55Z" transform="translate(-151.83 -26.17)"/><path class="cls-11" d="M246.74,98.79l-.7,0c0-1.7.07-3.41.11-5.11l.75,3.18Z" transform="translate(-151.83 -26.17)"/><path class="cls-13" d="M245,119.66l.64,0,.06,2.31-.8.06Z" transform="translate(-151.83 -26.17)"/><path class="cls-11" d="M245.83,102l.09,1.76Z" transform="translate(-151.83 -26.17)"/><path class="cls-13" d="M242.94,109.64l.26-1.78Z" transform="translate(-151.83 -26.17)"/><path class="cls-13" d="M238.43,151.24c0-.1-.07-.19-.09-.28s.09-.07.13-.11Z" transform="translate(-151.83 -26.17)"/><path class="cls-18" d="M234.91,84.14,233.4,83l1.57.34Z" transform="translate(-151.83 -26.17)"/><path class="cls-12" d="M234.91,84.14l.06-.81.79-.08C235.47,83.54,235.19,83.84,234.91,84.14Z" transform="translate(-151.83 -26.17)"/><path class="cls-14" d="M237.74,82.2l-.94.24-.1-.36,1-.28Z" transform="translate(-151.83 -26.17)"/><path class="cls-15" d="M233.8,138.61c.16-1.86.29-3.73.52-5.59a10.15,10.15,0,0,1,.65-2h4c-1.35,1.68-.82,3.23.18,4.61.81,1.12.32,1.12-.62,1l0-.12.06.1v2.25l-2.42-1.25Z" transform="translate(-151.83 -26.17)"/><path class="cls-20" d="M240.07,110.93h-1.9l1.76-3.42.69.21Z" transform="translate(-151.83 -26.17)"/><path class="cls-18" d="M233,108.55l-.74.07-.79,0,.17-1.82,2.26.63Z" transform="translate(-151.83 -26.17)"/><path class="cls-18" d="M233.07,110.89l0-.18,3.12-1.64V111Z" transform="translate(-151.83 -26.17)"/><path class="cls-11" d="M263.58,118.31l.65-2.67,2.16.71-2.31,2.14Z" transform="translate(-151.83 -26.17)"/><path class="cls-12" d="M254.21,142.91a12.74,12.74,0,0,1,.65,2.73,15.39,15.39,0,0,1-.46,3c0,.75,0,1.49,0,2.23-.28.66-.56,1.31-.83,2h-1.18c-.13-.74-.26-1.48-.4-2.26-2.27-.53-1.78,1-1.58,2.26h-1.58L248,152a2.68,2.68,0,0,0,0-1.1,18.52,18.52,0,0,0-1.2-1.87l1.54-1.08-.36-2,.09-1.07c-.11-1.24.75-1.09,1.55-1.15,1.44-.11,2.87-.3,4.31-.46Zm-2,2H250.5c-.48,3.86-.38,4.13,1.73,4.3Z" transform="translate(-151.83 -26.17)"/><path class="cls-26" d="M253.93,139.35a2.17,2.17,0,0,0,.35.15l0,2.25h-2.19l-7.28.08-.64-2.48Z" transform="translate(-151.83 -26.17)"/><path class="cls-15" d="M253.44,128c0,.76,0,1.51,0,2.27h0l-3.13.12h-.79l-4.31-.19v-2.29h7.86A.54.54,0,0,0,253.44,128Z" transform="translate(-151.83 -26.17)"/><path class="cls-16" d="M247.9,131.68c0,2,0,4,0,6l-1.8,1c0-2.28-.06-4.39.08-6.48C246.23,132,247.31,131.87,247.9,131.68Z" transform="translate(-151.83 -26.17)"/><path class="cls-16" d="M249.6,138.61c.25-1.76.45-3.54.77-5.29a5.29,5.29,0,0,1,.8-1.44c.34.45,1,.88,1,1.33.05,1.68-.11,3.36-.18,5Z" transform="translate(-151.83 -26.17)"/><path class="cls-18" d="M252.12,141.75H253l1,.73.26.43-.33.36c-2.84,0-5.69,0-8.53,0-.36,0-.73-.31-1.09-.47l.57-.45c2.08,0,4.15.12,6.23.09C251.41,142.46,251.76,142,252.12,141.75Z" transform="translate(-151.83 -26.17)"/><path class="cls-20" d="M246.75,149a18.52,18.52,0,0,1,1.2,1.87,2.68,2.68,0,0,1,0,1.1H246c-.11-1.47-.21-2.89-.31-4.3h.68Z" transform="translate(-151.83 -26.17)"/><path class="cls-11" d="M252.12,141.75c-.36.25-.71.71-1.06.71-2.08,0-4.15,0-6.23-.09v-.54Z" transform="translate(-151.83 -26.17)"/><path class="cls-16" d="M246.4,147.69h-.68c.07-2.33.75-3.16,2.3-2.81l-.09,1.07Z" transform="translate(-151.83 -26.17)"/><path class="cls-9" d="M253.13,139l.49-.6.3.61Z" transform="translate(-151.83 -26.17)"/><path class="cls-13" d="M250.37,152.81c-.2-1.29-.69-2.79,1.58-2.26.14.78.27,1.52.4,2.26Z" transform="translate(-151.83 -26.17)"/><path class="cls-13" d="M253.53,152.81c.27-.66.55-1.31.83-2C254.21,151.55,255.08,152.69,253.53,152.81Z" transform="translate(-151.83 -26.17)"/><path class="cls-11" d="M255.24,151.67c.07.3.13.6.2.9C255.37,152.27,255.31,152,255.24,151.67Z" transform="translate(-151.83 -26.17)"/><path class="cls-11" d="M254,142.48l-1-.73h1.32Z" transform="translate(-151.83 -26.17)"/><path class="cls-15" d="M245.71,122l-.06-2.31a1.8,1.8,0,0,0,.35-.12h7l.18,2.5H246A.88.88,0,0,0,245.71,122Z" transform="translate(-151.83 -26.17)"/><path class="cls-21" d="M247,90.91l1-.46,3.72.2.27,1c-1.44.11-2.87.27-4.31.27C247.45,92,247.21,91.27,247,90.91Z" transform="translate(-151.83 -26.17)"/><path class="cls-20" d="M246.74,98.79l.16-2,5,0-.06,2.32C250.17,99.09,248.37,100.24,246.74,98.79Z" transform="translate(-151.83 -26.17)"/><path class="cls-15" d="M252,113.81h-5.64c-.47-1.29-.49-2.06,1.05-2,1.75.06,3.49,0,5.44,0l-.17,1.89Z" transform="translate(-151.83 -26.17)"/><path class="cls-18" d="M247.8,118.64c-1.67.83-1.25-.57-1.43-1.34l.64-1.86.79.06Z" transform="translate(-151.83 -26.17)"/><path class="cls-15" d="M250,118.88l-1.14,0a9.72,9.72,0,0,1,0-2.35c.1-.43.71-.74,1.09-1.11l.18,2.73Z" transform="translate(-151.83 -26.17)"/><path class="cls-11" d="M250.09,118.1l-.18-2.73Z" transform="translate(-151.83 -26.17)"/><path class="cls-13" d="M250.38,130.39l3.13-.12Z" transform="translate(-151.83 -26.17)"/><polygon class="cls-11" points="86.7 110.48 86.64 110.39 86.68 110.5 86.7 110.48"/><path class="cls-21" d="M252.23,144.87v4.3c-2.11-.17-2.21-.44-1.73-4.3Z" transform="translate(-151.83 -26.17)"/><path class="cls-13" d="M246.4,147.69l1.53-1.74.36,2L246.75,149C246.64,148.57,246.52,148.13,246.4,147.69Z" transform="translate(-151.83 -26.17)"/></svg>