<svg id="Layer_1" data-name="Layer 1" xmlns="http://www.w3.org/2000/svg" viewBox="0 0 460.24 163.01"><defs><style>.cls-1{fill:#fedc1a;}.cls-2{fill:#fedc16;}.cls-3{fill:#fedc14;}.cls-4{fill:#fedb11;}.cls-5{fill:#fefdf9;}.cls-6{fill:#fedd21;}.cls-7{fill:#fee13b;}.cls-8{fill:#fedf2a;}.cls-9{fill:#fee139;}.cls-10{fill:#fedf2d;}.cls-11{fill:#fee034;}.cls-12{fill:#fee346;}.cls-13{fill:#fefbec;}.cls-14{fill:#fefcf0;}.cls-15{fill:#fff;}</style></defs><path class="cls-1" d="M117.42,11c1.89.58,3.75,1.32,5.68,1.71,39.14,7.85,66.3,41.92,65.66,82.39-.6,38.3-29.82,72.43-68.62,77.93C70,180.13,33.9,147.64,26.23,106.79c-8-42.83,21.08-85.44,64.1-94A39.25,39.25,0,0,0,95.49,11h21.93Z" transform="translate(-24.89 -11)"/><path class="cls-1" d="M106.7,37.74c-30.06.12-54.83,24.88-54.89,54.87s25,55.09,55.28,55c30-.11,54.86-24.91,54.88-54.87C162,62.54,136.94,37.63,106.7,37.74Z" transform="translate(-24.89 -11)"/><path class="cls-2" d="M286.52,119.58H270.75V41.88c6.33,0,12.62-.15,18.89.14,1.13,0,2.53,1.73,3.2,3,8.81,16.46,17.5,33,26.23,49.47a3.51,3.51,0,0,0,.53.74V42.14h15.34v77.67c-5.63,0-11.16.2-16.64-.16-1.24-.08-2.72-1.92-3.47-3.29-9.55-17.29-19-34.65-28.31-51.76Z" transform="translate(-24.89 -11)"/><path class="cls-2" d="M393.47,77.69l2.08.93c7.82,3.37,12.54,8.91,12.75,17.74.22,9.27-4.24,15.84-12.33,19.69a35.84,35.84,0,0,1-13.2,3.57c-10.56.51-21.16.17-32,.17-.15-2-.34-3.38-.34-4.75,0-22.48.08-45-.1-67.44,0-3.85,1.07-5.43,5-5.38,10.6.15,21.22-.25,31.8.29,3.58.19,7.36,2.06,10.51,4,11.09,6.89,10.94,21.77-.06,28.75C396.37,76,395.18,76.68,393.47,77.69Zm-25.22,30.06c4.75-.46,9.33-.45,13.69-1.43A10.17,10.17,0,0,0,382,86.49c-4.36-1-8.94-1.12-13.78-1.66Zm.1-53.06V73.12c4.63-.54,8.91-.64,13-1.62A8.36,8.36,0,0,0,388,62.42c-.47-4.61-3.42-7.14-7.72-7.64C376.43,54.33,372.48,54.69,368.35,54.69Z" transform="translate(-24.89 -11)"/><path class="cls-3" d="M414.33,119.62c3-9.92,5.78-19.12,8.59-28.3,4.62-15.11,9.33-30.2,13.84-45.34.85-2.86,2-4.16,5.21-4,5.39.27,10.81-.12,16.18.21,1.42.08,3.57,1.49,4,2.73,7.78,24.39,15.35,48.85,22.95,73.3a5.57,5.57,0,0,1-.14,1.39c-5.47,0-11,.15-16.51-.14-1-.06-2.42-1.76-2.85-3-1.57-4.47-2.59-9.14-4.29-13.55a5.48,5.48,0,0,0-3.9-2.89,132.18,132.18,0,0,0-16.17,0,5.38,5.38,0,0,0-3.81,2.87,122.87,122.87,0,0,0-3.77,13.21c-.61,2.52-1.68,3.71-4.52,3.56C424.41,119.44,419.69,119.62,414.33,119.62ZM449,55.45c-2.89,11-5.51,20.88-8.16,30.9h17C454.88,76.12,452.1,66.35,449,55.45Z" transform="translate(-24.89 -11)"/><path class="cls-4" d="M260.85,56.76H239.68v62.57H222.21V56.89H201.53V42.33h59.32Z" transform="translate(-24.89 -11)"/><path class="cls-5" d="M106.7,37.74c30.24-.11,55.29,24.8,55.27,55,0,30-24.83,54.76-54.88,54.87-30.23.12-55.34-24.86-55.28-55S76.64,37.86,106.7,37.74ZM94.34,58.81l3.06.65.9-1.22,2,.13c2.58,4.21,4.25-.38,6.24.06l5.11.94,3.88,0,3.06-.66h-.09a7.22,7.22,0,0,1,2.22.35c3.84,2,5.78,1.12,6.25-3.05.11-.93.11-1.87.16-2.83l2.73-.14,1.44-1.89-5.64-4.94-1.24,1.1c.13,3.75,3.41,7.77-1.83,12.11a40.75,40.75,0,0,0-.84-4.9c-.21-.66-1-1.14-1.51-1.69l.74-4.43-1.37-.4-2.8,2.44L112,46.8c-.23,3.27-.23,5.29-.56,7.25a23.22,23.22,0,0,1-1.45,4c-.25-1.38-.48-2.77-.76-4.14a26.19,26.19,0,0,0-1.21-5c-.16-.4-2.58-.45-2.68-.18-.65,1.71-1.56,3.69-1.21,5.32.61,2.78.29,4-2.79,3.5l0-3.59-.58-5.29-4.36,2.11L94.1,47.19c-3.52,2.62-5.22,4.52-3.18,8,.46.78-.12,2.18-.21,3.29-1-1.39-2.74-2.67-3-4.18-.34-2.27.35-4.69.65-7.54-5.42,3.05-8.66,7.36-7.1,12.64,2,6.64,1.29,12.88.15,19.34,0,.09.43.26,1.28.75.5-5.8,3.89-10.81,1-16.93-1.22-2.58-.2-6.21-.2-9.36,2.85,2.76,1.46,8,7.36,6.84l3.45-1.18ZM110.6,67.1c-1.55-3.21-4-3.92-6.78-1.83-2.42,1.85-2.85,4.34-.3,6.69.52.35,1,.73,1.56,1,1.68,1,4.39,1.56,4.84,2.92.67,2,.12,4.73-.63,6.89-.36,1.06-2.36,1.56-3.61,2.31a22,22,0,0,1-1.5-3.66,13.66,13.66,0,0,1-.05-3.17c-1.73,1.63-3.57,4.54-4.82,4.31-4-.75-2.9-4.54-2.89-7.41a39,39,0,0,1,.64-5l-1.45-.31a12.74,12.74,0,0,0-1.08,3.45c-.09,5.21-.19,10.43.07,15.62.69,13.92,4,27.8-.1,42.06l4.56,1c-.18-2.54-.92-4.91-.35-6.9a36.55,36.55,0,0,1,4.54-10.63c1.41-2.06,4.44-3,6.74-4.46l1.54,2.61-1.86,8.8h-6.09v11.14l1.47.43c1-3.24,2-6.47,3-9.59,6.38-.12,6.54,4.72,7,9.78,3.38-4,5.21-6.78.47-10-3.62-2.46-4.29-6.37-3-10.53.39-3.12,1.24-6.26,1.1-9.35-.45-10.23-1.23-20.46-2-30.68A46.52,46.52,0,0,0,110.6,67.1Zm30.09,64.21,1.94-.26Q136,98.25,129.3,65.44l-1.76.34Q134.11,98.56,140.69,131.31Z" transform="translate(-24.89 -11)"/><path class="cls-6" d="M111.53,112.63,110,110c-2.3,1.44-5.33,2.4-6.74,4.46a36.55,36.55,0,0,0-4.54,10.63c-.57,2,.17,4.36.35,6.9l-4.56-1c4.12-14.26.79-28.14.1-42.06-.26-5.19-.16-10.41-.07-15.62a12.74,12.74,0,0,1,1.08-3.45l1.45.31a39,39,0,0,0-.64,5c0,2.87-1.15,6.66,2.89,7.41,1.25.23,3.09-2.68,4.82-4.31a13.66,13.66,0,0,0,.05,3.17,22,22,0,0,0,1.5,3.66c1.25-.75,3.25-1.25,3.61-2.31.75-2.16,1.3-4.85.63-6.89-.45-1.36-3.16-2-4.84-2.92-.54-.31-1-.69-1.56-1l1.74-.31c3.46.24,4.52-1.42,3.68-4.59l1.66,0a46.52,46.52,0,0,1,1,5.54c.74,10.22,1.52,20.45,2,30.68.14,3.09-.71,6.23-1.1,9.35Zm-3.44-6.31c1-6,2-10.85-2.14-14.34-1.67-1.42-4-1.69-3.9-4.69,0-.47-2.14-1-3.29-1.57A23.08,23.08,0,0,0,98,89a33.92,33.92,0,0,0,0,4.62c.13,2.4-.18,5,.7,7.12,1.24,3,3.28,2.69,4.74-.58Z" transform="translate(-24.89 -11)"/><path class="cls-7" d="M140.69,131.31q-6.57-32.76-13.15-65.53l1.76-.34q6.66,32.81,13.33,65.61Z" transform="translate(-24.89 -11)"/><path class="cls-8" d="M111.53,112.63l1,0c-1.32,4.16-.65,8.07,3,10.53,4.74,3.21,2.91,6-.47,10-.42-5.06-.58-9.9-7-9.78-1,3.12-2,6.35-3,9.59l-1.47-.43V121.43h6.09C110.32,118.37,110.93,115.5,111.53,112.63Z" transform="translate(-24.89 -11)"/><path class="cls-9" d="M90.86,60c-5.9,1.2-4.51-4.08-7.36-6.84,0,3.15-1,6.78.2,9.36,2.91,6.12-.48,11.13-1,16.93-.85-.49-1.29-.66-1.28-.75,1.14-6.46,1.81-12.7-.15-19.34-1.56-5.28,1.68-9.59,7.1-12.64-.3,2.85-1,5.27-.65,7.54.23,1.51,1.93,2.79,3,4.18Z" transform="translate(-24.89 -11)"/><path class="cls-9" d="M115.54,59.4l-3.88,0-1.72-1.31a23.22,23.22,0,0,0,1.45-4c.33-2,.33-4,.56-7.25l4.87,3.68,2.8-2.44,1.37.4c-.24,1.48-.49,3-.74,4.43l-1.74,5.88h.09Z" transform="translate(-24.89 -11)"/><path class="cls-10" d="M90.86,60l-.15-1.56c.09-1.11.67-2.51.21-3.29-2-3.45-.34-5.35,3.18-8l2.28,3.57,4.94,3.18,0,3.59-1,.84-2-.13L96,53.81l-1.15.4-.53,4.62Z" transform="translate(-24.89 -11)"/><path class="cls-11" d="M100.31,58.37l1-.84c3.08.51,3.4-.72,2.79-3.5-.35-1.63.56-3.61,1.21-5.32.1-.27,2.52-.22,2.68.18a26.19,26.19,0,0,1,1.21,5c.28,1.37.51,2.76.76,4.14l1.72,1.31-5.11-.94C104.56,58,102.89,62.58,100.31,58.37Z" transform="translate(-24.89 -11)"/><path class="cls-10" d="M118.51,58.75l1.74-5.88c.52.55,1.3,1,1.51,1.69a40.75,40.75,0,0,1,.84,4.9c5.24-4.34,2-8.36,1.83-12.11l1.24-1.1,5.64,4.94-1.44,1.89-2.73.14c0,1,0,1.9-.16,2.83-.47,4.17-2.41,5.08-6.25,3.05A7.22,7.22,0,0,0,118.51,58.75Z" transform="translate(-24.89 -11)"/><path class="cls-12" d="M105.26,71.65l-1.74.31c-2.55-2.35-2.12-4.84.3-6.69,2.73-2.09,5.23-1.38,6.78,1.83l-1.66,0-4.5.06C104.71,68.63,105,70.14,105.26,71.65Z" transform="translate(-24.89 -11)"/><path class="cls-11" d="M101.32,53.94l-4.94-3.18,4.36-2.11Z" transform="translate(-24.89 -11)"/><path class="cls-11" d="M94.31,58.83l.53-4.62,1.15-.4,2.31,4.43-.9,1.22L96,57l-1.67,1.86Z" transform="translate(-24.89 -11)"/><path class="cls-10" d="M94.34,58.81,96,57l1.39,2.51Z" transform="translate(-24.89 -11)"/><path class="cls-10" d="M115.54,59.4l3.06-.66Z" transform="translate(-24.89 -11)"/><path class="cls-13" d="M108.09,106.32l-4.64-6.21c-1.46,3.27-3.5,3.55-4.74.58-.88-2.11-.57-4.72-.7-7.12A33.92,33.92,0,0,1,98,89a23.08,23.08,0,0,1,.72-3.23c1.15.53,3.31,1.1,3.29,1.57-.15,3,2.23,3.27,3.9,4.69C110.05,95.47,109,100.29,108.09,106.32Z" transform="translate(-24.89 -11)"/><path class="cls-14" d="M105.26,71.65c-.27-1.51-.55-3-.82-4.53l4.5-.06C109.78,70.23,108.72,71.89,105.26,71.65Z" transform="translate(-24.89 -11)"/><path class="cls-15" d="M147.45,140.4c.06-.41.1-.82.16-1.22a3.77,3.77,0,0,1,.14-.58.25.25,0,0,1,.13-.14,8,8,0,0,1,2.13-.72c.76-.15,1.52-.29,2.27-.45a7.64,7.64,0,0,0,2.82-1.3l.24-.17,1,.81c-.37.27-.73.52-1.07.78a26.06,26.06,0,0,0-4,3.68,12.22,12.22,0,0,0-2.08,3.23c-.1.25-.18.5-.26.75l-.07.21c-.13-.21-.25-.38-.35-.56a7.9,7.9,0,0,1-1-2.74c0-.24-.05-.49-.08-.74l0-.22Z" transform="translate(-24.89 -11)"/><path class="cls-15" d="M155.93,132.7l.31.05a2.89,2.89,0,0,1-.05,1.06,1.78,1.78,0,0,1-.38.53c-.15.16-.32.31-.46.44l-2.69-1.6c.47-.12.94-.25,1.41-.35.3-.06.62-.09.92-.13Z" transform="translate(-24.89 -11)"/><path class="cls-15" d="M157,137.18l1,1.18-.5.59a4.35,4.35,0,0,0-.79,1.58c-.27,1-.5,1.95-.75,2.93a36.67,36.67,0,0,1-1.28,4.5c-.07.2-.17.38-.24.58a.14.14,0,0,1-.17.09,8.32,8.32,0,0,1-2-.57,8,8,0,0,1-2.63-1.85.26.26,0,0,1-.08-.23,6.75,6.75,0,0,1,.93-2.41,15.7,15.7,0,0,1,2.44-3.06A28.13,28.13,0,0,1,157,137.18Z" transform="translate(-24.89 -11)"/><path class="cls-15" d="M158.45,139.12c.17.34.34.67.49,1a16.19,16.19,0,0,1,1.15,3.86,20,20,0,0,1,.32,2.88.28.28,0,0,1-.11.24,7.86,7.86,0,0,1-3.51,1.5c-.51.09-1,.1-1.59.15.11-.27.21-.5.29-.72a40.07,40.07,0,0,0,1.19-4.25c.28-1.09.55-2.18.86-3.26A2.57,2.57,0,0,1,158.45,139.12Z" transform="translate(-24.89 -11)"/><path class="cls-15" d="M161.19,146.33a18.37,18.37,0,0,0-2-7.58l.88-.16a1.89,1.89,0,0,1,1.48.44,9.2,9.2,0,0,1,1.6,1.58.27.27,0,0,0,.07.08.83.83,0,0,1,.25.83,8,8,0,0,1-1.74,4.21C161.55,145.92,161.38,146.1,161.19,146.33Z" transform="translate(-24.89 -11)"/><path class="cls-15" d="M154.67,135.35c-.45.25-.86.5-1.29.72a7.32,7.32,0,0,1-2.1.6,17.87,17.87,0,0,0-3.05.75s0,0-.09,0c.24-.4.44-.8.69-1.17a8,8,0,0,1,2.71-2.52.24.24,0,0,1,.26,0,18.33,18.33,0,0,1,2.77,1.55Z" transform="translate(-24.89 -11)"/><path class="cls-15" d="M163.4,139.67c-.36-.35-.7-.71-1.08-1a6.28,6.28,0,0,0-.91-.61,2.52,2.52,0,0,0-1.83-.18c-.25.05-.5.13-.76.19a.17.17,0,0,1-.15,0l-1-1.26s0,0,0,0a7.89,7.89,0,0,1,3.43-1.33.58.58,0,0,1,.6.25,7.92,7.92,0,0,1,1.7,3.87A.59.59,0,0,1,163.4,139.67Z" transform="translate(-24.89 -11)"/><path class="cls-15" d="M160.69,134.67a8.56,8.56,0,0,0-3.66,1.51l-1-.86a9.79,9.79,0,0,0,.87-1.08,2.66,2.66,0,0,0,.18-1.38A7.85,7.85,0,0,1,160.69,134.67Z" transform="translate(-24.89 -11)"/><path class="cls-15" d="M33.45,113.4c.06-.41.1-.82.16-1.22a3.77,3.77,0,0,1,.14-.58.25.25,0,0,1,.13-.14,8,8,0,0,1,2.13-.72c.76-.15,1.52-.29,2.27-.45A7.64,7.64,0,0,0,41.1,109l.24-.17,1,.81c-.37.27-.73.52-1.07.78a26.06,26.06,0,0,0-4,3.68,12.22,12.22,0,0,0-2.08,3.23c-.1.25-.18.5-.26.75l-.07.21c-.13-.21-.25-.38-.35-.56a7.9,7.9,0,0,1-1-2.74c0-.24-.05-.49-.08-.74l0-.22Z" transform="translate(-24.89 -11)"/><path class="cls-15" d="M41.93,105.7l.31,0a2.89,2.89,0,0,1-.05,1.06,1.78,1.78,0,0,1-.38.53c-.15.16-.32.31-.46.44l-2.69-1.6c.47-.12.94-.25,1.41-.35.3-.06.62-.09.92-.13Z" transform="translate(-24.89 -11)"/><path class="cls-15" d="M43,110.18l1,1.18-.5.59a4.35,4.35,0,0,0-.79,1.58c-.27,1-.5,2-.75,2.93a36.67,36.67,0,0,1-1.28,4.5c-.07.2-.17.38-.24.58a.14.14,0,0,1-.17.09,8.32,8.32,0,0,1-2-.57,8,8,0,0,1-2.63-1.85.26.26,0,0,1-.08-.23,6.75,6.75,0,0,1,.93-2.41,15.7,15.7,0,0,1,2.44-3.06A28.13,28.13,0,0,1,43,110.18Z" transform="translate(-24.89 -11)"/><path class="cls-15" d="M44.45,112.12c.17.34.34.67.49,1A16.19,16.19,0,0,1,46.09,117a20,20,0,0,1,.32,2.88.28.28,0,0,1-.11.24,7.86,7.86,0,0,1-3.51,1.5c-.51.09-1,.1-1.59.15.11-.27.21-.5.29-.72a40.07,40.07,0,0,0,1.19-4.25c.28-1.09.55-2.18.86-3.26A2.57,2.57,0,0,1,44.45,112.12Z" transform="translate(-24.89 -11)"/><path class="cls-15" d="M47.19,119.33a18.37,18.37,0,0,0-2-7.58l.88-.16a1.89,1.89,0,0,1,1.48.44,9.2,9.2,0,0,1,1.6,1.58.27.27,0,0,0,.07.08.83.83,0,0,1,.25.83,8,8,0,0,1-1.74,4.21C47.55,118.92,47.38,119.1,47.19,119.33Z" transform="translate(-24.89 -11)"/><path class="cls-15" d="M40.67,108.35c-.45.25-.86.5-1.29.72a7.32,7.32,0,0,1-2.1.6,17.87,17.87,0,0,0-3.05.75s0,0-.09,0c.24-.4.44-.8.69-1.17a8,8,0,0,1,2.71-2.52.24.24,0,0,1,.26,0,18.33,18.33,0,0,1,2.77,1.55Z" transform="translate(-24.89 -11)"/><path class="cls-15" d="M49.4,112.67c-.36-.35-.7-.71-1.08-1a6.28,6.28,0,0,0-.91-.61,2.52,2.52,0,0,0-1.83-.18c-.25.05-.5.13-.76.19a.17.17,0,0,1-.15-.05c-.34-.41-.67-.83-1-1.26,0,0,0,0,0,0a7.89,7.89,0,0,1,3.43-1.33.58.58,0,0,1,.6.25,7.92,7.92,0,0,1,1.7,3.87A.59.59,0,0,1,49.4,112.67Z" transform="translate(-24.89 -11)"/><path class="cls-15" d="M46.69,107.67A8.56,8.56,0,0,0,43,109.18l-1-.86a9.79,9.79,0,0,0,.87-1.08,2.66,2.66,0,0,0,.18-1.38A7.85,7.85,0,0,1,46.69,107.67Z" transform="translate(-24.89 -11)"/><path class="cls-15" d="M113.9,25.4c.06-.41.1-.82.16-1.22a3.77,3.77,0,0,1,.14-.58.25.25,0,0,1,.13-.14,8,8,0,0,1,2.13-.72c.76-.15,1.52-.29,2.27-.45a7.64,7.64,0,0,0,2.82-1.3l.24-.17,1,.81-1.06.78a26.06,26.06,0,0,0-4,3.68,12.22,12.22,0,0,0-2.08,3.23c-.1.25-.18.5-.26.75l-.07.21c-.13-.21-.25-.38-.35-.56A7.9,7.9,0,0,1,114,27c0-.24-.05-.49-.08-.74l0-.22Z" transform="translate(-24.89 -11)"/><path class="cls-15" d="M122.38,17.7l.31.05a2.89,2.89,0,0,1,0,1.06,1.78,1.78,0,0,1-.38.53c-.15.16-.32.31-.46.44l-2.7-1.6c.48-.12,1-.25,1.42-.35.3-.06.61-.09.92-.13Z" transform="translate(-24.89 -11)"/><path class="cls-15" d="M123.4,22.18l1,1.18-.5.59a4.35,4.35,0,0,0-.79,1.58c-.27,1-.51,1.95-.75,2.93A36.67,36.67,0,0,1,121.1,33c-.07.2-.17.38-.24.58a.14.14,0,0,1-.17.09,8.32,8.32,0,0,1-2-.57,8,8,0,0,1-2.63-1.85A.26.26,0,0,1,116,31a6.75,6.75,0,0,1,.93-2.41,15.7,15.7,0,0,1,2.44-3.06A28.13,28.13,0,0,1,123.4,22.18Z" transform="translate(-24.89 -11)"/><path class="cls-15" d="M124.9,24.12c.17.34.34.67.49,1A16.19,16.19,0,0,1,126.54,29a21.5,21.5,0,0,1,.32,2.88.28.28,0,0,1-.11.24,7.86,7.86,0,0,1-3.51,1.5c-.51.09-1,.1-1.59.15l.29-.72a40.07,40.07,0,0,0,1.19-4.25c.28-1.09.55-2.18.85-3.26A2.64,2.64,0,0,1,124.9,24.12Z" transform="translate(-24.89 -11)"/><path class="cls-15" d="M127.64,31.33a18.37,18.37,0,0,0-2-7.58l.88-.16A1.89,1.89,0,0,1,128,24a9.2,9.2,0,0,1,1.6,1.58.27.27,0,0,0,.07.08.85.85,0,0,1,.25.83,8,8,0,0,1-1.74,4.21C128,30.92,127.83,31.1,127.64,31.33Z" transform="translate(-24.89 -11)"/><path class="cls-15" d="M121.12,20.35c-.45.25-.86.5-1.29.72a7.29,7.29,0,0,1-2.11.6,18,18,0,0,0-3,.75h-.09c.24-.4.44-.8.68-1.17A8.1,8.1,0,0,1,118,18.73a.24.24,0,0,1,.26,0A18.33,18.33,0,0,1,121,20.27Z" transform="translate(-24.89 -11)"/><path class="cls-15" d="M129.85,24.67c-.36-.35-.7-.71-1.08-1a5.87,5.87,0,0,0-.92-.61,2.49,2.49,0,0,0-1.82-.18c-.25,0-.5.13-.76.19a.17.17,0,0,1-.15-.05l-1-1.26s0,0,0,0a7.89,7.89,0,0,1,3.43-1.33.58.58,0,0,1,.6.25,8,8,0,0,1,1.7,3.87S129.84,24.62,129.85,24.67Z" transform="translate(-24.89 -11)"/><path class="cls-15" d="M127.14,19.67a8.56,8.56,0,0,0-3.66,1.51l-1-.86a9.79,9.79,0,0,0,.87-1.08,2.56,2.56,0,0,0,.17-1.38A7.83,7.83,0,0,1,127.14,19.67Z" transform="translate(-24.89 -11)"/><path class="cls-15" d="M50.8,134.63l-2.55-3.82-2.2.58-1.74-2.6L57,125.72l1.92,2.88-7.71,10.47-1.75-2.63Zm1.48-1.92L55.16,129l-4.56,1.22Z" transform="translate(-24.89 -11)"/><path class="cls-15" d="M54.69,142.36a3.92,3.92,0,0,1-.27-2.12,3.58,3.58,0,0,1,1-1.92l2.23,2.29a1.42,1.42,0,0,0,.06,2.06,1.69,1.69,0,0,0,1,.54,1,1,0,0,0,.87-.32,1,1,0,0,0,.32-.74,2.39,2.39,0,0,0-.18-.88,10.58,10.58,0,0,0-.57-1.21,13.11,13.11,0,0,1-.83-1.9,3.51,3.51,0,0,1-.13-1.68,2.92,2.92,0,0,1,1-1.69,3.18,3.18,0,0,1,2.78-1,5.11,5.11,0,0,1,2.95,1.64,5.2,5.2,0,0,1,1.6,3,3.49,3.49,0,0,1-1,2.83L63.17,139a1.29,1.29,0,0,0,.36-1,1.6,1.6,0,0,0-.48-1,1.3,1.3,0,0,0-.81-.43,1.06,1.06,0,0,0-.83.34,1,1,0,0,0-.27,1,9.2,9.2,0,0,0,.71,1.75,15.75,15.75,0,0,1,.8,1.92,3.69,3.69,0,0,1,.14,1.66,2.85,2.85,0,0,1-.9,1.64,3.48,3.48,0,0,1-1.73.94,3.77,3.77,0,0,1-2.06-.16,5.33,5.33,0,0,1-2-1.37A6.32,6.32,0,0,1,54.69,142.36Z" transform="translate(-24.89 -11)"/><path class="cls-15" d="M63.48,150.49a4,4,0,0,1-.62-2.05,3.58,3.58,0,0,1,.67-2.05l2.57,1.88a1.62,1.62,0,0,0-.23,1.12,1.51,1.51,0,0,0,.64.9,1.63,1.63,0,0,0,1,.38,1,1,0,0,0,.81-.45,1,1,0,0,0,.19-.79,2.42,2.42,0,0,0-.32-.84c-.16-.27-.42-.64-.76-1.1a13.28,13.28,0,0,1-1.14-1.73,3.62,3.62,0,0,1-.41-1.64,3,3,0,0,1,.66-1.82,3.21,3.21,0,0,1,2.59-1.42A5.08,5.08,0,0,1,72.34,142a5.22,5.22,0,0,1,2.07,2.72,3.41,3.41,0,0,1-.52,3l-2.61-1.91a1.25,1.25,0,0,0,.2-1,1.59,1.59,0,0,0-.63-.89,1.3,1.3,0,0,0-.88-.28,1,1,0,0,0-.76.47,1,1,0,0,0-.09,1.07,8.88,8.88,0,0,0,1,1.61,18,18,0,0,1,1.11,1.76,3.81,3.81,0,0,1,.41,1.62,2.83,2.83,0,0,1-.62,1.77,3.52,3.52,0,0,1-1.55,1.21,3.73,3.73,0,0,1-2.06.18,5.46,5.46,0,0,1-2.23-1A6.3,6.3,0,0,1,63.48,150.49Z" transform="translate(-24.89 -11)"/><path class="cls-15" d="M74.33,157.13a6,6,0,0,1-1.12-3,6.25,6.25,0,0,1,.62-3.28A6.1,6.1,0,0,1,76,148.31a6,6,0,0,1,3-1,6.42,6.42,0,0,1,3.22.64A6.53,6.53,0,0,1,84.75,150a6,6,0,0,1,1.1,3,6.31,6.31,0,0,1-.63,3.26,6.22,6.22,0,0,1-2.15,2.56,6,6,0,0,1-3,1,6.63,6.63,0,0,1-5.73-2.72Zm6.23-.23a4.2,4.2,0,0,0,2.22-4.66,3,3,0,0,0-1.72-1.89,3.1,3.1,0,0,0-2.55-.15,4.25,4.25,0,0,0-2.22,4.68,3.36,3.36,0,0,0,4.27,2Z" transform="translate(-24.89 -11)"/><path class="cls-15" d="M91.74,151.67l-3.56,11.69-2.86-.88,3.56-11.68Z" transform="translate(-24.89 -11)"/><path class="cls-15" d="M99.19,163.38l-4.53-.7-1.06,2-3.09-.48,6.24-11.4,3.43.53,2.54,12.75-3.13-.49ZM98.78,161,98,156.34l-2.17,4.19Z" transform="translate(-24.89 -11)"/><path class="cls-15" d="M113.94,153.55l.09,2.38-3.26.12.36,9.82-3,.11-.36-9.82-3.25.11-.09-2.38Z" transform="translate(-24.89 -11)"/><path class="cls-15" d="M117.81,152.76l2,12.06-3,.48-2-12.05Z" transform="translate(-24.89 -11)"/><path class="cls-15" d="M125.42,162.87a5.91,5.91,0,0,1-2.88-1.41,6.25,6.25,0,0,1-1.81-2.8,6.1,6.1,0,0,1-.19-3.32,6,6,0,0,1,1.48-2.83,6.71,6.71,0,0,1,6-2,6,6,0,0,1,2.86,1.41,6.65,6.65,0,0,1,2,6.12,6.06,6.06,0,0,1-1.47,2.84,6.41,6.41,0,0,1-2.76,1.75A6.53,6.53,0,0,1,125.42,162.87Zm4.36-4.46a4.24,4.24,0,0,0-1.61-4.91,3.38,3.38,0,0,0-4.49,1.47,3.63,3.63,0,0,0,0,2.74,3.72,3.72,0,0,0,1.65,2.18,3.11,3.11,0,0,0,2.55.18A3.06,3.06,0,0,0,129.78,158.41Z" transform="translate(-24.89 -11)"/><path class="cls-15" d="M147.1,153.49,144.53,155l-8.15-3.93,3.84,6.48-2.57,1.53-6.23-10.5,2.57-1.53,8.17,4-3.87-6.51,2.58-1.52Z" transform="translate(-24.89 -11)"/><path class="cls-15" d="M32.6,88.49l2.47,0,0,3.35,10.17-.14.05,3.07-10.18.15.05,3.35-2.47,0Z" transform="translate(-24.89 -11)"/><path class="cls-15" d="M44.41,79.16l-.81,4.65,2.07,1.13-.55,3.17L33.45,81.44l.61-3.51L47.3,75.59l-.56,3.21Zm-2.48.37-4.83.75,4.3,2.32Z" transform="translate(-24.89 -11)"/><path class="cls-15" d="M41.45,56.71l11.62,5-1.22,2.83-7-3,5.86,5.59-1,2.29L41.65,69l7,3-1.21,2.83-11.63-5,1.44-3.34,9.44.18L40,60Z" transform="translate(-24.89 -11)"/><path class="cls-15" d="M45.36,50.92,56,57.78l-1.67,2.59L43.69,53.51Z" transform="translate(-24.89 -11)"/><path class="cls-15" d="M57.11,52.29l2.53-3.14,1.85,1.49L57,56.18l-9.84-7.94,1.93-2.39Z" transform="translate(-24.89 -11)"/><path class="cls-15" d="M70.54,42.32l-2.3,2-9-2.42,5.17,5.84-2.3,2-8.39-9.46,2.31-2,9,2.44-5.2-5.86,2.31-2Z" transform="translate(-24.89 -11)"/><path class="cls-15" d="M77.61,35.5l-4.09,2.36L74,40.17l-2.8,1.61L68.85,28.53l3.09-1.77,10.27,8.68-2.83,1.62Zm-1.87-1.66-3.67-3.23,1,4.78Z" transform="translate(-24.89 -11)"/><path class="cls-15" d="M87.08,21.36A5.63,5.63,0,0,1,90,22.75a6.5,6.5,0,0,1,1.81,2.88A6.52,6.52,0,0,1,92.05,29a5.66,5.66,0,0,1-1.51,2.85,7.43,7.43,0,0,1-3.06,1.84L83,35.19l-4-12,4.5-1.49A7.41,7.41,0,0,1,87.08,21.36Zm1.66,8.12a3.62,3.62,0,0,0,.08-2.87,3.38,3.38,0,0,0-4.67-2.35l-1.38.46,2.3,7,1.39-.46A3.71,3.71,0,0,0,88.74,29.48Z" transform="translate(-24.89 -11)"/><path class="cls-15" d="M96.46,18.54l.88,7.51a2.5,2.5,0,0,0,.76,1.67,2.5,2.5,0,0,0,3.27-.39,2.41,2.41,0,0,0,.37-1.8L100.86,18l3-.36.89,7.49a5.44,5.44,0,0,1-.38,2.93,4.66,4.66,0,0,1-1.72,2,6.11,6.11,0,0,1-2.62.91,5.8,5.8,0,0,1-2.72-.27,4.33,4.33,0,0,1-2.06-1.53,5.58,5.58,0,0,1-1-2.78L93.4,18.9Z" transform="translate(-24.89 -11)"/><path class="cls-15" d="M146,37.18a3.13,3.13,0,0,1-.45,2,3.1,3.1,0,0,1-2.25,1.57A4.68,4.68,0,0,1,140.2,40l-5-3.06,6.56-10.81,4.87,3a4.69,4.69,0,0,1,2.12,2.32A2.94,2.94,0,0,1,148.4,34a2.89,2.89,0,0,1-1.46,1.28,3,3,0,0,1-1.87.07A3,3,0,0,1,146,37.18Zm-3.79.7a1.25,1.25,0,0,0,.89-.65,1.33,1.33,0,0,0,.17-1.13,1.83,1.83,0,0,0-.84-1L140.54,34l-1.45,2.38L141,37.55A1.83,1.83,0,0,0,142.23,37.88Zm-.52-5.81,1.72,1a1.74,1.74,0,0,0,1.17.32,1.41,1.41,0,0,0,1-1.68,1.72,1.72,0,0,0-.81-.9l-1.73-1.05Z" transform="translate(-24.89 -11)"/><path class="cls-15" d="M152.12,46.5l-3.49-3.17-2.07,1.14-2.38-2.16L156.06,36l2.64,2.4-5.11,12.43-2.41-2.19Zm1-2.29,2-4.48-4.26,2.38Z" transform="translate(-24.89 -11)"/><path class="cls-15" d="M155.57,53.08a4.11,4.11,0,0,1,0-2.2A3.63,3.63,0,0,1,156.84,49l2,2.61a1.46,1.46,0,0,0-.2,2.12,1.74,1.74,0,0,0,.9.67,1.06,1.06,0,0,0,.94-.22,1,1,0,0,0,.42-.72,2.44,2.44,0,0,0-.06-.92c-.08-.32-.23-.76-.43-1.31a13,13,0,0,1-.61-2.05,3.69,3.69,0,0,1,.08-1.74,3.16,3.16,0,0,1,1.2-1.61,3.29,3.29,0,0,1,3-.65,5.23,5.23,0,0,1,2.81,2.05,5.3,5.3,0,0,1,1.25,3.28,3.6,3.6,0,0,1-1.39,2.78l-2-2.65a1.32,1.32,0,0,0,.5-1,1.6,1.6,0,0,0-.36-1.06,1.35,1.35,0,0,0-.79-.53,1.15,1.15,0,0,0-1.3,1.28,9.17,9.17,0,0,0,.51,1.88,18.33,18.33,0,0,1,.57,2.06,3.86,3.86,0,0,1-.07,1.72,3,3,0,0,1-1.14,1.57,3.6,3.6,0,0,1-1.9.75,3.92,3.92,0,0,1-2.08-.42,5.33,5.33,0,0,1-1.91-1.65A6.51,6.51,0,0,1,155.57,53.08Z" transform="translate(-24.89 -11)"/><path class="cls-15" d="M163.68,66.6l3.06-6.31-5,2.52-1.39-2.74,11.28-5.72L173,57.1l-4.95,2.5,6.85,1.25,1.64,3.23-7.74-1.56L165.39,70Z" transform="translate(-24.89 -11)"/><path class="cls-15" d="M176.21,70.91l-2.45.75L175,75.6l-2.27.69-1.2-3.94-2.66.81,1.36,4.46-2.36.72-2.25-7.41,12.09-3.69,2.26,7.41-2.36.72Z" transform="translate(-24.89 -11)"/><path class="cls-15" d="M181.94,87.12l-2.45.33L179,84.13,169,85.51l-.42-3.05,10.08-1.38-.45-3.32,2.44-.33Z" transform="translate(-24.89 -11)"/><path class="cls-15" d="M174.46,99.51a3.3,3.3,0,0,1-4.44-.62,4.61,4.61,0,0,1-.8-3.12l.23-5.89,12.64.51-.23,5.69a4.71,4.71,0,0,1-1,3,2.91,2.91,0,0,1-2.43,1,2.87,2.87,0,0,1-1.83-.66,3,3,0,0,1-1-1.6A2.89,2.89,0,0,1,174.46,99.51Zm-2.44-3a1.45,1.45,0,0,0,2.06.06,1.76,1.76,0,0,0,.43-1.2l.09-2.23-2.79-.11-.09,2.27A1.85,1.85,0,0,0,172,96.54Zm4.83-3.28-.08,2a1.73,1.73,0,0,0,.29,1.17,1.2,1.2,0,0,0,1,.45,1.23,1.23,0,0,0,1-.37,1.73,1.73,0,0,0,.39-1.14l.08-2Z" transform="translate(-24.89 -11)"/><path class="cls-15" d="M169.22,109.34l1.11-4.59-2-1.26.76-3.13,11.21,7.42-.84,3.47-13.37,1.46.77-3.17Zm2.5-.21,4.86-.44-4.13-2.59Z" transform="translate(-24.89 -11)"/><path class="cls-15" d="M166.51,117.26l-1.6,3.7-2.19-.94,2.83-6.53,11.6,5-1.22,2.82Z" transform="translate(-24.89 -11)"/><path class="cls-15" d="M162.64,124.82l-2.08,3.45-2-1.22,3.67-6.1L173,127.46l-1.59,2.64Z" transform="translate(-24.89 -11)"/><path d="M195,139.21v2.2h-3v9h-2.74v-9h-3v-2.2Z" transform="translate(-24.89 -11)"/><path d="M203.37,148.46h-4.19l-.67,2h-2.87l4.07-11.24h3.17l4.06,11.24H204Zm-.7-2.11-1.39-4.11-1.38,4.11Z" transform="translate(-24.89 -11)"/><path d="M220.89,139.21v11.24h-2.73v-6.74l-2.52,6.74h-2.2l-2.53-6.75v6.75h-2.74V139.21h3.23l3.16,7.78,3.12-7.78Z" transform="translate(-24.89 -11)"/><path d="M225.6,139.21v11.24h-2.74V139.21Z" transform="translate(-24.89 -11)"/><path d="M230.32,148.33h3.58v2.12h-6.32V139.21h2.74Z" transform="translate(-24.89 -11)"/><path d="M245.26,150.45h-2.74L238,143.52v6.93h-2.74V139.21H238l4.57,7v-7h2.74Z" transform="translate(-24.89 -11)"/><path d="M254.24,148.46H250l-.67,2h-2.86l4.06-11.24h3.17l4.06,11.24h-2.89Zm-.71-2.11-1.39-4.11-1.38,4.11Z" transform="translate(-24.89 -11)"/><path d="M266.35,139.92a5.06,5.06,0,0,1,2,2,6.27,6.27,0,0,1,0,5.87,5,5,0,0,1-2.06,2,6.53,6.53,0,0,1-3.1.71H259V139.21h4.2A6.55,6.55,0,0,1,266.35,139.92Zm-.87,7.31a3.18,3.18,0,0,0,.87-2.4,3,3,0,0,0-3.28-3.28h-1.3v6.53h1.3A3.27,3.27,0,0,0,265.48,147.23Z" transform="translate(-24.89 -11)"/><path d="M273.36,139.21v6.72a2.25,2.25,0,0,0,.49,1.56,1.89,1.89,0,0,0,1.46.54,1.93,1.93,0,0,0,1.47-.54,2.2,2.2,0,0,0,.51-1.56v-6.72H280v6.71a4.81,4.81,0,0,1-.64,2.54,4.07,4.07,0,0,1-1.72,1.57,5.46,5.46,0,0,1-2.41.53,5.27,5.27,0,0,1-2.38-.52,3.9,3.9,0,0,1-1.65-1.57,5,5,0,0,1-.61-2.55v-6.71Z" transform="translate(-24.89 -11)"/><path d="M293.71,145.65a2.79,2.79,0,0,1,.59,1.74,2.75,2.75,0,0,1-1,2.23,4.13,4.13,0,0,1-2.74.83h-5.23V139.21h5.05a4.18,4.18,0,0,1,2.69.79,2.6,2.6,0,0,1,1,2.13,2.56,2.56,0,0,1-.52,1.65,2.71,2.71,0,0,1-1.38.91A2.66,2.66,0,0,1,293.71,145.65Zm-5.63-1.89h1.79a1.58,1.58,0,0,0,1-.3,1.05,1.05,0,0,0,.36-.87,1.09,1.09,0,0,0-.36-.88,1.58,1.58,0,0,0-1-.3h-1.79Zm3.08,4.17a1.11,1.11,0,0,0,.37-.91,1.18,1.18,0,0,0-.39-.93,1.62,1.62,0,0,0-1.08-.33h-2v2.48h2A1.7,1.7,0,0,0,291.16,147.93Z" transform="translate(-24.89 -11)"/><path d="M302.88,148.46h-4.2l-.67,2h-2.86l4.06-11.24h3.17l4.06,11.24h-2.89Zm-.71-2.11-1.39-4.11-1.38,4.11Z" transform="translate(-24.89 -11)"/><path d="M309.53,150.16A3.59,3.59,0,0,1,308,149a3.2,3.2,0,0,1-.61-1.88h2.91a1.39,1.39,0,0,0,.43.95,1.37,1.37,0,0,0,1,.33,1.56,1.56,0,0,0,1-.28,1,1,0,0,0,.35-.78.9.9,0,0,0-.28-.69,2.29,2.29,0,0,0-.69-.45,10.92,10.92,0,0,0-1.16-.39,12.75,12.75,0,0,1-1.77-.68,3.21,3.21,0,0,1-1.19-1,2.77,2.77,0,0,1-.49-1.71,3,3,0,0,1,1.13-2.46,5.42,5.42,0,0,1,6,0,3.18,3.18,0,0,1,1.22,2.47h-3a1.13,1.13,0,0,0-.4-.85,1.38,1.38,0,0,0-.94-.31,1.15,1.15,0,0,0-.8.26,1,1,0,0,0,.2,1.61,9.38,9.38,0,0,0,1.6.66,12.77,12.77,0,0,1,1.77.7,3.25,3.25,0,0,1,1.18,1,2.58,2.58,0,0,1,.49,1.64,3.31,3.31,0,0,1-.48,1.75,3.39,3.39,0,0,1-1.42,1.24,4.84,4.84,0,0,1-2.19.47A5.73,5.73,0,0,1,309.53,150.16Z" transform="translate(-24.89 -11)"/><path d="M324,150.45l-3.78-5v5h-2.73V139.21h2.73v4.93l3.75-4.93h3.21l-4.35,5.51,4.51,5.73Z" transform="translate(-24.89 -11)"/><path d="M331.4,141.41v2.27h3.67v2.11H331.4v2.46h4.15v2.2h-6.88V139.21h6.88v2.2Z" transform="translate(-24.89 -11)"/><path d="M345.4,139.21v2.2h-3v9h-2.74v-9h-3v-2.2Z" transform="translate(-24.89 -11)"/><path d="M355.15,145.65a2.79,2.79,0,0,1,.59,1.74,2.75,2.75,0,0,1-1,2.23,4.13,4.13,0,0,1-2.74.83h-5.23V139.21h5.05a4.14,4.14,0,0,1,2.68.79,2.85,2.85,0,0,1,.45,3.78,2.71,2.71,0,0,1-1.38.91A2.66,2.66,0,0,1,355.15,145.65Zm-5.64-1.89h1.8a1.58,1.58,0,0,0,1-.3,1.05,1.05,0,0,0,.36-.87,1.09,1.09,0,0,0-.36-.88,1.58,1.58,0,0,0-1-.3h-1.8Zm3.08,4.17A1.12,1.12,0,0,0,353,147a1.18,1.18,0,0,0-.39-.93,1.62,1.62,0,0,0-1.08-.33h-2v2.48h2A1.65,1.65,0,0,0,352.59,147.93Z" transform="translate(-24.89 -11)"/><path d="M364.31,148.46h-4.19l-.67,2h-2.86l4.06-11.24h3.17l4.06,11.24H365Zm-.7-2.11-1.39-4.11-1.38,4.11Z" transform="translate(-24.89 -11)"/><path d="M371.85,148.33h3.58v2.12h-6.32V139.21h2.74Z" transform="translate(-24.89 -11)"/><path d="M379.48,148.33h3.59v2.12h-6.32V139.21h2.73Z" transform="translate(-24.89 -11)"/><path d="M394.76,148.46h-4.19l-.67,2H387l4.07-11.24h3.17l4.06,11.24h-2.9Zm-.7-2.11-1.39-4.11-1.38,4.11Z" transform="translate(-24.89 -11)"/><path d="M401.42,150.16a3.59,3.59,0,0,1-1.56-1.19,3.21,3.21,0,0,1-.62-1.88h2.91a1.44,1.44,0,0,0,.44.95,1.37,1.37,0,0,0,1,.33,1.56,1.56,0,0,0,1-.28,1,1,0,0,0,.35-.78.94.94,0,0,0-.28-.69,2.42,2.42,0,0,0-.69-.45,10.92,10.92,0,0,0-1.16-.39,12.46,12.46,0,0,1-1.78-.68,3.26,3.26,0,0,1-1.18-1,2.78,2.78,0,0,1-.5-1.71,3,3,0,0,1,1.14-2.46,4.68,4.68,0,0,1,3-.89,4.73,4.73,0,0,1,3,.89,3.21,3.21,0,0,1,1.22,2.47h-3a1.17,1.17,0,0,0-.4-.85,1.41,1.41,0,0,0-1-.31,1.17,1.17,0,0,0-.8.26,1,1,0,0,0-.3.76,1,1,0,0,0,.51.85,9,9,0,0,0,1.6.66,12.77,12.77,0,0,1,1.77.7,3.42,3.42,0,0,1,1.18,1,2.58,2.58,0,0,1,.49,1.64,3.23,3.23,0,0,1-.49,1.75,3.3,3.3,0,0,1-1.41,1.24,4.84,4.84,0,0,1-2.19.47A5.69,5.69,0,0,1,401.42,150.16Z" transform="translate(-24.89 -11)"/><path d="M411.26,150.16A3.59,3.59,0,0,1,409.7,149a3.21,3.21,0,0,1-.62-1.88H412a1.44,1.44,0,0,0,.44.95,1.36,1.36,0,0,0,.95.33,1.57,1.57,0,0,0,1-.28,1,1,0,0,0,.35-.78.94.94,0,0,0-.28-.69,2.42,2.42,0,0,0-.69-.45,10.92,10.92,0,0,0-1.16-.39,12.46,12.46,0,0,1-1.78-.68,3.18,3.18,0,0,1-1.18-1,2.78,2.78,0,0,1-.5-1.71,3,3,0,0,1,1.14-2.46,4.68,4.68,0,0,1,3-.89,4.73,4.73,0,0,1,3,.89,3.21,3.21,0,0,1,1.22,2.47h-3a1.17,1.17,0,0,0-.4-.85,1.41,1.41,0,0,0-.95-.31,1.17,1.17,0,0,0-.8.26,1,1,0,0,0-.3.76,1,1,0,0,0,.51.85,9,9,0,0,0,1.6.66,12.77,12.77,0,0,1,1.77.7,3.42,3.42,0,0,1,1.18,1,2.58,2.58,0,0,1,.49,1.64,3.23,3.23,0,0,1-.49,1.75,3.3,3.3,0,0,1-1.41,1.24,4.86,4.86,0,0,1-2.2.47A5.68,5.68,0,0,1,411.26,150.16Z" transform="translate(-24.89 -11)"/><path d="M421.65,149.82a5.51,5.51,0,0,1-2.1-2,5.82,5.82,0,0,1-.77-3,5.75,5.75,0,0,1,.77-3,5.51,5.51,0,0,1,2.1-2.05,6.07,6.07,0,0,1,5.81,0,5.39,5.39,0,0,1,2.08,2.05,6.13,6.13,0,0,1,0,5.93,5.46,5.46,0,0,1-2.08,2,6.05,6.05,0,0,1-5.8,0Zm5.06-2.65a3.93,3.93,0,0,0,0-4.75,3.1,3.1,0,0,0-4.32,0,3.41,3.41,0,0,0-.81,2.39,3.37,3.37,0,0,0,.81,2.37,2.74,2.74,0,0,0,2.16.89A2.79,2.79,0,0,0,426.71,147.17Z" transform="translate(-24.89 -11)"/><path d="M434.55,139.21v11.24h-2.73V139.21Z" transform="translate(-24.89 -11)"/><path d="M443.53,148.46h-4.19l-.67,2H435.8l4.07-11.24H443l4.07,11.24h-2.9Zm-.7-2.11-1.4-4.11-1.37,4.11Z" transform="translate(-24.89 -11)"/><path d="M456.41,139.21v2.2h-3v9H450.7v-9h-3v-2.2Z" transform="translate(-24.89 -11)"/><path d="M460.52,139.21v11.24h-2.73V139.21Z" transform="translate(-24.89 -11)"/><path d="M464.91,149.82a5.42,5.42,0,0,1-2.09-2,5.73,5.73,0,0,1-.78-3,5.67,5.67,0,0,1,.78-3,5.42,5.42,0,0,1,2.09-2.05,6.07,6.07,0,0,1,5.81,0,5.39,5.39,0,0,1,2.08,2.05,6.13,6.13,0,0,1,0,5.93,5.39,5.39,0,0,1-2.08,2,5.81,5.81,0,0,1-2.89.74A5.88,5.88,0,0,1,464.91,149.82Zm5.06-2.65a3.89,3.89,0,0,0,0-4.75,2.78,2.78,0,0,0-2.15-.88,2.82,2.82,0,0,0-2.17.87,3.41,3.41,0,0,0-.81,2.39,3.37,3.37,0,0,0,.81,2.37,3.07,3.07,0,0,0,4.32,0Z" transform="translate(-24.89 -11)"/><path d="M485.13,150.45h-2.74l-4.57-6.93v6.93h-2.74V139.21h2.74l4.57,7v-7h2.74Z" transform="translate(-24.89 -11)"/></svg>