<svg id="SvgjsSvg1001" xmlns="http://www.w3.org/2000/svg" viewBox="0 0 347.42 456.89"><defs><style>.cls-1{fill:#fcfe05;}.cls-2{fill:#fffb07;}.cls-3{isolation:isolate;font-size:398.7px;font-family:LucidaFax, Lucida Fax;}</style></defs><circle class="cls-1" cx="173.87" cy="174.47" r="168.46"/><circle class="cls-2" cx="173.87" cy="174.47" r="157.97"/><path d="M173.87,17.76A156.71,156.71,0,1,1,63.06,63.66a156.71,156.71,0,0,1,110.81-45.9m0-2.5a159.24,159.24,0,1,0,.06,0Z"/><path d="M28.93,366.74l-.37,27.86-1.9,4.48h-5.6l-.81-32.34ZM25.32,394l12.92-27.24h4.69l.5,4.56L29.9,399.1H24.73Zm20.35-27.24,1.06,27.95L45.2,399.1h-5l-1.4-28.41L41,366.76Zm-2.15,27.17,11.55-27.17h8.86L49.06,399.1H43.37Z"/><path d="M78,366.74l-7.86,32.34h-8.9l7.9-32.34Zm12.35,13.09L89,385.22H70.93l1.34-5.39Zm9.58-13.09-7.87,32.34H83.25l7.89-32.34Z"/><path d="M116,366.74l-7.81,32.34H99.25l7.84-32.34Zm9.84,26.95-1.34,5.39h-19.1l1.27-5.39Zm.84-13.86-1.34,5.24H108.74l1.27-5.24Zm5.6-13.09-1.31,5.42H111.85l1.34-5.42Z"/><path d="M146.29,366.74l-7.84,32.34h-8.9l7.84-32.34Zm9.85,26.95-1.34,5.39H135.7l1.28-5.39Zm.84-13.86-1.34,5.24H139.07l1.28-5.24Zm5.6-13.09-1.31,5.42H142.14l1.34-5.42Z"/><path d="M176.62,366.74l-7.84,32.34h-8.89l7.84-32.34Zm9,26.95-1.34,5.39H166l1.31-5.39Z"/><path d="M210.23,390.4a3.29,3.29,0,0,0-.1-1.73,3.16,3.16,0,0,0-.95-1.3,7.46,7.46,0,0,0-1.61-1,19.19,19.19,0,0,0-2.17-.86,35.76,35.76,0,0,1-4.15-1.7,17.48,17.48,0,0,1-3.42-2.13,7.87,7.87,0,0,1-2.23-2.7,6.2,6.2,0,0,1-.56-3.42,7.58,7.58,0,0,1,1.56-3.91,11,11,0,0,1,3.47-2.94,17.06,17.06,0,0,1,4.84-1.82,23.36,23.36,0,0,1,5.6-.57,16.21,16.21,0,0,1,6.86,1.4,9.46,9.46,0,0,1,4.1,3.57,8.42,8.42,0,0,1,1.17,5H213.8a6,6,0,0,0-.14-2.16,3.1,3.1,0,0,0-1.16-1.77,4.88,4.88,0,0,0-2.83-.73,6.83,6.83,0,0,0-2.87.51,5.46,5.46,0,0,0-2,1.42,4.09,4.09,0,0,0-1,2,2.06,2.06,0,0,0,.26,1.55,4.1,4.1,0,0,0,1.18,1.24,9.61,9.61,0,0,0,1.73,1c.64.28,1.28.54,1.93.76a38.28,38.28,0,0,1,4.32,1.75,15.25,15.25,0,0,1,3.35,2.17,7.51,7.51,0,0,1,2,2.79,7.82,7.82,0,0,1,.45,3.59,8.52,8.52,0,0,1-1.52,4,10.54,10.54,0,0,1-3.3,2.9,16.84,16.84,0,0,1-4.68,1.79,24.71,24.71,0,0,1-5.68.55,20.33,20.33,0,0,1-5.8-.88,12.13,12.13,0,0,1-4.28-2.25,9,9,0,0,1-2.55-3.38,8.63,8.63,0,0,1-.69-4.17h8.9a8.36,8.36,0,0,0,0,2,3.73,3.73,0,0,0,.68,1.72,3.49,3.49,0,0,0,1.6,1.18,8,8,0,0,0,2.8.44,7.86,7.86,0,0,0,2.83-.5,4.71,4.71,0,0,0,1.9-1.34A4.55,4.55,0,0,0,210.23,390.4Z"/><path d="M38.39,442.92l8.56-.09a12,12,0,0,1-2.65,6,14,14,0,0,1-5.75,4A22.15,22.15,0,0,1,30,454.17a17,17,0,0,1-6.73-1.28,9.73,9.73,0,0,1-4.08-3.2,10.2,10.2,0,0,1-1.79-4.42,14.63,14.63,0,0,1,.09-4.94l1.16-5.53a19.42,19.42,0,0,1,1.89-5.2,15.86,15.86,0,0,1,3.58-4.6,16.43,16.43,0,0,1,5.45-3.11A21.27,21.27,0,0,1,37,420.83a16.75,16.75,0,0,1,7.72,1.61,9.23,9.23,0,0,1,4.1,4.12,13.05,13.05,0,0,1,1.25,5.7H41.22a15.18,15.18,0,0,0,0-2.86A3.43,3.43,0,0,0,40,427.15a6.13,6.13,0,0,0-3.61-.93,9,9,0,0,0-4.09.7A6.67,6.67,0,0,0,29.73,429a9.58,9.58,0,0,0-1.43,2.79,27.07,27.07,0,0,0-.76,2.91l-1.09,5.6c-.14.76-.27,1.61-.39,2.57a9.06,9.06,0,0,0,.07,2.75,3.57,3.57,0,0,0,1.27,2.2,5.33,5.33,0,0,0,3.35.94,8.58,8.58,0,0,0,4.21-.66,5.2,5.2,0,0,0,2.3-2.15A12,12,0,0,0,38.39,442.92Z"/><path d="M85.53,435l-1.09,5.4a19.38,19.38,0,0,1-2,5.21,17,17,0,0,1-3.66,4.44,16.18,16.18,0,0,1-5.49,3,22.38,22.38,0,0,1-7.53,1A17.8,17.8,0,0,1,59,452.8a10.42,10.42,0,0,1-4.23-3.13,10.2,10.2,0,0,1-2-4.37,13.56,13.56,0,0,1,0-5l1.13-5.38a19.36,19.36,0,0,1,2-5.29,16.32,16.32,0,0,1,3.65-4.57,16.81,16.81,0,0,1,5.55-3.19,21.5,21.5,0,0,1,7.6-1.07,17.1,17.1,0,0,1,6.84,1.31,10.12,10.12,0,0,1,6.1,7.78A14.86,14.86,0,0,1,85.53,435Zm-10,5.4,1.12-5.46c.12-.77.23-1.64.31-2.59a8.78,8.78,0,0,0-.22-2.8,4.24,4.24,0,0,0-1.43-2.28,5.47,5.47,0,0,0-3.39-1,8.92,8.92,0,0,0-4.12.72,7,7,0,0,0-2.69,2.13A10,10,0,0,0,63.54,432a22.32,22.32,0,0,0-.86,3l-1.06,5.44a20.25,20.25,0,0,0-.31,2.57,7.25,7.25,0,0,0,.3,2.7,4.07,4.07,0,0,0,1.49,2.13,6,6,0,0,0,3.38.93,8.59,8.59,0,0,0,4-.7,7.69,7.69,0,0,0,2.66-2,9.4,9.4,0,0,0,1.59-2.74,18.63,18.63,0,0,0,.84-2.94Z"/><path d="M95.36,421.33H109a19,19,0,0,1,6.86,1.26,8.73,8.73,0,0,1,4.13,3.29,7.49,7.49,0,0,1,1,5,10.53,10.53,0,0,1-1.47,4.24,10.29,10.29,0,0,1-3.25,3.15,23.37,23.37,0,0,1-5.08,2.34l-3.07,1.2H96.32l1.31-5.4,7.53.07a9.17,9.17,0,0,0,3.54-.71A5.84,5.84,0,0,0,111,434a6,6,0,0,0,1.11-2.51,6.79,6.79,0,0,0,0-2.11,2.94,2.94,0,0,0-.94-1.8,4,4,0,0,0-2.59-.78h-5.69l-6.53,26.92h-8.9Zm12.29,32.34L103,439.26h9l5.1,14.06v.35Z"/><path d="M139.94,442.3h-9.55l1.34-5.4h8.65a8.28,8.28,0,0,0,3.5-.71,6.06,6.06,0,0,0,2.26-1.79,5.81,5.81,0,0,0,1.09-2.52,6.2,6.2,0,0,0,0-2.19,3.48,3.48,0,0,0-1-2,3.87,3.87,0,0,0-2.62-.92l-6.57,0-6.53,26.92h-8.9l7.84-32.34H144a16.46,16.46,0,0,1,7,1.51,9.44,9.44,0,0,1,4.14,3.77,8.43,8.43,0,0,1,1,5.21,9.81,9.81,0,0,1-2.56,5.55,14.41,14.41,0,0,1-5.71,3.63A22.42,22.42,0,0,1,139.94,442.3Z"/><path d="M192.14,435l-1.09,5.4a19.05,19.05,0,0,1-2,5.21,16.15,16.15,0,0,1-9.15,7.48,22.38,22.38,0,0,1-7.53,1,17.75,17.75,0,0,1-6.76-1.25,10.27,10.27,0,0,1-4.23-3.13,10,10,0,0,1-2-4.37,13.56,13.56,0,0,1,0-5l1.16-5.34a19.69,19.69,0,0,1,2-5.29,16.32,16.32,0,0,1,3.65-4.57,16.86,16.86,0,0,1,5.56-3.19,21.45,21.45,0,0,1,7.59-1.07,17.1,17.1,0,0,1,6.8,1.32,10.62,10.62,0,0,1,4.21,3.27,10.44,10.44,0,0,1,1.89,4.53A14.73,14.73,0,0,1,192.14,435Zm-10,5.4,1.12-5.46c.13-.77.23-1.64.32-2.59a8.78,8.78,0,0,0-.22-2.8,4.43,4.43,0,0,0-1.43-2.28,5.52,5.52,0,0,0-3.4-1,8.92,8.92,0,0,0-4.12.72,7.09,7.09,0,0,0-2.69,2.13,10.47,10.47,0,0,0-1.57,2.88,23.9,23.9,0,0,0-.86,3l-1,5.44A18.58,18.58,0,0,0,168,443a7,7,0,0,0,.29,2.7,4.07,4.07,0,0,0,1.49,2.13,6,6,0,0,0,3.38.93,8.59,8.59,0,0,0,4-.7,7.57,7.57,0,0,0,2.66-2,9.27,9.27,0,0,0,1.59-2.74,17.59,17.59,0,0,0,.83-2.94Z"/><path d="M202,421.33h13.66a19,19,0,0,1,6.86,1.26,8.75,8.75,0,0,1,4.14,3.29,7.49,7.49,0,0,1,1,5,10.66,10.66,0,0,1-1.46,4.24,10.29,10.29,0,0,1-3.25,3.15,23.45,23.45,0,0,1-5.09,2.34l-3.05,1.15H203l1.3-5.4,7.53.07a9.26,9.26,0,0,0,3.55-.71,5.76,5.76,0,0,0,3.42-4.31,7.11,7.11,0,0,0,.05-2.11,2.92,2.92,0,0,0-1-1.8,3.93,3.93,0,0,0-2.58-.78h-5.7l-6.53,26.92h-8.93Zm12.29,32.34-4.6-14.41h9l5.13,14.08v.35Z"/><path d="M250.67,427.42,235,453.67h-9.65l21.57-32.34H253ZM255,441.61l-1.34,5.4H233.78l1.34-5.4Zm-3.18,12.06-3.14-26.79.5-5.55H255l5.94,32.34Z"/><path d="M297.56,421.33l-1.34,5.42H265.76l1.31-5.42Zm-10.92,0-7.87,32.34H269.9l7.87-32.34Z"/><path d="M311.53,421.33l-7.84,32.34h-8.9l7.84-32.34Zm9.83,26.95L320,453.67h-19.1l1.27-5.39Zm.84-13.86-1.34,5.24H304.31l1.28-5.24Zm5.6-13.09-1.31,5.42H307.42l1.34-5.42Z"/><text class="cls-3" transform="translate(24.61 314.48) scale(0.9 1)">w</text></svg>