<svg xmlns="http://www.w3.org/2000/svg" version="1.1" xmlns:xlink="http://www.w3.org/1999/xlink" width="126.6246" height="153.7238"><svg id="SvgjsSvg1018" data-name="Layer 1" xmlns="http://www.w3.org/2000/svg" viewBox="0 0 126.6246 153.7238"><defs><style>.cls-1{fill:#f79925;}.cls-2{fill:#f58520;}.cls-3{fill:#df2128;}.cls-4{fill:#4fb956;}.cls-5{fill:#2e9c49;}.cls-6{fill:#2aa992;}</style></defs><path class="cls-1" d="M18,27h0a9,9,0,0,1,9,9V153a9,9,0,0,1-9,9h0a9,9,0,0,1-9-9V36A9,9,0,0,1,18,27Z" transform="translate(-8.6916 -8.6399)"></path><path class="cls-2" d="M12.0648,29.64h0a9,9,0,0,1,12.7049.766L42.698,50.6348A9,9,0,0,1,41.932,63.34h0a9,9,0,0,1-12.7048-.7659L11.2989,42.3451A9,9,0,0,1,12.0648,29.64Z" transform="translate(-8.6916 -8.6399)"></path><path class="cls-3" d="M103.62,77.2066h0a9,9,0,0,1-.7659,12.7049L23.6612,160.0991a9,9,0,0,1-12.7049-.766h0a9,9,0,0,1,.766-12.7048L90.9155,76.4407A9,9,0,0,1,103.62,77.2066Z" transform="translate(-8.6916 -8.6399)"></path><path class="cls-4" d="M126,144h0a9,9,0,0,1-9-9V18a9,9,0,0,1,9-9h0a9,9,0,0,1,9,9V135A9,9,0,0,1,126,144Z" transform="translate(-8.6916 -8.6399)"></path><path class="cls-5" d="M131.936,141.3585h0a9,9,0,0,1-12.7049-.7659l-17.9283-20.2287a9,9,0,0,1,.766-12.7048h0a9,9,0,0,1,12.7048.7659l17.9283,20.2287A9,9,0,0,1,131.936,141.3585Z" transform="translate(-8.6916 -8.6399)"></path><path class="cls-6" d="M40.3875,93.7971h0a9,9,0,0,1,.7659-12.7049l79.1933-70.1876a9,9,0,0,1,12.7048.766h0a9,9,0,0,1-.7659,12.7048L53.0923,94.563A9,9,0,0,1,40.3875,93.7971Z" transform="translate(-8.6916 -8.6399)"></path></svg><style>@media (prefers-color-scheme: light) { :root { filter: none; } }
@media (prefers-color-scheme: dark) { :root { filter: none; } }
</style></svg>