<svg id="freepik_stories-mobile-login" data-name="freepik stories-mobile-login" xmlns="http://www.w3.org/2000/svg" viewBox="0 0 406.03 397.73"><defs><style>.cls-1{fill:#ebebeb;}.cls-2{fill:#263238;}.cls-3{fill:#37474f;}.cls-4{fill:#1b84ff;}.cls-5{fill:#fff;}.cls-6{fill:#dbdbdb;}.cls-7{fill:none;}.cls-8{fill:#eb9481;}.cls-9{fill:#455a64;}.cls-10{opacity:0.1;isolation:isolate;}.cls-11{fill:#ff9abb;}</style></defs><g id="freepik--Shadow--inject-2"><path id="el4q7ouj7xb1t" class="cls-1" d="M448.31,439.23c0,11.28-88.78,20.42-198.31,20.42S51.69,450.51,51.69,439.23,140.47,418.81,250,418.81,448.31,428,448.31,439.23Z" transform="translate(-46.98 -61.92)"/></g><g id="freepik--Floor--inject-2"><polygon id="el1cms151vgon" class="cls-2" points="0 344.52 50.76 344.28 101.51 344.19 203.02 344.03 304.53 344.19 355.28 344.28 406.03 344.52 355.28 344.77 304.53 344.86 203.02 345.02 101.51 344.86 50.76 344.77 0 344.52"/></g><g id="freepik--Device--inject-2"><path id="ell41jxb2l3q" class="cls-3" d="M334.52,61.92H165.46a17.26,17.26,0,0,0-17.1,17.42h0v348a17.27,17.27,0,0,0,17.1,17.42H334.52a17.29,17.29,0,0,0,17.12-17.42v-348A17.27,17.27,0,0,0,334.52,61.92Zm6.42,354.67c0,9.16-6.86,16.57-15.32,16.57H174.38c-8.48,0-15.34-7.41-15.34-16.57V92.53C159,73.87,165.9,73,174.38,73h30.3c1.76,0,3.2,2,3.2,4.48v1.07c0,5.81,3.18,5.83,7.08,5.83h70c3.94,0,7.1,0,7.1-5.83V77.44c0-2.48,1.42-4.48,3.21-4.48H325.6c8.46,0,15.32,2.48,15.32,19.57Z" transform="translate(-46.98 -61.92)"/><path id="elhzudjoqdxc" class="cls-1" d="M340.94,92.53V416.59c0,9.16-6.86,16.57-15.32,16.57H174.38c-8.48,0-15.34-7.41-15.34-16.57V92.53C159,73.87,165.9,73,174.38,73h30.3c1.76,0,3.2,2,3.2,4.48v1.07c0,5.81,3.18,5.83,7.08,5.83h70c3.94,0,7.1,0,7.1-5.83V77.44c0-2.48,1.42-4.48,3.21-4.48H325.6C334.08,73,340.94,75.44,340.94,92.53Z" transform="translate(-46.98 -61.92)"/><path id="elj35jio7esv" class="cls-4" d="M340.94,92.53V228.75H159V92.53C159,73.87,165.9,73,174.38,73h30.3c1.76,0,3.2,2,3.2,4.48v1.07c0,5.81,3.18,5.83,7.08,5.83h70c3.94,0,7.1,0,7.1-5.83V77.44c0-2.48,1.42-4.48,3.21-4.48H325.6C334.08,73,340.94,75.44,340.94,92.53Z" transform="translate(-46.98 -61.92)"/><g id="freepik--u5Zjqx--inject-2"><path id="el9rcbpqi09vm" class="cls-5" d="M199.45,80.24l-.29.29c-.06,0-.11.11-.17.17a4,4,0,0,0-5.64,0l-.16-.17-.29-.29h0l.37-.32a4.06,4.06,0,0,1,.86-.55,4.18,4.18,0,0,1,1.13-.38,1.41,1.41,0,0,0,.57-.08h.88a4.31,4.31,0,0,1,1,.25,4.58,4.58,0,0,1,.71.33,4.48,4.48,0,0,1,.67.47l.31.28Z" transform="translate(-46.98 -61.92)"/><path id="elo27k8vg8l" class="cls-5" d="M194.27,81.62c-.15-.16-.3-.31-.46-.46a3.32,3.32,0,0,1,4.7,0h0l-.46.46A2.67,2.67,0,0,0,194.27,81.62Z" transform="translate(-46.98 -61.92)"/><path id="elvj8a7j507io" class="cls-5" d="M197.6,82.08l-.46.46a1.29,1.29,0,0,0-1-.4,1.34,1.34,0,0,0-1,.4l-.46-.46a2,2,0,0,1,2.83-.09Z" transform="translate(-46.98 -61.92)"/><path id="elai3qvx4rcqn" class="cls-5" d="M196.58,83a.41.41,0,0,1-.41.41h0a.42.42,0,1,1-.13-.83.29.29,0,0,1,.13,0,.41.41,0,0,1,.41.41Z" transform="translate(-46.98 -61.92)"/></g><path id="elpdbdn6ya3w" class="cls-5" d="M170.9,81.12a1.21,1.21,0,1,1,1.21,1.21,1.21,1.21,0,0,1-1.21-1.21Z" transform="translate(-46.98 -61.92)"/><path id="elx3l6e8catle" class="cls-5" d="M174.7,81.12a1.21,1.21,0,1,1,1.21,1.21,1.21,1.21,0,0,1-1.21-1.21Z" transform="translate(-46.98 -61.92)"/><path id="elfr1vigps6d" class="cls-5" d="M178.5,81.12a1.21,1.21,0,1,1,1.21,1.21h0a1.2,1.2,0,0,1-1.2-1.2Z" transform="translate(-46.98 -61.92)"/><path id="el01oqdxv1iz3a" class="cls-5" d="M182.3,81.12a1.21,1.21,0,1,1,1.21,1.21h0a1.2,1.2,0,0,1-1.2-1.2Z" transform="translate(-46.98 -61.92)"/><path id="elv9jtl2gfft9" class="cls-5" d="M186.09,81.12a1.21,1.21,0,1,1,1.21,1.21,1.21,1.21,0,0,1-1.21-1.21Z" transform="translate(-46.98 -61.92)"/><path id="el3vqf09e44hg" class="cls-5" d="M327.3,83.75h-9.82V79.21h9.82Zm-9.32-.5h8.82V79.71H318Z" transform="translate(-46.98 -61.92)"/><rect id="eltz773z1kiqa" class="cls-5" x="271.32" y="18.06" width="6.33" height="3"/><rect id="elbhduzba6q5m" class="cls-5" x="280.32" y="18.35" width="0.87" height="2.43"/><polygon id="elv3hbg3odxd" class="cls-5" points="129.3 48.78 123.93 43.75 129.3 38.72 130.13 39.6 125.71 43.75 130.13 47.9 129.3 48.78"/><path id="ela2uojt1bosw" class="cls-5" d="M271,190.94a39.51,39.51,0,0,1-11.55,4.84A40.08,40.08,0,1,1,271,190.94Z" transform="translate(-46.98 -61.92)"/><path id="elzhk3bn0vwvm" class="cls-4" d="M262.17,152.29A12.19,12.19,0,1,1,250,140.1h0A12.2,12.2,0,0,1,262.17,152.29Z" transform="translate(-46.98 -61.92)"/><path id="elkxvjsrxrlzn" class="cls-4" d="M271,185.92v5a40,40,0,0,1-42.12,0v-5a21.06,21.06,0,0,1,42.12,0v0Z" transform="translate(-46.98 -61.92)"/><rect id="elz5waifuxiv" class="cls-5" x="131.54" y="152.95" width="142.96" height="138.8"/><path id="el3sopw0qjeo" class="cls-2" d="M226.78,231.38l-3.67,8.74a.64.64,0,0,1-.08.14h0l-.08.09h0a.41.41,0,0,0-.11.07h0c-.05,0-.08.08-.14.09h-.58a.42.42,0,0,1-.14-.09h0l-.11-.07h0l-.06-.09h0a.35.35,0,0,1-.06-.14l-2-4.65-2,4.65a.35.35,0,0,1-.06.14h0l-.09.09h0a.18.18,0,0,0-.08.07h0l-.12.09h-.6a.42.42,0,0,1-.14-.09h0s-.06-.06-.11-.07h0l-.08-.09h0a.19.19,0,0,0-.07-.14l-3.69-8.74a.82.82,0,0,1,.45-1.07.81.81,0,0,1,1.07.44l2.93,6.94,1.94-4.6a.81.81,0,0,1,.78-.51.85.85,0,0,1,.78.51l1.93,4.6,2.93-6.94a.83.83,0,0,1,1.09-.44h0A.81.81,0,0,1,226.78,231.38Z" transform="translate(-46.98 -61.92)"/><path id="elni58ovqbzq" class="cls-2" d="M229.19,239.81V231a.81.81,0,0,1,.79-.83h4.93a.83.83,0,0,1,.83.83h0a.85.85,0,0,1-.83.84h-4.06v2.74h3.49a.84.84,0,0,1,.74.93.83.83,0,0,1-.74.74h-3.49V239h4.06a.83.83,0,1,1,0,1.66H230a.81.81,0,0,1-.81-.81Z" transform="translate(-46.98 -61.92)"/><path id="elz3lxb1a38v" class="cls-2" d="M238.08,239.81V231a.84.84,0,0,1,.82-.83.85.85,0,0,1,.85.83v8h4.06a.83.83,0,1,1,0,1.66H238.9a.82.82,0,0,1-.82-.82Z" transform="translate(-46.98 -61.92)"/><path id="el85itqc0giog" class="cls-2" d="M245.46,235.23a5.5,5.5,0,0,1,5.5-5.4,5.74,5.74,0,0,1,3.47,1.17.86.86,0,0,1-1.05,1.37,3.78,3.78,0,0,0-2.42-.83,4,4,0,0,0-2.7,1.08,3.75,3.75,0,0,0-1.09,2.61,3.66,3.66,0,0,0,1.09,2.61,4,4,0,0,0,2.7,1.08,3.73,3.73,0,0,0,2.42-.82.91.91,0,0,1,1.2.16.88.88,0,0,1-.15,1.2,5.59,5.59,0,0,1-3.47,1.17A5.48,5.48,0,0,1,245.46,235.23Z" transform="translate(-46.98 -61.92)"/><path id="elbvjpo9ok8c" class="cls-2" d="M265.47,231.44a5.51,5.51,0,0,1,0,7.59,4.92,4.92,0,0,1-7.26,0,5.57,5.57,0,0,1,0-7.59,5,5,0,0,1,3.67-1.61A4.87,4.87,0,0,1,265.47,231.44Zm-.2,3.79a3.85,3.85,0,0,0-1-2.62,3.23,3.23,0,0,0-4.56-.24c-.09.08-.16.16-.24.24a3.78,3.78,0,0,0-1,2.62,3.71,3.71,0,0,0,1,2.61,3.2,3.2,0,0,0,4.53.27,3.44,3.44,0,0,0,.27-.27A3.8,3.8,0,0,0,265.27,235.23Z" transform="translate(-46.98 -61.92)"/><path id="elvtguh43n4do" class="cls-2" d="M278.37,231v8.85a.83.83,0,0,1-.84.82.82.82,0,0,1-.83-.81h0v-6.32l-2.16,3a.81.81,0,0,1-.67.35h0a.86.86,0,0,1-.69-.35l-2.15-3v6.32a.83.83,0,1,1-1.66,0h0V231a.84.84,0,0,1,.82-.83h0a.8.8,0,0,1,.66.35l3,4.14,3-4.14a.81.81,0,0,1,.67-.35h0A.87.87,0,0,1,278.37,231Z" transform="translate(-46.98 -61.92)"/><path id="eljxk7q5me53" class="cls-2" d="M281.25,239.81V231a.81.81,0,0,1,.79-.83h5a.84.84,0,0,1,.82.83.86.86,0,0,1-.82.84h-4.07v2.74h3.5a.84.84,0,0,1,.74.93.83.83,0,0,1-.74.74h-3.5V239H287a.83.83,0,0,1,0,1.66h-4.91a.82.82,0,0,1-.84-.8Z" transform="translate(-46.98 -61.92)"/><path id="elb014pswl8no" class="cls-4" d="M195.24,265.24V261.7a.33.33,0,0,1,.33-.33h2a.34.34,0,0,1,.28.39.35.35,0,0,1-.28.28H196v1.1h1.39a.33.33,0,0,1,0,.66H196v1.11h1.62a.33.33,0,0,1,0,.66h-2a.33.33,0,0,1-.33-.33Z" transform="translate(-46.98 -61.92)"/><path id="elrq73wct1xu9" class="cls-4" d="M202.41,261.7v3.54a.35.35,0,0,1-.34.33.33.33,0,0,1-.33-.33v-2.52l-.86,1.2a.31.31,0,0,1-.27.13h0a.34.34,0,0,1-.28-.13l-.85-1.2v2.52a.34.34,0,0,1-.39.28.35.35,0,0,1-.28-.28V261.7a.33.33,0,0,1,.33-.33h0a.34.34,0,0,1,.26.14l1.19,1.66,1.2-1.66a.32.32,0,0,1,.27-.14h0A.34.34,0,0,1,202.41,261.7Z" transform="translate(-46.98 -61.92)"/><path id="ele06vz0a1j9" class="cls-4" d="M205.61,264.58h-1.45l-.3.78a.33.33,0,0,1-.31.21h-.11a.33.33,0,0,1-.2-.42h0l1.32-3.53a.34.34,0,0,1,.32-.21.32.32,0,0,1,.32.21l1.33,3.53a.35.35,0,0,1-.2.43h-.12a.32.32,0,0,1-.3-.21Zm-.24-.66-.49-1.29-.48,1.29Z" transform="translate(-46.98 -61.92)"/><path id="elfsqziwvnimd" class="cls-4" d="M207.39,261.7a.33.33,0,0,1,.33-.33.35.35,0,0,1,.34.33v3.54a.35.35,0,0,1-.34.33.33.33,0,0,1-.33-.33Z" transform="translate(-46.98 -61.92)"/><path id="el4ng301ub09h" class="cls-4" d="M209.18,265.24V261.7a.33.33,0,0,1,.33-.33.35.35,0,0,1,.34.33v3.21h1.62a.33.33,0,0,1,0,.66h-2A.33.33,0,0,1,209.18,265.24Z" transform="translate(-46.98 -61.92)"/><path id="elupm1m3de7x" class="cls-2" d="M195,276.91a1.42,1.42,0,0,1,2.84-.11h0a.15.15,0,0,1-.15.14h-2.41a1.16,1.16,0,0,0,1.14,1.12,1.09,1.09,0,0,0,1-.53.15.15,0,0,1,.19,0,.16.16,0,0,1,0,.21,1.41,1.41,0,0,1-1.19.66,1.43,1.43,0,0,1-1.47-1.41Zm.3-.24h2.23a1.13,1.13,0,0,0-2.23,0Z" transform="translate(-46.98 -61.92)"/><path id="ele6k4mg2wh84" class="cls-2" d="M203,276.63a.91.91,0,1,0-1.81-.19.61.61,0,0,0,0,.19v1.62h0a.12.12,0,0,1-.07.07h-.07V276.7a.91.91,0,1,0-1.81-.19.61.61,0,0,0,0,.19v1.6a.14.14,0,0,1-.06.12H199a.14.14,0,0,1-.12-.11v-2.68a.14.14,0,0,1,.14-.14h0a.14.14,0,0,1,.14.14h0v.28a1.15,1.15,0,0,1,1.91.2,1.2,1.2,0,0,1,1.05-.62,1.19,1.19,0,0,1,1.2,1.18h0v1.6a.14.14,0,0,1-.14.14h0a.14.14,0,0,1-.14-.14h0Z" transform="translate(-46.98 -61.92)"/><path id="elh4zhf5x3w5" class="cls-2" d="M208.74,276.63a.91.91,0,1,0-1.82,0v1.62h0a.18.18,0,0,1-.08.07h-.07V276.7a.91.91,0,1,0-1.81-.19.61.61,0,0,0,0,.19v1.6a.15.15,0,0,1-.07.12h-.06a.13.13,0,0,1-.12-.11v-2.68a.13.13,0,0,1,.12-.14h0a.14.14,0,0,1,.15.13h0v.28a1.15,1.15,0,0,1,.9-.42,1.18,1.18,0,0,1,1.05.62,1.23,1.23,0,0,1,1.06-.62,1.19,1.19,0,0,1,1.19,1.19h0v1.6a.14.14,0,1,1-.28,0Z" transform="translate(-46.98 -61.92)"/><path id="elq8y6e1vg4i9" class="cls-2" d="M212.71,275.58v2.65a.15.15,0,0,1-.15.14.14.14,0,0,1-.14-.14h0v-.44a1.34,1.34,0,0,1-1.1.58,1.47,1.47,0,1,1,0-2.94,1.34,1.34,0,0,1,1.1.58v-.43a.14.14,0,0,1,.13-.15h0a.15.15,0,0,1,.15.15Zm-.29,1.32a1.11,1.11,0,1,0-1.1,1.18,1.15,1.15,0,0,0,1.1-1.18Z" transform="translate(-46.98 -61.92)"/><path id="elj1slwcoom7" class="cls-2" d="M214.23,279.23a.22.22,0,0,0,.22-.22h0v-3.43a.15.15,0,0,1,.15-.15.15.15,0,0,1,.14.15V279a.51.51,0,0,1-.51.51h0a.14.14,0,0,1-.14-.14h0A.14.14,0,0,1,214.23,279.23Zm.23-4.61a.15.15,0,0,1,.15-.15.15.15,0,0,1,.14.15v.14a.15.15,0,0,1-.14.15.17.17,0,0,1-.15-.15Z" transform="translate(-46.98 -61.92)"/><path id="elxc5n9lc470b" class="cls-2" d="M218.51,275.58v2.65a.14.14,0,0,1-.28,0v-.44a1.4,1.4,0,0,1-1.11.58,1.47,1.47,0,1,1,0-2.94,1.4,1.4,0,0,1,1.11.58v-.43a.14.14,0,0,1,.28,0Zm-.28,1.32a1.11,1.11,0,1,0-1.11,1.18A1.15,1.15,0,0,0,218.23,276.9Z" transform="translate(-46.98 -61.92)"/><path id="elejcs0gsw5vs" class="cls-2" d="M224,276.63a.91.91,0,1,0-1.82,0v1.62h0a.12.12,0,0,1-.07.07H222V276.7a.91.91,0,0,0-1.81-.19.61.61,0,0,0,0,.19v1.6a.15.15,0,0,1-.07.12h-.06a.14.14,0,0,1-.12-.11v-2.68a.14.14,0,0,1,.14-.14h0a.14.14,0,0,1,.15.13h0v.28a1.15,1.15,0,0,1,.9-.42,1.18,1.18,0,0,1,1.05.62,1.23,1.23,0,0,1,1.06-.62,1.19,1.19,0,0,1,1.19,1.19h0v1.6a.14.14,0,1,1-.28,0Z" transform="translate(-46.98 -61.92)"/><path id="elqe52vxtsxe" class="cls-2" d="M225.26,276.91a1.42,1.42,0,0,1,2.84-.11h0a.14.14,0,0,1-.14.14h-2.41a1.16,1.16,0,0,0,1.14,1.12,1.09,1.09,0,0,0,.94-.53.17.17,0,0,1,.2,0,.17.17,0,0,1,0,.21,1.38,1.38,0,0,1-1.18.66A1.45,1.45,0,0,1,225.26,276.91Zm.31-.24h2.22a1.13,1.13,0,0,0-1.1-.95,1.16,1.16,0,0,0-1.12.95Z" transform="translate(-46.98 -61.92)"/><path id="elx3p6zgj7che" class="cls-2" d="M228.92,277.76a.13.13,0,0,1,.2,0h0a1.63,1.63,0,0,0,.9.34.87.87,0,0,0,.56-.18.44.44,0,0,0,.22-.36.47.47,0,0,0-.21-.36,1.53,1.53,0,0,0-.59-.2h0a1.45,1.45,0,0,1-.67-.23.63.63,0,0,1-.32-.52.75.75,0,0,1,.32-.58,1.23,1.23,0,0,1,.72-.2,1.66,1.66,0,0,1,.88.32.17.17,0,0,1,0,.21.15.15,0,0,1-.2,0,1.26,1.26,0,0,0-.72-.3.86.86,0,0,0-.56.17.46.46,0,0,0-.18.34.34.34,0,0,0,.16.29,1.59,1.59,0,0,0,.6.21h0a2,2,0,0,1,.71.23.7.7,0,0,1,.24,1,.69.69,0,0,1-.24.24,1.14,1.14,0,0,1-.73.23,1.71,1.71,0,0,1-1.08-.42.13.13,0,0,1,0-.18Z" transform="translate(-46.98 -61.92)"/><path id="elhqeztta3hll" class="cls-2" d="M234.25,277.51h-2.34a.17.17,0,0,1,0-.21l2.43-3h0a.13.13,0,0,1,.18,0l0,0a.09.09,0,0,1,0,.07v2.92h.28a.15.15,0,0,1,.18.11.14.14,0,0,1-.1.18h-.36v.72a.15.15,0,1,1-.3,0Zm0-.29v-2.46l-2,2.46Z" transform="translate(-46.98 -61.92)"/><path id="elkhltdsvq9n" class="cls-2" d="M237.92,274.17a2.1,2.1,0,0,1,2.1,2.08v0a2,2,0,0,1-.22,1,1,1,0,0,1-.54.45h-.12a.39.39,0,0,1-.35-.16.5.5,0,0,1-.09-.29V277a1,1,0,0,1-.78.36,1.13,1.13,0,0,1,0-2.25,1.11,1.11,0,0,1,1.07,1.12v1h0a.29.29,0,0,0,0,.13.11.11,0,0,0,.11,0h0a.59.59,0,0,0,.35-.31,1.77,1.77,0,0,0,.2-.82,1.81,1.81,0,1,0-1.81,1.81h0a1.73,1.73,0,0,0,.45-.05c.08,0,.17,0,.17.1a.16.16,0,0,1-.09.18h0a2.24,2.24,0,0,1-.52.06,2.1,2.1,0,0,1,0-4.2Zm0,2.92a.8.8,0,0,0,.77-.82.77.77,0,0,0-1.53-.18.54.54,0,0,0,0,.18.79.79,0,0,0,.76.82Z" transform="translate(-46.98 -61.92)"/><path id="elzxc5bk9u77b" class="cls-2" d="M246.14,276.63a.91.91,0,0,0-1.81-.19.61.61,0,0,0,0,.19v1.62h0a.12.12,0,0,1-.07.07h-.12V276.7a.91.91,0,0,0-1.81-.19.61.61,0,0,0,0,.19v1.6a.14.14,0,0,1-.06.12h-.06a.14.14,0,0,1-.12-.11v-2.68a.14.14,0,0,1,.14-.14h0a.14.14,0,0,1,.14.14h0v.28a1.19,1.19,0,0,1,.91-.42,1.2,1.2,0,0,0,1.63.47,1.18,1.18,0,0,0,.47-.47,1.19,1.19,0,0,1,1.19,1.19h0v1.6a.13.13,0,0,1-.12.14h0a.14.14,0,0,1-.14-.14h0Z" transform="translate(-46.98 -61.92)"/><path id="elrjjlaxeu16" class="cls-2" d="M250.11,275.58v2.65a.14.14,0,0,1-.14.14h0a.15.15,0,0,1-.15-.14v-.44a1.34,1.34,0,0,1-1.1.58,1.47,1.47,0,1,1,0-2.94,1.34,1.34,0,0,1,1.1.58v-.43a.15.15,0,0,1,.15-.15A.15.15,0,0,1,250.11,275.58Zm-.29,1.32a1.1,1.1,0,1,0-1.1,1.18A1.15,1.15,0,0,0,249.82,276.9Z" transform="translate(-46.98 -61.92)"/><path id="el4fl4ppbk7dz" class="cls-2" d="M251.37,274.62a.15.15,0,0,1,.14-.15.15.15,0,0,1,.15.15v.14a.15.15,0,0,1-.15.15.15.15,0,0,1-.14-.15Zm0,1a.14.14,0,0,1,.13-.15h0a.15.15,0,0,1,.15.15v2.65a.15.15,0,0,1-.15.14.14.14,0,0,1-.14-.14h0Z" transform="translate(-46.98 -61.92)"/><path id="elb20drsxp6s9" class="cls-2" d="M253,274.32a.15.15,0,0,1,.14-.15.15.15,0,0,1,.15.15v3.91a.14.14,0,0,1-.14.14h0a.14.14,0,0,1-.14-.14h0Z" transform="translate(-46.98 -61.92)"/><path id="el7cxvr1iozs" class="cls-2" d="M254.65,277.77a.3.3,0,1,1-.3.3.29.29,0,0,1,.3-.3Z" transform="translate(-46.98 -61.92)"/><path id="elkd9feurmuc" class="cls-2" d="M255.46,276.9a1.52,1.52,0,0,1,1.55-1.47,1.55,1.55,0,0,1,.9.33.13.13,0,0,1,0,.2h0a.15.15,0,0,1-.2,0,1.2,1.2,0,0,0-1.59,1.8,1.21,1.21,0,0,0,.83.3,1.24,1.24,0,0,0,.76-.25.15.15,0,0,1,.2,0,.14.14,0,0,1,0,.21,1.55,1.55,0,0,1-.93.31A1.49,1.49,0,0,1,255.46,276.9Z" transform="translate(-46.98 -61.92)"/><path id="elgo1o9oqqqgj" class="cls-2" d="M260.26,275.43a1.47,1.47,0,1,1-1.39,1.55v-.08A1.44,1.44,0,0,1,260.26,275.43Zm0,2.65a1.15,1.15,0,0,0,1.11-1.18,1.11,1.11,0,1,0-2.21-.21.74.74,0,0,0,0,.21,1.14,1.14,0,0,0,1.1,1.18Z" transform="translate(-46.98 -61.92)"/><path id="el5lmrvss8i8l" class="cls-2" d="M267,276.63a.93.93,0,0,0-.91-.91.9.9,0,0,0-.9.9h0v1.62h0a.12.12,0,0,1-.07.07H265V276.7a.91.91,0,1,0-1.81-.19.61.61,0,0,0,0,.19v1.6a.14.14,0,0,1-.07.12h-.06a.14.14,0,0,1-.12-.11v-2.68a.14.14,0,0,1,.14-.14h0a.14.14,0,0,1,.14.14h0v.28a1.19,1.19,0,0,1,.91-.42,1.2,1.2,0,0,0,1.63.47,1.18,1.18,0,0,0,.47-.47,1.19,1.19,0,0,1,1.19,1.19h0v1.6a.14.14,0,1,1-.28,0Z" transform="translate(-46.98 -61.92)"/><polygon id="elsc0iwihqxlq" class="cls-6" points="147.64 219.82 161.48 219.64 175.33 219.53 203.02 219.45 230.71 219.53 244.56 219.64 258.4 219.82 244.56 220.01 230.71 220.11 203.02 220.2 175.33 220.11 161.48 220 147.64 219.82"/><path id="elkuomsj37hfo" class="cls-4" d="M196.65,297.69h-.74V299a.34.34,0,0,1-.39.28.35.35,0,0,1-.28-.28v-3.54a.33.33,0,0,1,.33-.33h1.08a1.28,1.28,0,0,1,0,2.56Zm-.74-.66h.74a.62.62,0,0,0,.62-.62.62.62,0,0,0-.62-.62h-.74Z" transform="translate(-46.98 -61.92)"/><path id="elvirngxr6i0o" class="cls-4" d="M200.46,298.33H199l-.29.78a.33.33,0,0,1-.31.21h-.12a.34.34,0,0,1-.19-.43l1.32-3.54a.35.35,0,0,1,.64,0l1.32,3.54a.35.35,0,0,1-.2.43h-.11a.33.33,0,0,1-.31-.21Zm-.25-.65-.48-1.29-.49,1.29Z" transform="translate(-46.98 -61.92)"/><path id="ela7awjluetvp" class="cls-4" d="M202,298.28a.31.31,0,0,1,.44,0,1.86,1.86,0,0,0,1.14.46,1.32,1.32,0,0,0,.75-.22.54.54,0,0,0,.26-.43.41.41,0,0,0-.05-.19.52.52,0,0,0-.18-.18,2.36,2.36,0,0,0-.82-.29h0a3,3,0,0,1-.78-.23,1.28,1.28,0,0,1-.56-.47,1,1,0,0,1-.13-.49,1.11,1.11,0,0,1,.48-.88,1.77,1.77,0,0,1,1-.31,2.31,2.31,0,0,1,1.31.48.28.28,0,0,1,.09.4v0a.29.29,0,0,1-.4.11l0,0a1.77,1.77,0,0,0-1-.38,1.08,1.08,0,0,0-.67.2.48.48,0,0,0-.23.38.34.34,0,0,0,0,.17.57.57,0,0,0,.16.15,2,2,0,0,0,.75.27h0a4,4,0,0,1,.83.25,1.46,1.46,0,0,1,.6.5,1,1,0,0,1,.14.51,1.19,1.19,0,0,1-.52.93,1.84,1.84,0,0,1-1.11.34,2.6,2.6,0,0,1-1.53-.6.33.33,0,0,1,0-.47Z" transform="translate(-46.98 -61.92)"/><path id="elq65kzmbjp8d" class="cls-4" d="M205.9,298.28a.31.31,0,0,1,.44,0,1.89,1.89,0,0,0,1.15.46,1.32,1.32,0,0,0,.75-.22.5.5,0,0,0,.25-.43.26.26,0,0,0-.05-.19.52.52,0,0,0-.18-.18,2.18,2.18,0,0,0-.82-.29h0a3,3,0,0,1-.78-.23,1.39,1.39,0,0,1-.55-.47,1,1,0,0,1-.14-.49,1.11,1.11,0,0,1,.48-.88,1.79,1.79,0,0,1,1-.31,2.28,2.28,0,0,1,1.3.48.31.31,0,0,1,.09.42.3.3,0,0,1-.41.1h0a1.77,1.77,0,0,0-1-.38,1.26,1.26,0,0,0-.68.2.47.47,0,0,0-.22.38.25.25,0,0,0,0,.17.57.57,0,0,0,.16.15,2,2,0,0,0,.75.27h0a3.45,3.45,0,0,1,.83.25,1.46,1.46,0,0,1,.6.5,1,1,0,0,1,.14.51,1.17,1.17,0,0,1-.51.93,2,2,0,0,1-1.11.34,2.63,2.63,0,0,1-1.54-.6.33.33,0,0,1,0-.46Z" transform="translate(-46.98 -61.92)"/><path id="elyfui4i511m" class="cls-4" d="M215.42,295.62l-1.47,3.5v.05h-.42v-.05l-.78-1.86-.79,1.86v.05h-.36v-.05l-1.47-3.5a.32.32,0,0,1,.17-.42h0a.33.33,0,0,1,.43.17l1.17,2.78.77-1.84a.35.35,0,0,1,.32-.21.38.38,0,0,1,.31.21l.77,1.84,1.17-2.78a.34.34,0,0,1,.44-.17.32.32,0,0,1-.2.41Z" transform="translate(-46.98 -61.92)"/><path id="elt4ro46pxupg" class="cls-4" d="M219.6,295.65a2.19,2.19,0,0,1,0,3,2,2,0,0,1-2.9,0,2.22,2.22,0,0,1,0-3,2,2,0,0,1,1.47-.64A1.9,1.9,0,0,1,219.6,295.65Zm-.08,1.52a1.53,1.53,0,0,0-.41-1.05,1.26,1.26,0,0,0-.94-.43,1.3,1.3,0,0,0-1,.43,1.53,1.53,0,0,0,0,2.09,1.3,1.3,0,0,0,1,.43,1.26,1.26,0,0,0,.94-.43,1.53,1.53,0,0,0,.41-1Z" transform="translate(-46.98 -61.92)"/><path id="el8pynxl6ns54" class="cls-4" d="M224.17,298.83a.34.34,0,0,1-.21.42h-.14a.5.5,0,0,1-.24-.06.76.76,0,0,1-.19-.21,1.76,1.76,0,0,1-.12-.72.5.5,0,0,0-.08-.26.42.42,0,0,0-.18-.17,1,1,0,0,0-.33-.15H222V299a.33.33,0,0,1-.34.32h0a.32.32,0,0,1-.32-.32h0v-3.54a.32.32,0,0,1,.31-.33h1.09a1.28,1.28,0,0,1,.81,2.27,1.1,1.1,0,0,1,.21.22,1.16,1.16,0,0,1,.2.65,1,1,0,0,0,0,.35A.32.32,0,0,1,224.17,298.83Zm-.84-2.41a.64.64,0,0,0-.62-.63H222V297h.74a.61.61,0,0,0,.59-.58Z" transform="translate(-46.98 -61.92)"/><path id="elbmd62c5iaah" class="cls-4" d="M225.14,299v-3.54a.32.32,0,0,1,.31-.33h.73a2.1,2.1,0,0,1,0,4.19h-.71a.32.32,0,0,1-.33-.31Zm.66-.34h.38a1.44,1.44,0,0,0,0-2.87h-.38Z" transform="translate(-46.98 -61.92)"/><path id="eli1u4vc4o36" class="cls-2" d="M195.84,308.93l-.55.37h-.1a.12.12,0,0,1,0-.24l.62-.3-.62-.29s-.09-.06-.09-.12a.13.13,0,0,1,.12-.12h.1l.55.38-.05-.66a.12.12,0,0,1,.11-.13h0a.12.12,0,0,1,.12.12h0l-.05.66.54-.38h.1a.12.12,0,0,1,.12.12.13.13,0,0,1-.08.12l-.62.29.62.3a.1.1,0,0,1,.08.11.12.12,0,0,1-.11.13h-.11l-.54-.37.05.65a.12.12,0,0,1-.11.13h0a.12.12,0,0,1-.12-.12h0Z" transform="translate(-46.98 -61.92)"/><path id="el9n09cispyb6" class="cls-2" d="M198.42,308.93l-.55.37h-.1a.12.12,0,0,1,0-.24l.62-.3-.62-.29c-.05,0-.09-.06-.09-.12a.13.13,0,0,1,.12-.12h.1l.55.38V308a.12.12,0,0,1,.11-.13h0a.12.12,0,0,1,.12.12h0l-.05.66.54-.38h.1a.12.12,0,0,1,.12.12.13.13,0,0,1-.08.12l-.62.29.62.3a.1.1,0,0,1,.08.11.12.12,0,0,1-.11.13h-.11l-.54-.37.05.65a.12.12,0,0,1-.11.13h0a.12.12,0,0,1-.12-.12h0Z" transform="translate(-46.98 -61.92)"/><path id="elpqgx4yvnrd" class="cls-2" d="M201,308.93l-.55.37h-.1a.12.12,0,1,1,0-.24l.62-.3-.62-.29s-.09-.06-.09-.12a.13.13,0,0,1,.12-.12h.1l.55.38,0-.61a.12.12,0,0,1,.11-.13h0a.12.12,0,0,1,.12.12h0l-.05.66.55-.38h.09a.12.12,0,0,1,.12.12.13.13,0,0,1-.08.12l-.62.29.62.3a.1.1,0,0,1,.08.11.12.12,0,0,1-.11.13h-.1l-.55-.37.05.65a.12.12,0,0,1-.11.13h0a.12.12,0,0,1-.12-.12h0Z" transform="translate(-46.98 -61.92)"/><path id="ell090wvxi5cq" class="cls-2" d="M203.58,308.93l-.55.37h-.1a.12.12,0,0,1,0-.24l.62-.3-.62-.29c-.05,0-.09-.06-.09-.12a.13.13,0,0,1,.12-.12h.1l.55.38-.05-.66a.12.12,0,0,1,.11-.13h0a.12.12,0,0,1,.12.12h0l-.05.66.54-.38h.1a.12.12,0,0,1,.12.12.13.13,0,0,1-.08.12l-.62.29.62.3a.1.1,0,0,1,.08.11.12.12,0,0,1-.11.13h-.11l-.54-.37.05.65a.12.12,0,0,1-.11.13h0a.12.12,0,0,1-.12-.12h0Z" transform="translate(-46.98 -61.92)"/><path id="el1umg80hgdw4" class="cls-2" d="M206.16,308.93l-.55.37h-.1a.12.12,0,0,1,0-.24l.62-.3-.62-.29s-.09-.06-.09-.12a.13.13,0,0,1,.12-.12h.1l.55.38V308a.12.12,0,0,1,.11-.13h0a.12.12,0,0,1,.12.12h0v.66l.54-.38h.1a.12.12,0,0,1,.12.12.13.13,0,0,1-.08.12l-.62.29.62.3a.1.1,0,0,1,.08.11.12.12,0,0,1-.11.13H207l-.54-.37v.65a.12.12,0,0,1-.11.13h0a.12.12,0,0,1-.12-.12h0Z" transform="translate(-46.98 -61.92)"/><path id="elyh3e10d4ms" class="cls-2" d="M208.74,308.93l-.55.37h-.1a.12.12,0,1,1,0-.24l.62-.3-.62-.29c-.05,0-.09-.06-.09-.12a.13.13,0,0,1,.12-.12h.1l.55.38-.05-.66a.12.12,0,0,1,.11-.13h0a.12.12,0,0,1,.12.12h0l-.05.66.54-.38h.1a.12.12,0,0,1,.12.12.13.13,0,0,1-.08.12l-.62.29.62.3a.1.1,0,0,1,.08.11.12.12,0,0,1-.11.13h-.11l-.54-.37.05.65a.12.12,0,0,1-.11.13h0a.12.12,0,0,1-.12-.12h0Z" transform="translate(-46.98 -61.92)"/><path id="elibx6x7b58a" class="cls-2" d="M211.31,308.93l-.54.37h-.1a.12.12,0,1,1,0-.24l.61-.3-.61-.29s-.09-.06-.09-.12a.13.13,0,0,1,.12-.12h.1l.54.38V308a.11.11,0,0,1,.09-.13h0a.12.12,0,0,1,.12.12h0v.66l.54-.38h.1a.12.12,0,0,1,.12.12.13.13,0,0,1-.08.12l-.62.29.62.3a.1.1,0,0,1,.08.11.12.12,0,0,1-.11.13h-.11l-.54-.37v.65a.12.12,0,0,1-.11.13h0a.11.11,0,0,1-.12-.1v0Z" transform="translate(-46.98 -61.92)"/><path id="elce0nztgxnge" class="cls-2" d="M213.9,308.93l-.55.37h-.1a.12.12,0,0,1,0-.24l.62-.3-.62-.29c-.05,0-.09-.06-.09-.12a.13.13,0,0,1,.12-.12h.1l.55.38-.05-.66a.12.12,0,0,1,.11-.13h0a.12.12,0,0,1,.12.12h0l-.05.66.54-.38h.1a.12.12,0,0,1,.12.12.13.13,0,0,1-.08.12l-.62.29.62.3a.1.1,0,0,1,.08.11.12.12,0,0,1-.11.13h-.11l-.54-.37.05.65a.12.12,0,0,1-.11.13h0a.12.12,0,0,1-.12-.12h0Z" transform="translate(-46.98 -61.92)"/><path id="els0c0bzcltp" class="cls-2" d="M216.48,308.93l-.55.37h-.1a.12.12,0,1,1,0-.24l.61-.3-.61-.29c-.05,0-.09-.06-.09-.12a.13.13,0,0,1,.12-.12h.1l.55.38V308a.12.12,0,0,1,.11-.13h0a.12.12,0,0,1,.12.12h0v.66l.54-.38h.1a.12.12,0,0,1,.12.12.13.13,0,0,1-.08.12l-.62.29.62.3a.1.1,0,0,1,.08.11.12.12,0,0,1-.11.13h-.11l-.54-.37v.65a.12.12,0,0,1-.11.13h0a.12.12,0,0,1-.12-.12h0Z" transform="translate(-46.98 -61.92)"/><path id="ell4i9280i8k" class="cls-2" d="M219.06,308.93l-.55.37h-.1a.12.12,0,0,1,0-.24l.62-.3-.62-.29s-.09-.06-.09-.12a.13.13,0,0,1,.12-.12h.1l.55.38L219,308a.12.12,0,0,1,.11-.13h0a.12.12,0,0,1,.12.12h0l-.05.66.54-.38h.1a.12.12,0,0,1,.12.12.13.13,0,0,1-.08.12l-.62.29.62.3a.1.1,0,0,1,.08.11.12.12,0,0,1-.11.13h-.11l-.54-.37.05.65a.12.12,0,0,1-.11.13h0a.12.12,0,0,1-.12-.12h0Z" transform="translate(-46.98 -61.92)"/><path id="el4zu5ka02sq7" class="cls-2" d="M221.64,308.93l-.55.37H221a.12.12,0,0,1,0-.24l.62-.3-.62-.29c-.05,0-.09-.06-.09-.12a.13.13,0,0,1,.12-.12h.1l.55.38V308a.12.12,0,0,1,.11-.13h0a.12.12,0,0,1,.12.12h0l0,.66.55-.38h.09a.12.12,0,0,1,.12.12.13.13,0,0,1-.08.12l-.62.29.62.3a.1.1,0,0,1,.08.11.12.12,0,0,1-.11.13h-.1l-.55-.37,0,.65a.12.12,0,0,1-.11.13h0a.12.12,0,0,1-.12-.12h0Z" transform="translate(-46.98 -61.92)"/><polygon id="elclgotpdha25" class="cls-6" points="147.64 253.58 161.48 253.39 175.33 253.29 203.02 253.2 230.71 253.29 244.56 253.39 258.4 253.58 244.56 253.76 230.71 253.86 203.02 253.95 175.33 253.86 161.48 253.76 147.64 253.58"/><rect id="elozm85leq7g" class="cls-2" x="176.18" y="242.6" width="0.5" height="8.98"/><rect id="elouxnmd2tyni" class="cls-4" x="162.29" y="278.95" width="81.46" height="25.61"/><path id="elsyhylyq5k5" class="cls-5" d="M236.25,357v-5.31a.5.5,0,0,1,1,0v4.81h2.44a.5.5,0,1,1,0,1h-2.94A.5.5,0,0,1,236.25,357Z" transform="translate(-46.98 -61.92)"/><path id="eln9jimm3xw7s" class="cls-5" d="M245.93,352a3.3,3.3,0,0,1,0,4.55,2.94,2.94,0,0,1-2.15,1,3,3,0,0,1-2.21-1,3.35,3.35,0,0,1,0-4.55,3,3,0,0,1,2.21-1A2.9,2.9,0,0,1,245.93,352Zm-.12,2.28a2.37,2.37,0,0,0-.61-1.58,1.94,1.94,0,0,0-2.88,0,2.26,2.26,0,0,0-.61,1.58,2.21,2.21,0,0,0,.61,1.56,2,2,0,0,0,1.46.65,1.94,1.94,0,0,0,1.42-.65A2.25,2.25,0,0,0,245.81,354.28Z" transform="translate(-46.98 -61.92)"/><path id="eldy46kebx2ku" class="cls-5" d="M248.33,354.29a3.28,3.28,0,0,1,3.31-3.25h0a3.33,3.33,0,0,1,2.06.7.5.5,0,0,1,.1.71v0a.52.52,0,0,1-.72.08,2.31,2.31,0,0,0-1.43-.49,2.23,2.23,0,0,0-1.62.66,2.17,2.17,0,0,0-.67,1.57,2.14,2.14,0,0,0,.67,1.54,2.23,2.23,0,0,0,1.62.66,2.46,2.46,0,0,0,1.24-.34v-1.23H251.6a.53.53,0,0,1-.51-.52.5.5,0,0,1,.5-.5h1.8a.51.51,0,0,1,.52.5h0v2.16h0a.46.46,0,0,1-.17.22,3.37,3.37,0,0,1-2,.7,3.27,3.27,0,0,1-3.41-3.13Z" transform="translate(-46.98 -61.92)"/><path id="elv3jnhrl6e1" class="cls-5" d="M256,351.71a.47.47,0,0,1,.47-.49h0a.5.5,0,0,1,.51.49h0V357a.51.51,0,0,1-.51.5A.49.49,0,0,1,256,357h0Z" transform="translate(-46.98 -61.92)"/><path id="elaoen3914uol" class="cls-5" d="M259.67,357a.5.5,0,0,1-1,0v-5.23h0a.47.47,0,0,1,.2-.41.48.48,0,0,1,.68.11l2.91,4v-3.71a.5.5,0,0,1,1,0V357a.51.51,0,0,1-.49.5.49.49,0,0,1-.37-.18l-.05-.06-2.88-4Z" transform="translate(-46.98 -61.92)"/><path id="ell0cnzf1n9h8" class="cls-2" d="M224.14,375.91a.14.14,0,0,1,.14-.14h2.17a.14.14,0,0,1,.14.14h0a.15.15,0,0,1-.14.15h-2v1.66h1.76a.15.15,0,0,1,0,.3h-1.76v1.8a.15.15,0,0,1-.15.15.15.15,0,0,1-.14-.15Z" transform="translate(-46.98 -61.92)"/><path id="el2zck9ve0bin" class="cls-2" d="M228.52,377a1.47,1.47,0,1,1-1.39,1.55v-.08A1.44,1.44,0,0,1,228.52,377Zm0,2.65a1.19,1.19,0,1,0-1.11-1.27v.09a1.15,1.15,0,0,0,1.09,1.21h0Z" transform="translate(-46.98 -61.92)"/><path id="eli8h0dwd53y" class="cls-2" d="M230.89,377.18A.15.15,0,0,1,231,377a.14.14,0,0,1,.14.14h0v.57a1.48,1.48,0,0,1,1.18-.72.14.14,0,0,1,.14.14h0a.14.14,0,0,1-.14.14h0a1.06,1.06,0,0,0-.85.48,3,3,0,0,0-.36.68h0v1.29a.14.14,0,0,1-.13.15h0a.15.15,0,0,1-.15-.15Z" transform="translate(-46.98 -61.92)"/><path id="el4uxuuvln2t" class="cls-2" d="M236.09,379.73a1.38,1.38,0,0,1-1.38,1.38h0a1.43,1.43,0,0,1-.61-.14.15.15,0,0,1-.06-.19.13.13,0,0,1,.16-.08h0a1,1,0,0,0,.48.11,1.09,1.09,0,0,0,1.1-1.08h0v-.36a1.34,1.34,0,0,1-1.1.58,1.46,1.46,0,0,1,0-2.92,1.33,1.33,0,0,1,1.1.57v-.43a.16.16,0,0,1,.09-.18.17.17,0,0,1,.1,0,.13.13,0,0,1,.13.13h0Zm-.28-1.25a1.1,1.1,0,0,0-2.19-.21.74.74,0,0,0,0,.21,1.1,1.1,0,0,0,2.19.21A.74.74,0,0,0,235.81,378.48Z" transform="translate(-46.98 -61.92)"/><path id="elg61850zuqh" class="cls-2" d="M238.74,377a1.47,1.47,0,1,1-1.39,1.55v-.08A1.44,1.44,0,0,1,238.74,377Zm0,2.65a1.19,1.19,0,1,0-1.1-1.28v.1a1.15,1.15,0,0,0,1.09,1.21h0Z" transform="translate(-46.98 -61.92)"/><path id="el4bj078pjuol" class="cls-2" d="M242.15,377.17a.15.15,0,0,1-.15.15h-.37v2.14a.23.23,0,0,0,.21.21.15.15,0,0,1,0,.3.5.5,0,0,1-.51-.49v-2.16H241c-.14,0-.14-.08-.14-.15s0-.14.14-.14h.37v-1.09a.15.15,0,0,1,.14-.15.17.17,0,0,1,.16.15V377H242a.15.15,0,0,1,.15.15Z" transform="translate(-46.98 -61.92)"/><path id="elrd7sge74vdq" class="cls-2" d="M245.32,378.54v-1.37a.15.15,0,0,1,.3,0h0v.43a1.36,1.36,0,0,1,1.11-.57,1.43,1.43,0,0,1,1.42,1.44h0a1.45,1.45,0,0,1-1.42,1.47,1.36,1.36,0,0,1-1.11-.58v1.68a.15.15,0,0,1-.3,0Zm.3-.06a1.12,1.12,0,1,0,1.12-1.12,1.12,1.12,0,0,0-1.12,1.12Z" transform="translate(-46.98 -61.92)"/><path id="elcfb2cfmml7" class="cls-2" d="M251.75,377.17v2.65a.15.15,0,0,1-.11.18.14.14,0,0,1-.18-.1.11.11,0,0,1,0-.08v-.44a1.38,1.38,0,0,1-1.1.59,1.47,1.47,0,0,1,0-2.94,1.33,1.33,0,0,1,1.1.57v-.43a.14.14,0,0,1,.14-.14h0A.15.15,0,0,1,251.75,377.17Zm-.29,1.33a1.11,1.11,0,1,0-1.1,1.18A1.15,1.15,0,0,0,251.46,378.5Z" transform="translate(-46.98 -61.92)"/><path id="el2cpkj4zi2rg" class="cls-2" d="M252.79,379.35a.14.14,0,0,1,.2,0h0a1.5,1.5,0,0,0,.9.34.85.85,0,0,0,.55-.18.45.45,0,0,0,.23-.36.47.47,0,0,0-.21-.36,1.44,1.44,0,0,0-.63-.22h0a1.73,1.73,0,0,1-.66-.23.6.6,0,0,1-.32-.53.75.75,0,0,1,.32-.58,1.26,1.26,0,0,1,.71-.19,1.57,1.57,0,0,1,.88.31.17.17,0,0,1,0,.21.13.13,0,0,1-.2,0h0a1.27,1.27,0,0,0-.72-.29.89.89,0,0,0-.55.16.46.46,0,0,0-.19.34.34.34,0,0,0,.17.29,1.44,1.44,0,0,0,.6.21h0a1.81,1.81,0,0,1,.71.24.7.7,0,0,1,.33.6.74.74,0,0,1-.33.59,1.21,1.21,0,0,1-.73.24,1.82,1.82,0,0,1-1.09-.42A.15.15,0,0,1,252.79,379.35Z" transform="translate(-46.98 -61.92)"/><path id="elwykrkvp6x2" class="cls-2" d="M255.69,379.35a.13.13,0,0,1,.18,0l0,0a1.63,1.63,0,0,0,.9.34.87.87,0,0,0,.56-.18.41.41,0,0,0,.16-.56.35.35,0,0,0-.16-.16,1.44,1.44,0,0,0-.63-.22h0a1.73,1.73,0,0,1-.66-.23.6.6,0,0,1-.32-.53.75.75,0,0,1,.32-.58,1.32,1.32,0,0,1,.72-.19,1.61,1.61,0,0,1,.87.31.15.15,0,0,1,0,.21.13.13,0,0,1-.18,0h0a1.3,1.3,0,0,0-.72-.29.92.92,0,0,0-.56.16.46.46,0,0,0-.19.34.37.37,0,0,0,.17.29,1.44,1.44,0,0,0,.6.21h0a1.86,1.86,0,0,1,.72.24.73.73,0,0,1,.33.6.75.75,0,0,1-.34.59,1.21,1.21,0,0,1-.73.24,1.82,1.82,0,0,1-1.09-.42A.14.14,0,0,1,255.69,379.35Z" transform="translate(-46.98 -61.92)"/><path id="el7xh21cbh74h" class="cls-2" d="M259.73,379.94l-.06-.06-1.1-2.63a.16.16,0,0,1,.07-.19.15.15,0,0,1,.19.08l1,2.32.67-1.62a.17.17,0,0,1,.21-.08.2.2,0,0,1,.08.08l.67,1.62,1-2.32a.14.14,0,0,1,.18-.08.15.15,0,0,1,.08.19l-1.1,2.61a.22.22,0,0,1-.05.08h-.07a.16.16,0,0,1-.12-.09h0l-.69-1.63-.68,1.62h0a.14.14,0,0,1-.13.09h-.15Z" transform="translate(-46.98 -61.92)"/><path id="elrxmjyvs67h" class="cls-2" d="M265,377a1.47,1.47,0,1,1-1.39,1.55v-.08A1.44,1.44,0,0,1,265,377Zm0,2.65a1.19,1.19,0,1,0-1.1-1.28v.1a1.15,1.15,0,0,0,1.09,1.21h0Z" transform="translate(-46.98 -61.92)"/><path id="el8uocd9802dh" class="cls-2" d="M267.4,377.18a.14.14,0,0,1,.13-.15h0a.14.14,0,0,1,.13.15h0v.65l.05-.08a1.42,1.42,0,0,1,1.17-.72.15.15,0,0,1,.15.15.15.15,0,0,1-.15.14,1.06,1.06,0,0,0-.85.48,2.58,2.58,0,0,0-.35.68h0v1.29a.14.14,0,0,1-.13.15h0a.14.14,0,0,1-.15-.13v0Z" transform="translate(-46.98 -61.92)"/><path id="elbv5kbgrz6hj" class="cls-2" d="M272.23,379.4a1.4,1.4,0,0,1-1.13.57,1.47,1.47,0,0,1,0-2.94,1.39,1.39,0,0,1,1.13.57v-1.69a.15.15,0,1,1,.3,0v3.91a.15.15,0,0,1-.3,0Zm0-.85v-.1a1.17,1.17,0,1,0,0,.1Z" transform="translate(-46.98 -61.92)"/><path id="el00u5b2hbiyba" class="cls-2" d="M274.52,378.24h0a.14.14,0,0,1,.14-.14h0a1,1,0,1,0-.87-1.49.17.17,0,0,1-.2.05.13.13,0,0,1,0-.18h0a1.27,1.27,0,0,1,1.11-.65,1.29,1.29,0,0,1,.15,2.58v.6a.15.15,0,0,1-.15.14.14.14,0,0,1-.14-.14h0Zm0,1.46a.15.15,0,0,1,.11-.18.14.14,0,0,1,.18.1.11.11,0,0,1,0,.08v.13a.15.15,0,0,1-.15.14.14.14,0,0,1-.14-.14h0Z" transform="translate(-46.98 -61.92)"/><path id="elt0odjyqlwuo" class="cls-5" d="M259.55,77.08H240.44a1.18,1.18,0,0,1-1.18-1.18h0a1.18,1.18,0,0,1,1.18-1.18h19.11a1.18,1.18,0,0,1,1.18,1.18h0A1.18,1.18,0,0,1,259.55,77.08Z" transform="translate(-46.98 -61.92)"/></g><g id="freepik--Character--inject-2"><path id="el13lrg5ck2i8b" class="cls-2" d="M340.31,129.43l-.4.1a.24.24,0,0,1,.07-.12h0Z" transform="translate(-46.98 -61.92)"/><path id="el8pywqcg2wd" class="cls-7" d="M371.34,178h0" transform="translate(-46.98 -61.92)"/><rect id="eljsntnqlso9" class="cls-8" x="304.65" y="98.91" width="0.01" height="7.04"/><path id="elarrxf6dlm06" class="cls-8" d="M351.64,160.83v0Z" transform="translate(-46.98 -61.92)"/><path id="el2ncwyb7ilp4" class="cls-7" d="M371.34,178h0" transform="translate(-46.98 -61.92)"/><path id="elbmqfhhjupd" class="cls-8" d="M351.82,418.33h-.18v-.13Z" transform="translate(-46.98 -61.92)"/><path id="ellj46s27cujj" class="cls-8" d="M393.12,426.86c-2.2-1-50.6-44.76-51.39-47.6-.31-1.07,5.66-8.49,13.13-17.26,1.61-1.89,20.43-32,20.43-32l33.91,26.89-23.06,33.29s11,25.06,11.56,28.27S395.32,427.83,393.12,426.86Z" transform="translate(-46.98 -61.92)"/><path id="eldfxyic9nwy" class="cls-2" d="M393.74,407.9a93.87,93.87,0,0,1,4,10.51c.52,3.21-2.38,9.42-4.58,8.45s-50.61-44.76-51.39-47.59c-.25-.88,3.62-5.93,9.09-12.48,9.78,11.36,40.62,46.72,42.88,43.43A4.25,4.25,0,0,0,393.74,407.9Z" transform="translate(-46.98 -61.92)"/><path id="elemmfx038m59" class="cls-3" d="M358.09,356.35l34.3,28.3s47.71-66.43,49.08-90.71c1-18.67-26.66-53.46-45.48-83.24-1.82-2.89-.71-13.85-.64-15.68l-37.29.07c-.45,4.2-3.37,25.33,2.91,35.62,12.92,21.16,33.78,51.87,34.58,58.52S358.09,356.35,358.09,356.35Z" transform="translate(-46.98 -61.92)"/><path id="el7613dhfp3mx" class="cls-2" d="M394.6,374.25c-5.48-4.64-3.84-3.38-9.37-8C382.52,364,369,352.71,366.08,351c-.07,0-.14.06-.09.11,2.22,2.47,16,13.48,18.78,15.68,5.61,4.48,4.05,3.13,9.71,7.55a.09.09,0,0,0,.12.07.09.09,0,0,0,.07-.12A.08.08,0,0,0,394.6,374.25Z" transform="translate(-46.98 -61.92)"/><path id="elqbg2ooy7qel" class="cls-2" d="M398.85,283c-1.25-2.44-2.59-4.84-4-7.21-2.8-4.79-5.85-9.42-8.85-14.09q-4.69-7.32-9.4-14.62c-2.82-4.38-5.68-8.75-8.13-13.35a52.14,52.14,0,0,1-5.41-14.39c-1.1-5.54-.87-11.24-.39-16.84.12-1.4.25-2.79.38-4.19,0-.24-.39-.29-.42-.05a89.8,89.8,0,0,0-.79,16.55,44.3,44.3,0,0,0,3.82,14.69A101.81,101.81,0,0,0,373,242.8q4.5,7.09,9,14.13c3,4.7,6.13,9.51,9.12,14.31,1.46,2.33,2.89,4.68,4.25,7.07a72.39,72.39,0,0,1,3.8,7.25,11.69,11.69,0,0,1,1.05,3.93,9.59,9.59,0,0,1-.76,4.1c-1,2.57-2.34,5-3.56,7.5-2.44,4.93-4.92,9.84-7.48,14.71-5.14,9.77-19,32.77-19.73,33.95-.05.09.08.16.14.08,5.89-9.41,13.05-20.37,18.35-30.13q4-7.31,7.73-14.74c1.25-2.47,2.48-4.95,3.68-7.46,1.1-2.28,2.37-4.63,2.44-7.22S400,285.27,398.85,283Z" transform="translate(-46.98 -61.92)"/><path id="el4xo1u3bra7e" class="cls-2" d="M394.05,195c-2.4,12.32-9.34,47.76-13.14,67.36-6.52-10.42-14.06-22-19.94-31.67-6.28-10.29-3.36-31.42-2.91-35.62Z" transform="translate(-46.98 -61.92)"/><path id="elwv3juvgmsol" class="cls-8" d="M401.31,451.53c-2.29.73-67.56-.19-70-1.8-.94-.61-1.36-10.12-1.54-21.63,0-2.48.55-40.37.55-40.37l43.66.49-2.13,40.35s24.84,11.53,27.35,13.59S403.6,450.8,401.31,451.53Z" transform="translate(-46.98 -61.92)"/><path id="elizkqnvo3rvf" class="cls-2" d="M389.25,436.88a95.12,95.12,0,0,1,9.92,5.28c2.51,2.06,4.43,8.64,2.14,9.36s-67.56-.18-70-1.79c-.77-.49-1.19-6.84-1.41-15.37,14.84,2.07,61.35,8.25,60.87,4.29C390.71,438.28,390.14,437.65,389.25,436.88Z" transform="translate(-46.98 -61.92)"/><path id="el7682vhqksa7" class="cls-3" d="M395.35,195.09s-7.39,36-7.78,37.15a94.92,94.92,0,0,0-10.5,5.21l-2.64,183-47.08.31s5.84-97,5.67-103.24c-.26-10,4.07-77.64,3.47-79.34-6.15-17.36,3.5-43,3.5-43Z" transform="translate(-46.98 -61.92)"/><path id="elt8wpo187mwc" class="cls-2" d="M372.66,411.72c-13.28-.57-39-.33-42.25.23-.07,0-.07.14,0,.15,3.29.53,34.5.59,42.25-.17a.11.11,0,0,0,.07-.14A.12.12,0,0,0,372.66,411.72Z" transform="translate(-46.98 -61.92)"/><path id="ela80a9nyioh" class="cls-2" d="M338,365.14c.75-13.76,1.56-27.52,2.35-41.28s1.57-27.53,2.36-41.29c.39-6.88.76-13.76,1.18-20.64l.63-10.32a89.49,89.49,0,0,0,.44-10.22c-.19-3.72-1.82-7-2.75-10.55A41.34,41.34,0,0,1,341,220.51c0-7.18,1.45-14.28,2.82-21.29.08-.39.68-.22.6.17A103.14,103.14,0,0,0,341.53,219a42.12,42.12,0,0,0,.85,9.83c.67,3.1,2,6,2.8,9s.45,6.44.25,9.66c-.21,3.44-.38,6.88-.56,10.32-.37,6.74-.77,13.48-1.15,20.23-1.57,27.38-3.09,54.77-4.76,82.15-1,15.41-1.69,30.81-3,46.24,0,.11-.19.11-.18,0C336.34,392.66,337.24,378.9,338,365.14Z" transform="translate(-46.98 -61.92)"/><path id="eledhee9hhdns" class="cls-2" d="M345.08,216.65c.79-.32,1.67-.42,2.48-.67a20.57,20.57,0,0,0,2.52-.93,19.15,19.15,0,0,0,4.32-2.71,10.11,10.11,0,0,0,2.76-4.17c.34-.85.66-1.71,1-2.57.16-.42.33-.85.5-1.27.06-.17.5-1.07.57-1.35a.08.08,0,0,1-.11,0h-.05a.11.11,0,0,1,0-.11c.05-.1.06-.11.17-.14a.11.11,0,0,1,.12.05c.17.28,0,.55-.06.85-.13.57-.26,1.13-.4,1.69-.25,1-.48,2-.76,2.94a9.87,9.87,0,0,1-2.76,4.79,15.45,15.45,0,0,1-4.82,2.88,17.14,17.14,0,0,1-2.79.82,7.55,7.55,0,0,1-2.68.2C344.92,216.89,345,216.7,345.08,216.65Z" transform="translate(-46.98 -61.92)"/><path id="eliw49ohytdnn" class="cls-2" d="M383.11,226.52c.08-1.65.18-3.29.3-4.94.26-3.76.59-7.53,1.18-11.24.05-.3.46-.19.44.08-.2,2.92-.49,5.84-.71,8.75s-.52,5.82-.52,8.72c0,.87.08,2.35,1.16,2.58,1.44.3,2.09-1.61,2.42-2.65a48.39,48.39,0,0,0,1.67-8c.42-3.07.62-6.17.86-9.25,0-.11.19-.1.2,0,.12,6.11.14,12.5-2,18.31a3.4,3.4,0,0,1-2.49,2.46h-.06v.1s-.07.35-.09.52-.05.28-.08.43-.09.59-.16.89a.24.24,0,0,1-.27.18.24.24,0,0,1-.18-.18.19.19,0,0,1-.13-.18,4.93,4.93,0,0,1,.37-1.74,2.14,2.14,0,0,1-1.6-1.3A7.59,7.59,0,0,1,383.11,226.52Z" transform="translate(-46.98 -61.92)"/><path id="ellbq1hvmyqmh" class="cls-2" d="M387.61,231.89a86.5,86.5,0,0,0-13.33,7.28c-.17.11,0,.37.14.27,4.5-2.28,9.1-4.48,13.47-7A.31.31,0,0,0,388,232,.3.3,0,0,0,387.61,231.89Z" transform="translate(-46.98 -61.92)"/><path id="eltdgvolemy2j" class="cls-2" d="M375.74,327.9c0-.44.14-.61.16-.07.11,3,.07,7.39.1,10.43V349c0,3.57-.13,7.15-.27,10.73l-.22,5.35c-.07,1.24,0,3.68-.12,4.91,0,.55-.17.65-.22.1-.09-1.79-.09-3.22-.15-5L375,359.7V349c0-3.57.13-7.15.27-10.72S375.48,331.47,375.74,327.9Z" transform="translate(-46.98 -61.92)"/><path id="eljeja13szdr" class="cls-2" d="M399.23,144.31a.53.53,0,0,1-.39.59l-2.11.2c-2.11-5.24-4.33-9.39-3.73-7.76a28.81,28.81,0,0,1,1.65,7.94l-4.17.32c-2-9.27-4.42-16.11-4.2-14,.88,8.57.52,11.34.09,14.3-10.07.74-23.28,1.54-32.84,1.91-1.32-5.11-2.51-10.66-2.67-10.26-1.18,2.93-1.36,7.15-1.26,10.4-3.05.09-5.48.11-7,0,0,0-.89-4.31-1.05-5.73a31.18,31.18,0,0,1,.62-10.85,54.36,54.36,0,0,1,4-10.15v-.07h0a31,31,0,0,0,2.28-6.77v0a30.88,30.88,0,0,0,.58-5.17c.18-6.36,3.3-11.92,8.81-13.73,10.09-10.86,20.83-6.64,24.35,1.42.34.79.68,1.69,1,2.68h0c1.23,3.64,2.39,8.38,3.43,12h0a39.46,39.46,0,0,0,1.42,4.22C391.12,122.47,397.36,126.09,399.23,144.31Z" transform="translate(-46.98 -61.92)"/><path id="elc31zjjaop8r" class="cls-2" d="M355.58,97.26a11.68,11.68,0,0,0-6.08,9.8,33.07,33.07,0,0,1-1.14,7.92,27.72,27.72,0,0,1-3.93,7,20.9,20.9,0,0,0-4.33,11.49c-.21,4.63.22,10.08,1.85,14.35h0a39.53,39.53,0,0,1-1.1-15c.59-5,3.12-8.27,5.68-12.15a21.36,21.36,0,0,0,3.58-10.36c.18-2.29.05-4.68.83-6.85.92-2.6,2.9-4.29,4.88-5.79A.24.24,0,1,0,355.58,97.26Z" transform="translate(-46.98 -61.92)"/><path id="elrvdkoo02mst" class="cls-2" d="M394.62,122.87c-2.73-3.54-5.55-6.55-7.25-11-1.54-4-2.51-8.31-4.08-12.34,0-.07-.11,0-.09,0,2.46,7.16,3.18,14.44,7.79,20.4,2.5,3.24,5,6.24,6.72,10.16a37.81,37.81,0,0,1,3,13,.11.11,0,0,0,.07.14.12.12,0,0,0,.14-.07.08.08,0,0,0,0-.07A31,31,0,0,0,394.62,122.87Z" transform="translate(-46.98 -61.92)"/><path id="elhj7z9f518j5" class="cls-3" d="M418.93,103.23l-6.47,29.64c-.29.88.16,1.56,1,1.54l15.17-.48a2.45,2.45,0,0,0,2.06-1.64l6.48-29.63c.28-.88-.17-1.56-1-1.54L421,101.6A2.46,2.46,0,0,0,418.93,103.23Z" transform="translate(-46.98 -61.92)"/><path id="elm120v20e9j" class="cls-9" d="M420.73,103.16l-6.47,29.64c-.29.87.16,1.56,1,1.53l15.18-.48a2.45,2.45,0,0,0,2.05-1.63L439,102.58c.28-.87-.17-1.56-1-1.53l-15.17.48A2.46,2.46,0,0,0,420.73,103.16Z" transform="translate(-46.98 -61.92)"/><path id="eleyvge89cnr" class="cls-2" d="M424.93,104.37a1.29,1.29,0,0,1-1.27,1.31h0a1.29,1.29,0,1,1,1.27-1.31Z" transform="translate(-46.98 -61.92)"/><path id="ell6fzymlvcl" class="cls-8" d="M371.44,149.31c9,18.09,28.83,41.4,36.81,41.33,3.8,0,10.59.71,15.48-3.76,10.65-9.77,19.32-28.18,20.93-38.64.57-3.73-17.64-11.34-20.23-8.26-6.08,7.21-13,21.24-14.11,21.18C406.23,161,390,148,378.59,138.91,364.8,127.85,367.85,142.1,371.44,149.31Z" transform="translate(-46.98 -61.92)"/><path id="elvwjgh7andy" class="cls-8" d="M444.67,129.07c-2.08-7.48-3.76-9.08-2.17-16.33,1.05-4.75-1.54-7.46-4.8-3.59-5.34,6.33-4.68,16.55-3.44,20Z" transform="translate(-46.98 -61.92)"/><path id="elvkptos0h6lc" class="cls-8" d="M443.85,151.48s3.12-10.56,1.69-18.75c-1-5.66-4.51-17.75-20.57-23.8-3.81-1.44-10.25-.78-4.88,3.82,3.81,3.27,7.22,4.19,9.09,6.5,0,0-8.1,1.81-9.39,5.68a75.66,75.66,0,0,0-2.65,10.36,15.85,15.85,0,0,0,1.9.67s-.86,3.73,1.95,8.83Z" transform="translate(-46.98 -61.92)"/><path id="elfsm31plkdsm" class="cls-8" d="M443.74,127.47c-2.34-1.89-7.38-5.83-12.61-7.62-5.82-2-17.56-4.24-19,.07-1,3.16,3.37,4.41,3.37,4.41s-5,.09-5.37,3.15c-.29,2.79,3.18,3.56,3.18,3.56s-3.06.58-2.82,3.32c.29,3.29,6.64,1.54,9.81,4.62C421,139.68,443.74,127.47,443.74,127.47Z" transform="translate(-46.98 -61.92)"/><path id="el1xjxsi6i70d" class="cls-2" d="M430.05,126.35a24.46,24.46,0,0,0-14.44-2.1c-.12,0-.17.13-.05.13a60.53,60.53,0,0,1,14.48,2S430.08,126.37,430.05,126.35Z" transform="translate(-46.98 -61.92)"/><path id="elpjoagym9p8s" class="cls-2" d="M427.88,132.16c-2.28-1-9.06-2.54-14.55-1.23-.12,0-.16.14,0,.13a64.2,64.2,0,0,1,14.57,1.16S427.91,132.17,427.88,132.16Z" transform="translate(-46.98 -61.92)"/><path id="el5yua5jcckrf" class="cls-4" d="M379.72,165.72l15-15.71s-11.2-10.23-19.42-14.22-9.57,1.35-6.16,9.58S379.72,165.72,379.72,165.72Z" transform="translate(-46.98 -61.92)"/><g id="eltrxexe41u3"><path class="cls-10" d="M379.72,165.72l15-15.71s-11.2-10.23-19.42-14.22-9.57,1.35-6.16,9.58S379.72,165.72,379.72,165.72Z" transform="translate(-46.98 -61.92)"/></g><path id="el8x4wrp3ttcp" class="cls-1" d="M393.58,181.38l7.05,33.07s-54.36,4.38-67.93,4.32c0,0,6.91-63.15,20.4-79.87,6.75-8.37,15.32-8.34,21.11-3.18,1.47,1.31,19.31,21.92,21.58,30.09C397.78,173,393.58,181.38,393.58,181.38Z" transform="translate(-46.98 -61.92)"/><path id="elpi8027vz8t9" class="cls-4" d="M368.21,132.51h-5.77A12.24,12.24,0,0,1,368.21,132.51Z" transform="translate(-46.98 -61.92)"/><path id="elo5gcj5l7fbd" class="cls-4" d="M374.15,135.67H356.27c.25-.21.51-.41.77-.59h16.4C373.68,135.27,373.92,135.46,374.15,135.67Z" transform="translate(-46.98 -61.92)"/><path id="el7yo09bvzicx" class="cls-4" d="M377,138.83H353.16l.49-.59h22.86Z" transform="translate(-46.98 -61.92)"/><path id="el2ae4xs47pqk" class="cls-4" d="M379.7,142H351c.11-.2.23-.4.36-.59h27.86Z" transform="translate(-46.98 -61.92)"/><path id="elfv40a0yljf" class="cls-4" d="M382.29,145.15h-33c.09-.2.19-.4.29-.59h32.24Z" transform="translate(-46.98 -61.92)"/><path id="elqydfzvsv2sn" class="cls-4" d="M384.79,148.31h-37c.09-.2.17-.4.25-.59h36.24Z" transform="translate(-46.98 -61.92)"/><path id="elk79kwzdh6ui" class="cls-4" d="M387.2,151.47H346.59l.22-.6h39.94Z" transform="translate(-46.98 -61.92)"/><path id="elfj0ythoqgi9" class="cls-4" d="M389.49,154.63h-44l.2-.6h43.4Z" transform="translate(-46.98 -61.92)"/><path id="elrrk9x2ibuxc" class="cls-4" d="M391.64,157.79H344.42l.2-.6h46.62Z" transform="translate(-46.98 -61.92)"/><path id="eltwecwhh2n4" class="cls-4" d="M393.57,161H343.48a2.16,2.16,0,0,1,.17-.6h49.57A2.37,2.37,0,0,1,393.57,161Z" transform="translate(-46.98 -61.92)"/><path id="elmegmjfbqa3f" class="cls-4" d="M395.18,164.11H342.59c.05-.2.11-.4.16-.6h52.16Q395.06,163.81,395.18,164.11Z" transform="translate(-46.98 -61.92)"/><path id="elxvybl4e0zes" class="cls-4" d="M396.11,167.26H341.76l.15-.59H396A4.08,4.08,0,0,0,396.11,167.26Z" transform="translate(-46.98 -61.92)"/><path id="elld0ivu7ydki" class="cls-4" d="M396.33,169.83v.59H341a3,3,0,0,1,.14-.59Z" transform="translate(-46.98 -61.92)"/><path id="elxmxprlop7wq" class="cls-4" d="M396.12,173a2.91,2.91,0,0,1-.1.59H340.25a2.61,2.61,0,0,1,.13-.59Z" transform="translate(-46.98 -61.92)"/><path id="elf24i96s9whq" class="cls-4" d="M395.47,176.15c-.05.2-.1.4-.16.59H339.54a3.12,3.12,0,0,1,.13-.59Z" transform="translate(-46.98 -61.92)"/><path id="eli97dgjnw9gl" class="cls-4" d="M394.46,179.31l-.23.59H338.88a2.47,2.47,0,0,1,.12-.59Z" transform="translate(-46.98 -61.92)"/><path id="elzlur53e2f4n" class="cls-4" d="M393.94,183.06h-55.7a2.47,2.47,0,0,1,.12-.59h55.45Z" transform="translate(-46.98 -61.92)"/><path id="elncrjqoyevlq" class="cls-4" d="M394.61,186.22h-57a3.06,3.06,0,0,1,.11-.59h56.75Z" transform="translate(-46.98 -61.92)"/><path id="elqftqahpissg" class="cls-4" d="M395.29,189.38H337.05a4.17,4.17,0,0,1,.1-.6h58Z" transform="translate(-46.98 -61.92)"/><path id="eldyd8tiv82j" class="cls-4" d="M396,192.54H336.49a4.17,4.17,0,0,1,.1-.6h59.24Z" transform="translate(-46.98 -61.92)"/><path id="elpnyj25o01z" class="cls-4" d="M396.63,195.7H336a3.13,3.13,0,0,1,.1-.6h60.4Z" transform="translate(-46.98 -61.92)"/><path id="elkyfm87dq2v" class="cls-4" d="M397.31,198.86H335.45l.09-.6h61.64Z" transform="translate(-46.98 -61.92)"/><path id="elfayh0fxeyxk" class="cls-4" d="M398,202H335a4.17,4.17,0,0,1,.1-.6h62.8Z" transform="translate(-46.98 -61.92)"/><path id="elt5k3m0x2oje" class="cls-4" d="M398.65,205.17H334.48l.09-.59h64Z" transform="translate(-46.98 -61.92)"/><path id="elsdg2yl2cx4q" class="cls-4" d="M399.33,208.33H334l.09-.59H399.2Z" transform="translate(-46.98 -61.92)"/><path id="els1rryody057" class="cls-4" d="M400,211.49H333.6c0-.19.06-.39.08-.59h66.19Z" transform="translate(-46.98 -61.92)"/><path id="elc6vnla33ha9" class="cls-4" d="M400.63,214.45l-2.48.2H333.2a1.76,1.76,0,0,1,.07-.59h67.28Z" transform="translate(-46.98 -61.92)"/><path id="elw4sf7bzmcs7" class="cls-4" d="M363.29,217.22c-3.08.21-6.14.41-9.09.59H332.81a1.85,1.85,0,0,1,.07-.59Z" transform="translate(-46.98 -61.92)"/><path id="el2tlpn95q4sm" class="cls-2" d="M395.49,175.74a20.17,20.17,0,0,0,.42-6,28,28,0,0,0-4.07-11.39c-1.17-2-2.57-3.84-3.73-5.83a0,0,0,1,1,.08-.06h0a42.78,42.78,0,0,1,3,4.08.61.61,0,0,0-.07-.14c-.32-.78-.65-1.55-1-2.31,0-.08.1-.15.14-.07.4.74.78,1.48,1.14,2.23.22.49.41,1,.58,1.48a37.59,37.59,0,0,1,3,5.46,18.94,18.94,0,0,1,1.41,12,21.45,21.45,0,0,1-2.73,6.17.08.08,0,0,1-.11,0,.07.07,0,0,1,0-.08,29.78,29.78,0,0,0,2-5.59" transform="translate(-46.98 -61.92)"/><path id="elceo0myn308u" class="cls-8" d="M361.55,136.37c.41,1,6.53,7.12,11.34,6.14,1.56-.32.19-8.94.19-8.94v-.66l.62-9.23-11.53-5.1-1.65-.66V128.3A59.16,59.16,0,0,0,361.55,136.37Z" transform="translate(-46.98 -61.92)"/><path id="ellziejcb3fsh" class="cls-2" d="M360.59,123.62a18.59,18.59,0,0,0,12.53,9.29l.62-9.23-11.53-5.1-1.65-.66S360.56,120.46,360.59,123.62Z" transform="translate(-46.98 -61.92)"/><path id="el8oy2mymst8e" class="cls-8" d="M385.11,109.82c1.69,16.15-7.79,19-11.27,19.34-3.16.33-14,1-17.32-14.84s3.62-21.78,10.82-22.91S383.42,93.67,385.11,109.82Z" transform="translate(-46.98 -61.92)"/><path id="el3y1cd8zvqin" class="cls-2" d="M381.52,106.34a10.43,10.43,0,0,1-1.11-.11,1.73,1.73,0,0,1-1.12-.34.57.57,0,0,1-.07-.7,1.42,1.42,0,0,1,1.37-.48,2.13,2.13,0,0,1,1.39.6.61.61,0,0,1,0,.86A.66.66,0,0,1,381.52,106.34Z" transform="translate(-46.98 -61.92)"/><path id="el1bs32n3y4gv" class="cls-2" d="M370.89,107.57a10.22,10.22,0,0,0,1.07-.34,1.76,1.76,0,0,0,1-.56.57.57,0,0,0-.07-.7,1.46,1.46,0,0,0-1.44-.19,2.1,2.1,0,0,0-1.24.88.61.61,0,0,0,.2.84A.58.58,0,0,0,370.89,107.57Z" transform="translate(-46.98 -61.92)"/><path id="elllfr4229tl" class="cls-2" d="M373.74,111.42s-.08.06-.07.11c.17,1.09.19,2.37-.75,2.86v.06C374.12,114.13,374.08,112.43,373.74,111.42Z" transform="translate(-46.98 -61.92)"/><path id="elqnrdy0t012b" class="cls-2" d="M372.61,110.4c-1.78.1-1.46,3.65.19,3.56S374.11,110.32,372.61,110.4Z" transform="translate(-46.98 -61.92)"/><path id="elvgkfaw27we" class="cls-2" d="M371.93,110.65c-.29.23-.56.61-.93.69s-.79-.27-1.11-.6c0,0-.06,0-.06.05.05.68.38,1.36,1.12,1.39s1.1-.61,1.21-1.31C372.18,110.74,372.05,110.56,371.93,110.65Z" transform="translate(-46.98 -61.92)"/><path id="elfvgkc12pmbl" class="cls-2" d="M379.82,110.59a.09.09,0,0,1,.09.09c.06,1.11.31,2.36,1.33,2.65v.06C380,113.32,379.69,111.65,379.82,110.59Z" transform="translate(-46.98 -61.92)"/><path id="ello1y2h5ho4e" class="cls-2" d="M380.71,109.36c1.76-.28,2.19,3.27.56,3.52S379.23,109.6,380.71,109.36Z" transform="translate(-46.98 -61.92)"/><path id="eldnqzba6mgbt" class="cls-2" d="M381.48,109.51c.3.15.62.46.95.44s.64-.44.84-.84h.06c.1.68,0,1.41-.67,1.62s-1.09-.34-1.33-1C381.28,109.65,381.35,109.44,381.48,109.51Z" transform="translate(-46.98 -61.92)"/><path id="eljo5o0sgvum" class="cls-2" d="M374.63,120.22c.28.24.56.59,1,.6a2.67,2.67,0,0,0,1.17-.33s.07,0,.05.06a1.47,1.47,0,0,1-1.37.66,1.18,1.18,0,0,1-.91-.94C374.51,120.21,374.59,120.18,374.63,120.22Z" transform="translate(-46.98 -61.92)"/><path id="elmm6hyveg67" class="cls-2" d="M378.83,115.77s.39,1.62.47,2.4c0,.07-.18.12-.44.17h0a3.73,3.73,0,0,1-3.72-1c-.06-.07,0-.16.11-.12a5.62,5.62,0,0,0,3.46.62c0-.22-.77-2.75-.65-2.77a6.44,6.44,0,0,1,1.8.22c-.72-3.4-2-6.65-2.65-10a.12.12,0,0,1,.1-.12.12.12,0,0,1,.1,0,56.43,56.43,0,0,1,3.32,10.7C380.8,116.29,379.15,115.87,378.83,115.77Z" transform="translate(-46.98 -61.92)"/><path id="elqy9iibil62h" class="cls-2" d="M378.67,118.15a4.43,4.43,0,0,1-1.55,1.58,2,2,0,0,1-1.18.24c-.89-.11-1-.89-.95-1.59a5,5,0,0,1,.24-1.08A5.71,5.71,0,0,0,378.67,118.15Z" transform="translate(-46.98 -61.92)"/><path id="elzbzm4dpxom7" class="cls-11" d="M377.12,119.73a2,2,0,0,1-1.18.24c-.89-.11-1-.89-.95-1.59A2,2,0,0,1,377.12,119.73Z" transform="translate(-46.98 -61.92)"/><path id="el9xrm5rh8xwk" class="cls-2" d="M357.75,113.63c3,.49,4-6.28,4-6.28s12.74-1.63,14.22-11.88a17.47,17.47,0,0,0,8.41,9.89s0-11.31-8.85-13.86c0,0-10.94-4.5-17.54,4.07S355.77,113.3,357.75,113.63Z" transform="translate(-46.98 -61.92)"/><path id="elrvifk44735" class="cls-2" d="M376,94.71a11.32,11.32,0,0,1-.76,4.68,11.73,11.73,0,0,1-2.55,4.06,11.52,11.52,0,0,1-.89.82l-.45.4-.5.34c-.34.22-.67.45-1,.65a12,12,0,0,1-1.08.53c-.18.08-.36.18-.54.25l-.57.2-1.13.38c-.77.18-1.55.32-2.33.45.74-.29,1.5-.49,2.22-.78l1.07-.47L368,106l.5-.29,1-.57a9.93,9.93,0,0,0,.93-.67l.47-.34.42-.38a10.33,10.33,0,0,0,.83-.79,14,14,0,0,0,3.36-6A13.12,13.12,0,0,0,376,94.71Z" transform="translate(-46.98 -61.92)"/><path id="el9cyhoxylq9i" class="cls-8" d="M359.58,115s-3.63-5-5.91-3.7.52,8.6,3.24,9.56a2.75,2.75,0,0,0,3.61-1.44,1,1,0,0,1,0-.1Z" transform="translate(-46.98 -61.92)"/><path id="elpftbicl5kmr" class="cls-2" d="M354.52,113.48c1.91.74,2.94,2.47,3.67,4.28a1.53,1.53,0,0,0-2.09-.51,1.33,1.33,0,0,0-.19.14s0,.11,0,.1a1.69,1.69,0,0,1,1.87.55,8.41,8.41,0,0,1,.92,1.49c.09.17.4.07.33-.12h0c0-2.41-2-5.8-4.56-6Z" transform="translate(-46.98 -61.92)"/><path id="el26tkt75pyql" class="cls-2" d="M359.26,95.39c1.45-.54,2.83-8.65-2.5-12.52s-12.16.55-9.3,7.2C349.27,94.27,356.19,96.53,359.26,95.39Z" transform="translate(-46.98 -61.92)"/><path id="ellmob8lpt2so" class="cls-2" d="M349.3,82.4a9.05,9.05,0,0,0-3.07,5.14,5.48,5.48,0,0,0,1.62,5.22,10.89,10.89,0,0,0,5.29,2.59,16.42,16.42,0,0,0,3.05.38,8.59,8.59,0,0,0,3.07-.34,7.28,7.28,0,0,1-3.05.9,13.35,13.35,0,0,1-3.22-.05,10.64,10.64,0,0,1-5.94-2.64,6.34,6.34,0,0,1-1.76-2.91,6.6,6.6,0,0,1,.06-3.36A8,8,0,0,1,349.3,82.4Z" transform="translate(-46.98 -61.92)"/><path id="el5b23eyrtlxg" class="cls-8" d="M352.1,140.18c-13.38,20.13-20.94,46.93-20,52.83,1.08,6.49,10.24,28.43,19.68,38.1,2.49,2.55,21.35-18.37,18.8-21.2-4.91-5.46-14.66-21.55-15.09-25.22-.4-3.39,4.54-25.2,5.84-37.6C362.63,135.18,358.32,130.81,352.1,140.18Z" transform="translate(-46.98 -61.92)"/><path id="el6pk27fotmxb" class="cls-8" d="M370,209.24s10.24,4.5,16.8,7.76c3.66,1.82,9.66,5.5,11.74,8.07,3.1,3.83,13.65,21.87,9.33,24.52-3.91,2.4-11-14.24-11-14.24s8.64,16.16,3.4,18.19-10.75-17.86-10.75-17.86,8.51,16.81,2.78,18c-4.3,1-10.3-16.74-10.3-16.74s7.21,14.5,2.8,15.65c-4.88,1.27-11.45-14.74-11.45-14.74-11.71,1-17.71-3.27-21.61-6.83C350.78,230.16,370,209.24,370,209.24Z" transform="translate(-46.98 -61.92)"/><path id="el8f1t0kp579m" class="cls-2" d="M394.27,229.56c1.08,1.86,2.19,3.74,3.11,5.69a64.67,64.67,0,0,1,2.49,6,37,37,0,0,1,2.08,8.16c-1-4.9-4.2-11.94-5.12-13.89s-1.73-4-2.64-5.9C394.17,229.55,394.24,229.52,394.27,229.56Z" transform="translate(-46.98 -61.92)"/><path id="el0awkcuna96j8" class="cls-2" d="M387.16,232.74c1.28,2.43,2.64,4.81,3.82,7.3s2,4.94,3,7.5c.07.2-.06.17-.14,0-1.1-2.52-2.3-4.76-3.43-7.26s-2.15-5-3.36-7.5C387.08,232.72,387.14,232.7,387.16,232.74Z" transform="translate(-46.98 -61.92)"/><path id="eltudv8toxru" class="cls-2" d="M380.57,234.36a62.18,62.18,0,0,1,5,11.62c.07.2-.1.15-.18,0-1.58-3.89-2.8-7-4.93-11.49C380.41,234.37,380.52,234.29,380.57,234.36Z" transform="translate(-46.98 -61.92)"/><path id="elgcpvh1x3i0j" class="cls-4" d="M339.24,160.83l21.32,4.11s2.55-14.95,1.46-24-6.31-7.31-11.38,0S339.24,160.83,339.24,160.83Z" transform="translate(-46.98 -61.92)"/><g id="elnrrvx11raxg"><path class="cls-10" d="M339.24,160.83l21.32,4.11s2.55-14.95,1.46-24-6.31-7.31-11.38,0S339.24,160.83,339.24,160.83Z" transform="translate(-46.98 -61.92)"/></g></g></svg>