<svg id="Layer_1" data-name="Layer 1" xmlns="http://www.w3.org/2000/svg" viewBox="0 0 207.19 390.23"><defs><style>.cls-1{fill:#263238;}.cls-2{fill:#fff;}.cls-3{fill:#1b84ff;}.cls-4{fill:#455a64;}.cls-5{fill:#ebebeb;}.cls-6{fill:#dbdbdb;}.cls-7{fill:#c7c7c7;}.cls-8{fill:#a6a6a6;}.cls-9{fill:#37474f;}</style></defs><g id="freepik--Device--inject-20"><path class="cls-1" d="M374.66,58.3H202.35a17.59,17.59,0,0,0-17.43,17.75h0V430.77a17.62,17.62,0,0,0,17.43,17.76H374.66a17.62,17.62,0,0,0,17.45-17.76V76.06A17.6,17.6,0,0,0,374.67,58.3Zm6.55,361.5c0,9.34-7,16.89-15.62,16.89H211.44c-8.64,0-15.64-7.55-15.64-16.89V89.5c0-19,7-20,15.64-20h30.88c1.8,0,3.27,2,3.27,4.57v1.09c0,5.92,3.24,5.94,7.21,5.94h71.41c4,0,7.24,0,7.24-5.94v-1c0-2.53,1.45-4.57,3.27-4.57h30.87c8.63,0,15.62,2.53,15.62,20Z" transform="translate(-184.92 -58.3)"/><path class="cls-2" d="M381.22,89.5V419.8c0,9.34-7,16.89-15.62,16.89H211.45c-8.64,0-15.64-7.55-15.64-16.89V89.5c0-19,7-20,15.64-20h30.88c1.8,0,3.27,2,3.27,4.57v1.09c0,5.92,3.24,5.94,7.21,5.94h71.41c4,0,7.24,0,7.24-5.94v-1c0-2.53,1.45-4.57,3.27-4.57H365.6C374.23,69.55,381.22,72.08,381.22,89.5Z" transform="translate(-184.92 -58.3)"/><path class="cls-3" d="M381.22,89.51v30H195.81v-30c0-19,7-20,15.64-20h30.88c1.8,0,3.27,2,3.27,4.57v1.09c0,5.92,3.24,5.94,7.21,5.94h71.41c4,0,7.24,0,7.24-5.94v-1c0-2.53,1.45-4.57,3.27-4.57H365.6C374.23,69.56,381.22,72.09,381.22,89.51Z" transform="translate(-184.92 -58.3)"/><path class="cls-2" d="M298.25,73.47H278.77a1.22,1.22,0,0,1-1.2-1.21h0a1.2,1.2,0,0,1,1.2-1.2h19.48a1.2,1.2,0,0,1,1.2,1.2h0a1.2,1.2,0,0,1-1.19,1.21Z" transform="translate(-184.92 -58.3)"/><rect class="cls-2" x="22.98" y="39.5" width="16.09" height="10.2"/><path class="cls-3" d="M224,97.8c-.65.62-1.31,1.22-2,1.83l-2,1.79-2,1.84-.06.06L216,104.93l-.09.07-.09-.07L214,103.31h-.06c-.7-.61-1.4-1.22-2.09-1.84l-2-1.79c-.65-.61-1.31-1.21-2-1.83.69.54,1.37,1.09,2,1.64s1.36,1.11,2,1.68,1.51,1.26,2.26,1.9h0l1.68,1.44,1.69-1.44h0l2.25-1.9,2-1.67Z" transform="translate(-184.92 -58.3)"/><path class="cls-3" d="M214.27,103.25h0l-.26.21c-.4.34-.82.67-1.24,1s-1,.76-1.56,1.13-1.06.73-1.6,1.08-1.1.69-1.66,1c.48-.43,1-.83,1.5-1.22s1-.76,1.57-1.13,1.06-.73,1.6-1.08.88-.55,1.33-.81a3.07,3.07,0,0,1,.31-.17Z" transform="translate(-184.92 -58.3)"/><path class="cls-3" d="M224,107.68c-.57-.31-1.12-.65-1.66-1s-1.08-.71-1.61-1.08-1-.74-1.56-1.13-.83-.64-1.23-1l-.26-.21h0l.31.18q.67.39,1.32.81c.55.35,1.08.71,1.61,1.08s1.05.74,1.56,1.13S223.46,107.25,224,107.68Z" transform="translate(-184.92 -58.3)"/><path class="cls-4" d="M227.44,97.8A3.45,3.45,0,1,1,224,94.35h0A3.45,3.45,0,0,1,227.44,97.8Z" transform="translate(-184.92 -58.3)"/><path class="cls-2" d="M225.13,98.49a.28.28,0,0,1-.28.27h0v.38a.28.28,0,0,1-.33.22.28.28,0,0,1-.22-.22v-.38h-1.56a.22.22,0,0,1-.17-.06.27.27,0,0,1,0-.37h0L224.31,96h.24v2h0a.38.38,0,0,1,.54,0,.37.37,0,0,1,0,.53Zm-.88-1.5-1,1.23h1Z" transform="translate(-184.92 -58.3)"/><g id="freepik--u5Zjqx--inject-20"><path class="cls-2" d="M237,76.68l-.3.3-.17.17a4.06,4.06,0,0,0-5.75,0l-.16-.17c-.1-.1-.2-.19-.29-.29h0l.38-.34a4.72,4.72,0,0,1,2-.94,1.41,1.41,0,0,0,.57-.08h.9a4.33,4.33,0,0,1,1.06.26,4.69,4.69,0,0,1,.72.33,5.33,5.33,0,0,1,.69.48l.31.29Z" transform="translate(-184.92 -58.3)"/><path class="cls-2" d="M231.72,78.09l-.47-.47a3.3,3.3,0,0,1,1.91-1,3.35,3.35,0,0,1,2.89,1l-.47.47a2.73,2.73,0,0,0-1.93-.79A2.69,2.69,0,0,0,231.72,78.09Z" transform="translate(-184.92 -58.3)"/><path class="cls-2" d="M235.11,78.56c-.16.15-.32.31-.47.47a1.42,1.42,0,0,0-2,0l-.47-.47a2.06,2.06,0,0,1,2.91,0Z" transform="translate(-184.92 -58.3)"/><path class="cls-2" d="M234.07,79.45a.43.43,0,1,1-.44-.42h0A.42.42,0,0,1,234.07,79.45Z" transform="translate(-184.92 -58.3)"/></g><path class="cls-2" d="M207.9,77.58a1.23,1.23,0,1,1,1.23,1.23h0A1.23,1.23,0,0,1,207.9,77.58Z" transform="translate(-184.92 -58.3)"/><path class="cls-2" d="M211.77,77.58A1.23,1.23,0,1,1,213,78.81h0A1.23,1.23,0,0,1,211.77,77.58Z" transform="translate(-184.92 -58.3)"/><path class="cls-2" d="M215.64,77.58a1.23,1.23,0,1,1,1.23,1.23h0A1.23,1.23,0,0,1,215.64,77.58Z" transform="translate(-184.92 -58.3)"/><path class="cls-2" d="M219.51,77.58a1.23,1.23,0,1,1,1.23,1.23h0A1.23,1.23,0,0,1,219.51,77.58Z" transform="translate(-184.92 -58.3)"/><path class="cls-2" d="M223.38,77.58a1.23,1.23,0,1,1,1.23,1.23h0A1.23,1.23,0,0,1,223.38,77.58Z" transform="translate(-184.92 -58.3)"/><path class="cls-2" d="M367.3,80.27h-10V75.63h10Zm-9.49-.51h9V76.14h-9Z" transform="translate(-184.92 -58.3)"/><rect class="cls-2" x="173.21" y="18.12" width="6.45" height="3.06"/><rect class="cls-2" x="182.39" y="18.41" width="0.89" height="2.48"/><path class="cls-2" d="M272.56,99.78a.58.58,0,0,1,.58-.6h0a.6.6,0,0,1,.61.59h0v6.41a.6.6,0,0,1-.6.6h0a.58.58,0,0,1-.6-.58V99.78Z" transform="translate(-184.92 -58.3)"/><path class="cls-2" d="M277,106.19a.6.6,0,0,1-.59.6.58.58,0,0,1-.59-.59h0V99.87h0a.57.57,0,0,1,.23-.5.61.61,0,0,1,.83.13l3.51,4.86V99.87a.6.6,0,0,1,.59-.58.6.6,0,0,1,.6.58v6.32a.6.6,0,0,1-.6.6h0a.65.65,0,0,1-.45-.22v-.06L277,101.68Z" transform="translate(-184.92 -58.3)"/><path class="cls-2" d="M284.19,106.19V99.78a.6.6,0,0,1,.6-.6h1.54a2.07,2.07,0,0,1,2.07,2.06,2,2,0,0,1-.42,1.24,2.33,2.33,0,0,1-1.22,4.31h-1.93a.6.6,0,0,1-.64-.56Zm1.21-4.06h.93a.88.88,0,0,0,.86-.89.85.85,0,0,0-.85-.85h-.94Zm0,3.45h1.36a1.13,1.13,0,0,0,0-2.25H285.4Z" transform="translate(-184.92 -58.3)"/><path class="cls-2" d="M296.65,100.12a4,4,0,0,1,0,5.51,3.58,3.58,0,0,1-2.6,1.16,3.71,3.71,0,0,1-2.66-1.16,4.05,4.05,0,0,1,0-5.51A3.67,3.67,0,0,1,294.05,99,3.55,3.55,0,0,1,296.65,100.12Zm-.14,2.75a2.8,2.8,0,0,0-.74-1.9,2.3,2.3,0,0,0-1.72-.77,2.39,2.39,0,0,0-1.76.77,2.81,2.81,0,0,0,0,3.8,2.33,2.33,0,0,0,3.48,0,2.8,2.8,0,0,0,.74-1.9Z" transform="translate(-184.92 -58.3)"/><path class="cls-2" d="M304.8,100.21,302.73,103l2.07,2.82a.6.6,0,0,1-.13.83.55.55,0,0,1-.35.12.67.67,0,0,1-.49-.25L302,104l-1.84,2.51a.65.65,0,0,1-.48.25.55.55,0,0,1-.35-.12.59.59,0,0,1-.14-.83l2.07-2.82-2.07-2.81a.59.59,0,0,1,.14-.82.57.57,0,0,1,.79.07l0,.06L302,102l1.82-2.5a.58.58,0,0,1,.79-.17l.05,0a.58.58,0,0,1,.15.82Z" transform="translate(-184.92 -58.3)"/><path class="cls-2" d="M355.68,106.73l-1.26,1-2.33-3.08-.85-1.13a2.34,2.34,0,0,0,.49-.27,2.12,2.12,0,0,0,.64-.84l.91,1.19Z" transform="translate(-184.92 -58.3)"/><path class="cls-2" d="M353.2,99.47a3.44,3.44,0,1,0-1.11,5.13,3,3,0,0,0,.48-.31,3.11,3.11,0,0,0,.71-.74A3.44,3.44,0,0,0,353.2,99.47Zm-1.47,3.73a2.34,2.34,0,0,1-.49.27,2,2,0,1,1,1.13-1.11A2.12,2.12,0,0,1,351.73,103.2Z" transform="translate(-184.92 -58.3)"/><rect class="cls-2" x="144.52" y="40.03" width="9.14" height="9.14"/><rect class="cls-3" x="148.59" y="41.73" width="1" height="5.75"/><rect class="cls-3" x="146.21" y="44.1" width="5.75" height="1"/><path class="cls-2" d="M367.3,98.92a.79.79,0,1,1-.79-.79.79.79,0,0,1,.79.79Z" transform="translate(-184.92 -58.3)"/><path class="cls-2" d="M367.3,103a.79.79,0,1,1-.79-.79.78.78,0,0,1,.79.78Z" transform="translate(-184.92 -58.3)"/><path class="cls-2" d="M367.3,107.12a.79.79,0,0,1-1.58,0h0a.79.79,0,0,1,1.58,0Z" transform="translate(-184.92 -58.3)"/><rect class="cls-5" x="10.89" y="61.17" width="185.4" height="28.63"/><path class="cls-3" d="M226,139.32a6.48,6.48,0,1,1,2.91-7A6.45,6.45,0,0,1,226,139.32Z" transform="translate(-184.92 -58.3)"/><path class="cls-2" d="M224.51,133a2,2,0,1,1-2-2A2,2,0,0,1,224.51,133Z" transform="translate(-184.92 -58.3)"/><path class="cls-2" d="M226,138.5v.82a6.6,6.6,0,0,1-6.88,0v-.82a3.42,3.42,0,0,1,6.84,0Z" transform="translate(-184.92 -58.3)"/><polygon class="cls-2" points="78.44 79.79 69.84 79.79 73.35 75.49 69.84 71.19 78.44 71.19 81.95 75.49 78.44 79.79"/><polygon class="cls-3" points="56.34 71.19 57.74 74.02 60.86 74.47 58.6 76.68 59.14 79.79 56.34 78.32 53.55 79.79 54.08 76.68 51.82 74.47 54.94 74.02 56.34 71.19"/><rect class="cls-1" x="88.12" y="73.74" width="50.74" height="3.5"/><rect class="cls-4" x="159.77" y="73.74" width="19.89" height="3.5"/><path class="cls-4" d="M226,168a6.48,6.48,0,1,1,2.91-7A6.45,6.45,0,0,1,226,168Z" transform="translate(-184.92 -58.3)"/><path class="cls-2" d="M224.51,161.68a2,2,0,1,1-2-2A2,2,0,0,1,224.51,161.68Z" transform="translate(-184.92 -58.3)"/><path class="cls-2" d="M226,167.13V168a6.6,6.6,0,0,1-6.88,0v-.82a3.42,3.42,0,0,1,6.84,0Z" transform="translate(-184.92 -58.3)"/><polygon class="cls-2" points="78.44 108.42 69.84 108.42 73.35 104.12 69.84 99.82 78.44 99.82 81.95 104.12 78.44 108.42"/><path class="cls-5" d="M263.48,167h-9.25l3.72-4.55-3.72-4.55h9.25l3.71,4.55Zm-8.19-.5h8l3.3-4.05-3.3-4h-8l3.3,4Z" transform="translate(-184.92 -58.3)"/><polygon class="cls-3" points="56.34 99.82 57.74 102.65 60.86 103.1 58.6 105.31 59.14 108.42 56.34 106.95 53.55 108.42 54.08 105.31 51.82 103.1 54.94 102.65 56.34 99.82"/><rect class="cls-1" x="88.12" y="102.37" width="50.74" height="3.5"/><rect class="cls-4" x="159.77" y="102.37" width="19.89" height="3.5"/><rect class="cls-5" x="10.89" y="118.43" width="185.4" height="28.63"/><path class="cls-3" d="M226,196.58a6.76,6.76,0,0,1-1.88.79,6.52,6.52,0,1,1,1.88-.79Z" transform="translate(-184.92 -58.3)"/><path class="cls-2" d="M224.51,190.31a2,2,0,1,1-2-2A2,2,0,0,1,224.51,190.31Z" transform="translate(-184.92 -58.3)"/><path class="cls-2" d="M226,195.76v.82a6.76,6.76,0,0,1-1.88.79,6.46,6.46,0,0,1-5-.79v-.82a3.42,3.42,0,0,1,6.84,0Z" transform="translate(-184.92 -58.3)"/><polygon class="cls-2" points="78.44 137.05 69.84 137.05 73.35 132.75 69.84 128.45 78.44 128.45 81.95 132.75 78.44 137.05"/><polygon class="cls-2" points="56.34 128.45 57.74 131.28 60.86 131.73 58.6 133.94 59.14 137.05 56.34 135.58 53.55 137.05 54.08 133.94 51.82 131.73 54.94 131.28 56.34 128.45"/><rect class="cls-6" x="88.12" y="131" width="50.74" height="3.5"/><rect class="cls-7" x="159.77" y="131" width="19.89" height="3.5"/><path class="cls-8" d="M226,225.21a6.76,6.76,0,0,1-1.88.79,6.52,6.52,0,1,1,1.88-.79Z" transform="translate(-184.92 -58.3)"/><path class="cls-2" d="M224.51,218.94a2,2,0,1,1-2-2A2,2,0,0,1,224.51,218.94Z" transform="translate(-184.92 -58.3)"/><path class="cls-2" d="M226,224.4v.81a6.76,6.76,0,0,1-1.88.79,6.46,6.46,0,0,1-5-.79v-.81a3.42,3.42,0,0,1,6.84,0h0Z" transform="translate(-184.92 -58.3)"/><polygon class="cls-2" points="78.44 165.68 69.84 165.68 73.35 161.38 69.84 157.08 78.44 157.08 81.95 161.38 78.44 165.68"/><path class="cls-5" d="M263.48,224.23h-9.25l3.72-4.55-3.72-4.55h9.25l3.71,4.55Zm-8.19-.5h8l3.3-4-3.3-4h-8l3.3,4Z" transform="translate(-184.92 -58.3)"/><polygon class="cls-3" points="56.34 157.08 57.74 159.91 60.86 160.37 58.6 162.57 59.14 165.68 56.34 164.21 53.55 165.68 54.08 162.57 51.82 160.37 54.94 159.91 56.34 157.08"/><rect class="cls-6" x="88.12" y="159.63" width="50.74" height="3.5"/><rect class="cls-7" x="159.77" y="159.63" width="19.89" height="3.5"/><rect class="cls-5" x="10.89" y="175.7" width="185.4" height="28.63"/><path class="cls-9" d="M226,253.84a6.76,6.76,0,0,1-1.88.79,6.52,6.52,0,1,1,1.88-.79Z" transform="translate(-184.92 -58.3)"/><path class="cls-2" d="M224.51,247.57a2,2,0,1,1-2-2A2,2,0,0,1,224.51,247.57Z" transform="translate(-184.92 -58.3)"/><path class="cls-2" d="M226,253v.81a6.76,6.76,0,0,1-1.88.79,6.46,6.46,0,0,1-5-.79V253a3.42,3.42,0,0,1,6.84,0Z" transform="translate(-184.92 -58.3)"/><polygon class="cls-2" points="78.44 194.31 69.84 194.31 73.35 190.01 69.84 185.71 78.44 185.71 81.95 190.01 78.44 194.31"/><polygon class="cls-3" points="56.34 185.71 57.74 188.54 60.86 189 58.6 191.2 59.14 194.31 56.34 192.84 53.55 194.31 54.08 191.2 51.82 189 54.94 188.54 56.34 185.71"/><rect class="cls-6" x="88.12" y="188.26" width="50.74" height="3.5"/><rect class="cls-7" x="159.77" y="188.26" width="19.89" height="3.5"/><path class="cls-5" d="M381.22,405.78v14a17.15,17.15,0,0,1-7.78,14.61H203.6a17.13,17.13,0,0,1-7.78-14.61v-14Z" transform="translate(-184.92 -58.3)"/><path class="cls-3" d="M226,425.63a6.76,6.76,0,0,1-1.88.79,6.52,6.52,0,1,1,1.88-.79Z" transform="translate(-184.92 -58.3)"/><path class="cls-2" d="M224.51,419.36a2,2,0,1,1-2-2A2,2,0,0,1,224.51,419.36Z" transform="translate(-184.92 -58.3)"/><path class="cls-2" d="M226,424.81v.82a6.76,6.76,0,0,1-1.88.79,6.51,6.51,0,0,1-5-.79v-.82a3.42,3.42,0,0,1,6.84,0Z" transform="translate(-184.92 -58.3)"/><polygon class="cls-2" points="78.44 366.1 69.84 366.1 73.35 361.8 69.84 357.5 78.44 357.5 81.95 361.8 78.44 366.1"/><polygon class="cls-3" points="56.34 357.5 57.74 360.33 60.86 360.78 58.6 362.99 59.14 366.1 56.34 364.63 53.55 366.1 54.08 362.99 51.82 360.78 54.94 360.33 56.34 357.5"/><rect class="cls-6" x="88.12" y="360.05" width="50.74" height="3.5"/><rect class="cls-7" x="159.77" y="360.05" width="19.89" height="3.5"/><path class="cls-1" d="M226,282.47a6.51,6.51,0,0,1-9-2.13,6.68,6.68,0,0,1-.78-1.87,6.51,6.51,0,1,1,9.74,4Z" transform="translate(-184.92 -58.3)"/><path class="cls-2" d="M224.51,276.2a2,2,0,1,1-2-2A2,2,0,0,1,224.51,276.2Z" transform="translate(-184.92 -58.3)"/><path class="cls-2" d="M226,281.66v.81a6.49,6.49,0,0,1-6.84,0v-.81a3.42,3.42,0,0,1,6.84,0Z" transform="translate(-184.92 -58.3)"/><polygon class="cls-2" points="78.44 222.94 69.84 222.94 73.35 218.64 69.84 214.34 78.44 214.34 81.95 218.64 78.44 222.94"/><path class="cls-5" d="M263.48,281.49h-9.25l3.72-4.55-3.72-4.55h9.25l3.71,4.55Zm-8.19-.5h8l3.3-4.05-3.3-4.05h-8l3.3,4.05Z" transform="translate(-184.92 -58.3)"/><polygon class="cls-2" points="56.34 214.34 57.74 217.17 60.86 217.63 58.6 219.83 59.14 222.94 56.34 221.47 53.55 222.94 54.08 219.83 51.82 217.63 54.94 217.17 56.34 214.34"/><path class="cls-5" d="M244.39,281.7l-3.13-1.64-3.13,1.64.6-3.48-2.53-2.47,3.5-.5,1.56-3.17,1.56,3.17,3.5.5-2.53,2.47Zm-3.13-2.21,2.46,1.3-.47-2.75,2-1.94-2.76-.4-1.23-2.49L240,275.7l-2.75.4,2,1.94-.47,2.75Z" transform="translate(-184.92 -58.3)"/><rect class="cls-6" x="88.12" y="216.89" width="50.74" height="3.5"/><rect class="cls-7" x="159.77" y="216.89" width="19.89" height="3.5"/><rect class="cls-5" x="10.89" y="232.96" width="185.4" height="28.63"/><path class="cls-3" d="M226,311.11a6.74,6.74,0,0,1-1.88.78,6.48,6.48,0,1,1,1.88-.78Z" transform="translate(-184.92 -58.3)"/><path class="cls-2" d="M224.51,304.83a2,2,0,1,1-2-2A2,2,0,0,1,224.51,304.83Z" transform="translate(-184.92 -58.3)"/><path class="cls-2" d="M226,310.29v.82a6.74,6.74,0,0,1-1.88.78,6.46,6.46,0,0,1-5-.79v-.81a3.42,3.42,0,0,1,6.84,0h0Z" transform="translate(-184.92 -58.3)"/><polygon class="cls-2" points="78.44 251.58 69.84 251.58 73.35 247.27 69.84 242.97 78.44 242.97 81.95 247.27 78.44 251.58"/><polygon class="cls-3" points="56.34 242.97 57.74 245.81 60.86 246.26 58.6 248.46 59.14 251.58 56.34 250.11 53.55 251.58 54.08 248.46 51.82 246.26 54.94 245.81 56.34 242.97"/><rect class="cls-1" x="88.12" y="245.53" width="50.74" height="3.5"/><rect class="cls-4" x="159.77" y="245.53" width="19.89" height="3.5"/><path class="cls-3" d="M226,339.74a6.5,6.5,0,1,1,2.9-7.08A6.45,6.45,0,0,1,226,339.74Z" transform="translate(-184.92 -58.3)"/><path class="cls-2" d="M224.51,333.46a2,2,0,1,1-2-2A2,2,0,0,1,224.51,333.46Z" transform="translate(-184.92 -58.3)"/><path class="cls-2" d="M226,338.92v.82a6.58,6.58,0,0,1-6.88,0v-.81a3.42,3.42,0,0,1,6.84,0h0Z" transform="translate(-184.92 -58.3)"/><polygon class="cls-2" points="78.44 280.21 69.84 280.21 73.35 275.91 69.84 271.61 78.44 271.61 81.95 275.91 78.44 280.21"/><path class="cls-5" d="M263.48,338.76h-9.25l3.72-4.55-3.72-4.55h9.25l3.71,4.55Zm-8.19-.5h8l3.3-4.05-3.3-4h-8l3.3,4Z" transform="translate(-184.92 -58.3)"/><polygon class="cls-2" points="56.34 271.61 57.74 274.44 60.86 274.89 58.6 277.09 59.14 280.21 56.34 278.74 53.55 280.21 54.08 277.09 51.82 274.89 54.94 274.44 56.34 271.61"/><path class="cls-5" d="M244.39,339l-3.13-1.64L238.13,339l.6-3.48L236.2,333l3.5-.51,1.56-3.17,1.56,3.17,3.5.51-2.53,2.46Zm-7.11-5.59,2,1.94-.47,2.74,2.46-1.3,2.46,1.3-.47-2.74,2-1.94L242.5,333l-1.23-2.49L240,333Z" transform="translate(-184.92 -58.3)"/><rect class="cls-6" x="88.12" y="274.16" width="50.74" height="3.5"/><rect class="cls-7" x="159.77" y="274.16" width="19.89" height="3.5"/><rect class="cls-5" x="10.89" y="290.22" width="185.4" height="28.63"/><path class="cls-4" d="M226,368.37a6.48,6.48,0,1,1,2.91-7A6.45,6.45,0,0,1,226,368.37Z" transform="translate(-184.92 -58.3)"/><path class="cls-2" d="M224.51,362.09a2,2,0,1,1-2-2A2,2,0,0,1,224.51,362.09Z" transform="translate(-184.92 -58.3)"/><path class="cls-2" d="M226,367.55v.82a6.6,6.6,0,0,1-6.88,0v-.82a3.42,3.42,0,0,1,6.84,0Z" transform="translate(-184.92 -58.3)"/><polygon class="cls-2" points="78.44 308.84 69.84 308.84 73.35 304.54 69.84 300.24 78.44 300.24 81.95 304.54 78.44 308.84"/><polygon class="cls-2" points="56.34 300.24 57.74 303.07 60.86 303.52 58.6 305.72 59.14 308.84 56.34 307.37 53.55 308.84 54.08 305.72 51.82 303.52 54.94 303.07 56.34 300.24"/><rect class="cls-6" x="88.12" y="302.79" width="50.74" height="3.5"/><rect class="cls-7" x="159.77" y="302.79" width="19.89" height="3.5"/><path class="cls-8" d="M226,397a6.48,6.48,0,1,1,2.91-7A6.45,6.45,0,0,1,226,397Z" transform="translate(-184.92 -58.3)"/><path class="cls-2" d="M224.51,390.73a2,2,0,1,1-2-2A2,2,0,0,1,224.51,390.73Z" transform="translate(-184.92 -58.3)"/><path class="cls-2" d="M226,396.18V397a6.6,6.6,0,0,1-6.88,0v-.82a3.42,3.42,0,0,1,6.84,0Z" transform="translate(-184.92 -58.3)"/><polygon class="cls-2" points="78.44 337.47 69.84 337.47 73.35 333.17 69.84 328.87 78.44 328.87 81.95 333.17 78.44 337.47"/><path class="cls-5" d="M263.48,396h-9.25l3.72-4.55-3.72-4.55h9.25l3.71,4.55Zm-8.19-.5h8l3.3-4-3.3-4.05h-8l3.3,4.05Z" transform="translate(-184.92 -58.3)"/><polygon class="cls-2" points="56.34 328.87 57.74 331.7 60.86 332.15 58.6 334.36 59.14 337.47 56.34 336 53.55 337.47 54.08 334.36 51.82 332.15 54.94 331.7 56.34 328.87"/><path class="cls-5" d="M244.39,396.23l-3.13-1.65-3.13,1.65.6-3.49-2.53-2.46,3.5-.51,1.56-3.17,1.56,3.17,3.5.51-2.53,2.46ZM241.26,394l2.46,1.29-.47-2.74,2-1.94-2.76-.4-1.23-2.5-1.23,2.5-2.75.4,2,1.94-.47,2.74Z" transform="translate(-184.92 -58.3)"/><rect class="cls-6" x="88.12" y="331.42" width="50.74" height="3.5"/><rect class="cls-7" x="159.77" y="331.42" width="19.89" height="3.5"/></g></svg>