<svg xmlns="http://www.w3.org/2000/svg" viewBox="0 0 750 500"><g id="freepik--background-complete--inject-2"><path d="M667.63,158.51H541V71.87H667.63Zm-125.64-1H666.63V72.87H542Z" style="fill:#ebebeb"></path><path d="M550.89,77.46a2.52,2.52,0,1,1-2.52-2.52A2.52,2.52,0,0,1,550.89,77.46Z" style="fill:#a6a6a6"></path><path d="M561.18,77.46a2.52,2.52,0,1,1-2.52-2.52A2.52,2.52,0,0,1,561.18,77.46Z" style="fill:#ebebeb"></path><path d="M571.47,77.46A2.52,2.52,0,1,1,569,74.94,2.52,2.52,0,0,1,571.47,77.46Z" style="fill:#1B84FF"></path><rect x="541.49" y="81.89" width="125.64" height="1" style="fill:#ebebeb"></rect><path d="M230.47,335.58H103.83V248.94H230.47Zm-125.64-1H229.47V249.94H104.83Z" style="fill:#ebebeb"></path><path d="M113.73,254.52a2.52,2.52,0,1,1-2.52-2.52A2.52,2.52,0,0,1,113.73,254.52Z" style="fill:#a6a6a6"></path><path d="M124,254.52A2.52,2.52,0,1,1,121.5,252,2.52,2.52,0,0,1,124,254.52Z" style="fill:#ebebeb"></path><path d="M134.32,254.52A2.53,2.53,0,1,1,131.8,252,2.52,2.52,0,0,1,134.32,254.52Z" style="fill:#1B84FF"></path><rect x="104.33" y="258.96" width="125.64" height="1" style="fill:#ebebeb"></rect><rect x="203.46" y="76.47" width="242.14" height="153.32" style="fill:#fff"></rect><path d="M445.6,229.79l-242.14.37h-.37v-.37L203,76.47V76h.5l242.14.21h.29v.29Zm0,0-.3-153.32.3.3L203.46,77l.5-.5-.13,153.32-.37-.37Z" style="fill:#c7c7c7"></path><rect x="203.46" y="76.47" width="242.14" height="5.9" style="fill:#c7c7c7"></rect><path d="M209.4,79.42a1.27,1.27,0,1,1-1.27-1.27A1.27,1.27,0,0,1,209.4,79.42Z" style="fill:#c7c7c7"></path><path d="M214.59,79.42a1.27,1.27,0,1,1-1.27-1.27A1.27,1.27,0,0,1,214.59,79.42Z" style="fill:#fff"></path><path d="M219.79,79.42a1.28,1.28,0,1,1-1.28-1.27A1.27,1.27,0,0,1,219.79,79.42Z" style="fill:#1B84FF"></path><rect x="203.46" y="82.37" width="242.14" height="23.14" style="fill:#ebebeb"></rect><rect x="231.2" y="90.88" width="199.5" height="5.64" style="fill:#fff"></rect><path d="M430.76,96.58H231.14V90.82H430.76Zm-199.5-.12H430.64V90.94H231.26Z" style="fill:#c7c7c7"></path><path d="M235.56,94.92l-.4.3-.61-.81-.13-.17-.13-.18h0a.46.46,0,0,0,.15-.09l0,0a.71.71,0,0,0,.19-.23h0l.14.18.13.18Z" style="fill:#ebebeb"></path><path d="M234.93,94.08l-.13-.18a.78.78,0,0,0,.11-.2l-.15-.2v0a.5.5,0,0,1-.05.13.24.24,0,0,1,0,.1.71.71,0,0,1-.19.23l.06,0h0l.13.17.13.17.48.63-.06,0-.47-.63-.13-.17-.13-.17h0l0,0a.46.46,0,0,1-.15.09l-.05,0-.16,0h0l.14.18.21-.08.13.17.61.81.4-.3Z" style="fill:#ebebeb"></path><path d="M234.77,92.61A1.09,1.09,0,0,0,233,93.94a1.07,1.07,0,0,0,1.17.38l.21-.08.15-.1,0,0,.05-.05a1.22,1.22,0,0,0,.15-.17.78.78,0,0,0,.11-.2A1.08,1.08,0,0,0,234.77,92.61Zm-.07,1a.24.24,0,0,1,0,.1.71.71,0,0,1-.19.23l0,0a.46.46,0,0,1-.15.09l-.05,0-.16,0h-.16a.86.86,0,1,1,.68-1.39.84.84,0,0,1,.16.73A.5.5,0,0,1,234.7,93.61Z" style="fill:#ebebeb"></path><path d="M234.91,93.7a1.09,1.09,0,0,0-1.67-1.29,1.1,1.1,0,0,0-.2,1.53,1.07,1.07,0,0,0,1.17.38l.21-.08.13.17.15-.1,0,0,.05-.05a.75.75,0,0,0,.15-.16l-.13-.18A.78.78,0,0,0,234.91,93.7Zm-.29.09a.52.52,0,0,1-.1.11l-.05,0,0,0-.12.08h0a.58.58,0,0,1-.22.08.88.88,0,0,1-.86-.33.9.9,0,0,1-.18-.65.94.94,0,0,1,.34-.58.9.9,0,0,1,.54-.18.88.88,0,0,1,.69.34.91.91,0,0,1,.16.76,1.47,1.47,0,0,1-.1.22Z" style="fill:#ebebeb"></path><polygon points="210.95 95.63 208.9 93.74 210.95 91.77 211.27 92.11 209.57 93.73 211.26 95.29 210.95 95.63" style="fill:#fff"></polygon><polygon points="215.91 91.77 217.97 93.66 215.91 95.63 215.6 95.3 217.29 93.67 215.6 92.11 215.91 91.77" style="fill:#fff"></polygon><path d="M438.87,96a2.64,2.64,0,0,1-.79.33A2.7,2.7,0,0,1,436,96a2.65,2.65,0,0,1-1.21-1.66A2.72,2.72,0,1,1,438.87,96Z" style="fill:#dbdbdb"></path><path d="M438.26,93.39a.83.83,0,1,1-.82-.83A.83.83,0,0,1,438.26,93.39Z" style="fill:#fff"></path><path d="M438.87,95.67V96a2.64,2.64,0,0,1-.79.33A2.7,2.7,0,0,1,436,96v-.34a1.43,1.43,0,1,1,2.86,0Z" style="fill:#fff"></path><path d="M224.09,96.16a2.68,2.68,0,1,1,2.65-3l-.48.06a2.18,2.18,0,1,0-2.17,2.47,2.2,2.2,0,0,0,1.63-.72l.36.32A2.7,2.7,0,0,1,224.09,96.16Z" style="fill:#fff"></path><polygon points="225.07 92.5 225.23 92.26 226.43 93.06 227.14 91.81 227.4 91.96 226.52 93.48 225.07 92.5" style="fill:#fff"></polygon><rect x="280.69" y="155.17" width="92.05" height="12.56" style="fill:#fff"></rect><path d="M373,168H280.44V154.92H373Zm-92.05-.5h91.55V155.42H280.94Z" style="fill:#c7c7c7"></path><rect x="360.18" y="155.17" width="12.56" height="12.56" style="fill:#a6a6a6"></rect><path d="M370.44,165l-1.16.87L367.13,163l-.79-1a1.93,1.93,0,0,0,.46-.26,1.78,1.78,0,0,0,.59-.77l.84,1.1Z" style="fill:#fff"></path><path d="M368.16,158.28a3.17,3.17,0,1,0-1,4.73,4.17,4.17,0,0,0,.44-.29,3.26,3.26,0,0,0,.66-.68A3.18,3.18,0,0,0,368.16,158.28Zm-1.36,3.43a1.93,1.93,0,0,1-.46.26,1.89,1.89,0,1,1,.81-2.91,1.91,1.91,0,0,1,.24,1.88A1.78,1.78,0,0,1,366.8,161.71Z" style="fill:#fff"></path><rect x="283.31" y="157.63" width="0.67" height="7.62" style="fill:#263238"></rect><rect x="280.69" y="172.62" width="21.26" height="6.74" style="fill:#c7c7c7"></rect><rect x="316.08" y="172.62" width="21.26" height="6.74" style="fill:#a6a6a6"></rect><rect x="351.74" y="172.62" width="21.26" height="6.74" style="fill:#c7c7c7"></rect><rect x="297.35" y="141.56" width="58.72" height="4.08" style="fill:#ebebeb"></rect><path d="M682.39,298.22l-13.12.28-6.66.11c-2.23.05-4.46,0-6.7.06h-.44v-.45L655.41,287v-.5h.5l13.24.06c4.42,0,8.83.11,13.24.16h.28V287c0,1.9-.09,3.79-.13,5.66Zm0,0-.14-5.65c0-1.86-.11-3.7-.13-5.54l.27.28c-4.41.05-8.82.16-13.24.16l-13.24.06.5-.5,0,11.19-.45-.44c2.19,0,4.36,0,6.55.05L669,298Z" style="fill:#ebebeb"></path><path d="M667.62,312.33l-13.12.28-6.66.11c-2.23,0-4.47,0-6.7.06h-.44v-.45l-.06-11.19v-.5h.5l13.24.07c4.42,0,8.83.11,13.24.16h.28v.27c0,1.9-.09,3.79-.14,5.66Zm0,0-.14-5.65c0-1.86-.11-3.7-.13-5.54l.27.28c-4.41.05-8.82.16-13.24.16l-13.24.06.5-.5,0,11.19-.45-.44c2.18,0,4.36,0,6.55.05l6.58.12Z" style="fill:#ebebeb"></path><path d="M94.09,298.22,81,298.5l-6.66.11c-2.23.05-4.46,0-6.69.06h-.45v-.45l0-11.19v-.5h.51l13.24.06c4.41,0,8.82.11,13.24.16h.27V287c0,1.9-.09,3.79-.13,5.66Zm0,0-.15-5.65c0-1.86-.11-3.7-.13-5.54l.28.28c-4.42.05-8.83.16-13.24.16l-13.24.06.49-.5,0,11.19-.44-.44c2.18,0,4.35,0,6.54.05l6.58.12Z" style="fill:#ebebeb"></path><path d="M79.31,312.33l-13.12.28-6.66.11c-2.23,0-4.46,0-6.7.06h-.44v-.45l-.06-11.19v-.5h.5l13.24.07c4.42,0,8.83.11,13.24.16h.28v.27c0,1.9-.09,3.79-.13,5.66Zm0,0-.14-5.65c0-1.86-.11-3.7-.13-5.54l.27.28c-4.41.05-8.82.16-13.24.16l-13.24.06.5-.5,0,11.19-.45-.44c2.19,0,4.36,0,6.55.05l6.58.12Z" style="fill:#ebebeb"></path><path d="M697.17,312.33l-13.13.28-6.66.11c-2.23,0-4.46,0-6.69.06h-.45v-.45l0-11.19v-.5h.51l13.24.07c4.41,0,8.82.11,13.24.16h.27v.27c0,1.9-.09,3.79-.13,5.66Zm0,0-.15-5.65c0-1.86-.11-3.7-.13-5.54l.28.28c-4.42.05-8.83.16-13.24.16l-13.24.06.5-.5-.06,11.19-.44-.44c2.18,0,4.35,0,6.54.05l6.58.12Z" style="fill:#ebebeb"></path><path d="M257.9,257.13l-13.13.28-6.66.11c-2.22.05-4.46,0-6.69.06H231v-.45l-.05-11.19v-.5h.5l13.24.07c4.41,0,8.82.11,13.24.16h.27v.27c0,1.9-.08,3.79-.13,5.66Zm0,0-.14-5.65c-.05-1.86-.12-3.71-.13-5.54l.27.28c-4.42.05-8.83.16-13.24.16l-13.24.06.5-.5-.06,11.19-.44-.44c2.18,0,4.36,0,6.54.05l6.58.11Z" style="fill:#ebebeb"></path><path d="M243.13,271.24l-13.13.28-6.66.11c-2.22.05-4.46,0-6.69.06h-.45v-.45l0-11.19v-.5h.51l13.24.07c4.41,0,8.82.11,13.24.16h.27v.27c0,1.9-.09,3.79-.13,5.66Zm0,0-.15-5.65c0-1.86-.11-3.71-.13-5.54l.28.28c-4.42.05-8.83.15-13.24.16l-13.24.06.5-.5-.06,11.19-.44-.44c2.18,0,4.35,0,6.54.05l6.58.11Z" style="fill:#ebebeb"></path><path d="M272.67,271.24l-13.12.28-6.67.11c-2.22.05-4.46,0-6.69.06h-.44v-.45l-.05-11.19v-.5h.5l13.24.07c4.41,0,8.83.11,13.24.16H273v.27c0,1.9-.08,3.79-.13,5.66Zm0,0-.14-5.65c0-1.86-.11-3.71-.13-5.54l.27.28c-4.41.05-8.83.15-13.24.16l-13.24.06.5-.5-.05,11.19-.45-.44c2.18,0,4.36,0,6.55.05l6.57.11Z" style="fill:#ebebeb"></path><path d="M547.88,165.06l-13.12.28-6.66.11c-2.23.05-4.46,0-6.7.05H521v-.45l-.06-11.19v-.5h.5l13.24.06c4.42,0,8.83.12,13.24.17h.28v.27c0,1.9-.09,3.79-.13,5.65Zm0,0-.14-5.65c0-1.87-.11-3.71-.13-5.54l.27.27c-4.41.05-8.82.16-13.24.17l-13.24.06.5-.5,0,11.19-.45-.45c2.19,0,4.36,0,6.55.06l6.58.11Z" style="fill:#ebebeb"></path><path d="M680.86,56.38l-13.12.28-6.66.11c-2.23,0-4.47,0-6.7.06h-.44v-.45l-.06-11.19v-.5h.5l13.24.06c4.42,0,8.83.12,13.24.17h.28v.27c0,1.9-.09,3.79-.13,5.65Zm0,0-.14-5.65c0-1.87-.11-3.71-.13-5.54l.27.27c-4.41,0-8.82.16-13.24.17l-13.24.06.5-.5,0,11.19-.45-.45c2.18,0,4.36,0,6.55.06l6.58.11Z" style="fill:#ebebeb"></path><path d="M695.63,70.49l-13.12.28-6.66.11c-2.23.05-4.46,0-6.7.05h-.44v-.45l-.06-11.19v-.5h.5l13.24.06c4.42,0,8.83.12,13.24.17h.28v.27c0,1.9-.09,3.79-.13,5.65Zm0,0-.14-5.65c0-1.87-.11-3.71-.13-5.54l.27.27c-4.41,0-8.82.16-13.24.17l-13.24.06.5-.5,0,11.19-.45-.45c2.19,0,4.36,0,6.55.06l6.58.11Z" style="fill:#ebebeb"></path><path d="M79.36,56.39l-13.13.28-6.66.11c-2.22,0-4.46,0-6.69.06h-.44v-.45l0-11.19v-.5h.5l13.24.07c4.41,0,8.83.11,13.24.16h.27v.27c0,1.9-.08,3.79-.13,5.66Zm0,0-.14-5.65c0-1.87-.11-3.71-.13-5.54l.27.27c-4.41.06-8.83.16-13.24.17l-13.24.06.5-.5-.06,11.19L52.88,56c2.18,0,4.36,0,6.54,0l6.58.11Z" style="fill:#ebebeb"></path><rect x="537.34" y="291.92" width="97.79" height="121.87" style="fill:#ebebeb"></rect><rect x="532.6" y="286.89" width="107.26" height="5.02" style="fill:#dbdbdb"></rect><rect x="639.86" y="286.89" width="33.73" height="5.02" style="fill:#ebebeb"></rect><rect x="635.12" y="291.92" width="33.13" height="121.87" style="fill:#dbdbdb"></rect><path d="M624.6,349H547.86V305.66H624.6Zm-76.49-.25h76.24V305.91H548.11Z" style="fill:#c7c7c7"></path><rect x="575.52" y="318.34" width="14.94" height="8.59" style="fill:#c7c7c7"></rect><path d="M595,326.4H579.81v-7.54H595Zm-14.94-.25h14.69v-7H580.06Z" style="fill:#c7c7c7"></path><path d="M624.6,403.51H547.86V360.14H624.6Zm-76.49-.25h76.24V360.39H548.11Z" style="fill:#c7c7c7"></path><rect x="575.52" y="372.82" width="14.94" height="8.59" style="fill:#c7c7c7"></rect><path d="M595,380.88H579.81v-7.54H595Zm-14.94-.25h14.69v-7H580.06Z" style="fill:#c7c7c7"></path></g><g id="freepik--Shadow--inject-2"><ellipse cx="375" cy="451.92" rx="153.5" ry="18.45" style="fill:#ebebeb"></ellipse></g><g id="freepik--Floor--inject-2"><polygon points="58.88 413.79 137.91 413.54 216.94 413.45 375 413.29 533.06 413.45 612.09 413.54 691.12 413.79 612.09 414.03 533.06 414.12 375 414.28 216.94 414.12 137.91 414.03 58.88 413.79" style="fill:#263238"></polygon></g><g id="freepik--Lines--inject-2"><path d="M252.25,94.09a9.16,9.16,0,0,1-.5-3.16,9,9,0,0,1,.5-3.17,9,9,0,0,1,.5,3.17A9.4,9.4,0,0,1,252.25,94.09Z" style="fill:#263238"></path><path d="M245.8,96a9.19,9.19,0,0,1-2-2.5,8.86,8.86,0,0,1-1.15-3A10.38,10.38,0,0,1,245.8,96Z" style="fill:#263238"></path><path d="M241.15,100.78a9.39,9.39,0,0,1-3-1.15,9.22,9.22,0,0,1-2.49-2,8.94,8.94,0,0,1,3,1.15A9.34,9.34,0,0,1,241.15,100.78Z" style="fill:#263238"></path><path d="M239.53,107.29a9.15,9.15,0,0,1-3.16.49,9,9,0,0,1-3.17-.5,9.46,9.46,0,0,1,3.17-.5A9.17,9.17,0,0,1,239.53,107.29Z" style="fill:#263238"></path><path d="M241.39,113.73a9.53,9.53,0,0,1-2.49,2,9.15,9.15,0,0,1-3,1.14,9,9,0,0,1,2.49-2A9.39,9.39,0,0,1,241.39,113.73Z" style="fill:#263238"></path><path d="M246.22,118.39a9.48,9.48,0,0,1-1.15,3,9.14,9.14,0,0,1-2,2.48,10.16,10.16,0,0,1,3.17-5.47Z" style="fill:#263238"></path><path d="M252.73,120a9.46,9.46,0,0,1,.5,3.17,9.21,9.21,0,0,1-.51,3.16,10.37,10.37,0,0,1,0-6.33Z" style="fill:#263238"></path><path d="M259.18,118.14a9.38,9.38,0,0,1,2,2.5,9.15,9.15,0,0,1,1.14,3,10.18,10.18,0,0,1-3.15-5.49Z" style="fill:#263238"></path><path d="M263.83,113.31a9.18,9.18,0,0,1,3,1.16,9.3,9.3,0,0,1,2.49,2,8.86,8.86,0,0,1-3-1.15A9,9,0,0,1,263.83,113.31Z" style="fill:#263238"></path><path d="M265.44,106.8a9.2,9.2,0,0,1,3.17-.49,8.93,8.93,0,0,1,3.16.5,10.17,10.17,0,0,1-6.33,0Z" style="fill:#263238"></path><path d="M263.59,100.36a10.31,10.31,0,0,1,5.48-3.16,9.3,9.3,0,0,1-2.49,2A9.39,9.39,0,0,1,263.59,100.36Z" style="fill:#263238"></path><path d="M258.76,95.71a10.24,10.24,0,0,1,3.17-5.48,9.18,9.18,0,0,1-1.16,3A9.3,9.3,0,0,1,258.76,95.71Z" style="fill:#263238"></path><path d="M459.26,183.81a9.2,9.2,0,0,1-.49-3.17,8.93,8.93,0,0,1,.5-3.16,9.4,9.4,0,0,1,.5,3.16A9.23,9.23,0,0,1,459.26,183.81Z" style="fill:#263238"></path><path d="M452.82,185.66a10.31,10.31,0,0,1-3.16-5.48,9,9,0,0,1,2,2.49A9.39,9.39,0,0,1,452.82,185.66Z" style="fill:#263238"></path><path d="M448.16,190.49a10.26,10.26,0,0,1-5.47-3.17,10.33,10.33,0,0,1,5.47,3.17Z" style="fill:#263238"></path><path d="M446.55,197a9.2,9.2,0,0,1-3.16.5,9.46,9.46,0,0,1-3.17-.5,9,9,0,0,1,3.17-.5A9.4,9.4,0,0,1,446.55,197Z" style="fill:#263238"></path><path d="M448.41,203.45a9.19,9.19,0,0,1-2.5,2,9.3,9.3,0,0,1-3,1.15,10.21,10.21,0,0,1,5.49-3.16Z" style="fill:#263238"></path><path d="M453.24,208.1a10.24,10.24,0,0,1-3.17,5.48,8.94,8.94,0,0,1,1.15-3A9.34,9.34,0,0,1,453.24,208.1Z" style="fill:#263238"></path><path d="M459.75,209.72a9.15,9.15,0,0,1,.49,3.16,8.89,8.89,0,0,1-.5,3.16,9.4,9.4,0,0,1-.5-3.16A9.13,9.13,0,0,1,459.75,209.72Z" style="fill:#263238"></path><path d="M466.19,207.86a9.53,9.53,0,0,1,2,2.49,9.15,9.15,0,0,1,1.14,3,9,9,0,0,1-2-2.49A9.39,9.39,0,0,1,466.19,207.86Z" style="fill:#263238"></path><path d="M470.85,203a9.34,9.34,0,0,1,3,1.15,9,9,0,0,1,2.49,2,10.16,10.16,0,0,1-5.47-3.17Z" style="fill:#263238"></path><path d="M472.46,196.52a10.27,10.27,0,0,1,6.33,0,9,9,0,0,1-3.17.5A9.4,9.4,0,0,1,472.46,196.52Z" style="fill:#263238"></path><path d="M470.6,190.07a10.38,10.38,0,0,1,5.49-3.16,10.21,10.21,0,0,1-5.49,3.16Z" style="fill:#263238"></path><path d="M465.77,185.42a9.18,9.18,0,0,1,1.16-3,9.3,9.3,0,0,1,2-2.49,8.94,8.94,0,0,1-1.15,3A9.18,9.18,0,0,1,465.77,185.42Z" style="fill:#263238"></path></g><g id="freepik--Character--inject-2"><path d="M293.3,451.26c2.26.73,68.93-.1,71.36-1.7.93-.58-3.75-63.31-3.75-63.31l-43.08.43,4.58,42s-24.5,11.34-27,13.37S291,450.54,293.3,451.26Z" style="fill:#d3766a"></path><path d="M293.3,451.26c2.26.73,68.93-.11,71.36-1.7.43-.26-.33-13.72-1.27-28.16H321.62l.79,7.24S297.9,440,295.41,442,291,450.54,293.3,451.26Z" style="fill:#fff"></path><path d="M292.57,452.18c2.38.77,69.7.14,72.26-1.53,1-.61-.43-22.82-.43-22.94H322.75l0,.74s-25.88,11.87-28.51,14S290.19,451.41,292.57,452.18Z" style="fill:#a6a6a6"></path><path d="M292.75,449.54c11.44-.39,57.62-.87,69-.39.09,0,.09.07,0,.07-11.33.64-57.51.74-69,.5C292.51,449.72,292.51,449.55,292.75,449.54Z" style="fill:#263238"></path><path d="M317.88,427.88c4.49-.88,10-.24,13.48,2.93.13.13,0,.32-.19.27a63,63,0,0,0-13.27-2.63A.29.29,0,0,1,317.88,427.88Z" style="fill:#263238"></path><path d="M314.65,429.87c4.49-.88,10-.24,13.48,2.93.13.13-.05.32-.19.27a63,63,0,0,0-13.27-2.63A.29.29,0,0,1,314.65,429.87Z" style="fill:#263238"></path><path d="M311.42,431.86c4.49-.88,10-.24,13.47,2.93.14.12,0,.31-.18.27a63.15,63.15,0,0,0-13.27-2.63A.29.29,0,0,1,311.42,431.86Z" style="fill:#263238"></path><path d="M318.06,426.87h46.38s-7.75-107.56-7.47-109c.46-2.42,3.2-13.39,6.85-27.71,1.14-4.49,2.37-9.29,3.65-14.28,3.46-13.48,7.27-28.21,10.59-41,5-19.2,8.88-34.12,8.88-34.12H347.63s-4.58,14.52-10.35,33.42c-9.41,30.71-22,73-23.22,83.25C312.55,329.84,318.06,426.87,318.06,426.87Z" style="fill:#455a64"></path><path d="M320.21,418.42c7.07-.15,5-.21,12.12-.28,3.46,0,26.2-.23,29.44.31a.07.07,0,0,1,0,.14c-3.24.54-26,.34-29.44.31-7.08-.07-5.05-.13-12.12-.28A.1.1,0,0,1,320.21,418.42Z" style="fill:#263238"></path><path d="M379.79,206.06l-7.2,25.39-7,25.44c-2.34,8.48-4.6,17-6.86,25.49s-4.48,17-6.56,25.58c-.5,2.14-1,4.28-1.43,6.46-.12.54-.19,1.1-.29,1.65,0,.3-.06.64-.05.92l.07.83,6.16,93.69,0,.28.52-.32-5.68-93.73-.06-.82c0-.26,0-.48,0-.72.1-.53.17-1.06.28-1.6.43-2.14,1-4.28,1.45-6.41,4.13-17.09,8.72-34.08,13.19-51.1Z" style="fill:#263238"></path><path d="M348.57,200.73c2.73,21.11,12.61,56.19,16.4,84.91,8.87-34.8,22-84.91,22-84.91Z" style="fill:#263238"></path><path d="M443.32,450.93c-2.28.7-58.28,1-60.7-.67-.94-.6-1.27-10-1.34-21.46v-.36c0-2.35-5.43-41.9-5.43-41.9l42.3.86L423,428.94l0,.71s15.8,9.9,18.28,12S445.6,450.23,443.32,450.93Z" style="fill:#d3766a"></path><path d="M380.49,421.4c.48,3.78.79,6.48.79,7v.36c.07,11.42.4,20.86,1.33,21.46,2.43,1.62,58.43,1.38,60.71.67s.43-7.26-2-9.31-18.28-12-18.28-12l0-.71-.89-7.54Z" style="fill:#fff"></path><path d="M446.08,452.18c-2.38.77-62.6.14-65.17-1.53-1-.61.44-22.82.44-22.94H423l0,.74s18.78,11.87,21.41,14S448.46,451.41,446.08,452.18Z" style="fill:#a6a6a6"></path><path d="M445.9,449.54c-11.44-.39-50.52-.87-61.86-.39-.09,0-.09.07,0,.07,11.33.64,50.42.74,61.86.5C446.14,449.72,446.14,449.55,445.9,449.54Z" style="fill:#263238"></path><path d="M419.61,429.11c-5.7-1.58-12.8-1.57-17.43,1.57-.18.12,0,.36.23.32a89.57,89.57,0,0,1,17.14-1.25A.32.32,0,0,0,419.61,429.11Z" style="fill:#263238"></path><path d="M423.64,431.77c-5.71-1.58-12.81-1.57-17.44,1.57-.18.12,0,.36.23.32a89.57,89.57,0,0,1,17.14-1.25A.32.32,0,0,0,423.64,431.77Z" style="fill:#263238"></path><path d="M427.66,434.43c-5.71-1.58-12.8-1.57-17.43,1.57-.18.12,0,.36.22.33a88.87,88.87,0,0,1,17.15-1.26A.32.32,0,0,0,427.66,434.43Z" style="fill:#263238"></path><path d="M348.57,200.73s6,36.33,6.37,37.5c0,0,2.22,1.05,6.22,2.89l16.29,185.56,46.61.19L399.44,200.73Z" style="fill:#455a64"></path><path d="M379.05,418.39c7.12-.11,5.07-.18,12.19-.22,3.49,0,26.39-.12,29.64.43.07,0,.07.14,0,.15-3.26.52-26.15.23-29.64.18-7.12-.1-5.07-.15-12.19-.33C378.91,418.6,378.92,418.4,379.05,418.39Z" style="fill:#263238"></path><path d="M353,237.1a86.26,86.26,0,0,1,13.33,7c.16.1,0,.36-.14.27-4.5-2.18-9.09-4.28-13.46-6.71A.3.3,0,0,1,353,237.1Z" style="fill:#263238"></path><path d="M354.72,216.29c.73,4.35,1.14,8.76,1.63,13.14.12,1,.24,2.1.35,3.15a6.17,6.17,0,0,0,.76,2.77c1,1.46,2.64,2.15,4.17,2.82.18.08.11.36-.09.3a10.17,10.17,0,0,1-4.43-2.35c-1.39-1.48-1.35-3.71-1.57-5.62a122.6,122.6,0,0,1-1-14.19C354.52,216.2,354.7,216.17,354.72,216.29Z" style="fill:#263238"></path><path d="M360,217.62c.16,3.13.51,6.27.77,9.39.13,1.54.24,3.09.33,4.63s.28,3.18.23,4.75a.1.1,0,0,1-.19,0c-.26-1.48-.29-3-.42-4.53s-.23-3.17-.32-4.76c-.18-3.16-.27-6.35-.55-9.5C359.84,217.52,360,217.52,360,217.62Z" style="fill:#263238"></path><polygon points="362.11 245.78 364.6 267.1 367.2 288.41 372.57 331 382.09 414.17 373.56 330.88 367.96 288.31 365.08 267.04 362.11 245.78" style="fill:#263238"></polygon><path d="M366.09,148.78c-8.46,5.8-34.79,23.22-47.25,20.67-8.23-1.69-32.94-13.42-38.42-18.14-2.27-2,13.67-22.48,16.68-21.08,5.6,2.58,26.77,15.61,29.27,16.17,3.17.72,15.52-3.51,36.35-7.18C373.43,137.34,373.39,143.77,366.09,148.78Z" style="fill:#d3766a"></path><path d="M288.89,120c-4-1.78-8.36-4.13-12.9-4.42s-8.8,5.38-8.95,7.09.69,12.55,5.22,12.92,2.48-8.06,2.73-9,.52-2.11,1.37-2,15.23,8.49,15.23,8.49Z" style="fill:#d3766a"></path><path d="M288.55,120.62c-.26,0-12-5.82-16.55-6.11s-8.8,5.38-8.94,7.1.68,12.54,5.22,12.92,2.47-8.07,2.72-9,.52-2.12,1.37-2,15.23,8.5,15.23,8.5Z" style="fill:#d3766a"></path><path d="M269.86,134.08a5.36,5.36,0,0,0,1-2.61,9.17,9.17,0,0,0,.07-2.91,15.65,15.65,0,0,1-.34-2.54,5.07,5.07,0,0,1,.83-2.35c.4-.6,1.05-.33,1.61-.08a21.25,21.25,0,0,1,2.37,1.32c.83.5,1.65,1,2.47,1.53a22.32,22.32,0,0,1,2.51,1.67c.06,0,0,.15-.06.11a24,24,0,0,1-2.22-1.22c-.82-.47-1.65-.94-2.49-1.4s-1.54-.9-2.33-1.32c-.28-.14-.83-.5-1.17-.45s-.59.88-.69,1.15a4.33,4.33,0,0,0,0,2.47,12.54,12.54,0,0,1,.27,2.52,6.74,6.74,0,0,1-.39,2.35,9.13,9.13,0,0,1-1.24,1.86C269.93,134.26,269.79,134.16,269.86,134.08Z" style="fill:#263238"></path><path d="M301.94,133.7s-11.61-12.49-14-15c-4.87-5-26.22-15.85-29.28-16.43s-4.68,5.65,9.77,13.44c7.62,4.11,8.66,8.76,8.3,11.25s-3.14,7-7.35,6.52-6.44-6.85-10.26-7.86-1.85,6.32.55,10.65a25.91,25.91,0,0,0,10.62,9.8c3.54,1.67,14.43,7.47,14.43,7.47Z" style="fill:#d3766a"></path><path d="M264.35,130.1c1.48,1.36,3.15,3.1,5.24,3.35s3.67-1,4.82-2.7A8,8,0,0,0,276,125a9.85,9.85,0,0,0-2.5-5,24,24,0,0,0-5.4-4.28c-.09,0,0-.18.1-.13,1.87,1,7.7,4,8.47,9.44a8.23,8.23,0,0,1-1.67,5.85c-1.07,1.6-2.57,3.11-4.63,3.11-2.51,0-4.49-2.21-6.15-3.88C264.14,130.07,264.27,130,264.35,130.1Z" style="fill:#263238"></path><path d="M303.37,130.25l-14.09,30.69s25.51,12.54,33.33,11.16,32.1-14,44.16-23.22c8.3-6.36,5.39-12.58-6.49-10.46-11.63,2.08-31.86,7.11-32.95,7.38S303.37,130.25,303.37,130.25Z" style="fill:#1B84FF"></path><path d="M303.17,149.41c.9-2.32,4.43-11.61,5.13-14,0,0-.05-.07-.07,0-1.11,2.14-4.86,11.21-5.77,13.53a136.16,136.16,0,0,0-5,14c0,.08.11.15.15.06C299.77,158.62,301.4,154,303.17,149.41Z" style="fill:#263238"></path><path d="M366.78,148.89c-12.07,9.24-36.34,21.84-44.17,23.21a15.59,15.59,0,0,1-5.53-.42l54.19-30.83C372.1,142.93,370.68,145.89,366.78,148.89Z" style="opacity:0.1"></path><path d="M339.24,220.67s64.72,1.9,65.05,1.49c.89-1.1-12.51-62.24-27.1-80.48-5.44-6.8-15.46-5.18-19.18.65C344,164.25,339.16,220.17,339.24,220.67Z" style="fill:#1B84FF"></path><path d="M404.19,220.45l-64.84-1.25c0-.46.09-1,.15-1.67l64.42,1.25C404,219.42,404.12,220,404.19,220.45Zm-1.06-5.73-63.21-1.22c-.06.58-.12,1.14-.18,1.66l63.73,1.24C403.37,215.87,403.25,215.31,403.13,214.72Zm-.87-4.06-61.87-1.2c-.07.58-.14,1.13-.2,1.67l62.44,1.21C402.51,211.8,402.38,211.24,402.26,210.66Zm-.94-4.06-60.42-1.17c-.07.57-.14,1.13-.21,1.67l61,1.18Q401.52,207.47,401.32,206.6Zm-1-4.06-58.87-1.14-.24,1.67,59.53,1.15Zm-1-4.06-57.24-1.11c-.09.57-.18,1.12-.26,1.67l57.93,1.12C399.59,199.61,399.45,199.05,399.3,198.48Zm-1.07-4.06-55.53-1.08c-.1.57-.19,1.12-.27,1.67l56.25,1.09Q398.45,195.28,398.23,194.42Zm-1.12-4.06-53.73-1c-.1.56-.19,1.11-.29,1.66L397.58,192C397.43,191.48,397.27,190.92,397.11,190.36ZM396,186.29l-51.83-1c-.11.56-.21,1.11-.31,1.66l52.62,1C396.28,187.41,396.11,186.85,396,186.29Zm-1.21-4.06-49.83-1c-.11.56-.23,1.12-.33,1.68l50.67,1Zm-1.27-4.07-47.71-.92-.36,1.67,48.61.94Zm-1.31-4.07-45.48-.88c-.13.56-.27,1.12-.4,1.68l46.43.9C392.53,175.22,392.34,174.66,392.16,174.09Zm-1.4-4.06-43.09-.84-.42,1.67,44.1.86C391.16,171.15,391,170.59,390.76,170ZM389.31,166l-40.56-.79c-.16.55-.31,1.1-.46,1.66l41.63.81Zm-1.57-4.08-37.8-.73c-.18.55-.34,1.1-.5,1.66l39,.76C388.18,163,388,162.44,387.74,161.89Zm-1.67-4.07-34.82-.67c-.19.55-.38,1.1-.56,1.66l36.09.69C386.54,158.94,386.31,158.37,386.07,157.82Zm-1.81-4.08-31.55-.61c-.21.55-.42,1.1-.62,1.66l32.93.64C384.77,154.86,384.51,154.29,384.26,153.74Zm-2-4.08-27.83-.54c-.25.54-.49,1.1-.73,1.66l29.42.57C382.81,150.77,382.52,150.21,382.23,149.66Zm-2.33-4.08-23.52-.46c-.3.53-.58,1.08-.87,1.65l25.4.5C380.58,146.68,380.25,146.12,379.9,145.58Zm-2.71-3.9c-.06-.07-.11-.14-.17-.2l-18.1-.35a9.47,9.47,0,0,0-.91,1.2c-.09.15-.19.3-.27.45l20.57.39C377.94,142.65,377.57,142.15,377.19,141.68Zm-8-4.39h-.1l-1.83,0h-.08a12.67,12.67,0,0,0-5.36,1.56l12.46.24A11.62,11.62,0,0,0,369.19,137.29Z" style="opacity:0.1"></path><path d="M371.82,150.73c4,9.45,16.73,38.33,28.59,42.91,7.84,3,34.31,7.19,41.47,6.18,3-.42,1.31-27-2-27.43-6.11-.84-30.1-.59-33.37-2.2-2.91-1.44-11.16-11.34-26.71-25.69C371.83,137.13,368.39,142.56,371.82,150.73Z" style="fill:#d3766a"></path><path d="M438.61,199.79c2.82.5,16,1.67,19.7,1.17s14.37-2.7,14.28-5.59-3.26-2.5-3.26-2.5,4.35-1.64,4-4.55-5.26-2.13-5.26-2.13,4.34-2,3.78-4.89-5.36-1.26-5.36-1.26,4-1.66,2.59-3.83c-1.76-2.61-8.88,1.28-13,1.52-.95.05-19.23-.27-19.23-.27Z" style="fill:#d3766a"></path><path d="M466.89,179.91c-5.24,2.85-8,3.19-13.9,2.8-.11,0-.15.17,0,.18,5.71.9,9.27,1,14.08-2.73C467.28,180,467.14,179.77,466.89,179.91Z" style="fill:#263238"></path><path d="M468.48,186c-5.71,2.48-8.73,2.88-14.91,2.92-.08,0-.09.15,0,.16,6.06.46,9.61.45,15-2.78C468.8,186.12,468.74,185.84,468.48,186Z" style="fill:#263238"></path><path d="M469,192.86c-5.7,2-9,2.58-15,1.86a.11.11,0,0,0,0,.22c6,1.33,10.16.64,15.07-1.9C469.4,192.87,469.38,192.73,469,192.86Z" style="fill:#263238"></path><path d="M435.55,172.59s6.74-3.25,10-4,16.54.82,16.36,3.71c-.23,3.72-8.08,4.31-11.95,4.09,0,0-.54,8.62-6.08,10.26S435.55,172.59,435.55,172.59Z" style="fill:#d3766a"></path><path d="M461.52,173.27c-2.66,3.24-7.74,2.63-11.51,2.7a.35.35,0,0,0-.34.46c-.47,3.6-2.17,8.54-5.57,10.3a.09.09,0,0,0,.07.17c3.9-1.4,6-6.12,6.23-10.09,3.87,0,9,.37,11.15-3.52C461.57,173.27,461.54,173.25,461.52,173.27Z" style="fill:#263238"></path><path d="M434.5,168.48l-4.75,33.43s-28.24-3.25-34.08-8.64-19.44-29.12-24.58-43.42c-3.54-9.84,2.28-13.5,11.12-5.29,8.65,8,23,23.22,23.72,24S434.5,168.48,434.5,168.48Z" style="fill:#1B84FF"></path><path d="M424.3,184.7c.5-2.44,2.55-12.17,3.25-14.54,0,0,.08,0,.07,0-.22,2.4-2,12.05-2.46,14.49a135.91,135.91,0,0,1-3.39,14.52c0,.08-.17.07-.16,0C422.18,194.28,423.32,189.5,424.3,184.7Z" style="fill:#263238"></path><path d="M410.73,198.86a59.36,59.36,0,0,1-7.06-1.68,29.63,29.63,0,0,1-6.71-2.81,11.56,11.56,0,0,1-2.8-2.37c-.84-.88-1.61-1.82-2.36-2.78a70.24,70.24,0,0,1-4.21-5.95c-2.66-4.07-5-8.31-7.25-12.61s-4.28-8.7-6.13-13.18c2.3,4.27,4.56,8.54,6.89,12.77,1.17,2.12,2.33,4.23,3.56,6.31s2.41,4.19,3.69,6.23,2.59,4.06,4,6c.69,1,1.42,1.94,2.18,2.87a9.27,9.27,0,0,0,2.63,2.4,29.9,29.9,0,0,0,6.59,2.91A62.17,62.17,0,0,0,410.73,198.86Z" style="fill:#263238"></path><path d="M374.09,160.11c.58.53,1.07,1.09,1.57,1.64l.74.85c.25.29.5.56.74.88a5.28,5.28,0,0,1-1.85-1.39A6.18,6.18,0,0,1,374.09,160.11Z" style="fill:#263238"></path><path d="M361.91,148.15c3.46,1.2,10.1-3.6,12.95-7.74.19-.29.05-3.51.07-7.43,0-2.38.1-5,.34-7.44.05-.49-15.5,2.14-15.5,2.14a38.29,38.29,0,0,1,.52,9.41,5.86,5.86,0,0,1-.2,1s0,.1,0,.16C359.55,140.08,358.57,147,361.91,148.15Z" style="fill:#d3766a"></path><path d="M374.34,125.51c-1.12,4-4.66,13.6-12.75,13a8.72,8.72,0,0,1-1.54-.24c0-.07,0-.11,0-.16a7.06,7.06,0,0,0,.21-1,38.55,38.55,0,0,0-.53-9.41S371,125.78,374.34,125.51Z" style="fill:#263238"></path><path d="M377,106.17c1.84,5.33-.44,21-4.15,24.6-5.37,5.23-14.44,6-19-.48-4.38-6.32-1.05-26.68,3.12-30C363.14,95.43,374.27,98.3,377,106.17Z" style="fill:#d3766a"></path><path d="M364.58,115.83s.08.06.07.1c-.18,1-.22,2.29.69,2.77,0,0,0,.07,0,.06C364.18,118.43,364.24,116.79,364.58,115.83Z" style="fill:#263238"></path><path d="M365.68,114.86c1.71.11,1.37,3.53-.22,3.43S364.24,114.76,365.68,114.86Z" style="fill:#263238"></path><path d="M358.49,115.21s-.09,0-.09.08c-.08,1.06-.34,2.27-1.34,2.53,0,0,0,.06,0,.06C358.25,117.83,358.59,116.23,358.49,115.21Z" style="fill:#263238"></path><path d="M357.65,114c-1.69-.3-2.17,3.11-.6,3.39S359.07,114.25,357.65,114Z" style="fill:#263238"></path><path d="M367.19,113.43a13.62,13.62,0,0,1-1.28-.6,2.32,2.32,0,0,1-1.19-.87.73.73,0,0,1,.21-.86,1.8,1.8,0,0,1,1.82,0,2.66,2.66,0,0,1,1.41,1.29A.78.78,0,0,1,367.19,113.43Z" style="fill:#263238"></path><path d="M356.5,112.14a13.52,13.52,0,0,0,1.4-.21,2.34,2.34,0,0,0,1.38-.49.74.74,0,0,0,.05-.89,1.81,1.81,0,0,0-1.76-.52,2.63,2.63,0,0,0-1.71.85A.77.77,0,0,0,356.5,112.14Z" style="fill:#263238"></path><path d="M364.14,125.76c-.28.23-.57.54-1,.54a2.84,2.84,0,0,1-1.11-.39s-.07,0-.05,0a1.44,1.44,0,0,0,1.29.72,1.14,1.14,0,0,0,.93-.86C364.26,125.76,364.18,125.73,364.14,125.76Z" style="fill:#263238"></path><path d="M363.35,122.48a3.66,3.66,0,0,1-2.58,1.36,4.74,4.74,0,0,1-1.3-.07,1,1,0,0,1-.25-.06l-.23-.06a.27.27,0,0,1-.19-.25h0a.45.45,0,0,1,0-.11h0v-.09c.06-.82.26-2.05.26-2.05-.31.12-1.9.65-1.83.22a54,54,0,0,1,2.5-10.79.1.1,0,0,1,.19,0c-.41,3.39-1.42,6.7-1.88,10.1a6.2,6.2,0,0,1,1.75-.34c.11,0-.44,2.37-.43,2.74a0,0,0,0,0,0,0,5,5,0,0,0,3.86-.78C363.34,122.32,363.42,122.4,363.35,122.48Z" style="fill:#263238"></path><path d="M360,123.46a4.29,4.29,0,0,0,1.65,1.43,1.86,1.86,0,0,0,1.17.14c.86-.17.93-1,.81-1.63a5.11,5.11,0,0,0-.32-1A5.6,5.6,0,0,1,360,123.46Z" style="fill:#263238"></path><path d="M361.63,124.89a1.86,1.86,0,0,0,1.17.14c.86-.17.93-1,.81-1.63A2,2,0,0,0,361.63,124.89Z" style="fill:#ff9bbc"></path><path d="M373,114.77c-1.05-3.11.73-8.3-.82-9.69-3.35-3-10.22,2.76-14.94,2.79s-6.09-2.92-5.27-6.62,4-6.2,9.11-7a19.34,19.34,0,0,1,12.77,3s-1.16-1.85-.73-2.43,2.67,1.21,3.36,2a6.89,6.89,0,0,1,1.11,2.2,7.22,7.22,0,0,1,2.09-.21,4.36,4.36,0,0,1,2.71,1.21c.08.27-1.58.48-2.75.54,0,0,2.18,2.89,2.13,5.36s-3.9,14.2-4.82,14.33C375.75,120.45,373.42,116,373,114.77Z" style="fill:#263238"></path><path d="M379.18,100.3s-.1,0-.06.07a7.68,7.68,0,0,1,2.47,3.5,9.66,9.66,0,0,1,.05,5.09c-.72,3.24-2.31,6.18-3.69,9.18,0,.08.11.16.15.07a34.35,34.35,0,0,0,4-9.89C382.63,105.36,381.94,102,379.18,100.3Z" style="fill:#263238"></path><path d="M372.35,103.88a11.11,11.11,0,0,0-4.14.27,15.53,15.53,0,0,0-3.56,1.76,15.85,15.85,0,0,1-8.44,2.31,0,0,0,0,0,0,.06,13.81,13.81,0,0,0,7.85-1.68,35.15,35.15,0,0,1,3.69-1.95,14.48,14.48,0,0,1,4.59-.53A.12.12,0,1,0,372.35,103.88Z" style="fill:#263238"></path><path d="M371,96a22.06,22.06,0,0,0-5.86-1.94,17.26,17.26,0,0,0-5.91-.2c-3.39.55-6.5,2.7-7.29,6.18a7.37,7.37,0,0,0,.68,5.27.09.09,0,0,0,.17-.08,7.64,7.64,0,0,1,1.74-9c2.78-2.41,6.68-2.59,10.14-2A31.68,31.68,0,0,1,371,96S371,96,371,96Z" style="fill:#263238"></path><path d="M363.88,121.55a4.44,4.44,0,0,1-2.95-5.52h0a4.43,4.43,0,1,1,4,5.7A4.21,4.21,0,0,1,363.88,121.55Zm-2.39-5.35a3.8,3.8,0,1,0,3.85-2.73A3.84,3.84,0,0,0,361.49,116.2Z" style="fill:#1B84FF"></path><path d="M354.66,120c-1.8-.3-2.94-2.49-2.55-4.91a5.29,5.29,0,0,1,1.43-2.9,2.75,2.75,0,0,1,4.66.76,5.29,5.29,0,0,1,.42,3.21c-.37,2.28-2,3.94-3.67,3.87Zm-.71-7.39a4.72,4.72,0,0,0-1.25,2.58c-.34,2.09.58,4,2.05,4.22s2.95-1.26,3.29-3.35a4.67,4.67,0,0,0-.37-2.85,2.36,2.36,0,0,0-1.68-1.37l-.23,0A2.47,2.47,0,0,0,354,112.63Z" style="fill:#1B84FF"></path><path d="M361,116.56l.45-.39c-.57-.67-2-1.66-3.24-.7l.37.47C359.69,115.07,360.94,116.5,361,116.56Z" style="fill:#1B84FF"></path><path d="M380.29,120.85l.56-.18c-.08-.26-.87-2.58-2.14-3s-9.15-.94-9.48-1l0,.59c2.28.15,8.41.62,9.33.93S380.08,120.22,380.29,120.85Z" style="fill:#1B84FF"></path><path d="M374.12,119s3.44-5.09,5.75-3.87-.23,8.56-2.89,9.6a2.73,2.73,0,0,1-3.68-1.41Z" style="fill:#d3766a"></path><path d="M379.09,117.19s.05,0,0,.07c-1.87.79-2.83,2.55-3.5,4.37a1.51,1.51,0,0,1,2.25-.45c.05,0,0,.11-.05.1a1.68,1.68,0,0,0-1.84.62,8.3,8.3,0,0,0-.86,1.51c-.08.17-.39.08-.33-.11l0,0C374.71,120.85,376.52,117.47,379.09,117.19Z" style="fill:#263238"></path></g><g id="freepik--window-3--inject-2"><g style="opacity:0.8"><rect x="435.97" y="153.93" width="242.14" height="153.19" style="fill:#fff"></rect><path d="M678.36,307.36H435.72V153.68H678.36Zm-242.14-.5H677.86V154.18H436.22Z" style="fill:#a6a6a6"></path><rect x="435.97" y="159.83" width="237.84" height="38.65" style="fill:#1B84FF"></rect><rect x="673.81" y="159.82" width="4.29" height="147.29" style="fill:#dbdbdb"></rect><path d="M676,210.89h0a1.11,1.11,0,0,1-1.11-1.11v-48a1.11,1.11,0,0,1,1.11-1.11h0a1.11,1.11,0,0,1,1.11,1.11v48A1.11,1.11,0,0,1,676,210.89Z" style="fill:#a6a6a6"></path><rect x="603.59" y="167.01" width="57.82" height="7.72" style="fill:#fff"></rect><path d="M661.49,174.81h-58v-7.88h58Zm-57.82-.16h57.67v-7.56H603.67Z" style="fill:#c7c7c7"></path><rect x="653.62" y="166.93" width="7.88" height="7.88" style="fill:#455a64"></rect><path d="M660,173l-.71.54L658,171.83l-.48-.64a1.07,1.07,0,0,0,.27-.16,1.13,1.13,0,0,0,.37-.47l.51.67Z" style="fill:#fff"></path><path d="M658.6,168.93a1.94,1.94,0,1,0-.63,2.9l.27-.18a1.77,1.77,0,0,0,.4-.42A1.94,1.94,0,0,0,658.6,168.93Zm-.84,2.1a1.07,1.07,0,0,1-.27.16,1.16,1.16,0,1,1,.49-1.79,1.19,1.19,0,0,1,.15,1.16A1.13,1.13,0,0,1,657.76,171Z" style="fill:#fff"></path><rect x="605.21" y="168.53" width="0.41" height="4.68" style="fill:#c7c7c7"></rect><rect x="467.51" y="167.01" width="133.18" height="7.72" style="fill:#fff"></rect><path d="M600.77,174.81H467.44v-7.88H600.77Zm-133.18-.16h133v-7.56h-133Z" style="fill:#c7c7c7"></path><rect x="469.13" y="168.53" width="0.41" height="4.68" style="fill:#c7c7c7"></rect><polygon points="452.95 173.51 450.14 170.92 452.94 168.23 453.38 168.69 451.06 170.91 453.37 173.05 452.95 173.51" style="fill:#fff"></polygon><polygon points="459.73 168.23 462.54 170.81 459.74 173.5 459.3 173.05 461.62 170.82 459.31 168.69 459.73 168.23" style="fill:#fff"></polygon><rect x="526.53" y="206.99" width="61.32" height="47.05" transform="translate(1114.39 461.03) rotate(180)" style="fill:#1B84FF"></rect><path d="M532.64,217.28a5.57,5.57,0,1,0,4.37-4.37A5.57,5.57,0,0,0,532.64,217.28Z" style="fill:#fff;opacity:0.6000000000000001"></path><polygon points="546.76 243.91 587.86 243.91 567.31 218.58 546.76 243.91" style="fill:#1B84FF"></polygon><polygon points="546.76 243.91 587.86 243.91 567.31 218.58 546.76 243.91" style="opacity:0.2"></polygon><polygon points="526.53 243.93 562.97 243.93 544.75 227.44 526.53 243.93" style="fill:#1B84FF"></polygon><polygon points="526.53 243.93 562.97 243.93 544.75 227.44 526.53 243.93" style="opacity:0.1"></polygon><rect x="526.53" y="243.9" width="61.32" height="10.14" style="fill:#1B84FF"></rect><rect x="526.53" y="243.9" width="61.32" height="10.14" style="opacity:0.1"></rect><rect x="449.09" y="260.55" width="32.43" height="2.73" style="fill:#a6a6a6"></rect><rect x="449.09" y="266.88" width="137.82" height="2.73" style="fill:#ebebeb"></rect><rect x="449.09" y="272.89" width="137.82" height="2.73" style="fill:#ebebeb"></rect><rect x="449.09" y="278.89" width="137.82" height="2.73" style="fill:#ebebeb"></rect><rect x="449.09" y="284.89" width="137.82" height="2.73" style="fill:#ebebeb"></rect><rect x="449.09" y="290.89" width="137.82" height="2.73" style="fill:#ebebeb"></rect><rect x="596.28" y="207.4" width="32.43" height="2.73" style="fill:#a6a6a6"></rect><rect x="596.28" y="213.73" width="68.91" height="2.73" style="fill:#ebebeb"></rect><rect x="596.28" y="219.73" width="68.91" height="2.73" style="fill:#ebebeb"></rect><rect x="596.28" y="225.74" width="68.91" height="2.73" style="fill:#ebebeb"></rect><rect x="596.28" y="231.74" width="68.91" height="2.73" style="fill:#ebebeb"></rect><rect x="596.28" y="242.87" width="68.91" height="2.73" style="fill:#ebebeb"></rect><rect x="596.28" y="248.87" width="68.91" height="2.73" style="fill:#ebebeb"></rect><rect x="596.28" y="254.88" width="68.91" height="2.73" style="fill:#ebebeb"></rect><rect x="596.28" y="260.88" width="68.91" height="2.73" style="fill:#ebebeb"></rect><rect x="596.28" y="266.88" width="68.91" height="2.73" style="fill:#ebebeb"></rect><rect x="596.28" y="278.89" width="68.91" height="2.73" style="fill:#ebebeb"></rect><rect x="596.28" y="284.89" width="46.45" height="2.73" style="fill:#ebebeb"></rect><rect x="644.11" y="283.17" width="0.3" height="6.17" style="fill:#263238"></rect><rect x="449.09" y="206.99" width="32.43" height="7.3" style="fill:#a6a6a6"></rect><rect x="449.09" y="219.32" width="68.81" height="2.73" style="fill:#ebebeb"></rect><rect x="449.09" y="225.33" width="68.81" height="2.73" style="fill:#ebebeb"></rect><rect x="449.09" y="231.33" width="68.81" height="2.73" style="fill:#ebebeb"></rect><rect x="449.09" y="237.33" width="68.81" height="2.73" style="fill:#ebebeb"></rect><rect x="449.09" y="245.32" width="68.81" height="2.73" style="fill:#ebebeb"></rect><rect x="449.09" y="251.32" width="68.81" height="2.73" style="fill:#ebebeb"></rect><rect x="435.97" y="153.93" width="242.14" height="5.9" style="fill:#263238"></rect><path d="M441.92,156.88a1.28,1.28,0,1,1-1.28-1.27A1.27,1.27,0,0,1,441.92,156.88Z" style="fill:#c7c7c7"></path><path d="M447.11,156.88a1.28,1.28,0,1,1-1.28-1.27A1.27,1.27,0,0,1,447.11,156.88Z" style="fill:#fff"></path><path d="M452.3,156.88a1.28,1.28,0,1,1-1.27-1.27A1.27,1.27,0,0,1,452.3,156.88Z" style="fill:#1B84FF"></path></g></g><g id="freepik--window-2--inject-2"><g style="opacity:0.9"><rect x="270.28" y="249.62" width="242.14" height="153.31" style="fill:#fff"></rect><path d="M512.67,403.18H270V249.37H512.67Zm-242.14-.5H512.17V249.87H270.53Z" style="fill:#a6a6a6"></path><rect x="270.28" y="249.62" width="242.14" height="5.9" style="fill:#263238"></rect><circle cx="274.96" cy="252.57" r="1.27" style="fill:#c7c7c7"></circle><circle cx="280.15" cy="252.57" r="1.27" style="fill:#fff"></circle><path d="M286.61,252.57a1.27,1.27,0,1,1-1.27-1.27A1.27,1.27,0,0,1,286.61,252.57Z" style="fill:#1B84FF"></path><rect x="270.28" y="255.52" width="242.14" height="23.14" style="fill:#455a64"></rect><rect x="298.02" y="264.03" width="199.5" height="5.64" style="fill:#fff"></rect><path d="M497.58,269.72H298V264H497.58Zm-199.5-.11H497.47v-5.53H298.08Z" style="fill:#c7c7c7"></path><path d="M302.39,268.06l-.41.3-.61-.81-.13-.17-.13-.17h0a.83.83,0,0,0,.16-.09l0,0a1,1,0,0,0,.19-.22h0l.14.18.13.17Z" style="fill:#ebebeb"></path><path d="M301.75,267.22l-.13-.17a.56.56,0,0,0,.11-.2l-.15-.21h0a.75.75,0,0,1-.09.23,1,1,0,0,1-.19.22l0,0h0l.13.16.13.17.49.64-.06,0-.48-.63-.13-.17-.13-.17h0l0,0a.83.83,0,0,1-.16.09l-.05,0a.49.49,0,0,1-.16,0h0l.14.18a.56.56,0,0,0,.2-.08l.13.17.61.81.41-.3Z" style="fill:#ebebeb"></path><path d="M301.6,265.75a1.11,1.11,0,0,0-1.53-.2,1.09,1.09,0,0,0,1,1.91.56.56,0,0,0,.2-.08,1.19,1.19,0,0,0,.15-.09l0,0,.05-.05a.75.75,0,0,0,.15-.16.56.56,0,0,0,.11-.2A1.12,1.12,0,0,0,301.6,265.75Zm-.07,1a.93.93,0,0,1,0,.1,1,1,0,0,1-.19.22l0,0a.83.83,0,0,1-.16.09l-.05,0a.49.49,0,0,1-.16,0h-.16A.9.9,0,0,1,300,267a.87.87,0,1,1,1.38-1.06.89.89,0,0,1,.15.74A.93.93,0,0,1,301.53,266.76Z" style="fill:#ebebeb"></path><path d="M301.73,266.85a1.12,1.12,0,0,0-.13-1.1,1.11,1.11,0,0,0-1.53-.2,1.09,1.09,0,0,0,1,1.91.56.56,0,0,0,.2-.08l.13.17a.49.49,0,0,0,.15-.1l0,0,.05-.05a.57.57,0,0,0,.15-.16l-.13-.17A.56.56,0,0,0,301.73,266.85Zm-.28.08-.11.12,0,0s0,0,0,0a.47.47,0,0,1-.12.07l0,0a.58.58,0,0,1-.21.07A.87.87,0,0,1,300,267a.91.91,0,0,1-.17-.66.88.88,0,0,1,.33-.58.92.92,0,0,1,.54-.18.88.88,0,0,1,.7.35.85.85,0,0,1,.15.75.77.77,0,0,1-.1.23Z" style="fill:#ebebeb"></path><polygon points="277.78 268.78 275.72 266.88 277.77 264.92 278.09 265.25 276.39 266.88 278.09 268.44 277.78 268.78" style="fill:#fff"></polygon><polygon points="282.73 264.92 284.79 266.81 282.74 268.77 282.42 268.44 284.12 266.81 282.42 265.25 282.73 264.92" style="fill:#fff"></polygon><path d="M505.69,269.16a3,3,0,0,1-.78.33,2.72,2.72,0,0,1-2.08-.33,2.78,2.78,0,0,1-1.21-1.67,2.72,2.72,0,1,1,4.07,1.67Z" style="fill:#dbdbdb"></path><path d="M505.09,266.54a.83.83,0,1,1-.83-.83A.83.83,0,0,1,505.09,266.54Z" style="fill:#fff"></path><path d="M505.69,268.82v.34a3,3,0,0,1-.78.33,2.72,2.72,0,0,1-2.08-.33v-.34a1.43,1.43,0,0,1,2.86,0Z" style="fill:#fff"></path><path d="M290.92,269.3a2.68,2.68,0,1,1,2.65-3l-.49.06a2.18,2.18,0,1,0-.54,1.75l.36.33A2.67,2.67,0,0,1,290.92,269.3Z" style="fill:#fff"></path><polygon points="291.89 265.65 292.06 265.4 293.25 266.21 293.97 264.96 294.22 265.11 293.35 266.63 291.89 265.65" style="fill:#fff"></polygon><rect x="347.51" y="328.31" width="92.05" height="12.56" style="fill:#fff"></rect><path d="M440.06,341.37H347V327.81h93.05Zm-92.05-1h91.05V328.81H348Z" style="fill:#c7c7c7"></path><rect x="427" y="328.31" width="12.56" height="12.56" style="fill:#1B84FF"></rect><path d="M437.26,338.11l-1.16.88L434,336.15l-.78-1a1.83,1.83,0,0,0,.45-.25,1.9,1.9,0,0,0,.59-.77l.84,1.1Z" style="fill:#fff"></path><path d="M435,331.43a3.17,3.17,0,1,0-1,4.72,2.52,2.52,0,0,0,.44-.28,3.26,3.26,0,0,0,.66-.68A3.18,3.18,0,0,0,435,331.43Zm-1.36,3.43a1.83,1.83,0,0,1-.45.25,1.83,1.83,0,1,1,.45-.25Z" style="fill:#fff"></path><rect x="350.14" y="330.78" width="0.67" height="7.62" style="fill:#263238"></rect><rect x="347.51" y="345.77" width="21.26" height="6.74" style="fill:#c7c7c7"></rect><rect x="382.9" y="345.77" width="21.26" height="6.74" style="fill:#1B84FF"></rect><rect x="418.56" y="345.77" width="21.26" height="6.74" style="fill:#c7c7c7"></rect><rect x="364.18" y="314.71" width="58.72" height="4.08" style="fill:#37474f"></rect></g></g><g id="freepik--window-1--inject-2"><g style="opacity:0.8"><rect x="71.89" y="56.21" width="242.14" height="153.32" style="fill:#fff"></rect><path d="M314.28,209.77H71.64V56H314.28Zm-242.14-.5H313.78V56.46H72.14Z" style="fill:#a6a6a6"></path><rect x="71.89" y="62.11" width="237.84" height="46.25" style="fill:#1B84FF"></rect><rect x="71.89" y="56.21" width="242.14" height="5.9" style="fill:#263238"></rect><path d="M77.84,59.16a1.27,1.27,0,1,1-1.27-1.27A1.27,1.27,0,0,1,77.84,59.16Z" style="fill:#c7c7c7"></path><path d="M83,59.16a1.27,1.27,0,1,1-1.27-1.27A1.27,1.27,0,0,1,83,59.16Z" style="fill:#fff"></path><path d="M88.22,59.16A1.27,1.27,0,1,1,87,57.89,1.27,1.27,0,0,1,88.22,59.16Z" style="fill:#1B84FF"></path><rect x="309.73" y="62.11" width="4.3" height="147.42" style="fill:#dbdbdb"></rect><path d="M311.88,113.21h0a1.11,1.11,0,0,1-1.11-1.11v-48A1.11,1.11,0,0,1,311.88,63h0A1.11,1.11,0,0,1,313,64.08v48A1.11,1.11,0,0,1,311.88,113.21Z" style="fill:#a6a6a6"></path><rect x="252.59" y="118.6" width="45.9" height="35.22" transform="translate(551.08 272.41) rotate(180)" style="fill:#1B84FF"></rect><path d="M257.16,126.3a4.17,4.17,0,1,0,3.27-3.28A4.17,4.17,0,0,0,257.16,126.3Z" style="fill:#fff;opacity:0.6000000000000001"></path><polygon points="267.73 146.22 298.49 146.22 283.11 127.27 267.73 146.22" style="fill:#1B84FF"></polygon><polygon points="267.73 146.22 298.49 146.22 283.11 127.27 267.73 146.22" style="opacity:0.2"></polygon><polygon points="252.59 146.24 279.87 146.24 266.23 133.9 252.59 146.24" style="fill:#1B84FF"></polygon><polygon points="252.59 146.24 279.87 146.24 266.23 133.9 252.59 146.24" style="opacity:0.1"></polygon><rect x="252.59" y="146.22" width="45.9" height="7.59" style="fill:#1B84FF"></rect><rect x="252.59" y="146.22" width="45.9" height="7.59" style="opacity:0.1"></rect><path d="M252.59,159.2c3.12-.16,6.23-.23,9.35-.29s6.24-.06,9.35-.09,6.24,0,9.36.09,6.23.13,9.35.29c-3.12.15-6.24.22-9.35.28s-6.24.06-9.36.09-6.23,0-9.35-.09S255.71,159.35,252.59,159.2Z" style="fill:#c7c7c7"></path><path d="M252.59,163.08c2.34-.16,4.68-.23,7-.29s4.68-.06,7-.09,4.69,0,7,.09,4.68.13,7,.29c-2.34.15-4.68.23-7,.29s-4.69,0-7,.08-4.68,0-7-.09S254.93,163.23,252.59,163.08Z" style="fill:#c7c7c7"></path><rect x="252.59" y="167.93" width="45.9" height="41.59" style="fill:#1B84FF"></rect><rect x="252.59" y="167.93" width="45.9" height="41.59" style="opacity:0.2"></rect><path d="M257.16,183.58a4.17,4.17,0,1,0,3.27-3.27A4.17,4.17,0,0,0,257.16,183.58Z" style="fill:#fff;opacity:0.6000000000000001"></path><polygon points="267.73 203.51 298.49 203.51 283.11 184.55 267.73 203.51" style="fill:#1B84FF"></polygon><polygon points="267.73 203.51 298.49 203.51 283.11 184.55 267.73 203.51" style="opacity:0.4"></polygon><polygon points="252.59 203.52 279.87 203.52 266.23 191.18 252.59 203.52" style="fill:#1B84FF"></polygon><polygon points="252.59 203.52 279.87 203.52 266.23 191.18 252.59 203.52" style="opacity:0.30000000000000004"></polygon><rect x="252.59" y="203.51" width="45.9" height="6.01" style="opacity:0.1"></rect><rect x="195.72" y="186.82" width="45.9" height="22.7" style="fill:#1B84FF"></rect><path d="M200.29,194.52a4.17,4.17,0,1,0,3.27-3.27A4.18,4.18,0,0,0,200.29,194.52Z" style="fill:#fff;opacity:0.6000000000000001"></path><polygon points="237.62 209.52 214.86 209.52 215.99 208.13 226.24 195.5 237.62 209.52" style="fill:#1B84FF"></polygon><polygon points="237.62 209.52 214.86 209.52 215.99 208.13 226.24 195.5 237.62 209.52" style="opacity:0.2"></polygon><polygon points="217.54 209.52 201.19 209.52 209.36 202.13 215.99 208.13 217.54 209.52" style="fill:#1B84FF"></polygon><polygon points="217.54 209.52 201.19 209.52 209.36 202.13 215.99 208.13 217.54 209.52" style="opacity:0.1"></polygon><rect x="195.72" y="118.71" width="45.9" height="54.11" transform="translate(437.35 291.53) rotate(180)" style="fill:#455a64"></rect><path d="M200.29,134.36a4.17,4.17,0,1,0,3.27-3.28A4.17,4.17,0,0,0,200.29,134.36Z" style="fill:#fff;opacity:0.6000000000000001"></path><polygon points="210.87 154.28 241.62 154.28 226.24 135.33 210.87 154.28" style="fill:#263238"></polygon><polygon points="195.72 154.3 223 154.3 209.36 141.96 195.72 154.3" style="fill:#37474f"></polygon><rect x="195.72" y="154.28" width="45.9" height="18.53" style="fill:#37474f"></rect><path d="M195.72,178.2c3.12-.15,6.24-.22,9.36-.28s6.23-.06,9.35-.09,6.23,0,9.35.08,6.23.14,9.35.29c-3.12.16-6.23.23-9.35.29s-6.24.06-9.35.09-6.24,0-9.35-.09S198.84,178.36,195.72,178.2Z" style="fill:#c7c7c7"></path><path d="M195.72,182.08c2.34-.15,4.69-.22,7-.28s4.68-.06,7-.09,4.69,0,7,.09,4.68.13,7,.28c-2.35.16-4.69.23-7,.29s-4.68.06-7,.09-4.68,0-7-.09S198.06,182.24,195.72,182.08Z" style="fill:#c7c7c7"></path><rect x="139.05" y="118.6" width="45.9" height="35.22" transform="translate(323.99 272.41) rotate(180)" style="fill:#1B84FF"></rect><path d="M143.61,126.3a4.17,4.17,0,1,0,3.28-3.28A4.18,4.18,0,0,0,143.61,126.3Z" style="fill:#fff;opacity:0.6000000000000001"></path><polygon points="154.19 146.22 184.94 146.22 169.57 127.27 154.19 146.22" style="fill:#1B84FF"></polygon><polygon points="154.19 146.22 184.94 146.22 169.57 127.27 154.19 146.22" style="opacity:0.2"></polygon><polygon points="139.04 146.24 166.32 146.24 152.68 133.9 139.04 146.24" style="fill:#1B84FF"></polygon><polygon points="139.04 146.24 166.32 146.24 152.68 133.9 139.04 146.24" style="opacity:0.1"></polygon><rect x="139.05" y="146.22" width="45.9" height="7.59" style="fill:#1B84FF"></rect><rect x="139.05" y="146.22" width="45.9" height="7.59" style="opacity:0.1"></rect><path d="M139.05,159.2c3.11-.16,6.23-.23,9.35-.29s6.23-.06,9.35-.09,6.23,0,9.35.09,6.24.13,9.35.29c-3.11.15-6.23.22-9.35.28s-6.23.06-9.35.09-6.24,0-9.35-.09S142.16,159.35,139.05,159.2Z" style="fill:#c7c7c7"></path><path d="M139.05,163.08c2.34-.16,4.68-.23,7-.29s4.68-.06,7-.09,4.68,0,7,.09,4.69.13,7,.29c-2.34.15-4.69.23-7,.29s-4.68,0-7,.08-4.69,0-7-.09S141.39,163.23,139.05,163.08Z" style="fill:#c7c7c7"></path><rect x="139.04" y="167.93" width="45.9" height="41.59" style="fill:#1B84FF"></rect><rect x="139.04" y="167.93" width="45.9" height="41.59" style="opacity:0.2"></rect><path d="M143.61,183.58a4.17,4.17,0,1,0,3.28-3.27A4.17,4.17,0,0,0,143.61,183.58Z" style="fill:#fff;opacity:0.6000000000000001"></path><polygon points="154.19 203.51 184.94 203.51 169.57 184.55 154.19 203.51" style="fill:#1B84FF"></polygon><polygon points="154.19 203.51 184.94 203.51 169.57 184.55 154.19 203.51" style="opacity:0.4"></polygon><polygon points="139.04 203.52 166.32 203.52 152.68 191.18 139.04 203.52" style="fill:#1B84FF"></polygon><polygon points="139.04 203.52 166.32 203.52 152.68 191.18 139.04 203.52" style="opacity:0.30000000000000004"></polygon><rect x="139.04" y="203.51" width="45.9" height="6.01" style="opacity:0.1"></rect><rect x="82.18" y="186.82" width="45.9" height="22.7" style="fill:#1B84FF"></rect><path d="M86.75,194.52A4.17,4.17,0,1,0,90,191.25,4.18,4.18,0,0,0,86.75,194.52Z" style="fill:#fff;opacity:0.6000000000000001"></path><polygon points="124.08 209.52 101.32 209.52 102.45 208.13 112.7 195.5 124.08 209.52" style="fill:#1B84FF"></polygon><polygon points="124.08 209.52 101.32 209.52 102.45 208.13 112.7 195.5 124.08 209.52" style="opacity:0.2"></polygon><polygon points="103.99 209.52 87.64 209.52 95.81 202.13 102.45 208.13 103.99 209.52" style="fill:#1B84FF"></polygon><polygon points="103.99 209.52 87.64 209.52 95.81 202.13 102.45 208.13 103.99 209.52" style="opacity:0.1"></polygon><rect x="82.18" y="118.71" width="45.9" height="54.11" transform="translate(210.26 291.53) rotate(180)" style="fill:#455a64"></rect><path d="M86.75,134.36A4.17,4.17,0,1,0,90,131.08,4.17,4.17,0,0,0,86.75,134.36Z" style="fill:#fff;opacity:0.6000000000000001"></path><polygon points="97.32 154.28 128.08 154.28 112.7 135.33 97.32 154.28" style="fill:#263238"></polygon><polygon points="82.18 154.3 109.45 154.3 95.82 141.96 82.18 154.3" style="fill:#37474f"></polygon><rect x="82.18" y="154.28" width="45.9" height="18.53" style="fill:#37474f"></rect><path d="M82.18,178.2c3.12-.15,6.23-.22,9.35-.28s6.24-.06,9.35-.09,6.24,0,9.35.08,6.24.14,9.36.29c-3.12.16-6.24.23-9.36.29s-6.23.06-9.35.09-6.23,0-9.35-.09S85.3,178.36,82.18,178.2Z" style="fill:#c7c7c7"></path><path d="M82.18,182.08c2.34-.15,4.68-.22,7-.28s4.69-.06,7-.09,4.68,0,7,.09,4.68.13,7,.28c-2.34.16-4.68.23-7,.29s-4.69.06-7,.09-4.68,0-7-.09S84.52,182.24,82.18,182.08Z" style="fill:#c7c7c7"></path><path d="M283.23,100.23v2.93a0,0,0,0,0,0,0,.74.74,0,0,1-.52.58l-.09,0h-.8a.09.09,0,0,0,0-.05v-1.53h.64s0,0,0,0v-.66h-.68v-.32A.16.16,0,0,1,282,101h.52v-.69H282a.67.67,0,0,0-.41.13.85.85,0,0,0-.36.61,2.36,2.36,0,0,0,0,.38v0h-.5v.67s0,0,0,0h.47v1.58h-1.45a.64.64,0,0,1-.26-.1.77.77,0,0,1-.31-.4l0-.12v-2.93h0a.79.79,0,0,1,.1-.27.67.67,0,0,1,.39-.31l.12,0h2.88a.75.75,0,0,1,.58.54Z" style="fill:#fff"></path><path d="M290.24,99.61h-2.85a.63.63,0,0,0-.62.64v2.9a.63.63,0,0,0,.62.64h2.85a.63.63,0,0,0,.62-.64v-2.9A.63.63,0,0,0,290.24,99.61Zm.19,1.06s0,0,0,0a1.06,1.06,0,0,1-.27.29s0,0,0,.06a1.91,1.91,0,0,1-.23,1,1.79,1.79,0,0,1-1.19,1,2,2,0,0,1-1.12,0l-.05,0-.19-.09-.13-.08a1.44,1.44,0,0,0,1-.29l-.14,0a.65.65,0,0,1-.47-.4s0,0,0,0,0,0,0,0a.65.65,0,0,0,.24,0l-.09,0a.69.69,0,0,1-.43-.58c0-.06,0-.06.05,0a.54.54,0,0,0,.25.06.81.81,0,0,1-.16-.16.67.67,0,0,1-.06-.72s0,0,0,0a1.87,1.87,0,0,0,1.11.65l.2,0s.05,0,0,0a.67.67,0,0,1,.56-.78.62.62,0,0,1,.56.18s0,0,.06,0a1.73,1.73,0,0,0,.32-.11l.06-.05a.46.46,0,0,1-.1.22l-.16.16a2,2,0,0,0,.35-.1Z" style="fill:#fff"></path><path d="M298.49,101.65v-1a1.94,1.94,0,0,0,0-.24.88.88,0,0,0-.56-.73,1.43,1.43,0,0,0-.5-.06h-1.92a1.62,1.62,0,0,0-.31,0,.85.85,0,0,0-.7.55,1.35,1.35,0,0,0-.07.49v2a1.84,1.84,0,0,0,0,.33.83.83,0,0,0,.47.63,1,1,0,0,0,.51.1c.68,0,1.36,0,2,0a1.56,1.56,0,0,0,.31,0,.84.84,0,0,0,.66-.56,1.3,1.3,0,0,0,.07-.48v-1.06Zm-.53.61a1,1,0,0,1-.75,1l-.2,0h-1.12a.93.93,0,0,1-.93-.77.71.71,0,0,1,0-.2v-1.15a.94.94,0,0,1,.71-.94,1.07,1.07,0,0,1,.25,0c.18,0,.37,0,.55,0h0c.22,0,.43,0,.65,0a.93.93,0,0,1,.84.75,1.5,1.5,0,0,1,0,.22Z" style="fill:#fff"></path><path d="M296.94,101.7a.49.49,0,1,1-.49-.51A.49.49,0,0,1,296.94,101.7Z" style="fill:#fff"></path><path d="M297,100.41h-1.14a.69.69,0,0,0-.68.7v1.17a.68.68,0,0,0,.67.69H297a.68.68,0,0,0,.67-.69v-1.17A.69.69,0,0,0,297,100.41Zm-.57,2a.77.77,0,1,1,.75-.77A.77.77,0,0,1,296.45,102.46Zm.82-1.42a.19.19,0,0,1,0-.38.19.19,0,0,1,.18.2A.19.19,0,0,1,297.27,101Z" style="fill:#fff"></path><path d="M145.79,101.21h.45l.29.85.29-.85h.46l-.44,1.16.33.82.72-2h.54l-1,2.55H147l-.44-1.07-.44,1.07h-.42l-1-2.55h.54l.72,2,.32-.82Z" style="fill:#263238"></path><path d="M149.28,103.79a.91.91,0,0,1-.41-.08.85.85,0,0,1-.31-.21.92.92,0,0,1-.2-.31,1.15,1.15,0,0,1-.06-.37,1.1,1.1,0,0,1,.06-.37.92.92,0,0,1,.2-.31.87.87,0,0,1,.31-.22,1.07,1.07,0,0,1,.41-.08,1,1,0,0,1,.41.08.87.87,0,0,1,.31.22.92.92,0,0,1,.2.31,1.11,1.11,0,0,1,.07.37,1.16,1.16,0,0,1-.07.37.92.92,0,0,1-.2.31.81.81,0,0,1-.3.21A1,1,0,0,1,149.28,103.79Zm-.49-1a.59.59,0,0,0,0,.23.52.52,0,0,0,.1.18.57.57,0,0,0,.16.11.41.41,0,0,0,.19,0,.45.45,0,0,0,.2,0,.42.42,0,0,0,.15-.11.54.54,0,0,0,.11-.18.85.85,0,0,0,0-.23.8.8,0,0,0,0-.23.54.54,0,0,0-.11-.18.44.44,0,0,0-.15-.12.65.65,0,0,0-.2,0,.41.41,0,0,0-.19,0,.42.42,0,0,0-.16.11.52.52,0,0,0-.1.18A.59.59,0,0,0,148.79,102.82Z" style="fill:#263238"></path><path d="M151.71,102.29a.8.8,0,0,0-.39.09.45.45,0,0,0-.25.24v1.14h-.48v-1.88H151v.4a.57.57,0,0,1,.12-.18.64.64,0,0,1,.15-.13.51.51,0,0,1,.16-.09.4.4,0,0,1,.15,0h.1Z" style="fill:#263238"></path><path d="M153.26,103.76l-.54-.82-.26.26v.56H152v-2.62h.48v1.59l.75-.85h.52l-.7.8.75,1.08Z" style="fill:#263238"></path><g style="opacity:0.4"><path d="M174.31,101.21h.21l1.06,2.55h-.26L175,103h-1.15l-.33.8h-.27Zm.62,1.55-.52-1.26-.52,1.26Z"></path><path d="M176.81,103.79a.69.69,0,0,1-.4-.11.74.74,0,0,1-.29-.29v.37h-.22v-2.62h.24v1.14a1.27,1.27,0,0,1,.3-.31.73.73,0,0,1,.41-.12.74.74,0,0,1,.36.09.78.78,0,0,1,.26.22,1,1,0,0,1,.17.31,1.09,1.09,0,0,1,.06.36.94.94,0,0,1-.07.37.89.89,0,0,1-.19.31,1,1,0,0,1-.28.21A.81.81,0,0,1,176.81,103.79Zm-.05-.21a.55.55,0,0,0,.28-.07.82.82,0,0,0,.22-.16,1.16,1.16,0,0,0,.14-.24.92.92,0,0,0,0-.28.71.71,0,0,0,0-.29.7.7,0,0,0-.13-.24.68.68,0,0,0-.21-.17.67.67,0,0,0-.28-.06.45.45,0,0,0-.2,0,.52.52,0,0,0-.18.1.54.54,0,0,0-.15.15.78.78,0,0,0-.11.18v.58a.48.48,0,0,0,.08.18.79.79,0,0,0,.34.24A.48.48,0,0,0,176.76,103.58Z"></path><path d="M178.91,103.79a.87.87,0,0,1-.37-.07,1.34,1.34,0,0,1-.3-.21,1.23,1.23,0,0,1-.19-.31,1.16,1.16,0,0,1-.07-.37,1.22,1.22,0,0,1,.07-.38,1,1,0,0,1,.2-.31,1.27,1.27,0,0,1,.29-.21.9.9,0,0,1,.74,0,1.61,1.61,0,0,1,.3.21,1.23,1.23,0,0,1,.19.31,1,1,0,0,1,.07.38.94.94,0,0,1-.07.37,1,1,0,0,1-.19.31,1.14,1.14,0,0,1-.3.21A.87.87,0,0,1,178.91,103.79Zm-.68-1a.88.88,0,0,0,.05.29,1,1,0,0,0,.15.24.6.6,0,0,0,.22.16.59.59,0,0,0,.52,0,.73.73,0,0,0,.22-.16,1,1,0,0,0,.15-.24.94.94,0,0,0,.05-.3.93.93,0,0,0-.05-.29,1,1,0,0,0-.15-.24.6.6,0,0,0-.22-.16.59.59,0,0,0-.52,0,.69.69,0,0,0-.22.16,1,1,0,0,0-.15.24A1,1,0,0,0,178.23,102.83Z"></path><path d="M180.83,103.79a.51.51,0,0,1-.45-.2,1,1,0,0,1-.15-.61v-1.09h.24v1c0,.43.15.64.44.64a.52.52,0,0,0,.21,0,.69.69,0,0,0,.19-.1,1.21,1.21,0,0,0,.16-.16.65.65,0,0,0,.11-.22v-1.17h.25v1.55c0,.07,0,.1.08.1v.22h-.1a.17.17,0,0,1-.14-.06.2.2,0,0,1-.06-.15v-.22a.83.83,0,0,1-.33.34A.89.89,0,0,1,180.83,103.79Z"></path><path d="M183.28,103.67a.09.09,0,0,0-.06,0l-.1,0-.12,0-.15,0-.15,0a.47.47,0,0,1-.12-.07.31.31,0,0,1-.09-.11.41.41,0,0,1,0-.16v-1.34h-.26v-.19h.26v-.64h.24v.64h.43v.19h-.43v1.27a.19.19,0,0,0,.08.15.2.2,0,0,0,.15,0,.48.48,0,0,0,.18,0l.1,0Z"></path></g><g style="opacity:0.4"><path d="M204.78,101.69a.75.75,0,0,0-.29-.2,1.07,1.07,0,0,0-.41-.08.72.72,0,0,0-.49.13.41.41,0,0,0-.16.35.32.32,0,0,0,0,.18.3.3,0,0,0,.12.13.9.9,0,0,0,.22.1l.32.07.37.1a1,1,0,0,1,.28.14.61.61,0,0,1,.17.19.62.62,0,0,1,.06.29.59.59,0,0,1-.25.52.91.91,0,0,1-.3.13,2,2,0,0,1-.37,0,1.51,1.51,0,0,1-1-.37l.13-.21a.73.73,0,0,0,.16.14,1.45,1.45,0,0,0,.46.19,1.27,1.27,0,0,0,.28,0,.92.92,0,0,0,.48-.11.4.4,0,0,0,.17-.34.46.46,0,0,0,0-.2.41.41,0,0,0-.15-.14,1.45,1.45,0,0,0-.24-.1l-.33-.08-.35-.1a.9.9,0,0,1-.26-.13.43.43,0,0,1-.15-.18.5.5,0,0,1,0-.26.75.75,0,0,1,.06-.31.71.71,0,0,1,.19-.23.87.87,0,0,1,.29-.14,1.36,1.36,0,0,1,.36,0,1.34,1.34,0,0,1,.46.08,1.31,1.31,0,0,1,.36.21Z"></path><path d="M207,103.76h-.25v-1.05a.81.81,0,0,0-.11-.48.37.37,0,0,0-.32-.15.45.45,0,0,0-.2,0,.78.78,0,0,0-.2.11.8.8,0,0,0-.15.17.51.51,0,0,0-.1.21v1.15h-.24v-2.62h.24v1.17A.82.82,0,0,1,206,102a.73.73,0,0,1,.43-.13.6.6,0,0,1,.27.06.58.58,0,0,1,.18.17.82.82,0,0,1,.11.25,1.69,1.69,0,0,1,0,.33Z"></path><path d="M208.31,103.79a.92.92,0,0,1-.38-.07,1.27,1.27,0,0,1-.29-.21,1,1,0,0,1-.19-.31.94.94,0,0,1-.07-.37,1,1,0,0,1,.07-.38,1.23,1.23,0,0,1,.19-.31,1.34,1.34,0,0,1,.3-.21.87.87,0,0,1,.37-.08,1,1,0,0,1,.37.08,1,1,0,0,1,.49.52,1.22,1.22,0,0,1,.07.38,1.16,1.16,0,0,1-.07.37,1.23,1.23,0,0,1-.19.31,1.61,1.61,0,0,1-.3.21A.9.9,0,0,1,208.31,103.79Zm-.68-1a.88.88,0,0,0,.05.29,1,1,0,0,0,.15.24.65.65,0,0,0,.21.16.6.6,0,0,0,.27.06.58.58,0,0,0,.26-.06,1.12,1.12,0,0,0,.22-.16.72.72,0,0,0,.14-.24.73.73,0,0,0,.06-.3.89.89,0,0,0-.2-.53.82.82,0,0,0-.22-.16.58.58,0,0,0-.26-.06.63.63,0,0,0-.27.06.65.65,0,0,0-.21.16,1,1,0,0,0-.15.24A1,1,0,0,0,207.63,102.83Z"></path><path d="M210.6,103.79a.74.74,0,0,1-.42-.12.92.92,0,0,1-.29-.3v1.15h-.25v-2.63h.22v.36a1,1,0,0,1,.3-.29.8.8,0,0,1,.4-.11.86.86,0,0,1,.36.08,1.18,1.18,0,0,1,.28.22,1.05,1.05,0,0,1,.18.31.92.92,0,0,1,.07.36,1.21,1.21,0,0,1-.06.38.92.92,0,0,1-.45.52A.77.77,0,0,1,210.6,103.79Zm-.07-.21a.55.55,0,0,0,.28-.07.68.68,0,0,0,.21-.17.7.7,0,0,0,.13-.24.81.81,0,0,0,0-.56,1,1,0,0,0-.15-.24.72.72,0,0,0-.22-.17.67.67,0,0,0-.28-.06.46.46,0,0,0-.19,0,.69.69,0,0,0-.19.1.67.67,0,0,0-.15.14.36.36,0,0,0-.08.18v.58a.67.67,0,0,0,.11.18.54.54,0,0,0,.15.15.81.81,0,0,0,.18.1A.45.45,0,0,0,210.53,103.58Z"></path></g><g style="opacity:0.4"><path d="M229.23,102.46a1.42,1.42,0,0,1,.08-.45,1.38,1.38,0,0,1,.24-.41,1.1,1.1,0,0,1,.38-.29,1.07,1.07,0,0,1,.51-.12,1,1,0,0,1,.59.16.85.85,0,0,1,.35.4l-.19.12a1.13,1.13,0,0,0-.15-.21,1.15,1.15,0,0,0-.19-.14.9.9,0,0,0-.21-.08l-.21,0a.88.88,0,0,0-.41.09,1.16,1.16,0,0,0-.29.25,1.25,1.25,0,0,0-.19.34,1.21,1.21,0,0,0-.06.38,1.06,1.06,0,0,0,.08.4,1.1,1.1,0,0,0,.2.35.76.76,0,0,0,.3.23.82.82,0,0,0,.38.09l.22,0a.85.85,0,0,0,.22-.09.9.9,0,0,0,.19-.15,1.16,1.16,0,0,0,.16-.21l.2.11a.7.7,0,0,1-.17.25,1.14,1.14,0,0,1-.25.18,1.26,1.26,0,0,1-.29.12,1,1,0,0,1-.3,0,1,1,0,0,1-.48-.12,1.07,1.07,0,0,1-.37-.3,1.27,1.27,0,0,1-.25-.42A1.28,1.28,0,0,1,229.23,102.46Z"></path><path d="M232.61,103.79a.87.87,0,0,1-.37-.07,1.61,1.61,0,0,1-.3-.21,1.23,1.23,0,0,1-.19-.31,1.16,1.16,0,0,1-.07-.37,1.22,1.22,0,0,1,.07-.38,1,1,0,0,1,.49-.52.91.91,0,0,1,.37-.08.87.87,0,0,1,.37.08,1.34,1.34,0,0,1,.3.21,1.23,1.23,0,0,1,.19.31,1,1,0,0,1,.07.38.94.94,0,0,1-.07.37,1,1,0,0,1-.19.31,1.27,1.27,0,0,1-.29.21A1,1,0,0,1,232.61,103.79Zm-.68-1a.68.68,0,0,0,.06.29.72.72,0,0,0,.14.24.6.6,0,0,0,.22.16.59.59,0,0,0,.52,0,.73.73,0,0,0,.22-.16,1,1,0,0,0,.15-.24.94.94,0,0,0,0-.3.93.93,0,0,0,0-.29,1,1,0,0,0-.15-.24.6.6,0,0,0-.22-.16.59.59,0,0,0-.52,0,.82.82,0,0,0-.22.16.72.72,0,0,0-.14.24A.8.8,0,0,0,231.93,102.83Z"></path><path d="M235.52,103.76h-.24v-1.05a.86.86,0,0,0-.1-.48.34.34,0,0,0-.3-.15.54.54,0,0,0-.22,0,.56.56,0,0,0-.2.11.87.87,0,0,0-.16.17.7.7,0,0,0-.11.21v1.15H234v-1.87h.22v.42a.87.87,0,0,1,.33-.33,1,1,0,0,1,.47-.13.53.53,0,0,1,.26.06.44.44,0,0,1,.17.16.88.88,0,0,1,.09.26,1.69,1.69,0,0,1,0,.33Z"></path><path d="M236.92,103.67l-.06,0-.1,0-.12,0-.14,0-.15,0-.13-.07a.44.44,0,0,1-.08-.11.29.29,0,0,1,0-.16v-1.34h-.25v-.19h.25v-.64h.25v.64h.43v.19h-.43v1.27a.18.18,0,0,0,.07.15.23.23,0,0,0,.15,0,.58.58,0,0,0,.19,0l.1,0Z"></path><path d="M237.7,103.79a.69.69,0,0,1-.25,0,.63.63,0,0,1-.2-.13.59.59,0,0,1-.13-.18.59.59,0,0,1,0-.23.59.59,0,0,1,0-.23.69.69,0,0,1,.17-.17.9.9,0,0,1,.24-.12,1.08,1.08,0,0,1,.32,0l.29,0a1.38,1.38,0,0,1,.26.07v-.16a.49.49,0,0,0-.53-.54,1,1,0,0,0-.29,0,1.94,1.94,0,0,0-.31.17l-.08-.16a1.3,1.3,0,0,1,.7-.25.78.78,0,0,1,.56.2.76.76,0,0,1,.2.55v.84c0,.07,0,.1.09.1v.22h-.1a.2.2,0,0,1-.14,0,.15.15,0,0,1-.06-.13v-.15a.74.74,0,0,1-.32.26A1,1,0,0,1,237.7,103.79Zm.06-.18a.85.85,0,0,0,.35-.08.57.57,0,0,0,.24-.19.18.18,0,0,0,.05-.07.15.15,0,0,0,0-.07v-.3a1,1,0,0,0-.25-.07,1.24,1.24,0,0,0-.27,0,.77.77,0,0,0-.42.11.32.32,0,0,0-.16.28.41.41,0,0,0,0,.16.5.5,0,0,0,.1.14.47.47,0,0,0,.14.08A.34.34,0,0,0,237.76,103.61Z"></path><path d="M239.06,102.82a1.16,1.16,0,0,1,.06-.38.88.88,0,0,1,.2-.3.86.86,0,0,1,.29-.21,1,1,0,0,1,.38-.08.91.91,0,0,1,.47.12.72.72,0,0,1,.29.33l-.23.07a.66.66,0,0,0-.22-.22.69.69,0,0,0-.32-.08.66.66,0,0,0-.27.06.8.8,0,0,0-.21.15,1,1,0,0,0-.15.24.94.94,0,0,0,0,.3.72.72,0,0,0,.06.29.68.68,0,0,0,.14.25,1.12,1.12,0,0,0,.22.16.58.58,0,0,0,.26.06.52.52,0,0,0,.18,0,.51.51,0,0,0,.17-.07l.13-.1a.37.37,0,0,0,.07-.12l.24.07a.54.54,0,0,1-.11.18.65.65,0,0,1-.18.15.8.8,0,0,1-.23.1,1.07,1.07,0,0,1-.25,0,.92.92,0,0,1-.38-.07,1,1,0,0,1-.3-.22.89.89,0,0,1-.19-.31A.9.9,0,0,1,239.06,102.82Z"></path><path d="M242.05,103.67l-.06,0-.09,0-.13,0-.14,0-.15,0-.13-.07a.44.44,0,0,1-.08-.11.42.42,0,0,1,0-.16v-1.34H241v-.19h.25v-.64h.25v.64h.43v.19h-.43v1.27a.18.18,0,0,0,.07.15.23.23,0,0,0,.15,0,.54.54,0,0,0,.19,0l.1,0Z"></path></g><rect x="144.64" y="104.52" width="9.13" height="0.39" style="fill:#263238"></rect><rect x="238.59" y="73.49" width="57.82" height="7.72" style="fill:#fff"></rect><path d="M296.49,81.29h-58V73.41h58Zm-57.82-.16h57.66V73.57H238.67Z" style="fill:#c7c7c7"></path><rect x="288.61" y="73.41" width="7.88" height="7.88" style="fill:#455a64"></rect><path d="M295,79.51l-.71.54L293,78.31l-.49-.64a1.08,1.08,0,0,0,.28-.15,1.22,1.22,0,0,0,.37-.48l.51.68Z" style="fill:#fff"></path><path d="M293.6,75.41a1.95,1.95,0,1,0-.63,2.9l.27-.17a2.63,2.63,0,0,0,.4-.42A2,2,0,0,0,293.6,75.41Zm-.84,2.11a1.08,1.08,0,0,1-.28.15,1.15,1.15,0,1,1,.65-.63A1.22,1.22,0,0,1,292.76,77.52Z" style="fill:#fff"></path><rect x="240.2" y="75.01" width="0.41" height="4.68" style="fill:#c7c7c7"></rect><rect x="102.51" y="73.49" width="133.18" height="7.72" style="fill:#fff"></rect><path d="M235.77,81.29H102.43V73.41H235.77Zm-133.18-.16h133V73.57h-133Z" style="fill:#c7c7c7"></path><rect x="104.12" y="75.01" width="0.41" height="4.68" style="fill:#c7c7c7"></rect><polygon points="87.94 79.99 85.13 77.41 87.94 74.71 88.38 75.17 86.05 77.39 88.37 79.53 87.94 79.99" style="fill:#fff"></polygon><polygon points="94.73 74.71 97.54 77.3 94.73 79.99 94.3 79.53 96.62 77.31 94.3 75.17 94.73 74.71" style="fill:#fff"></polygon></g></g></svg>