<svg xmlns="http://www.w3.org/2000/svg" viewBox="0 0 500 500"><g id="freepik--Device--inject-2"><rect x="124.49" y="51.7" width="251.2" height="375.66" rx="10.21" style="fill:#455a64"></rect><rect x="135.22" y="78.22" width="229.86" height="323.34" style="fill:#fff"></rect><g id="freepik--u5Zjqx--inject-2"><path d="M175.45,85.1l-.3.29-.16.16a4,4,0,0,0-5.63,0l-.16-.17-.28-.29h0l0,0c.12-.11.24-.22.37-.32a4.26,4.26,0,0,1,.85-.55,4.18,4.18,0,0,1,1.13-.38l.57-.07h.49l.39,0a4.24,4.24,0,0,1,1,.24,4.94,4.94,0,0,1,.7.33,5.06,5.06,0,0,1,.67.47l.31.28Z" style="fill:#c7c7c7"></path><path d="M170.29,86.47c-.16-.15-.31-.3-.46-.46a3.31,3.31,0,0,1,4.69,0l-.46.46a2.67,2.67,0,0,0-3.77,0Z" style="fill:#c7c7c7"></path><path d="M173.6,86.93l-.46.46a1.36,1.36,0,0,0-1.93,0l-.46-.46A2,2,0,0,1,173.6,86.93Z" style="fill:#c7c7c7"></path><path d="M172.59,87.81a.42.42,0,1,1-.42-.42A.42.42,0,0,1,172.59,87.81Z" style="fill:#c7c7c7"></path></g><path d="M147,86a1.21,1.21,0,1,1,1.2,1.2A1.2,1.2,0,0,1,147,86Z" style="fill:#c7c7c7"></path><path d="M150.77,86a1.2,1.2,0,1,1,1.2,1.2A1.2,1.2,0,0,1,150.77,86Z" style="fill:#c7c7c7"></path><path d="M154.55,86a1.21,1.21,0,1,1,1.21,1.2A1.2,1.2,0,0,1,154.55,86Z" style="fill:#c7c7c7"></path><path d="M158.34,86a1.21,1.21,0,1,1,1.2,1.2A1.2,1.2,0,0,1,158.34,86Z" style="fill:#c7c7c7"></path><path d="M162.13,86a1.2,1.2,0,1,1,1.2,1.2A1.2,1.2,0,0,1,162.13,86Z" style="fill:#c7c7c7"></path><path d="M352.15,88.61h-9.8V84.06h9.8Zm-9.29-.51h8.78V84.57h-8.78Z" style="fill:#c7c7c7"></path><rect x="343.17" y="84.84" width="6.31" height="2.99" style="fill:#c7c7c7"></rect><rect x="352.15" y="85.12" width="0.87" height="2.42" style="fill:#c7c7c7"></rect><polygon points="156.29 390.26 155.49 390.26 155.49 393.94 153.99 393.94 153.99 392.07 151.34 392.07 151.34 393.94 149.85 393.94 149.85 390.26 149.05 390.26 152.67 386.52 156.29 390.26" style="fill:#ebebeb"></polygon><rect x="342.22" y="386.52" width="8.73" height="1.25" style="fill:#ebebeb"></rect><rect x="342.22" y="389.61" width="8.73" height="1.25" style="fill:#ebebeb"></rect><rect x="342.22" y="392.69" width="8.73" height="1.25" style="fill:#ebebeb"></rect><polygon points="252.48 389.74 250 392.38 247.52 389.74 247.95 389.33 250 391.51 252.04 389.33 252.48 389.74" style="fill:#ebebeb"></polygon><path d="M250,395.12a4.51,4.51,0,1,1,4.5-4.51A4.51,4.51,0,0,1,250,395.12Zm0-8.42a3.91,3.91,0,1,0,3.91,3.91A3.92,3.92,0,0,0,250,386.7Z" style="fill:#ebebeb"></path><rect x="147.39" y="113.73" width="118.34" height="123.6" style="fill:#1B84FF;opacity:0.30000000000000004"></rect><rect x="275.42" y="113.73" width="77.59" height="123.6" style="fill:#1B84FF;opacity:0.1"></rect><path d="M324,137.39l-7.8,27.29v28.38a28.38,28.38,0,1,1,7.8-55.67Z" style="fill:#a6a6a6"></path><path d="M333,187.53a28.13,28.13,0,0,1-16.81,5.53V164.68Z" style="fill:#fff"></path><path d="M344.54,164.68A28.29,28.29,0,0,1,333,187.53l-16.81-22.85,22.07-17.84A28.22,28.22,0,0,1,344.54,164.68Z" style="fill:#37474f"></path><path d="M344.54,137.65l-22.07,17.84,7.8-27.3A28.42,28.42,0,0,1,344.54,137.65Z" style="fill:#1B84FF"></path><rect x="307.24" y="209.75" width="33.13" height="3.18" style="fill:#455a64"></rect><rect x="307.24" y="216.39" width="21.99" height="3.18" style="fill:#455a64"></rect><rect x="291.95" y="209.7" width="9.92" height="9.92" style="fill:#a6a6a6"></rect><rect x="234.68" y="247.15" width="118.34" height="123.6" transform="translate(587.7 617.91) rotate(180)" style="fill:#1B84FF;opacity:0.30000000000000004"></rect><rect x="260.13" y="351.8" width="5.33" height="5.33" style="fill:#1B84FF"></rect><rect x="269.17" y="351.8" width="58.4" height="1.58" style="fill:#455a64"></rect><rect x="269.17" y="355.56" width="37.73" height="1.58" style="fill:#455a64"></rect><path d="M247.89,274.11c15.32-.13,30.64-.1,46-.15s30.64,0,46,.15c-15.32.14-30.64.11-46,.16S263.21,274.25,247.89,274.11Z" style="fill:#455a64"></path><path d="M247.89,287.07c15.32-.14,30.64-.11,46-.16s30.64,0,46,.16c-15.32.13-30.64.1-46,.15S263.21,287.2,247.89,287.07Z" style="fill:#455a64"></path><path d="M247.89,300c15.32-.14,30.64-.11,46-.16s30.64,0,46,.16c-15.32.13-30.64.1-46,.15S263.21,300.15,247.89,300Z" style="fill:#455a64"></path><path d="M247.89,313c15.32-.14,30.64-.11,46-.16s30.64,0,46,.16c-15.32.13-30.64.1-46,.15S263.21,313.1,247.89,313Z" style="fill:#455a64"></path><path d="M247.89,325.92c15.32-.14,30.64-.11,46-.16s30.64,0,46,.16c-15.32.13-30.64.1-46,.15S263.21,326.05,247.89,325.92Z" style="fill:#455a64"></path><path d="M266.4,265.7c.13,12.1.1,24.2.15,36.3s0,24.2-.15,36.3c-.14-12.1-.11-24.2-.16-36.3S266.26,277.8,266.4,265.7Z" style="fill:#455a64"></path><path d="M282.29,265.7c.14,12.1.1,24.2.16,36.3s0,24.2-.16,36.3c-.13-12.1-.1-24.2-.16-36.3S282.16,277.8,282.29,265.7Z" style="fill:#455a64"></path><path d="M298.19,265.7c.13,12.1.1,24.2.15,36.3s0,24.2-.15,36.3c-.14-12.1-.1-24.2-.16-36.3S298.05,277.8,298.19,265.7Z" style="fill:#455a64"></path><path d="M314.08,265.7c.14,12.1.1,24.2.16,36.3s0,24.2-.16,36.3c-.13-12.1-.1-24.2-.15-36.3S314,277.8,314.08,265.7Z" style="fill:#455a64"></path><path d="M330,265.7c.13,12.1.1,24.2.16,36.3s0,24.2-.16,36.3c-.14-12.1-.1-24.2-.16-36.3S329.84,277.8,330,265.7Z" style="fill:#455a64"></path><path d="M250.2,316.52c2.81,0,4.48-13.15,8.46-13.15s4.39,9.6,7.74,9.6,3.24-16.86,7.73-16.86,3.46,6.84,8.16,6.84,2.93-15.88,7.84-15.88S293.06,309,298.19,309c3.24,0,4.49-6.95,8.36-6.95,2.57,0,4.08,3.47,7.43,3.47s4.08-13.36,8.26-13.36S326.9,300,330,300s4.18-12.95,9.83-12.95V338.3H250.2Z" style="fill:#1B84FF;opacity:0.5"></path><path d="M250.2,317.16v-1.27c.85,0,2-3.07,2.88-5.32,1.47-3.85,3-7.83,5.58-7.83s3.72,2.91,4.81,5.49c.85,2,1.74,4.1,2.92,4.1s2-4.05,2.62-7c1.08-4.85,2.21-9.86,5.12-9.86,2.61,0,3.63,2,4.53,3.71s1.63,3.13,3.63,3.13c1.81,0,2.52-3.71,3.2-7.29.81-4.22,1.64-8.59,4.64-8.59s3.75,5.5,4.55,11.32c.65,4.7,1.47,10.56,3.51,10.56,1.22,0,2.21-1.44,3.27-3,1.29-1.86,2.74-4,5.09-4a6,6,0,0,1,3.58,1.7,6.26,6.26,0,0,0,3.85,1.78c1.16,0,2.22-3.18,3.07-5.73,1.25-3.76,2.54-7.64,5.19-7.64s3.93,2.53,5.08,4.75c.83,1.63,1.62,3.16,2.66,3.16.88,0,1.89-2.46,2.77-4.63,1.51-3.7,3.39-8.32,7.06-8.32v1.27c-2.83,0-4.46,4-5.9,7.53-1.23,3-2.2,5.42-3.93,5.42s-2.76-1.87-3.78-3.84-2.09-4.07-4-4.07-2.94,3.6-4,6.77c-1.18,3.54-2.2,6.6-4.26,6.6a7.32,7.32,0,0,1-4.62-2.05,4.93,4.93,0,0,0-2.81-1.43c-1.69,0-2.89,1.74-4.06,3.43s-2.42,3.52-4.3,3.52c-3.14,0-3.92-5.66-4.75-11.66-.63-4.55-1.42-10.22-3.31-10.22s-2.73,4-3.4,7.56c-.82,4.28-1.59,8.32-4.44,8.32s-3.81-2-4.74-3.82c-.85-1.62-1.57-3-3.42-3s-3,4.92-3.89,8.87c-1,4.46-1.79,8-3.85,8s-3-2.37-4.08-4.88c-1-2.32-2-4.72-3.65-4.72s-3.21,3.9-4.41,7C253,314.45,251.92,317.16,250.2,317.16Z" style="fill:#1B84FF"></path><path d="M250.2,266.48q.17,18,.2,35.91l.1,35.91-.3-.3,44.81.08,22.4.06,22.4.16-22.4.16-22.4.06-44.81.07h-.29v-.29l.1-35.91C250,290.42,250.1,278.45,250.2,266.48Z" style="fill:#455a64"></path><rect x="147.39" y="247.15" width="77.59" height="123.6" transform="translate(372.36 617.91) rotate(180)" style="fill:#1B84FF;opacity:0.1"></rect><path d="M174.46,263.89a11.63,11.63,0,1,1-1.54-5.79A11.64,11.64,0,0,1,174.46,263.89Z" style="fill:#455a64"></path><path d="M172.92,258.1l-10.1,5.79V252.25A11.63,11.63,0,0,1,172.92,258.1Z" style="fill:#1B84FF"></path><circle cx="162.82" cy="263.88" r="8.05" transform="translate(-123.69 382.45) rotate(-80.81)" style="fill:#fff"></circle><rect x="159.47" y="262.1" width="6.7" height="0.95" style="fill:#263238"></rect><rect x="157.82" y="264.73" width="10.02" height="0.95" style="fill:#a6a6a6"></rect><path d="M174.46,293.93a10.76,10.76,0,0,1-.13,1.71,11.55,11.55,0,1,1,.13-1.71Z" style="fill:#455a64"></path><path d="M174.46,293.93a10.76,10.76,0,0,1-.13,1.71l-11.51-1.71V282.3a11.63,11.63,0,0,1,11.64,11.63Z" style="fill:#1B84FF"></path><circle cx="162.82" cy="293.93" r="8.05" transform="translate(-160.58 385.13) rotate(-76.76)" style="fill:#fff"></circle><rect x="159.47" y="292.14" width="6.7" height="0.95" style="fill:#263238"></rect><rect x="157.81" y="294.77" width="10.02" height="0.95" style="fill:#a6a6a6"></rect><path d="M174.46,324a11.63,11.63,0,1,1-1.54-5.79A11.63,11.63,0,0,1,174.46,324Z" style="fill:#455a64"></path><path d="M174.46,324A11.63,11.63,0,0,1,167,334.84L162.82,324V312.34A11.63,11.63,0,0,1,174.46,324Z" style="fill:#1B84FF"></path><path d="M170.87,324a8,8,0,1,1-8.05-8.05A8,8,0,0,1,170.87,324Z" style="fill:#fff"></path><rect x="159.47" y="322.19" width="6.7" height="0.95" style="fill:#263238"></rect><rect x="157.82" y="324.82" width="10.02" height="0.95" style="fill:#a6a6a6"></rect><path d="M174.46,354a11.63,11.63,0,1,1-1.54-5.78A11.52,11.52,0,0,1,174.46,354Z" style="fill:#455a64"></path><path d="M174.46,354a11.63,11.63,0,0,1-19.19,8.85l7.55-8.85V342.39A11.63,11.63,0,0,1,174.46,354Z" style="fill:#1B84FF"></path><circle cx="162.82" cy="354.02" r="8.05" transform="translate(-212.67 458.19) rotate(-80.81)" style="fill:#fff"></circle><rect x="159.47" y="352.23" width="6.7" height="0.95" style="fill:#263238"></rect><rect x="157.81" y="354.86" width="10.02" height="0.95" style="fill:#a6a6a6"></rect><rect x="181.55" y="260.3" width="32.26" height="0.9" style="fill:#455a64"></rect><rect x="181.55" y="263.44" width="32.26" height="0.9" style="fill:#455a64"></rect><rect x="181.55" y="266.57" width="32.26" height="0.9" style="fill:#455a64"></rect><rect x="181.55" y="290.35" width="32.26" height="0.9" style="fill:#455a64"></rect><rect x="181.55" y="293.48" width="32.26" height="0.9" style="fill:#455a64"></rect><rect x="181.55" y="296.62" width="32.26" height="0.9" style="fill:#455a64"></rect><rect x="181.55" y="320.4" width="32.26" height="0.9" style="fill:#455a64"></rect><rect x="181.55" y="323.53" width="32.26" height="0.9" style="fill:#455a64"></rect><rect x="181.55" y="326.66" width="32.26" height="0.9" style="fill:#455a64"></rect><rect x="181.55" y="350.44" width="32.26" height="0.9" style="fill:#455a64"></rect><rect x="181.55" y="353.58" width="32.26" height="0.9" style="fill:#455a64"></rect><rect x="181.55" y="356.71" width="32.26" height="0.9" style="fill:#455a64"></rect><rect x="166.7" y="146.91" width="8.19" height="71.84" style="fill:#fff"></rect><rect x="180.78" y="158.85" width="8.19" height="59.9" style="fill:#fff"></rect><rect x="194.86" y="180.63" width="8.19" height="38.13" style="fill:#fff"></rect><rect x="208.94" y="157.81" width="8.19" height="60.95" style="fill:#fff"></rect><rect x="223.02" y="167.82" width="8.19" height="50.94" style="fill:#fff"></rect><rect x="237.1" y="136.9" width="8.19" height="81.86" style="fill:#fff"></rect><path d="M162,131.91l.09,21.71.05,21.72.06,43.42-.2-.36c19.9-.1,39.8,0,59.7.07l16.6.08,14.72.21-14.72.21-16.6.08c-19.9,0-39.8.17-59.7.07h-.21v-.36l.06-43.42,0-21.72Z" style="fill:#263238"></path><path d="M160.14,136.9a3.93,3.93,0,0,1,1.81-.4,3.8,3.8,0,0,1,1.8.4,3.92,3.92,0,0,1-1.8.4A4.07,4.07,0,0,1,160.14,136.9Z" style="fill:#263238"></path><path d="M160.14,145.52a3.93,3.93,0,0,1,1.81-.4,3.8,3.8,0,0,1,1.8.4,4.27,4.27,0,0,1-3.61,0Z" style="fill:#263238"></path><path d="M160.14,154.14a4.18,4.18,0,0,1,3.61,0,4.27,4.27,0,0,1-3.61,0Z" style="fill:#263238"></path><path d="M160.14,162.75a4.27,4.27,0,0,1,3.61,0,4.18,4.18,0,0,1-3.61,0Z" style="fill:#263238"></path><path d="M160.14,171.37a4.27,4.27,0,0,1,3.61,0,4.27,4.27,0,0,1-3.61,0Z" style="fill:#263238"></path><path d="M160.14,180a4.07,4.07,0,0,1,1.81-.4,3.92,3.92,0,0,1,1.8.4,3.8,3.8,0,0,1-1.8.4A3.93,3.93,0,0,1,160.14,180Z" style="fill:#263238"></path><path d="M160.14,188.61a3.93,3.93,0,0,1,1.81-.4,3.8,3.8,0,0,1,1.8.4,3.92,3.92,0,0,1-1.8.4A4.07,4.07,0,0,1,160.14,188.61Z" style="fill:#263238"></path><path d="M160.14,197.23a3.93,3.93,0,0,1,1.81-.4,3.8,3.8,0,0,1,1.8.4,4.27,4.27,0,0,1-3.61,0Z" style="fill:#263238"></path><path d="M160.14,205.85a4.18,4.18,0,0,1,3.61,0,4.27,4.27,0,0,1-3.61,0Z" style="fill:#263238"></path><rect x="248.05" y="39.83" width="3.91" height="54.7" rx="1.25" transform="translate(317.19 -182.82) rotate(90)" style="fill:#263238"></rect><circle cx="250" cy="414.7" r="7.07" transform="translate(-111.54 92.58) rotate(-17.22)" style="fill:#263238"></circle></g><g id="freepik--chart-2--inject-2"><path d="M372.27,207.7v85.77H260.78v-4.06a5.4,5.4,0,0,1-1.56.22,6.28,6.28,0,0,1-1.24-.13,5.8,5.8,0,0,1-1.11.11,5.28,5.28,0,0,1-1.55-.23,6,6,0,0,1-1.58.21,6.1,6.1,0,0,1-1.9-.31,6.82,6.82,0,0,1-1.74.3h-.19a5.31,5.31,0,0,1-5.26-4.64,6.18,6.18,0,0,1-.65-2.78,6.29,6.29,0,0,1,6.29-6.28,6.4,6.4,0,0,1,1.76.25,6,6,0,0,1,1.69-.25,6.24,6.24,0,0,1,1.56.2,5.85,5.85,0,0,1,1.69-.25,5.68,5.68,0,0,1,1.24.14,5.11,5.11,0,0,1,2.55.09V273.2a5.54,5.54,0,0,1-1.63.24,6.36,6.36,0,0,1-1.24-.13,5.7,5.7,0,0,1-1.1.11,5.28,5.28,0,0,1-1.55-.23,6.4,6.4,0,0,1-1.58.21,6.15,6.15,0,0,1-1.71-.25,6.4,6.4,0,0,1-1.76.25,6.28,6.28,0,0,1-6.27-6.26,6.11,6.11,0,0,1,.44-2.3,5.89,5.89,0,0,1,5.83-5.15,5.66,5.66,0,0,1,1.71.26,6.1,6.1,0,0,1,1.76-.26,6.24,6.24,0,0,1,1.56.2,5.84,5.84,0,0,1,1.68-.25,5.61,5.61,0,0,1,1.24.14,5.12,5.12,0,0,1,2.62.11v-3a5.54,5.54,0,0,1-2,.35,5.61,5.61,0,0,1-1.24-.13,5.08,5.08,0,0,1-1.1.12,5,5,0,0,1-1.55-.24,6,6,0,0,1-3.43-.08,5.29,5.29,0,0,1-7-5.78,5.29,5.29,0,0,1,4.74-7.64h2.38l.48.1h.05a6.42,6.42,0,0,1,1.16-.11,5.81,5.81,0,0,1,1.56.21,5.84,5.84,0,0,1,1.68-.25,5.67,5.67,0,0,1,1.24.13,5.08,5.08,0,0,1,1.1-.12,5,5,0,0,1,1.85.35v-3a5.4,5.4,0,0,1-1.56.22,6.28,6.28,0,0,1-1.24-.13,5.8,5.8,0,0,1-1.11.11,5.28,5.28,0,0,1-1.55-.23,6,6,0,0,1-1.58.21,6.15,6.15,0,0,1-1.71-.25,6.28,6.28,0,0,1-7.49-3.47l-.44-.53-.09-1.7c0-.17,0-.34,0-.52a8,8,0,0,1,.51-2.85,6.82,6.82,0,0,1,2.59-3.3,6.58,6.58,0,0,1,3.39-1.09h.18a4.87,4.87,0,0,1,1.48.22,6.06,6.06,0,0,1,1.6-.22,6.24,6.24,0,0,1,1.56.2,5.85,5.85,0,0,1,1.69-.25,5.68,5.68,0,0,1,1.24.14,5.11,5.11,0,0,1,2.55.09v-2.88a5.84,5.84,0,0,1-1.73.26,5.61,5.61,0,0,1-1.24-.13,5.1,5.1,0,0,1-1.11.12,5,5,0,0,1-1.56-.24,5.89,5.89,0,0,1-1.57.21,6,6,0,0,1-1.74-.26,6.51,6.51,0,0,1-1.76.25A6.36,6.36,0,0,1,245.6,223c-.08-.09-.17-.18-.25-.28h-.49V222a5.37,5.37,0,0,1-.52-4.53,5.6,5.6,0,0,1-.11-1.09,5.3,5.3,0,0,1,5.3-5.3h1.56a4.83,4.83,0,0,1,1.21.15,5.95,5.95,0,0,1,2.85.07,5.77,5.77,0,0,1,1.67-.25,5.67,5.67,0,0,1,1.24.13,5,5,0,0,1,1.1-.12,5.09,5.09,0,0,1,1.62.26V207.7Z" style="fill:#fff"></path><rect x="265.78" y="228.88" width="101.48" height="11.03" style="fill:#ebebeb"></rect><rect x="269.46" y="232" width="44.62" height="4.77" style="fill:#455a64"></rect><path d="M251.57,234.74a1.28,1.28,0,0,1-2.56.13h0c0-.1,0-.2,0-.3a3,3,0,0,1,.19-1.09,1.83,1.83,0,0,1,.68-.9,1.48,1.48,0,0,1,.79-.25.29.29,0,0,1,.31.28.31.31,0,0,1-.28.31.92.92,0,0,0-.5.14,1.1,1.1,0,0,0-.34.37.61.61,0,0,1-.07.14,1.25,1.25,0,0,1,.51-.1A1.28,1.28,0,0,1,251.57,234.74Zm-.59,0a.7.7,0,1,0-1.39,0,.7.7,0,0,0,1.39,0Z" style="fill:#263238"></path><path d="M252.4,234.17a2.18,2.18,0,0,1,.36-1.27,1.18,1.18,0,0,1,1-.59,1.19,1.19,0,0,1,1,.59,2.4,2.4,0,0,1,0,2.53,1.19,1.19,0,0,1-1,.59,1.18,1.18,0,0,1-1-.59A2.17,2.17,0,0,1,252.4,234.17Zm2.09,0a1.84,1.84,0,0,0-.25-.95.62.62,0,0,0-.5-.32.63.63,0,0,0-.5.32,1.75,1.75,0,0,0-.26.95,1.71,1.71,0,0,0,.26.93.65.65,0,0,0,.5.33.63.63,0,0,0,.5-.33A1.8,1.8,0,0,0,254.49,234.17Z" style="fill:#263238"></path><path d="M256.11,233.23h0a.89.89,0,0,1,.88-.95.88.88,0,0,1,.86.94h0a.9.9,0,0,1-.88.95A.89.89,0,0,1,256.11,233.23Zm1.27,0h0c0-.3-.17-.54-.41-.54s-.39.24-.39.53h0c0,.3.17.54.41.54S257.38,233.52,257.38,233.23Zm-.67,2.47,2.44-3.32a.19.19,0,0,1,.18-.09.21.21,0,0,1,.21.2.22.22,0,0,1-.05.14L257.06,236a.21.21,0,0,1-.19.1.2.2,0,0,1-.2-.21A.33.33,0,0,1,256.71,235.7Zm1.64-.57h0a.88.88,0,1,1,1.75,0v0a.9.9,0,0,1-.88.94A.88.88,0,0,1,258.35,235.13Zm1.27,0h0c0-.3-.17-.54-.4-.54s-.4.24-.4.52v0c0,.3.17.54.41.54S259.62,235.41,259.62,235.13Z" style="fill:#263238"></path><rect x="265.78" y="212.69" width="101.48" height="11.03" style="fill:#ebebeb"></rect><rect x="269.46" y="215.82" width="22" height="4.77" style="fill:#1B84FF"></rect><path d="M251,217.58a1.3,1.3,0,0,1,0,1.86,1.29,1.29,0,0,1-.93.39,1.32,1.32,0,0,1-.93-.39.31.31,0,0,1,0-.42.3.3,0,0,1,.43,0,.69.69,0,0,0,.5.21.72.72,0,0,0,.72-.72.72.72,0,0,0-.71-.71.29.29,0,0,1-.22-.1h0a.3.3,0,0,1,0-.42l.54-.55h-.85a.3.3,0,0,1,0-.6h1.56a.29.29,0,0,1,.3.3.33.33,0,0,1,0,.14.18.18,0,0,1,0,.07l-.67.69A1.23,1.23,0,0,1,251,217.58Z" style="fill:#263238"></path><path d="M252.23,218a2.18,2.18,0,0,1,.36-1.27,1.17,1.17,0,0,1,1-.58,1.18,1.18,0,0,1,1,.58,2.26,2.26,0,0,1,.36,1.27,2.28,2.28,0,0,1-.36,1.27,1.21,1.21,0,0,1-1,.58,1.19,1.19,0,0,1-1-.58A2.21,2.21,0,0,1,252.23,218Zm2.09,0a1.81,1.81,0,0,0-.25-.94.63.63,0,0,0-.5-.33.65.65,0,0,0-.5.33,1.89,1.89,0,0,0,0,1.88.65.65,0,0,0,.5.33.63.63,0,0,0,.5-.33A1.81,1.81,0,0,0,254.32,218Z" style="fill:#263238"></path><path d="M255.94,217h0a.89.89,0,0,1,.88-.95.88.88,0,0,1,.86.94h0a.87.87,0,1,1-1.74,0Zm1.27,0h0c0-.29-.17-.54-.41-.54s-.39.25-.39.53h0c0,.3.17.54.41.54S257.21,217.33,257.21,217Zm-.67,2.48,2.44-3.33a.19.19,0,0,1,.18-.09.21.21,0,0,1,.21.21.19.19,0,0,1-.05.13l-2.43,3.33a.22.22,0,0,1-.19.09.2.2,0,0,1-.2-.2A.26.26,0,0,1,256.54,219.52Zm1.64-.58h0a.88.88,0,1,1,1.75,0h0a.9.9,0,0,1-.88.95A.89.89,0,0,1,258.18,218.94Zm1.27,0h0c0-.3-.17-.54-.4-.54s-.4.24-.4.53h0c0,.3.17.54.41.54S259.45,219.23,259.45,218.94Z" style="fill:#263238"></path><rect x="265.78" y="277.44" width="101.48" height="11.03" style="fill:#ebebeb"></rect><rect x="269.46" y="280.56" width="76.14" height="4.77" style="fill:#1B84FF"></rect><path d="M249,282.15a1.28,1.28,0,0,1,2.56-.13h0c0,.1,0,.2,0,.3a3.16,3.16,0,0,1-.18,1.09,1.92,1.92,0,0,1-.69.91,1.57,1.57,0,0,1-.79.25.3.3,0,1,1,0-.59,1,1,0,0,0,.83-.52l.07-.14a1.26,1.26,0,0,1-.51.11A1.29,1.29,0,0,1,249,282.15Zm.59,0a.7.7,0,0,0,.7.7.7.7,0,1,0-.7-.7Z" style="fill:#263238"></path><path d="M252.4,282.73a2.18,2.18,0,0,1,.36-1.27,1.18,1.18,0,0,1,1-.59,1.19,1.19,0,0,1,1,.59,2.4,2.4,0,0,1,0,2.53,1.19,1.19,0,0,1-1,.59,1.18,1.18,0,0,1-1-.59A2.17,2.17,0,0,1,252.4,282.73Zm2.09,0a1.87,1.87,0,0,0-.25-1,.62.62,0,0,0-.5-.32.63.63,0,0,0-.5.32,1.78,1.78,0,0,0-.26,1,1.71,1.71,0,0,0,.26.93.65.65,0,0,0,.5.33.63.63,0,0,0,.5-.33A1.8,1.8,0,0,0,254.49,282.73Z" style="fill:#263238"></path><path d="M256.11,281.79h0a.89.89,0,0,1,.88-.95.88.88,0,0,1,.86.94h0a.9.9,0,0,1-.88,1A.89.89,0,0,1,256.11,281.79Zm1.27,0h0c0-.3-.17-.54-.41-.54s-.39.24-.39.53h0c0,.3.17.54.41.54S257.38,282.07,257.38,281.79Zm-.67,2.47,2.44-3.32a.19.19,0,0,1,.18-.09.21.21,0,0,1,.21.2.24.24,0,0,1-.05.14l-2.43,3.32a.21.21,0,0,1-.19.1.2.2,0,0,1-.2-.21A.33.33,0,0,1,256.71,284.26Zm1.64-.57v0a.88.88,0,1,1,1.75,0h0a.9.9,0,0,1-.88.95A.88.88,0,0,1,258.35,283.69Zm1.27,0v0c0-.29-.17-.54-.4-.54s-.4.25-.4.53h0c0,.31.17.55.41.55S259.62,284,259.62,283.69Z" style="fill:#263238"></path><rect x="265.78" y="261.25" width="101.48" height="11.03" style="fill:#ebebeb"></rect><rect x="269.46" y="264.38" width="68.43" height="4.77" style="fill:#455a64"></rect><path d="M251.48,267.13a1.27,1.27,0,0,1-2.54,0,1.23,1.23,0,0,1,.57-1.05.87.87,0,0,1,.7-1.4.88.88,0,0,1,.7,1.4A1.25,1.25,0,0,1,251.48,267.13Zm-.58,0a.69.69,0,1,0-.69.68A.68.68,0,0,0,250.9,267.13Zm-1-1.58a.29.29,0,0,0,.3.3.3.3,0,1,0,0-.59A.29.29,0,0,0,249.91,265.55Z" style="fill:#263238"></path><path d="M252.33,266.54a2.34,2.34,0,0,1,.36-1.27,1.21,1.21,0,0,1,1-.59,1.19,1.19,0,0,1,1,.59,2.4,2.4,0,0,1,0,2.53,1.19,1.19,0,0,1-1,.59,1.21,1.21,0,0,1-1-.59A2.33,2.33,0,0,1,252.33,266.54Zm2.1,0a1.78,1.78,0,0,0-.26-1,.63.63,0,0,0-.49-.32.64.64,0,0,0-.5.32,1.85,1.85,0,0,0,0,1.89.64.64,0,0,0,.5.32.63.63,0,0,0,.49-.32A1.77,1.77,0,0,0,254.43,266.54Z" style="fill:#263238"></path><path d="M256,265.6h0a.9.9,0,0,1,.88-.95.88.88,0,0,1,.87.94h0a.9.9,0,0,1-.88,1A.89.89,0,0,1,256,265.6Zm1.28,0h0c0-.3-.17-.54-.41-.54s-.4.24-.4.53h0c0,.3.17.54.41.54S257.32,265.89,257.32,265.6Zm-.67,2.47,2.43-3.32a.22.22,0,0,1,.4.11.29.29,0,0,1-.05.14L257,268.32a.23.23,0,0,1-.19.1.21.21,0,0,1-.21-.21A.24.24,0,0,1,256.65,268.07Zm1.63-.57h0a.9.9,0,0,1,.88-.95.89.89,0,0,1,.87.94h0a.89.89,0,0,1-.88.94A.88.88,0,0,1,258.28,267.5Zm1.28,0h0c0-.3-.17-.54-.41-.54s-.39.24-.39.53h0c0,.3.16.54.4.54S259.56,267.78,259.56,267.5Z" style="fill:#263238"></path><rect x="265.78" y="245.06" width="101.48" height="11.03" style="fill:#ebebeb"></rect><rect x="269.46" y="248.19" width="58.09" height="4.77" style="fill:#1B84FF"></rect><path d="M251.37,248.9,250,252a.27.27,0,0,1-.27.18l-.11,0a.3.3,0,0,1-.16-.38l1.15-2.71h-1.37a.3.3,0,0,1-.29-.3.28.28,0,0,1,.29-.29h1.87l.11,0,0,0s0,0,0,0l0,0,0,0v0l0,0v0l0,0v.12S251.37,248.88,251.37,248.9Z" style="fill:#263238"></path><path d="M252,250.35a2.2,2.2,0,0,1,.36-1.26,1.2,1.2,0,0,1,1-.59,1.22,1.22,0,0,1,1,.59,2.28,2.28,0,0,1,.35,1.26,2.36,2.36,0,0,1-.35,1.27,1.25,1.25,0,0,1-1,.59,1.22,1.22,0,0,1-1-.59A2.28,2.28,0,0,1,252,250.35Zm2.09,0a1.74,1.74,0,0,0-.25-.94.62.62,0,0,0-.49-.32.63.63,0,0,0-.51.32,1.74,1.74,0,0,0-.25.94,1.72,1.72,0,0,0,.25.94.65.65,0,0,0,.51.33.63.63,0,0,0,.49-.33A1.72,1.72,0,0,0,254.09,250.35Z" style="fill:#263238"></path><path d="M255.71,249.41h0a.88.88,0,1,1,1.75,0h0a.88.88,0,1,1-1.75,0Zm1.27,0h0c0-.29-.16-.54-.4-.54s-.4.25-.4.53h0c0,.3.17.54.41.54S257,249.7,257,249.41Zm-.66,2.48,2.43-3.32a.19.19,0,0,1,.18-.1.21.21,0,0,1,.21.21.19.19,0,0,1-.05.13l-2.43,3.33a.21.21,0,0,1-.18.09.2.2,0,0,1-.21-.2A.2.2,0,0,1,256.32,251.89Zm1.63-.58h0a.88.88,0,1,1,1.75,0h0a.9.9,0,0,1-.88.95A.89.89,0,0,1,258,251.31Zm1.28,0h0c0-.3-.17-.54-.41-.54s-.4.24-.4.53h0c0,.3.17.54.41.54S259.23,251.6,259.23,251.31Z" style="fill:#263238"></path></g><g id="freepik--chart-1--inject-2"><path d="M267.18,106.68A49.82,49.82,0,0,1,235.38,153l-4.67,1.79-.43-1.13-.89.34a49.56,49.56,0,1,1-17.77-95.83h1v-1h5a49.51,49.51,0,0,1,49.56,49.56Z" style="fill:#fff"></path><path d="M227.59,149.29a44.56,44.56,0,1,1-16-86.17v44.56Z" style="fill:#37474f"></path><path d="M262.18,106.68a44.55,44.55,0,0,1-28.59,41.61l-16-41.61V62.12a44.52,44.52,0,0,1,44.56,44.56Z" style="fill:#1B84FF"></path><path d="M191.67,83.32l.21,0a2,2,0,0,1,1.6,2,1.92,1.92,0,0,1-1.18,1.87,2,2,0,0,1-2.18-.3,1.91,1.91,0,0,1-.64-2.07,2,2,0,0,1,1.63-1.47l.11,0Z" style="fill:#fff"></path><path d="M191.65,103.65v-3.36c0-.16,0-.16-.17-.16s-.24,0-.24.23v6.57a1.09,1.09,0,0,1-.42.89.61.61,0,0,1-.46.16,1.22,1.22,0,0,0-.27,0c-.4.06-.82-.41-.85-.8,0-.17,0-.34,0-.51v-6.42c0-.1,0-.13-.13-.12h-2.24c-.17,0-.18,0-.13-.18.66-2.27,1.31-4.55,2-6.82l.67-2.32c0-.14,0-.15-.11-.15-.33,0-.26,0-.35.26-.49,1.69-1,3.39-1.45,5.08a.83.83,0,0,1-.61.65.89.89,0,0,1-.91-.27.77.77,0,0,1-.16-.79c.17-.61.35-1.22.52-1.83.38-1.3.75-2.61,1.13-3.91a2.87,2.87,0,0,1,1.35-1.74,2.42,2.42,0,0,1,1.11-.29h3a2.53,2.53,0,0,1,2.31,1.38,6.66,6.66,0,0,1,.49,1.38c.46,1.62.93,3.24,1.39,4.86a1.39,1.39,0,0,1,0,.7c0,.27-.28.4-.52.49a.86.86,0,0,1-1.13-.61c-.48-1.75-1-3.49-1.49-5.24a.15.15,0,0,0-.16-.12c-.3,0-.31,0-.22.29q1.08,3.78,2.17,7.55l.42,1.46c0,.16,0,.17-.12.17h-2.23c-.17,0-.17,0-.17.17V107a.94.94,0,0,1-.54.89.46.46,0,0,1-.23.06h-.25a1,1,0,0,1-1-1Z" style="fill:#fff"></path><path d="M185.32,119.32a2.91,2.91,0,0,1-5.8.3s0,0,0,0q0-.34,0-.69a7.07,7.07,0,0,1,.42-2.46,4.21,4.21,0,0,1,1.55-2,3.45,3.45,0,0,1,1.8-.56.66.66,0,0,1,.69.64.67.67,0,0,1-.64.69,2.19,2.19,0,0,0-1.13.34,2.49,2.49,0,0,0-.76.84,2.23,2.23,0,0,0-.15.31,2.75,2.75,0,0,1,1.15-.24A2.9,2.9,0,0,1,185.32,119.32Zm-1.33,0a1.58,1.58,0,1,0-3.15,0,1.58,1.58,0,0,0,3.15,0Z" style="fill:#fff"></path><path d="M191.62,117.14a2.92,2.92,0,0,1,.88,2.11,3,3,0,0,1-.88,2.1,2.9,2.9,0,0,1-2.09.87h0a2.91,2.91,0,0,1-2.09-.87.68.68,0,1,1,1-1,1.6,1.6,0,0,0,1.16.48,1.64,1.64,0,0,0,1.61-1.62,1.54,1.54,0,0,0-.48-1.15,1.52,1.52,0,0,0-1.13-.47,1.6,1.6,0,0,0-1.16.47.69.69,0,0,1-1,0,1.83,1.83,0,0,0-.13-.16s0,0,0,0a.08.08,0,0,0,0-.06s0-.06,0-.09,0,0,0,0a.74.74,0,0,1,0-.21l.36-3.1a.76.76,0,0,1,.3-.48s0,0,.05,0l0,0a.62.62,0,0,1,.31-.07h3.54a.68.68,0,1,1,0,1.35h-2.95l-.15,1.19a3.22,3.22,0,0,1,.81-.11A2.91,2.91,0,0,1,191.62,117.14Z" style="fill:#fff"></path><path d="M194.34,115.9v0a2,2,0,0,1,2-2.15,2,2,0,0,1,2,2.12v0a2,2,0,0,1-2,2.15A2,2,0,0,1,194.34,115.9Zm2.89,0v0c0-.67-.39-1.22-.92-1.22s-.9.55-.9,1.19v0c0,.68.38,1.22.92,1.22S197.23,116.55,197.23,115.9Zm-1.51,5.6,5.5-7.52a.49.49,0,0,1,.89.26.55.55,0,0,1-.11.31l-5.5,7.52a.5.5,0,0,1-.42.21.45.45,0,0,1-.47-.46A.59.59,0,0,1,195.72,121.5Zm3.69-1.3v0a2,2,0,0,1,2-2.14,2,2,0,0,1,2,2.12v0a2,2,0,0,1-2,2.15A2,2,0,0,1,199.41,120.2Zm2.89,0v0c0-.67-.38-1.22-.92-1.22s-.9.55-.9,1.2v0c0,.69.38,1.23.92,1.23S202.3,120.84,202.3,120.2Z" style="fill:#fff"></path><g id="freepik--1jhwpttif--inject-2"><path d="M235.06,90.24a3.09,3.09,0,0,1,.22-.79,2.49,2.49,0,0,1,2.3-1.54c1.55,0,3.09,0,4.63,0a2.6,2.6,0,0,1,2.51,2.33c0,.15,0,.3,0,.46v6a.89.89,0,0,1-.43.82.88.88,0,0,1-1.33-.76v-5.4c0-.29,0-.25-.25-.26,0,0,0,0-.07,0s-.15,0-.14.14v15.53a1.19,1.19,0,0,1-.68,1.14.37.37,0,0,1-.23,0,3,3,0,0,0-.42,0,.88.88,0,0,1-.8-.41,1.12,1.12,0,0,1-.25-.77v-9c0-.1,0-.14-.14-.14-.34,0-.34,0-.34.34,0,2.91,0,5.83,0,8.74a1.18,1.18,0,0,1-.68,1.13.09.09,0,0,1-.05,0,1.73,1.73,0,0,1-1.12-.12,1.15,1.15,0,0,1-.52-1c0-1.47,0-2.94,0-4.41V91.32c0-.22,0-.22-.21-.22s-.24,0-.24.24v5.4a.89.89,0,0,1-.58.85A.87.87,0,0,1,235.1,97s0-.08,0-.12Z" style="fill:#fff"></path><path d="M239.9,87.37a2,2,0,1,1,2-2A2,2,0,0,1,239.9,87.37Z" style="fill:#fff"></path></g><path d="M234.31,120a.66.66,0,0,1-.67.66h-.12v.91a.66.66,0,0,1-1.32,0v-.91h-3.78a.56.56,0,0,1-.4-.14.64.64,0,0,1-.11-.92l4.44-5.52s0,0,0,0l0,0,.06,0s0,0,0,0l.07,0s0,0,0,0l.07,0H233l.07,0,0,0,.06,0a.13.13,0,0,0,.06,0,0,0,0,0,1,0,0,0,0,0,0,1,0,0l0,0,0,0,.05.06a.11.11,0,0,0,0,0,.64.64,0,0,1,0,.07s0,0,0,0a.15.15,0,0,1,0,.07s0,0,0,.06v4.88h.12A.67.67,0,0,1,234.31,120Zm-2.11-3.62-2.39,3h2.39Z" style="fill:#fff"></path><path d="M240.29,117.14a2.91,2.91,0,0,1,.87,2.11,3,3,0,0,1-.87,2.1,2.92,2.92,0,0,1-2.1.87h0a2.88,2.88,0,0,1-2.09-.87.65.65,0,0,1,0-1,.67.67,0,0,1,1,0,1.61,1.61,0,0,0,2.29,0,1.63,1.63,0,0,0,.48-1.14,1.58,1.58,0,0,0-.48-1.15,1.53,1.53,0,0,0-1.14-.47,1.56,1.56,0,0,0-1.15.47.69.69,0,0,1-1,0c-.05,0-.08-.11-.13-.16s0,0,0,0a.09.09,0,0,0,0-.06s0-.06,0-.09,0,0,0,0a.74.74,0,0,1,0-.21l.36-3.1a.68.68,0,0,1,.3-.48l0,0,0,0a.64.64,0,0,1,.31-.07h3.54a.68.68,0,1,1,0,1.35h-2.95l-.14,1.19a3.15,3.15,0,0,1,.8-.11A2.93,2.93,0,0,1,240.29,117.14Z" style="fill:#fff"></path><path d="M243,115.9v0a2,2,0,0,1,2-2.15,2,2,0,0,1,2,2.12v0a2,2,0,1,1-4,0Zm2.89,0v0c0-.67-.38-1.22-.92-1.22s-.9.55-.9,1.19v0c0,.68.38,1.22.92,1.22S245.89,116.55,245.89,115.9Zm-1.51,5.6,5.51-7.52a.46.46,0,0,1,.41-.21.46.46,0,0,1,.47.47.55.55,0,0,1-.1.31l-5.51,7.52a.49.49,0,0,1-.42.21.46.46,0,0,1-.47-.46A.59.59,0,0,1,244.38,121.5Zm3.7-1.3v0a2,2,0,1,1,3.95,0v0a2,2,0,0,1-2,2.15A2,2,0,0,1,248.08,120.2Zm2.89,0v0c0-.67-.39-1.22-.93-1.22s-.9.55-.9,1.2v0c0,.69.39,1.23.93,1.23S251,120.84,251,120.2Z" style="fill:#fff"></path></g></svg>