<svg id="freepik_stories-visual-data" data-name="freepik stories-visual-data" xmlns="http://www.w3.org/2000/svg" viewBox="0 0 203.02 113.59"><defs><style>.cls-1{opacity:0.5;}.cls-2,.cls-8{fill:#1b84ff;}.cls-3{fill:#ebebeb;}.cls-4{fill:#455a64;}.cls-5{fill:#c7c7c7;}.cls-6{fill:#fff;}.cls-7,.cls-8{opacity:0.62;}.cls-8{isolation:isolate;}</style></defs><g id="freepik--window-3--inject-2"><g id="eluowjg35m4b"><g id="elzu190s3m6ze" class="cls-1"><rect id="elv936q1gj4fk" class="cls-2" x="0.37" y="7.62" width="202.38" height="105.7"/><path id="el6v8p3vnmpdc" class="cls-3" d="M258,371.73,55.58,372h-.26v-.27L55.21,266v-.38h.37l202.38.11h.27V266l-.09,53Zm0,0L257.69,266l.27.27-202.38.1L56,266l-.11,105.7-.27-.26Z" transform="translate(-55.21 -258.41)"/></g></g><rect id="elst5h3cpydw" class="cls-4" x="0.37" width="202.38" height="7.62"/><path id="elf7cqsmx6gsc" class="cls-5" d="M61.64,262.22a1.89,1.89,0,1,1-1.89-1.89,1.89,1.89,0,0,1,1.89,1.89Z" transform="translate(-55.21 -258.41)"/><path id="el589ni1yqfo4" class="cls-6" d="M69.35,262.22a1.89,1.89,0,1,1-1.89-1.89,1.89,1.89,0,0,1,1.89,1.89Z" transform="translate(-55.21 -258.41)"/><path id="elpolfwnuzduk" class="cls-2" d="M77.06,262.22a1.89,1.89,0,1,1-1.89-1.89,1.89,1.89,0,0,1,1.89,1.89Z" transform="translate(-55.21 -258.41)"/><path id="elea8qh3z9us" class="cls-6" d="M71.15,288c28.91-.15,56.38-.11,85.3-.17s57.17,0,86.09.17c-28.92.14-57.17.1-86.09.16S100.06,288.11,71.15,288Z" transform="translate(-55.21 -258.41)"/><path id="elcldufltsvho" class="cls-6" d="M71.15,301.6c28.91-.14,56.38-.1,85.3-.16s57.17,0,86.09.16c-28.92.15-57.17.11-86.09.17S100.06,301.75,71.15,301.6Z" transform="translate(-55.21 -258.41)"/><path id="elf4jk1jctiw" class="cls-6" d="M71.15,315.24c28.91-.14,56.38-.11,85.3-.17s57.17,0,86.09.17c-28.92.14-57.17.11-86.09.17S100.06,315.38,71.15,315.24Z" transform="translate(-55.21 -258.41)"/><path id="elguyvvmm18ns" class="cls-6" d="M71.15,328.88c28.91-.15,56.38-.11,85.3-.17s57.17,0,86.09.17c-28.92.14-57.17.1-86.09.16S100.06,329,71.15,328.88Z" transform="translate(-55.21 -258.41)"/><path id="el7pkdk51re7l" class="cls-6" d="M71.15,342.51c28.91-.14,56.38-.11,85.3-.17s57.17,0,86.09.17c-28.92.14-57.17.11-86.09.17S100.06,342.65,71.15,342.51Z" transform="translate(-55.21 -258.41)"/><path id="elpneokbtlwgo" class="cls-6" d="M87.58,279.1c.15,12.74.11,25.48.17,38.22s0,25.49-.17,38.23c-.14-12.74-.1-25.48-.16-38.23S87.44,291.84,87.58,279.1Z" transform="translate(-55.21 -258.41)"/><path id="elpzzytjbi53f" class="cls-6" d="M102.4,279.1c.14,12.74.11,25.48.17,38.22s0,25.49-.17,38.23c-.14-12.74-.11-25.48-.17-38.23S102.26,291.84,102.4,279.1Z" transform="translate(-55.21 -258.41)"/><path id="el28akd9cycdp" class="cls-6" d="M117.21,279.1c.15,12.74.11,25.48.17,38.22s0,25.49-.17,38.23c-.14-12.74-.1-25.48-.16-38.23S117.07,291.84,117.21,279.1Z" transform="translate(-55.21 -258.41)"/><path id="el9e1aibfp05" class="cls-6" d="M132,279.1c.14,12.74.11,25.48.17,38.22s0,25.49-.17,38.23c-.14-12.74-.11-25.48-.17-38.23S131.89,291.84,132,279.1Z" transform="translate(-55.21 -258.41)"/><path id="el38fza2j3b0e" class="cls-6" d="M146.84,279.1c.15,12.74.11,25.48.17,38.22s0,25.49-.17,38.23c-.14-12.74-.1-25.48-.16-38.23S146.7,291.84,146.84,279.1Z" transform="translate(-55.21 -258.41)"/><path id="elcx0fxksc0dp" class="cls-6" d="M161.66,279.1c.14,12.74.11,25.48.17,38.22s0,25.49-.17,38.23c-.14-12.74-.11-25.48-.17-38.23S161.52,291.84,161.66,279.1Z" transform="translate(-55.21 -258.41)"/><path id="el9q5xuqnyc5b" class="cls-6" d="M176.47,279.1c.15,12.74.11,25.48.17,38.22s0,25.49-.17,38.23c-.14-12.74-.1-25.48-.16-38.23S176.33,291.84,176.47,279.1Z" transform="translate(-55.21 -258.41)"/><path id="el3558leu7x38" class="cls-6" d="M191.29,279.1c.14,12.74.11,25.48.17,38.22s0,25.49-.17,38.23c-.14-12.74-.11-25.48-.17-38.23S191.15,291.84,191.29,279.1Z" transform="translate(-55.21 -258.41)"/><path id="el3l8kyx4lqss" class="cls-6" d="M206.1,279.1c.15,12.74.11,25.48.17,38.22s0,25.49-.17,38.23c-.14-12.74-.1-25.48-.16-38.23S206,291.84,206.1,279.1Z" transform="translate(-55.21 -258.41)"/><path id="el5pr1s7do6j" class="cls-6" d="M220.92,279.1c.14,12.74.11,25.48.17,38.22s0,25.49-.17,38.23c-.14-12.74-.11-25.48-.17-38.23S220.78,291.84,220.92,279.1Z" transform="translate(-55.21 -258.41)"/><path id="eln82l84jhu2" class="cls-6" d="M235.73,279.1c.15,12.74.11,25.48.17,38.22s0,25.49-.17,38.23c-.14-12.74-.1-25.48-.16-38.23S235.59,291.84,235.73,279.1Z" transform="translate(-55.21 -258.41)"/><path id="elt7xywo9sifl" class="cls-6" d="M70.9,279.93c.19,12.6.35,25.21.37,37.81l.18,37.81-.55-.31,84.56.08,42.29.06,45.45.17-45.45.17-42.29.06-84.56.08h-.56v-.31l.18-37.81C70.54,305.14,70.7,292.53,70.9,279.93Z" transform="translate(-55.21 -258.41)"/><g id="el9v89a7w08rq"><g id="elu7bjij46emc" class="cls-7"><path id="elijh59z1i9vm" class="cls-2" d="M71.15,355.55s8-33.17,16-33.17c6.79,0,9.65,9.78,15.16,9.78,7.27,0,8.28-25.32,15.3-25.32s8.52,9.9,14.53,9.9,8.68-11.65,14.92-11.65,7.76,17.17,14.41,17.17,6.77-27.08,14.91-27.08,10.28,11.66,15,11.66,7.52-8.52,14.54-8.52c13.28,0,29.73,57.23,29.73,57.23Z" transform="translate(-55.21 -258.41)"/></g></g><g id="elcg6suq4qulv"><g id="eldwggzoxoli5" class="cls-7"><path id="el4jbzcecuisw" class="cls-2" d="M71.15,355.55s8.56-30.74,16.17-30.74,8.4,8.45,14.8,8.45,6.49-14.83,15.09-14.83c5.93,0,8,6,14.56,6,9,0,7.65-14,15-14,9.4,0,5.6,19.25,15.4,19.25,6.2,0,7.85-8.63,15.25-8.63,4.9,0,7,6.21,13.44,6.21s7.81-12.39,15.81-12.39c13.11,0,29.32,40.64,29.32,40.64Z" transform="translate(-55.21 -258.41)"/></g></g><g id="elr75ce6tt95"><path id="elzjfzgfimtr" class="cls-8" d="M71.15,355.55s7.72-11.29,16.43-11.29c6.54,0,7.71,3,14.9,3,4.51,0,6.24-11.87,14.9-11.87s8.83,7,14.76,7,7.6-6.6,14.87-6.6,8.15,3.63,14.65,3.63c7.41,0,7.18-14.7,14.81-14.7s7.92,12.23,15,12.23c5,0,6.89-5.24,14.48-5.24,10.59,0,30.05,23.87,30.05,23.87Z" transform="translate(-55.21 -258.41)"/></g></g></svg>