<svg id="freepik_stories-visual-data" data-name="freepik stories-visual-data" xmlns="http://www.w3.org/2000/svg" viewBox="0 0 159.37 121.04"><defs><style>.cls-1{opacity:0.5;}.cls-2{fill:#ebebeb;}.cls-3{fill:#455a64;}.cls-4{fill:#c7c7c7;}.cls-5{fill:#fff;}.cls-6{fill:#1b84ff;}</style></defs><g id="freepik--window-4--inject-2"><g id="el0ox6b0e1uq9"><g id="elp2v1j7nmb1g" class="cls-1"><rect id="el3laof49coks" class="cls-2" x="0.39" y="7.44" width="158.73" height="113.33"/><path id="elh7nu4jc19u7" class="cls-2" d="M432.75,343.43,274,343.7h-.26v-.27l-.11-113.33v-.37H274l158.73.1H433v.27Zm0,0-.27-113.33.27.27L274,230.48l.38-.38-.11,113.33-.27-.26Z" transform="translate(-273.63 -222.66)"/></g></g><rect id="elq0rc241zobg" class="cls-3" x="0.39" width="158.73" height="7.44"/><path id="elr38245iqkmo" class="cls-4" d="M279.94,226.38a1.85,1.85,0,1,1-1.86-1.84h0A1.85,1.85,0,0,1,279.94,226.38Z" transform="translate(-273.63 -222.66)"/><path id="elgrm7xou786c" class="cls-5" d="M287.48,226.38a1.85,1.85,0,1,1-1.86-1.84h0A1.85,1.85,0,0,1,287.48,226.38Z" transform="translate(-273.63 -222.66)"/><path id="elqvakq6rph1j" class="cls-6" d="M295,226.38a1.85,1.85,0,1,1-1.86-1.84h0A1.85,1.85,0,0,1,295,226.38Z" transform="translate(-273.63 -222.66)"/><g id="el7x7goluhsvk"><rect id="elz9slch0qzk" class="cls-5" x="117.94" y="28.04" width="11.46" height="74.3"/></g><g id="elb6kcsqextpg"><rect id="el6r449eq6ya2" class="cls-6" x="117.94" y="45.89" width="11.46" height="56.45"/></g><g id="elzova1c7kpe"><rect id="eljllt975x8ld" class="cls-5" x="100.71" y="28.06" width="11.46" height="74.27"/></g><g id="elwd3o4mm9xee"><rect id="el1a3j4ejpqof" class="cls-3" x="100.71" y="53.41" width="11.46" height="48.92"/></g><g id="elxf7fr4py9z"><rect id="el6a59atpm3gs" class="cls-5" x="83.47" y="28.04" width="11.46" height="74.3"/></g><g id="el1p62f1d58gg"><rect id="el4rc3umcxaib" class="cls-6" x="83.47" y="79.73" width="11.46" height="22.6"/></g><g id="elp5o0ay6cz9"><rect id="el7q0v1iilfxg" class="cls-5" x="66.24" y="28.06" width="11.46" height="74.27"/></g><g id="elptngi72q3hp"><rect id="el9vnmqiteapp" class="cls-3" x="66.24" y="40.32" width="11.46" height="62.02"/></g><g id="elxmrakz8as0l"><rect id="elnvfpmrq3n0h" class="cls-5" x="49" y="28.06" width="11.46" height="74.27"/></g><g id="elg4rwd98ow4a"><rect id="eli7ds2th9vq" class="cls-6" x="49" y="35.4" width="11.46" height="66.93"/></g><g id="eljl39gvmtzo"><rect id="elx5caoyzq0m" class="cls-5" x="31.77" y="28.06" width="11.46" height="74.27"/></g><g id="el4nnkmv9x83"><rect id="elp5mcjgi6z2j" class="cls-3" x="31.77" y="59.93" width="11.46" height="42.41"/></g><polygon id="elskp85npd95b" class="cls-4" points="24.13 28.04 24.3 46.61 24.42 65.19 24.54 102.34 24.13 101.93 52.36 101.92 80.58 101.96 108.81 102.1 137.03 102.34 108.81 102.58 80.58 102.72 52.36 102.76 24.13 102.74 23.73 102.74 23.73 102.34 23.85 65.19 23.97 46.61 24.13 28.04"/><path id="elf11tyxdvm9o" class="cls-4" d="M296.11,250.7a6.18,6.18,0,0,1,1.71-.22,5.75,5.75,0,0,1,1.7.22,6.1,6.1,0,0,1-1.7.22A6.18,6.18,0,0,1,296.11,250.7Z" transform="translate(-273.63 -222.66)"/><path id="elnzdhfeplzbk" class="cls-4" d="M296.11,258.06a6.17,6.17,0,0,1,1.71-.21,6.1,6.1,0,0,1,1.7.21,5.44,5.44,0,0,1-1.7.22A5.82,5.82,0,0,1,296.11,258.06Z" transform="translate(-273.63 -222.66)"/><path id="el5e3ip4hjzrt" class="cls-4" d="M296.11,265.43a6.18,6.18,0,0,1,1.71-.22,6.1,6.1,0,0,1,1.7.22,6.1,6.1,0,0,1-1.7.22A6.18,6.18,0,0,1,296.11,265.43Z" transform="translate(-273.63 -222.66)"/><path id="eltfzca11c68m" class="cls-4" d="M296.11,272.8a6.18,6.18,0,0,1,1.71-.22,6.1,6.1,0,0,1,1.7.22,6.1,6.1,0,0,1-1.7.22A6.18,6.18,0,0,1,296.11,272.8Z" transform="translate(-273.63 -222.66)"/><path id="elqi9u5ap36i" class="cls-4" d="M296.11,280.17a6.18,6.18,0,0,1,1.71-.22,6.1,6.1,0,0,1,1.7.22,6.1,6.1,0,0,1-1.7.22A6.18,6.18,0,0,1,296.11,280.17Z" transform="translate(-273.63 -222.66)"/><path id="elp1prfr29te" class="cls-4" d="M296.11,287.53a6.17,6.17,0,0,1,1.71-.21,6.1,6.1,0,0,1,1.7.21,5.44,5.44,0,0,1-1.7.22A5.82,5.82,0,0,1,296.11,287.53Z" transform="translate(-273.63 -222.66)"/><path id="elucyekoaw7q" class="cls-4" d="M296.11,294.9a6.18,6.18,0,0,1,1.71-.22,6.1,6.1,0,0,1,1.7.22,6.1,6.1,0,0,1-1.7.22A6.18,6.18,0,0,1,296.11,294.9Z" transform="translate(-273.63 -222.66)"/><path id="el955kri43o7q" class="cls-4" d="M296.11,302.27a6.18,6.18,0,0,1,1.71-.22,6.1,6.1,0,0,1,1.7.22,6.1,6.1,0,0,1-1.7.22A6.18,6.18,0,0,1,296.11,302.27Z" transform="translate(-273.63 -222.66)"/><path id="elru34fyvc3cf" class="cls-4" d="M296.11,309.64a6.18,6.18,0,0,1,1.71-.22,6.1,6.1,0,0,1,1.7.22,6.1,6.1,0,0,1-1.7.22A6.18,6.18,0,0,1,296.11,309.64Z" transform="translate(-273.63 -222.66)"/><path id="els86muf6x3l" class="cls-4" d="M296.11,317a6.17,6.17,0,0,1,1.71-.21,6.1,6.1,0,0,1,1.7.21,5.44,5.44,0,0,1-1.7.22A5.82,5.82,0,0,1,296.11,317Z" transform="translate(-273.63 -222.66)"/></g></svg>