<svg id="Layer_1" data-name="Layer 1" xmlns="http://www.w3.org/2000/svg" viewBox="0 0 500 200"><defs><style>.cls-1{fill:#fedc1a;}.cls-2{fill:#fedc16;}.cls-3{fill:#fedc14;}.cls-4{fill:#fedb11;}.cls-5{fill:#fefdf9;}.cls-6{fill:#fefae5;}.cls-7{fill:#fefbe7;}.cls-8{fill:#fefcee;}.cls-9{fill:#fefbe9;}.cls-10{fill:#fefbec;}.cls-11{fill:#fefae3;}.cls-12{fill:#fefae2;}.cls-13{fill:#fef8d3;}.cls-14{fill:#fef9de;}.cls-15{fill:#fefdf7;}.cls-16{fill:#feeb7f;}.cls-17{fill:#fedd21;}.cls-18{fill:#fee13b;}.cls-19{fill:#fedf2a;}.cls-20{fill:#fee139;}.cls-21{fill:#fedf2d;}.cls-22{fill:#fee034;}.cls-23{fill:#fee346;}.cls-24{fill:#fedd1d;}.cls-25{fill:#fefcf0;}</style></defs><path class="cls-1" d="M117.42,11c1.89.58,3.75,1.32,5.68,1.71,39.14,7.85,66.3,41.92,65.66,82.39-.6,38.3-29.82,72.43-68.62,77.93C70,180.13,33.9,147.64,26.23,106.79c-8-42.83,21.08-85.44,64.1-94A39.25,39.25,0,0,0,95.49,11h21.93ZM42.53,118.32a25.33,25.33,0,0,0-1.66,3.07c-.55,1.41-1.69,3.63-1.15,4.23,1.35,1.5,3.5,2.29,5.33,3.37,5.43.1,8.39-2.62,7.55-6.93-1.06-5.46-6.81-8.32-12.19-6.08l-2.74,1L39,118.32Zm109.2-79.73c.16-.67.31-1.35.46-2l.69-3.13c-1.1.5-2.42.77-3.25,1.55a26.66,26.66,0,0,0-3.92,4.69,45.52,45.52,0,0,0-2.54,5l4.57-2.71,1.18-.71c-.89,7.24-.89,7.24,2.26,8.82-2.24-7.47,3-9.22,8.6-10.74l-.8-1.57Zm11.32,88.16c2.72,3.62,5.93,3.67,9.58,1.41s4.91-5.42,3-7.91c.25-4.1-1.9-6.17-6.73-6.49-6.47.3-9.77,5.25-6.81,10.22Zm4.61-35.92c-.24,2.44-.47,4.89-.71,7.33l1.66.32,2.06-5.26H182l.08-1.9c-4.33-1-8.85-.49-13.31-.47.87-1,1.54-2.38,2.63-3.07,2.65-1.69,5.53-3,8.24-4.61,2-1.15,2.44-2.91-.05-3.65-4.58-1.38-9.32-2.23-14.91-3.51.9,1.73,1.07,2.7,1.6,3,3.7,2,4.67,4.13,1.4,7.53C167,87.28,167.64,89.36,167.66,90.83ZM77.41,39.52c4.23-1.13,9.41-1.62,10.14-6.88a10.7,10.7,0,0,0-3.21-8.16c-3.68-3.25-7.67-.53-11.28,1.4L77.47,39.6Q71.91,36,66.34,32.42c-1.88-1.2-4.1-1.71-3.63,1.44.69,4.57,2.22,9,3.61,14.35,1.1-1.35,2.11-2,2.05-2.61-.4-4.5,2-5.09,5.7-4.63C75.11,41.1,76.29,40,77.41,39.52Zm41.93-7.65L121,34.26c4.87-3.85,7.47-.56,10,3.11.09.12.59,0,1.43-.11-.24-4.27-.41-8.57-.75-12.86a9.82,9.82,0,0,0-1.17-2.81,11.28,11.28,0,0,0-3,1.57c-2.5,2.52-4.83,5.21-7.22,7.83-.54-1.92-1.46-3.82-1.53-5.75-.25-6.87-.14-6.87-7.09-7l-1.5,15.32ZM106.7,37.74c-30.06.12-54.83,24.88-54.89,54.87s25,55.09,55.28,55c30-.11,54.86-24.91,54.88-54.87C162,62.54,136.94,37.63,106.7,37.74ZM43.37,78.87C32.56,81,32.56,81,32.36,84.48c3.94.91,7.91,1.92,11.92,2.7.74.14,1.66-.64,2.5-1-.59-.61-1.08-1.53-1.79-1.75-2-.65-4.1-1-7.27-1.72l11.81-1.82L42,74.42a32.22,32.22,0,0,0,4.69.53,13,13,0,0,0,3-.9c-.75-.63-1.4-1.6-2.26-1.85A81.17,81.17,0,0,0,38.18,70c-1-.17-2.16.53-3.25.84.44,1.16.55,2.72,1.38,3.41A68.77,68.77,0,0,0,43.37,78.87Zm132.22-16c-2.53.88-4.76,1.62-7,2.43s-4.32,1.69-6.41,2.51c1.81,8,3.37,8.7,9.73,4.64a4.75,4.75,0,0,1,.82-.39C178.53,69.8,178.75,69.2,175.59,62.91ZM65.44,49.57c-4-6.32-10.35-10.36-12.57-8.45l5.23,5.8h-11l-.32,1.35,11.51,9.07,1.81-2-7-3.82,1.28-1.94ZM48.18,103c-1.91-3.2-3.91-5.08-4-7-.08-2.13,1.61-4.34,3-7.66-5.37,2.4-9.7,4.22-13.86,6.36-.5.26-.46,3.16-.08,3.3C37.75,99.63,42.36,101.05,48.18,103Zm43.08,53.38a7.07,7.07,0,0,0-7.09-6.79,6.87,6.87,0,0,0-7,7.26,7.11,7.11,0,0,0,7,6.94A7.57,7.57,0,0,0,91.26,156.34Zm63.43-9.18a6.94,6.94,0,0,0-7.21-7.1,7.24,7.24,0,0,0-7,6.91,7.85,7.85,0,0,0,7.38,7.28A7.23,7.23,0,0,0,154.69,147.16Zm2.09-9.16H167l.27-1.21c-3.67-2.53-6.08-6.81-10.67-8l-1.25,1.43,6.09,4.08-.88,1-9.72-.65-.63,1.75,10.18,8.77,1.45-1.39Zm-56-108c-.78-4-1.13-6.69-1.88-9.25-.26-.89-1.5-1.5-2.29-2.23A8.61,8.61,0,0,0,96,21.32c.28,2.18,1,4.31,1.2,6.49.06,1-.92,2-1.42,3-.71-.74-1.77-1.36-2-2.22-.74-2.41-1-4.94-1.77-7.35-.19-.63-1.24-1-1.89-1.49-.32.75-1,1.56-.88,2.24.45,2.79,1,5.58,1.76,8.32.76,2.91,2.94,4.47,5.7,3.44C98.5,33.05,99.78,31,100.8,30Zm62,12-10.56,8.72,3.93,7.36,1.05-1.1-.87-5.68,6.37,2.46-2.21-5.6.69-1.2,5,2.7,1.21-.69ZM106.56,158.23c-1.71-4.39-4.63-6.09-7.73-4.88a10.94,10.94,0,0,0-5.7,6c-1.1,3.25,1,6.17,4.38,7.4,3,1.09,5.78.62,7.95-2.78-3.67-1.16-10.64,2.85-9.32-4.62C97.29,152.88,102.28,157.65,106.56,158.23ZM135.33,34.76l-1.24.38c.56,1.73.63,4.32,1.79,5,1.52.83,4.54.87,5.72-.14s1.28-3.75,1.13-5.67c-.12-1.4-1.41-2.7-2.18-4l2.07-1.4,1.79,4.74,2.21-1.81c-1-1.58-1.68-3.71-3.12-4.56-1-.6-4,.1-4.42,1-.78,1.64-.41,3.87-.35,5.85a38.71,38.71,0,0,0,.57,4.27c-.94-1-1.86-1.93-2.82-2.85A7.07,7.07,0,0,0,135.33,34.76ZM53.75,145.18c2.14-4,4-7.44,5.83-10.89,1-1.95.83-3.86-1.75-3.18-4.13,1.08-8.07,2.9-12.76,4.67C48.45,137.36,50.62,139.83,53.75,145.18Zm61.74,21.35,1.07,1.86c2.28-7.35,6.4-5.81,10.9-3.59a67.85,67.85,0,0,0-6.22-11c-.35-.5-3.16-.17-3.24.16C117,158.13,116.28,162.34,115.49,166.53ZM68.06,151.46l-1.9.51c.62,1.56.82,3.68,2,4.53s3.83.84,4.58,0c1.13-1.22,1.53-3.45,1.55-5.26,0-1.3-1.08-2.62-1.68-3.92l1-.52,3.08,2.86,1.2-.8c-.79-1.4-1.28-3.3-2.48-4.05-.95-.6-3.51-.3-4.07.5-.91,1.27-.84,3.28-1,5,0,.48.88,1,1,1.55a10.84,10.84,0,0,1-.17,2.52A18.19,18.19,0,0,1,68.88,153,5.27,5.27,0,0,1,68.06,151.46Zm-.21-7.25,1.68-.43c-.51-1.46-.64-3.38-1.67-4.22s-3.4-.92-4.13-.23c-1.12,1.06-1.56,3-1.83,4.7a17.85,17.85,0,0,0,.31,4.34l-1.42,0-1.74-3.82-1.66.42c.4,1.69.28,4,1.35,4.89s3.93,1.14,4.92.34c1.2-1,1.49-3.31,1.72-5.12.15-1.16-.51-2.43-.81-3.65l1.22-.36ZM34.58,112l13.82-5.8.07-1.27-15.57.72Zm131.16-4.31,1.55.23,2.39-4.34c3.17.49,6.13,1,9.12,1.35.74.08,1.56-.61,2.34-.94-.49-.63-.88-1.71-1.47-1.82-4.27-.83-8.59-1.46-13.37-2.22C166.07,103.08,165.9,105.38,165.74,107.68Zm7.39-47.76,1-1.27-4.44-7.09-1.24.18c.23,6.9-7,6.16-10.23,11C164.16,64.71,167.5,55.72,173.13,59.92ZM41.67,55.74c-.56,3.37,3.66,6.54,12.07,9.4l3-6.24L55.54,58l-3.65,3.31Zm83.67,95.56,7,11.78,1.08-.48c-.91-4.36-1.83-8.73-2.84-13.6ZM50.86,70.46l1.21-1.92c-3.25-3.21-8-4-12.08-5.82-.58-.27-1.71.67-3.79,1.56ZM110,153.69l-1.35.16,1.11,14C112.79,165.17,112.43,156.69,110,153.69Zm31.36,5.09c-1.56-4.37-2.48-9.1-6.81-11.51C136.16,151.59,137.39,156.12,141.37,158.78Z"/><path class="cls-2" d="M286.52,119.58H270.75V41.88c6.33,0,12.62-.15,18.89.14,1.13,0,2.53,1.73,3.2,3,8.81,16.46,17.5,33,26.23,49.47a3.51,3.51,0,0,0,.53.74V42.14h15.34v77.67c-5.63,0-11.16.2-16.64-.16-1.24-.08-2.72-1.92-3.47-3.29-9.55-17.29-19-34.65-28.31-51.76Z"/><path class="cls-2" d="M393.47,77.69l2.08.93c7.82,3.37,12.54,8.91,12.75,17.74.22,9.27-4.24,15.84-12.33,19.69a35.84,35.84,0,0,1-13.2,3.57c-10.56.51-21.16.17-32,.17-.15-2-.34-3.38-.34-4.75,0-22.48.08-45-.1-67.44,0-3.85,1.07-5.43,5-5.38,10.6.15,21.22-.25,31.8.29,3.58.19,7.36,2.06,10.51,4,11.09,6.89,10.94,21.77-.06,28.75C396.37,76,395.18,76.68,393.47,77.69Zm-25.22,30.06c4.75-.46,9.33-.45,13.69-1.43A10.17,10.17,0,0,0,382,86.49c-4.36-1-8.94-1.12-13.78-1.66Zm.1-53.06V73.12c4.63-.54,8.91-.64,13-1.62A8.36,8.36,0,0,0,388,62.42c-.47-4.61-3.42-7.14-7.72-7.64C376.43,54.33,372.48,54.69,368.35,54.69Z"/><path class="cls-3" d="M414.33,119.62c3-9.92,5.78-19.12,8.59-28.3,4.62-15.11,9.33-30.2,13.84-45.34.85-2.86,2-4.16,5.21-4,5.39.27,10.81-.12,16.18.21,1.42.08,3.57,1.49,4,2.73,7.78,24.39,15.35,48.85,22.95,73.3a5.57,5.57,0,0,1-.14,1.39c-5.47,0-11,.15-16.51-.14-1-.06-2.42-1.76-2.85-3-1.57-4.47-2.59-9.14-4.29-13.55a5.48,5.48,0,0,0-3.9-2.89,132.18,132.18,0,0,0-16.17,0,5.38,5.38,0,0,0-3.81,2.87,122.87,122.87,0,0,0-3.77,13.21c-.61,2.52-1.68,3.71-4.52,3.56C424.41,119.44,419.69,119.62,414.33,119.62ZM449,55.45c-2.89,11-5.51,20.88-8.16,30.9h17C454.88,76.12,452.1,66.35,449,55.45Z"/><path class="cls-4" d="M260.85,56.76H239.68v62.57H222.21V56.89H201.53V42.33h59.32Z"/><path class="cls-5" d="M106.7,37.74c30.24-.11,55.29,24.8,55.27,55,0,30-24.83,54.76-54.88,54.87-30.23.12-55.34-24.86-55.28-55S76.64,37.86,106.7,37.74ZM94.34,58.81l3.06.65.9-1.22,2,.13c2.58,4.21,4.25-.38,6.24.06l5.11.94,3.88,0,3.06-.66h-.09a7.22,7.22,0,0,1,2.22.35c3.84,2,5.78,1.12,6.25-3.05.11-.93.11-1.87.16-2.83l2.73-.14,1.44-1.89-5.64-4.94-1.24,1.1c.13,3.75,3.41,7.77-1.83,12.11a40.75,40.75,0,0,0-.84-4.9c-.21-.66-1-1.14-1.51-1.69l.74-4.43-1.37-.4-2.8,2.44L112,46.8c-.23,3.27-.23,5.29-.56,7.25a23.22,23.22,0,0,1-1.45,4c-.25-1.38-.48-2.77-.76-4.14a26.19,26.19,0,0,0-1.21-5c-.16-.4-2.58-.45-2.68-.18-.65,1.71-1.56,3.69-1.21,5.32.61,2.78.29,4-2.79,3.5l0-3.59-.58-5.29-4.36,2.11L94.1,47.19c-3.52,2.62-5.22,4.52-3.18,8,.46.78-.12,2.18-.21,3.29-1-1.39-2.74-2.67-3-4.18-.34-2.27.35-4.69.65-7.54-5.42,3.05-8.66,7.36-7.1,12.64,2,6.64,1.29,12.88.15,19.34,0,.09.43.26,1.28.75.5-5.8,3.89-10.81,1-16.93-1.22-2.58-.2-6.21-.2-9.36,2.85,2.76,1.46,8,7.36,6.84l3.45-1.18ZM110.6,67.1c-1.55-3.21-4-3.92-6.78-1.83-2.42,1.85-2.85,4.34-.3,6.69.52.35,1,.73,1.56,1,1.68,1,4.39,1.56,4.84,2.92.67,2,.12,4.73-.63,6.89-.36,1.06-2.36,1.56-3.61,2.31a22,22,0,0,1-1.5-3.66,13.66,13.66,0,0,1-.05-3.17c-1.73,1.63-3.57,4.54-4.82,4.31-4-.75-2.9-4.54-2.89-7.41a39,39,0,0,1,.64-5l-1.45-.31a12.74,12.74,0,0,0-1.08,3.45c-.09,5.21-.19,10.43.07,15.62.69,13.92,4,27.8-.1,42.06l4.56,1c-.18-2.54-.92-4.91-.35-6.9a36.55,36.55,0,0,1,4.54-10.63c1.41-2.06,4.44-3,6.74-4.46l1.54,2.61-1.86,8.8h-6.09v11.14l1.47.43c1-3.24,2-6.47,3-9.59,6.38-.12,6.54,4.72,7,9.78,3.38-4,5.21-6.78.47-10-3.62-2.46-4.29-6.37-3-10.53.39-3.12,1.24-6.26,1.1-9.35-.45-10.23-1.23-20.46-2-30.68A46.52,46.52,0,0,0,110.6,67.1Zm30.09,64.21,1.94-.26Q136,98.25,129.3,65.44l-1.76.34Q134.11,98.56,140.69,131.31Z"/><path class="cls-6" d="M43.37,78.87a68.77,68.77,0,0,1-7.06-4.59c-.83-.69-.94-2.25-1.38-3.41,1.09-.31,2.24-1,3.25-.84A81.17,81.17,0,0,1,47.4,72.2c.86.25,1.51,1.22,2.26,1.85a13,13,0,0,1-3,.9A32.22,32.22,0,0,1,42,74.42l7.55,6.47L37.72,82.71c3.17.72,5.26,1.07,7.27,1.72.71.22,1.2,1.14,1.79,1.75-.84.36-1.76,1.14-2.5,1-4-.78-8-1.79-11.92-2.7C32.56,81,32.56,81,43.37,78.87Z"/><path class="cls-6" d="M175.59,62.91c3.16,6.29,2.94,6.89-2.83,9.19a4.75,4.75,0,0,0-.82.39c-6.36,4.06-7.92,3.37-9.73-4.64,2.09-.82,4.23-1.7,6.41-2.51S173.06,63.79,175.59,62.91Z"/><path class="cls-7" d="M119.34,31.87l-9.21,1.66,1.5-15.32c7,.16,6.84.16,7.09,7,.07,1.93,1,3.83,1.53,5.75l.06-.06-1,1Z"/><path class="cls-8" d="M65.44,49.57H54.35l-1.28,1.94,7,3.82-1.81,2L46.76,48.27l.32-1.35h11c-2.11-2.35-3.67-4.08-5.23-5.8C55.09,39.21,61.39,43.25,65.44,49.57Z"/><path class="cls-9" d="M77.47,39.6q-2.2-6.85-4.42-13.72c3.62-1.93,7.61-4.65,11.29-1.4a10.7,10.7,0,0,1,3.21,8.16c-.73,5.26-5.91,5.75-10.14,6.88ZM76.39,27.18l3.8,8.72c3.93-1.23,5.85-3.07,4.21-6.82S80.14,25.44,76.39,27.18Z"/><path class="cls-7" d="M120.25,31c2.39-2.62,4.72-5.31,7.22-7.83a11.28,11.28,0,0,1,3-1.57,9.82,9.82,0,0,1,1.17,2.81c.34,4.29.51,8.59.75,12.86-.84.07-1.34.23-1.43.11-2.52-3.67-5.12-7-10-3.11-.55-.8-1.1-1.6-1.66-2.39l0,.07,1-1Z"/><path class="cls-6" d="M48.18,103c-5.82-1.91-10.43-3.33-14.93-5-.38-.14-.42-3,.08-3.3,4.16-2.14,8.49-4,13.86-6.36-1.39,3.32-3.08,5.53-3,7.66C44.27,97.88,46.27,99.76,48.18,103Z"/><path class="cls-6" d="M167.66,90.83c0-1.47-.67-3.55.06-4.3C171,83.13,170,81,166.32,79c-.53-.29-.7-1.26-1.6-3,5.59,1.28,10.33,2.13,14.91,3.51,2.49.74,2,2.5.05,3.65-2.71,1.6-5.59,2.92-8.24,4.61-1.09.69-1.76,2-2.63,3.07Z"/><path class="cls-6" d="M91.26,156.34a7.57,7.57,0,0,1-7.15,7.41,7.11,7.11,0,0,1-7-6.94,6.87,6.87,0,0,1,7-7.26A7.07,7.07,0,0,1,91.26,156.34Zm-1.36,0c-2.58-1.84-4.26-3.92-5.47-3.68-1.63.33-4,2.44-4,3.79s2.31,3.89,3.78,4S87.28,158.42,89.9,156.39Z"/><path class="cls-7" d="M154.69,147.16a7.23,7.23,0,0,1-6.86,7.09,7.85,7.85,0,0,1-7.38-7.28,7.24,7.24,0,0,1,7-6.91A6.94,6.94,0,0,1,154.69,147.16Zm-1-.11c-2.86-1.94-4.58-4-6-3.85s-2.84,2.48-4.24,3.86c1.45,1.4,2.77,3.67,4.4,3.92C149.13,151.19,150.86,149,153.66,147.05Z"/><path class="cls-7" d="M156.78,138l5,5.75-1.45,1.39-10.18-8.77.63-1.75,9.72.65.88-1-6.09-4.08,1.25-1.43c4.59,1.24,7,5.52,10.67,8L167,138Z"/><path class="cls-10" d="M77.41,39.52c-1.12.52-2.3,1.58-3.34,1.45-3.7-.46-6.1.13-5.7,4.63.06.58-1,1.26-2.05,2.61-1.39-5.34-2.92-9.78-3.61-14.35-.47-3.15,1.75-2.64,3.63-1.44Q71.92,36,77.47,39.6Z"/><path class="cls-9" d="M100.8,30c-1,1-2.3,3-4.1,3.7-2.76,1-4.94-.53-5.7-3.44-.72-2.74-1.31-5.53-1.76-8.32-.11-.68.56-1.49.88-2.24.65.49,1.7.86,1.89,1.49.72,2.41,1,4.94,1.77,7.35.27.86,1.33,1.48,2,2.22.5-1,1.48-2,1.42-3-.15-2.18-.92-4.31-1.2-6.49a8.61,8.61,0,0,1,.59-2.78c.79.73,2,1.34,2.29,2.23C99.67,23.33,100,26,100.8,30Z"/><path class="cls-11" d="M162.8,42l4.57,7-1.21.69-5-2.7-.69,1.2,2.21,5.6-6.37-2.46.87,5.68-1.05,1.1-3.93-7.36Z"/><path class="cls-12" d="M106.56,158.23c-4.28-.58-9.27-5.35-10.42,1.11-1.32,7.47,5.65,3.46,9.32,4.62-2.17,3.4-5,3.87-7.95,2.78-3.34-1.23-5.48-4.15-4.38-7.4a10.94,10.94,0,0,1,5.7-6C101.93,152.14,104.85,153.84,106.56,158.23Z"/><path class="cls-6" d="M135.33,34.76a7.07,7.07,0,0,1,1.15.74c1,.92,1.88,1.9,2.82,2.85a38.71,38.71,0,0,1-.57-4.27c-.06-2-.43-4.21.35-5.85.44-.91,3.42-1.61,4.42-1,1.44.85,2.12,3,3.12,4.56l-2.21,1.81-1.79-4.74-2.07,1.4c.77,1.35,2.06,2.65,2.18,4,.15,1.92.05,4.67-1.13,5.67s-4.2,1-5.72.14c-1.16-.65-1.23-3.24-1.79-5Z"/><path class="cls-12" d="M53.75,145.18c-3.13-5.35-5.3-7.82-8.68-9.4,4.69-1.77,8.63-3.59,12.76-4.67,2.58-.68,2.79,1.23,1.75,3.18C57.75,137.74,55.89,141.19,53.75,145.18Z"/><path class="cls-6" d="M115.49,166.53c.79-4.19,1.5-8.4,2.51-12.53.08-.33,2.89-.66,3.24-.16a67.85,67.85,0,0,1,6.22,11c-4.5-2.22-8.62-3.76-10.9,3.59Z"/><path class="cls-13" d="M40.36,116c5.43-2.24,11.18.62,12.24,6.08.84,4.31-2.12,7-7.55,6.93q-.61-5.78-1.22-11.55Z"/><path class="cls-14" d="M68.06,151.46a5.27,5.27,0,0,0,.82,1.5,18.19,18.19,0,0,0,2.26,1.46,10.84,10.84,0,0,0,.17-2.52c-.09-.56-1-1.07-1-1.55.13-1.72.06-3.73,1-5,.56-.8,3.12-1.1,4.07-.5,1.2.75,1.69,2.65,2.48,4.05l-1.2.8-3.08-2.86-1,.52c.6,1.3,1.7,2.62,1.68,3.92,0,1.81-.42,4-1.55,5.26-.75.8-3.53.74-4.58,0s-1.34-3-2-4.53Z"/><path class="cls-15" d="M162.06,124c-3-5,.34-9.92,6.81-10.22q0,6,0,12l-4-1.79Zm2.13-2c.09-.24.3-.54.22-.68s-.43-.3-.67-.44c-.08.24-.3.54-.22.7S164,121.84,164.19,122Z"/><path class="cls-12" d="M67.85,144.21l-2.06-3.16-1.22.36c.3,1.22,1,2.49.81,3.65-.23,1.81-.52,4.15-1.72,5.12-1,.8-3.84.56-4.92-.34s-1-3.2-1.35-4.89l1.66-.42,1.74,3.82,1.42,0A17.85,17.85,0,0,1,61.9,144c.27-1.66.71-3.64,1.83-4.7.73-.69,3.22-.52,4.13.23s1.16,2.76,1.67,4.22Z"/><path class="cls-11" d="M34.58,112l-1.68-6.35,15.57-.72-.07,1.27Z"/><path class="cls-14" d="M168.85,125.81q0-6,0-12c4.83.32,7,2.39,6.73,6.49Z"/><path class="cls-12" d="M165.74,107.68c.16-2.3.33-4.6.56-7.74,4.78.76,9.1,1.39,13.37,2.22.59.11,1,1.19,1.47,1.82-.78.33-1.6,1-2.34.94-3-.31-6-.86-9.12-1.35l-2.39,4.34Z"/><path class="cls-11" d="M173.13,59.92c-5.63-4.2-9,4.79-14.95,2.82,3.22-4.84,10.46-4.1,10.23-11l1.24-.18,4.44,7.09Z"/><path class="cls-6" d="M41.67,55.74l10.22,5.59L55.54,58l1.2.88-3,6.24C45.33,62.28,41.11,59.11,41.67,55.74Z"/><path class="cls-8" d="M167.66,90.83l1.15,0c4.46,0,9-.57,13.31.47l-.08,1.9H170.67l-2.06,5.26L167,98.16C167.19,95.72,167.42,93.27,167.66,90.83Z"/><path class="cls-16" d="M168.85,125.81l6.75-5.56c1.94,2.49.68,5.65-3,7.91s-6.86,2.21-9.58-1.41l1.84-2.73Z"/><path class="cls-12" d="M151.73,38.59l7.25-.85.8,1.57c-5.57,1.52-10.84,3.27-8.6,10.74-3.15-1.58-3.15-1.58-2.26-8.82.33-.58.66-1.16,1-1.74l1.86-1Z"/><path class="cls-12" d="M125.34,151.3l5.27-2.3c1,4.87,1.93,9.24,2.84,13.6l-1.08.48Z"/><path class="cls-15" d="M43.83,117.44q.62,5.78,1.22,11.55c-1.83-1.08-4-1.87-5.33-3.37-.54-.6.6-2.82,1.15-4.23a25.33,25.33,0,0,1,1.66-3.07Z"/><path class="cls-11" d="M50.86,70.46,36.2,64.28c2.08-.89,3.21-1.83,3.79-1.56,4.06,1.85,8.83,2.61,12.08,5.82Z"/><path class="cls-10" d="M149.9,39.49c-.32.58-.65,1.16-1,1.74l-1.18.71-4.57,2.71a45.52,45.52,0,0,1,2.54-5A26.66,26.66,0,0,1,149.63,35c.83-.78,2.15-1.05,3.25-1.55l-.69,3.13c-.15.67-.3,1.35-.46,2l0-.06Z"/><path class="cls-12" d="M110,153.69c2.42,3,2.78,11.48-.24,14.18l-1.11-14Z"/><path class="cls-9" d="M141.37,158.78c-4-2.66-5.21-7.19-6.81-11.51C138.89,149.68,139.81,154.41,141.37,158.78Z"/><path class="cls-16" d="M43.83,117.44l-1.3.88H39L37.67,117l2.72-1Z"/><path class="cls-14" d="M164.89,124l-1.84,2.73-1-2.77Z"/><path class="cls-17" d="M111.53,112.63,110,110c-2.3,1.44-5.33,2.4-6.74,4.46a36.55,36.55,0,0,0-4.54,10.63c-.57,2,.17,4.36.35,6.9l-4.56-1c4.12-14.26.79-28.14.1-42.06-.26-5.19-.16-10.41-.07-15.62a12.74,12.74,0,0,1,1.08-3.45l1.45.31a39,39,0,0,0-.64,5c0,2.87-1.15,6.66,2.89,7.41,1.25.23,3.09-2.68,4.82-4.31a13.66,13.66,0,0,0,.05,3.17,22,22,0,0,0,1.5,3.66c1.25-.75,3.25-1.25,3.61-2.31.75-2.16,1.3-4.85.63-6.89-.45-1.36-3.16-2-4.84-2.92-.54-.31-1-.69-1.56-1l1.74-.31c3.46.24,4.52-1.42,3.68-4.59l1.66,0a46.52,46.52,0,0,1,1,5.54c.74,10.22,1.52,20.45,2,30.68.14,3.09-.71,6.23-1.1,9.35Zm-3.44-6.31c1-6,2-10.85-2.14-14.34-1.67-1.42-4-1.69-3.9-4.69,0-.47-2.14-1-3.29-1.57A23.08,23.08,0,0,0,98,89a33.92,33.92,0,0,0,0,4.62c.13,2.4-.18,5,.7,7.12,1.24,3,3.28,2.69,4.74-.58Z"/><path class="cls-18" d="M140.69,131.31q-6.57-32.76-13.15-65.53l1.76-.34q6.66,32.81,13.33,65.61Z"/><path class="cls-19" d="M111.53,112.63l1,0c-1.32,4.16-.65,8.07,3,10.53,4.74,3.21,2.91,6-.47,10-.42-5.06-.58-9.9-7-9.78-1,3.12-2,6.35-3,9.59l-1.47-.43V121.43h6.09C110.32,118.37,110.93,115.5,111.53,112.63Z"/><path class="cls-20" d="M90.86,60c-5.9,1.2-4.51-4.08-7.36-6.84,0,3.15-1,6.78.2,9.36,2.91,6.12-.48,11.13-1,16.93-.85-.49-1.29-.66-1.28-.75,1.14-6.46,1.81-12.7-.15-19.34-1.56-5.28,1.68-9.59,7.1-12.64-.3,2.85-1,5.27-.65,7.54.23,1.51,1.93,2.79,3,4.18Z"/><path class="cls-20" d="M115.54,59.4l-3.88,0-1.72-1.31a23.22,23.22,0,0,0,1.45-4c.33-2,.33-4,.56-7.25l4.87,3.68,2.8-2.44,1.37.4c-.24,1.48-.49,3-.74,4.43l-1.74,5.88h.09Z"/><path class="cls-21" d="M90.86,60l-.15-1.56c.09-1.11.67-2.51.21-3.29-2-3.45-.34-5.35,3.18-8l2.28,3.57,4.94,3.18,0,3.59-1,.84-2-.13L96,53.81l-1.15.4-.53,4.62Z"/><path class="cls-22" d="M100.31,58.37l1-.84c3.08.51,3.4-.72,2.79-3.5-.35-1.63.56-3.61,1.21-5.32.1-.27,2.52-.22,2.68.18a26.19,26.19,0,0,1,1.21,5c.28,1.37.51,2.76.76,4.14l1.72,1.31-5.11-.94C104.56,58,102.89,62.58,100.31,58.37Z"/><path class="cls-21" d="M118.51,58.75l1.74-5.88c.52.55,1.3,1,1.51,1.69a40.75,40.75,0,0,1,.84,4.9c5.24-4.34,2-8.36,1.83-12.11l1.24-1.1,5.64,4.94-1.44,1.89-2.73.14c0,1,0,1.9-.16,2.83-.47,4.17-2.41,5.08-6.25,3.05A7.22,7.22,0,0,0,118.51,58.75Z"/><path class="cls-23" d="M105.26,71.65l-1.74.31c-2.55-2.35-2.12-4.84.3-6.69,2.73-2.09,5.23-1.38,6.78,1.83l-1.66,0-4.5.06C104.71,68.63,105,70.14,105.26,71.65Z"/><path class="cls-22" d="M101.32,53.94l-4.94-3.18,4.36-2.11Z"/><path class="cls-22" d="M94.31,58.83l.53-4.62,1.15-.4,2.31,4.43-.9,1.22L96,57l-1.67,1.86Z"/><path class="cls-21" d="M94.34,58.81,96,57l1.39,2.51Z"/><path class="cls-21" d="M115.54,59.4l3.06-.66Z"/><path class="cls-1" d="M120.31,30.93l-1,1Z"/><path class="cls-17" d="M76.39,27.18c3.75-1.74,6.42-1.74,8,1.9s-.28,5.59-4.21,6.82Z"/><path class="cls-24" d="M89.9,156.39c-2.62,2-4.27,4.27-5.71,4.14s-3.78-2.59-3.78-4,2.39-3.46,4-3.79C85.64,152.47,87.32,154.55,89.9,156.39Z"/><path class="cls-24" d="M153.66,147.05c-2.8,2-4.53,4.14-5.88,3.93-1.63-.25-2.95-2.52-4.4-3.92,1.4-1.38,2.7-3.69,4.24-3.86S150.8,145.11,153.66,147.05Z"/><path class="cls-14" d="M164.19,122c-.24-.13-.58-.22-.67-.42s.14-.46.22-.7c.24.14.55.24.67.44S164.28,121.73,164.19,122Z"/><path class="cls-1" d="M149.9,39.49l1.86-1Z"/><path class="cls-10" d="M108.09,106.32l-4.64-6.21c-1.46,3.27-3.5,3.55-4.74.58-.88-2.11-.57-4.72-.7-7.12A33.92,33.92,0,0,1,98,89a23.08,23.08,0,0,1,.72-3.23c1.15.53,3.31,1.1,3.29,1.57-.15,3,2.23,3.27,3.9,4.69C110.05,95.47,109,100.29,108.09,106.32Z"/><path class="cls-25" d="M105.26,71.65c-.27-1.51-.55-3-.82-4.53l4.5-.06C109.78,70.23,108.72,71.89,105.26,71.65Z"/><path d="M205.5,153.28v-9.82h-3.33v-1.17h8.06v1.17H206.9v9.82Z"/><path d="M210.11,153.28l3.72-11h1.54l3.74,11h-1.47l-1.92-6.15c-.2-.63-.39-1.25-.57-1.85s-.36-1.23-.54-1.87h-.06c-.17.64-.35,1.26-.53,1.87s-.38,1.22-.57,1.85l-1.95,6.15Zm1.93-3.36v-1.09h5.07v1.09Z"/><path d="M220.76,153.28v-11h1.66l2.1,5.88c.14.37.28.75.41,1.14l.39,1.15h.06c.14-.38.27-.76.4-1.15l.36-1.14,2.1-5.88h1.67v11h-1.29v-6.09c0-.32,0-.67,0-1s0-.76.07-1.14.06-.74.08-1.06h-.06l-.89,2.51-2.07,5.71h-.93l-2.08-5.71-.89-2.51h-.06c0,.32.08.67.1,1.06s.05.76.06,1.14,0,.72,0,1v6.09Z"/><path d="M233,153.28v-11h1.38v11Z"/><path d="M237.48,153.28v-11h1.38v9.81h4.82v1.18Z"/><path d="M245.7,153.28v-11h1.41l4,6.93,1.19,2.26h.07c0-.55-.09-1.12-.13-1.72s-.06-1.19-.06-1.76v-5.71h1.32v11h-1.43l-4-6.94-1.19-2.25h-.06c0,.55.07,1.11.11,1.68s.06,1.16.06,1.74v5.77Z"/><path d="M255.17,153.28l3.72-11h1.54l3.74,11H262.7l-1.92-6.15c-.2-.63-.39-1.25-.57-1.85s-.36-1.23-.54-1.87h-.06c-.17.64-.35,1.26-.53,1.87s-.38,1.22-.57,1.85l-1.95,6.15Zm1.93-3.36v-1.09h5.07v1.09Z"/><path d="M265.82,153.28v-11h2.74a5.89,5.89,0,0,1,2.85.63,4.13,4.13,0,0,1,1.74,1.86,6.81,6.81,0,0,1,.59,3,7,7,0,0,1-.59,3,4.18,4.18,0,0,1-1.72,1.9,5.64,5.64,0,0,1-2.81.65Zm1.38-1.14h1.24a4.11,4.11,0,0,0,2.16-.52,3.11,3.11,0,0,0,1.28-1.5,5.87,5.87,0,0,0,.43-2.37,5.74,5.74,0,0,0-.43-2.37,3.12,3.12,0,0,0-1.28-1.47,4.31,4.31,0,0,0-2.16-.5H267.2Z"/><path d="M280.11,153.48a4.9,4.9,0,0,1-1.56-.24,3.08,3.08,0,0,1-1.25-.8,3.85,3.85,0,0,1-.83-1.47,7.18,7.18,0,0,1-.3-2.22v-6.46h1.38v6.49a5.15,5.15,0,0,0,.34,2.08,2.28,2.28,0,0,0,.93,1.08,2.62,2.62,0,0,0,1.29.32,2.74,2.74,0,0,0,1.32-.32,2.29,2.29,0,0,0,.94-1.08,5,5,0,0,0,.35-2.08v-6.49h1.34v6.46a7.52,7.52,0,0,1-.29,2.22,3.74,3.74,0,0,1-.84,1.47,3.12,3.12,0,0,1-1.26.8A4.9,4.9,0,0,1,280.11,153.48Z"/><path d="M290.54,153.28v-11h3.25a6.47,6.47,0,0,1,2,.27,2.72,2.72,0,0,1,1.33.85,2.38,2.38,0,0,1,.48,1.56,2.77,2.77,0,0,1-.19,1,2.33,2.33,0,0,1-.54.84,2.25,2.25,0,0,1-.87.52v.07a2.86,2.86,0,0,1,1.6.84,2.49,2.49,0,0,1,.63,1.79,2.92,2.92,0,0,1-.53,1.79,3.26,3.26,0,0,1-1.47,1.07,6,6,0,0,1-2.17.36Zm1.38-6.33h1.63a3.36,3.36,0,0,0,2-.48,1.59,1.59,0,0,0,.62-1.32,1.46,1.46,0,0,0-.66-1.37,3.72,3.72,0,0,0-1.94-.4h-1.69Zm0,5.22h1.92a4,4,0,0,0,2.2-.52,1.83,1.83,0,0,0,.8-1.64,1.64,1.64,0,0,0-.78-1.51,4.36,4.36,0,0,0-2.22-.47h-1.92Z"/><path d="M299,153.28l3.72-11h1.55l3.73,11h-1.47l-1.92-6.15c-.2-.63-.39-1.25-.57-1.85s-.36-1.23-.54-1.87h-.06c-.17.64-.34,1.26-.53,1.87l-.56,1.85-1.95,6.15Zm1.94-3.36v-1.09H306v1.09Z"/><path d="M312.71,153.48a5.31,5.31,0,0,1-2.16-.44,5.15,5.15,0,0,1-1.68-1.18l.82-1a4.58,4.58,0,0,0,1.38,1,3.82,3.82,0,0,0,1.65.37,2.61,2.61,0,0,0,1.7-.49,1.57,1.57,0,0,0,.61-1.29,1.6,1.6,0,0,0-.24-.93,2,2,0,0,0-.67-.58,8.07,8.07,0,0,0-.93-.46l-1.58-.69a7.1,7.1,0,0,1-1-.57,3,3,0,0,1-.86-.9,2.51,2.51,0,0,1-.34-1.35,2.61,2.61,0,0,1,.45-1.51,3.1,3.1,0,0,1,1.23-1,4,4,0,0,1,1.78-.38,4.48,4.48,0,0,1,3.23,1.35l-.72.89a4.57,4.57,0,0,0-1.12-.75,3.38,3.38,0,0,0-1.39-.27,2.42,2.42,0,0,0-1.49.42,1.39,1.39,0,0,0-.56,1.17,1.33,1.33,0,0,0,.28.88,2,2,0,0,0,.69.56l.86.4,1.56.68a6.08,6.08,0,0,1,1.15.64,2.78,2.78,0,0,1,.81.93,2.86,2.86,0,0,1,.3,1.37,2.91,2.91,0,0,1-.45,1.58,3.08,3.08,0,0,1-1.29,1.12A4.39,4.39,0,0,1,312.71,153.48Z"/><path d="M318.68,153.28v-11h1.38v5.52h0l4.6-5.52h1.58l-3.45,4.17,4,6.82h-1.54l-3.3-5.73-1.89,2.25v3.48Z"/><path d="M328.44,153.28v-11h6.33v1.17h-4.95v3.45H334v1.18h-4.17v4h5.12v1.18Z"/><path d="M339.63,153.28v-9.82H336.3v-1.17h8.06v1.17H341v9.82Z"/><path d="M346.41,153.28v-11h3.26a6.47,6.47,0,0,1,2,.27,2.72,2.72,0,0,1,1.33.85,2.38,2.38,0,0,1,.48,1.56,3,3,0,0,1-.19,1,2.5,2.5,0,0,1-.55.84,2.25,2.25,0,0,1-.87.52v.07a2.89,2.89,0,0,1,1.61.84,2.49,2.49,0,0,1,.63,1.79,2.87,2.87,0,0,1-.54,1.79,3.23,3.23,0,0,1-1.46,1.07,6.06,6.06,0,0,1-2.17.36Zm1.38-6.33h1.64a3.36,3.36,0,0,0,2-.48,1.58,1.58,0,0,0,.61-1.32,1.46,1.46,0,0,0-.65-1.37,3.72,3.72,0,0,0-1.94-.4h-1.7Zm0,5.22h1.92a4,4,0,0,0,2.21-.52,1.83,1.83,0,0,0,.79-1.64,1.64,1.64,0,0,0-.78-1.51,4.36,4.36,0,0,0-2.22-.47h-1.92Z"/><path d="M354.89,153.28l3.72-11h1.54l3.74,11h-1.47l-1.92-6.15c-.2-.63-.39-1.25-.57-1.85s-.36-1.23-.54-1.87h-.06c-.17.64-.35,1.26-.54,1.87l-.56,1.85-2,6.15Zm1.93-3.36v-1.09h5.07v1.09Z"/><path d="M365.54,153.28v-11h1.38v9.81h4.81v1.18Z"/><path d="M373.76,153.28v-11h1.38v9.81H380v1.18Z"/><path d="M384,153.28l3.72-11h1.54l3.74,11h-1.47l-1.92-6.15c-.2-.63-.39-1.25-.57-1.85s-.36-1.23-.54-1.87h-.06c-.17.64-.35,1.26-.54,1.87l-.56,1.85-1.95,6.15Zm1.93-3.36v-1.09H391v1.09Z"/><path d="M397.65,153.48a5.23,5.23,0,0,1-2.15-.44,5.09,5.09,0,0,1-1.69-1.18l.83-1a4.58,4.58,0,0,0,1.38,1,3.82,3.82,0,0,0,1.65.37,2.63,2.63,0,0,0,1.7-.49,1.74,1.74,0,0,0,.36-2.22,2.06,2.06,0,0,0-.66-.58,9.18,9.18,0,0,0-.94-.46l-1.57-.69a6.61,6.61,0,0,1-1-.57,2.85,2.85,0,0,1-.86-.9,2.51,2.51,0,0,1-.35-1.35,2.61,2.61,0,0,1,.45-1.51,3.1,3.1,0,0,1,1.23-1,4.09,4.09,0,0,1,1.79-.38,4.48,4.48,0,0,1,3.22,1.35l-.72.89a4.39,4.39,0,0,0-1.12-.75,3.33,3.33,0,0,0-1.38-.27,2.47,2.47,0,0,0-1.5.42,1.41,1.41,0,0,0-.56,1.17,1.33,1.33,0,0,0,.28.88,2,2,0,0,0,.7.56l.85.4,1.56.68a6.08,6.08,0,0,1,1.15.64,2.81,2.81,0,0,1,.82.93,2.86,2.86,0,0,1,.3,1.37,2.91,2.91,0,0,1-.45,1.58,3.08,3.08,0,0,1-1.29,1.12A4.44,4.44,0,0,1,397.65,153.48Z"/><path d="M406.4,153.48a5.31,5.31,0,0,1-2.16-.44,5.15,5.15,0,0,1-1.68-1.18l.82-1a4.58,4.58,0,0,0,1.38,1,3.82,3.82,0,0,0,1.65.37,2.61,2.61,0,0,0,1.7-.49,1.57,1.57,0,0,0,.61-1.29,1.53,1.53,0,0,0-.25-.93,1.87,1.87,0,0,0-.66-.58,8.07,8.07,0,0,0-.93-.46l-1.58-.69a7.1,7.1,0,0,1-1-.57,3,3,0,0,1-.86-.9,2.51,2.51,0,0,1-.34-1.35,2.61,2.61,0,0,1,.45-1.51,3.1,3.1,0,0,1,1.23-1,4,4,0,0,1,1.78-.38,4.53,4.53,0,0,1,3.23,1.35l-.72.89a4.57,4.57,0,0,0-1.12-.75,3.41,3.41,0,0,0-1.39-.27,2.42,2.42,0,0,0-1.49.42,1.53,1.53,0,0,0-.29,2.05,2.14,2.14,0,0,0,.7.56l.86.4,1.56.68a5.7,5.7,0,0,1,1.14.64,2.71,2.71,0,0,1,.82.93,2.86,2.86,0,0,1,.3,1.37,2.91,2.91,0,0,1-.45,1.58,3.08,3.08,0,0,1-1.29,1.12A4.39,4.39,0,0,1,406.4,153.48Z"/><path d="M416.42,153.48a4.36,4.36,0,0,1-2.44-.7,4.68,4.68,0,0,1-1.66-2,7.14,7.14,0,0,1-.6-3,7,7,0,0,1,.6-3,4.36,4.36,0,0,1,4.1-2.62,4.4,4.4,0,0,1,2.43.68,4.62,4.62,0,0,1,1.66,1.95,7,7,0,0,1,.6,3,7.14,7.14,0,0,1-.6,3,4.68,4.68,0,0,1-1.66,2A4.33,4.33,0,0,1,416.42,153.48Zm0-1.22a2.76,2.76,0,0,0,1.72-.55,3.58,3.58,0,0,0,1.14-1.58,6.41,6.41,0,0,0,.41-2.38,6.3,6.3,0,0,0-.41-2.38,3.36,3.36,0,0,0-1.14-1.53,3.06,3.06,0,0,0-3.44,0,3.31,3.31,0,0,0-1.15,1.53,6.31,6.31,0,0,0-.4,2.38,6.42,6.42,0,0,0,.4,2.38,3.52,3.52,0,0,0,1.15,1.58A2.78,2.78,0,0,0,416.42,152.26Z"/><path d="M427.71,153.48a4.65,4.65,0,0,1-1.9-.39,4.24,4.24,0,0,1-1.52-1.11,5.22,5.22,0,0,1-1-1.8,8.11,8.11,0,0,1,0-4.78,5.23,5.23,0,0,1,1-1.79,4.52,4.52,0,0,1,1.55-1.13,4.72,4.72,0,0,1,1.93-.39,3.73,3.73,0,0,1,1.77.41,4.81,4.81,0,0,1,1.25.94l-.75.9a3.6,3.6,0,0,0-1-.75,2.72,2.72,0,0,0-1.26-.28,3.13,3.13,0,0,0-1.82.54,3.53,3.53,0,0,0-1.21,1.53,5.93,5.93,0,0,0-.44,2.37,6.21,6.21,0,0,0,.42,2.4,3.47,3.47,0,0,0,1.19,1.56,3,3,0,0,0,1.81.55,2.92,2.92,0,0,0,1.4-.33,4.09,4.09,0,0,0,1.15-.91l.77.88a4.63,4.63,0,0,1-1.47,1.16A4.16,4.16,0,0,1,427.71,153.48Z"/><path d="M433.22,153.28v-11h1.38v11Z"/><path d="M436.23,153.28l3.72-11h1.55l3.73,11h-1.47l-1.92-6.15c-.2-.63-.39-1.25-.57-1.85s-.36-1.23-.54-1.87h-.06c-.17.64-.35,1.26-.53,1.87s-.37,1.22-.56,1.85l-1.95,6.15Zm1.94-3.36v-1.09h5.07v1.09Z"/><path d="M448.22,153.28v-9.82h-3.33v-1.17h8.05v1.17h-3.33v9.82Z"/><path d="M455,153.28v-11h1.38v11Z"/><path d="M463.52,153.48a4.36,4.36,0,0,1-2.44-.7,4.68,4.68,0,0,1-1.66-2,7.14,7.14,0,0,1-.6-3,7,7,0,0,1,.6-3,4.36,4.36,0,0,1,4.1-2.62,4.4,4.4,0,0,1,2.43.68,4.62,4.62,0,0,1,1.66,1.95,7,7,0,0,1,.6,3,7.14,7.14,0,0,1-.6,3,4.68,4.68,0,0,1-1.66,2A4.33,4.33,0,0,1,463.52,153.48Zm0-1.22a2.76,2.76,0,0,0,1.72-.55,3.58,3.58,0,0,0,1.14-1.58,6.41,6.41,0,0,0,.41-2.38,6.3,6.3,0,0,0-.41-2.38,3.36,3.36,0,0,0-1.14-1.53,3.06,3.06,0,0,0-3.44,0,3.31,3.31,0,0,0-1.15,1.53,6.31,6.31,0,0,0-.4,2.38,6.42,6.42,0,0,0,.4,2.38,3.52,3.52,0,0,0,1.15,1.58A2.78,2.78,0,0,0,463.52,152.26Z"/><path d="M470.67,153.28v-11h1.41l4,6.93,1.19,2.26h.07c-.05-.55-.09-1.12-.13-1.72s-.06-1.19-.06-1.76v-5.71h1.32v11h-1.43l-4-6.94-1.19-2.25h-.06c0,.55.07,1.11.11,1.68s.06,1.16.06,1.74v5.77Z"/></svg>