<svg id="Layer_1" data-name="Layer 1" xmlns="http://www.w3.org/2000/svg" viewBox="0 0 312.8 73.67"><defs><style>.cls-1{fill:#ffc100;}.cls-2{fill:#758891;}.cls-3{fill:#ea4335;}.cls-4{fill:#34a853;}.cls-5{fill:#4a90e2;}.cls-6{fill:#fbbc05;}</style></defs><polygon class="cls-1" points="153.76 47.67 146.78 42.64 139.72 47.56 142.35 39.36 135.49 34.17 144.09 34.13 146.92 26 149.6 34.18 158.21 34.35 151.26 39.43 153.76 47.67"/><polygon class="cls-1" points="192.41 47.67 185.43 42.64 178.37 47.56 181 39.36 174.14 34.17 182.74 34.13 185.56 26 188.25 34.18 196.86 34.35 189.91 39.43 192.41 47.67"/><polygon class="cls-1" points="231.06 47.67 224.08 42.64 217.02 47.56 219.65 39.36 212.79 34.17 221.39 34.13 224.21 26 226.9 34.18 235.51 34.35 228.56 39.43 231.06 47.67"/><polygon class="cls-1" points="269.71 47.67 262.73 42.64 255.66 47.56 258.3 39.36 251.44 34.17 260.04 34.13 262.86 26 265.55 34.18 274.16 34.35 267.21 39.43 269.71 47.67"/><polygon class="cls-2" points="308.36 47.67 301.38 42.64 294.31 47.56 296.94 39.36 290.08 34.17 298.69 34.13 301.51 26 304.2 34.18 312.8 34.35 305.86 39.43 308.36 47.67"/><path class="cls-3" d="M30.26,51.92A21.74,21.74,0,0,1,50.94,37,21.32,21.32,0,0,1,64.5,41.87L75.21,31.16A36.81,36.81,0,0,0,17.9,42.36Z" transform="translate(-14.1 -21.95)"/><path class="cls-4" d="M63.34,77.24a22.72,22.72,0,0,1-12.4,3.31A21.72,21.72,0,0,1,30.3,65.75L17.9,75.16a36.71,36.71,0,0,0,33,20.46,35.06,35.06,0,0,0,24-9.21Z" transform="translate(-14.1 -21.95)"/><path class="cls-5" d="M75,86.41C81.72,80.13,86.1,70.77,86.1,58.79a30.73,30.73,0,0,0-.84-6.7H50.94V66.32H70.69a16.57,16.57,0,0,1-7.35,10.92Z" transform="translate(-14.1 -21.95)"/><path class="cls-6" d="M30.3,65.75a21.69,21.69,0,0,1-1.13-7,22,22,0,0,1,1.09-6.87L17.9,42.36a37.29,37.29,0,0,0,0,32.8Z" transform="translate(-14.1 -21.95)"/></svg>