<svg id="Layer_1" data-name="Layer 1" xmlns="http://www.w3.org/2000/svg" viewBox="0 0 500 442"><defs><style>.cls-1{fill:#4eb779;}.cls-2{fill:#47b574;}.cls-3{fill:#e9e9e9;}.cls-4{fill:#dadada;}.cls-5{fill:#4db778;}.cls-6{fill:#4cb677;}.cls-7{fill:#4cb678;}.cls-8{fill:#4bb677;}</style></defs><path class="cls-1" d="M232.41,38c3.92,3.39,4.7,6.48,2.38,9.44a5.83,5.83,0,0,1-8.23,1.05,5.74,5.74,0,0,1-1-8.23A24,24,0,0,1,227.92,38Z"/><path class="cls-2" d="M326.22,115.3c12.6-11.13,24.71-22.88,37.93-33.22C380.6,69.2,398,57.47,414.93,45.27a24.37,24.37,0,0,1,2.59-1.42c.13,1.22.3,2.14.3,3.06,0,25,.05,50.1-.07,75.14,0,1.39-.95,3.49-2.06,4-23.47,11.62-43.64,27.76-62.82,45.3-2.56,2.35-5,4.85-7.47,7.29-1,.91-2.07,1.77-3,2.73-32.2,31.92-59.27,67.88-83.51,106.06-3.43,5.39-6.77,10.83-10.3,16.48l-16.92-18.13a10.53,10.53,0,0,0-.84-1.22q-37.1-40.59-74.21-81.17c-5.54-6.06-11.05-12.16-16.7-18.37l40.92-38.24a49.5,49.5,0,0,0,3.76,4.67q23.06,22.69,46.2,45.31l17.58,17.5c8.07-12.27,15.44-24.12,23.45-35.51C287.9,155.9,306.58,135.17,326.22,115.3Z"/><path class="cls-3" d="M230.77,196.8q-23.11-22.65-46.2-45.31a49.5,49.5,0,0,1-3.76-4.67l-40.92,38.24c5.65,6.21,11.16,12.31,16.7,18.37Q193.69,244,230.8,284.6a10.53,10.53,0,0,1,.84,1.22q0,45.27,0,90.52a27.21,27.21,0,0,1-3.56-2.48c-15-14.48-31.93-26.37-50-36.67-31.29-17.8-51.48-43.93-58.64-79.47a120.83,120.83,0,0,1-2.21-22.87c-.22-35.9,0-71.8-.19-107.7,0-3.67.9-5.28,4.54-6.55C156.77,108.33,191.87,95.8,227,83.37c1.51-.53,3.1-.8,4.66-1.2q0,55,0,110.07A24.37,24.37,0,0,1,230.77,196.8Z"/><path class="cls-4" d="M231.66,376.34q0-45.25,0-90.52L248.56,304c3.53-5.65,6.87-11.09,10.3-16.48,24.24-38.18,51.31-74.14,83.51-106.06,1-1,2-1.82,3-2.73,0,21.43.73,42.9-.18,64.29-.87,20.73-8,39.76-19.66,57-11,16.23-25.42,28.39-42.39,37.87a225.67,225.67,0,0,0-41.51,29.53C238.35,370.42,235,373.37,231.66,376.34Z"/><path class="cls-4" d="M230.77,196.8a24.37,24.37,0,0,0,.85-4.56q.07-55,0-110.07,27.77,9.77,55.52,19.51,19.5,6.84,39,13.62c-19.64,19.87-38.32,40.6-54.42,63.49-8,11.39-15.38,23.24-23.45,35.51Z"/><path class="cls-1" d="M107.41,299.23a5.94,5.94,0,0,1-5.94,5.94,5.93,5.93,0,0,1,0-11.85A6,6,0,0,1,107.41,299.23Z"/><path class="cls-1" d="M151.57,73.91a6.05,6.05,0,0,1-6.07,5.83,6.23,6.23,0,0,1-5.68-6.27,5.92,5.92,0,0,1,5.94-5.53A5.79,5.79,0,0,1,151.57,73.91Z"/><path class="cls-5" d="M320.54,72.86a6.24,6.24,0,0,1-5.88,6.06,6.06,6.06,0,0,1-5.9-6,5.79,5.79,0,0,1,5.62-5.76A6,6,0,0,1,320.54,72.86Z"/><path class="cls-6" d="M237.33,415.22a6,6,0,0,1-5.85,6,5.73,5.73,0,0,1-5.84-5.52,6,6,0,0,1,5.56-6.26A6.08,6.08,0,0,1,237.33,415.22Z"/><path class="cls-1" d="M93.17,211.57a5.92,5.92,0,0,1-5.78,6,6,6,0,0,1-5.93-5.9,6.13,6.13,0,0,1,5.66-5.84A5.89,5.89,0,0,1,93.17,211.57Z"/><path class="cls-7" d="M368.11,297a5.82,5.82,0,1,1-11.64,0,5.82,5.82,0,1,1,11.64,0Z"/><path class="cls-5" d="M167.69,363.71a6.22,6.22,0,0,1-6.17,5.77,5.91,5.91,0,0,1,.32-11.8A6.06,6.06,0,0,1,167.69,363.71Z"/><path class="cls-6" d="M87.42,116.34a5.78,5.78,0,1,1-.16,11.55,5.85,5.85,0,0,1-5.81-5.65A6,6,0,0,1,87.42,116.34Z"/><path class="cls-5" d="M381.31,209.17a5.88,5.88,0,0,1-11.75,0,5.88,5.88,0,0,1,11.75,0Z"/><path class="cls-8" d="M309.11,362.41a5.88,5.88,0,0,1-6.08,5.71,5.76,5.76,0,0,1-5.59-6.12,5.82,5.82,0,0,1,5.8-5.59A6,6,0,0,1,309.11,362.41Z"/></svg>