<svg id="Layer_1" data-name="Layer 1" xmlns="http://www.w3.org/2000/svg" viewBox="0 0 500 442"><defs><style>.cls-1{fill:#2196f2;}.cls-2{fill:#29b2fe;}</style></defs><path class="cls-1" d="M173.14,354.52c-10.41.33-20.72.11-30.28-4.89-16.57-8.67-25.33-22.39-26.31-41-.35-6.6-.21-13.23,0-19.84a24.44,24.44,0,0,0-8-19c-5.21-5-10.29-10.19-15.39-15.32C73.89,235,73.85,206.2,93.08,186.81q8-8.12,16.15-16.15a23.7,23.7,0,0,0,7.27-17.43c0-8.72-.32-17.52.67-26.15,2.55-22.4,22.3-39.85,45-40.36,7.11-.16,14.22-.08,21.33,0A22.42,22.42,0,0,0,200,79.91C205.67,74.3,211.26,68.6,216.94,63c18.92-18.71,47.93-18.75,66.89-.1q8.26,8.14,16.4,16.43A23.8,23.8,0,0,0,318,86.71c8.6,0,17.28-.35,25.78.63,22.73,2.63,40,22.21,40.56,45.19.16,7,.09,14,0,21a22.74,22.74,0,0,0,6.91,16.82c5.62,5.66,11.33,11.25,16.93,16.94,18.54,18.85,18.57,47.74.08,66.61-5.5,5.61-11.08,11.15-16.67,16.68A23.57,23.57,0,0,0,384.34,288c0,8.6.37,17.28-.64,25.78-2.72,23.18-22.46,40.46-45.77,40.76-6.48.09-13,.15-19.46,0a24,24,0,0,0-18.7,7.83c-5.19,5.39-10.53,10.64-15.86,15.9-19,18.72-47.94,18.75-66.88.07-5.24-5.16-10.53-10.3-15.6-15.63-5.4-5.69-11.81-8.54-19.68-8.16C178.88,354.64,176,354.52,173.14,354.52ZM142.6,220.05A107.58,107.58,0,0,0,247.08,328.3c63.82,1.68,109.8-48.58,111.08-104.55C359.62,160.18,309.48,114,253,112.81A107.84,107.84,0,0,0,142.6,220.05Z"/><path class="cls-2" d="M142.6,220.05A107.84,107.84,0,0,1,253,112.81c56.46,1.15,106.6,47.37,105.14,110.94-1.28,56-47.26,106.23-111.08,104.55A107.58,107.58,0,0,1,142.6,220.05Zm91.56,15.64c-7.45-7.57-14.67-15-22-22.3-5.63-5.64-12.87-5.95-17.89-.88s-4.59,12.2,1.09,17.89l28.82,28.82c7.19,7.18,13.34,7.19,20.58,0q21.43-21.39,42.84-42.84c6.34-6.34,12.85-12.54,18.94-19.12,6.34-6.86,3.43-17.34-5.27-19.73-5-1.38-9.19.33-12.84,4Q263.17,207,237.71,232.3C236.67,233.34,235.59,234.33,234.16,235.69Z"/></svg>