<svg id="Layer_1" data-name="Layer 1" xmlns="http://www.w3.org/2000/svg" viewBox="0 0 500 500"><defs><style>.cls-1{fill:#11dc76;}.cls-2{fill:#10dc75;}.cls-3{fill:#0cc05e;}.cls-4{fill:#f0f3f1;}</style></defs><path class="cls-1" d="M369.59,19.89c-7.75,13.35-15.38,26.79-23.37,40-1.93,3.19-1.44,5,.74,7.69C362.65,86.85,372.22,112,373,135a6.74,6.74,0,0,1-6.76,6.91H134.52a6.77,6.77,0,0,1-6.76-7.11c1.35-25.22,10.29-47.57,26-67.42a6.76,6.76,0,0,0,.55-7.58c-7.81-13.44-15.52-26.7-23.21-40-3.77-6.49-4.3-9-.62-12.71a6.73,6.73,0,0,1,10.37,1.19c2.15,3.31,4.29,6.62,6.35,10,5.38,8.77,10.71,17.58,15.89,26.13a6.77,6.77,0,0,0,9.69,2C225,10.09,276.41,9.18,327.86,47.59a6.76,6.76,0,0,0,9.87-2c7.14-12.24,14.44-24.75,21.78-37.24h0A6.73,6.73,0,0,1,370,6.86C373.82,10.6,373.39,13.34,369.59,19.89ZM204.27,96.09a15.29,15.29,0,1,0-15.42-15.3A15.38,15.38,0,0,0,204.27,96.09Zm92.19,0A15.29,15.29,0,1,0,281,80.83,15.39,15.39,0,0,0,296.46,96.09Z"/><path class="cls-1" d="M450,316.8a26.23,26.23,0,0,0-1.21,2.72c-4.69,14.91-18.58,24.12-33.41,22.12a30.93,30.93,0,0,1-26.84-31q-.17-60.78,0-121.58c0-16.2,11.43-29.28,26.92-31.29,15.15-2,29.08,7.54,33.62,22.92a11,11,0,0,0,.93,1.92Z"/><path class="cls-2" d="M129.57,383.11c-.71-4.05-2-8.11-2.06-12.16q-.2-105.27-.09-210.54c0-.76.07-1.52.12-2.53H373.27V162q0,103.71-.1,207.42c0,4.57-1.34,9.14-2.06,13.72-3.83.44-4.24,2.62-2.89,5.69l-8.44,8.92-1.38-1-1.21,2.6c-5,1.34-10,3.15-15.09,3.87-4.8.67-9.76.17-14.64.19l-61.69.08-30.48-.1a1.14,1.14,0,0,1-.55,0c-1-.52-2-1.47-3-1.47q-27.37-.13-54.76,0c-1,0-2,1-3,1.48l-.31.19c-6.94-.28-13.91-.25-20.81-1-3.2-.34-6.24-2.14-9.35-3.28-.41-.86-.81-1.73-1.22-2.59l-1.38,1-5.17-4.6c0-1.67,0-3.27-2.4-3l-.87-1.33C133.82,385.74,133.41,383.56,129.57,383.11Z"/><path class="cls-1" d="M50.68,249.55c0-20.54-.1-41.08,0-61.61a30.61,30.61,0,0,1,59.55-9.75,34.36,34.36,0,0,1,1.83,10.67q.2,60.82.05,121.66c0,16.07-11.25,28.89-26.73,31.1a30.64,30.64,0,0,1-33.42-22,38.09,38.09,0,0,1-1.26-10C50.63,289.58,50.68,269.56,50.68,249.55Z"/><path class="cls-1" d="M327,464.32c.61,13.32-9.17,28.3-26.81,30.91-14.05,2.08-28.4-7.05-33-21.11a20.16,20.16,0,0,1-1.29-6.06c-.08-21.3,0-42.6,0-63.9,1.06.94,2.18,1.82,3.18,2.82q27.19,27.16,54.38,54.35C324.6,462.41,325.86,463.32,327,464.32Z"/><path class="cls-1" d="M234.83,464.26c-.09,16.33-11.56,29.3-27.49,31.06-15.07,1.66-29.29-8.59-33-23.8a13.39,13.39,0,0,1-.5-3.06q-.06-32.15-.05-64.31c1.17,1,2.4,2,3.49,3.05q27,27,54,54C232.43,462.29,233.66,463.24,234.83,464.26Z"/><path class="cls-3" d="M327,464.32c-1.18-1-2.44-1.91-3.52-3Q296.31,434.17,269.14,407c-1-1-2.12-1.88-3.18-2.82a1.44,1.44,0,0,1-.19-.7l61.69-.08q-.06,28.35-.13,56.71C327.33,461.5,327.14,462.91,327,464.32Z"/><path class="cls-3" d="M234.83,464.26c-1.17-1-2.4-2-3.49-3.06q-27-27-54-54c-1.09-1.09-2.32-2-3.49-3.05a.6.6,0,0,1-.16-.58l.31-.19h60.77a1.14,1.14,0,0,0,.55,0q-.09,28.33-.2,56.66C235.09,461.43,234.92,462.84,234.83,464.26Z"/><path class="cls-1" d="M129.57,383.11c3.84.45,4.25,2.63,2.89,5.7Z"/><path class="cls-1" d="M368.22,388.8c-1.35-3.07-.94-5.25,2.89-5.69Z"/><path class="cls-1" d="M140.9,397.73l1.38-1c.41.86.81,1.73,1.22,2.59Z"/><path class="cls-1" d="M357.19,399.32l1.21-2.6,1.38,1Z"/><path class="cls-1" d="M133.33,390.14c2.39-.28,2.44,1.32,2.4,3Z"/><path class="cls-4" d="M204.27,96.09a15.29,15.29,0,1,1,15.41-15.31A15.41,15.41,0,0,1,204.27,96.09Z"/><path class="cls-4" d="M296.46,96.09a15.29,15.29,0,1,1,15.37-15.34A15.38,15.38,0,0,1,296.46,96.09Z"/><path class="cls-2" d="M234.74,403.37H174c1-.52,2-1.48,3-1.48q27.38-.13,54.76,0C232.72,401.9,233.73,402.85,234.74,403.37Z"/></svg>