<svg id="Layer_1" data-name="Layer 1" xmlns="http://www.w3.org/2000/svg" viewBox="0 0 500 500"><defs><style>.cls-1{fill:#fc646f;}.cls-2{fill:#51768d;}.cls-3{fill:#fb4856;}.cls-4{fill:#51758d;}.cls-5{fill:#2c597f;}.cls-6{fill:#f4f3f3;}.cls-7{fill:#e5e5e5;}.cls-8{fill:#918291;}.cls-9{fill:#7a6e79;}.cls-10{fill:#fefefe;}.cls-11{fill:#fb646f;}.cls-12{fill:#e5e4e4;}.cls-13{fill:#f2f0f0;}</style></defs><path class="cls-1" d="M99.24,396.41A169.81,169.81,0,0,1,70.45,357a172.08,172.08,0,0,1-19.71-65.76,5.55,5.55,0,0,0-.74-1.64V260.76c.59-3.64,1.2-7.28,1.78-10.92,6.33-39.8,23.55-74.1,53.32-101.43C149.16,108,201,93.68,259.82,104.57c20.95,3.88,40.2,12.24,58.3,23.31q2.33,13.41,4.64,26.81a7.18,7.18,0,0,1-1,2c-5.15,5.1-10.35,10.15-15.53,15.21-28.05-21.56-59.68-30.88-95-27.47-28.94,2.8-54.62,13.75-75.47,33.79-41,39.43-52.53,86.9-35.23,141,5.48,17.13,15,32.13,27.48,45.22a21.61,21.61,0,0,0,1.46,1.8c32.11,32.11,70.71,45.2,115.7,38.75a123.25,123.25,0,0,0,71.68-36.18c7.87-8,14.21-17.45,21.24-26.25l18.7,8.46c-3.82,5.34-7.19,10.34-10.86,15.13a168,168,0,0,1-34.77,33.64,172.36,172.36,0,0,1-34.78,19.69A170.43,170.43,0,0,1,216.14,433c-7.75.27-15.54-.42-23.31-.69-13.71-.47-26.93-3.73-39.8-8a175.65,175.65,0,0,1-51.6-27.51C100.91,396.36,100,396.51,99.24,396.41Z"/><path class="cls-2" d="M375,50l2.47.76c1.51,8.76,3,17.5,4.51,26.26.92,5.47,1.7,11,2.55,16.44l-19.61,19.77c-1.7-10.91-3.33-21.83-5.16-32.72-.67-4-1.84-7.89-2.78-11.83Q366,59.34,375,50Z"/><path class="cls-2" d="M407.9,116.42l42.1,7.11v2.34l-18.67,18a10.47,10.47,0,0,0-2.78-1.63c-3.77-.78-7.57-1.42-11.37-2-9.89-1.48-19.79-2.9-29.69-4.34q9.17-9.3,18.35-18.56A7,7,0,0,1,407.9,116.42Z"/><path class="cls-3" d="M99.24,396.41c.74.1,1.67-.05,2.19.35A175.65,175.65,0,0,0,153,424.27c12.87,4.31,26.09,7.57,39.8,8,7.77.27,15.56,1,23.31.69a170.43,170.43,0,0,0,60.28-13.47,172.36,172.36,0,0,0,34.78-19.69A168,168,0,0,0,346,366.2c3.67-4.79,7-9.79,10.86-15.13l-18.69-8.46q6.36-14.4,12.73-28.8l19.59,8.69a28.12,28.12,0,0,0,1.78-3.27,163,163,0,0,0,10.42-51.75A182.22,182.22,0,0,0,381,235.8a254.19,254.19,0,0,0-7.74-33.46c-2.09-7.28-5.58-14.16-8.45-21.22l7.8,1.14.82.56-.05,0a22.44,22.44,0,0,0,1.28,3.12A174.55,174.55,0,0,1,398.57,260c7.57,83.95-46.14,161.24-126.83,182.92-64.6,17.35-121.73,1.7-170.44-44.16C100.55,398,99.92,397.18,99.24,396.41Z"/><path class="cls-4" d="M372.65,182.26l-7.8-1.14-18.71-3.29a4,4,0,0,1,.57-1.4q15.66-15.56,31.37-31.06c2.59.63,5.14,1.44,7.76,1.88,12,2.05,24.1,4,36.15,6-9.4,9.46-18.82,18.89-28.17,28.39-2.78,2.83-6,3.1-9.68,2.53s-7.14-.92-10.72-1.37l.05,0Z"/><path class="cls-5" d="M422,153.22c-12.05-2-24.11-3.92-36.15-6-2.62-.44-5.17-1.25-7.76-1.88l9.41-9.41c9.9,1.44,19.8,2.86,29.69,4.34,3.8.57,7.6,1.21,11.37,2a10.47,10.47,0,0,1,2.78,1.63Z"/><path class="cls-6" d="M128.05,364.49c-12.44-13.09-22-28.09-27.48-45.22-17.3-54.11-5.79-101.58,35.23-141,20.85-20,46.53-31,75.47-33.79,35.28-3.41,66.91,5.91,95,27.47l-30.52,30.52-3-1.88c-33.38-21.57-78.42-18.09-107.42,8.56-23.71,21.78-33,48.91-28.41,80.57a83.11,83.11,0,0,0,19.92,42.84c22,27.39,62.27,38.57,96.41,26.77,19-6.54,33.91-18.3,45.39-34.6l18.69,7.67.36,1.59c-6.47,7-12.83,14-19.42,20.88-10.79,11.18-24,18.84-38,25.13a113.52,113.52,0,0,1-39.74,10,180.48,180.48,0,0,1-33.73-1.45c-20.3-2.63-38.52-10.95-55.26-22.59A17.26,17.26,0,0,0,128.05,364.49Z"/><path class="cls-7" d="M128.05,364.49a17.26,17.26,0,0,1,3.44,1.42c16.74,11.64,35,20,55.26,22.59A180.48,180.48,0,0,0,220.48,390a113.52,113.52,0,0,0,39.74-10c14-6.29,27.26-13.95,38-25.13,6.59-6.85,13-13.92,19.42-20.88l-.36-1.59-18.69-7.67a100.78,100.78,0,0,0,12.67-29L332,304.52c4.18-11.18,7-22.22,7.63-33.53.76-13.14.86-26.41-2.26-39.37-2.78-11.54-6-23-12.37-33.21l3.82-3.81c17.27,22.64,26.6,48.07,27.45,76.63a142,142,0,0,1-5.44,42.58q-6.37,14.4-12.73,28.8c-7,8.8-13.38,18.28-21.25,26.25A123.25,123.25,0,0,1,245.21,405c-45,6.45-83.59-6.64-115.7-38.75A21.61,21.61,0,0,1,128.05,364.49Z"/><path class="cls-8" d="M275.71,202.46l30.52-30.52c5.18-5.06,10.38-10.11,15.53-15.21a7.18,7.18,0,0,0,1-2,5.05,5.05,0,0,0,1.74-.71q15.12-15.18,30.19-30.44l10.23-10.07L384.53,93.7c3.35-3.2,6.73-6.36,10-9.6,7.6-7.4,17.34-7,24.33,1.15a33.67,33.67,0,0,0-4.3,3.11q-97,96.69-193.86,193.41c-1.18,1.18-2.55,2.17-3.84,3.24-7.1-6.06-7.44-16-.69-22.86,9.14-9.31,18.35-18.56,27.53-27.84Z"/><path class="cls-4" d="M354.69,123.54Q339.6,138.78,324.5,154a5.05,5.05,0,0,1-1.74.71q-2.33-13.4-4.64-26.81c-.59-4.09-1.06-8.2-1.8-12.27a9.55,9.55,0,0,1,3-9.13c9.48-9.37,18.91-18.81,28.35-28.22a34.25,34.25,0,0,0,.18,4.65C350.06,96.46,352.39,110,354.69,123.54Z"/><path class="cls-5" d="M354.69,123.54c-2.3-13.54-4.63-27.08-6.88-40.63a34.25,34.25,0,0,1-.18-4.65L357,68.92c.94,3.94,2.11,7.84,2.78,11.83,1.83,10.89,3.46,21.81,5.16,32.72Z"/><path class="cls-9" d="M216.9,285c1.29-1.07,2.66-2.06,3.84-3.24q96.93-96.7,193.86-193.41a33.67,33.67,0,0,1,4.3-3.11,15.42,15.42,0,0,1-.75,19.83c-2.6,2.87-5.48,5.48-8.15,8.28a22.67,22.67,0,0,0-2.1,3.06,7,7,0,0,0-2.06,1q-9.21,9.24-18.35,18.56l-9.41,9.41q-15.69,15.51-31.37,31.06a4,4,0,0,0-.57,1.4L328.86,194.6,325,198.41c-3.25,3.14-6.56,6.23-9.74,9.45-5.73,5.79-11.38,11.66-17.06,17.5l-5.27,5-26.76,26.74-11.5,11.45c-4.16,4-8.46,7.95-12.43,12.17-4.17,4.43-8.6,8.17-14.94,8.84A13.57,13.57,0,0,1,216.9,285Z"/><path class="cls-1" d="M328.86,194.6l17.28-16.77,18.71,3.29c2.87,7.06,6.36,13.94,8.45,21.22A254.19,254.19,0,0,1,381,235.8a182.22,182.22,0,0,1,1.62,31.68,163,163,0,0,1-10.42,51.75,28.12,28.12,0,0,1-1.78,3.27l-19.59-8.69a142,142,0,0,0,5.44-42.58C355.46,242.67,346.13,217.24,328.86,194.6Z"/><path class="cls-10" d="M372.65,182.26l.82.56Z"/><path class="cls-1" d="M275.71,202.46l-32,31.85c-17-7.28-33.25-5.69-47.61,6-14.66,11.89-19.76,27.85-15.22,46.07,4.31,17.29,15.85,28.54,33.21,32.63,16.45,3.87,31.15-.24,43-12.74l1-.38,19.74,8.21c-1.8,2.26-2.93,4-4.35,5.42-19.19,19.62-42.31,29.2-70,27.95-15.6-.71-29.62-5.58-42.83-13.46a21.67,21.67,0,0,0-3.86-1.42,83.11,83.11,0,0,1-19.92-42.84c-4.6-31.66,4.7-58.79,28.41-80.57,29-26.65,74-30.13,107.42-8.56Z"/><path class="cls-3" d="M156.84,332.55A21.67,21.67,0,0,1,160.7,334c13.21,7.88,27.23,12.75,42.83,13.46,27.7,1.25,50.82-8.33,70-27.95,1.42-1.44,2.55-3.16,4.35-5.42l-19.74-8.21c7.19-8.53,11.4-18.24,11.79-29.47l22.83,9.88c3.88-9.51,4.8-19.26,4.45-28.82-.33-9.05-2.75-18-4.25-27l5.27-5c14.55,21.58,18.25,45.16,13.07,70.38a100.78,100.78,0,0,1-12.67,29c-11.48,16.3-26.43,28.06-45.39,34.6C219.11,371.12,178.81,359.94,156.84,332.55Z"/><path class="cls-6" d="M311.31,295.75c5.18-25.22,1.48-48.8-13.07-70.38,5.68-5.85,11.33-11.72,17.06-17.51,3.18-3.22,6.49-6.31,9.74-9.45,6.38,10.23,9.59,21.67,12.37,33.21,3.12,13,3,26.23,2.26,39.37-.64,11.31-3.45,22.35-7.63,33.53Z"/><path class="cls-6" d="M257.16,306.23c-11.89,12.5-26.59,16.61-43,12.74-17.36-4.09-28.9-15.34-33.21-32.63-4.54-18.22.56-34.18,15.22-46.07,14.36-11.65,30.57-13.24,47.61-6-9.18,9.28-18.39,18.53-27.53,27.84-6.75,6.88-6.41,16.8.69,22.86a13.57,13.57,0,0,0,10.44,4.6c.65.72,1.17,1.72,2,2.11,5.71,2.75,11.56,5.23,17.21,8.1C250.21,301.69,253.63,304.08,257.16,306.23Z"/><path class="cls-11" d="M293,230.41c1.5,9,3.92,18,4.25,27,.35,9.56-.57,19.31-4.45,28.82l-22.83-9.88-.34-.79-3.39-18.44Z"/><path class="cls-12" d="M269.6,275.59l.34.79c-.39,11.23-4.6,20.94-11.79,29.47l-1,.38c-3.53-2.15-7-4.54-10.63-6.41-5.65-2.87-11.5-5.35-17.21-8.1-.81-.39-1.33-1.39-2-2.11,6.34-.67,10.77-4.41,14.94-8.84,4-4.22,8.27-8.13,12.43-12.17Z"/><path class="cls-13" d="M269.6,275.59l-14.89-7,11.5-11.45Z"/></svg>