<svg id="Layer_1" data-name="Layer 1" xmlns="http://www.w3.org/2000/svg" viewBox="0 0 500 500"><defs><style>.cls-1{fill:#feb901;}.cls-2{fill:#feb900;}.cls-3{fill:#fe8e01;}.cls-4{fill:#3066bc;}.cls-5{fill:#6599f2;}.cls-6{fill:#6498f0;}</style></defs><path class="cls-1" d="M187.93,363c-12-24-23.94-48.09-36.06-72.06a9.39,9.39,0,0,1-.09-9.45Q193.71,198,235.44,114.41c.57-1.16,1-2.7,1.91-3.32,1.38-.9,3.35-1.75,4.79-1.43,1.24.28,2.35,2.11,3,3.49.48.94.15,2.3.15,3.47q0,70.56.08,141.14c0,4-1.12,6.37-4.74,8.36a17.47,17.47,0,0,0-8.24,20.07,18.08,18.08,0,0,0,35,.06,17.4,17.4,0,0,0-8.18-20.09c-3.81-2.09-4.78-4.67-4.77-8.73q.16-70.19.07-140.37c0-1.17-.37-2.54.11-3.46.83-1.55,2-3.65,3.41-4s3.43,1,4.89,2c.85.59,1.14,2,1.66,3q41.7,83.4,83.47,166.78a9.37,9.37,0,0,1-.06,9.45c-12.12,24-24.07,48-36.07,72.08Z"/><path class="cls-2" d="M318,399.83q0,19.49-.06,39c0,5-1.25,6.24-6.2,6.24q-61.79,0-123.58,0c-4.95,0-6.18-1.25-6.2-6.24q0-19.49-.06-39c8.84,0,17.68-.1,26.52-.1Q263.2,399.76,318,399.83Z"/><path class="cls-3" d="M318,399.67q-54.8,0-109.58-.09c-8.84,0-17.68.06-26.52.09l-8.54-.1c-3.32,0-5.09-1.84-5.13-5.05-.09-8.67-.07-17.34,0-26,0-3.48,2-5.19,5.38-5.26,4.43-.1,8.86-.16,13.28-.23H313.58c3.85.06,7.7.12,11.54.2,5.08.09,6.54,1.49,6.56,6.45q.06,11.83,0,23.68c0,4.72-1.55,6.16-6.33,6.22Z"/><path class="cls-4" d="M122.84,68.93l104.06-.08c1.61,0,3.22-.08,4.83-.12l.77,10.46C164.42,86.65,111.1,145,109.41,213.81l-9.19,0q4.26-81,73.15-123.9c7.2-4.47,15.12-7.78,23.23-11.89H122.8C122.81,75,122.83,72,122.84,68.93Z"/><path class="cls-4" d="M377.06,78H302.8c1.46.81,2.1,1.25,2.81,1.55,51.47,21.91,82.11,60.51,92.29,115.4.82,4.43.67,9,1,13.55.15,1.78.47,3.53.71,5.3h-9.19C388.81,145.27,335.8,87,268,79.25l-.06-10.53,58.84.13,50.28.08Z"/><path class="cls-5" d="M100.22,213.36h9.19c2.59.06,5.18.06,7.77.2,4.11.22,5.6,1.71,5.63,5.79q.07,12.45,0,24.9c0,4.15-1.5,5.69-5.55,5.72-8.44.05-16.87,0-25.3,0-3.33,0-5.3-1.62-5.35-4.83q-.24-13.41,0-26.82c0-3.28,2.32-4.72,5.48-4.8C94.79,213.48,97.5,213.42,100.22,213.36Z"/><path class="cls-5" d="M390.45,213.37h9.19c2.59.06,5.18.1,7.76.2,4.07.14,5.9,1.6,6,5.57q.27,12.63,0,25.28c-.11,4.28-1.8,5.56-6.25,5.58q-12.06,0-24.12,0c-4.57,0-5.93-1.43-5.95-6.12q0-12.06,0-24.12c0-4.55,1.46-6,6-6.19C385.53,213.46,388,213.43,390.45,213.37Z"/><path class="cls-6" d="M267.91,68.28,268,78.82c0,2.59.06,5.18,0,7.78-.09,2.77-1.61,4.38-4.39,4.4q-13.62.07-27.24,0c-2.79,0-4.3-1.63-4.39-4.41-.08-2.59,0-5.18,0-7.77,0-3.51,0-7,.07-10.54,0-2.84-.08-5.68-.06-8.52S233.37,55,236.35,55q13.56-.12,27.13,0c2.93,0,4.44,1.83,4.48,4.75S267.93,65.44,267.91,68.28Z"/><path class="cls-6" d="M122.84,68.49c0,3,0,6.05,0,9.07-1,1.91-2,3.89-3.18,5.71-7.12,11-23.91,9.62-29.92-.17-2.41-3.92-2.35-8.07-1.89-12.73C88.22,66.22,89.1,63,92,60.26A16.77,16.77,0,0,1,106,55.55c5.63.47,9.43,2.35,12.57,6.48C120.08,64.09,121.41,66.33,122.84,68.49Z"/><path class="cls-6" d="M376.05,73.92v-.39a16.66,16.66,0,0,1,2.07-7.65,3,3,0,0,0,.18-.41c2-5.82,6.63-8.62,12.9-9.84,7-1.35,12.29.64,16.58,5.71,1.47,1.74,1.82,4.39,2.82,6.57,1.79,3.9-.17,7.74-.13,11.61,0,4.62-6.75,9.76-12.22,10.85-9.64,1.92-15.73-1.79-20-8.74A14.77,14.77,0,0,1,376.05,73.92Z"/></svg>