<svg id="Layer_1" data-name="Layer 1" xmlns="http://www.w3.org/2000/svg" viewBox="0 0 500 500"><defs><style>.cls-1{fill:#010000;}.cls-2{fill:#5f5f5f;}.cls-3{fill:#fe6600;}.cls-4{fill:#fe9a58;}.cls-5{fill:#fefcfb;}.cls-6{fill:#fefdfc;}</style></defs><path class="cls-1" d="M50,99.91c.52-1,1.06-2,1.55-3C54.86,90,60.24,86.15,68,85.72c.77,0,1.56,0,2.33,0q179.3,0,358.59,0C439.62,85.69,447,91.33,449,101a26.47,26.47,0,0,1,.32,5q0,109.55,0,219.08c0,12.89-7.68,20.53-20.63,20.53H285.21c-1.43,0-2.85.05-4.28.07-5,0-9.95-.52-14.82,1.8-10.4,4.95-21,9.53-31.53,14.15-5.29,2.32-10.7,4.38-16.06,6.55V345.6h-4.37c-47.37,0-94.74-.09-142.1.08-10.41,0-17.79-3.69-21.44-13.74-.06-.18-.4-.25-.61-.38Zm25.08,75c0,.65-.12,1.3-.12,1.95q0,70.37,0,140.75a27.6,27.6,0,0,0,.25,2.78H424.07V110.65H183.71c-1.17,0-2.33.09-3.5.13-.77-.07-1.54-.2-2.31-.2q-50.25,0-100.5,0c-.73,0-1.46.11-2.32.17Z"/><path d="M280.84,388.5l51,.2h5.65v24.75H161.75V388.5H280.84Z"/><path class="cls-2" d="M280.84,388.5H218.45q0-10.15.07-20.32c5.36-2.17,10.77-4.23,16.06-6.55,10.56-4.62,21.13-9.2,31.53-14.15,4.87-2.32,9.81-1.8,14.82-1.8Z"/><path class="cls-3" d="M180.21,110.79c1.17,0,2.33-.13,3.5-.13H424.07v209.7H75.22a27.6,27.6,0,0,1-.25-2.78q0-70.38,0-140.75c0-.65.08-1.3.12-1.95,1.15-.57,2.36-1.05,3.45-1.71q32.35-19.75,64.68-39.53Q161.74,122.26,180.21,110.79Zm39,61.37a5.39,5.39,0,0,0-.91,0Q180,188.65,141.87,205.23a4.29,4.29,0,0,0-1.88,3.2c-.22,4.28.08,8.58-.15,12.86-.15,2.76.8,4.06,3.37,5.16,24.19,10.39,48.31,20.94,72.45,31.44,1,.45,2.11.79,3.53,1.32,0-6.51-.18-12.6.08-18.68.11-2.73-.92-3.85-3.3-4.78-15.95-6.22-31.85-12.56-47.76-18.87-1.15-.46-2.27-1-3.84-1.7,1.15-.48,1.72-.74,2.3-1q24.89-9.54,49.77-19c1.68-.64,2.87-1.18,2.81-3.44C219.07,185.25,219.19,178.76,219.19,172.16Zm114.87,43.2c-1.85.81-2.84,1.28-3.86,1.68q-23.7,9.33-47.4,18.69c-1.34.54-3.48,1.57-3.52,2.45-.29,6.9-.16,13.82-.16,21.18,2-.82,3.31-1.33,4.6-1.89Q314,244.27,344.34,231c4.51-2,10.78-2.87,13-6.33,2.33-3.65.59-9.79.94-14.82.2-2.92-.81-4.31-3.52-5.46-24-10.23-47.87-20.63-71.8-31-1.11-.49-2.28-.85-3.86-1.42,0,6.72.12,12.82-.06,18.91-.07,2.38.84,3.37,2.94,4.17,8.74,3.27,17.42,6.71,26.12,10.1Zm-62.38-60.17c-4.87,0-9.15.16-13.42-.06-2.62-.13-3.46.86-4,3.34-7.11,30-14.37,60.05-21.56,90.08-2.05,8.54-4,17.11-6.1,25.9H242.8C252.39,234.86,262,195.3,271.68,155.19Z"/><path class="cls-4" d="M180.21,110.79q-18.5,11.43-37,22.84-32.33,19.8-64.68,39.53c-1.09.66-2.3,1.14-3.45,1.71V110.76c.86-.06,1.59-.17,2.32-.17q50.25,0,100.5,0C178.67,110.59,179.44,110.72,180.21,110.79Z"/><path class="cls-5" d="M219.19,172.16c0,6.6-.12,13.09.06,19.58.06,2.26-1.13,2.8-2.81,3.44q-24.9,9.47-49.77,19c-.58.22-1.15.48-2.3,1,1.57.7,2.69,1.24,3.84,1.7,15.91,6.31,31.81,12.65,47.76,18.87,2.38.93,3.41,2.05,3.3,4.78-.26,6.08-.08,12.17-.08,18.68-1.42-.53-2.5-.87-3.53-1.32-24.14-10.5-48.26-21-72.45-31.44-2.57-1.1-3.52-2.4-3.37-5.16.23-4.28-.07-8.58.15-12.86a4.29,4.29,0,0,1,1.88-3.2q38.15-16.66,76.41-33.07A5.39,5.39,0,0,1,219.19,172.16Z"/><path class="cls-6" d="M334.06,215.36l-26-10.13c-8.7-3.39-17.38-6.83-26.12-10.1-2.1-.8-3-1.79-2.94-4.17.18-6.09.06-12.19.06-18.91,1.58.57,2.75.93,3.86,1.42,23.93,10.33,47.83,20.73,71.8,31,2.71,1.15,3.72,2.54,3.52,5.46-.35,5,1.39,11.17-.94,14.82-2.2,3.46-8.47,4.37-13,6.33q-30.3,13.25-60.62,26.43c-1.29.56-2.6,1.07-4.6,1.89,0-7.36-.13-14.28.16-21.18,0-.88,2.18-1.91,3.52-2.45q23.67-9.4,47.4-18.69C331.22,216.64,332.21,216.17,334.06,215.36Z"/><path class="cls-5" d="M271.68,155.19C262,195.3,252.39,234.86,242.8,274.45H226.55c2.07-8.79,4-17.36,6.1-25.9,7.19-30,14.45-60,21.56-90.08.59-2.48,1.43-3.47,4-3.34C262.53,155.35,266.81,155.19,271.68,155.19Z"/></svg>