<svg id="Layer_1" data-name="Layer 1" xmlns="http://www.w3.org/2000/svg" viewBox="0 0 500 500"><defs><style>.cls-1{fill:#eceaf1;}.cls-2{fill:#f16775;}.cls-3{fill:#fecc67;}.cls-4{fill:#435c72;}.cls-5{fill:#fedd76;}.cls-6{fill:#db576a;}.cls-7{fill:#384f68;}.cls-8{fill:#d9d6e4;}.cls-9{fill:#f16674;}.cls-10{fill:#da576a;}.cls-11{fill:#435b72;}.cls-12{fill:#385068;}.cls-13{fill:#395169;}.cls-14{fill:#435c73;}.cls-15{fill:#feba56;}.cls-16{fill:#d9d5e3;}.cls-17{fill:#ece9f0;}.cls-18{fill:#fdfdfd;}</style></defs><path class="cls-1" d="M253.61,275.85c4.6,4.74,9.22,9.46,13.77,14.26a29.27,29.27,0,0,1,2.5,3.48l-27.15,12.88c-15.23,7.24-30.43,14.52-45.68,21.71-10.64,5-20.8,3.18-29.11-5.12-4.41-4.41-8.8-8.84-13.24-13.23Q143.87,299.14,133,288.48c3-6.69,5.82-13.45,8.95-20.07,8.11-17.14,16.37-34.22,24.54-51.33,2.88-6,5.68-12.13,8.78-18.75,1.29,1.14,2.3,1.93,3.19,2.82q13.68,13.64,27.32,27.28c1,1,2.23,1.89,3.35,2.83a11.3,11.3,0,0,0,1.47,2.62q20.15,20.24,40.37,40.37A13.43,13.43,0,0,0,253.61,275.85Z"/><path class="cls-2" d="M328.69,69.84a19.86,19.86,0,0,1,2.84-.42q40.8,0,81.6,0c7.46,0,13.38,2.86,16.31,10.13a18.92,18.92,0,0,1,1.31,6.78c.1,19.84.06,39.69,0,59.54a10.45,10.45,0,0,1-.43,2.1c-28.81,0-57.62-.2-86.43.1-7.57.08-15.49-7.35-15.34-15.34C329,111.78,328.7,90.81,328.69,69.84Zm54.66,54.66c3.6-1.21,5.71-3.6,5.89-7.5s-2-6.07-5.18-7.67c-6.42-3.28-12.79-6.64-19.27-9.78-1.56-.76-3.47-.78-5.22-1.14-5,.65-7.33,3-7.38,7.8-.08,7.09-.11,14.19,0,21.28.1,6.28,5.6,9.81,11.24,7.11C370.14,131.39,376.72,127.88,383.35,124.5Z"/><path class="cls-3" d="M194.88,148c-.23,9.41-6.59,16-16,16q-46.69.15-93.39,0c-9.36,0-15.79-6.82-15.88-16.16-.18-17.27-.44-34.55-.42-51.82a74.49,74.49,0,0,1,1.43-15.65c.55-2.53,3.17-4.62,4.85-6.9C81.14,77.89,86.81,82.34,93,87.38V69.85a32.63,32.63,0,0,1,3.78-.5q37.08-.06,74.17,0a56.84,56.84,0,0,1,11.31.81c2.59.54,4.93,2.31,7.38,3.53C182.79,78.9,176,84.2,169.08,89.4Q150.72,103.24,132.27,117C119.4,107.39,106.7,97.89,94,87.82v4.56c-.74,13.47-.75,27-.74,40.42,0,8.81,6.39,15.14,15.26,15.14Z"/><path class="cls-4" d="M334.61,315.7c1.75.67,3.73,1,5.2,2.08,5.09,3.66,10.8,1.55,11.89-4.56,1.13-6.39,3.33-8.25,9.9-8.29,4.41,0,8.83-.09,13.24,0,5.4.13,7.76,2.21,8.76,7.46,1.36,7.21,6.61,9.28,12.45,4.9,3.59-2.7,7-2.68,10.25.37,3.91,3.71,7.75,7.5,11.45,11.42,3.46,3.67,3.47,6.75.4,10.76-4.11,5.38-1.95,10.95,4.71,12.14,5.7,1,7.77,3.36,7.87,9.17.09,4.66.12,9.32,0,14-.15,5.39-2.24,7.7-7.52,8.71-7.16,1.37-9.07,6.54-4.82,12.55.91,1.29,1.06,3.11,1.56,4.68a33.31,33.31,0,0,0-4.88,1.4,56.79,56.79,0,0,1-33.13,4.31,62.24,62.24,0,0,1-38.65-22.38c-13.73-16.65-18.37-35.3-12.65-56.28C331.77,323.93,333.27,319.84,334.61,315.7Zm33,28.74c-12.69.13-23.43,10.95-23.39,23.55s10.88,23.48,23.46,23.49c12.8,0,23.78-11.07,23.57-23.75S380.17,344.31,367.59,344.44Z"/><path class="cls-5" d="M194.63,148H108.27c-8.88,0-15.26-6.33-15.27-15.14q0-20.21,0-40.42V87.82L132,117q18.45-13.83,36.81-27.63c6.89-5.2,13.71-10.5,20.56-15.75,3.42,2.13,4.84,5.46,5.11,9.23.4,5.71.69,11.44.72,17.17.08,14.67,0,29.34-.06,44A30.5,30.5,0,0,1,194.63,148Z"/><path class="cls-6" d="M328.69,69.84c0,21,.27,41.94-.1,62.89-.15,8,7.77,15.42,15.34,15.34,28.81-.3,57.62-.11,86.43-.1-.23,9.29-6.4,15.9-15.66,15.95q-47,.21-94.09,0c-9.22,0-15.53-6.81-15.57-16q-.1-31.05,0-62.11c0-9.53,6.41-15.8,15.93-16C323.54,69.76,326.12,69.83,328.69,69.84Z"/><path class="cls-7" d="M334.61,315.7c-1.34,4.14-2.84,8.23-4,12.42-5.72,21-1.08,39.63,12.65,56.28a62.24,62.24,0,0,0,38.65,22.38,56.79,56.79,0,0,0,33.13-4.31,33.31,33.31,0,0,1,4.88-1.4c-.72,1.86-1,4.07-2.24,5.51-3.25,3.82-6.84,7.35-10.37,10.92-3.68,3.72-7.18,3.92-11.39.79-5.69-4.21-11.45-1.81-12.6,5.25-.81,5-3,7-8.06,7.12s-10,.06-15.07,0-7.35-2.11-8.11-7.06c-1.13-7.3-6.8-9.58-12.79-5.14-3.75,2.79-7.1,2.63-10.49-.68q-5.67-5.5-11.16-11.19c-3.1-3.21-3.2-6.58-.49-10.2,4.58-6.1,2.23-11.69-5.41-12.85-4.32-.66-6.63-3-6.72-7.29q-.18-8.26,0-16.54c.09-4.3,2.37-6.68,6.67-7.34,7.84-1.21,10-6.58,5.28-13.11-2.4-3.3-2.37-6.73.42-9.66,3.88-4.09,7.81-8.14,12-11.9C330.68,316.53,332.84,316.34,334.61,315.7Z"/><path class="cls-8" d="M133,288.48q10.86,10.66,21.71,21.35c4.44,4.39,8.83,8.82,13.24,13.23,8.31,8.3,18.47,10.14,29.11,5.12,15.25-7.19,30.45-14.47,45.68-21.71l27.15-12.88c5.09,5.45,10.17,10.9,15.3,16.38-4.11,2-8.76,4.36-13.47,6.6q-20.55,9.8-41.14,19.5-23.91,11.28-47.86,22.47a15.81,15.81,0,0,1-2.09.63L169,348.09c-.88-1-1.72-2-2.66-3Q146,324.63,125.58,304.17Z"/><path class="cls-9" d="M125.58,304.17q20.4,20.47,40.78,40.95c.94.94,1.78,2,2.66,3a23.52,23.52,0,0,0-2,1.63c-5.93,6.15-11.73,12.43-17.79,18.45-10.86,10.81-24.85,10.71-35.64-.07Q104.3,358.76,95,349.43c-2.22-2.21-4.52-4.34-6.78-6.5,1.22-1.79,2.19-3.83,3.68-5.35,10.78-10.94,21.66-21.78,32.51-32.64A6.31,6.31,0,0,1,125.58,304.17Z"/><path class="cls-10" d="M88.17,342.93c2.26,2.16,4.56,4.29,6.78,6.5q9.36,9.3,18.68,18.67c10.79,10.78,24.78,10.88,35.64.07,6.06-6,11.86-12.3,17.79-18.45a23.52,23.52,0,0,1,2-1.63l11.6,11.08-10.41,11.58-14.59,14.79-7.39,7.31c-8.69,7.32-18.12,9.21-28.46,3.77a20.86,20.86,0,0,1-4.68-3.48c-7.64-7.38-15.29-14.77-22.78-22.31C84.51,363,83,352.17,88.17,342.93Z"/><path class="cls-11" d="M155.62,385.54l14.59-14.79q17.07,17.25,34.1,34.52a6.77,6.77,0,0,1,1,1.92c-4.49,7.06-11.16,9.58-18.78,6.53a24.36,24.36,0,0,1-7.31-5.19C171.23,401,163.45,393.22,155.62,385.54Z"/><path class="cls-12" d="M155.62,385.54c7.83,7.68,15.61,15.43,23.56,23a24.36,24.36,0,0,0,7.31,5.19c7.62,3,14.29.53,18.78-6.53,3.84,6.94,2.41,14.87-3.58,19.81s-14.63,5-20.18-.42c-11.28-11.05-22.21-22.46-33.28-33.73Z"/><path class="cls-13" d="M253.61,275.85a13.43,13.43,0,0,1-2.65-1.6q-20.24-20.15-40.37-40.37a11.3,11.3,0,0,1-1.47-2.62l10-6.06a20.76,20.76,0,0,0,2.18,3.23c7,7,14,14,21,21A13.46,13.46,0,0,0,253,253.85c3-.21,6-.9,8.94-1.38C262.81,261.56,259.25,269.07,253.61,275.85Z"/><path class="cls-14" d="M262,252.47c-3,.48-5.94,1.17-8.94,1.38a13.46,13.46,0,0,1-10.82-4.39c-7-7-14-14-21-21a20.76,20.76,0,0,1-2.18-3.23C237.72,216.06,262.89,232.06,262,252.47Z"/><path class="cls-2" d="M234.41,183c0-3.92-.09-7.84,0-11.75.14-4.63,3.2-7.59,7.64-7.62a7.45,7.45,0,0,1,7.84,7.49c.17,8,.15,15.92,0,23.87a7.81,7.81,0,0,1-7.72,7.74c-4.37,0-7.69-3.29-7.8-8-.09-3.92,0-7.83,0-11.75Z"/><path class="cls-2" d="M301.28,234.63c3.8,0,7.59-.07,11.38,0,4.76.12,8,3.36,7.95,7.81a7.8,7.8,0,0,1-7.75,7.7q-11.75.2-23.5,0a7.57,7.57,0,0,1-7.84-7.89c0-4.56,3.08-7.47,8-7.66h11.75Z"/><path class="cls-2" d="M267,209.24c1-1.75,1.67-3.77,3-5.19,4.93-5.26,10-10.36,15.15-15.44a7.76,7.76,0,0,1,11.16-.3,7.61,7.61,0,0,1,.13,10.87c-5.21,5.5-10.54,10.89-15.92,16.22a7,7,0,0,1-8.77,1.3C268.89,215.22,267.38,212.82,267,209.24Z"/><path class="cls-15" d="M93,69.85V87.38L75.24,73.45c3.15-1.21,6.22-2.8,9.48-3.51C87.36,69.37,90.23,69.84,93,69.85Z"/><path class="cls-16" d="M383.35,124.5c-6.63,3.38-13.21,6.89-19.92,10.1-5.64,2.7-11.14-.83-11.24-7.11-.11-7.09-.08-14.19,0-21.28.05-4.79,2.38-7.15,7.38-7.8C358.47,114.89,371.6,125.16,383.35,124.5Z"/><path class="cls-17" d="M383.35,124.5c-11.75.66-24.88-9.61-23.78-26.09,1.75.36,3.66.38,5.22,1.14,6.48,3.14,12.85,6.5,19.27,9.78,3.14,1.6,5.37,3.82,5.18,7.67S387,123.29,383.35,124.5Z"/><path class="cls-18" d="M367.59,344.44c12.58-.13,23.43,10.56,23.64,23.29s-10.77,23.75-23.57,23.75c-12.58,0-23.41-10.85-23.46-23.49S354.9,344.57,367.59,344.44Z"/></svg>